<?xml version="1.0" encoding="UTF-8"?>
<!DOCTYPE svg PUBLIC "-//W3C//DTD SVG 1.1//EN" "http://www.w3.org/Graphics/SVG/1.1/DTD/svg11.dtd">
<svg xmlns="http://www.w3.org/2000/svg" version="1.1" width="1587px" height="2245px" style="shape-rendering:geometricPrecision; text-rendering:geometricPrecision; image-rendering:optimizeQuality; fill-rule:evenodd; clip-rule:evenodd" xmlns:xlink="http://www.w3.org/1999/xlink">
<g><path style="opacity:1" fill="#dbfefe" d="M -0.5,-0.5 C 230.5,-0.5 461.5,-0.5 692.5,-0.5C 692.531,2.9588 693.198,6.29213 694.5,9.5C 686.654,10.8402 679.82,14.1736 674,19.5C 667.666,33.0079 671.833,41.8412 686.5,46C 693.553,47.0705 700.22,45.9038 706.5,42.5C 711.743,52.2472 719.076,54.0805 728.5,48C 730.017,46.3149 731.684,44.8149 733.5,43.5C 738.491,62.6669 750.824,70.8336 770.5,68C 775.455,66.5242 779.788,64.0242 783.5,60.5C 796.978,63.8825 809.311,61.3825 820.5,53C 823.04,50.7953 825.207,48.2953 827,45.5C 831.789,48.92 836.956,49.42 842.5,47C 845.474,44.8586 847.474,42.0253 848.5,38.5C 861.522,52.9955 877.856,59.1622 897.5,57C 909.78,54.3598 920.113,48.3598 928.5,39C 940.125,38.695 949.625,34.195 957,25.5C 958.598,23.1055 958.764,20.7721 957.5,18.5C 956.342,15.1783 954.008,13.0117 950.5,12C 944.009,11.2511 937.676,11.5845 931.5,13C 932.586,8.55615 932.586,4.05615 931.5,-0.5C 1149.83,-0.5 1368.17,-0.5 1586.5,-0.5C 1586.5,52.1667 1586.5,104.833 1586.5,157.5C 1581.28,157.388 1576.28,158.388 1571.5,160.5C 1572.22,136.791 1561.22,121.291 1538.5,114C 1513,111.002 1494.16,120.835 1482,143.5C 1472.94,129.722 1460.11,123.555 1443.5,125C 1436.59,125.709 1430.42,128.209 1425,132.5C 1423.49,113.96 1414.32,108.46 1397.5,116C 1396,117.5 1394.5,119 1393,120.5C 1385.85,114.013 1378.85,114.013 1372,120.5C 1369.91,96.7785 1357.41,81.9451 1334.5,76C 1315.41,74.6068 1302.41,82.7735 1295.5,100.5C 1282.09,91.2233 1270.26,92.8899 1260,105.5C 1258.31,108.776 1257.14,112.109 1256.5,115.5C 1231.06,112.777 1219.22,124.111 1221,149.5C 1221.36,151.421 1222.19,153.088 1223.5,154.5C 1212.65,156.055 1202.99,160.222 1194.5,167C 1184.63,178.979 1185.3,190.313 1196.5,201C 1210.45,209.98 1224.95,210.814 1240,203.5C 1248.23,216.549 1259.07,219.049 1272.5,211C 1275.28,209.188 1277.78,207.021 1280,204.5C 1287.28,233.054 1305.44,244.888 1334.5,240C 1341.73,237.756 1348.23,234.256 1354,229.5C 1379.38,234.707 1400.38,227.373 1417,207.5C 1427.13,213.601 1436.46,212.601 1445,204.5C 1446.56,202.043 1447.56,199.376 1448,196.5C 1472.4,223.381 1501.9,230.881 1536.5,219C 1547.7,214.409 1557.03,207.409 1564.5,198C 1571.99,197.115 1579.33,195.615 1586.5,193.5C 1586.5,425.167 1586.5,656.833 1586.5,888.5C 1573.65,885.285 1562.81,888.618 1554,898.5C 1543.61,882.444 1529.78,878.611 1512.5,887C 1502.54,894.414 1496.2,904.247 1493.5,916.5C 1488.39,913.758 1483.39,914.092 1478.5,917.5C 1464.3,906.856 1455.8,910.19 1453,927.5C 1435.6,917.398 1420.43,920.065 1407.5,935.5C 1396.95,917.222 1381.28,909.722 1360.5,913C 1344.02,919.846 1336.02,932.012 1336.5,949.5C 1328.05,945.398 1319.71,945.564 1311.5,950C 1309.54,951.451 1308.2,953.284 1307.5,955.5C 1307.25,962.752 1310.25,968.252 1316.5,972C 1324.59,976.522 1333.25,979.189 1342.5,980C 1356.38,996.299 1374.05,1002.97 1395.5,1000C 1407.29,997.934 1417.95,993.434 1427.5,986.5C 1428.91,997.146 1434.25,1005.31 1443.5,1011C 1458.4,1019.28 1474.4,1022.78 1491.5,1021.5C 1502.78,1036.23 1517.78,1044.4 1536.5,1046C 1553.94,1048.2 1570.61,1045.7 1586.5,1038.5C 1586.5,1401.17 1586.5,1763.83 1586.5,2126.5C 1584.95,2121.75 1582.29,2117.59 1578.5,2114C 1572.09,2110.81 1565.42,2108.31 1558.5,2106.5C 1563.58,2084.24 1554.58,2073.9 1531.5,2075.5C 1530.5,2068 1526.5,2062.84 1519.5,2060C 1512.64,2057.46 1506.47,2058.62 1501,2063.5C 1494.18,2048 1482.34,2041.84 1465.5,2045C 1450.86,2051.42 1442.36,2062.58 1440,2078.5C 1434.36,2074.33 1429.02,2074.67 1424,2079.5C 1415.84,2070.32 1407.84,2070.32 1400,2079.5C 1399.01,2082.42 1398.35,2085.42 1398,2088.5C 1385.97,2080.69 1373.8,2080.52 1361.5,2088C 1358.3,2090.87 1355.46,2094.04 1353,2097.5C 1339.11,2073.78 1319.94,2067.95 1295.5,2080C 1284.74,2087.83 1280.74,2098.17 1283.5,2111C 1280.82,2110.78 1278.15,2110.11 1275.5,2109C 1269.28,2107.94 1263.28,2108.61 1257.5,2111C 1255.54,2112.45 1254.2,2114.28 1253.5,2116.5C 1252.3,2119.41 1252.47,2122.41 1254,2125.5C 1263.05,2135.08 1274.21,2140.25 1287.5,2141C 1309.57,2163.44 1334.9,2167.78 1363.5,2154C 1369.64,2149.85 1375.14,2145.02 1380,2139.5C 1384.5,2151.82 1392.67,2154.82 1404.5,2148.5C 1412.55,2159.01 1423.21,2165.18 1436.5,2167C 1443.17,2167.12 1449.84,2167.12 1456.5,2167C 1476.65,2180.44 1494.15,2177.6 1509,2158.5C 1510.8,2154.32 1512.13,2149.98 1513,2145.5C 1520.69,2155.15 1529.85,2156.98 1540.5,2151C 1542.21,2149.07 1543.55,2146.91 1544.5,2144.5C 1556.5,2150.31 1568.17,2149.81 1579.5,2143C 1582.74,2140 1585.07,2136.5 1586.5,2132.5C 1586.5,2169.83 1586.5,2207.17 1586.5,2244.5C 1057.5,2244.5 528.5,2244.5 -0.5,2244.5C -0.5,2189.17 -0.5,2133.83 -0.5,2078.5C 6.89063,2076.89 13.3906,2073.55 19,2068.5C 32.2298,2081.02 47.7298,2084.85 65.5,2080C 77.8656,2077.85 86.1989,2071.02 90.5,2059.5C 109.406,2065.09 127.406,2062.92 144.5,2053C 155.588,2044.99 160.254,2034.15 158.5,2020.5C 158.204,2018.6 157.537,2016.93 156.5,2015.5C 152.777,2005.94 146.11,1999.11 136.5,1995C 123.884,1990.3 110.884,1988.63 97.5,1990C 90.8944,1976.74 80.2277,1968.74 65.5,1966C 58.1667,1965.33 50.8333,1965.33 43.5,1966C 39.2671,1966.89 35.2671,1968.39 31.5,1970.5C 25.8623,1955.69 15.1957,1948.36 -0.5,1948.5C -0.5,1788.17 -0.5,1627.83 -0.5,1467.5C 22.372,1469.3 44.372,1465.8 65.5,1457C 72.2132,1453.62 78.3799,1449.45 84,1444.5C 92.5563,1454.03 103.056,1460.36 115.5,1463.5C 115.015,1469 116.015,1474.16 118.5,1479C 106.171,1480.58 95.6713,1485.75 87,1494.5C 79.2302,1513.47 85.3969,1525.97 105.5,1532C 115.909,1533.21 125.909,1531.71 135.5,1527.5C 138.683,1535.34 144.517,1539.34 153,1539.5C 162.596,1539.2 170.262,1535.2 176,1527.5C 177.971,1545.48 187.471,1557.65 204.5,1564C 220.13,1568.26 234.13,1565.26 246.5,1555C 264.576,1557.93 281.576,1554.93 297.5,1546C 303,1541.83 307.833,1537 312,1531.5C 313.579,1533.04 315.413,1534.21 317.5,1535C 325.934,1537.06 333.267,1535.23 339.5,1529.5C 341.717,1526.93 342.884,1523.93 343,1520.5C 343.708,1521.38 344.542,1522.05 345.5,1522.5C 345.333,1538.84 345.5,1555.17 346,1571.5C 348.108,1594.73 358.274,1613.39 376.5,1627.5C 338.135,1665.03 300.969,1703.7 265,1743.5C 260.991,1751.49 263.157,1757.15 271.5,1760.5C 277.221,1758.81 282.554,1756.31 287.5,1753C 309.332,1740.25 330.999,1727.25 352.5,1714C 386.672,1691.31 420.672,1668.48 454.5,1645.5C 587.5,1645.5 720.5,1645.5 853.5,1645.5C 858.678,1648.38 864.345,1649.88 870.5,1650C 876.028,1650.71 881.528,1650.55 887,1649.5C 898.138,1663.49 912.638,1671.99 930.5,1675C 953.924,1679.13 975.424,1674.63 995,1661.5C 1017.72,1678.88 1041.88,1681.04 1067.5,1668C 1074.12,1663.39 1079.29,1657.55 1083,1650.5C 1097.42,1654.23 1111.92,1654.39 1126.5,1651C 1130.81,1649.63 1134.81,1647.79 1138.5,1645.5C 1149.5,1645.5 1160.5,1645.5 1171.5,1645.5C 1203.98,1665.07 1237.64,1682.57 1272.5,1698C 1289.49,1704.51 1306.16,1703.84 1322.5,1696C 1324.38,1694.46 1325.88,1692.62 1327,1690.5C 1328.58,1678.5 1325.92,1667.5 1319,1657.5C 1311.79,1647.29 1302.96,1638.79 1292.5,1632C 1273.78,1618.98 1254.78,1606.48 1235.5,1594.5C 1237.15,1588.89 1238.65,1583.23 1240,1577.5C 1240.67,1563.5 1240.67,1549.5 1240,1535.5C 1233.68,1529.73 1228.18,1530.4 1223.5,1537.5C 1223.5,1480.83 1223.5,1424.17 1223.5,1367.5C 1224.15,1366.91 1224.82,1366.24 1225.5,1365.5C 1231.91,1393.21 1249.25,1405.37 1277.5,1402C 1284.83,1400.5 1291.17,1397.17 1296.5,1392C 1302.15,1391.87 1307.82,1392.04 1313.5,1392.5C 1333.27,1392.78 1349.27,1385.28 1361.5,1370C 1365.46,1371.87 1369.8,1372.71 1374.5,1372.5C 1384.65,1372.85 1391.15,1368.18 1394,1358.5C 1412.66,1379.73 1436.16,1388.57 1464.5,1385C 1483.18,1382 1498.51,1373.34 1510.5,1359C 1526.55,1358.72 1540.05,1352.88 1551,1341.5C 1552,1339.5 1553,1337.5 1554,1335.5C 1554.79,1333.29 1554.62,1331.29 1553.5,1329.5C 1551.19,1323.66 1546.86,1320.16 1540.5,1319C 1531.91,1317.61 1523.75,1318.78 1516,1322.5C 1517.56,1298.36 1506.73,1282.53 1483.5,1275C 1458.19,1272.49 1439.52,1282.32 1427.5,1304.5C 1417.09,1289.41 1402.76,1283.58 1384.5,1287C 1379.54,1288.23 1375.04,1290.4 1371,1293.5C 1370.03,1279.85 1362.86,1273.35 1349.5,1274C 1345.12,1275.73 1341.28,1278.23 1338,1281.5C 1333.42,1277.88 1328.25,1276.71 1322.5,1278C 1320.71,1278.78 1319.21,1279.95 1318,1281.5C 1315.45,1261.3 1304.95,1247.13 1286.5,1239C 1267.74,1234.47 1253.24,1240.31 1243,1256.5C 1241.87,1281.95 1241.04,1307.29 1240.5,1332.5C 1240.67,1270.17 1240.5,1207.83 1240,1145.5C 1233.34,1113.84 1214.84,1092.34 1184.5,1081C 1174.75,1077.75 1164.75,1076.25 1154.5,1076.5C 1182.85,1050.79 1208.68,1022.79 1232,992.5C 1237.22,984.719 1241.39,976.386 1244.5,967.5C 1242.92,961.916 1239.25,958.916 1233.5,958.5C 1223.04,960.154 1213.04,963.32 1203.5,968C 1176.98,982.536 1150.98,997.87 1125.5,1014C 1098.29,1035.09 1070.95,1055.93 1043.5,1076.5C 862.167,1076.5 680.833,1076.5 499.5,1076.5C 465.29,1048.06 429.623,1021.56 392.5,997C 371.513,984.614 349.18,975.447 325.5,969.5C 320.003,971.158 318.17,974.825 320,980.5C 329.441,1003.58 341.774,1024.92 357,1044.5C 368.666,1058.33 381.166,1071.33 394.5,1083.5C 366.622,1096.88 350.455,1118.88 346,1149.5C 345.5,1249.5 345.333,1349.5 345.5,1449.5C 336.079,1448.65 327.579,1450.98 320,1456.5C 319.391,1440.87 311.558,1434.71 296.5,1438C 293.5,1440.17 290.5,1442.33 287.5,1444.5C 281.152,1439.68 274.652,1439.35 268,1443.5C 266.531,1440.04 265.697,1436.37 265.5,1432.5C 291.533,1428.93 311.7,1416.26 326,1394.5C 331.092,1383.62 332.592,1372.29 330.5,1360.5C 329.985,1358.11 329.319,1355.77 328.5,1353.5C 321.83,1335.99 309.83,1323.49 292.5,1316C 270.661,1306.43 247.994,1303.93 224.5,1308.5C 220.563,1302.05 216.397,1295.72 212,1289.5C 185.521,1264.84 154.687,1257.34 119.5,1267C 114.903,1268.64 110.403,1270.48 106,1272.5C 100.47,1259.24 91.9702,1248.41 80.5,1240C 53.4393,1227.14 31.2726,1232.97 14,1257.5C 10.5302,1262.77 7.86357,1268.44 6,1274.5C 3.70088,1275.58 1.53422,1275.25 -0.5,1273.5C -0.5,1153.17 -0.5,1032.83 -0.5,912.5C 25.104,924.539 49.7707,922.872 73.5,907.5C 93.07,923.16 113.737,924.66 135.5,912C 140.107,908.067 143.94,903.567 147,898.5C 167.65,904.113 186.484,900.613 203.5,888C 211.294,880.121 214.627,870.621 213.5,859.5C 212.976,857.694 212.309,856.028 211.5,854.5C 206.946,843.45 198.946,835.95 187.5,832C 176.348,828.525 165.015,827.692 153.5,829.5C 141.941,810.387 124.941,801.887 102.5,804C 96.5916,804.684 91.0916,806.517 86,809.5C 76.5975,787.259 61.4308,781.759 40.5,793C 35.026,798.108 31.1927,804.275 29,811.5C 19.4441,807.086 9.61079,806.419 -0.5,809.5C -0.5,635.5 -0.5,461.5 -0.5,287.5C 37.6639,309.541 77.3306,312.374 118.5,296C 125.671,292.584 132.338,288.418 138.5,283.5C 146.975,292.07 156.975,298.07 168.5,301.5C 169.358,307.265 170.691,312.931 172.5,318.5C 160.648,319.51 150.481,324.176 142,332.5C 133.431,349.353 137.931,361.52 155.5,369C 167.145,372.763 178.478,371.93 189.5,366.5C 197.191,378.508 207.524,381.342 220.5,375C 223.965,372.537 227.131,369.704 230,366.5C 235.298,392.474 251.131,404.974 277.5,404C 287.207,402.661 295.707,398.828 303,392.5C 328.535,397.6 349.702,390.267 366.5,370.5C 376.074,375.823 385.241,375.157 394,368.5C 395.608,365.618 396.941,362.618 398,359.5C 418.941,383.53 445.108,392.03 476.5,385C 490.55,381.147 502.55,373.98 512.5,363.5C 512.333,380.503 512.5,397.503 513,414.5C 518.906,448.908 539.073,468.574 573.5,473.5C 679.332,474.499 785.332,474.833 891.5,474.5C 897.919,480.714 905.586,484.881 914.5,487C 924.47,488.033 934.47,488.866 944.5,489.5C 951.823,500.312 961.823,507.479 974.5,511C 992.497,511.5 1010.5,511.667 1028.5,511.5C 1041.17,511.5 1053.83,511.5 1066.5,511.5C 1081.84,511.667 1097.17,511.5 1112.5,511C 1123.88,506.957 1132.04,499.457 1137,488.5C 1160.35,495.428 1182.18,492.261 1202.5,479C 1214,469.499 1219,457.332 1217.5,442.5C 1216.98,440.694 1216.31,439.028 1215.5,437.5C 1212.33,428.485 1206.67,421.319 1198.5,416C 1181.62,406.731 1163.62,403.397 1144.5,406C 1135.84,389.352 1122.17,379.686 1103.5,377C 1093.41,376.08 1083.41,376.58 1073.5,378.5C 1073.67,340.499 1073.5,302.499 1073,264.5C 1066.51,234.013 1048.01,215.513 1017.5,209C 867.833,208.333 718.167,208.333 568.5,209C 540.305,215.527 522.139,232.694 514,260.5C 512.656,271.118 512.156,281.784 512.5,292.5C 495.994,274.588 476.661,271.088 454.5,282C 444.196,287.635 436.696,295.802 432,306.5C 422.107,291.809 408.274,285.642 390.5,288C 385.013,289.078 380.013,291.244 375.5,294.5C 374.854,285.019 370.187,278.519 361.5,275C 353.709,274.562 347.376,277.395 342.5,283.5C 335.867,277.312 329.034,276.979 322,282.5C 321.351,278.75 320.518,275.083 319.5,271.5C 339.912,268.544 357.412,259.877 372,245.5C 383.866,231.756 388.033,216.089 384.5,198.5C 384.59,195.848 383.924,193.515 382.5,191.5C 379.973,184.116 376.139,177.449 371,171.5C 356.012,157.258 338.179,148.758 317.5,146C 306.5,145.333 295.5,145.333 284.5,146C 282.444,146.311 280.444,146.811 278.5,147.5C 266.639,122.545 246.972,107.712 219.5,103C 199.191,99.3579 179.691,101.858 161,110.5C 156.041,101.422 150.208,92.9219 143.5,85C 117.166,64.9818 92.9993,67.4818 71,92.5C 66.3824,99.401 62.5491,106.734 59.5,114.5C 39.3188,106.177 19.3188,106.51 -0.5,115.5C -0.5,76.8333 -0.5,38.1667 -0.5,-0.5 Z"/></g>
<g><path style="opacity:1" fill="#cfe2f0" d="M 692.5,-0.5 C 696.833,-0.5 701.167,-0.5 705.5,-0.5C 706.757,4.60181 709.757,8.43514 714.5,11C 710.722,13.112 707.222,15.612 704,18.5C 701.846,22.0584 702.346,25.2251 705.5,28C 708.711,29.1532 712.044,29.8198 715.5,30C 720.442,37.268 726.442,38.268 733.5,33C 735.351,31.3163 737.018,29.4829 738.5,27.5C 748.026,37.1083 759.359,40.6083 772.5,38C 777.239,35.7567 781.572,32.9233 785.5,29.5C 800.512,35.1091 812.012,31.1091 820,17.5C 828.705,26.3688 835.871,25.3688 841.5,14.5C 853.255,29.3807 868.589,38.0474 887.5,40.5C 900.69,39.2881 913.023,35.4548 924.5,29C 934.776,29.7587 944.442,27.7587 953.5,23C 955.041,21.6288 956.375,20.1288 957.5,18.5C 958.764,20.7721 958.598,23.1055 957,25.5C 949.625,34.195 940.125,38.695 928.5,39C 920.113,48.3598 909.78,54.3598 897.5,57C 877.856,59.1622 861.522,52.9955 848.5,38.5C 847.474,42.0253 845.474,44.8586 842.5,47C 836.956,49.42 831.789,48.92 827,45.5C 825.207,48.2953 823.04,50.7953 820.5,53C 809.311,61.3825 796.978,63.8825 783.5,60.5C 779.788,64.0242 775.455,66.5242 770.5,68C 750.824,70.8336 738.491,62.6669 733.5,43.5C 731.684,44.8149 730.017,46.3149 728.5,48C 719.076,54.0805 711.743,52.2472 706.5,42.5C 700.22,45.9038 693.553,47.0705 686.5,46C 671.833,41.8412 667.666,33.0079 674,19.5C 679.82,14.1736 686.654,10.8402 694.5,9.5C 693.198,6.29213 692.531,2.9588 692.5,-0.5 Z"/></g>
<g><path style="opacity:1" fill="#f1f7fb" d="M 705.5,-0.5 C 780.833,-0.5 856.167,-0.5 931.5,-0.5C 932.586,4.05615 932.586,8.55615 931.5,13C 937.676,11.5845 944.009,11.2511 950.5,12C 954.008,13.0117 956.342,15.1783 957.5,18.5C 956.375,20.1288 955.041,21.6288 953.5,23C 944.442,27.7587 934.776,29.7587 924.5,29C 913.023,35.4548 900.69,39.2881 887.5,40.5C 868.589,38.0474 853.255,29.3807 841.5,14.5C 835.871,25.3688 828.705,26.3688 820,17.5C 812.012,31.1091 800.512,35.1091 785.5,29.5C 781.572,32.9233 777.239,35.7567 772.5,38C 759.359,40.6083 748.026,37.1083 738.5,27.5C 737.018,29.4829 735.351,31.3163 733.5,33C 726.442,38.268 720.442,37.268 715.5,30C 712.044,29.8198 708.711,29.1532 705.5,28C 702.346,25.2251 701.846,22.0584 704,18.5C 707.222,15.612 710.722,13.112 714.5,11C 709.757,8.43514 706.757,4.60181 705.5,-0.5 Z"/></g>
<g><path style="opacity:1" fill="#fefeff" d="M 382.5,191.5 C 365.355,173.716 344.355,163.882 319.5,162C 305.402,160.32 291.736,161.987 278.5,167C 272.639,169.18 267.139,172.013 262,175.5C 262.044,173.721 262.711,172.055 264,170.5C 268.865,165.3 274.032,160.467 279.5,156C 267.059,135.915 249.059,124.249 225.5,121C 198.291,117.039 173.458,122.873 151,138.5C 150.333,137.833 150.333,137.167 151,136.5C 154.092,132.636 156.926,128.636 159.5,124.5C 148.922,98.4166 129.589,85.9166 101.5,87C 81.1316,92.3533 67.1316,104.853 59.5,124.5C 63.6251,128.123 67.6251,131.957 71.5,136C 66.4739,134.769 61.4739,133.102 56.5,131C 37.552,125.24 18.552,125.073 -0.5,130.5C -0.5,125.5 -0.5,120.5 -0.5,115.5C 19.3188,106.51 39.3188,106.177 59.5,114.5C 62.5491,106.734 66.3824,99.401 71,92.5C 92.9993,67.4818 117.166,64.9818 143.5,85C 150.208,92.9219 156.041,101.422 161,110.5C 179.691,101.858 199.191,99.3579 219.5,103C 246.972,107.712 266.639,122.545 278.5,147.5C 280.444,146.811 282.444,146.311 284.5,146C 295.5,145.333 306.5,145.333 317.5,146C 338.179,148.758 356.012,157.258 371,171.5C 376.139,177.449 379.973,184.116 382.5,191.5 Z"/></g>
<g><path style="opacity:1" fill="#f1f7fb" d="M 1586.5,157.5 C 1586.5,165.5 1586.5,173.5 1586.5,181.5C 1578.66,182.678 1570.83,182.678 1563,181.5C 1543.17,193.444 1521.67,199.277 1498.5,199C 1482,195.749 1467.33,188.749 1454.5,178C 1449,172.5 1443.5,167 1438,161.5C 1436.33,164.5 1434.67,167.5 1433,170.5C 1428.08,175.72 1422.25,176.887 1415.5,174C 1412.02,171.688 1409.02,168.854 1406.5,165.5C 1394.66,186.279 1377.66,191.945 1355.5,182.5C 1342.68,197.383 1327.02,201.55 1308.5,195C 1300.83,191.486 1293.83,186.986 1287.5,181.5C 1283.65,185.186 1279.65,188.686 1275.5,192C 1266.29,195.03 1258.96,192.53 1253.5,184.5C 1248.76,183.886 1244.09,183.053 1239.5,182C 1233.95,175.708 1234.28,169.708 1240.5,164C 1244.5,161.667 1248.5,159.333 1252.5,157C 1244.98,153.33 1240.32,147.497 1238.5,139.5C 1238.8,135.886 1239.97,132.552 1242,129.5C 1246.15,124.03 1250.99,119.363 1256.5,115.5C 1257.14,112.109 1258.31,108.776 1260,105.5C 1270.26,92.8899 1282.09,91.2233 1295.5,100.5C 1302.41,82.7735 1315.41,74.6068 1334.5,76C 1357.41,81.9451 1369.91,96.7785 1372,120.5C 1378.85,114.013 1385.85,114.013 1393,120.5C 1394.5,119 1396,117.5 1397.5,116C 1414.32,108.46 1423.49,113.96 1425,132.5C 1430.42,128.209 1436.59,125.709 1443.5,125C 1460.11,123.555 1472.94,129.722 1482,143.5C 1494.16,120.835 1513,111.002 1538.5,114C 1561.22,121.291 1572.22,136.791 1571.5,160.5C 1576.28,158.388 1581.28,157.388 1586.5,157.5 Z"/></g>
<g><path style="opacity:1" fill="#e3f1fe" d="M 382.5,191.5 C 383.924,193.515 384.59,195.848 384.5,198.5C 380.32,214.847 370.987,227.347 356.5,236C 340.606,245.055 323.606,249.555 305.5,249.5C 295.145,240.424 283.145,237.424 269.5,240.5C 269.918,239.778 270.584,239.278 271.5,239C 261.531,234.434 252.697,228.268 245,220.5C 246.134,225.11 248.134,229.443 251,233.5C 254.049,237.043 256.882,240.709 259.5,244.5C 252.274,249.274 247.774,255.941 246,264.5C 234.357,254.879 223.024,255.212 212,265.5C 209.288,269.472 207.454,273.806 206.5,278.5C 198.189,276.91 190.189,277.91 182.5,281.5C 169.568,274.85 158.234,266.016 148.5,255C 162.902,251.592 175.069,244.425 185,233.5C 186.919,231.309 188.253,228.976 189,226.5C 157.677,244.309 125.511,246.143 92.5,232C 101.485,243.503 113.151,251.003 127.5,254.5C 113.639,267.513 97.6386,277.013 79.5,283C 50.7052,286.633 24.0385,280.8 -0.5,265.5C -0.5,259.5 -0.5,253.5 -0.5,247.5C 5.66826,243.498 10.6683,238.331 14.5,232C 9.35275,233.567 4.35275,235.734 -0.5,238.5C -0.5,202.5 -0.5,166.5 -0.5,130.5C 18.552,125.073 37.552,125.24 56.5,131C 61.4739,133.102 66.4739,134.769 71.5,136C 67.6251,131.957 63.6251,128.123 59.5,124.5C 67.1316,104.853 81.1316,92.3533 101.5,87C 129.589,85.9166 148.922,98.4166 159.5,124.5C 156.926,128.636 154.092,132.636 151,136.5C 150.333,137.167 150.333,137.833 151,138.5C 173.458,122.873 198.291,117.039 225.5,121C 249.059,124.249 267.059,135.915 279.5,156C 274.032,160.467 268.865,165.3 264,170.5C 262.711,172.055 262.044,173.721 262,175.5C 267.139,172.013 272.639,169.18 278.5,167C 291.736,161.987 305.402,160.32 319.5,162C 344.355,163.882 365.355,173.716 382.5,191.5 Z"/></g>
<g><path style="opacity:1" fill="#cfe2f0" d="M 1256.5,115.5 C 1250.99,119.363 1246.15,124.03 1242,129.5C 1239.97,132.552 1238.8,135.886 1238.5,139.5C 1240.32,147.497 1244.98,153.33 1252.5,157C 1248.5,159.333 1244.5,161.667 1240.5,164C 1234.28,169.708 1233.95,175.708 1239.5,182C 1244.09,183.053 1248.76,183.886 1253.5,184.5C 1258.96,192.53 1266.29,195.03 1275.5,192C 1279.65,188.686 1283.65,185.186 1287.5,181.5C 1293.83,186.986 1300.83,191.486 1308.5,195C 1327.02,201.55 1342.68,197.383 1355.5,182.5C 1377.66,191.945 1394.66,186.279 1406.5,165.5C 1409.02,168.854 1412.02,171.688 1415.5,174C 1422.25,176.887 1428.08,175.72 1433,170.5C 1434.67,167.5 1436.33,164.5 1438,161.5C 1443.5,167 1449,172.5 1454.5,178C 1467.33,188.749 1482,195.749 1498.5,199C 1521.67,199.277 1543.17,193.444 1563,181.5C 1570.83,182.678 1578.66,182.678 1586.5,181.5C 1586.5,185.5 1586.5,189.5 1586.5,193.5C 1579.33,195.615 1571.99,197.115 1564.5,198C 1557.03,207.409 1547.7,214.409 1536.5,219C 1501.9,230.881 1472.4,223.381 1448,196.5C 1447.56,199.376 1446.56,202.043 1445,204.5C 1436.46,212.601 1427.13,213.601 1417,207.5C 1400.38,227.373 1379.38,234.707 1354,229.5C 1348.23,234.256 1341.73,237.756 1334.5,240C 1305.44,244.888 1287.28,233.054 1280,204.5C 1277.78,207.021 1275.28,209.188 1272.5,211C 1259.07,219.049 1248.23,216.549 1240,203.5C 1224.95,210.814 1210.45,209.98 1196.5,201C 1185.3,190.313 1184.63,178.979 1194.5,167C 1202.99,160.222 1212.65,156.055 1223.5,154.5C 1222.19,153.088 1221.36,151.421 1221,149.5C 1219.22,124.111 1231.06,112.777 1256.5,115.5 Z"/></g>
<g><path style="opacity:1" fill="#fefeff" d="M 73.5,161.5 C 95.4499,161.089 113.45,169.256 127.5,186C 113.128,179.785 97.961,176.285 82,175.5C 63.4871,176.014 46.3205,181.014 30.5,190.5C 33.5352,183.582 38.5352,177.748 45.5,173C 54.1094,167.189 63.4428,163.355 73.5,161.5 Z"/></g>
<g><path style="opacity:1" fill="#b6d5f0" d="M 384.5,198.5 C 388.033,216.089 383.866,231.756 372,245.5C 357.412,259.877 339.912,268.544 319.5,271.5C 316.86,262.89 312.194,255.557 305.5,249.5C 323.606,249.555 340.606,245.055 356.5,236C 370.987,227.347 380.32,214.847 384.5,198.5 Z"/></g>
<g><path style="opacity:1" fill="#ed2741" d="M 1073.5,378.5 C 1073.5,383.167 1073.5,387.833 1073.5,392.5C 1077.45,427.288 1064.11,452.622 1033.5,468.5C 1031.01,469.323 1028.68,470.323 1026.5,471.5C 1023.13,471.674 1019.79,472.174 1016.5,473C 868.834,473.5 721.167,473.667 573.5,473.5C 539.073,468.574 518.906,448.908 513,414.5C 512.5,397.503 512.333,380.503 512.5,363.5C 512.5,357.167 512.5,350.833 512.5,344.5C 512.5,327.167 512.5,309.833 512.5,292.5C 512.156,281.784 512.656,271.118 514,260.5C 522.139,232.694 540.305,215.527 568.5,209C 718.167,208.333 867.833,208.333 1017.5,209C 1048.01,215.513 1066.51,234.013 1073,264.5C 1073.5,302.499 1073.67,340.499 1073.5,378.5 Z"/></g>
<g><path style="opacity:1" fill="#b8d6f0" d="M 269.5,240.5 C 265.948,241.276 262.614,242.609 259.5,244.5C 256.882,240.709 254.049,237.043 251,233.5C 248.134,229.443 246.134,225.11 245,220.5C 252.697,228.268 261.531,234.434 271.5,239C 270.584,239.278 269.918,239.778 269.5,240.5 Z"/></g>
<g><path style="opacity:1" fill="#b6d5f0" d="M 182.5,281.5 C 175.361,286.449 170.694,293.115 168.5,301.5C 156.975,298.07 146.975,292.07 138.5,283.5C 132.338,288.418 125.671,292.584 118.5,296C 77.3306,312.374 37.6639,309.541 -0.5,287.5C -0.5,280.167 -0.5,272.833 -0.5,265.5C 24.0385,280.8 50.7052,286.633 79.5,283C 97.6386,277.013 113.639,267.513 127.5,254.5C 113.151,251.003 101.485,243.503 92.5,232C 125.511,246.143 157.677,244.309 189,226.5C 188.253,228.976 186.919,231.309 185,233.5C 175.069,244.425 162.902,251.592 148.5,255C 158.234,266.016 169.568,274.85 182.5,281.5 Z"/></g>
<g><path style="opacity:1" fill="#b8d6f0" d="M -0.5,247.5 C -0.5,244.5 -0.5,241.5 -0.5,238.5C 4.35275,235.734 9.35275,233.567 14.5,232C 10.6683,238.331 5.66826,243.498 -0.5,247.5 Z"/></g>
<g><path style="opacity:1" fill="#f1f7fb" d="M 305.5,249.5 C 312.194,255.557 316.86,262.89 319.5,271.5C 320.518,275.083 321.351,278.75 322,282.5C 329.034,276.979 335.867,277.312 342.5,283.5C 347.376,277.395 353.709,274.562 361.5,275C 370.187,278.519 374.854,285.019 375.5,294.5C 380.013,291.244 385.013,289.078 390.5,288C 408.274,285.642 422.107,291.809 432,306.5C 436.696,295.802 444.196,287.635 454.5,282C 476.661,271.088 495.994,274.588 512.5,292.5C 512.5,309.833 512.5,327.167 512.5,344.5C 494.649,355.116 475.315,361.116 454.5,362.5C 440.812,361.412 428.145,357.245 416.5,350C 405.72,342.221 395.887,333.387 387,323.5C 385.267,334.914 378.767,339.747 367.5,338C 363.084,335.588 359.251,332.422 356,328.5C 344.347,349.13 327.514,354.796 305.5,345.5C 293.306,359.134 278.306,363.634 260.5,359C 251.724,355.2 243.89,350.033 237,343.5C 231.523,352.319 223.69,356.486 213.5,356C 209.252,353.757 205.586,350.757 202.5,347C 192.86,348.862 186.86,345.196 184.5,336C 185.608,331.879 187.941,328.545 191.5,326C 195.007,323.746 198.673,321.746 202.5,320C 198.084,317.588 194.251,314.422 191,310.5C 187.224,303.376 187.891,296.709 193,290.5C 197.099,285.892 201.599,281.892 206.5,278.5C 207.454,273.806 209.288,269.472 212,265.5C 223.024,255.212 234.357,254.879 246,264.5C 247.774,255.941 252.274,249.274 259.5,244.5C 262.614,242.609 265.948,241.276 269.5,240.5C 283.145,237.424 295.145,240.424 305.5,249.5 Z"/></g>
<g><path style="opacity:1" fill="#020000" d="M 798.5,259.5 C 804.682,258.719 809.182,261.053 812,266.5C 812.667,302.833 812.667,339.167 812,375.5C 811.242,379.922 808.742,382.755 804.5,384C 800.151,384.536 795.818,384.369 791.5,383.5C 786.483,384.56 781.483,385.727 776.5,387C 754.4,389.797 740.734,380.464 735.5,359C 733.67,344.158 737.17,330.658 746,318.5C 751.754,311.693 759.087,308.36 768,308.5C 775.684,308.87 783.184,310.204 790.5,312.5C 790.719,296.765 791.886,281.098 794,265.5C 795.332,263.34 796.832,261.34 798.5,259.5 Z"/></g>
<g><path style="opacity:1" fill="#040000" d="M 633.5,270.5 C 645.838,270.333 658.171,270.5 670.5,271C 682.281,273.409 686.448,280.242 683,291.5C 680.76,294.402 677.927,296.569 674.5,298C 663.167,298.333 651.833,298.667 640.5,299C 644.899,324.614 647.399,350.447 648,376.5C 646.645,381.38 644.145,385.547 640.5,389C 627.833,392.701 620.667,387.868 619,374.5C 618.5,349.836 618.333,325.169 618.5,300.5C 611.228,299.227 603.895,298.394 596.5,298C 585.226,294.164 582.893,287.497 589.5,278C 591.5,277 593.5,276 595.5,275C 608.332,273.645 620.999,272.145 633.5,270.5 Z"/></g>
<g><path style="opacity:1" fill="#030000" d="M 945.5,326.5 C 945.192,328.924 945.526,331.257 946.5,333.5C 947.107,333.376 947.44,333.043 947.5,332.5C 956.29,325.598 965.624,319.432 975.5,314C 983.57,312.429 987.737,315.596 988,323.5C 987.333,324.833 986.667,326.167 986,327.5C 979.113,334.022 971.946,340.188 964.5,346C 973.335,351.585 982.335,356.919 991.5,362C 995.903,365.224 998.903,369.391 1000.5,374.5C 998.998,384.263 993.331,388.097 983.5,386C 971.971,378.13 961.471,368.964 952,358.5C 948.814,365.048 945.814,371.715 943,378.5C 936,385.167 929,385.167 922,378.5C 919.409,373.134 918.242,367.467 918.5,361.5C 920.337,332.773 922.837,304.106 926,275.5C 931.43,268.716 936.43,269.05 941,276.5C 941.667,278.5 942.333,280.5 943,282.5C 944.276,297.146 945.109,311.812 945.5,326.5 Z"/></g>
<g><path style="opacity:1" fill="#cfe2f0" d="M 206.5,278.5 C 201.599,281.892 197.099,285.892 193,290.5C 187.891,296.709 187.224,303.376 191,310.5C 194.251,314.422 198.084,317.588 202.5,320C 198.673,321.746 195.007,323.746 191.5,326C 187.941,328.545 185.608,331.879 184.5,336C 186.86,345.196 192.86,348.862 202.5,347C 205.586,350.757 209.252,353.757 213.5,356C 223.69,356.486 231.523,352.319 237,343.5C 243.89,350.033 251.724,355.2 260.5,359C 278.306,363.634 293.306,359.134 305.5,345.5C 327.514,354.796 344.347,349.13 356,328.5C 359.251,332.422 363.084,335.588 367.5,338C 378.767,339.747 385.267,334.914 387,323.5C 395.887,333.387 405.72,342.221 416.5,350C 428.145,357.245 440.812,361.412 454.5,362.5C 475.315,361.116 494.649,355.116 512.5,344.5C 512.5,350.833 512.5,357.167 512.5,363.5C 502.55,373.98 490.55,381.147 476.5,385C 445.108,392.03 418.941,383.53 398,359.5C 396.941,362.618 395.608,365.618 394,368.5C 385.241,375.157 376.074,375.823 366.5,370.5C 349.702,390.267 328.535,397.6 303,392.5C 295.707,398.828 287.207,402.661 277.5,404C 251.131,404.974 235.298,392.474 230,366.5C 227.131,369.704 223.965,372.537 220.5,375C 207.524,381.342 197.191,378.508 189.5,366.5C 178.478,371.93 167.145,372.763 155.5,369C 137.931,361.52 133.431,349.353 142,332.5C 150.481,324.176 160.648,319.51 172.5,318.5C 170.691,312.931 169.358,307.265 168.5,301.5C 170.694,293.115 175.361,286.449 182.5,281.5C 190.189,277.91 198.189,276.91 206.5,278.5 Z"/></g>
<g><path style="opacity:1" fill="#040000" d="M 706.5,279.5 C 717.861,278.686 722.028,283.686 719,294.5C 712.427,301.506 706.427,301.172 701,293.5C 699.268,287.314 701.101,282.647 706.5,279.5 Z"/></g>
<g><path style="opacity:1" fill="#030000" d="M 863.5,305.5 C 877.944,304.307 889.11,309.641 897,321.5C 900.157,336.449 902.99,351.449 905.5,366.5C 905.781,378.389 900.114,383.222 888.5,381C 884,377.833 880.167,374 877,369.5C 865.993,379.379 853.493,382.212 839.5,378C 826.759,369.428 822.593,357.595 827,342.5C 834.019,324.981 846.186,312.648 863.5,305.5 Z"/></g>
<g><path style="opacity:1" fill="#030000" d="M 709.5,314.5 C 714.635,313.426 718.468,315.093 721,319.5C 721.883,337.531 721.55,355.531 720,373.5C 716.452,385.178 709.786,387.512 700,380.5C 698.245,377.4 697.411,374.067 697.5,370.5C 699.132,353.375 701.632,336.375 705,319.5C 706.025,317.313 707.525,315.646 709.5,314.5 Z"/></g>
<g><path style="opacity:1" fill="#e72540" d="M 869.5,326.5 C 872.366,337.844 869.033,347.011 859.5,354C 856.634,355.457 853.634,355.79 850.5,355C 849.424,353.274 849.257,351.441 850,349.5C 853.484,339.189 859.984,331.523 869.5,326.5 Z"/></g>
<g><path style="opacity:1" fill="#65101b" d="M 945.5,326.5 C 946.167,328.5 946.833,330.5 947.5,332.5C 947.44,333.043 947.107,333.376 946.5,333.5C 945.526,331.257 945.192,328.924 945.5,326.5 Z"/></g>
<g><path style="opacity:1" fill="#e6253f" d="M 769.5,335.5 C 779.379,336.215 785.379,341.381 787.5,351C 787.441,352.436 787.108,353.769 786.5,355C 780.629,356.759 774.796,358.592 769,360.5C 763.124,359.088 761.124,355.422 763,349.5C 764.333,345.5 765.667,341.5 767,337.5C 767.995,336.934 768.828,336.267 769.5,335.5 Z"/></g>
<g><path style="opacity:1" fill="#fdfeff" d="M 1215.5,437.5 C 1203.9,425.368 1189.56,418.534 1172.5,417C 1158.53,416.242 1145.53,419.408 1133.5,426.5C 1133.17,426.333 1132.83,426.167 1132.5,426C 1136.17,421 1140.5,416.667 1145.5,413C 1134.5,395.764 1118.67,387.597 1098,388.5C 1089.6,388.476 1081.43,389.81 1073.5,392.5C 1073.5,387.833 1073.5,383.167 1073.5,378.5C 1083.41,376.58 1093.41,376.08 1103.5,377C 1122.17,379.686 1135.84,389.352 1144.5,406C 1163.62,403.397 1181.62,406.731 1198.5,416C 1206.67,421.319 1212.33,428.485 1215.5,437.5 Z"/></g>
<g><path style="opacity:1" fill="#e2f1fe" d="M 1215.5,437.5 C 1216.31,439.028 1216.98,440.694 1217.5,442.5C 1210.27,460.643 1196.93,471.476 1177.5,475C 1156.57,477.577 1138.4,471.743 1123,457.5C 1125.26,464.467 1129.26,470.467 1135,475.5C 1132.1,483.082 1126.93,488.916 1119.5,493C 1109.12,498.346 1098.12,500.68 1086.5,500C 1074.39,496.573 1064.39,489.906 1056.5,480C 1065.69,478.321 1073.53,474.154 1080,467.5C 1081.6,465.631 1082.6,463.631 1083,461.5C 1067.3,470.523 1050.8,472.856 1033.5,468.5C 1064.11,452.622 1077.45,427.288 1073.5,392.5C 1081.43,389.81 1089.6,388.476 1098,388.5C 1118.67,387.597 1134.5,395.764 1145.5,413C 1140.5,416.667 1136.17,421 1132.5,426C 1132.83,426.167 1133.17,426.333 1133.5,426.5C 1145.53,419.408 1158.53,416.242 1172.5,417C 1189.56,418.534 1203.9,425.368 1215.5,437.5 Z"/></g>
<g><path style="opacity:1" fill="#b6d5f0" d="M 1217.5,442.5 C 1219,457.332 1214,469.499 1202.5,479C 1182.18,492.261 1160.35,495.428 1137,488.5C 1132.04,499.457 1123.88,506.957 1112.5,511C 1097.17,511.5 1081.84,511.667 1066.5,511.5C 1060.45,508.378 1054.95,504.378 1050,499.5C 1043.43,504.697 1036.27,508.697 1028.5,511.5C 1010.5,511.667 992.497,511.5 974.5,511C 961.823,507.479 951.823,500.312 944.5,489.5C 934.47,488.866 924.47,488.033 914.5,487C 905.586,484.881 897.919,480.714 891.5,474.5C 913.169,474.333 934.836,474.5 956.5,475C 953.567,476.271 950.901,477.938 948.5,480C 962.999,493.74 980.332,500.573 1000.5,500.5C 1016.7,498.234 1030.7,491.401 1042.5,480C 1036.37,478.44 1031.04,475.607 1026.5,471.5C 1028.68,470.323 1031.01,469.323 1033.5,468.5C 1050.8,472.856 1067.3,470.523 1083,461.5C 1082.6,463.631 1081.6,465.631 1080,467.5C 1073.53,474.154 1065.69,478.321 1056.5,480C 1064.39,489.906 1074.39,496.573 1086.5,500C 1098.12,500.68 1109.12,498.346 1119.5,493C 1126.93,488.916 1132.1,483.082 1135,475.5C 1129.26,470.467 1125.26,464.467 1123,457.5C 1138.4,471.743 1156.57,477.577 1177.5,475C 1196.93,471.476 1210.27,460.643 1217.5,442.5 Z"/></g>
<g><path style="opacity:1" fill="#e4e1ee" d="M 1026.5,471.5 C 1031.04,475.607 1036.37,478.44 1042.5,480C 1030.7,491.401 1016.7,498.234 1000.5,500.5C 980.332,500.573 962.999,493.74 948.5,480C 950.901,477.938 953.567,476.271 956.5,475C 934.836,474.5 913.169,474.333 891.5,474.5C 785.332,474.833 679.332,474.499 573.5,473.5C 721.167,473.667 868.834,473.5 1016.5,473C 1019.79,472.174 1023.13,471.674 1026.5,471.5 Z"/></g>
<g><path style="opacity:1" fill="#f1f7fb" d="M 1504.5,550.5 C 1501.66,553.49 1498.32,555.99 1494.5,558C 1486.98,559.969 1479.31,560.969 1471.5,561C 1439.08,579.632 1411.24,574.465 1388,545.5C 1386.52,553.822 1381.69,556.988 1373.5,555C 1371.04,553.542 1368.87,551.709 1367,549.5C 1358.72,563.392 1347.22,567.059 1332.5,560.5C 1316.7,575.255 1301.04,574.922 1285.5,559.5C 1282.27,564.369 1277.77,567.369 1272,568.5C 1268,567.496 1264.84,565.33 1262.5,562C 1255.75,563.321 1251.42,560.821 1249.5,554.5C 1250.15,551.345 1251.82,548.845 1254.5,547C 1257,545.92 1259.33,544.586 1261.5,543C 1252.58,538.671 1250.41,532.171 1255,523.5C 1257.54,520.628 1260.37,518.128 1263.5,516C 1262.58,515.722 1261.92,515.222 1261.5,514.5C 1262.5,514.5 1263.5,514.5 1264.5,514.5C 1266.98,503.866 1273.64,499.366 1284.5,501C 1286.75,502.039 1288.91,503.206 1291,504.5C 1293.47,496.693 1298.64,491.526 1306.5,489C 1322.8,486.069 1334.3,492.236 1341,507.5C 1342,510.833 1343,514.167 1344,517.5C 1348.29,514.898 1352.62,514.898 1357,517.5C 1368.56,508.853 1376.39,511.52 1380.5,525.5C 1394.87,518.351 1407.54,520.684 1418.5,532.5C 1432.34,511.927 1449.67,508.093 1470.5,521C 1477.51,527.655 1480.17,535.655 1478.5,545C 1484.68,543.584 1491.01,543.251 1497.5,544C 1501.01,545.012 1503.34,547.178 1504.5,550.5 Z"/></g>
<g><path style="opacity:1" fill="#dafefe" d="M 1066.5,511.5 C 1053.83,511.5 1041.17,511.5 1028.5,511.5C 1036.27,508.697 1043.43,504.697 1050,499.5C 1054.95,504.378 1060.45,508.378 1066.5,511.5 Z"/></g>
<g><path style="opacity:1" fill="#fedd58" d="M 930.5,725.5 C 778.5,725.667 626.5,725.5 474.5,725C 468.211,724.017 462.211,722.183 456.5,719.5C 453.68,717.255 450.68,715.255 447.5,713.5C 437.674,703.852 431.507,692.185 429,678.5C 428.333,638.5 428.333,598.5 429,558.5C 433.756,535.076 447.589,519.91 470.5,513C 685.5,512.333 900.5,512.333 1115.5,513C 1133.64,518.144 1146.47,529.311 1154,546.5C 1155.62,550.347 1156.62,554.347 1157,558.5C 1157.67,598.167 1157.67,637.833 1157,677.5C 1152.52,704.652 1136.68,720.485 1109.5,725C 1049.83,725.5 990.168,725.667 930.5,725.5 Z"/></g>
<g><path style="opacity:1" fill="#cfe2f0" d="M 1261.5,514.5 C 1261.92,515.222 1262.58,515.722 1263.5,516C 1260.37,518.128 1257.54,520.628 1255,523.5C 1250.41,532.171 1252.58,538.671 1261.5,543C 1259.33,544.586 1257,545.92 1254.5,547C 1251.82,548.845 1250.15,551.345 1249.5,554.5C 1251.42,560.821 1255.75,563.321 1262.5,562C 1264.84,565.33 1268,567.496 1272,568.5C 1277.77,567.369 1282.27,564.369 1285.5,559.5C 1301.04,574.922 1316.7,575.255 1332.5,560.5C 1347.22,567.059 1358.72,563.392 1367,549.5C 1368.87,551.709 1371.04,553.542 1373.5,555C 1381.69,556.988 1386.52,553.822 1388,545.5C 1411.24,574.465 1439.08,579.632 1471.5,561C 1479.31,560.969 1486.98,559.969 1494.5,558C 1498.32,555.99 1501.66,553.49 1504.5,550.5C 1504.97,556.402 1502.63,560.902 1497.5,564C 1490.72,568.058 1483.38,570.391 1475.5,571C 1453.09,592.939 1428.76,595.273 1402.5,578C 1399.98,575.651 1397.65,573.151 1395.5,570.5C 1390.95,580.683 1383.79,583.017 1374,577.5C 1362.62,591.348 1348.12,596.348 1330.5,592.5C 1318.07,602.118 1305.07,602.951 1291.5,595C 1285.63,589.771 1281.97,583.271 1280.5,575.5C 1276.37,580.149 1271.2,582.815 1265,583.5C 1259.36,582.768 1255.53,579.768 1253.5,574.5C 1243.64,579.884 1233.97,579.718 1224.5,574C 1214.39,563.511 1215.39,554.178 1227.5,546C 1232.11,544.312 1236.78,542.812 1241.5,541.5C 1236.72,524.069 1243.39,515.069 1261.5,514.5 Z"/></g>
<g><path style="opacity:1" fill="#040301" d="M 518.5,549.5 C 526.988,548.989 535.321,549.822 543.5,552C 558.443,560.943 561.943,573.11 554,588.5C 551.795,591.04 549.295,593.207 546.5,595C 554.772,599.939 560.939,606.772 565,615.5C 569.473,637.379 560.973,651.546 539.5,658C 523.478,663.645 508.145,662.311 493.5,654C 491.951,652.786 490.785,651.286 490,649.5C 490.878,622.853 491.211,596.186 491,569.5C 486.283,565.84 486.449,562.34 491.5,559C 493.833,557.333 496.167,555.667 498.5,554C 505.29,552.445 511.957,550.945 518.5,549.5 Z"/></g>
<g><path style="opacity:1" fill="#030201" d="M 1071.5,549.5 C 1077.19,548.893 1081.69,550.893 1085,555.5C 1089.79,564.21 1092.79,573.543 1094,583.5C 1096.93,603.411 1098.26,623.411 1098,643.5C 1096.71,655.346 1090.87,658.68 1080.5,653.5C 1079.42,652.335 1078.58,651.002 1078,649.5C 1074.32,628.665 1072.65,607.665 1073,586.5C 1072.58,585.328 1071.91,584.328 1071,583.5C 1065,598.833 1059,614.167 1053,629.5C 1048.4,634.645 1042.9,635.812 1036.5,633C 1034.64,631.442 1033.14,629.609 1032,627.5C 1025.43,614.789 1019.43,601.789 1014,588.5C 1012.98,587.313 1011.81,586.313 1010.5,585.5C 1009.07,589.013 1008.23,592.68 1008,596.5C 1006.38,613.844 1004.72,631.177 1003,648.5C 1001.58,659.284 995.745,663.118 985.5,660C 983.383,658.269 981.883,656.102 981,653.5C 980.333,646.833 980.333,640.167 981,633.5C 984.148,614.795 987.481,596.129 991,577.5C 992.665,569.326 996.498,562.492 1002.5,557C 1006.78,556.035 1010.78,556.702 1014.5,559C 1018.04,562.201 1021.2,565.701 1024,569.5C 1029.92,579.002 1035.59,588.669 1041,598.5C 1046.27,582.468 1053.77,567.635 1063.5,554C 1066.1,552.205 1068.77,550.705 1071.5,549.5 Z"/></g>
<g><path style="opacity:1" fill="#040301" d="M 893.5,560.5 C 902.911,559.647 911.911,561.147 920.5,565C 926.523,569.356 928.523,575.023 926.5,582C 924.833,582.667 923.167,582.667 921.5,582C 910.129,576.798 899.129,577.465 888.5,584C 885.691,585.588 885.025,587.755 886.5,590.5C 895.06,596.949 904.394,602.116 914.5,606C 931.942,617.021 936.442,631.854 928,650.5C 918.052,657.616 906.885,660.949 894.5,660.5C 883.904,660.06 876.404,655.06 872,645.5C 870.142,638.383 872.642,633.549 879.5,631C 886.302,631.588 893.135,632.421 900,633.5C 911.739,633.212 912.573,629.712 902.5,623C 885.521,618.95 873.355,609.117 866,593.5C 864.594,586.859 865.927,580.859 870,575.5C 876.57,568.311 884.403,563.311 893.5,560.5 Z"/></g>
<g><path style="opacity:1" fill="#020200" d="M 952.5,562.5 C 956.308,562.163 959.974,562.663 963.5,564C 966.269,567.372 968.102,571.205 969,575.5C 970.241,600.31 968.908,624.977 965,649.5C 962.007,657.63 956.673,659.63 949,655.5C 946.781,651.729 945.115,647.729 944,643.5C 943.17,620.48 943.503,597.48 945,574.5C 946.276,569.589 948.776,565.589 952.5,562.5 Z"/></g>
<g><path style="opacity:1" fill="#f9d856" d="M 516.5,566.5 C 521.844,566.334 527.177,566.501 532.5,567C 535.847,567.68 537.847,569.68 538.5,573C 537.377,577.268 535.044,580.601 531.5,583C 524.62,585.635 517.62,587.802 510.5,589.5C 510.378,582.804 510.211,576.138 510,569.5C 512.294,568.578 514.461,567.578 516.5,566.5 Z"/></g>
<g><path style="opacity:1" fill="#040301" d="M 606.5,590.5 C 617.039,589.401 625.872,592.734 633,600.5C 636.149,613.407 638.982,626.407 641.5,639.5C 641.031,647.807 636.698,651.64 628.5,651C 624.36,648.85 620.86,646.017 618,642.5C 610.368,648.045 601.868,650.545 592.5,650C 585,647.833 580.167,643 578,635.5C 577.055,613.935 586.555,598.935 606.5,590.5 Z"/></g>
<g><path style="opacity:1" fill="#030301" d="M 728.5,589.5 C 739.697,589.196 744.197,594.529 742,605.5C 734.753,619.578 728.087,633.912 722,648.5C 715.486,658.314 708.153,658.981 700,650.5C 697.185,644.377 694.185,638.377 691,632.5C 688.405,639.526 684.905,646.026 680.5,652C 673.969,655.883 668.135,655.05 663,649.5C 656.516,633.076 652.849,616.076 652,598.5C 656.514,592.253 661.514,591.92 667,597.5C 670.351,605.53 673.684,613.53 677,621.5C 680,614.5 683,607.5 686,600.5C 691.253,593.923 696.586,593.923 702,600.5C 704.61,607.664 707.61,614.664 711,621.5C 715.186,612.618 719.186,603.618 723,594.5C 724.812,592.7 726.645,591.033 728.5,589.5 Z"/></g>
<g><path style="opacity:1" fill="#040301" d="M 782.5,590.5 C 793.039,589.401 801.872,592.734 809,600.5C 812.149,613.407 814.982,626.407 817.5,639.5C 817.031,647.807 812.698,651.64 804.5,651C 800.36,648.85 796.86,646.017 794,642.5C 786.368,648.045 777.868,650.545 768.5,650C 761,647.833 756.167,643 754,635.5C 753.055,613.935 762.555,598.935 782.5,590.5 Z"/></g>
<g><path style="opacity:1" fill="#f9d957" d="M 513.5,608.5 C 519.509,608.334 525.509,608.501 531.5,609C 544.089,612.686 548.256,620.52 544,632.5C 534.832,638.892 524.665,641.392 513.5,640C 512.667,639.167 511.833,638.333 511,637.5C 510.333,628.833 510.333,620.167 511,611.5C 512.045,610.627 512.878,609.627 513.5,608.5 Z"/></g>
<g><path style="opacity:1" fill="#f7d756" d="M 610.5,607.5 C 611.5,607.5 612.5,607.5 613.5,607.5C 614.482,616.366 611.482,623.533 604.5,629C 601.986,630.252 599.32,630.752 596.5,630.5C 596.543,625.403 598.043,620.736 601,616.5C 604.062,613.268 607.229,610.268 610.5,607.5 Z"/></g>
<g><path style="opacity:1" fill="#f7d756" d="M 786.5,607.5 C 787.5,607.5 788.5,607.5 789.5,607.5C 790.482,616.366 787.482,623.533 780.5,629C 777.986,630.252 775.32,630.752 772.5,630.5C 772.543,625.403 774.043,620.736 777,616.5C 780.062,613.268 783.229,610.268 786.5,607.5 Z"/></g>
<g><path style="opacity:1" fill="#fcfdfd" d="M 447.5,713.5 C 450.68,715.255 453.68,717.255 456.5,719.5C 452.526,720.621 448.86,722.454 445.5,725C 442.631,728.038 439.631,730.871 436.5,733.5C 438.612,725.94 442.279,719.273 447.5,713.5 Z"/></g>
<g><path style="opacity:1" fill="#e2f1fe" d="M 456.5,719.5 C 462.211,722.183 468.211,724.017 474.5,725C 626.5,725.5 778.5,725.667 930.5,725.5C 931.167,728.167 931.833,730.833 932.5,733.5C 916.726,765.785 890.059,781.452 852.5,780.5C 842.451,772.82 831.117,769.82 818.5,771.5C 808.733,766.581 799.9,760.248 792,752.5C 793.554,758.276 796.221,763.609 800,768.5C 801.736,771.739 804.236,774.073 807.5,775.5C 800.101,780.268 795.101,786.935 792.5,795.5C 772.306,784.275 758.973,789.608 752.5,811.5C 750.71,810.003 748.544,809.336 746,809.5C 740.333,809.664 735,810.997 730,813.5C 729.617,812.944 729.117,812.611 728.5,812.5C 715.755,806.438 704.755,797.938 695.5,787C 713.144,782.759 726.477,773.259 735.5,758.5C 703.843,776.63 671.509,778.13 638.5,763C 647.932,774.714 659.932,782.381 674.5,786C 635.515,822.476 593.182,826.476 547.5,798C 543.367,794.869 539.534,791.369 536,787.5C 539.401,783.821 543.568,780.654 548.5,778C 553.963,773.573 558.129,768.406 561,762.5C 525.524,782.937 490.357,782.437 455.5,761C 446.714,754.06 440.047,745.56 435.5,735.5C 435.328,734.508 435.662,733.842 436.5,733.5C 439.631,730.871 442.631,728.038 445.5,725C 448.86,722.454 452.526,720.621 456.5,719.5 Z"/></g>
<g><path style="opacity:1" fill="#b6d5f0" d="M 932.5,733.5 C 933.615,760.878 921.949,780.711 897.5,793C 887.572,797.564 877.238,800.731 866.5,802.5C 863.083,794.407 858.416,787.074 852.5,780.5C 890.059,781.452 916.726,765.785 932.5,733.5 Z"/></g>
<g><path style="opacity:1" fill="#b6d5f0" d="M 435.5,735.5 C 440.047,745.56 446.714,754.06 455.5,761C 490.357,782.437 525.524,782.937 561,762.5C 558.129,768.406 553.963,773.573 548.5,778C 543.568,780.654 539.401,783.821 536,787.5C 539.534,791.369 543.367,794.869 547.5,798C 593.182,826.476 635.515,822.476 674.5,786C 659.932,782.381 647.932,774.714 638.5,763C 671.509,778.13 703.843,776.63 735.5,758.5C 726.477,773.259 713.144,782.759 695.5,787C 704.755,797.938 715.755,806.438 728.5,812.5C 725.883,815.923 723.05,819.256 720,822.5C 718.178,826.157 716.678,829.824 715.5,833.5C 703.963,830.065 693.963,824.065 685.5,815.5C 658.129,834.678 627.796,841.845 594.5,837C 575.29,834.489 557.957,827.489 542.5,816C 536.534,810.877 531.534,805.044 527.5,798.5C 496.981,803.109 470.147,795.442 447,775.5C 436.456,764.083 432.623,750.75 435.5,735.5 Z"/></g>
<g><path style="opacity:1" fill="#b8d6f0" d="M 818.5,771.5 C 814.534,772.044 810.867,773.377 807.5,775.5C 804.236,774.073 801.736,771.739 800,768.5C 796.221,763.609 793.554,758.276 792,752.5C 799.9,760.248 808.733,766.581 818.5,771.5 Z"/></g>
<g><path style="opacity:1" fill="#f1f7fb" d="M 852.5,780.5 C 858.416,787.074 863.083,794.407 866.5,802.5C 867.329,806.486 868.163,810.486 869,814.5C 872.743,810.741 877.243,809.574 882.5,811C 884.833,812.167 887.167,813.333 889.5,814.5C 894.8,808.35 901.467,805.85 909.5,807C 917.555,810.931 921.722,817.431 922,826.5C 944.052,814.262 963.052,817.929 979,837.5C 991.579,813.961 1011.08,804.461 1037.5,809C 1059.15,817.151 1068.98,832.651 1067,855.5C 1078.27,850.016 1089.44,850.183 1100.5,856C 1102.73,857.638 1104.07,859.805 1104.5,862.5C 1095.69,871.898 1084.69,876.898 1071.5,877.5C 1066.51,876.667 1061.51,876.5 1056.5,877C 1036.7,889.723 1015.03,895.056 991.5,893C 968.128,886.901 948.961,874.401 934,855.5C 926.587,873.64 916.254,875.306 903,860.5C 891.236,880.811 874.402,886.477 852.5,877.5C 838.723,892.09 822.389,895.923 803.5,889C 796.424,885.087 789.757,880.587 783.5,875.5C 779.547,880.956 774.547,885.122 768.5,888C 760.533,888.753 754.2,885.753 749.5,879C 737.742,880.889 731.909,876.055 732,864.5C 736.471,858.507 742.304,854.34 749.5,852C 733.394,842.995 731.394,831.661 743.5,818C 746.379,815.615 749.379,813.448 752.5,811.5C 758.973,789.608 772.306,784.275 792.5,795.5C 795.101,786.935 800.101,780.268 807.5,775.5C 810.867,773.377 814.534,772.044 818.5,771.5C 831.117,769.82 842.451,772.82 852.5,780.5 Z"/></g>
<g><path style="opacity:1" fill="#fdfeff" d="M 211.5,854.5 C 194.47,839.099 174.804,834.599 152.5,841C 149.588,842.373 146.754,843.873 144,845.5C 145.964,841.188 149.131,837.688 153.5,835C 146.975,824.404 137.642,817.737 125.5,815C 109.96,812.427 95.6266,815.261 82.5,823.5C 82.1667,823.167 81.8333,822.833 81.5,822.5C 83.0413,820.796 84.3746,818.963 85.5,817C 75.9494,796.049 60.9494,790.716 40.5,801C 35.3618,804.952 31.6952,809.952 29.5,816C 31.1122,818.616 33.1122,820.95 35.5,823C 30.8577,822.002 26.191,820.669 21.5,819C 14.1742,818.5 6.8409,818.334 -0.5,818.5C -0.5,815.5 -0.5,812.5 -0.5,809.5C 9.61079,806.419 19.4441,807.086 29,811.5C 31.1927,804.275 35.026,798.108 40.5,793C 61.4308,781.759 76.5975,787.259 86,809.5C 91.0916,806.517 96.5916,804.684 102.5,804C 124.941,801.887 141.941,810.387 153.5,829.5C 165.015,827.692 176.348,828.525 187.5,832C 198.946,835.95 206.946,843.45 211.5,854.5 Z"/></g>
<g><path style="opacity:1" fill="#e2f1fe" d="M 211.5,854.5 C 212.309,856.028 212.976,857.694 213.5,859.5C 204.152,879.689 188.152,888.856 165.5,887C 153.902,885.031 143.735,880.197 135,872.5C 136.431,877.995 139.431,882.661 144,886.5C 143.604,890.612 141.771,894.112 138.5,897C 116.902,912.841 97.2351,910.841 79.5,891C 88.1905,888.906 95.3571,884.406 101,877.5C 101.667,876.833 101.667,876.167 101,875.5C 83.4641,885.053 65.6308,885.886 47.5,878C 52.7568,883.926 59.0901,888.26 66.5,891C 46.3609,909.85 24.0275,912.684 -0.5,899.5C -0.5,872.5 -0.5,845.5 -0.5,818.5C 6.8409,818.334 14.1742,818.5 21.5,819C 26.191,820.669 30.8577,822.002 35.5,823C 33.1122,820.95 31.1122,818.616 29.5,816C 31.6952,809.952 35.3618,804.952 40.5,801C 60.9494,790.716 75.9494,796.049 85.5,817C 84.3746,818.963 83.0413,820.796 81.5,822.5C 81.8333,822.833 82.1667,823.167 82.5,823.5C 95.6266,815.261 109.96,812.427 125.5,815C 137.642,817.737 146.975,824.404 153.5,835C 149.131,837.688 145.964,841.188 144,845.5C 146.754,843.873 149.588,842.373 152.5,841C 174.804,834.599 194.47,839.099 211.5,854.5 Z"/></g>
<g><path style="opacity:1" fill="#cfe2f0" d="M 752.5,811.5 C 749.379,813.448 746.379,815.615 743.5,818C 731.394,831.661 733.394,842.995 749.5,852C 742.304,854.34 736.471,858.507 732,864.5C 731.909,876.055 737.742,880.889 749.5,879C 754.2,885.753 760.533,888.753 768.5,888C 774.547,885.122 779.547,880.956 783.5,875.5C 789.757,880.587 796.424,885.087 803.5,889C 822.389,895.923 838.723,892.09 852.5,877.5C 874.402,886.477 891.236,880.811 903,860.5C 916.254,875.306 926.587,873.64 934,855.5C 948.961,874.401 968.128,886.901 991.5,893C 1015.03,895.056 1036.7,889.723 1056.5,877C 1061.51,876.5 1066.51,876.667 1071.5,877.5C 1084.69,876.898 1095.69,871.898 1104.5,862.5C 1105.61,870.985 1102.28,877.485 1094.5,882C 1084.93,887.643 1074.6,890.976 1063.5,892C 1041.77,914.685 1015.44,923.018 984.5,917C 968.658,912.464 955.492,903.964 945,891.5C 941.962,900.942 935.462,905.942 925.5,906.5C 921.174,906.169 917.174,904.836 913.5,902.5C 896.824,921.996 875.824,929.329 850.5,924.5C 843.872,929.312 836.539,932.812 828.5,935C 800.2,938.44 783.033,926.274 777,898.5C 767.288,910.2 755.788,912.7 742.5,906C 740.044,903.592 738.211,900.759 737,897.5C 725.899,902.526 714.399,903.693 702.5,901C 685.59,894.022 680.757,882.188 688,865.5C 696.368,856.066 706.868,851.066 719.5,850.5C 717.438,844.991 716.104,839.324 715.5,833.5C 716.678,829.824 718.178,826.157 720,822.5C 723.05,819.256 725.883,815.923 728.5,812.5C 729.117,812.611 729.617,812.944 730,813.5C 735,810.997 740.333,809.664 746,809.5C 748.544,809.336 750.71,810.003 752.5,811.5 Z"/></g>
<g><path style="opacity:1" fill="#fdfeff" d="M 31.5,838.5 C 45.4514,836.427 57.118,840.594 66.5,851C 54.608,846.854 42.2747,845.521 29.5,847C 23.6357,848.841 17.969,850.841 12.5,853C 17.5951,846.388 23.9284,841.554 31.5,838.5 Z"/></g>
<g><path style="opacity:1" fill="#b7d5f0" d="M 213.5,859.5 C 214.627,870.621 211.294,880.121 203.5,888C 186.484,900.613 167.65,904.113 147,898.5C 143.94,903.567 140.107,908.067 135.5,912C 113.737,924.66 93.07,923.16 73.5,907.5C 49.7707,922.872 25.104,924.539 -0.5,912.5C -0.5,908.167 -0.5,903.833 -0.5,899.5C 24.0275,912.684 46.3609,909.85 66.5,891C 59.0901,888.26 52.7568,883.926 47.5,878C 65.6308,885.886 83.4641,885.053 101,875.5C 101.667,876.167 101.667,876.833 101,877.5C 95.3571,884.406 88.1905,888.906 79.5,891C 97.2351,910.841 116.902,912.841 138.5,897C 141.771,894.112 143.604,890.612 144,886.5C 139.431,882.661 136.431,877.995 135,872.5C 143.735,880.197 153.902,885.031 165.5,887C 188.152,888.856 204.152,879.689 213.5,859.5 Z"/></g>
<g><path style="opacity:1" fill="#f1f7fb" d="M 1586.5,888.5 C 1586.5,916.5 1586.5,944.5 1586.5,972.5C 1579.48,976.887 1572.81,976.387 1566.5,971C 1565.12,969.075 1563.62,967.241 1562,965.5C 1544.05,983.221 1525.72,983.888 1507,967.5C 1489.65,974.573 1476.48,969.906 1467.5,953.5C 1463.5,959.833 1457.84,962.333 1450.5,961C 1449.07,960.535 1447.9,959.701 1447,958.5C 1445.41,955.879 1443.91,953.213 1442.5,950.5C 1431.36,964.131 1417.36,973.631 1400.5,979C 1386,981.695 1372,980.028 1358.5,974C 1353.37,971.697 1348.37,969.197 1343.5,966.5C 1329.25,969.598 1317.25,965.932 1307.5,955.5C 1308.2,953.284 1309.54,951.451 1311.5,950C 1319.71,945.564 1328.05,945.398 1336.5,949.5C 1336.02,932.012 1344.02,919.846 1360.5,913C 1381.28,909.722 1396.95,917.222 1407.5,935.5C 1420.43,920.065 1435.6,917.398 1453,927.5C 1455.8,910.19 1464.3,906.856 1478.5,917.5C 1483.39,914.092 1488.39,913.758 1493.5,916.5C 1496.2,904.247 1502.54,894.414 1512.5,887C 1529.78,878.611 1543.61,882.444 1554,898.5C 1562.81,888.618 1573.65,885.285 1586.5,888.5 Z"/></g>
<g><path style="opacity:1" fill="#cfe2f0" d="M 1586.5,972.5 C 1586.5,979.5 1586.5,986.5 1586.5,993.5C 1579.04,992.938 1572.71,989.938 1567.5,984.5C 1562.22,1006.65 1548.22,1016.15 1525.5,1013C 1519.52,1010.68 1513.85,1007.84 1508.5,1004.5C 1506.7,1004.9 1505.03,1005.57 1503.5,1006.5C 1497.02,1005.51 1490.35,1005.18 1483.5,1005.5C 1483.61,1004.88 1483.94,1004.38 1484.5,1004C 1474.77,1001.14 1466.77,995.811 1460.5,988C 1456.9,988.691 1453.23,989.524 1449.5,990.5C 1441.53,990.019 1436.36,986.019 1434,978.5C 1432.12,979.653 1431.28,981.319 1431.5,983.5C 1429.6,983.738 1428.26,984.738 1427.5,986.5C 1417.95,993.434 1407.29,997.934 1395.5,1000C 1374.05,1002.97 1356.38,996.299 1342.5,980C 1333.25,979.189 1324.59,976.522 1316.5,972C 1310.25,968.252 1307.25,962.752 1307.5,955.5C 1317.25,965.932 1329.25,969.598 1343.5,966.5C 1348.37,969.197 1353.37,971.697 1358.5,974C 1372,980.028 1386,981.695 1400.5,979C 1417.36,973.631 1431.36,964.131 1442.5,950.5C 1443.91,953.213 1445.41,955.879 1447,958.5C 1447.9,959.701 1449.07,960.535 1450.5,961C 1457.84,962.333 1463.5,959.833 1467.5,953.5C 1476.48,969.906 1489.65,974.573 1507,967.5C 1525.72,983.888 1544.05,983.221 1562,965.5C 1563.62,967.241 1565.12,969.075 1566.5,971C 1572.81,976.387 1579.48,976.887 1586.5,972.5 Z"/></g>
<g><path style="opacity:1" fill="#ec1d24" d="M 1154.5,1076.5 C 1147.51,1082.16 1140.84,1088.16 1134.5,1094.5C 1082.1,1138.91 1029.43,1182.91 976.5,1226.5C 972.518,1229.15 968.851,1232.15 965.5,1235.5C 947.559,1249.11 930.226,1263.44 913.5,1278.5C 909.134,1281.02 905.134,1284.02 901.5,1287.5C 884.127,1301.84 866.794,1316.18 849.5,1330.5C 846.227,1332.43 843.227,1334.77 840.5,1337.5C 841.357,1338.43 842.357,1339.09 843.5,1339.5C 843.833,1340.5 844.5,1341.17 845.5,1341.5C 865.34,1356.25 885.674,1370.25 906.5,1383.5C 909.597,1386.89 913.264,1389.56 917.5,1391.5C 938.283,1406.61 959.616,1420.94 981.5,1434.5C 985.535,1437.86 989.868,1440.86 994.5,1443.5C 1016.56,1458.22 1038.89,1472.55 1061.5,1486.5C 1065.53,1489.86 1069.87,1492.86 1074.5,1495.5C 1122.49,1526.5 1171.16,1556.5 1220.5,1585.5C 1225.23,1588.89 1230.23,1591.89 1235.5,1594.5C 1254.78,1606.48 1273.78,1618.98 1292.5,1632C 1302.96,1638.79 1311.79,1647.29 1319,1657.5C 1325.92,1667.5 1328.58,1678.5 1327,1690.5C 1325.88,1692.62 1324.38,1694.46 1322.5,1696C 1306.16,1703.84 1289.49,1704.51 1272.5,1698C 1237.64,1682.57 1203.98,1665.07 1171.5,1645.5C 1162.51,1639.33 1153.17,1633.67 1143.5,1628.5C 1073.19,1585.68 1003.85,1541.34 935.5,1495.5C 931.181,1492 926.515,1489 921.5,1486.5C 900.779,1471.78 879.779,1457.45 858.5,1443.5C 854.447,1440.12 850.114,1437.12 845.5,1434.5C 825.467,1419.81 805.134,1405.48 784.5,1391.5C 781.066,1386.34 777.732,1386.34 774.5,1391.5C 736.897,1421.1 699.563,1451.1 662.5,1481.5C 631.127,1506.84 599.794,1532.18 568.5,1557.5C 537.947,1580.94 507.613,1604.6 477.5,1628.5C 469.528,1633.81 461.861,1639.48 454.5,1645.5C 420.672,1668.48 386.672,1691.31 352.5,1714C 330.999,1727.25 309.332,1740.25 287.5,1753C 282.554,1756.31 277.221,1758.81 271.5,1760.5C 263.157,1757.15 260.991,1751.49 265,1743.5C 300.969,1703.7 338.135,1665.03 376.5,1627.5C 380.859,1623.47 385.193,1619.47 389.5,1615.5C 410.526,1596.14 431.526,1576.81 452.5,1557.5C 513.232,1506.09 574.232,1455.09 635.5,1404.5C 641.792,1400.21 647.792,1395.54 653.5,1390.5C 656.786,1388.55 659.786,1386.22 662.5,1383.5C 680.136,1369.34 697.803,1355.18 715.5,1341C 697.804,1327.82 680.137,1314.66 662.5,1301.5C 659.81,1298.82 656.81,1296.48 653.5,1294.5C 601.29,1254.89 549.623,1214.56 498.5,1173.5C 495.729,1170.61 492.729,1167.94 489.5,1165.5C 462.873,1142.84 436.207,1120.18 409.5,1097.5C 405.129,1092.13 400.129,1087.46 394.5,1083.5C 381.166,1071.33 368.666,1058.33 357,1044.5C 341.774,1024.92 329.441,1003.58 320,980.5C 318.17,974.825 320.003,971.158 325.5,969.5C 349.18,975.447 371.513,984.614 392.5,997C 429.623,1021.56 465.29,1048.06 499.5,1076.5C 506.518,1082.85 513.851,1088.85 521.5,1094.5C 550.854,1118.52 580.521,1142.18 610.5,1165.5C 613.981,1168.41 617.648,1171.08 621.5,1173.5C 631.765,1182.31 642.432,1190.64 653.5,1198.5C 656.19,1201.18 659.19,1203.52 662.5,1205.5C 694.258,1230.55 726.591,1254.88 759.5,1278.5C 763.462,1281.49 767.462,1284.49 771.5,1287.5C 772.914,1289.05 774.581,1290.39 776.5,1291.5C 778.419,1290.39 780.086,1289.05 781.5,1287.5C 784.06,1285.73 786.393,1283.73 788.5,1281.5C 808.084,1266.92 827.084,1251.59 845.5,1235.5C 849.463,1232.87 853.129,1229.87 856.5,1226.5C 911.505,1182.49 966.505,1138.49 1021.5,1094.5C 1029.15,1088.85 1036.48,1082.85 1043.5,1076.5C 1070.95,1055.93 1098.29,1035.09 1125.5,1014C 1150.98,997.87 1176.98,982.536 1203.5,968C 1213.04,963.32 1223.04,960.154 1233.5,958.5C 1239.25,958.916 1242.92,961.916 1244.5,967.5C 1241.39,976.386 1237.22,984.719 1232,992.5C 1208.68,1022.79 1182.85,1050.79 1154.5,1076.5 Z"/></g>
<g><path style="opacity:1" fill="#e1f1fe" d="M 1483.5,1005.5 C 1467.37,1006.29 1452.7,1002.12 1439.5,993C 1436.25,990.253 1433.58,987.086 1431.5,983.5C 1431.28,981.319 1432.12,979.653 1434,978.5C 1436.36,986.019 1441.53,990.019 1449.5,990.5C 1453.23,989.524 1456.9,988.691 1460.5,988C 1466.77,995.811 1474.77,1001.14 1484.5,1004C 1483.94,1004.38 1483.61,1004.88 1483.5,1005.5 Z"/></g>
<g><path style="opacity:1" fill="#b6d5f0" d="M 1431.5,983.5 C 1433.58,987.086 1436.25,990.253 1439.5,993C 1452.7,1002.12 1467.37,1006.29 1483.5,1005.5C 1490.35,1005.18 1497.02,1005.51 1503.5,1006.5C 1500.85,1008.14 1498.18,1009.81 1495.5,1011.5C 1505.76,1022.46 1518.42,1028.96 1533.5,1031C 1546.04,1032.84 1558.04,1031.17 1569.5,1026C 1575.32,1022.34 1580.99,1018.5 1586.5,1014.5C 1586.5,1022.5 1586.5,1030.5 1586.5,1038.5C 1570.61,1045.7 1553.94,1048.2 1536.5,1046C 1517.78,1044.4 1502.78,1036.23 1491.5,1021.5C 1474.4,1022.78 1458.4,1019.28 1443.5,1011C 1434.25,1005.31 1428.91,997.146 1427.5,986.5C 1428.26,984.738 1429.6,983.738 1431.5,983.5 Z"/></g>
<g><path style="opacity:1" fill="#e2f1fe" d="M 1586.5,993.5 C 1586.5,996.167 1586.5,998.833 1586.5,1001.5C 1584.14,1001.66 1581.81,1001.5 1579.5,1001C 1575.13,999.429 1570.8,998.096 1566.5,997C 1571.67,1003.75 1578.34,1008.25 1586.5,1010.5C 1586.5,1011.83 1586.5,1013.17 1586.5,1014.5C 1580.99,1018.5 1575.32,1022.34 1569.5,1026C 1558.04,1031.17 1546.04,1032.84 1533.5,1031C 1518.42,1028.96 1505.76,1022.46 1495.5,1011.5C 1498.18,1009.81 1500.85,1008.14 1503.5,1006.5C 1505.03,1005.57 1506.7,1004.9 1508.5,1004.5C 1513.85,1007.84 1519.52,1010.68 1525.5,1013C 1548.22,1016.15 1562.22,1006.65 1567.5,984.5C 1572.71,989.938 1579.04,992.938 1586.5,993.5 Z"/></g>
<g><path style="opacity:1" fill="#b7d5f0" d="M 1586.5,1001.5 C 1586.5,1004.5 1586.5,1007.5 1586.5,1010.5C 1578.34,1008.25 1571.67,1003.75 1566.5,997C 1570.8,998.096 1575.13,999.429 1579.5,1001C 1581.81,1001.5 1584.14,1001.66 1586.5,1001.5 Z"/></g>
<g><path style="opacity:1" fill="#234e7f" d="M 499.5,1076.5 C 680.833,1076.5 862.167,1076.5 1043.5,1076.5C 1036.48,1082.85 1029.15,1088.85 1021.5,1094.5C 854.833,1094.5 688.167,1094.5 521.5,1094.5C 513.851,1088.85 506.518,1082.85 499.5,1076.5 Z"/></g>
<g><path style="opacity:1" fill="#214c7e" d="M 1154.5,1076.5 C 1164.75,1076.25 1174.75,1077.75 1184.5,1081C 1214.84,1092.34 1233.34,1113.84 1240,1145.5C 1240.5,1207.83 1240.67,1270.17 1240.5,1332.5C 1239.66,1337.17 1236.83,1339.5 1232,1339.5C 1227.75,1338.74 1224.92,1336.41 1223.5,1332.5C 1223.67,1270.83 1223.5,1209.17 1223,1147.5C 1215.85,1118.02 1197.35,1100.52 1167.5,1095C 1156.51,1094.5 1145.51,1094.33 1134.5,1094.5C 1140.84,1088.16 1147.51,1082.16 1154.5,1076.5 Z"/></g>
<g><path style="opacity:1" fill="#1d4a7c" d="M 394.5,1083.5 C 400.129,1087.46 405.129,1092.13 409.5,1097.5C 389.598,1103.56 375.431,1116.23 367,1135.5C 365.353,1140.75 364.02,1146.09 363,1151.5C 362.333,1290.83 362.333,1430.17 363,1569.5C 364.984,1588.94 373.817,1604.27 389.5,1615.5C 385.193,1619.47 380.859,1623.47 376.5,1627.5C 358.274,1613.39 348.108,1594.73 346,1571.5C 345.5,1555.17 345.333,1538.84 345.5,1522.5C 345.5,1514.17 345.5,1505.83 345.5,1497.5C 345.5,1481.5 345.5,1465.5 345.5,1449.5C 345.333,1349.5 345.5,1249.5 346,1149.5C 350.455,1118.88 366.622,1096.88 394.5,1083.5 Z"/></g>
<g><path style="opacity:1" fill="#fefefe" d="M 521.5,1094.5 C 688.167,1094.5 854.833,1094.5 1021.5,1094.5C 966.505,1138.49 911.505,1182.49 856.5,1226.5C 850.158,1226.33 843.825,1226.5 837.5,1227C 835.556,1229.15 835.056,1231.65 836,1234.5C 839.057,1235.45 842.223,1235.78 845.5,1235.5C 827.084,1251.59 808.084,1266.92 788.5,1281.5C 788.423,1280.25 787.756,1279.42 786.5,1279C 777.506,1278.5 768.506,1278.33 759.5,1278.5C 726.591,1254.88 694.258,1230.55 662.5,1205.5C 663.966,1185.59 655.3,1172.42 636.5,1166C 627.84,1165.5 619.173,1165.33 610.5,1165.5C 580.521,1142.18 550.854,1118.52 521.5,1094.5 Z"/></g>
<g><path style="opacity:1" fill="#fefefe" d="M 1134.5,1094.5 C 1145.51,1094.33 1156.51,1094.5 1167.5,1095C 1197.35,1100.52 1215.85,1118.02 1223,1147.5C 1223.5,1209.17 1223.67,1270.83 1223.5,1332.5C 1223.5,1338.83 1223.5,1345.17 1223.5,1351.5C 1223.5,1356.83 1223.5,1362.17 1223.5,1367.5C 1223.5,1424.17 1223.5,1480.83 1223.5,1537.5C 1224.19,1553.64 1223.19,1569.64 1220.5,1585.5C 1171.16,1556.5 1122.49,1526.5 1074.5,1495.5C 1098.17,1495.67 1121.84,1495.5 1145.5,1495C 1148.08,1492.46 1148.08,1489.96 1145.5,1487.5C 1117.54,1486.51 1089.54,1486.18 1061.5,1486.5C 1038.89,1472.55 1016.56,1458.22 994.5,1443.5C 1044.83,1443.67 1095.17,1443.5 1145.5,1443C 1148.1,1440.54 1148.1,1438.04 1145.5,1435.5C 1090.88,1434.5 1036.21,1434.17 981.5,1434.5C 959.616,1420.94 938.283,1406.61 917.5,1391.5C 993.501,1391.67 1069.5,1391.5 1145.5,1391C 1148.17,1388.67 1148.17,1386.33 1145.5,1384C 1065.83,1383.5 986.167,1383.33 906.5,1383.5C 885.674,1370.25 865.34,1356.25 845.5,1341.5C 945.167,1340.83 1044.83,1340.17 1144.5,1339.5C 1148.45,1336.75 1148.45,1333.92 1144.5,1331C 1046.17,1330.5 947.834,1330.33 849.5,1330.5C 866.794,1316.18 884.127,1301.84 901.5,1287.5C 982.834,1287.67 1064.17,1287.5 1145.5,1287C 1148.25,1283.99 1147.92,1281.32 1144.5,1279C 1067.5,1278.5 990.501,1278.33 913.5,1278.5C 930.226,1263.44 947.559,1249.11 965.5,1235.5C 1025.5,1235.67 1085.5,1235.5 1145.5,1235C 1148.25,1231.99 1147.92,1229.32 1144.5,1227C 1088.5,1226.5 1032.5,1226.33 976.5,1226.5C 1029.43,1182.91 1082.1,1138.91 1134.5,1094.5 Z"/></g>
<g><path style="opacity:1" fill="#fbfcfc" d="M 409.5,1097.5 C 436.207,1120.18 462.873,1142.84 489.5,1165.5C 465.164,1165.33 440.831,1165.5 416.5,1166C 403.931,1170.24 395.764,1178.74 392,1191.5C 391.333,1303.5 391.333,1415.5 392,1527.5C 394.248,1541.09 401.748,1550.59 414.5,1556C 427.092,1557.44 439.759,1557.94 452.5,1557.5C 431.526,1576.81 410.526,1596.14 389.5,1615.5C 373.817,1604.27 364.984,1588.94 363,1569.5C 362.333,1430.17 362.333,1290.83 363,1151.5C 364.02,1146.09 365.353,1140.75 367,1135.5C 375.431,1116.23 389.598,1103.56 409.5,1097.5 Z"/></g>
<g><path style="opacity:1" fill="#204a7c" d="M 489.5,1165.5 C 492.729,1167.94 495.729,1170.61 498.5,1173.5C 472.498,1173.33 446.498,1173.5 420.5,1174C 412.182,1176.65 406.016,1181.82 402,1189.5C 400.342,1269.11 400.009,1348.78 401,1428.5C 417.24,1403.6 438.573,1384.26 465,1370.5C 449.994,1338.03 454.828,1308.87 479.5,1283C 514.514,1256.82 548.014,1258.66 580,1288.5C 599.928,1313.64 602.761,1340.64 588.5,1369.5C 605.572,1379.23 621.239,1390.9 635.5,1404.5C 574.232,1455.09 513.232,1506.09 452.5,1557.5C 439.759,1557.94 427.092,1557.44 414.5,1556C 401.748,1550.59 394.248,1541.09 392,1527.5C 391.333,1415.5 391.333,1303.5 392,1191.5C 395.764,1178.74 403.931,1170.24 416.5,1166C 440.831,1165.5 465.164,1165.33 489.5,1165.5 Z"/></g>
<g><path style="opacity:1" fill="#264c7d" d="M 610.5,1165.5 C 619.173,1165.33 627.84,1165.5 636.5,1166C 655.3,1172.42 663.966,1185.59 662.5,1205.5C 659.19,1203.52 656.19,1201.18 653.5,1198.5C 650.468,1180.63 639.802,1172.29 621.5,1173.5C 617.648,1171.08 613.981,1168.41 610.5,1165.5 Z"/></g>
<g><path style="opacity:1" fill="#ff9639" d="M 743.5,1168.5 C 795.168,1168.33 846.834,1168.5 898.5,1169C 903.548,1169.6 905.882,1172.43 905.5,1177.5C 905.882,1182.57 903.548,1185.4 898.5,1186C 846.833,1186.67 795.167,1186.67 743.5,1186C 734.248,1180.17 734.248,1174.34 743.5,1168.5 Z"/></g>
<g><path style="opacity:1" fill="#fe9333" d="M 498.5,1173.5 C 549.623,1214.56 601.29,1254.89 653.5,1294.5C 653.5,1326.5 653.5,1358.5 653.5,1390.5C 647.792,1395.54 641.792,1400.21 635.5,1404.5C 621.239,1390.9 605.572,1379.23 588.5,1369.5C 602.761,1340.64 599.928,1313.64 580,1288.5C 548.014,1258.66 514.514,1256.82 479.5,1283C 454.828,1308.87 449.994,1338.03 465,1370.5C 438.573,1384.26 417.24,1403.6 401,1428.5C 400.009,1348.78 400.342,1269.11 402,1189.5C 406.016,1181.82 412.182,1176.65 420.5,1174C 446.498,1173.5 472.498,1173.33 498.5,1173.5 Z"/></g>
<g><path style="opacity:1" fill="#f99135" d="M 621.5,1173.5 C 639.802,1172.29 650.468,1180.63 653.5,1198.5C 642.432,1190.64 631.765,1182.31 621.5,1173.5 Z"/></g>
<g><path style="opacity:1" fill="#ff9434" d="M 738.5,1227.5 C 755.18,1227.17 771.847,1227.5 788.5,1228.5C 789.833,1230.5 789.833,1232.5 788.5,1234.5C 771.843,1235.67 755.177,1235.83 738.5,1235C 737.221,1232.5 737.221,1230 738.5,1227.5 Z"/></g>
<g><path style="opacity:1" fill="#2a4f7e" d="M 856.5,1226.5 C 853.129,1229.87 849.463,1232.87 845.5,1235.5C 842.223,1235.78 839.057,1235.45 836,1234.5C 835.056,1231.65 835.556,1229.15 837.5,1227C 843.825,1226.5 850.158,1226.33 856.5,1226.5 Z"/></g>
<g><path style="opacity:1" fill="#244e7f" d="M 976.5,1226.5 C 1032.5,1226.33 1088.5,1226.5 1144.5,1227C 1147.92,1229.32 1148.25,1231.99 1145.5,1235C 1085.5,1235.5 1025.5,1235.67 965.5,1235.5C 968.851,1232.15 972.518,1229.15 976.5,1226.5 Z"/></g>
<g><path style="opacity:1" fill="#fefeff" d="M 328.5,1353.5 C 308.004,1333.18 283.17,1322.85 254,1322.5C 237.323,1323.23 221.823,1327.89 207.5,1336.5C 211.442,1329.69 216.942,1323.69 224,1318.5C 216.768,1303.61 205.268,1293.11 189.5,1287C 171.194,1281.25 152.528,1279.92 133.5,1283C 120.144,1286 107.977,1291.5 97,1299.5C 96.6848,1298.09 97.0181,1296.76 98,1295.5C 100.312,1292.35 102.812,1289.35 105.5,1286.5C 91.8835,1254.86 68.5502,1243.36 35.5,1252C 21.4361,1259.56 11.4361,1270.73 5.5,1285.5C 9.23331,1289.74 13.2333,1293.9 17.5,1298C 11.8034,1295.57 5.80342,1293.74 -0.5,1292.5C -0.5,1286.17 -0.5,1279.83 -0.5,1273.5C 1.53422,1275.25 3.70088,1275.58 6,1274.5C 7.86357,1268.44 10.5302,1262.77 14,1257.5C 31.2726,1232.97 53.4393,1227.14 80.5,1240C 91.9702,1248.41 100.47,1259.24 106,1272.5C 110.403,1270.48 114.903,1268.64 119.5,1267C 154.687,1257.34 185.521,1264.84 212,1289.5C 216.397,1295.72 220.563,1302.05 224.5,1308.5C 247.994,1303.93 270.661,1306.43 292.5,1316C 309.83,1323.49 321.83,1335.99 328.5,1353.5 Z"/></g>
<g><path style="opacity:1" fill="#f1f7fb" d="M 1553.5,1329.5 C 1547.4,1336.55 1539.73,1341.05 1530.5,1343C 1522.17,1343.33 1513.83,1343.67 1505.5,1344C 1485.86,1355.91 1464.53,1361.24 1441.5,1360C 1427.76,1357.3 1415.43,1351.63 1404.5,1343C 1397.03,1336.53 1389.86,1329.7 1383,1322.5C 1378.76,1337.01 1370.26,1340.51 1357.5,1333C 1355.29,1331.13 1353.46,1328.96 1352,1326.5C 1340.48,1347.29 1323.65,1353.29 1301.5,1344.5C 1297.38,1347.44 1293.38,1350.61 1289.5,1354C 1278.56,1359.84 1267.23,1360.84 1255.5,1357C 1247.16,1353.17 1239.49,1348.33 1232.5,1342.5C 1229.81,1345.85 1226.81,1348.85 1223.5,1351.5C 1223.5,1345.17 1223.5,1338.83 1223.5,1332.5C 1224.92,1336.41 1227.75,1338.74 1232,1339.5C 1236.83,1339.5 1239.66,1337.17 1240.5,1332.5C 1241.04,1307.29 1241.87,1281.95 1243,1256.5C 1253.24,1240.31 1267.74,1234.47 1286.5,1239C 1304.95,1247.13 1315.45,1261.3 1318,1281.5C 1319.21,1279.95 1320.71,1278.78 1322.5,1278C 1328.25,1276.71 1333.42,1277.88 1338,1281.5C 1341.28,1278.23 1345.12,1275.73 1349.5,1274C 1362.86,1273.35 1370.03,1279.85 1371,1293.5C 1375.04,1290.4 1379.54,1288.23 1384.5,1287C 1402.76,1283.58 1417.09,1289.41 1427.5,1304.5C 1439.52,1282.32 1458.19,1272.49 1483.5,1275C 1506.73,1282.53 1517.56,1298.36 1516,1322.5C 1523.75,1318.78 1531.91,1317.61 1540.5,1319C 1546.86,1320.16 1551.19,1323.66 1553.5,1329.5 Z"/></g>
<g><path style="opacity:1" fill="#e3f1fe" d="M 328.5,1353.5 C 329.319,1355.77 329.985,1358.11 330.5,1360.5C 322.846,1383.71 307.179,1398.88 283.5,1406C 272.514,1408.66 261.514,1410.16 250.5,1410.5C 240.684,1401.93 229.351,1398.93 216.5,1401.5C 216.631,1400.62 216.298,1399.96 215.5,1399.5C 206.368,1395.2 198.202,1389.53 191,1382.5C 193.786,1391.39 198.619,1399.06 205.5,1405.5C 198.247,1410.28 193.414,1416.94 191,1425.5C 184.484,1420 176.984,1418.16 168.5,1420C 164.103,1421.62 160.269,1424.12 157,1427.5C 154.498,1432.16 152.331,1436.83 150.5,1441.5C 150.389,1440.88 150.056,1440.38 149.5,1440C 141.935,1438.98 134.601,1439.81 127.5,1442.5C 114.236,1436.34 102.903,1427.51 93.5,1416C 108.09,1413.4 120.256,1406.56 130,1395.5C 131.919,1393.31 133.253,1390.98 134,1388.5C 105.635,1404.14 76.1345,1406.64 45.5,1396C 42.7543,1394.76 40.0876,1393.76 37.5,1393C 46.8461,1404.68 58.8461,1412.35 73.5,1416C 62.1873,1426.3 49.5206,1434.63 35.5,1441C 23.8497,1445.06 11.8497,1446.56 -0.5,1445.5C -0.5,1410.5 -0.5,1375.5 -0.5,1340.5C 18.4883,1336.4 37.4883,1336.57 56.5,1341C 61.943,1343.07 67.2763,1345.07 72.5,1347C 52.3524,1323.79 28.0191,1317.95 -0.5,1329.5C -0.5,1317.17 -0.5,1304.83 -0.5,1292.5C 5.80342,1293.74 11.8034,1295.57 17.5,1298C 13.2333,1293.9 9.23331,1289.74 5.5,1285.5C 11.4361,1270.73 21.4361,1259.56 35.5,1252C 68.5502,1243.36 91.8835,1254.86 105.5,1286.5C 102.812,1289.35 100.312,1292.35 98,1295.5C 97.0181,1296.76 96.6848,1298.09 97,1299.5C 107.977,1291.5 120.144,1286 133.5,1283C 152.528,1279.92 171.194,1281.25 189.5,1287C 205.268,1293.11 216.768,1303.61 224,1318.5C 216.942,1323.69 211.442,1329.69 207.5,1336.5C 221.823,1327.89 237.323,1323.23 254,1322.5C 283.17,1322.85 308.004,1333.18 328.5,1353.5 Z"/></g>
<g><path style="opacity:1" fill="#fdfefe" d="M 518.5,1273.5 C 544.914,1271.62 565.414,1281.62 580,1303.5C 592.103,1326.77 591.103,1349.44 577,1371.5C 559.864,1392.21 538.031,1400.05 511.5,1395C 477.173,1382.33 462.34,1357.83 467,1321.5C 474.833,1295.36 491.999,1279.36 518.5,1273.5 Z"/></g>
<g><path style="opacity:1" fill="#ff963a" d="M 759.5,1278.5 C 768.506,1278.33 777.506,1278.5 786.5,1279C 787.756,1279.42 788.423,1280.25 788.5,1281.5C 786.393,1283.73 784.06,1285.73 781.5,1287.5C 778.167,1287.5 774.833,1287.5 771.5,1287.5C 767.462,1284.49 763.462,1281.49 759.5,1278.5 Z"/></g>
<g><path style="opacity:1" fill="#244e7f" d="M 913.5,1278.5 C 990.501,1278.33 1067.5,1278.5 1144.5,1279C 1147.92,1281.32 1148.25,1283.99 1145.5,1287C 1064.17,1287.5 982.834,1287.67 901.5,1287.5C 905.134,1284.02 909.134,1281.02 913.5,1278.5 Z"/></g>
<g><path style="opacity:1" fill="#ffe9e2" d="M 771.5,1287.5 C 774.833,1287.5 778.167,1287.5 781.5,1287.5C 780.086,1289.05 778.419,1290.39 776.5,1291.5C 774.581,1290.39 772.914,1289.05 771.5,1287.5 Z"/></g>
<g><path style="opacity:1" fill="#274d7c" d="M 653.5,1294.5 C 656.81,1296.48 659.81,1298.82 662.5,1301.5C 662.5,1328.83 662.5,1356.17 662.5,1383.5C 659.786,1386.22 656.786,1388.55 653.5,1390.5C 653.5,1358.5 653.5,1326.5 653.5,1294.5 Z"/></g>
<g><path style="opacity:1" fill="#fbfafb" d="M 662.5,1301.5 C 680.137,1314.66 697.804,1327.82 715.5,1341C 697.803,1355.18 680.136,1369.34 662.5,1383.5C 662.5,1356.17 662.5,1328.83 662.5,1301.5 Z"/></g>
<g><path style="opacity:1" fill="#cfe2f0" d="M 1553.5,1329.5 C 1554.62,1331.29 1554.79,1333.29 1554,1335.5C 1553,1337.5 1552,1339.5 1551,1341.5C 1540.05,1352.88 1526.55,1358.72 1510.5,1359C 1498.51,1373.34 1483.18,1382 1464.5,1385C 1436.16,1388.57 1412.66,1379.73 1394,1358.5C 1391.15,1368.18 1384.65,1372.85 1374.5,1372.5C 1369.8,1372.71 1365.46,1371.87 1361.5,1370C 1349.27,1385.28 1333.27,1392.78 1313.5,1392.5C 1307.82,1392.04 1302.15,1391.87 1296.5,1392C 1291.17,1397.17 1284.83,1400.5 1277.5,1402C 1249.25,1405.37 1231.91,1393.21 1225.5,1365.5C 1224.82,1366.24 1224.15,1366.91 1223.5,1367.5C 1223.5,1362.17 1223.5,1356.83 1223.5,1351.5C 1226.81,1348.85 1229.81,1345.85 1232.5,1342.5C 1239.49,1348.33 1247.16,1353.17 1255.5,1357C 1267.23,1360.84 1278.56,1359.84 1289.5,1354C 1293.38,1350.61 1297.38,1347.44 1301.5,1344.5C 1323.65,1353.29 1340.48,1347.29 1352,1326.5C 1353.46,1328.96 1355.29,1331.13 1357.5,1333C 1370.26,1340.51 1378.76,1337.01 1383,1322.5C 1389.86,1329.7 1397.03,1336.53 1404.5,1343C 1415.43,1351.63 1427.76,1357.3 1441.5,1360C 1464.53,1361.24 1485.86,1355.91 1505.5,1344C 1513.83,1343.67 1522.17,1343.33 1530.5,1343C 1539.73,1341.05 1547.4,1336.55 1553.5,1329.5 Z"/></g>
<g><path style="opacity:1" fill="#fefeff" d="M -0.5,1340.5 C -0.5,1336.83 -0.5,1333.17 -0.5,1329.5C 28.0191,1317.95 52.3524,1323.79 72.5,1347C 67.2763,1345.07 61.943,1343.07 56.5,1341C 37.4883,1336.57 18.4883,1336.4 -0.5,1340.5 Z"/></g>
<g><path style="opacity:1" fill="#244e7f" d="M 849.5,1330.5 C 947.834,1330.33 1046.17,1330.5 1144.5,1331C 1148.45,1333.92 1148.45,1336.75 1144.5,1339.5C 1044.17,1339.5 943.833,1339.5 843.5,1339.5C 842.357,1339.09 841.357,1338.43 840.5,1337.5C 843.227,1334.77 846.227,1332.43 849.5,1330.5 Z"/></g>
<g><path style="opacity:1" fill="#c6d0dd" d="M 843.5,1339.5 C 943.833,1339.5 1044.17,1339.5 1144.5,1339.5C 1044.83,1340.17 945.167,1340.83 845.5,1341.5C 844.5,1341.17 843.833,1340.5 843.5,1339.5 Z"/></g>
<g><path style="opacity:1" fill="#b6d5f0" d="M 330.5,1360.5 C 332.592,1372.29 331.092,1383.62 326,1394.5C 311.7,1416.26 291.533,1428.93 265.5,1432.5C 262.094,1424.09 257.094,1416.76 250.5,1410.5C 261.514,1410.16 272.514,1408.66 283.5,1406C 307.179,1398.88 322.846,1383.71 330.5,1360.5 Z"/></g>
<g><path style="opacity:1" fill="#1d4a7b" d="M 906.5,1383.5 C 986.167,1383.33 1065.83,1383.5 1145.5,1384C 1148.17,1386.33 1148.17,1388.67 1145.5,1391C 1069.5,1391.5 993.501,1391.67 917.5,1391.5C 913.264,1389.56 909.597,1386.89 906.5,1383.5 Z"/></g>
<g><path style="opacity:1" fill="#b8d6f0" d="M 216.5,1401.5 C 212.53,1401.98 208.864,1403.32 205.5,1405.5C 198.619,1399.06 193.786,1391.39 191,1382.5C 198.202,1389.53 206.368,1395.2 215.5,1399.5C 216.298,1399.96 216.631,1400.62 216.5,1401.5 Z"/></g>
<g><path style="opacity:1" fill="#fe8e32" d="M 784.5,1391.5 C 781.167,1391.5 777.833,1391.5 774.5,1391.5C 777.732,1386.34 781.066,1386.34 784.5,1391.5 Z"/></g>
<g><path style="opacity:1" fill="#b6d5f0" d="M 127.5,1442.5 C 124.221,1445.95 121.054,1449.62 118,1453.5C 116.539,1456.68 115.705,1460.01 115.5,1463.5C 103.056,1460.36 92.5563,1454.03 84,1444.5C 78.3799,1449.45 72.2132,1453.62 65.5,1457C 44.372,1465.8 22.372,1469.3 -0.5,1467.5C -0.5,1460.17 -0.5,1452.83 -0.5,1445.5C 11.8497,1446.56 23.8497,1445.06 35.5,1441C 49.5206,1434.63 62.1873,1426.3 73.5,1416C 58.8461,1412.35 46.8461,1404.68 37.5,1393C 40.0876,1393.76 42.7543,1394.76 45.5,1396C 76.1345,1406.64 105.635,1404.14 134,1388.5C 133.253,1390.98 131.919,1393.31 130,1395.5C 120.256,1406.56 108.09,1413.4 93.5,1416C 102.903,1427.51 114.236,1436.34 127.5,1442.5 Z"/></g>
<g><path style="opacity:1" fill="#fefefe" d="M 774.5,1391.5 C 777.833,1391.5 781.167,1391.5 784.5,1391.5C 805.134,1405.48 825.467,1419.81 845.5,1434.5C 837.534,1432.64 834.534,1435.47 836.5,1443C 843.826,1443.5 851.159,1443.67 858.5,1443.5C 879.779,1457.45 900.779,1471.78 921.5,1486.5C 893.498,1486.33 865.498,1486.5 837.5,1487C 834.833,1489.67 834.833,1492.33 837.5,1495C 870.165,1495.5 902.832,1495.67 935.5,1495.5C 1003.85,1541.34 1073.19,1585.68 1143.5,1628.5C 921.5,1628.5 699.5,1628.5 477.5,1628.5C 507.613,1604.6 537.947,1580.94 568.5,1557.5C 590.836,1557.67 613.169,1557.5 635.5,1557C 649.667,1553.5 658.5,1544.67 662,1530.5C 662.5,1514.17 662.667,1497.84 662.5,1481.5C 699.563,1451.1 736.897,1421.1 774.5,1391.5 Z"/></g>
<g><path style="opacity:1" fill="#f1f7fb" d="M 250.5,1410.5 C 257.094,1416.76 262.094,1424.09 265.5,1432.5C 265.697,1436.37 266.531,1440.04 268,1443.5C 274.652,1439.35 281.152,1439.68 287.5,1444.5C 290.5,1442.33 293.5,1440.17 296.5,1438C 311.558,1434.71 319.391,1440.87 320,1456.5C 327.579,1450.98 336.079,1448.65 345.5,1449.5C 345.5,1465.5 345.5,1481.5 345.5,1497.5C 341.229,1493.73 337.062,1489.73 333,1485.5C 325.153,1503.45 314.653,1505.11 301.5,1490.5C 289.751,1510.98 272.918,1516.65 251,1507.5C 232.223,1525.83 212.056,1527.33 190.5,1512C 188.017,1509.59 185.35,1507.43 182.5,1505.5C 179.143,1509.69 175.143,1513.19 170.5,1516C 161.131,1519.74 153.797,1517.41 148.5,1509C 136.219,1510.71 130.386,1505.54 131,1493.5C 135.545,1487.8 141.378,1483.97 148.5,1482C 143.748,1479.25 139.581,1475.75 136,1471.5C 132.257,1464.7 132.923,1458.37 138,1452.5C 141.742,1448.25 145.908,1444.59 150.5,1441.5C 152.331,1436.83 154.498,1432.16 157,1427.5C 160.269,1424.12 164.103,1421.62 168.5,1420C 176.984,1418.16 184.484,1420 191,1425.5C 193.414,1416.94 198.247,1410.28 205.5,1405.5C 208.864,1403.32 212.53,1401.98 216.5,1401.5C 229.351,1398.93 240.684,1401.93 250.5,1410.5 Z"/></g>
<g><path style="opacity:1" fill="#ff9739" d="M 739.5,1434.5 C 755.503,1434.33 771.503,1434.5 787.5,1435C 790.167,1437.67 790.167,1440.33 787.5,1443C 771.167,1443.67 754.833,1443.67 738.5,1443C 737.041,1439.93 737.374,1437.1 739.5,1434.5 Z"/></g>
<g><path style="opacity:1" fill="#294c7d" d="M 845.5,1434.5 C 850.114,1437.12 854.447,1440.12 858.5,1443.5C 851.159,1443.67 843.826,1443.5 836.5,1443C 834.534,1435.47 837.534,1432.64 845.5,1434.5 Z"/></g>
<g><path style="opacity:1" fill="#244e7f" d="M 981.5,1434.5 C 1036.21,1434.17 1090.88,1434.5 1145.5,1435.5C 1148.1,1438.04 1148.1,1440.54 1145.5,1443C 1095.17,1443.5 1044.83,1443.67 994.5,1443.5C 989.868,1440.86 985.535,1437.86 981.5,1434.5 Z"/></g>
<g><path style="opacity:1" fill="#cfe2f0" d="M 150.5,1441.5 C 145.908,1444.59 141.742,1448.25 138,1452.5C 132.923,1458.37 132.257,1464.7 136,1471.5C 139.581,1475.75 143.748,1479.25 148.5,1482C 141.378,1483.97 135.545,1487.8 131,1493.5C 130.386,1505.54 136.219,1510.71 148.5,1509C 153.797,1517.41 161.131,1519.74 170.5,1516C 175.143,1513.19 179.143,1509.69 182.5,1505.5C 185.35,1507.43 188.017,1509.59 190.5,1512C 212.056,1527.33 232.223,1525.83 251,1507.5C 272.918,1516.65 289.751,1510.98 301.5,1490.5C 314.653,1505.11 325.153,1503.45 333,1485.5C 337.062,1489.73 341.229,1493.73 345.5,1497.5C 345.5,1505.83 345.5,1514.17 345.5,1522.5C 344.542,1522.05 343.708,1521.38 343,1520.5C 342.884,1523.93 341.717,1526.93 339.5,1529.5C 333.267,1535.23 325.934,1537.06 317.5,1535C 315.413,1534.21 313.579,1533.04 312,1531.5C 307.833,1537 303,1541.83 297.5,1546C 281.576,1554.93 264.576,1557.93 246.5,1555C 234.13,1565.26 220.13,1568.26 204.5,1564C 187.471,1557.65 177.971,1545.48 176,1527.5C 170.262,1535.2 162.596,1539.2 153,1539.5C 144.517,1539.34 138.683,1535.34 135.5,1527.5C 125.909,1531.71 115.909,1533.21 105.5,1532C 85.3969,1525.97 79.2302,1513.47 87,1494.5C 95.6713,1485.75 106.171,1480.58 118.5,1479C 116.015,1474.16 115.015,1469 115.5,1463.5C 115.705,1460.01 116.539,1456.68 118,1453.5C 121.054,1449.62 124.221,1445.95 127.5,1442.5C 134.601,1439.81 141.935,1438.98 149.5,1440C 150.056,1440.38 150.389,1440.88 150.5,1441.5 Z"/></g>
<g><path style="opacity:1" fill="#1f4a7b" d="M 662.5,1481.5 C 662.667,1497.84 662.5,1514.17 662,1530.5C 658.5,1544.67 649.667,1553.5 635.5,1557C 613.169,1557.5 590.836,1557.67 568.5,1557.5C 599.794,1532.18 631.127,1506.84 662.5,1481.5 Z"/></g>
<g><path style="opacity:1" fill="#ff9739" d="M 739.5,1486.5 C 755.503,1486.33 771.503,1486.5 787.5,1487C 790.167,1489.67 790.167,1492.33 787.5,1495C 771.167,1495.67 754.833,1495.67 738.5,1495C 737.041,1491.93 737.374,1489.1 739.5,1486.5 Z"/></g>
<g><path style="opacity:1" fill="#244d7e" d="M 921.5,1486.5 C 926.515,1489 931.181,1492 935.5,1495.5C 902.832,1495.67 870.165,1495.5 837.5,1495C 834.833,1492.33 834.833,1489.67 837.5,1487C 865.498,1486.5 893.498,1486.33 921.5,1486.5 Z"/></g>
<g><path style="opacity:1" fill="#254e7f" d="M 1061.5,1486.5 C 1089.54,1486.18 1117.54,1486.51 1145.5,1487.5C 1148.08,1489.96 1148.08,1492.46 1145.5,1495C 1121.84,1495.5 1098.17,1495.67 1074.5,1495.5C 1069.87,1492.86 1065.53,1489.86 1061.5,1486.5 Z"/></g>
<g><path style="opacity:1" fill="#204b7d" d="M 1235.5,1594.5 C 1230.23,1591.89 1225.23,1588.89 1220.5,1585.5C 1223.19,1569.64 1224.19,1553.64 1223.5,1537.5C 1228.18,1530.4 1233.68,1529.73 1240,1535.5C 1240.67,1549.5 1240.67,1563.5 1240,1577.5C 1238.65,1583.23 1237.15,1588.89 1235.5,1594.5 Z"/></g>
<g><path style="opacity:1" fill="#1d497b" d="M 477.5,1628.5 C 699.5,1628.5 921.5,1628.5 1143.5,1628.5C 1153.17,1633.67 1162.51,1639.33 1171.5,1645.5C 1160.5,1645.5 1149.5,1645.5 1138.5,1645.5C 1043.5,1645.5 948.5,1645.5 853.5,1645.5C 720.5,1645.5 587.5,1645.5 454.5,1645.5C 461.861,1639.48 469.528,1633.81 477.5,1628.5 Z"/></g>
<g><path style="opacity:1" fill="#b6d5ef" d="M 853.5,1645.5 C 948.5,1645.5 1043.5,1645.5 1138.5,1645.5C 1134.81,1647.79 1130.81,1649.63 1126.5,1651C 1111.92,1654.39 1097.42,1654.23 1083,1650.5C 1079.29,1657.55 1074.12,1663.39 1067.5,1668C 1041.88,1681.04 1017.72,1678.88 995,1661.5C 975.424,1674.63 953.924,1679.13 930.5,1675C 912.638,1671.99 898.138,1663.49 887,1649.5C 881.528,1650.55 876.028,1650.71 870.5,1650C 864.345,1649.88 858.678,1648.38 853.5,1645.5 Z"/></g>
<g><path style="opacity:1" fill="#e2f1fe" d="M 899.5,1647.5 C 926.33,1646.34 953.33,1646.17 980.5,1647C 964.097,1661.1 945.43,1665.1 924.5,1659C 915.573,1656.2 907.24,1652.37 899.5,1647.5 Z"/></g>
<g><path style="opacity:1" fill="#e2f1fe" d="M 1007.5,1647.5 C 1029.66,1646.34 1052,1646.17 1074.5,1647C 1060.68,1659.27 1044.68,1663.61 1026.5,1660C 1019.45,1656.82 1013.12,1652.65 1007.5,1647.5 Z"/></g>
<g><path style="opacity:1" fill="#fdfeff" d="M -0.5,1948.5 C 15.1957,1948.36 25.8623,1955.69 31.5,1970.5C 35.2671,1968.39 39.2671,1966.89 43.5,1966C 50.8333,1965.33 58.1667,1965.33 65.5,1966C 80.2277,1968.74 90.8944,1976.74 97.5,1990C 110.884,1988.63 123.884,1990.3 136.5,1995C 146.11,1999.11 152.777,2005.94 156.5,2015.5C 138.891,2000.27 118.891,1996.1 96.5,2003C 93.7513,2004.12 91.2513,2005.62 89,2007.5C 91.1084,2003.2 94.2751,1999.54 98.5,1996.5C 91.8052,1984.97 81.8052,1978.14 68.5,1976C 53.326,1973.57 39.4927,1976.73 27,1985.5C 27.8087,1983.13 28.9753,1980.8 30.5,1978.5C 25.1734,1964.18 14.8401,1956.85 -0.5,1956.5C -0.5,1953.83 -0.5,1951.17 -0.5,1948.5 Z"/></g>
<g><path style="opacity:1" fill="#e3f2fe" d="M -0.5,1956.5 C 14.8401,1956.85 25.1734,1964.18 30.5,1978.5C 28.9753,1980.8 27.8087,1983.13 27,1985.5C 39.4927,1976.73 53.326,1973.57 68.5,1976C 81.8052,1978.14 91.8052,1984.97 98.5,1996.5C 94.2751,1999.54 91.1084,2003.2 89,2007.5C 91.2513,2005.62 93.7513,2004.12 96.5,2003C 118.891,1996.1 138.891,2000.27 156.5,2015.5C 157.537,2016.93 158.204,2018.6 158.5,2020.5C 152.813,2035.72 141.813,2044.89 125.5,2048C 107.981,2050.38 92.8145,2045.55 80,2033.5C 81.5739,2039.77 85.0739,2044.94 90.5,2049C 81.7717,2062.87 69.105,2069.7 52.5,2069.5C 41.5936,2067.63 32.7602,2062.3 26,2053.5C 25.4092,2052.52 25.7425,2051.85 27,2051.5C 34.601,2049.53 40.9344,2045.53 46,2039.5C 46.6877,2038.67 46.521,2038 45.5,2037.5C 30.6997,2045.1 15.3663,2046.43 -0.5,2041.5C -0.5,2013.17 -0.5,1984.83 -0.5,1956.5 Z"/></g>
<g><path style="opacity:1" fill="#b7d5f0" d="M 158.5,2020.5 C 160.254,2034.15 155.588,2044.99 144.5,2053C 127.406,2062.92 109.406,2065.09 90.5,2059.5C 86.1989,2071.02 77.8656,2077.85 65.5,2080C 47.7298,2084.85 32.2298,2081.02 19,2068.5C 13.3906,2073.55 6.89063,2076.89 -0.5,2078.5C -0.5,2072.83 -0.5,2067.17 -0.5,2061.5C 4.21727,2058.96 8.5506,2055.8 12.5,2052C 7.89405,2050.69 3.56071,2048.86 -0.5,2046.5C -0.5,2044.83 -0.5,2043.17 -0.5,2041.5C 15.3663,2046.43 30.6997,2045.1 45.5,2037.5C 46.521,2038 46.6877,2038.67 46,2039.5C 40.9344,2045.53 34.601,2049.53 27,2051.5C 25.7425,2051.85 25.4092,2052.52 26,2053.5C 32.7602,2062.3 41.5936,2067.63 52.5,2069.5C 69.105,2069.7 81.7717,2062.87 90.5,2049C 85.0739,2044.94 81.5739,2039.77 80,2033.5C 92.8145,2045.55 107.981,2050.38 125.5,2048C 141.813,2044.89 152.813,2035.72 158.5,2020.5 Z"/></g>
<g><path style="opacity:1" fill="#f1f7fb" d="M 1531.5,2075.5 C 1537.14,2078.98 1541.64,2083.64 1545,2089.5C 1546.66,2098.68 1543.16,2105.18 1534.5,2109C 1539.38,2110.35 1543.55,2112.85 1547,2116.5C 1549.86,2121.92 1548.69,2126.09 1543.5,2129C 1537.54,2128.16 1532.87,2130.16 1529.5,2135C 1525.29,2137.65 1520.96,2137.98 1516.5,2136C 1512.99,2133.66 1509.99,2130.83 1507.5,2127.5C 1497.55,2137.54 1485.55,2141.7 1471.5,2140C 1464.04,2138.19 1457.87,2134.36 1453,2128.5C 1442.54,2134.23 1432.37,2133.73 1422.5,2127C 1418.58,2123.58 1415.24,2119.75 1412.5,2115.5C 1402.24,2127.09 1394.07,2125.76 1388,2111.5C 1360.82,2144.43 1328.65,2150.27 1291.5,2129C 1285.17,2128.67 1278.83,2128.33 1272.5,2128C 1264.55,2126.7 1258.21,2122.86 1253.5,2116.5C 1254.2,2114.28 1255.54,2112.45 1257.5,2111C 1263.28,2108.61 1269.28,2107.94 1275.5,2109C 1278.15,2110.11 1280.82,2110.78 1283.5,2111C 1280.74,2098.17 1284.74,2087.83 1295.5,2080C 1319.94,2067.95 1339.11,2073.78 1353,2097.5C 1355.46,2094.04 1358.3,2090.87 1361.5,2088C 1373.8,2080.52 1385.97,2080.69 1398,2088.5C 1398.35,2085.42 1399.01,2082.42 1400,2079.5C 1407.84,2070.32 1415.84,2070.32 1424,2079.5C 1429.02,2074.67 1434.36,2074.33 1440,2078.5C 1442.36,2062.58 1450.86,2051.42 1465.5,2045C 1482.34,2041.84 1494.18,2048 1501,2063.5C 1506.47,2058.62 1512.64,2057.46 1519.5,2060C 1526.5,2062.84 1530.5,2068 1531.5,2075.5 Z"/></g>
<g><path style="opacity:1" fill="#e1f1fe" d="M -0.5,2046.5 C 3.56071,2048.86 7.89405,2050.69 12.5,2052C 8.5506,2055.8 4.21727,2058.96 -0.5,2061.5C -0.5,2056.5 -0.5,2051.5 -0.5,2046.5 Z"/></g>
<g><path style="opacity:1" fill="#cfe2f0" d="M 1531.5,2075.5 C 1554.58,2073.9 1563.58,2084.24 1558.5,2106.5C 1565.42,2108.31 1572.09,2110.81 1578.5,2114C 1582.29,2117.59 1584.95,2121.75 1586.5,2126.5C 1586.5,2128.5 1586.5,2130.5 1586.5,2132.5C 1585.07,2136.5 1582.74,2140 1579.5,2143C 1568.17,2149.81 1556.5,2150.31 1544.5,2144.5C 1543.55,2146.91 1542.21,2149.07 1540.5,2151C 1529.85,2156.98 1520.69,2155.15 1513,2145.5C 1512.13,2149.98 1510.8,2154.32 1509,2158.5C 1494.15,2177.6 1476.65,2180.44 1456.5,2167C 1449.84,2167.12 1443.17,2167.12 1436.5,2167C 1423.21,2165.18 1412.55,2159.01 1404.5,2148.5C 1392.67,2154.82 1384.5,2151.82 1380,2139.5C 1375.14,2145.02 1369.64,2149.85 1363.5,2154C 1334.9,2167.78 1309.57,2163.44 1287.5,2141C 1274.21,2140.25 1263.05,2135.08 1254,2125.5C 1252.47,2122.41 1252.3,2119.41 1253.5,2116.5C 1258.21,2122.86 1264.55,2126.7 1272.5,2128C 1278.83,2128.33 1285.17,2128.67 1291.5,2129C 1328.65,2150.27 1360.82,2144.43 1388,2111.5C 1394.07,2125.76 1402.24,2127.09 1412.5,2115.5C 1415.24,2119.75 1418.58,2123.58 1422.5,2127C 1432.37,2133.73 1442.54,2134.23 1453,2128.5C 1457.87,2134.36 1464.04,2138.19 1471.5,2140C 1485.55,2141.7 1497.55,2137.54 1507.5,2127.5C 1509.99,2130.83 1512.99,2133.66 1516.5,2136C 1520.96,2137.98 1525.29,2137.65 1529.5,2135C 1532.87,2130.16 1537.54,2128.16 1543.5,2129C 1548.69,2126.09 1549.86,2121.92 1547,2116.5C 1543.55,2112.85 1539.38,2110.35 1534.5,2109C 1543.16,2105.18 1546.66,2098.68 1545,2089.5C 1541.64,2083.64 1537.14,2078.98 1531.5,2075.5 Z"/></g>
</svg>
