<?xml version="1.0" encoding="UTF-8"?>
<!DOCTYPE svg PUBLIC "-//W3C//DTD SVG 1.1//EN" "http://www.w3.org/Graphics/SVG/1.1/DTD/svg11.dtd">
<svg xmlns="http://www.w3.org/2000/svg" version="1.1" width="500px" height="500px" style="shape-rendering:geometricPrecision; text-rendering:geometricPrecision; image-rendering:optimizeQuality; fill-rule:evenodd; clip-rule:evenodd" xmlns:xlink="http://www.w3.org/1999/xlink">
<g><path style="opacity:1" fill="#ece277" d="M 239.5,138.5 C 238.5,138.5 237.5,138.5 236.5,138.5C 236.541,134.415 234.875,131.248 231.5,129C 228.808,128.57 226.141,128.737 223.5,129.5C 223.795,131.735 223.461,133.735 222.5,135.5C 218.197,129.228 213.364,128.895 208,134.5C 206.414,140.58 208.747,143.913 215,144.5C 217.282,143.71 219.448,142.71 221.5,141.5C 218.059,145.881 213.726,146.714 208.5,144C 206.679,141.544 206.012,138.711 206.5,135.5C 208.074,131.991 207.074,130.991 203.5,132.5C 205.431,129.098 208.431,126.931 212.5,126C 220.18,124.737 227.513,125.737 234.5,129C 236.831,131.83 238.498,134.997 239.5,138.5 Z"/></g>
<g><path style="opacity:1" fill="#f5eeb2" d="M 222.5,135.5 C 222.167,137.5 221.833,139.5 221.5,141.5C 219.448,142.71 217.282,143.71 215,144.5C 208.747,143.913 206.414,140.58 208,134.5C 213.364,128.895 218.197,129.228 222.5,135.5 Z"/></g>
<g><path style="opacity:1" fill="#fda460" d="M 232.5,139.5 C 229.275,140.237 225.941,140.903 222.5,141.5C 225.337,139.598 228.671,138.931 232.5,139.5 Z"/></g>
<g><path style="opacity:1" fill="#d34b22" d="M 232.5,139.5 C 233.5,139.5 234.5,139.5 235.5,139.5C 235.53,140.497 235.03,141.164 234,141.5C 231.654,141.99 229.487,142.657 227.5,143.5C 227.167,144.167 226.833,144.833 226.5,145.5C 225.833,145.5 225.5,145.833 225.5,146.5C 222.916,145.952 221.916,144.285 222.5,141.5C 225.941,140.903 229.275,140.237 232.5,139.5 Z"/></g>
<g><path style="opacity:1" fill="#da584a" d="M 236.5,138.5 C 237.5,138.5 238.5,138.5 239.5,138.5C 239.5,139.167 239.833,139.5 240.5,139.5C 240.5,140.833 240.5,142.167 240.5,143.5C 236.167,143.5 231.833,143.5 227.5,143.5C 229.487,142.657 231.654,141.99 234,141.5C 235.03,141.164 235.53,140.497 235.5,139.5C 235.5,138.833 235.833,138.5 236.5,138.5 Z"/></g>
<g><path style="opacity:1" fill="#b06460" d="M 240.5,139.5 C 241.479,140.765 242.479,142.099 243.5,143.5C 243.376,144.107 243.043,144.44 242.5,144.5C 241.833,144.5 241.167,144.5 240.5,144.5C 235.77,144.283 231.103,144.617 226.5,145.5C 226.833,144.833 227.167,144.167 227.5,143.5C 231.833,143.5 236.167,143.5 240.5,143.5C 240.5,142.167 240.5,140.833 240.5,139.5 Z"/></g>
<g><path style="opacity:1" fill="#e5db6c" d="M 203.5,132.5 C 202.247,139.813 202.247,147.146 203.5,154.5C 201.086,150.979 200.086,146.979 200.5,142.5C 200.667,140.167 200.833,137.833 201,135.5C 201.377,134.058 202.21,133.058 203.5,132.5 Z"/></g>
<g><path style="opacity:1" fill="#f1df61" d="M 236.5,138.5 C 235.833,138.5 235.5,138.833 235.5,139.5C 234.5,139.5 233.5,139.5 232.5,139.5C 228.671,138.931 225.337,139.598 222.5,141.5C 221.916,144.285 222.916,145.952 225.5,146.5C 225.5,146.833 225.5,147.167 225.5,147.5C 223.801,147.34 222.134,147.506 220.5,148C 218.957,149.714 217.29,151.214 215.5,152.5C 214.446,152.32 213.446,151.987 212.5,151.5C 210.833,149.167 208.833,147.167 206.5,145.5C 205.194,142.02 205.194,138.687 206.5,135.5C 206.012,138.711 206.679,141.544 208.5,144C 213.726,146.714 218.059,145.881 221.5,141.5C 221.833,139.5 222.167,137.5 222.5,135.5C 223.461,133.735 223.795,131.735 223.5,129.5C 226.141,128.737 228.808,128.57 231.5,129C 234.875,131.248 236.541,134.415 236.5,138.5 Z"/></g>
<g><path style="opacity:1" fill="#6c665c" d="M 240.5,144.5 C 240.631,145.239 240.464,145.906 240,146.5C 238.951,145.483 237.784,145.316 236.5,146C 237.768,148.163 237.768,150.33 236.5,152.5C 233.721,152.721 231.054,152.388 228.5,151.5C 227.833,151.167 227.167,150.833 226.5,150.5C 226.443,149.391 226.11,148.391 225.5,147.5C 225.5,147.167 225.5,146.833 225.5,146.5C 225.5,145.833 225.833,145.5 226.5,145.5C 231.103,144.617 235.77,144.283 240.5,144.5 Z"/></g>
<g><path style="opacity:1" fill="#8d8c8a" d="M 240.5,144.5 C 241.167,144.5 241.833,144.5 242.5,144.5C 241.772,147.079 241.272,149.746 241,152.5C 240.617,153.056 240.117,153.389 239.5,153.5C 238.609,152.89 237.609,152.557 236.5,152.5C 237.768,150.33 237.768,148.163 236.5,146C 237.784,145.316 238.951,145.483 240,146.5C 240.464,145.906 240.631,145.239 240.5,144.5 Z"/></g>
<g><path style="opacity:1" fill="#e2d331" d="M 206.5,135.5 C 205.194,138.687 205.194,142.02 206.5,145.5C 208.833,147.167 210.833,149.167 212.5,151.5C 213.446,151.987 214.446,152.32 215.5,152.5C 217.29,151.214 218.957,149.714 220.5,148C 222.134,147.506 223.801,147.34 225.5,147.5C 226.11,148.391 226.443,149.391 226.5,150.5C 227.192,154.721 226.192,158.387 223.5,161.5C 219.182,162.54 214.849,162.54 210.5,161.5C 207.964,160.963 205.964,159.63 204.5,157.5C 203.596,156.791 203.263,155.791 203.5,154.5C 202.247,147.146 202.247,139.813 203.5,132.5C 207.074,130.991 208.074,131.991 206.5,135.5 Z"/></g>
<g><path style="opacity:1" fill="#e7b79e" d="M 228.5,151.5 C 231.054,152.388 233.721,152.721 236.5,152.5C 237.609,152.557 238.609,152.89 239.5,153.5C 236.928,158.428 235.261,163.762 234.5,169.5C 233.833,169.833 233.167,170.167 232.5,170.5C 230.057,168.945 227.39,168.278 224.5,168.5C 224.5,169.5 224.5,170.5 224.5,171.5C 220.116,171.476 216.782,169.643 214.5,166C 212.754,165.529 211.087,164.862 209.5,164C 210.056,163.617 210.389,163.117 210.5,162.5C 215.895,163.458 220.895,164.958 225.5,167C 224.572,166.612 223.905,165.945 223.5,165C 226.84,161.151 228.506,156.651 228.5,151.5 Z"/></g>
<g><path style="opacity:1" fill="#795c23" d="M 226.5,150.5 C 227.167,150.833 227.833,151.167 228.5,151.5C 228.506,156.651 226.84,161.151 223.5,165C 223.905,165.945 224.572,166.612 225.5,167C 220.895,164.958 215.895,163.458 210.5,162.5C 210.5,162.167 210.5,161.833 210.5,161.5C 214.849,162.54 219.182,162.54 223.5,161.5C 226.192,158.387 227.192,154.721 226.5,150.5 Z"/></g>
<g><path style="opacity:0.529" fill="#f4ec8c" d="M 291.5,175.5 C 290.21,174.942 289.377,173.942 289,172.5C 288.617,173.056 288.117,173.389 287.5,173.5C 287.415,172.005 288.081,171.005 289.5,170.5C 290.562,172.022 291.229,173.688 291.5,175.5 Z"/></g>
<g><path style="opacity:1" fill="#eee02d" d="M 291.5,175.5 C 291.5,175.833 291.5,176.167 291.5,176.5C 291.167,179.833 290.833,183.167 290.5,186.5C 289.167,186.5 287.833,186.5 286.5,186.5C 286.505,182.466 286.838,178.466 287.5,174.5C 287.5,174.167 287.5,173.833 287.5,173.5C 288.117,173.389 288.617,173.056 289,172.5C 289.377,173.942 290.21,174.942 291.5,175.5 Z"/></g>
<g><path style="opacity:1" fill="#a7c5bb" d="M 200.5,189.5 C 199.903,189.735 199.57,190.235 199.5,191C 203.415,200.876 207.248,210.709 211,220.5C 211.414,220.957 211.914,221.291 212.5,221.5C 213.495,215.872 213.829,210.206 213.5,204.5C 216.776,205.799 220.11,207.132 223.5,208.5C 224.993,209.141 225.993,210.141 226.5,211.5C 225.876,211.917 225.543,212.584 225.5,213.5C 227.609,220.743 228.942,228.076 229.5,235.5C 223.611,236.277 218.278,238.444 213.5,242C 207.419,242.473 201.419,241.973 195.5,240.5C 191.86,240.023 188.86,241.023 186.5,243.5C 187.251,225.183 187.751,206.85 188,188.5C 188.115,184.386 189.282,180.719 191.5,177.5C 195.323,174.943 195.157,172.943 191,171.5C 190.333,170.167 190.333,168.833 191,167.5C 193.667,166.167 195.667,164.167 197,161.5C 197.093,164.007 197.926,166.174 199.5,168C 202.833,168.333 206.167,168.667 209.5,169C 214.545,170.595 219.212,172.761 223.5,175.5C 223.335,179.182 223.501,182.848 224,186.5C 224.5,187 225,187.5 225.5,188C 221.565,187.746 219.065,185.58 218,181.5C 214.707,177.857 210.707,175.524 206,174.5C 202.94,174.225 200.94,175.558 200,178.5C 198.028,182.273 198.195,185.94 200.5,189.5 Z"/></g>
<g><path style="opacity:1" fill="#a49f92" d="M 277.5,182.5 C 276.995,185.521 276.328,188.521 275.5,191.5C 275.253,192.713 274.586,193.38 273.5,193.5C 273.335,189.818 273.501,186.152 274,182.5C 275.292,181.209 276.458,181.209 277.5,182.5 Z"/></g>
<g><path style="opacity:1" fill="#efe764" d="M 287.5,174.5 C 286.838,178.466 286.505,182.466 286.5,186.5C 287.833,186.5 289.167,186.5 290.5,186.5C 290.833,183.167 291.167,179.833 291.5,176.5C 292.404,178.638 293.071,180.971 293.5,183.5C 293.332,185.171 292.665,186.504 291.5,187.5C 289.952,187.821 289.285,188.821 289.5,190.5C 288.167,190.5 286.833,190.5 285.5,190.5C 285.334,186.154 285.501,181.821 286,177.5C 286.232,176.263 286.732,175.263 287.5,174.5 Z"/></g>
<g><path style="opacity:1" fill="#c9c686" d="M 278.5,181.5 C 279.434,182.568 279.768,183.901 279.5,185.5C 278.883,185.611 278.383,185.944 278,186.5C 277.26,189.176 276.927,191.842 277,194.5C 277.383,193.944 277.883,193.611 278.5,193.5C 278.5,194.167 278.5,194.833 278.5,195.5C 277.07,195.421 275.736,195.754 274.5,196.5C 273.081,195.995 272.415,194.995 272.5,193.5C 272.833,193.5 273.167,193.5 273.5,193.5C 274.586,193.38 275.253,192.713 275.5,191.5C 276.328,188.521 276.995,185.521 277.5,182.5C 278.167,182.5 278.5,182.167 278.5,181.5 Z"/></g>
<g><path style="opacity:1" fill="#b1cec2" d="M 204.5,157.5 C 205.964,159.63 207.964,160.963 210.5,161.5C 210.5,161.833 210.5,162.167 210.5,162.5C 210.389,163.117 210.056,163.617 209.5,164C 211.087,164.862 212.754,165.529 214.5,166C 216.782,169.643 220.116,171.476 224.5,171.5C 224.749,177.07 225.749,182.737 227.5,188.5C 232.748,191.623 238.082,194.456 243.5,197C 245.341,199.517 247.674,201.517 250.5,203C 255.681,204.545 260.681,206.545 265.5,209C 266.71,210.039 267.71,211.206 268.5,212.5C 265.35,215.272 264.35,218.605 265.5,222.5C 265.158,223.338 264.492,223.672 263.5,223.5C 263.5,221.833 263.5,220.167 263.5,218.5C 254.385,216.962 245.719,214.128 237.5,210C 229.961,206.941 223.294,202.608 217.5,197C 210.938,196.321 205.271,193.821 200.5,189.5C 198.195,185.94 198.028,182.273 200,178.5C 200.94,175.558 202.94,174.225 206,174.5C 210.707,175.524 214.707,177.857 218,181.5C 219.065,185.58 221.565,187.746 225.5,188C 225,187.5 224.5,187 224,186.5C 223.501,182.848 223.335,179.182 223.5,175.5C 219.212,172.761 214.545,170.595 209.5,169C 206.167,168.667 202.833,168.333 199.5,168C 197.926,166.174 197.093,164.007 197,161.5C 195.667,164.167 193.667,166.167 191,167.5C 190.333,168.833 190.333,170.167 191,171.5C 195.157,172.943 195.323,174.943 191.5,177.5C 192.785,175.194 192.118,173.361 189.5,172C 187.608,171.027 185.608,170.36 183.5,170C 182.483,168.951 182.316,167.784 183,166.5C 187.233,163.271 191.733,160.438 196.5,158C 199.257,157.218 201.757,157.718 204,159.5C 204.464,158.906 204.631,158.239 204.5,157.5 Z"/></g>
<g><path style="opacity:1" fill="#dddb6a" d="M 279.5,185.5 C 279.5,187.833 279.5,190.167 279.5,192.5C 278.833,192.5 278.5,192.833 278.5,193.5C 277.883,193.611 277.383,193.944 277,194.5C 276.927,191.842 277.26,189.176 278,186.5C 278.383,185.944 278.883,185.611 279.5,185.5 Z"/></g>
<g><path style="opacity:0.881" fill="#474541" d="M 291.5,187.5 C 291.196,196.584 291.529,205.584 292.5,214.5C 292.5,214.833 292.5,215.167 292.5,215.5C 291.833,215.833 291.167,216.167 290.5,216.5C 289.833,216.5 289.167,216.5 288.5,216.5C 289.411,207.874 289.745,199.208 289.5,190.5C 289.285,188.821 289.952,187.821 291.5,187.5 Z"/></g>
<g><path style="opacity:0.835" fill="#cdcaad" d="M 278.5,181.5 C 278.5,182.167 278.167,182.5 277.5,182.5C 276.458,181.209 275.292,181.209 274,182.5C 273.501,186.152 273.335,189.818 273.5,193.5C 273.167,193.5 272.833,193.5 272.5,193.5C 271.202,189.592 271.368,185.592 273,181.5C 274.969,178.876 276.802,178.876 278.5,181.5 Z"/></g>
<g><path style="opacity:1" fill="#9bb7ae" d="M 200.5,189.5 C 205.271,193.821 210.938,196.321 217.5,197C 223.294,202.608 229.961,206.941 237.5,210C 245.719,214.128 254.385,216.962 263.5,218.5C 263.5,220.167 263.5,221.833 263.5,223.5C 261.932,224.473 260.265,224.64 258.5,224C 251.526,221.823 244.86,218.823 238.5,215C 234.415,214.019 230.415,212.852 226.5,211.5C 225.993,210.141 224.993,209.141 223.5,208.5C 220.11,207.132 216.776,205.799 213.5,204.5C 213.829,210.206 213.495,215.872 212.5,221.5C 211.914,221.291 211.414,220.957 211,220.5C 207.248,210.709 203.415,200.876 199.5,191C 199.57,190.235 199.903,189.735 200.5,189.5 Z"/></g>
<g><path style="opacity:0.765" fill="#6d6d69" d="M 279.5,192.5 C 280.962,198.022 282.296,203.689 283.5,209.5C 282.732,208.737 282.232,207.737 282,206.5C 281.536,207.094 281.369,207.761 281.5,208.5C 279.74,204.453 278.74,200.12 278.5,195.5C 278.5,194.833 278.5,194.167 278.5,193.5C 278.5,192.833 278.833,192.5 279.5,192.5 Z"/></g>
<g><path style="opacity:1" fill="#dcb5a3" d="M 268.5,212.5 C 272.42,212.935 276.087,213.935 279.5,215.5C 279.062,215.435 278.728,215.601 278.5,216C 282.435,218.988 282.102,221.488 277.5,223.5C 273.522,223.156 269.522,222.823 265.5,222.5C 264.35,218.605 265.35,215.272 268.5,212.5 Z"/></g>
<g><path style="opacity:0.6" fill="#949291" d="M 285.5,214.5 C 286.5,215.167 287.5,215.833 288.5,216.5C 289.167,216.5 289.833,216.5 290.5,216.5C 290.167,217.5 289.5,218.167 288.5,218.5C 286.771,217.764 285.771,216.43 285.5,214.5 Z"/></g>
<g><path style="opacity:1" fill="#bdb767" d="M 292.5,215.5 C 292.5,215.833 292.5,216.167 292.5,216.5C 291.89,217.391 291.557,218.391 291.5,219.5C 290.391,219.557 289.391,219.89 288.5,220.5C 288.5,219.833 288.5,219.167 288.5,218.5C 289.5,218.167 290.167,217.5 290.5,216.5C 291.167,216.167 291.833,215.833 292.5,215.5 Z"/></g>
<g><path style="opacity:1" fill="#3a2a1e" d="M 272.5,217.5 C 274.346,217.222 275.68,217.889 276.5,219.5C 275.68,221.111 274.346,221.778 272.5,221.5C 272.5,220.167 272.5,218.833 272.5,217.5 Z"/></g>
<g><path style="opacity:1" fill="#c7c6bd" d="M 292.5,215.5 C 292.5,215.167 292.5,214.833 292.5,214.5C 298.425,214.192 304.259,214.525 310,215.5C 313.48,222.132 313.313,228.632 309.5,235C 307.803,235.384 306.137,235.218 304.5,234.5C 305.636,232.954 306.302,231.121 306.5,229C 306.163,225.477 305.663,221.977 305,218.5C 304.617,217.944 304.117,217.611 303.5,217.5C 300.316,215.586 296.649,214.92 292.5,215.5 Z"/></g>
<g><path style="opacity:1" fill="#373630" d="M 283.5,209.5 C 284.441,211.05 285.107,212.716 285.5,214.5C 285.771,216.43 286.771,217.764 288.5,218.5C 288.5,219.167 288.5,219.833 288.5,220.5C 288.443,221.609 288.11,222.609 287.5,223.5C 284.167,223.5 280.833,223.5 277.5,223.5C 282.102,221.488 282.435,218.988 278.5,216C 278.728,215.601 279.062,215.435 279.5,215.5C 281.344,213.721 282.01,211.388 281.5,208.5C 281.369,207.761 281.536,207.094 282,206.5C 282.232,207.737 282.732,208.737 283.5,209.5 Z"/></g>
<g><path style="opacity:1" fill="#f2e91f" d="M 292.5,216.5 C 295.5,216.5 298.5,216.5 301.5,216.5C 298.773,222.927 296.106,229.427 293.5,236C 291.109,237.035 288.776,237.202 286.5,236.5C 284.736,233.785 283.736,230.785 283.5,227.5C 285.288,227.785 286.955,227.452 288.5,226.5C 289.054,223.913 290.054,221.58 291.5,219.5C 291.557,218.391 291.89,217.391 292.5,216.5 Z"/></g>
<g><path style="opacity:1" fill="#bebb97" d="M 277.5,223.5 C 280.833,223.5 284.167,223.5 287.5,223.5C 285.5,224.833 283.5,226.167 281.5,227.5C 280.5,225.833 279.167,224.5 277.5,223.5 Z"/></g>
<g><path style="opacity:1" fill="#ddd35d" d="M 303.5,217.5 C 304.117,217.611 304.617,217.944 305,218.5C 305.663,221.977 306.163,225.477 306.5,229C 306.302,231.121 305.636,232.954 304.5,234.5C 303.244,234.461 302.244,234.961 301.5,236C 305.956,238.054 308.623,241.554 309.5,246.5C 307.926,246.063 306.759,245.063 306,243.5C 305.667,243.833 305.333,244.167 305,244.5C 303.92,242.004 302.586,239.67 301,237.5C 300.2,234.428 301.367,232.761 304.5,232.5C 304.587,227.463 304.254,222.463 303.5,217.5 Z"/></g>
<g><path style="opacity:1" fill="#e8da2b" d="M 292.5,216.5 C 292.5,216.167 292.5,215.833 292.5,215.5C 296.649,214.92 300.316,215.586 303.5,217.5C 304.254,222.463 304.587,227.463 304.5,232.5C 301.367,232.761 300.2,234.428 301,237.5C 302.586,239.67 303.92,242.004 305,244.5C 305.333,244.167 305.667,243.833 306,243.5C 306.759,245.063 307.926,246.063 309.5,246.5C 311.341,248.849 312.674,251.515 313.5,254.5C 313.885,258.706 314.885,262.706 316.5,266.5C 316.423,268.299 315.923,269.966 315,271.5C 314.578,269.574 313.411,268.574 311.5,268.5C 311.672,267.508 311.338,266.842 310.5,266.5C 310.245,264.033 309.245,262.033 307.5,260.5C 307.672,259.508 307.338,258.842 306.5,258.5C 304.402,254.636 302.569,250.636 301,246.5C 299.961,245.29 298.794,244.29 297.5,243.5C 297.516,241.516 296.516,240.516 294.5,240.5C 291.885,241.269 289.219,241.603 286.5,241.5C 286.843,239.517 286.176,238.183 284.5,237.5C 282.885,234.377 281.885,231.044 281.5,227.5C 283.5,226.167 285.5,224.833 287.5,223.5C 288.11,222.609 288.443,221.609 288.5,220.5C 289.391,219.89 290.391,219.557 291.5,219.5C 290.054,221.58 289.054,223.913 288.5,226.5C 286.955,227.452 285.288,227.785 283.5,227.5C 283.736,230.785 284.736,233.785 286.5,236.5C 288.776,237.202 291.109,237.035 293.5,236C 296.106,229.427 298.773,222.927 301.5,216.5C 298.5,216.5 295.5,216.5 292.5,216.5 Z"/></g>
<g><path style="opacity:1" fill="#595b5a" d="M 229.5,235.5 C 243.808,242.073 257.308,250.073 270,259.5C 275.189,265.565 275.689,271.898 271.5,278.5C 272.336,273.126 271.836,267.793 270,262.5C 268.551,258.699 266.717,258.533 264.5,262C 265.5,262.333 266.5,262.667 267.5,263C 265.318,271.702 262.652,280.369 259.5,289C 259.57,289.765 259.903,290.265 260.5,290.5C 257.572,294.969 256.239,299.969 256.5,305.5C 265.167,303.52 267.834,306.853 264.5,315.5C 265.094,319.613 266.094,323.613 267.5,327.5C 266.167,327.5 264.833,327.5 263.5,327.5C 262.299,322.163 262.299,316.83 263.5,311.5C 262.929,309.259 261.596,307.592 259.5,306.5C 254.072,311.528 251.739,317.861 252.5,325.5C 247.821,325.666 243.155,325.499 238.5,325C 235.761,323.974 233.428,322.474 231.5,320.5C 231.833,319.167 232.167,317.833 232.5,316.5C 232.5,316.167 232.5,315.833 232.5,315.5C 232.833,315.5 233.167,315.5 233.5,315.5C 234.5,315.5 235.5,315.5 236.5,315.5C 236.39,308.709 237.056,302.042 238.5,295.5C 238.366,293.708 238.699,292.042 239.5,290.5C 239.685,286.756 240.352,283.089 241.5,279.5C 241.457,278.584 241.124,277.917 240.5,277.5C 241.341,275.621 241.675,273.621 241.5,271.5C 239.214,271.405 237.214,270.738 235.5,269.5C 235.082,268.778 234.416,268.278 233.5,268C 230.183,267.502 226.85,267.335 223.5,267.5C 214.071,265.116 204.404,263.282 194.5,262C 190.248,260.583 187.581,257.75 186.5,253.5C 186.5,252.167 186.5,250.833 186.5,249.5C 185.209,249.737 184.209,249.404 183.5,248.5C 184.5,248.5 185.5,248.5 186.5,248.5C 186.5,246.833 186.5,245.167 186.5,243.5C 188.86,241.023 191.86,240.023 195.5,240.5C 201.419,241.973 207.419,242.473 213.5,242C 218.278,238.444 223.611,236.277 229.5,235.5 Z"/></g>
<g><path style="opacity:1" fill="#d7ce91" d="M 284.5,237.5 C 286.176,238.183 286.843,239.517 286.5,241.5C 289.219,241.603 291.885,241.269 294.5,240.5C 296.516,240.516 297.516,241.516 297.5,243.5C 295.389,242.258 293.389,242.258 291.5,243.5C 289.565,244.15 287.565,244.483 285.5,244.5C 285.326,242.139 284.993,239.806 284.5,237.5 Z"/></g>
<g><path style="opacity:0.988" fill="#6f6e6b" d="M 151.5,244.5 C 161.737,245.061 171.737,246.395 181.5,248.5C 178.781,248.397 176.115,248.731 173.5,249.5C 167.486,246.813 161.319,246.146 155,247.5C 154.015,246.186 152.848,245.186 151.5,244.5 Z"/></g>
<g><path style="opacity:1" fill="#474743" d="M 151.5,244.5 C 152.848,245.186 154.015,246.186 155,247.5C 161.319,246.146 167.486,246.813 173.5,249.5C 176.115,248.731 178.781,248.397 181.5,248.5C 182.167,248.5 182.833,248.5 183.5,248.5C 184.209,249.404 185.209,249.737 186.5,249.5C 186.5,250.833 186.5,252.167 186.5,253.5C 177.435,252.752 168.435,251.586 159.5,250C 151.507,249.5 143.507,249.334 135.5,249.5C 135.5,249.167 135.5,248.833 135.5,248.5C 135.511,246.983 136.177,245.816 137.5,245C 139.847,244.564 142.181,244.064 144.5,243.5C 146.782,244.223 149.116,244.557 151.5,244.5 Z"/></g>
<g><path style="opacity:1" fill="#dcd8b0" d="M 297.5,243.5 C 298.794,244.29 299.961,245.29 301,246.5C 302.569,250.636 304.402,254.636 306.5,258.5C 303.89,256.117 301.556,253.45 299.5,250.5C 298.579,248.223 297.913,245.89 297.5,243.5 Z"/></g>
<g><path style="opacity:0.792" fill="#a1a1a1" d="M 135.5,248.5 C 135.5,248.833 135.5,249.167 135.5,249.5C 134.833,250.5 134.167,251.5 133.5,252.5C 133.157,250.775 132.157,250.275 130.5,251C 127.407,254.307 128.074,256.141 132.5,256.5C 130.745,257.24 129.078,257.574 127.5,257.5C 125.74,250.914 128.406,247.914 135.5,248.5 Z"/></g>
<g><path style="opacity:1" fill="#2d2e27" d="M 135.5,249.5 C 143.507,249.334 151.507,249.5 159.5,250C 168.435,251.586 177.435,252.752 186.5,253.5C 187.581,257.75 190.248,260.583 194.5,262C 204.404,263.282 214.071,265.116 223.5,267.5C 220.167,267.5 216.833,267.5 213.5,267.5C 208.678,267.648 204.012,266.981 199.5,265.5C 194.872,264.503 190.205,263.503 185.5,262.5C 184.306,261.223 182.64,260.556 180.5,260.5C 164.79,259.552 149.124,258.219 133.5,256.5C 133.5,255.167 133.5,253.833 133.5,252.5C 134.167,251.5 134.833,250.5 135.5,249.5 Z"/></g>
<g><path style="opacity:1" fill="#807d78" d="M 133.5,252.5 C 133.5,253.833 133.5,255.167 133.5,256.5C 149.124,258.219 164.79,259.552 180.5,260.5C 182.64,260.556 184.306,261.223 185.5,262.5C 179.855,261.866 174.189,261.532 168.5,261.5C 167.167,261.5 165.833,261.5 164.5,261.5C 159.852,260.546 155.019,259.88 150,259.5C 148.293,259.508 146.793,259.842 145.5,260.5C 143.167,260.5 140.833,260.5 138.5,260.5C 135.038,259.518 131.371,259.185 127.5,259.5C 127.5,258.833 127.5,258.167 127.5,257.5C 129.078,257.574 130.745,257.24 132.5,256.5C 132.232,254.901 132.566,253.568 133.5,252.5 Z"/></g>
<g><path style="opacity:0.599" fill="#b4b2ab" d="M 125.5,260.5 C 125.842,259.662 126.508,259.328 127.5,259.5C 131.371,259.185 135.038,259.518 138.5,260.5C 137.448,260.351 136.448,260.517 135.5,261C 137.32,261.2 138.653,262.034 139.5,263.5C 136.296,262.04 132.962,261.54 129.5,262C 128.594,263.699 128.261,265.533 128.5,267.5C 128.167,267.5 127.833,267.5 127.5,267.5C 128.01,264.612 127.344,262.279 125.5,260.5 Z"/></g>
<g><path style="opacity:1" fill="#77683b" d="M 145.5,260.5 C 146.793,259.842 148.293,259.508 150,259.5C 155.019,259.88 159.852,260.546 164.5,261.5C 162.833,261.5 161.167,261.5 159.5,261.5C 154.797,261.563 150.13,261.229 145.5,260.5 Z"/></g>
<g><path style="opacity:1" fill="#7e6f41" d="M 168.5,261.5 C 174.189,261.532 179.855,261.866 185.5,262.5C 185.5,262.833 185.5,263.167 185.5,263.5C 182.167,263.5 178.833,263.5 175.5,263.5C 173.167,262.833 170.833,262.167 168.5,261.5 Z"/></g>
<g><path style="opacity:1" fill="#b29d43" d="M 159.5,261.5 C 161.167,261.5 162.833,261.5 164.5,261.5C 165.833,261.5 167.167,261.5 168.5,261.5C 170.833,262.167 173.167,262.833 175.5,263.5C 169.916,263.745 164.583,263.078 159.5,261.5 Z"/></g>
<g><path style="opacity:1" fill="#4e4f4d" d="M 139.5,263.5 C 139.461,264.583 139.127,265.583 138.5,266.5C 135.527,267.158 132.694,268.158 130,269.5C 128.97,269.164 128.47,268.497 128.5,267.5C 128.261,265.533 128.594,263.699 129.5,262C 132.962,261.54 136.296,262.04 139.5,263.5 Z"/></g>
<g><path style="opacity:1" fill="#ddc52f" d="M 145.5,260.5 C 150.13,261.229 154.797,261.563 159.5,261.5C 164.583,263.078 169.916,263.745 175.5,263.5C 178.833,263.5 182.167,263.5 185.5,263.5C 190.012,264.981 194.678,265.648 199.5,265.5C 204.012,266.981 208.678,267.648 213.5,267.5C 213.5,267.833 213.5,268.167 213.5,268.5C 199.444,268.711 185.444,268.045 171.5,266.5C 163.646,265.78 156.312,267.113 149.5,270.5C 147.274,268.82 145.607,269.153 144.5,271.5C 144.167,271.5 143.833,271.5 143.5,271.5C 142.624,271.631 141.957,271.298 141.5,270.5C 144.206,268.476 145.539,265.81 145.5,262.5C 145.5,261.833 145.5,261.167 145.5,260.5 Z"/></g>
<g><path style="opacity:1" fill="#433c0d" d="M 185.5,263.5 C 185.5,263.167 185.5,262.833 185.5,262.5C 190.205,263.503 194.872,264.503 199.5,265.5C 194.678,265.648 190.012,264.981 185.5,263.5 Z"/></g>
<g><path style="opacity:1" fill="#dfd995" d="M 307.5,260.5 C 309.245,262.033 310.245,264.033 310.5,266.5C 308.025,265.313 307.025,263.313 307.5,260.5 Z"/></g>
<g><path style="opacity:0.306" fill="#efe68d" d="M 315.5,257.5 C 317.855,259.923 318.855,262.923 318.5,266.5C 317.079,263.706 316.079,260.706 315.5,257.5 Z"/></g>
<g><path style="opacity:1" fill="#f2eaad" d="M 125.5,260.5 C 127.344,262.279 128.01,264.612 127.5,267.5C 127.433,268.959 127.766,270.292 128.5,271.5C 122.948,271.089 120.782,268.089 122,262.5C 122.71,261.027 123.876,260.36 125.5,260.5 Z"/></g>
<g><path style="opacity:1" fill="#bdbdbd" d="M 291.5,243.5 C 290.604,246.127 290.77,248.794 292,251.5C 295.395,257.925 298.395,264.591 301,271.5C 301.667,275.833 301.667,280.167 301,284.5C 296.153,299.555 291.153,314.555 286,329.5C 283.155,335.692 280.321,341.692 277.5,347.5C 273.357,344.661 269.023,342.328 264.5,340.5C 265.833,340.5 267.167,340.5 268.5,340.5C 268.5,339.167 268.5,337.833 268.5,336.5C 269.494,334.666 269.494,332.999 268.5,331.5C 268.167,330.167 267.833,328.833 267.5,327.5C 266.094,323.613 265.094,319.613 264.5,315.5C 267.834,306.853 265.167,303.52 256.5,305.5C 256.239,299.969 257.572,294.969 260.5,290.5C 264.601,289.316 267.601,286.983 269.5,283.5C 269.369,284.239 269.536,284.906 270,285.5C 271.214,283.951 272.714,282.785 274.5,282C 280.068,276.268 285.068,270.101 289.5,263.5C 288,259.167 286.5,254.833 285,250.5C 284.211,248.288 284.378,246.288 285.5,244.5C 287.565,244.483 289.565,244.15 291.5,243.5 Z"/></g>
<g><path style="opacity:1" fill="#695f27" d="M 213.5,268.5 C 213.5,268.167 213.5,267.833 213.5,267.5C 216.833,267.5 220.167,267.5 223.5,267.5C 226.85,267.335 230.183,267.502 233.5,268C 234.416,268.278 235.082,268.778 235.5,269.5C 229.536,268.693 223.536,268.36 217.5,268.5C 216.167,268.5 214.833,268.5 213.5,268.5 Z"/></g>
<g><path style="opacity:1" fill="#f6e75a" d="M 213.5,268.5 C 214.833,268.5 216.167,268.5 217.5,268.5C 222.934,269.956 228.6,270.79 234.5,271C 235.416,271.278 236.082,271.778 236.5,272.5C 233.397,274.423 230.397,276.59 227.5,279C 222.734,280.037 217.901,280.537 213,280.5C 196.545,278.671 180.045,277.005 163.5,275.5C 159.03,273.413 154.364,273.08 149.5,274.5C 149.5,273.167 149.5,271.833 149.5,270.5C 156.312,267.113 163.646,265.78 171.5,266.5C 185.444,268.045 199.444,268.711 213.5,268.5 Z"/></g>
<g><path style="opacity:1" fill="#d6c753" d="M 217.5,268.5 C 223.536,268.36 229.536,268.693 235.5,269.5C 237.214,270.738 239.214,271.405 241.5,271.5C 241.675,273.621 241.341,275.621 240.5,277.5C 240.167,278.5 239.5,279.167 238.5,279.5C 239.219,277.236 239.552,274.903 239.5,272.5C 238.5,272.5 237.5,272.5 236.5,272.5C 236.082,271.778 235.416,271.278 234.5,271C 228.6,270.79 222.934,269.956 217.5,268.5 Z"/></g>
<g><path style="opacity:1" fill="#e1d8a2" d="M 310.5,266.5 C 311.338,266.842 311.672,267.508 311.5,268.5C 313.522,272.538 314.022,276.871 313,281.5C 312.617,282.056 312.117,282.389 311.5,282.5C 312.014,280.383 312.347,278.216 312.5,276C 312.06,272.752 311.393,269.585 310.5,266.5 Z"/></g>
<g><path style="opacity:1" fill="#d5cb83" d="M 145.5,262.5 C 145.539,265.81 144.206,268.476 141.5,270.5C 141.957,271.298 142.624,271.631 143.5,271.5C 141.623,272.928 140.289,272.428 139.5,270C 140.544,268.826 141.544,267.659 142.5,266.5C 143.857,265.41 144.857,264.076 145.5,262.5 Z"/></g>
<g><path style="opacity:1" fill="#e4cd41" d="M 313.5,254.5 C 314.401,255.29 315.068,256.29 315.5,257.5C 316.079,260.706 317.079,263.706 318.5,266.5C 320.218,268.223 321.551,270.223 322.5,272.5C 322.577,273.75 323.244,274.583 324.5,275C 326.81,275.497 329.143,275.663 331.5,275.5C 329.194,277.139 327.194,279.139 325.5,281.5C 323.423,280.477 321.423,280.81 319.5,282.5C 319.5,281.5 319.5,280.5 319.5,279.5C 318.167,279.5 316.833,279.5 315.5,279.5C 315.5,280.833 315.5,282.167 315.5,283.5C 313.153,284.607 312.82,286.274 314.5,288.5C 312.595,292.244 310.095,295.578 307,298.5C 306.422,301.53 305.255,304.197 303.5,306.5C 305.553,298.341 308.22,290.341 311.5,282.5C 312.117,282.389 312.617,282.056 313,281.5C 314.022,276.871 313.522,272.538 311.5,268.5C 313.411,268.574 314.578,269.574 315,271.5C 315.923,269.966 316.423,268.299 316.5,266.5C 314.885,262.706 313.885,258.706 313.5,254.5 Z"/></g>
<g><path style="opacity:1" fill="#e7e19c" d="M 134.5,277.5 C 133.5,277.5 132.5,277.5 131.5,277.5C 131.5,275.5 131.5,273.5 131.5,271.5C 132.265,270.34 133.265,269.34 134.5,268.5C 135.741,271.537 135.741,274.537 134.5,277.5 Z"/></g>
<g><path style="opacity:1" fill="#f0e67c" d="M 363.5,277.5 C 357.351,275.244 351.018,273.578 344.5,272.5C 339.932,273.046 335.599,274.046 331.5,275.5C 329.143,275.663 326.81,275.497 324.5,275C 323.244,274.583 322.577,273.75 322.5,272.5C 324.783,273.029 327.117,273.363 329.5,273.5C 340.03,270.352 350.363,270.852 360.5,275C 361.942,275.377 362.942,276.21 363.5,277.5 Z"/></g>
<g><path style="opacity:1" fill="#635c49" d="M 139.5,263.5 C 140.833,264.167 141.833,265.167 142.5,266.5C 141.544,267.659 140.544,268.826 139.5,270C 140.289,272.428 141.623,272.928 143.5,271.5C 143.833,271.5 144.167,271.5 144.5,271.5C 146.509,270 147.842,270.5 148.5,273C 148.13,275.92 146.797,276.754 144.5,275.5C 141.373,275.486 138.707,276.486 136.5,278.5C 135.584,278.457 134.917,278.124 134.5,277.5C 135.741,274.537 135.741,271.537 134.5,268.5C 133.265,269.34 132.265,270.34 131.5,271.5C 130.5,271.5 129.5,271.5 128.5,271.5C 127.766,270.292 127.433,268.959 127.5,267.5C 127.833,267.5 128.167,267.5 128.5,267.5C 128.47,268.497 128.97,269.164 130,269.5C 132.694,268.158 135.527,267.158 138.5,266.5C 139.127,265.583 139.461,264.583 139.5,263.5 Z"/></g>
<g><path style="opacity:1" fill="#78712d" d="M 149.5,270.5 C 149.5,271.833 149.5,273.167 149.5,274.5C 148.952,277.084 147.285,278.084 144.5,277.5C 144.5,276.833 144.5,276.167 144.5,275.5C 146.797,276.754 148.13,275.92 148.5,273C 147.842,270.5 146.509,270 144.5,271.5C 145.607,269.153 147.274,268.82 149.5,270.5 Z"/></g>
<g><path style="opacity:1" fill="#e5db3e" d="M 144.5,275.5 C 144.5,276.167 144.5,276.833 144.5,277.5C 143.85,277.196 143.183,276.863 142.5,276.5C 141.618,277.76 140.618,278.926 139.5,280C 136.377,280.206 133.377,280.873 130.5,282C 127.34,285.881 124.34,289.714 121.5,293.5C 122.742,289.345 124.742,285.678 127.5,282.5C 129.587,281.415 130.92,279.749 131.5,277.5C 132.5,277.5 133.5,277.5 134.5,277.5C 134.917,278.124 135.584,278.457 136.5,278.5C 138.707,276.486 141.373,275.486 144.5,275.5 Z"/></g>
<g><path style="opacity:1" fill="#4a3b10" d="M 319.5,282.5 C 318.432,283.434 317.099,283.768 315.5,283.5C 315.5,282.167 315.5,280.833 315.5,279.5C 316.833,279.5 318.167,279.5 319.5,279.5C 319.5,280.5 319.5,281.5 319.5,282.5 Z"/></g>
<g><path style="opacity:0.831" fill="#efe381" d="M 131.5,277.5 C 130.92,279.749 129.587,281.415 127.5,282.5C 128.08,280.251 129.413,278.585 131.5,277.5 Z"/></g>
<g><path style="opacity:1" fill="#e1cb25" d="M 236.5,272.5 C 237.5,272.5 238.5,272.5 239.5,272.5C 239.552,274.903 239.219,277.236 238.5,279.5C 237.288,280.23 236.288,281.23 235.5,282.5C 234.302,286.512 234.302,290.512 235.5,294.5C 234.624,294.631 233.957,294.298 233.5,293.5C 232.428,291.283 231.761,288.95 231.5,286.5C 232.275,283.037 233.108,279.703 234,276.5C 231.778,280.388 228.612,283.221 224.5,285C 211.995,285.806 199.662,284.639 187.5,281.5C 186.833,281.833 186.167,282.167 185.5,282.5C 189.847,285.848 193.514,289.848 196.5,294.5C 198.545,299.904 200.545,305.237 202.5,310.5C 202.167,310.5 201.833,310.5 201.5,310.5C 198.026,299.201 191.36,290.368 181.5,284C 180.552,283.517 179.552,283.351 178.5,283.5C 179.234,282.292 179.567,280.959 179.5,279.5C 176.484,278.246 173.818,278.579 171.5,280.5C 169.359,279.837 167.025,279.503 164.5,279.5C 160.859,279.315 157.526,279.981 154.5,281.5C 149.815,282.346 145.481,284.013 141.5,286.5C 141.297,284.61 141.963,283.11 143.5,282C 151.073,278.418 159.073,276.752 167.5,277C 165.942,276.79 164.609,276.29 163.5,275.5C 180.045,277.005 196.545,278.671 213,280.5C 217.901,280.537 222.734,280.037 227.5,279C 230.397,276.59 233.397,274.423 236.5,272.5 Z"/></g>
<g><path style="opacity:1" fill="#6d611f" d="M 171.5,280.5 C 171.5,281.833 171.5,283.167 171.5,284.5C 171.167,284.5 170.833,284.5 170.5,284.5C 170.5,283.167 170.5,281.833 170.5,280.5C 165.13,280.392 159.797,280.725 154.5,281.5C 157.526,279.981 160.859,279.315 164.5,279.5C 167.025,279.503 169.359,279.837 171.5,280.5 Z"/></g>
<g><path style="opacity:1" fill="#d4cb75" d="M 363.5,281.5 C 361.025,282.131 358.691,283.131 356.5,284.5C 355.833,284.5 355.167,284.5 354.5,284.5C 350.366,283.515 346.032,283.182 341.5,283.5C 348.62,282.072 355.953,281.406 363.5,281.5 Z"/></g>
<g><path style="opacity:1" fill="#d6d5d3" d="M 297.5,243.5 C 297.913,245.89 298.579,248.223 299.5,250.5C 301.556,253.45 303.89,256.117 306.5,258.5C 307.338,258.842 307.672,259.508 307.5,260.5C 307.025,263.313 308.025,265.313 310.5,266.5C 311.393,269.585 312.06,272.752 312.5,276C 312.347,278.216 312.014,280.383 311.5,282.5C 308.22,290.341 305.553,298.341 303.5,306.5C 301.512,309.161 300.179,312.161 299.5,315.5C 297.138,317.919 296.138,320.919 296.5,324.5C 293.127,330.238 289.961,336.238 287,342.5C 284.39,346.052 281.224,347.718 277.5,347.5C 280.321,341.692 283.155,335.692 286,329.5C 291.153,314.555 296.153,299.555 301,284.5C 301.667,280.167 301.667,275.833 301,271.5C 298.395,264.591 295.395,257.925 292,251.5C 290.77,248.794 290.604,246.127 291.5,243.5C 293.389,242.258 295.389,242.258 297.5,243.5 Z"/></g>
<g><path style="opacity:1" fill="#f2e125" d="M 363.5,277.5 C 364.492,277.328 365.158,277.662 365.5,278.5C 362.402,279.821 358.902,280.488 355,280.5C 351.5,280.333 348,280.167 344.5,280C 343.022,277.961 341.022,277.128 338.5,277.5C 337.372,283.052 333.872,285.718 328,285.5C 326.519,284.529 325.685,283.196 325.5,281.5C 327.194,279.139 329.194,277.139 331.5,275.5C 335.599,274.046 339.932,273.046 344.5,272.5C 351.018,273.578 357.351,275.244 363.5,277.5 Z"/></g>
<g><path style="opacity:1" fill="#443d16" d="M 341.5,283.5 C 346.032,283.182 350.366,283.515 354.5,284.5C 349.821,284.334 345.155,284.501 340.5,285C 337.279,286.278 333.946,287.111 330.5,287.5C 333.915,285.721 337.581,284.387 341.5,283.5 Z"/></g>
<g><path style="opacity:1" fill="#eee272" d="M 178.5,283.5 C 178.5,284.5 178.5,285.5 178.5,286.5C 177.549,287.919 177.216,289.585 177.5,291.5C 175.5,291.5 173.5,291.5 171.5,291.5C 171.5,289.167 171.5,286.833 171.5,284.5C 171.5,283.167 171.5,281.833 171.5,280.5C 173.818,278.579 176.484,278.246 179.5,279.5C 179.567,280.959 179.234,282.292 178.5,283.5 Z"/></g>
<g><path style="opacity:1" fill="#454746" d="M 271.5,278.5 C 271.204,280.403 270.537,282.07 269.5,283.5C 267.601,286.983 264.601,289.316 260.5,290.5C 259.903,290.265 259.57,289.765 259.5,289C 262.652,280.369 265.318,271.702 267.5,263C 266.5,262.667 265.5,262.333 264.5,262C 266.717,258.533 268.551,258.699 270,262.5C 271.836,267.793 272.336,273.126 271.5,278.5 Z"/></g>
<g><path style="opacity:1" fill="#2c2d28" d="M 169.5,287.5 C 169.167,287.5 168.833,287.5 168.5,287.5C 160.369,286.855 153.036,288.855 146.5,293.5C 146.414,292.504 146.748,291.671 147.5,291C 146.833,290.667 146.167,290.333 145.5,290C 147.711,288.359 148.877,286.525 149,284.5C 149.5,284.667 150,284.833 150.5,285C 149.289,285.893 149.289,286.726 150.5,287.5C 151.244,286.009 151.91,284.509 152.5,283C 157.496,282.389 162.496,281.889 167.5,281.5C 167.614,283.718 168.28,285.718 169.5,287.5 Z"/></g>
<g><path style="opacity:1" fill="#efdd1f" d="M 163.5,275.5 C 164.609,276.29 165.942,276.79 167.5,277C 159.073,276.752 151.073,278.418 143.5,282C 141.963,283.11 141.297,284.61 141.5,286.5C 140.127,286.343 138.793,286.51 137.5,287C 133.49,291.355 129.49,295.689 125.5,300C 126.609,301.813 125.942,302.646 123.5,302.5C 123.5,303.5 123.5,304.5 123.5,305.5C 121.833,305.5 120.167,305.5 118.5,305.5C 120.256,301.728 121.256,297.728 121.5,293.5C 124.34,289.714 127.34,285.881 130.5,282C 133.377,280.873 136.377,280.206 139.5,280C 140.618,278.926 141.618,277.76 142.5,276.5C 143.183,276.863 143.85,277.196 144.5,277.5C 147.285,278.084 148.952,277.084 149.5,274.5C 154.364,273.08 159.03,273.413 163.5,275.5 Z"/></g>
<g><path style="opacity:1" fill="#322f20" d="M 170.5,284.5 C 170.737,285.791 170.404,286.791 169.5,287.5C 168.28,285.718 167.614,283.718 167.5,281.5C 162.496,281.889 157.496,282.389 152.5,283C 151.91,284.509 151.244,286.009 150.5,287.5C 149.289,286.726 149.289,285.893 150.5,285C 150,284.833 149.5,284.667 149,284.5C 148.877,286.525 147.711,288.359 145.5,290C 146.167,290.333 146.833,290.667 147.5,291C 146.748,291.671 146.414,292.504 146.5,293.5C 145.167,294.5 143.833,295.5 142.5,296.5C 141.237,289.94 139.571,289.94 137.5,296.5C 136.726,297.711 135.893,297.711 135,296.5C 134.038,299.961 131.872,302.295 128.5,303.5C 131.69,296.974 136.024,291.308 141.5,286.5C 145.481,284.013 149.815,282.346 154.5,281.5C 159.797,280.725 165.13,280.392 170.5,280.5C 170.5,281.833 170.5,283.167 170.5,284.5 Z"/></g>
<g><path style="opacity:1" fill="#eedd23" d="M 235.5,294.5 C 236.301,296.042 236.634,297.708 236.5,299.5C 232.719,300.211 229.719,299.045 227.5,296C 219.223,292.343 210.556,290.509 201.5,290.5C 199.806,297.255 201.472,303.088 206.5,308C 215.058,309.441 223.724,309.941 232.5,309.5C 232.5,310.833 232.5,312.167 232.5,313.5C 223.144,313.054 213.81,312.387 204.5,311.5C 203.508,311.672 202.842,311.338 202.5,310.5C 200.545,305.237 198.545,299.904 196.5,294.5C 193.514,289.848 189.847,285.848 185.5,282.5C 186.167,282.167 186.833,281.833 187.5,281.5C 199.662,284.639 211.995,285.806 224.5,285C 228.612,283.221 231.778,280.388 234,276.5C 233.108,279.703 232.275,283.037 231.5,286.5C 231.761,288.95 232.428,291.283 233.5,293.5C 233.957,294.298 234.624,294.631 235.5,294.5 Z"/></g>
<g><path style="opacity:1" fill="#a29a7a" d="M 170.5,284.5 C 170.833,284.5 171.167,284.5 171.5,284.5C 171.5,286.833 171.5,289.167 171.5,291.5C 173.5,291.5 175.5,291.5 177.5,291.5C 177.216,289.585 177.549,287.919 178.5,286.5C 178.5,287.833 178.5,289.167 178.5,290.5C 178.5,291.5 178.5,292.5 178.5,293.5C 174.44,293.515 170.44,293.015 166.5,292C 167.267,290.53 167.933,289.03 168.5,287.5C 168.833,287.5 169.167,287.5 169.5,287.5C 170.404,286.791 170.737,285.791 170.5,284.5 Z"/></g>
<g><path style="opacity:1" fill="#363222" d="M 178.5,283.5 C 179.552,283.351 180.552,283.517 181.5,284C 191.36,290.368 198.026,299.201 201.5,310.5C 201.5,310.833 201.5,311.167 201.5,311.5C 200.5,311.5 199.5,311.5 198.5,311.5C 195.269,301.268 188.603,294.268 178.5,290.5C 178.5,289.167 178.5,287.833 178.5,286.5C 178.5,285.5 178.5,284.5 178.5,283.5 Z"/></g>
<g><path style="opacity:1" fill="#f4df36" d="M 365.5,278.5 C 367.867,280.54 367.2,281.54 363.5,281.5C 355.953,281.406 348.62,282.072 341.5,283.5C 337.581,284.387 333.915,285.721 330.5,287.5C 328.5,287.5 327.5,288.5 327.5,290.5C 328.506,296.175 330.839,301.175 334.5,305.5C 334.833,306.167 335.167,306.833 335.5,307.5C 335.338,309.527 335.505,311.527 336,313.5C 337.626,314.955 338.792,316.622 339.5,318.5C 340.36,322.434 340.693,326.434 340.5,330.5C 338.801,330.66 337.134,330.494 335.5,330C 336.993,328.844 336.826,328.01 335,327.5C 333.535,328.33 332.035,328.496 330.5,328C 331.38,326.644 331.714,325.144 331.5,323.5C 330.167,323.5 328.833,323.5 327.5,323.5C 328.368,319.192 328.534,314.859 328,310.5C 327.8,308.68 326.966,307.347 325.5,306.5C 325.167,306.5 324.833,306.5 324.5,306.5C 323.833,306.5 323.167,306.5 322.5,306.5C 322.5,306.167 322.5,305.833 322.5,305.5C 323.043,305.44 323.376,305.107 323.5,304.5C 323.086,302.081 322.086,300.081 320.5,298.5C 320.144,296.81 319.144,295.81 317.5,295.5C 316.344,293.176 315.344,290.843 314.5,288.5C 312.82,286.274 313.153,284.607 315.5,283.5C 317.099,283.768 318.432,283.434 319.5,282.5C 321.423,280.81 323.423,280.477 325.5,281.5C 325.685,283.196 326.519,284.529 328,285.5C 333.872,285.718 337.372,283.052 338.5,277.5C 341.022,277.128 343.022,277.961 344.5,280C 348,280.167 351.5,280.333 355,280.5C 358.902,280.488 362.402,279.821 365.5,278.5 Z"/></g>
<g><path style="opacity:1" fill="#e8dc72" d="M 327.5,290.5 C 328.401,291.29 329.068,292.29 329.5,293.5C 330.301,295.999 331.634,297.999 333.5,299.5C 333.833,300.833 334.167,302.167 334.5,303.5C 334.5,304.167 334.5,304.833 334.5,305.5C 330.839,301.175 328.506,296.175 327.5,290.5 Z"/></g>
<g><path style="opacity:1" fill="#575755" d="M 357.5,284.5 C 369.336,288.335 377.669,296.002 382.5,307.5C 381.504,307.586 380.671,307.252 380,306.5C 376.715,301.546 373.048,296.88 369,292.5C 368.667,292.833 368.333,293.167 368,293.5C 366.266,292.751 364.433,292.251 362.5,292C 363.308,291.692 363.975,291.192 364.5,290.5C 361.487,289.144 359.153,287.144 357.5,284.5 Z"/></g>
<g><path style="opacity:1" fill="#f1e359" d="M 238.5,279.5 C 237.84,281.816 237.173,284.149 236.5,286.5C 236.561,288.653 237.561,289.986 239.5,290.5C 238.699,292.042 238.366,293.708 238.5,295.5C 236.225,301.932 234.559,308.598 233.5,315.5C 233.167,315.5 232.833,315.5 232.5,315.5C 227.518,314.947 222.518,314.613 217.5,314.5C 213.065,313.956 208.732,312.956 204.5,311.5C 213.81,312.387 223.144,313.054 232.5,313.5C 232.5,312.167 232.5,310.833 232.5,309.5C 223.724,309.941 215.058,309.441 206.5,308C 201.472,303.088 199.806,297.255 201.5,290.5C 210.556,290.509 219.223,292.343 227.5,296C 229.719,299.045 232.719,300.211 236.5,299.5C 236.634,297.708 236.301,296.042 235.5,294.5C 234.302,290.512 234.302,286.512 235.5,282.5C 236.288,281.23 237.288,280.23 238.5,279.5 Z"/></g>
<g><path style="opacity:1" fill="#3a371b" d="M 317.5,295.5 C 319.144,295.81 320.144,296.81 320.5,298.5C 320.5,299.167 320.5,299.833 320.5,300.5C 316.228,304.707 313.228,309.707 311.5,315.5C 311.167,315.5 310.833,315.5 310.5,315.5C 310.844,308.133 313.178,301.467 317.5,295.5 Z"/></g>
<g><path style="opacity:0.867" fill="#b4ae69" d="M 320.5,298.5 C 322.086,300.081 323.086,302.081 323.5,304.5C 323.376,305.107 323.043,305.44 322.5,305.5C 321.976,303.694 321.309,302.028 320.5,300.5C 320.5,299.833 320.5,299.167 320.5,298.5 Z"/></g>
<g><path style="opacity:1" fill="#dfcd51" d="M 141.5,286.5 C 136.024,291.308 131.69,296.974 128.5,303.5C 127.833,304.167 127.167,304.833 126.5,305.5C 123.61,306.776 120.61,307.776 117.5,308.5C 115.681,308.658 114.348,307.991 113.5,306.5C 116.943,302.608 119.61,298.274 121.5,293.5C 121.256,297.728 120.256,301.728 118.5,305.5C 120.167,305.5 121.833,305.5 123.5,305.5C 123.5,304.5 123.5,303.5 123.5,302.5C 125.942,302.646 126.609,301.813 125.5,300C 129.49,295.689 133.49,291.355 137.5,287C 138.793,286.51 140.127,286.343 141.5,286.5 Z"/></g>
<g><path style="opacity:1" fill="#908e89" d="M 320.5,300.5 C 321.309,302.028 321.976,303.694 322.5,305.5C 322.5,305.833 322.5,306.167 322.5,306.5C 322.068,307.71 321.401,308.71 320.5,309.5C 319.957,309.56 319.624,309.893 319.5,310.5C 321.396,311.466 323.396,311.799 325.5,311.5C 325.5,312.167 325.5,312.833 325.5,313.5C 315.031,314.632 315.031,315.299 325.5,315.5C 325.5,316.167 325.833,316.5 326.5,316.5C 326.5,316.833 326.5,317.167 326.5,317.5C 325.167,317.5 323.833,317.5 322.5,317.5C 320.833,317.5 319.167,317.5 317.5,317.5C 316.85,317.804 316.183,318.137 315.5,318.5C 314.431,317.09 313.097,316.09 311.5,315.5C 313.228,309.707 316.228,304.707 320.5,300.5 Z"/></g>
<g><path style="opacity:0.902" fill="#eae093" d="M 324.5,306.5 C 324.833,306.5 325.167,306.5 325.5,306.5C 326.262,308.956 326.929,311.456 327.5,314C 327.472,315.07 327.139,315.903 326.5,316.5C 325.833,316.5 325.5,316.167 325.5,315.5C 326.833,314.833 326.833,314.167 325.5,313.5C 325.5,312.833 325.5,312.167 325.5,311.5C 325.672,310.508 325.338,309.842 324.5,309.5C 324.5,308.5 324.5,307.5 324.5,306.5 Z"/></g>
<g><path style="opacity:0.993" fill="#cecdcc" d="M 178.5,306.5 C 178.873,309.849 180.54,310.849 183.5,309.5C 183.938,310.506 184.604,310.506 185.5,309.5C 186.568,310.434 187.901,310.768 189.5,310.5C 193.21,312.136 197.21,312.802 201.5,312.5C 206.639,314.264 211.972,314.931 217.5,314.5C 222.25,316.031 227.25,316.698 232.5,316.5C 232.167,317.833 231.833,319.167 231.5,320.5C 230.833,320.833 230.167,321.167 229.5,321.5C 211.577,320.514 193.577,320.181 175.5,320.5C 174.833,319.5 174.167,318.5 173.5,317.5C 172.791,316.596 171.791,316.263 170.5,316.5C 170.547,313.432 171.047,310.432 172,307.5C 172.417,308.756 173.25,309.423 174.5,309.5C 175.167,308.833 175.833,308.167 176.5,307.5C 176.369,308.239 176.536,308.906 177,309.5C 177.232,308.263 177.732,307.263 178.5,306.5 Z"/></g>
<g><path style="opacity:0.106" fill="#e4e3e0" d="M 320.5,309.5 C 321.833,310.833 323.167,310.833 324.5,309.5C 325.338,309.842 325.672,310.508 325.5,311.5C 323.396,311.799 321.396,311.466 319.5,310.5C 319.624,309.893 319.957,309.56 320.5,309.5 Z"/></g>
<g><path style="opacity:1" fill="#676045" d="M 238.5,295.5 C 237.056,302.042 236.39,308.709 236.5,315.5C 235.5,315.5 234.5,315.5 233.5,315.5C 234.559,308.598 236.225,301.932 238.5,295.5 Z"/></g>
<g><path style="opacity:1" fill="#efe471" d="M 335.5,307.5 C 337.99,310.626 339.323,314.292 339.5,318.5C 338.792,316.622 337.626,314.955 336,313.5C 335.505,311.527 335.338,309.527 335.5,307.5 Z"/></g>
<g><path style="opacity:1" fill="#d1cf9c" d="M 201.5,310.5 C 201.833,310.5 202.167,310.5 202.5,310.5C 202.842,311.338 203.508,311.672 204.5,311.5C 208.732,312.956 213.065,313.956 217.5,314.5C 211.972,314.931 206.639,314.264 201.5,312.5C 201.5,312.167 201.5,311.833 201.5,311.5C 201.5,311.167 201.5,310.833 201.5,310.5 Z"/></g>
<g><path style="opacity:0.682" fill="#7c7d7a" d="M 126.5,307.5 C 126.435,310.428 125.768,313.095 124.5,315.5C 124.294,312.505 124.96,309.838 126.5,307.5 Z"/></g>
<g><path style="opacity:1" fill="#ded5a9" d="M 217.5,314.5 C 222.518,314.613 227.518,314.947 232.5,315.5C 232.5,315.833 232.5,316.167 232.5,316.5C 227.25,316.698 222.25,316.031 217.5,314.5 Z"/></g>
<g><path style="opacity:1" fill="#cdc970" d="M 167.5,315.5 C 167.674,321.574 168.674,321.907 170.5,316.5C 171.791,316.263 172.791,316.596 173.5,317.5C 172.5,317.5 171.5,317.5 170.5,317.5C 170.5,318.833 170.5,320.167 170.5,321.5C 168.833,321.5 167.167,321.5 165.5,321.5C 165.843,319.517 165.176,318.183 163.5,317.5C 164.183,315.824 165.517,315.157 167.5,315.5 Z"/></g>
<g><path style="opacity:1" fill="#b8b47a" d="M 310.5,315.5 C 310.833,315.5 311.167,315.5 311.5,315.5C 313.097,316.09 314.431,317.09 315.5,318.5C 316.183,318.137 316.85,317.804 317.5,317.5C 317.557,318.609 317.89,319.609 318.5,320.5C 314.87,320.299 312.203,318.632 310.5,315.5 Z"/></g>
<g><path style="opacity:1" fill="#f0e026" d="M 314.5,288.5 C 315.344,290.843 316.344,293.176 317.5,295.5C 313.178,301.467 310.844,308.133 310.5,315.5C 312.203,318.632 314.87,320.299 318.5,320.5C 318.833,320.5 319.167,320.5 319.5,320.5C 319.5,320.833 319.5,321.167 319.5,321.5C 319.611,322.117 319.944,322.617 320.5,323C 319.29,324.039 318.29,325.206 317.5,326.5C 316.508,326.328 315.842,326.662 315.5,327.5C 313.223,328.449 311.223,329.782 309.5,331.5C 308.101,332.89 306.434,333.89 304.5,334.5C 302.5,335.167 300.5,335.833 298.5,336.5C 299.288,330.915 299.788,325.248 300,319.5C 301.359,315.198 302.526,310.864 303.5,306.5C 305.255,304.197 306.422,301.53 307,298.5C 310.095,295.578 312.595,292.244 314.5,288.5 Z"/></g>
<g><path style="opacity:0.384" fill="#f8eea5" d="M 322.5,317.5 C 323.833,317.5 325.167,317.5 326.5,317.5C 326.67,318.822 326.337,319.989 325.5,321C 323.527,321.495 321.527,321.662 319.5,321.5C 319.5,321.167 319.5,320.833 319.5,320.5C 321.75,320.819 323.75,320.319 325.5,319C 324.263,318.768 323.263,318.268 322.5,317.5 Z"/></g>
<g><path style="opacity:1" fill="#cdcac9" d="M 263.5,327.5 C 262.903,328.139 262.07,328.472 261,328.5C 258.064,327.607 255.231,326.607 252.5,325.5C 251.739,317.861 254.072,311.528 259.5,306.5C 261.596,307.592 262.929,309.259 263.5,311.5C 262.299,316.83 262.299,322.163 263.5,327.5 Z"/></g>
<g><path style="opacity:1" fill="#eadd57" d="M 325.5,306.5 C 326.966,307.347 327.8,308.68 328,310.5C 328.534,314.859 328.368,319.192 327.5,323.5C 328.833,323.5 330.167,323.5 331.5,323.5C 331.714,325.144 331.38,326.644 330.5,328C 332.035,328.496 333.535,328.33 335,327.5C 336.826,328.01 336.993,328.844 335.5,330C 337.134,330.494 338.801,330.66 340.5,330.5C 340.693,326.434 340.36,322.434 339.5,318.5C 340.167,318.833 340.833,319.167 341.5,319.5C 344.646,331.077 340.646,334.41 329.5,329.5C 329.167,329.5 328.833,329.5 328.5,329.5C 328.703,327.956 329.37,326.622 330.5,325.5C 330,325.167 329.5,324.833 329,324.5C 328,325.167 327,325.833 326,326.5C 324.908,325.704 323.741,325.037 322.5,324.5C 321.584,324.543 320.917,324.876 320.5,325.5C 319.609,326.11 318.609,326.443 317.5,326.5C 318.29,325.206 319.29,324.039 320.5,323C 319.944,322.617 319.611,322.117 319.5,321.5C 321.527,321.662 323.527,321.495 325.5,321C 326.337,319.989 326.67,318.822 326.5,317.5C 326.5,317.167 326.5,316.833 326.5,316.5C 327.139,315.903 327.472,315.07 327.5,314C 326.929,311.456 326.262,308.956 325.5,306.5 Z"/></g>
<g><path style="opacity:1" fill="#e9da3b" d="M 163.5,317.5 C 165.176,318.183 165.843,319.517 165.5,321.5C 167.167,321.5 168.833,321.5 170.5,321.5C 170.5,320.167 170.5,318.833 170.5,317.5C 171.5,317.5 172.5,317.5 173.5,317.5C 174.167,318.5 174.833,319.5 175.5,320.5C 192.659,321.497 209.992,321.83 227.5,321.5C 227.795,323.735 227.461,325.735 226.5,327.5C 203.5,328.833 180.5,328.833 157.5,327.5C 157.366,325.708 157.699,324.042 158.5,322.5C 160.833,321.5 162.5,319.833 163.5,317.5 Z"/></g>
<g><path style="opacity:1" fill="#c2b20e" d="M 159.5,324.5 C 181.177,324.167 202.844,324.5 224.5,325.5C 213.667,325.833 202.833,326.167 192,326.5C 180.812,326.499 169.979,325.832 159.5,324.5 Z"/></g>
<g><path style="opacity:1" fill="#c0976c" d="M 231.5,320.5 C 233.428,322.474 235.761,323.974 238.5,325C 243.155,325.499 247.821,325.666 252.5,325.5C 255.231,326.607 258.064,327.607 261,328.5C 262.07,328.472 262.903,328.139 263.5,327.5C 264.833,327.5 266.167,327.5 267.5,327.5C 267.833,328.833 268.167,330.167 268.5,331.5C 262.55,334.252 256.216,335.085 249.5,334C 243.43,332.878 237.43,331.545 231.5,330C 230.619,329.292 229.953,328.458 229.5,327.5C 229.5,325.5 229.5,323.5 229.5,321.5C 230.167,321.167 230.833,320.833 231.5,320.5 Z"/></g>
<g><path style="opacity:0.984" fill="#d6c876" d="M 320.5,325.5 C 320.917,324.876 321.584,324.543 322.5,324.5C 323.741,325.037 324.908,325.704 326,326.5C 327,325.833 328,325.167 329,324.5C 329.5,324.833 330,325.167 330.5,325.5C 329.37,326.622 328.703,327.956 328.5,329.5C 328.5,330.167 328.167,330.5 327.5,330.5C 327.5,329.167 326.833,328.5 325.5,328.5C 325.158,327.662 324.492,327.328 323.5,327.5C 323.179,325.952 322.179,325.285 320.5,325.5 Z"/></g>
<g><path style="opacity:1" fill="#a0a09c" d="M 349.5,298.5 C 350.121,304.077 350.788,309.077 351.5,313.5C 352.167,313.167 352.833,312.833 353.5,312.5C 353.263,313.791 353.596,314.791 354.5,315.5C 354.987,316.473 355.487,317.473 356,318.5C 357.699,315.079 359.865,312.079 362.5,309.5C 362.5,310.167 362.833,310.5 363.5,310.5C 362.18,313.806 360.347,316.806 358,319.5C 357.368,322.875 357.868,323.209 359.5,320.5C 359.328,321.492 359.662,322.158 360.5,322.5C 359.524,323.815 358.524,325.148 357.5,326.5C 361.223,326.996 364.89,326.329 368.5,324.5C 369.452,322.955 369.785,321.288 369.5,319.5C 370.833,322.833 370.833,326.167 369.5,329.5C 369.649,328.448 369.483,327.448 369,326.5C 365.37,328.265 361.537,329.432 357.5,330C 356.944,330.383 356.611,330.883 356.5,331.5C 359.518,331.296 362.518,330.963 365.5,330.5C 366.718,331.161 368.051,331.828 369.5,332.5C 369.376,333.107 369.043,333.44 368.5,333.5C 363.543,332.461 358.543,332.961 353.5,335C 352.429,335.852 351.429,336.685 350.5,337.5C 349.209,337.263 348.209,337.596 347.5,338.5C 346.833,338.5 346.5,338.833 346.5,339.5C 345.193,338.847 343.86,338.18 342.5,337.5C 341.893,337.624 341.56,337.957 341.5,338.5C 340.5,338.5 339.5,338.5 338.5,338.5C 338.5,342.833 338.5,347.167 338.5,351.5C 337.879,345.923 337.212,340.923 336.5,336.5C 335.504,336.586 334.671,336.252 334,335.5C 333.386,340.015 332.552,344.348 331.5,348.5C 331.737,347.209 331.404,346.209 330.5,345.5C 330.421,341.798 330.754,338.132 331.5,334.5C 331.66,332.645 330.993,331.312 329.5,330.5C 329.5,330.167 329.5,329.833 329.5,329.5C 340.646,334.41 344.646,331.077 341.5,319.5C 341.739,317.533 341.406,315.699 340.5,314C 343.361,314.03 345.695,313.197 347.5,311.5C 349.43,307.627 350.097,303.294 349.5,298.5 Z"/></g>
<g><path style="opacity:1" fill="#dacf66" d="M 158.5,322.5 C 157.699,324.042 157.366,325.708 157.5,327.5C 180.5,328.833 203.5,328.833 226.5,327.5C 226.082,328.222 225.416,328.722 224.5,329C 203.169,329.5 181.836,329.667 160.5,329.5C 156.472,329.313 154.972,327.313 156,323.5C 156.671,322.748 157.504,322.414 158.5,322.5 Z"/></g>
<g><path style="opacity:1" fill="#b1a659" d="M 315.5,327.5 C 314.5,329.167 313.167,330.5 311.5,331.5C 310.833,331.5 310.167,331.5 309.5,331.5C 311.223,329.782 313.223,328.449 315.5,327.5 Z"/></g>
<g><path style="opacity:1" fill="#cdcccc" d="M 165.5,306.5 C 166.117,306.611 166.617,306.944 167,307.5C 167.497,310.146 167.664,312.813 167.5,315.5C 165.517,315.157 164.183,315.824 163.5,317.5C 162.5,319.833 160.833,321.5 158.5,322.5C 157.504,322.414 156.671,322.748 156,323.5C 154.972,327.313 156.472,329.313 160.5,329.5C 182.706,330.817 205.039,330.817 227.5,329.5C 227.259,331.886 227.925,333.886 229.5,335.5C 225.351,334.92 221.684,335.586 218.5,337.5C 215.287,337.19 212.287,337.523 209.5,338.5C 207.692,339.918 207.025,341.918 207.5,344.5C 206.691,342.708 206.191,340.708 206,338.5C 205.768,339.737 205.268,340.737 204.5,341.5C 204.5,340.5 204.5,339.5 204.5,338.5C 201.5,338.5 198.5,338.5 195.5,338.5C 190.496,338.949 185.829,339.616 181.5,340.5C 179.347,339.427 177.347,339.427 175.5,340.5C 173.965,339.646 172.632,339.646 171.5,340.5C 167.833,339.833 164.167,339.167 160.5,338.5C 159.834,342.021 159.167,345.687 158.5,349.5C 157.893,349.376 157.56,349.043 157.5,348.5C 158.641,345.36 158.808,342.027 158,338.5C 157.586,338.043 157.086,337.709 156.5,337.5C 155.828,338.949 155.161,340.282 154.5,341.5C 154.784,339.585 154.451,337.919 153.5,336.5C 152.118,334.451 150.452,332.785 148.5,331.5C 150.031,330.075 149.698,329.409 147.5,329.5C 149.129,327.804 148.796,326.804 146.5,326.5C 146.953,325.542 147.619,324.708 148.5,324C 148.272,323.601 147.938,323.435 147.5,323.5C 148.119,320.864 149.119,318.364 150.5,316C 149.584,315.722 148.918,315.222 148.5,314.5C 149.873,314.657 151.207,314.49 152.5,314C 147.981,313.825 143.647,313.325 139.5,312.5C 144.511,312.666 149.511,312.499 154.5,312C 153.584,311.722 152.918,311.222 152.5,310.5C 154.415,310.784 156.081,310.451 157.5,309.5C 159.153,309.34 160.486,308.674 161.5,307.5C 162.151,308.091 162.818,308.757 163.5,309.5C 164.298,309.043 164.631,308.376 164.5,307.5C 165.167,307.5 165.5,307.167 165.5,306.5 Z M 175.5,340.5 C 177.347,339.427 179.347,339.427 181.5,340.5C 182.091,341.151 182.757,341.818 183.5,342.5C 180.447,343.653 177.78,342.987 175.5,340.5 Z"/></g>
<g><path style="opacity:1" fill="#d5cfa3" d="M 175.5,320.5 C 193.577,320.181 211.577,320.514 229.5,321.5C 229.5,323.5 229.5,325.5 229.5,327.5C 228.5,327.833 227.833,328.5 227.5,329.5C 205.039,330.817 182.706,330.817 160.5,329.5C 181.836,329.667 203.169,329.5 224.5,329C 225.416,328.722 226.082,328.222 226.5,327.5C 227.461,325.735 227.795,323.735 227.5,321.5C 209.992,321.83 192.659,321.497 175.5,320.5 Z"/></g>
<g><path style="opacity:1" fill="#d9c22b" d="M 303.5,306.5 C 302.526,310.864 301.359,315.198 300,319.5C 299.788,325.248 299.288,330.915 298.5,336.5C 297.351,336.209 296.684,335.376 296.5,334C 297.174,327.76 298.174,321.594 299.5,315.5C 300.179,312.161 301.512,309.161 303.5,306.5 Z"/></g>
<g><path style="opacity:1" fill="#686666" d="M 270.5,330.5 C 274.138,329.737 275.638,331.07 275,334.5C 271.331,336.009 269.831,334.676 270.5,330.5 Z"/></g>
<g><path style="opacity:1" fill="#918f89" d="M 311.5,331.5 C 313.167,330.5 314.5,329.167 315.5,327.5C 315.842,326.662 316.508,326.328 317.5,326.5C 316.489,328.402 316.322,330.402 317,332.5C 319.287,330.946 321.454,329.279 323.5,327.5C 324.492,327.328 325.158,327.662 325.5,328.5C 323.022,330.803 320.355,332.969 317.5,335C 318.068,336.604 319.068,337.27 320.5,337C 322.677,334.656 325.01,332.489 327.5,330.5C 328.167,330.5 328.5,330.167 328.5,329.5C 328.833,329.5 329.167,329.5 329.5,329.5C 329.5,329.833 329.5,330.167 329.5,330.5C 326.704,333.797 323.704,336.964 320.5,340C 323.048,342.885 325.882,345.385 329,347.5C 330.03,347.164 330.53,346.497 330.5,345.5C 331.404,346.209 331.737,347.209 331.5,348.5C 332.635,350.213 334.302,350.88 336.5,350.5C 336.5,345.833 336.5,341.167 336.5,336.5C 337.212,340.923 337.879,345.923 338.5,351.5C 344.865,352.099 350.865,350.932 356.5,348C 351.436,344.809 346.436,341.642 341.5,338.5C 341.56,337.957 341.893,337.624 342.5,337.5C 343.86,338.18 345.193,338.847 346.5,339.5C 350.674,342.254 355.007,344.42 359.5,346C 360.711,345.107 360.711,344.274 359.5,343.5C 355.471,341.826 351.471,340.159 347.5,338.5C 348.209,337.596 349.209,337.263 350.5,337.5C 354.471,339.159 358.471,340.826 362.5,342.5C 365.241,340.025 367.241,337.025 368.5,333.5C 369.043,333.44 369.376,333.107 369.5,332.5C 368.051,331.828 366.718,331.161 365.5,330.5C 366.833,330.167 368.167,329.833 369.5,329.5C 370.833,326.167 370.833,322.833 369.5,319.5C 369.372,317.91 368.705,316.577 367.5,315.5C 364.785,317.548 362.452,319.882 360.5,322.5C 359.662,322.158 359.328,321.492 359.5,320.5C 361.433,318.063 363.6,315.729 366,313.5C 366.854,310.528 366.021,309.528 363.5,310.5C 362.833,310.5 362.5,310.167 362.5,309.5C 363.303,308.577 363.47,307.577 363,306.5C 361.104,304.47 358.937,302.803 356.5,301.5C 355.782,306.212 355.115,310.879 354.5,315.5C 353.596,314.791 353.263,313.791 353.5,312.5C 353.5,312.167 353.5,311.833 353.5,311.5C 353.824,307.445 353.491,303.445 352.5,299.5C 351.571,300.689 351.238,302.022 351.5,303.5C 351.5,306.833 351.5,310.167 351.5,313.5C 350.788,309.077 350.121,304.077 349.5,298.5C 345.363,297.049 341.363,297.216 337.5,299C 340.732,303.328 344.066,307.494 347.5,311.5C 345.695,313.197 343.361,314.03 340.5,314C 341.406,315.699 341.739,317.533 341.5,319.5C 340.833,319.167 340.167,318.833 339.5,318.5C 339.323,314.292 337.99,310.626 335.5,307.5C 335.167,306.833 334.833,306.167 334.5,305.5C 334.5,304.833 334.5,304.167 334.5,303.5C 337.002,305.17 339.002,307.336 340.5,310C 341.5,310.667 342.5,310.667 343.5,310C 340.974,306.974 338.64,303.807 336.5,300.5C 335.675,299.614 334.675,299.281 333.5,299.5C 331.634,297.999 330.301,295.999 329.5,293.5C 351.926,287.463 367.426,295.13 376,316.5C 379.122,338.109 370.289,351.942 349.5,358C 329.523,359.508 316.856,350.675 311.5,331.5 Z M 329.5,330.5 C 330.993,331.312 331.66,332.645 331.5,334.5C 330.754,338.132 330.421,341.798 330.5,345.5C 330.53,346.497 330.03,347.164 329,347.5C 325.882,345.385 323.048,342.885 320.5,340C 323.704,336.964 326.704,333.797 329.5,330.5 Z M 325.5,328.5 C 326.833,328.5 327.5,329.167 327.5,330.5C 325.01,332.489 322.677,334.656 320.5,337C 319.068,337.27 318.068,336.604 317.5,335C 320.355,332.969 323.022,330.803 325.5,328.5 Z M 369.5,329.5 C 368.167,329.833 366.833,330.167 365.5,330.5C 362.518,330.963 359.518,331.296 356.5,331.5C 356.611,330.883 356.944,330.383 357.5,330C 361.537,329.432 365.37,328.265 369,326.5C 369.483,327.448 369.649,328.448 369.5,329.5 Z M 362.5,309.5 C 359.865,312.079 357.699,315.079 356,318.5C 355.487,317.473 354.987,316.473 354.5,315.5C 355.115,310.879 355.782,306.212 356.5,301.5C 358.937,302.803 361.104,304.47 363,306.5C 363.47,307.577 363.303,308.577 362.5,309.5 Z M 353.5,311.5 C 352.833,308.833 352.167,306.167 351.5,303.5C 351.238,302.022 351.571,300.689 352.5,299.5C 353.491,303.445 353.824,307.445 353.5,311.5 Z M 349.5,298.5 C 350.097,303.294 349.43,307.627 347.5,311.5C 344.066,307.494 340.732,303.328 337.5,299C 341.363,297.216 345.363,297.049 349.5,298.5 Z M 346.5,339.5 C 346.5,338.833 346.833,338.5 347.5,338.5C 351.471,340.159 355.471,341.826 359.5,343.5C 360.711,344.274 360.711,345.107 359.5,346C 355.007,344.42 350.674,342.254 346.5,339.5 Z M 341.5,338.5 C 346.436,341.642 351.436,344.809 356.5,348C 350.865,350.932 344.865,352.099 338.5,351.5C 338.5,347.167 338.5,342.833 338.5,338.5C 339.5,338.5 340.5,338.5 341.5,338.5 Z M 336.5,336.5 C 336.5,341.167 336.5,345.833 336.5,350.5C 334.302,350.88 332.635,350.213 331.5,348.5C 332.552,344.348 333.386,340.015 334,335.5C 334.671,336.252 335.504,336.586 336.5,336.5 Z M 368.5,333.5 C 367.241,337.025 365.241,340.025 362.5,342.5C 358.471,340.826 354.471,339.159 350.5,337.5C 351.429,336.685 352.429,335.852 353.5,335C 358.543,332.961 363.543,332.461 368.5,333.5 Z"/></g>
<g><path style="opacity:0.021" fill="#fafafa" d="M 351.5,303.5 C 352.167,306.167 352.833,308.833 353.5,311.5C 353.5,311.833 353.5,312.167 353.5,312.5C 352.833,312.833 352.167,313.167 351.5,313.5C 351.5,310.167 351.5,306.833 351.5,303.5 Z"/></g>
<g><path style="opacity:1" fill="#a57f5b" d="M 229.5,327.5 C 229.953,328.458 230.619,329.292 231.5,330C 237.43,331.545 243.43,332.878 249.5,334C 256.216,335.085 262.55,334.252 268.5,331.5C 269.494,332.999 269.494,334.666 268.5,336.5C 266.801,336.34 265.134,336.506 263.5,337C 264.598,337.77 264.598,338.603 263.5,339.5C 259.983,339.213 256.316,339.213 252.5,339.5C 252.5,338.833 252.167,338.5 251.5,338.5C 244.468,338.005 237.468,337.005 230.5,335.5C 230.771,337.38 230.104,338.713 228.5,339.5C 228.433,338.041 228.766,336.708 229.5,335.5C 227.925,333.886 227.259,331.886 227.5,329.5C 227.833,328.5 228.5,327.833 229.5,327.5 Z"/></g>
<g><path style="opacity:1" fill="#ddcf69" d="M 299.5,315.5 C 298.174,321.594 297.174,327.76 296.5,334C 296.684,335.376 297.351,336.209 298.5,336.5C 300.5,335.833 302.5,335.167 304.5,334.5C 304.5,335.167 304.5,335.833 304.5,336.5C 301.95,337.358 299.45,338.358 297,339.5C 295.603,338.774 294.769,337.607 294.5,336C 295.869,332.286 296.536,328.453 296.5,324.5C 296.138,320.919 297.138,317.919 299.5,315.5 Z"/></g>
<g><path style="opacity:1" fill="#655c55" d="M 251.5,338.5 C 245.642,338.178 239.975,338.511 234.5,339.5C 233.833,339.833 233.167,340.167 232.5,340.5C 231.5,340.5 230.5,340.5 229.5,340.5C 229.167,340.5 228.833,340.5 228.5,340.5C 228.5,340.167 228.5,339.833 228.5,339.5C 230.104,338.713 230.771,337.38 230.5,335.5C 237.468,337.005 244.468,338.005 251.5,338.5 Z"/></g>
<g><path style="opacity:1" fill="#dbce68" d="M 229.5,335.5 C 228.766,336.708 228.433,338.041 228.5,339.5C 228.5,339.833 228.5,340.167 228.5,340.5C 227.508,340.328 226.842,340.662 226.5,341.5C 224.5,341.5 222.5,341.5 220.5,341.5C 219.4,340.395 218.733,339.062 218.5,337.5C 221.684,335.586 225.351,334.92 229.5,335.5 Z"/></g>
<g><path style="opacity:1" fill="#dcc832" d="M 221.5,336.5 C 223.5,336.5 225.5,336.5 227.5,336.5C 227.5,337.5 227.5,338.5 227.5,339.5C 225.076,339.808 222.743,339.474 220.5,338.5C 220.863,337.817 221.196,337.15 221.5,336.5 Z"/></g>
<g><path style="opacity:1" fill="#1c1c1c" d="M 234.5,339.5 C 239.975,338.511 245.642,338.178 251.5,338.5C 252.167,338.5 252.5,338.833 252.5,339.5C 251.833,339.833 251.167,340.167 250.5,340.5C 247.824,339.992 245.157,339.825 242.5,340C 241.748,340.671 241.414,341.504 241.5,342.5C 241.715,344.179 241.048,345.179 239.5,345.5C 238.5,345.5 237.5,345.5 236.5,345.5C 236.405,343.214 235.738,341.214 234.5,339.5 Z"/></g>
<g><path style="opacity:1" fill="#626164" d="M 268.5,336.5 C 268.5,337.833 268.5,339.167 268.5,340.5C 267.167,340.5 265.833,340.5 264.5,340.5C 263.833,340.5 263.5,340.167 263.5,339.5C 264.598,338.603 264.598,337.77 263.5,337C 265.134,336.506 266.801,336.34 268.5,336.5 Z"/></g>
<g><path style="opacity:0.996" fill="#646769" d="M 250.5,340.5 C 247.829,342.118 244.829,342.785 241.5,342.5C 241.414,341.504 241.748,340.671 242.5,340C 245.157,339.825 247.824,339.992 250.5,340.5 Z"/></g>
<g><path style="opacity:0.986" fill="#6a696b" d="M 209.5,338.5 C 210.833,339.167 211.833,340.167 212.5,341.5C 219.833,342.833 227.167,342.833 234.5,341.5C 234.5,340.833 234.5,340.167 234.5,339.5C 235.738,341.214 236.405,343.214 236.5,345.5C 237.5,345.5 238.5,345.5 239.5,345.5C 229.342,346.659 219.008,346.825 208.5,346C 207.944,345.617 207.611,345.117 207.5,344.5C 207.025,341.918 207.692,339.918 209.5,338.5 Z M 234.5,339.5 C 234.5,340.167 234.5,340.833 234.5,341.5C 233.508,341.672 232.842,341.338 232.5,340.5C 233.167,340.167 233.833,339.833 234.5,339.5 Z"/></g>
<g><path style="opacity:0.192" fill="#bab9b2" d="M 229.5,340.5 C 230.5,340.5 231.5,340.5 232.5,340.5C 232.842,341.338 233.508,341.672 234.5,341.5C 227.167,342.833 219.833,342.833 212.5,341.5C 215.167,341.5 217.833,341.5 220.5,341.5C 222.5,341.5 224.5,341.5 226.5,341.5C 227.791,341.737 228.791,341.404 229.5,340.5 Z"/></g>
<g><path style="opacity:1" fill="#92918b" d="M 168.5,287.5 C 167.933,289.03 167.267,290.53 166.5,292C 170.44,293.015 174.44,293.515 178.5,293.5C 178.5,292.5 178.5,291.5 178.5,290.5C 188.603,294.268 195.269,301.268 198.5,311.5C 199.5,311.5 200.5,311.5 201.5,311.5C 201.5,311.833 201.5,312.167 201.5,312.5C 197.21,312.802 193.21,312.136 189.5,310.5C 189.368,305.561 188.035,305.228 185.5,309.5C 184.604,310.506 183.938,310.506 183.5,309.5C 184.048,307.606 185.048,305.94 186.5,304.5C 179.969,295.114 177.303,295.781 178.5,306.5C 177.732,307.263 177.232,308.263 177,309.5C 176.536,308.906 176.369,308.239 176.5,307.5C 176.665,303.818 176.499,300.152 176,296.5C 174.71,300.73 174.21,305.064 174.5,309.5C 173.25,309.423 172.417,308.756 172,307.5C 171.047,310.432 170.547,313.432 170.5,316.5C 168.674,321.907 167.674,321.574 167.5,315.5C 167.664,312.813 167.497,310.146 167,307.5C 166.617,306.944 166.117,306.611 165.5,306.5C 163.192,303.185 160.859,299.851 158.5,296.5C 157.045,295.255 155.711,295.422 154.5,297C 157.734,300.67 161.067,304.17 164.5,307.5C 164.631,308.376 164.298,309.043 163.5,309.5C 162.818,308.757 162.151,308.091 161.5,307.5C 158.565,304.062 155.399,300.729 152,297.5C 148.353,299.979 145.187,302.979 142.5,306.5C 147.374,308.068 152.374,309.068 157.5,309.5C 156.081,310.451 154.415,310.784 152.5,310.5C 149.116,310.66 145.783,310.327 142.5,309.5C 140.484,309.516 139.484,310.516 139.5,312.5C 137.576,312.711 137.243,313.377 138.5,314.5C 137.021,319.6 137.355,324.6 139.5,329.5C 141.902,327.091 144.569,325.091 147.5,323.5C 147.938,323.435 148.272,323.601 148.5,324C 147.619,324.708 146.953,325.542 146.5,326.5C 144.353,328.47 142.02,330.303 139.5,332C 140.047,332.925 140.713,333.758 141.5,334.5C 143.544,332.781 145.544,331.114 147.5,329.5C 149.698,329.409 150.031,330.075 148.5,331.5C 146.396,333.099 144.396,334.932 142.5,337C 144.692,340.692 147.692,343.526 151.5,345.5C 152.489,342.562 153.156,339.562 153.5,336.5C 154.451,337.919 154.784,339.585 154.5,341.5C 153.979,344.636 154.979,346.97 157.5,348.5C 157.56,349.043 157.893,349.376 158.5,349.5C 159.167,345.687 159.834,342.021 160.5,338.5C 160.942,342.154 161.276,345.821 161.5,349.5C 167.814,349.921 173.814,348.754 179.5,346C 176.93,343.913 174.263,342.08 171.5,340.5C 172.632,339.646 173.965,339.646 175.5,340.5C 177.78,342.987 180.447,343.653 183.5,342.5C 182.757,341.818 182.091,341.151 181.5,340.5C 185.829,339.616 190.496,338.949 195.5,338.5C 188.228,351.885 176.894,357.718 161.5,356C 143.421,351.867 133.421,340.533 131.5,322C 131.784,311.962 135.451,303.462 142.5,296.5C 143.833,295.5 145.167,294.5 146.5,293.5C 153.036,288.855 160.369,286.855 168.5,287.5 Z M 152.5,310.5 C 152.918,311.222 153.584,311.722 154.5,312C 149.511,312.499 144.511,312.666 139.5,312.5C 139.484,310.516 140.484,309.516 142.5,309.5C 145.783,310.327 149.116,310.66 152.5,310.5 Z M 189.5,310.5 C 187.901,310.768 186.568,310.434 185.5,309.5C 188.035,305.228 189.368,305.561 189.5,310.5 Z M 183.5,309.5 C 180.54,310.849 178.873,309.849 178.5,306.5C 177.303,295.781 179.969,295.114 186.5,304.5C 185.048,305.94 184.048,307.606 183.5,309.5 Z M 161.5,307.5 C 160.486,308.674 159.153,309.34 157.5,309.5C 152.374,309.068 147.374,308.068 142.5,306.5C 145.187,302.979 148.353,299.979 152,297.5C 155.399,300.729 158.565,304.062 161.5,307.5 Z M 176.5,307.5 C 175.833,308.167 175.167,308.833 174.5,309.5C 174.21,305.064 174.71,300.73 176,296.5C 176.499,300.152 176.665,303.818 176.5,307.5 Z M 165.5,306.5 C 165.5,307.167 165.167,307.5 164.5,307.5C 161.067,304.17 157.734,300.67 154.5,297C 155.711,295.422 157.045,295.255 158.5,296.5C 160.859,299.851 163.192,303.185 165.5,306.5 Z M 163.5,293.5 C 166.056,293.132 168.056,293.966 169.5,296C 168.917,298.918 168.084,301.751 167,304.5C 164.64,301.64 162.473,298.64 160.5,295.5C 161.602,294.824 162.602,294.158 163.5,293.5 Z M 175.5,340.5 C 177.347,339.427 179.347,339.427 181.5,340.5C 182.091,341.151 182.757,341.818 183.5,342.5C 180.447,343.653 177.78,342.987 175.5,340.5 Z M 160.5,338.5 C 164.167,339.167 167.833,339.833 171.5,340.5C 174.263,342.08 176.93,343.913 179.5,346C 173.814,348.754 167.814,349.921 161.5,349.5C 161.276,345.821 160.942,342.154 160.5,338.5 Z"/></g>
<g><path style="opacity:0.854" fill="#5c5b5c" d="M 139.5,312.5 C 143.647,313.325 147.981,313.825 152.5,314C 151.207,314.49 149.873,314.657 148.5,314.5C 145.167,314.5 141.833,314.5 138.5,314.5C 137.243,313.377 137.576,312.711 139.5,312.5 Z"/></g>
<g><path style="opacity:1" fill="#343430" d="M 142.5,296.5 C 135.451,303.462 131.784,311.962 131.5,322C 133.421,340.533 143.421,351.867 161.5,356C 176.894,357.718 188.228,351.885 195.5,338.5C 198.5,338.5 201.5,338.5 204.5,338.5C 204.5,339.5 204.5,340.5 204.5,341.5C 196.276,356.288 183.61,363.954 166.5,364.5C 137.243,360.929 123.243,344.595 124.5,315.5C 125.768,313.095 126.435,310.428 126.5,307.5C 126.5,306.833 126.5,306.167 126.5,305.5C 127.167,304.833 127.833,304.167 128.5,303.5C 131.872,302.295 134.038,299.961 135,296.5C 135.893,297.711 136.726,297.711 137.5,296.5C 139.571,289.94 141.237,289.94 142.5,296.5 Z M 175.5,340.5 C 177.347,339.427 179.347,339.427 181.5,340.5C 182.091,341.151 182.757,341.818 183.5,342.5C 180.447,343.653 177.78,342.987 175.5,340.5 Z M 160.5,338.5 C 164.167,339.167 167.833,339.833 171.5,340.5C 174.263,342.08 176.93,343.913 179.5,346C 173.814,348.754 167.814,349.921 161.5,349.5C 161.276,345.821 160.942,342.154 160.5,338.5 Z"/></g>
<g><path style="opacity:1" fill="#33332e" d="M 354.5,284.5 C 355.167,284.5 355.833,284.5 356.5,284.5C 356.833,284.5 357.167,284.5 357.5,284.5C 359.153,287.144 361.487,289.144 364.5,290.5C 363.975,291.192 363.308,291.692 362.5,292C 364.433,292.251 366.266,292.751 368,293.5C 368.333,293.167 368.667,292.833 369,292.5C 373.048,296.88 376.715,301.546 380,306.5C 380.671,307.252 381.504,307.586 382.5,307.5C 390.531,332.586 382.864,351.086 359.5,363C 335.249,370.141 317.082,362.641 305,340.5C 304.51,339.207 304.343,337.873 304.5,336.5C 304.5,335.833 304.5,335.167 304.5,334.5C 306.434,333.89 308.101,332.89 309.5,331.5C 310.167,331.5 310.833,331.5 311.5,331.5C 316.856,350.675 329.523,359.508 349.5,358C 370.289,351.942 379.122,338.109 376,316.5C 367.426,295.13 351.926,287.463 329.5,293.5C 329.068,292.29 328.401,291.29 327.5,290.5C 327.5,288.5 328.5,287.5 330.5,287.5C 333.946,287.111 337.279,286.278 340.5,285C 345.155,284.501 349.821,284.334 354.5,284.5 Z M 346.5,339.5 C 346.5,338.833 346.833,338.5 347.5,338.5C 351.471,340.159 355.471,341.826 359.5,343.5C 360.711,344.274 360.711,345.107 359.5,346C 355.007,344.42 350.674,342.254 346.5,339.5 Z M 341.5,338.5 C 346.436,341.642 351.436,344.809 356.5,348C 350.865,350.932 344.865,352.099 338.5,351.5C 338.5,347.167 338.5,342.833 338.5,338.5C 339.5,338.5 340.5,338.5 341.5,338.5 Z M 336.5,336.5 C 336.5,341.167 336.5,345.833 336.5,350.5C 334.302,350.88 332.635,350.213 331.5,348.5C 332.552,344.348 333.386,340.015 334,335.5C 334.671,336.252 335.504,336.586 336.5,336.5 Z M 368.5,333.5 C 367.241,337.025 365.241,340.025 362.5,342.5C 358.471,340.826 354.471,339.159 350.5,337.5C 351.429,336.685 352.429,335.852 353.5,335C 358.543,332.961 363.543,332.461 368.5,333.5 Z"/></g>
</svg>
