<?xml version="1.0" encoding="UTF-8"?>
<!DOCTYPE svg PUBLIC "-//W3C//DTD SVG 1.1//EN" "http://www.w3.org/Graphics/SVG/1.1/DTD/svg11.dtd">
<svg xmlns="http://www.w3.org/2000/svg" version="1.1" width="500px" height="500px" style="shape-rendering:geometricPrecision; text-rendering:geometricPrecision; image-rendering:optimizeQuality; fill-rule:evenodd; clip-rule:evenodd" xmlns:xlink="http://www.w3.org/1999/xlink">
<g><path style="opacity:0.024" fill="#39080a" d="M 392.5,65.5 C 353.5,65.5 314.5,65.5 275.5,65.5C 275.5,92.8333 275.5,120.167 275.5,147.5C 274.502,120.005 274.169,92.3384 274.5,64.5C 314.004,64.1681 353.337,64.5014 392.5,65.5 Z"/></g>
<g><path style="opacity:0.996" fill="#a3a3a3" d="M 207.5,65.5 C 212.833,65.5 218.167,65.5 223.5,65.5C 223.5,79.1667 223.5,92.8333 223.5,106.5C 187.346,106.152 162.846,122.819 150,156.5C 142.399,189.698 151.899,216.865 178.5,238C 192.313,246.37 207.313,250.203 223.5,249.5C 223.5,263.167 223.5,276.833 223.5,290.5C 218.833,290.5 214.167,290.5 209.5,290.5C 194.162,289.751 179.829,285.751 166.5,278.5C 166.027,277.094 165.027,276.427 163.5,276.5C 130.316,257.436 111.149,228.769 106,190.5C 105.333,181.833 105.333,173.167 106,164.5C 106.186,161.964 106.686,159.631 107.5,157.5C 109.279,152.722 110.613,147.722 111.5,142.5C 116.356,125.774 125.023,111.44 137.5,99.5C 140.788,97.9802 143.454,95.6468 145.5,92.5C 154.509,83.3212 165.176,76.6545 177.5,72.5C 181.915,72.1394 185.915,70.8061 189.5,68.5C 189.833,68.5 190.167,68.5 190.5,68.5C 193.781,68.5797 196.781,67.913 199.5,66.5C 202.096,65.7347 204.763,65.4013 207.5,65.5 Z"/></g>
<g><path style="opacity:0.98" fill="#cf3c3c" d="M 392.5,65.5 C 393.627,72.2943 392.96,78.961 390.5,85.5C 391.19,79.1903 391.524,72.857 391.5,66.5C 353.167,66.5 314.833,66.5 276.5,66.5C 276.5,93.1667 276.5,119.833 276.5,146.5C 293.849,146.693 311.182,146.36 328.5,145.5C 327.391,146.29 326.058,146.79 324.5,147C 308.808,147.197 293.141,147.697 277.5,148.5C 276.584,148.457 275.917,148.124 275.5,147.5C 275.5,120.167 275.5,92.8333 275.5,65.5C 314.5,65.5 353.5,65.5 392.5,65.5 Z"/></g>
<g><path style="opacity:0.627" fill="#464646" d="M 199.5,66.5 C 196.781,67.913 193.781,68.5797 190.5,68.5C 193.219,67.087 196.219,66.4203 199.5,66.5 Z"/></g>
<g><path style="opacity:0.663" fill="#484848" d="M 189.5,68.5 C 185.915,70.8061 181.915,72.1394 177.5,72.5C 181.216,70.5947 185.216,69.2613 189.5,68.5 Z"/></g>
<g><path style="opacity:1" fill="#fe3131" d="M 390.5,85.5 C 387.574,91.1433 385.241,97.1433 383.5,103.5C 383.672,104.492 383.338,105.158 382.5,105.5C 377.958,107.547 375.625,111.214 375.5,116.5C 374.833,117.5 374.167,118.5 373.5,119.5C 368.896,116.232 366.729,117.565 367,123.5C 365.098,122.614 363.265,122.947 361.5,124.5C 361.846,125.696 362.346,125.696 363,124.5C 363.49,125.793 363.657,127.127 363.5,128.5C 362.417,128.461 361.417,128.127 360.5,127.5C 359.614,128.325 359.281,129.325 359.5,130.5C 358.5,130.5 357.5,130.5 356.5,130.5C 356.5,131.5 356.5,132.5 356.5,133.5C 355.341,135.25 353.674,136.25 351.5,136.5C 343.507,138.769 335.841,141.769 328.5,145.5C 311.182,146.36 293.849,146.693 276.5,146.5C 276.5,119.833 276.5,93.1667 276.5,66.5C 314.833,66.5 353.167,66.5 391.5,66.5C 391.524,72.857 391.19,79.1903 390.5,85.5 Z"/></g>
<g><path style="opacity:0.371" fill="#3a3a3a" d="M 207.5,65.5 C 212.975,64.5111 218.642,64.1778 224.5,64.5C 224.5,78.5 224.5,92.5 224.5,106.5C 224.167,106.5 223.833,106.5 223.5,106.5C 223.5,92.8333 223.5,79.1667 223.5,65.5C 218.167,65.5 212.833,65.5 207.5,65.5 Z"/></g>
<g><path style="opacity:0.69" fill="#6c6c6c" d="M 145.5,92.5 C 143.454,95.6468 140.788,97.9802 137.5,99.5C 139.569,96.4275 142.236,94.0941 145.5,92.5 Z"/></g>
<g><path style="opacity:0.988" fill="#b33133" d="M 390.5,85.5 C 389.713,92.2113 387.379,98.2113 383.5,103.5C 385.241,97.1433 387.574,91.1433 390.5,85.5 Z"/></g>
<g><path style="opacity:0.998" fill="#d6d6d6" d="M 223.5,106.5 C 223.5,120.167 223.5,133.833 223.5,147.5C 200.581,147.92 188.914,159.42 188.5,182C 193.24,200.56 205.24,209.394 224.5,208.5C 224.715,222.319 224.715,235.986 224.5,249.5C 224.167,249.5 223.833,249.5 223.5,249.5C 207.313,250.203 192.313,246.37 178.5,238C 151.899,216.865 142.399,189.698 150,156.5C 162.846,122.819 187.346,106.152 223.5,106.5 Z"/></g>
<g><path style="opacity:0.996" fill="#b92a30" d="M 382.5,105.5 C 380.913,109.683 378.579,113.35 375.5,116.5C 375.625,111.214 377.958,107.547 382.5,105.5 Z"/></g>
<g><path style="opacity:0.592" fill="#5a5a5a" d="M 223.5,106.5 C 223.833,106.5 224.167,106.5 224.5,106.5C 225.425,118.751 225.759,131.085 225.5,143.5C 225.006,145.026 224.339,146.359 223.5,147.5C 223.5,133.833 223.5,120.167 223.5,106.5 Z"/></g>
<g><path style="opacity:0.999" fill="#c82e2f" d="M 373.5,119.5 C 370.789,123.212 367.456,126.212 363.5,128.5C 363.657,127.127 363.49,125.793 363,124.5C 362.346,125.696 361.846,125.696 361.5,124.5C 363.265,122.947 365.098,122.614 367,123.5C 366.729,117.565 368.896,116.232 373.5,119.5 Z"/></g>
<g><path style="opacity:0.988" fill="#b52d2f" d="M 363.5,128.5 C 361.704,130.9 359.37,132.567 356.5,133.5C 356.5,132.5 356.5,131.5 356.5,130.5C 357.5,130.5 358.5,130.5 359.5,130.5C 359.281,129.325 359.614,128.325 360.5,127.5C 361.417,128.127 362.417,128.461 363.5,128.5 Z"/></g>
<g><path style="opacity:0.992" fill="#af2d2d" d="M 351.5,136.5 C 344.605,141.247 336.938,144.247 328.5,145.5C 335.841,141.769 343.507,138.769 351.5,136.5 Z"/></g>
<g><path style="opacity:0.718" fill="#424242" d="M 111.5,142.5 C 110.613,147.722 109.279,152.722 107.5,157.5C 107.762,152.112 109.095,147.112 111.5,142.5 Z"/></g>
<g><path style="opacity:0.997" fill="#a3a3a3" d="M 295.5,209.5 C 296.167,209.5 296.833,209.5 297.5,209.5C 298.848,210.186 300.015,211.186 301,212.5C 302.699,211.594 304.533,211.261 306.5,211.5C 312.921,212.529 318.921,214.529 324.5,217.5C 324.389,218.117 324.056,218.617 323.5,219C 324.931,219.465 326.097,220.299 327,221.5C 329.292,221.445 331.459,221.445 333.5,221.5C 343.269,226.379 351.936,232.712 359.5,240.5C 359.738,242.404 360.738,243.738 362.5,244.5C 368.306,249.636 372.973,255.636 376.5,262.5C 376.427,264.027 377.094,265.027 378.5,265.5C 382.844,271.862 385.844,278.862 387.5,286.5C 387.41,289.152 388.076,291.485 389.5,293.5C 389.5,293.833 389.5,294.167 389.5,294.5C 389.676,297.727 390.343,300.727 391.5,303.5C 397.911,355.185 378.577,394.685 333.5,422C 320.541,429.056 307.208,432.889 293.5,433.5C 287.5,433.5 281.5,433.5 275.5,433.5C 275.5,420.167 275.5,406.833 275.5,393.5C 311.287,393.184 335.787,376.517 349,343.5C 357.31,308.329 346.81,280.495 317.5,260C 304.431,252.733 290.431,249.233 275.5,249.5C 275.5,236.167 275.5,222.833 275.5,209.5C 282.167,209.5 288.833,209.5 295.5,209.5 Z"/></g>
<g><path style="opacity:0.929" fill="#4b4b4b" d="M 297.5,209.5 C 300.727,209.676 303.727,210.343 306.5,211.5C 304.533,211.261 302.699,211.594 301,212.5C 300.015,211.186 298.848,210.186 297.5,209.5 Z"/></g>
<g><path style="opacity:0.202" fill="#383838" d="M 295.5,209.5 C 288.833,209.5 282.167,209.5 275.5,209.5C 275.5,222.833 275.5,236.167 275.5,249.5C 275.5,249.833 275.5,250.167 275.5,250.5C 275.167,250.5 274.833,250.5 274.5,250.5C 274.167,236.484 274.501,222.484 275.5,208.5C 276.772,207.954 278.106,207.621 279.5,207.5C 284.999,208.019 290.332,208.685 295.5,209.5 Z"/></g>
<g><path style="opacity:0.923" fill="#6a6a6a" d="M 324.5,217.5 C 327.912,218.042 330.912,219.375 333.5,221.5C 331.459,221.445 329.292,221.445 327,221.5C 326.097,220.299 324.931,219.465 323.5,219C 324.056,218.617 324.389,218.117 324.5,217.5 Z"/></g>
<g><path style="opacity:0.408" fill="#343434" d="M 359.5,240.5 C 361.262,241.262 362.262,242.596 362.5,244.5C 360.738,243.738 359.738,242.404 359.5,240.5 Z"/></g>
<g><path style="opacity:0.401" fill="#646464" d="M 274.5,250.5 C 274.833,250.5 275.167,250.5 275.5,250.5C 275.5,263.833 275.5,277.167 275.5,290.5C 278.385,290.194 281.052,290.527 283.5,291.5C 280.5,291.5 277.5,291.5 274.5,291.5C 274.5,277.833 274.5,264.167 274.5,250.5 Z"/></g>
<g><path style="opacity:0.998" fill="#d7d7d7" d="M 275.5,249.5 C 290.431,249.233 304.431,252.733 317.5,260C 346.81,280.495 357.31,308.329 349,343.5C 335.787,376.517 311.287,393.184 275.5,393.5C 275.5,393.167 275.5,392.833 275.5,392.5C 275.5,379.167 275.5,365.833 275.5,352.5C 277.735,352.795 279.735,352.461 281.5,351.5C 299.287,349.379 308.954,339.379 310.5,321.5C 309.219,304.553 300.219,294.553 283.5,291.5C 281.052,290.527 278.385,290.194 275.5,290.5C 275.5,277.167 275.5,263.833 275.5,250.5C 275.5,250.167 275.5,249.833 275.5,249.5 Z"/></g>
<g><path style="opacity:0.343" fill="#414141" d="M 223.5,249.5 C 223.833,249.5 224.167,249.5 224.5,249.5C 224.5,263.5 224.5,277.5 224.5,291.5C 219.305,291.821 214.305,291.487 209.5,290.5C 214.167,290.5 218.833,290.5 223.5,290.5C 223.5,276.833 223.5,263.167 223.5,249.5 Z"/></g>
<g><path style="opacity:0.114" fill="#272727" d="M 376.5,262.5 C 377.906,262.973 378.573,263.973 378.5,265.5C 377.094,265.027 376.427,264.027 376.5,262.5 Z"/></g>
<g><path style="opacity:0.157" fill="#393939" d="M 163.5,276.5 C 165.027,276.427 166.027,277.094 166.5,278.5C 164.973,278.573 163.973,277.906 163.5,276.5 Z"/></g>
<g><path style="opacity:0.678" fill="#494949" d="M 387.5,286.5 C 388.924,288.515 389.59,290.848 389.5,293.5C 388.076,291.485 387.41,289.152 387.5,286.5 Z"/></g>
<g><path style="opacity:0.345" fill="#4f4f4f" d="M 389.5,294.5 C 391.118,297.171 391.785,300.171 391.5,303.5C 390.343,300.727 389.676,297.727 389.5,294.5 Z"/></g>
<g><path style="opacity:0.867" fill="#7d2321" d="M 170.5,353.5 C 165.03,355.88 159.363,357.88 153.5,359.5C 158.667,356.332 164.334,354.332 170.5,353.5 Z"/></g>
<g><path style="opacity:1" fill="#f03536" d="M 170.5,353.5 C 174.5,353.5 178.5,353.5 182.5,353.5C 196.01,353.171 209.344,353.504 222.5,354.5C 205.487,354.167 188.487,354.501 171.5,355.5C 169.054,356.983 169.388,358.149 172.5,359C 167.255,361.619 161.755,362.119 156,360.5C 150.57,361.88 145.904,364.547 142,368.5C 141.517,369.448 141.351,370.448 141.5,371.5C 139.435,371.517 137.435,371.85 135.5,372.5C 138.453,370.854 140.786,368.521 142.5,365.5C 144.336,363.412 146.669,362.079 149.5,361.5C 151.027,361.573 152.027,360.906 152.5,359.5C 152.833,359.5 153.167,359.5 153.5,359.5C 159.363,357.88 165.03,355.88 170.5,353.5 Z"/></g>
<g><path style="opacity:0.401" fill="#656565" d="M 281.5,351.5 C 279.735,352.461 277.735,352.795 275.5,352.5C 275.5,365.833 275.5,379.167 275.5,392.5C 275.167,392.5 274.833,392.5 274.5,392.5C 274.5,378.833 274.5,365.167 274.5,351.5C 276.833,351.5 279.167,351.5 281.5,351.5 Z"/></g>
<g><path style="opacity:0.612" fill="#5a1316" d="M 152.5,359.5 C 152.027,360.906 151.027,361.573 149.5,361.5C 149.973,360.094 150.973,359.427 152.5,359.5 Z"/></g>
<g><path style="opacity:1" fill="#fe3131" d="M 222.5,354.5 C 222.5,380.5 222.5,406.5 222.5,432.5C 184.5,432.5 146.5,432.5 108.5,432.5C 108.334,428.486 108.501,424.486 109,420.5C 109.645,419.354 110.478,418.354 111.5,417.5C 110.691,415.929 110.357,414.262 110.5,412.5C 110.216,410.585 110.549,408.919 111.5,407.5C 113.351,405.129 114.851,402.463 116,399.5C 117.896,398.32 119.396,396.82 120.5,395C 120.095,394.055 119.428,393.388 118.5,393C 119.252,392.329 119.586,391.496 119.5,390.5C 119.5,389.833 119.5,389.167 119.5,388.5C 122.687,386.656 124.687,383.989 125.5,380.5C 128.5,379.5 130.5,377.5 131.5,374.5C 133.062,374.267 134.395,373.6 135.5,372.5C 137.435,371.85 139.435,371.517 141.5,371.5C 141.351,370.448 141.517,369.448 142,368.5C 145.904,364.547 150.57,361.88 156,360.5C 161.755,362.119 167.255,361.619 172.5,359C 169.388,358.149 169.054,356.983 171.5,355.5C 188.487,354.501 205.487,354.167 222.5,354.5 Z"/></g>
<g><path style="opacity:0.886" fill="#922628" d="M 142.5,365.5 C 140.786,368.521 138.453,370.854 135.5,372.5C 134.395,373.6 133.062,374.267 131.5,374.5C 134.29,370.372 137.957,367.372 142.5,365.5 Z"/></g>
<g><path style="opacity:0.976" fill="#ab2c2b" d="M 131.5,374.5 C 130.5,377.5 128.5,379.5 125.5,380.5C 127.167,378.167 129.167,376.167 131.5,374.5 Z"/></g>
<g><path style="opacity:0.914" fill="#8a2b29" d="M 125.5,380.5 C 124.687,383.989 122.687,386.656 119.5,388.5C 121.016,385.467 123.016,382.8 125.5,380.5 Z"/></g>
<g><path style="opacity:0.204" fill="#560e0b" d="M 119.5,388.5 C 119.5,389.167 119.5,389.833 119.5,390.5C 118.833,390.833 118.167,391.167 117.5,391.5C 117.427,389.973 118.094,388.973 119.5,388.5 Z"/></g>
<g><path style="opacity:1" fill="#df3536" d="M 119.5,390.5 C 119.586,391.496 119.252,392.329 118.5,393C 119.428,393.388 120.095,394.055 120.5,395C 119.396,396.82 117.896,398.32 116,399.5C 114.851,402.463 113.351,405.129 111.5,407.5C 111.5,406.167 111.5,404.833 111.5,403.5C 112.992,399.182 114.992,395.182 117.5,391.5C 118.167,391.167 118.833,390.833 119.5,390.5 Z"/></g>
<g><path style="opacity:0.23" fill="#363636" d="M 274.5,392.5 C 274.833,392.5 275.167,392.5 275.5,392.5C 275.5,392.833 275.5,393.167 275.5,393.5C 275.5,406.833 275.5,420.167 275.5,433.5C 281.5,433.5 287.5,433.5 293.5,433.5C 287.355,434.49 281.022,434.823 274.5,434.5C 274.5,420.5 274.5,406.5 274.5,392.5 Z"/></g>
<g><path style="opacity:0.988" fill="#9a2d2d" d="M 111.5,403.5 C 111.5,404.833 111.5,406.167 111.5,407.5C 110.549,408.919 110.216,410.585 110.5,412.5C 109.883,412.611 109.383,412.944 109,413.5C 108.367,417.347 107.533,421.014 106.5,424.5C 106.461,416.994 108.128,409.994 111.5,403.5 Z"/></g>
<g><path style="opacity:1" fill="#e03a3b" d="M 182.5,353.5 C 195.99,352.504 209.656,352.171 223.5,352.5C 223.5,379.5 223.5,406.5 223.5,433.5C 184.5,433.5 145.5,433.5 106.5,433.5C 105.167,430.5 105.167,427.5 106.5,424.5C 107.533,421.014 108.367,417.347 109,413.5C 109.383,412.944 109.883,412.611 110.5,412.5C 110.357,414.262 110.691,415.929 111.5,417.5C 110.478,418.354 109.645,419.354 109,420.5C 108.501,424.486 108.334,428.486 108.5,432.5C 146.5,432.5 184.5,432.5 222.5,432.5C 222.5,406.5 222.5,380.5 222.5,354.5C 209.344,353.504 196.01,353.171 182.5,353.5 Z"/></g>
<g><path style="opacity:0.471" fill="#7c201f" d="M 106.5,433.5 C 145.5,433.5 184.5,433.5 223.5,433.5C 223.5,406.5 223.5,379.5 223.5,352.5C 209.656,352.171 195.99,352.504 182.5,353.5C 178.5,353.5 174.5,353.5 170.5,353.5C 172.292,352.691 174.292,352.191 176.5,352C 192.497,351.5 208.497,351.333 224.5,351.5C 224.5,379.167 224.5,406.833 224.5,434.5C 184.996,434.832 145.663,434.499 106.5,433.5 Z"/></g>
</svg>
