<?xml version="1.0" encoding="UTF-8"?>
<!DOCTYPE svg PUBLIC "-//W3C//DTD SVG 1.1//EN" "http://www.w3.org/Graphics/SVG/1.1/DTD/svg11.dtd">
<svg xmlns="http://www.w3.org/2000/svg" version="1.1" width="500px" height="500px" style="shape-rendering:geometricPrecision; text-rendering:geometricPrecision; image-rendering:optimizeQuality; fill-rule:evenodd; clip-rule:evenodd" xmlns:xlink="http://www.w3.org/1999/xlink">
<g><path style="opacity:1" fill="#1e1e1e" d="M 447.5,109.5 C 449.988,121.335 451.488,133.335 452,145.5C 452.667,164.5 452.667,183.5 452,202.5C 451.976,213.335 450.643,224.002 448,234.5C 443.357,249.817 433.19,258.65 417.5,261C 391.578,263.698 365.578,265.032 339.5,265C 315.445,278.021 291.779,291.521 268.5,305.5C 267.833,305.5 267.5,305.833 267.5,306.5C 260.899,309.468 254.566,312.968 248.5,317C 244.333,318.167 242.833,316.667 244,312.5C 261.028,297.635 277.861,282.635 294.5,267.5C 296.027,267.573 297.027,266.906 297.5,265.5C 298.289,265.217 298.956,264.717 299.5,264C 275.836,263.5 252.169,263.333 228.5,263.5C 227.167,263.5 225.833,263.5 224.5,263.5C 215.737,261.241 209.57,255.908 206,247.5C 201.392,230.158 199.059,212.491 199,194.5C 197.946,171.773 198.612,149.106 201,126.5C 203.735,113.846 209.902,103.346 219.5,95C 222.382,93.3921 225.382,92.0587 228.5,91C 292.839,90.2207 357.173,90.5541 421.5,92C 430.368,92.6855 437.868,96.1855 444,102.5C 445.705,104.577 446.872,106.91 447.5,109.5 Z M 274.5,294.5 C 285.831,283.734 297.331,273.067 309,262.5C 309.684,261.216 309.517,260.049 308.5,259C 282.5,258.667 256.5,258.333 230.5,258C 223.991,257.911 218.657,255.411 214.5,250.5C 214.573,248.973 213.906,247.973 212.5,247.5C 208.542,235.184 206.375,222.517 206,209.5C 204.083,184.497 204.083,159.497 206,134.5C 206.805,125.085 209.805,116.418 215,108.5C 218.787,102.852 223.954,99.0182 230.5,97C 293.837,96.4348 357.17,96.7681 420.5,98C 431.776,98.5374 439.276,104.037 443,114.5C 447.182,152.131 447.515,189.798 444,227.5C 440.983,244.185 431.15,253.685 414.5,256C 389.211,257.986 363.878,258.986 338.5,259C 317.273,271.111 295.94,282.945 274.5,294.5 Z M 299.5,170.5 C 299.234,179.846 299.067,189.179 299,198.5C 300.418,203.01 302.585,207.01 305.5,210.5C 301.452,210.441 298.285,212.108 296,215.5C 292.499,213.512 289.332,211.178 286.5,208.5C 285.209,206.052 283.876,203.552 282.5,201C 282.836,197.354 283.169,193.521 283.5,189.5C 286.411,183.918 289.745,178.585 293.5,173.5C 293.5,172.833 293.833,172.5 294.5,172.5C 295.885,171.426 297.051,170.093 298,168.5C 298.278,169.416 298.778,170.082 299.5,170.5 Z M 357.5,170.5 C 357.833,171.5 358.5,172.167 359.5,172.5C 359.5,173.167 359.833,173.5 360.5,173.5C 361.999,175.49 362.832,177.823 363,180.5C 365.945,182.275 368.445,184.609 370.5,187.5C 369.833,188.833 369.167,190.167 368.5,191.5C 368.855,192.522 369.522,193.189 370.5,193.5C 369.758,195.426 368.758,197.259 367.5,199C 368.244,200.039 369.244,200.539 370.5,200.5C 370.5,201.167 370.5,201.833 370.5,202.5C 369.325,202.281 368.325,202.614 367.5,203.5C 367.212,204.861 366.879,206.194 366.5,207.5C 366.5,208.167 366.167,208.5 365.5,208.5C 364.199,209.64 363.032,210.973 362,212.5C 361.282,211.549 360.449,211.383 359.5,212C 358.853,213.609 358.02,215.109 357,216.5C 356.722,215.584 356.222,214.918 355.5,214.5C 354.965,212.554 353.632,211.554 351.5,211.5C 351.573,209.973 350.906,208.973 349.5,208.5C 351.241,206.023 352.741,203.356 354,200.5C 354.304,190.886 354.137,181.553 353.5,172.5C 354.467,171.194 355.801,170.527 357.5,170.5 Z M 355.5,231.5 C 356.368,233.892 355.701,234.059 353.5,232C 354.094,231.536 354.761,231.369 355.5,231.5 Z M 299.5,231.5 C 299.833,231.5 300.167,231.5 300.5,231.5C 299.828,232.267 298.995,232.934 298,233.5C 297.472,232.184 297.972,231.517 299.5,231.5 Z"/></g>
<g><path style="opacity:1" fill="#4e330d" d="M 325.5,110.5 C 326.629,112.628 326.796,114.961 326,117.5C 325.283,116.956 324.783,116.289 324.5,115.5C 324.5,114.167 324.5,112.833 324.5,111.5C 324.5,110.833 324.833,110.5 325.5,110.5 Z"/></g>
<g><path style="opacity:1" fill="#ab9d73" d="M 324.5,111.5 C 324.5,112.833 324.5,114.167 324.5,115.5C 322.901,115.232 321.568,115.566 320.5,116.5C 319.833,116.5 319.5,116.167 319.5,115.5C 319.5,115.167 319.5,114.833 319.5,114.5C 321.674,114.25 323.341,113.25 324.5,111.5 Z"/></g>
<g><path style="opacity:1" fill="#34230d" d="M 331.5,114.5 C 331.918,115.222 332.584,115.722 333.5,116C 332.263,116.232 331.263,116.732 330.5,117.5C 329.448,117.649 328.448,117.483 327.5,117C 328.471,115.519 329.804,114.685 331.5,114.5 Z"/></g>
<g><path style="opacity:0.015" fill="#eff1ed" d="M 319.5,114.5 C 319.5,114.833 319.5,115.167 319.5,115.5C 318.761,115.369 318.094,115.536 317.5,116C 318.71,117.039 319.71,118.206 320.5,119.5C 320.565,119.938 320.399,120.272 320,120.5C 317.735,119.084 316.569,117.084 316.5,114.5C 317.5,114.5 318.5,114.5 319.5,114.5 Z"/></g>
<g><path style="opacity:1" fill="#3b331b" d="M 319.5,115.5 C 319.5,116.167 319.833,116.5 320.5,116.5C 323.505,117.375 323.838,118.375 321.5,119.5C 321.167,119.5 320.833,119.5 320.5,119.5C 319.71,118.206 318.71,117.039 317.5,116C 318.094,115.536 318.761,115.369 319.5,115.5 Z"/></g>
<g><path style="opacity:1" fill="#b99e43" d="M 331.5,114.5 C 329.804,114.685 328.471,115.519 327.5,117C 328.448,117.483 329.448,117.649 330.5,117.5C 331.338,117.842 331.672,118.508 331.5,119.5C 330.127,119.343 328.793,119.51 327.5,120C 328.823,120.816 329.489,121.983 329.5,123.5C 328.5,123.5 327.5,123.5 326.5,123.5C 325.885,118.895 324.551,119.228 322.5,124.5C 321.596,123.791 321.263,122.791 321.5,121.5C 321.5,120.833 321.5,120.167 321.5,119.5C 323.838,118.375 323.505,117.375 320.5,116.5C 321.568,115.566 322.901,115.232 324.5,115.5C 324.783,116.289 325.283,116.956 326,117.5C 326.796,114.961 326.629,112.628 325.5,110.5C 325.281,109.325 325.614,108.325 326.5,107.5C 327.637,110.332 329.303,112.666 331.5,114.5 Z"/></g>
<g><path style="opacity:1" fill="#332810" d="M 331.5,119.5 C 331.66,121.199 331.494,122.866 331,124.5C 330.617,123.944 330.117,123.611 329.5,123.5C 329.489,121.983 328.823,120.816 327.5,120C 328.793,119.51 330.127,119.343 331.5,119.5 Z"/></g>
<g><path style="opacity:0.941" fill="#312907" d="M 326.5,123.5 C 325.508,123.328 324.842,123.662 324.5,124.5C 323.833,124.5 323.167,124.5 322.5,124.5C 324.551,119.228 325.885,118.895 326.5,123.5 Z"/></g>
<g><path style="opacity:0.698" fill="#b3b09e" d="M 321.5,121.5 C 321.263,122.791 321.596,123.791 322.5,124.5C 323.167,124.5 323.833,124.5 324.5,124.5C 322.889,127.163 320.889,127.663 318.5,126C 319.781,124.591 320.781,123.091 321.5,121.5 Z"/></g>
<g><path style="opacity:0.612" fill="#b7ab8e" d="M 331.5,114.5 C 337.624,114.292 338.124,115.959 333,119.5C 332.667,122.167 332.333,124.833 332,127.5C 329.975,125.307 327.475,124.307 324.5,124.5C 324.842,123.662 325.508,123.328 326.5,123.5C 327.5,123.5 328.5,123.5 329.5,123.5C 330.117,123.611 330.617,123.944 331,124.5C 331.494,122.866 331.66,121.199 331.5,119.5C 331.672,118.508 331.338,117.842 330.5,117.5C 331.263,116.732 332.263,116.232 333.5,116C 332.584,115.722 331.918,115.222 331.5,114.5 Z"/></g>
<g><path style="opacity:0.957" fill="#aa9d78" d="M 343.5,133.5 C 343.167,133.5 342.833,133.5 342.5,133.5C 341.91,132.234 341.41,130.901 341,129.5C 340.617,130.056 340.117,130.389 339.5,130.5C 339.167,130.5 338.833,130.5 338.5,130.5C 338.312,128.897 338.812,127.563 340,126.5C 341.167,127.667 342.333,128.833 343.5,130C 342.829,130.986 342.829,132.153 343.5,133.5 Z"/></g>
<g><path style="opacity:0.004" fill="#fffefa" d="M 315.5,131.5 C 317.199,131.34 318.866,131.506 320.5,132C 318.942,132.21 317.609,132.71 316.5,133.5C 316.167,133.5 315.833,133.5 315.5,133.5C 315.5,132.833 315.5,132.167 315.5,131.5 Z"/></g>
<g><path style="opacity:1" fill="#4e432c" d="M 338.5,130.5 C 338.833,130.5 339.167,130.5 339.5,130.5C 339.762,131.978 339.429,133.311 338.5,134.5C 337.702,134.043 337.369,133.376 337.5,132.5C 337.328,131.508 337.662,130.842 338.5,130.5 Z"/></g>
<g><path style="opacity:0.686" fill="#96937d" d="M 316.5,133.5 C 318.5,133.5 320.5,133.5 322.5,133.5C 322.532,135.619 321.532,136.952 319.5,137.5C 319.5,136.833 319.5,136.167 319.5,135.5C 318.5,134.833 317.5,134.167 316.5,133.5 Z"/></g>
<g><path style="opacity:1" fill="#372404" d="M 315.5,133.5 C 315.833,133.5 316.167,133.5 316.5,133.5C 317.5,134.167 318.5,134.833 319.5,135.5C 317.488,136.014 315.488,136.18 313.5,136C 314.381,135.292 315.047,134.458 315.5,133.5 Z"/></g>
<g><path style="opacity:0.961" fill="#312707" d="M 342.5,133.5 C 342.833,133.5 343.167,133.5 343.5,133.5C 343.833,133.5 344.167,133.5 344.5,133.5C 345.167,134.167 345.833,134.833 346.5,135.5C 345.07,135.421 343.736,135.754 342.5,136.5C 341.913,135.767 341.913,134.767 342.5,133.5 Z"/></g>
<g><path style="opacity:0.533" fill="#a09887" d="M 344.5,133.5 C 346.604,133.201 348.604,133.534 350.5,134.5C 349.643,135.425 348.643,136.092 347.5,136.5C 347.5,135.833 347.167,135.5 346.5,135.5C 345.833,134.833 345.167,134.167 344.5,133.5 Z"/></g>
<g><path style="opacity:0.973" fill="#362508" d="M 305.5,136.5 C 305.735,135.903 306.235,135.57 307,135.5C 312.582,136.369 312.749,137.369 307.5,138.5C 307.167,137.5 306.5,136.833 305.5,136.5 Z"/></g>
<g><path style="opacity:1" fill="#38270e" d="M 335.5,138.5 C 335.027,137.094 334.027,136.427 332.5,136.5C 331.537,135.637 331.537,134.97 332.5,134.5C 334.385,135.609 336.385,136.443 338.5,137C 337.473,137.513 336.473,138.013 335.5,138.5 Z"/></g>
<g><path style="opacity:0.973" fill="#b39a44" d="M 342.5,133.5 C 341.913,134.767 341.913,135.767 342.5,136.5C 343.736,135.754 345.07,135.421 346.5,135.5C 347.167,135.5 347.5,135.833 347.5,136.5C 347.218,137.778 346.551,138.778 345.5,139.5C 344.262,138.588 342.928,138.421 341.5,139C 342.823,139.816 343.489,140.983 343.5,142.5C 343.158,143.338 342.492,143.672 341.5,143.5C 341.167,143.5 340.833,143.5 340.5,143.5C 340.5,143.167 340.5,142.833 340.5,142.5C 340.358,137.805 339.025,137.805 336.5,142.5C 335.566,141.432 335.232,140.099 335.5,138.5C 336.473,138.013 337.473,137.513 338.5,137C 336.385,136.443 334.385,135.609 332.5,134.5C 331.537,134.97 331.537,135.637 332.5,136.5C 330.952,136.179 330.285,135.179 330.5,133.5C 332.95,133.702 335.283,133.369 337.5,132.5C 337.369,133.376 337.702,134.043 338.5,134.5C 339.429,133.311 339.762,131.978 339.5,130.5C 340.117,130.389 340.617,130.056 341,129.5C 341.41,130.901 341.91,132.234 342.5,133.5 Z"/></g>
<g><path style="opacity:0.007" fill="#ebe8e4" d="M 305.5,136.5 C 306.5,136.833 307.167,137.5 307.5,138.5C 305.167,139.5 304.5,138.833 305.5,136.5 Z"/></g>
<g><path style="opacity:1" fill="#b9a154" d="M 315.5,131.5 C 315.5,132.167 315.5,132.833 315.5,133.5C 315.047,134.458 314.381,135.292 313.5,136C 315.488,136.18 317.488,136.014 319.5,135.5C 319.5,136.167 319.5,136.833 319.5,137.5C 319.5,138.167 319.167,138.5 318.5,138.5C 318.167,138.5 317.833,138.5 317.5,138.5C 316.325,138.281 315.325,138.614 314.5,139.5C 315.193,140.518 315.859,141.518 316.5,142.5C 316.158,143.338 315.492,143.672 314.5,143.5C 313.833,143.167 313.167,142.833 312.5,142.5C 312.657,141.127 312.49,139.793 312,138.5C 310.859,140.609 309.359,142.442 307.5,144C 307.728,144.399 308.062,144.565 308.5,144.5C 307.762,146.76 306.762,146.927 305.5,145C 306.669,142.993 307.335,140.827 307.5,138.5C 312.749,137.369 312.582,136.369 307,135.5C 306.235,135.57 305.735,135.903 305.5,136.5C 304.078,136.25 303.078,135.417 302.5,134C 304.9,133.814 307.234,133.314 309.5,132.5C 310.641,131.575 310.641,130.741 309.5,130C 310.094,129.536 310.761,129.369 311.5,129.5C 311.461,128.244 311.961,127.244 313,126.5C 314.094,128.078 314.928,129.745 315.5,131.5 Z"/></g>
<g><path style="opacity:1" fill="#312300" d="M 311.5,129.5 C 312.622,131.288 312.789,133.288 312,135.5C 311.308,134.975 310.808,134.308 310.5,133.5C 311.246,132.264 311.579,130.93 311.5,129.5 Z"/></g>
<g><path style="opacity:0.953" fill="#2e1d03" d="M 317.5,138.5 C 317.768,140.099 317.434,141.432 316.5,142.5C 315.859,141.518 315.193,140.518 314.5,139.5C 315.325,138.614 316.325,138.281 317.5,138.5 Z"/></g>
<g><path style="opacity:1" fill="#513c0b" d="M 340.5,142.5 C 340.167,142.5 339.833,142.5 339.5,142.5C 338.5,142.5 337.5,142.5 336.5,142.5C 339.025,137.805 340.358,137.805 340.5,142.5 Z"/></g>
<g><path style="opacity:0.91" fill="#3f2c17" d="M 345.5,139.5 C 345.5,139.833 345.5,140.167 345.5,140.5C 345.869,142.993 345.203,143.66 343.5,142.5C 343.489,140.983 342.823,139.816 341.5,139C 342.928,138.421 344.262,138.588 345.5,139.5 Z"/></g>
<g><path style="opacity:0.976" fill="#44321f" d="M 312.5,142.5 C 311.29,142.932 310.29,143.599 309.5,144.5C 309.167,144.5 308.833,144.5 308.5,144.5C 308.062,144.565 307.728,144.399 307.5,144C 309.359,142.442 310.859,140.609 312,138.5C 312.49,139.793 312.657,141.127 312.5,142.5 Z"/></g>
<g><path style="opacity:0.012" fill="#f1eff0" d="M 312.5,142.5 C 312.179,144.048 311.179,144.715 309.5,144.5C 310.29,143.599 311.29,142.932 312.5,142.5 Z"/></g>
<g><path style="opacity:0.922" fill="#969081" d="M 332.5,136.5 C 334.027,136.427 335.027,137.094 335.5,138.5C 335.232,140.099 335.566,141.432 336.5,142.5C 337.5,142.5 338.5,142.5 339.5,142.5C 339.5,142.833 339.5,143.167 339.5,143.5C 337.614,144.361 335.78,145.361 334,146.5C 333.708,144.674 333.875,142.841 334.5,141C 334.481,139.167 333.815,137.667 332.5,136.5 Z"/></g>
<g><path style="opacity:0.651" fill="#aba395" d="M 317.5,138.5 C 317.833,138.5 318.167,138.5 318.5,138.5C 319.205,141.244 319.205,143.911 318.5,146.5C 317.099,145.479 315.765,144.479 314.5,143.5C 315.492,143.672 316.158,143.338 316.5,142.5C 317.434,141.432 317.768,140.099 317.5,138.5 Z"/></g>
<g><path style="opacity:0.51" fill="#c0b29d" d="M 345.5,140.5 C 346.622,142.288 346.789,144.288 346,146.5C 344.591,145.219 343.091,144.219 341.5,143.5C 342.492,143.672 343.158,143.338 343.5,142.5C 345.203,143.66 345.869,142.993 345.5,140.5 Z"/></g>
<g><path style="opacity:0.957" fill="#c3b082" d="M 336.5,153.5 C 334.833,153.5 333.167,153.5 331.5,153.5C 328.777,150.323 325.444,149.656 321.5,151.5C 323.046,150.14 324.88,149.14 327,148.5C 330.165,150.331 333.332,151.997 336.5,153.5 Z"/></g>
<g><path style="opacity:1" fill="#f6c40f" d="M 104.5,149.5 C 106.833,149.5 109.167,149.5 111.5,149.5C 111.759,158.347 112.426,167.014 113.5,175.5C 114.5,191.505 114.5,207.505 113.5,223.5C 112.14,224.18 110.807,224.847 109.5,225.5C 107.076,225.192 104.743,225.526 102.5,226.5C 103.943,231.473 103.11,231.806 100,227.5C 98.3851,229.011 98.3851,230.344 100,231.5C 100.406,235.34 100.239,239.173 99.5,243C 99.5687,244.986 100.235,246.486 101.5,247.5C 112.461,272.089 124.461,296.089 137.5,319.5C 137.462,322.181 138.129,324.681 139.5,327C 138.852,328.44 138.519,329.94 138.5,331.5C 141.825,331.494 144.159,332.994 145.5,336C 147.405,337.421 149.405,338.588 151.5,339.5C 151.712,341.384 152.712,342.717 154.5,343.5C 161.666,345.236 168.499,344.57 175,341.5C 176.533,341.773 178.033,342.106 179.5,342.5C 184.071,344.738 188.071,347.738 191.5,351.5C 191.643,353.262 191.309,354.929 190.5,356.5C 194.977,357.073 198.977,358.74 202.5,361.5C 203.452,363.045 203.785,364.712 203.5,366.5C 207.35,366.97 211.017,367.97 214.5,369.5C 214.525,372.179 215.858,373.512 218.5,373.5C 218.286,375.144 218.62,376.644 219.5,378C 223.068,378.688 226.401,379.855 229.5,381.5C 231.045,385.784 229.378,387.618 224.5,387C 223.663,388.011 223.33,389.178 223.5,390.5C 219.413,391.136 215.747,392.636 212.5,395C 208.5,395.333 204.5,395.667 200.5,396C 197.783,399.188 194.45,401.021 190.5,401.5C 185.167,401.5 179.833,401.5 174.5,401.5C 173.5,401.5 172.5,401.5 171.5,401.5C 171.047,400.542 170.381,399.708 169.5,399C 166.57,398.156 163.904,396.822 161.5,395C 158.883,394.178 156.216,393.678 153.5,393.5C 146.186,390.03 139.52,385.53 133.5,380C 119.124,366.471 106.458,351.637 95.5,335.5C 96.0189,331.521 94.3522,329.187 90.5,328.5C 88.8333,325.833 87.1667,323.167 85.5,320.5C 85.2965,318.61 85.9632,317.11 87.5,316C 86.4366,314.812 85.1033,314.312 83.5,314.5C 83.7852,312.712 83.4519,311.045 82.5,309.5C 81.914,309.709 81.414,310.043 81,310.5C 78.408,305.554 76.2413,300.387 74.5,295C 75.406,290.853 75.5726,286.686 75,282.5C 73.8372,284.285 73.1705,286.285 73,288.5C 70.8746,285.192 69.0413,281.859 67.5,278.5C 66.9892,269.383 65.8225,260.383 64,251.5C 63.3292,250.748 62.4959,250.414 61.5,250.5C 61.5,250.167 61.5,249.833 61.5,249.5C 59.5227,228.552 58.5227,207.552 58.5,186.5C 60.6418,183.2 61.9751,179.533 62.5,175.5C 65.6517,173.883 67.3184,171.216 67.5,167.5C 70.7642,165.906 73.4309,163.573 75.5,160.5C 78.0078,158.076 81.0078,156.41 84.5,155.5C 88.1645,155.498 91.1645,154.165 93.5,151.5C 97.0712,150.358 100.738,149.691 104.5,149.5 Z"/></g>
<g><path style="opacity:0.922" fill="#cdbf8f" d="M 353.5,151.5 C 354.274,150.853 355.274,150.52 356.5,150.5C 358.355,150.34 359.688,151.007 360.5,152.5C 359.833,152.5 359.167,152.5 358.5,152.5C 356.883,151.962 355.216,151.629 353.5,151.5 Z"/></g>
<g><path style="opacity:1" fill="#c0a448" d="M 331.5,153.5 C 330.504,153.586 329.671,153.252 329,152.5C 328.505,154.473 328.338,156.473 328.5,158.5C 327.167,157.167 325.833,157.167 324.5,158.5C 324.662,156.473 324.495,154.473 324,152.5C 323.586,152.957 323.086,153.291 322.5,153.5C 321.795,156.089 321.795,158.756 322.5,161.5C 321.833,161.5 321.167,161.5 320.5,161.5C 319.518,159.594 318.518,157.594 317.5,155.5C 316.817,155.863 316.15,156.196 315.5,156.5C 313.052,155.527 310.385,155.194 307.5,155.5C 312.118,154.41 316.785,153.077 321.5,151.5C 325.444,149.656 328.777,150.323 331.5,153.5 Z"/></g>
<g><path style="opacity:1" fill="#f1d265" d="M 93.5,151.5 C 91.1645,154.165 88.1645,155.498 84.5,155.5C 87.0884,153.408 90.0884,152.075 93.5,151.5 Z"/></g>
<g><path style="opacity:0.91" fill="#baa77a" d="M 294.5,152.5 C 295.222,152.918 295.722,153.584 296,154.5C 299.55,150.099 300.716,150.599 299.5,156C 299.836,157.03 300.503,157.53 301.5,157.5C 300.739,158.391 299.739,159.058 298.5,159.5C 298.471,158.166 297.637,156.833 296,155.5C 295.086,159.185 294.419,158.852 294,154.5C 293.667,154.833 293.333,155.167 293,155.5C 291.951,153.893 290.451,153.227 288.5,153.5C 290.32,151.539 292.32,151.206 294.5,152.5 Z"/></g>
<g><path style="opacity:1" fill="#deb420" d="M 353.5,151.5 C 355.216,151.629 356.883,151.962 358.5,152.5C 359.067,154.03 359.733,155.53 360.5,157C 358.668,157.748 357.001,158.748 355.5,160C 357.5,159.667 359.5,159.333 361.5,159C 361.751,160.95 362.418,163.116 363.5,165.5C 361.955,166.452 360.288,166.785 358.5,166.5C 355.45,164.072 353.117,161.072 351.5,157.5C 351.5,155.833 351.5,154.167 351.5,152.5C 352.167,152.167 352.833,151.833 353.5,151.5 Z"/></g>
<g><path style="opacity:1" fill="#c8ae54" d="M 286.5,154.5 C 288.038,156.551 287.704,158.218 285.5,159.5C 285.002,158.397 284.669,157.397 284.5,156.5C 283.833,158.5 283.167,160.5 282.5,162.5C 281.824,161.398 281.158,160.398 280.5,159.5C 281.28,156.447 283.28,154.78 286.5,154.5 Z"/></g>
<g><path style="opacity:0.937" fill="#d7c99e" d="M 305.5,155.5 C 304.222,155.782 303.222,156.449 302.5,157.5C 302.167,157.5 301.833,157.5 301.5,157.5C 300.615,155.73 301.448,154.73 304,154.5C 304.765,154.57 305.265,154.903 305.5,155.5 Z"/></g>
<g><path style="opacity:1" fill="#cbaa31" d="M 305.5,155.5 C 306.167,155.5 306.833,155.5 307.5,155.5C 310.385,155.194 313.052,155.527 315.5,156.5C 316.015,158.894 316.681,161.228 317.5,163.5C 316.833,164.167 316.167,164.833 315.5,165.5C 313.94,163.046 312.94,160.38 312.5,157.5C 311.022,157.238 309.689,157.571 308.5,158.5C 310.766,162.034 312.766,165.7 314.5,169.5C 315.686,170.961 315.686,172.295 314.5,173.5C 311.159,168.495 307.826,163.495 304.5,158.5C 303.585,159.328 302.919,160.328 302.5,161.5C 306.525,167.185 310.525,172.851 314.5,178.5C 315.625,179.652 315.625,180.652 314.5,181.5C 313.504,181.586 312.671,181.252 312,180.5C 311.517,181.448 311.351,182.448 311.5,183.5C 308.366,182.099 305.366,180.432 302.5,178.5C 301.167,176.833 301.167,175.167 302.5,173.5C 305.13,175.628 307.63,177.961 310,180.5C 310.667,179.167 310.667,177.833 310,176.5C 307,172.5 304,168.5 301,164.5C 299.272,165.352 299.105,166.352 300.5,167.5C 300.5,168.167 300.167,168.5 299.5,168.5C 299.5,167.833 299.167,167.5 298.5,167.5C 299.809,164.207 301.142,160.874 302.5,157.5C 303.222,156.449 304.222,155.782 305.5,155.5 Z"/></g>
<g><path style="opacity:1" fill="#f6c30c" d="M 134.5,153.5 C 136.587,154.585 137.92,156.251 138.5,158.5C 138.833,175.18 138.499,191.847 137.5,208.5C 136.914,208.291 136.414,207.957 136,207.5C 135.503,210.146 135.336,212.813 135.5,215.5C 131.394,217.249 126.727,218.582 121.5,219.5C 120.553,196.855 120.22,174.189 120.5,151.5C 125.202,151.95 129.868,152.617 134.5,153.5 Z"/></g>
<g><path style="opacity:0.725" fill="#f5de87" d="M 131.5,151.5 C 127.5,150.833 123.5,150.167 119.5,149.5C 119.5,165.167 119.5,180.833 119.5,196.5C 118.339,180.672 118.172,164.672 119,148.5C 123.519,147.838 127.686,148.838 131.5,151.5 Z"/></g>
<g><path style="opacity:1" fill="#301e00" d="M 324.5,158.5 C 324.768,160.099 324.434,161.432 323.5,162.5C 323.5,161.833 323.167,161.5 322.5,161.5C 321.795,158.756 321.795,156.089 322.5,153.5C 323.086,153.291 323.586,152.957 324,152.5C 324.495,154.473 324.662,156.473 324.5,158.5 Z"/></g>
<g><path style="opacity:1" fill="#2f2002" d="M 331.5,153.5 C 331.5,154.833 331.5,156.167 331.5,157.5C 330.852,159.086 330.352,160.753 330,162.5C 329.283,161.956 328.783,161.289 328.5,160.5C 328.5,159.833 328.5,159.167 328.5,158.5C 328.338,156.473 328.505,154.473 329,152.5C 329.671,153.252 330.504,153.586 331.5,153.5 Z"/></g>
<g><path style="opacity:1" fill="#342302" d="M 334.5,165.5 C 333.772,167.512 332.938,169.512 332,171.5C 331.13,170.892 330.63,170.059 330.5,169C 331.429,165.447 332.429,161.947 333.5,158.5C 334.158,157.602 334.824,156.602 335.5,155.5C 336.72,155.887 337.387,156.72 337.5,158C 336.349,160.465 335.349,162.965 334.5,165.5 Z"/></g>
<g><path style="opacity:1" fill="#322403" d="M 314.5,173.5 C 315.72,175.284 315.72,176.95 314.5,178.5C 310.525,172.851 306.525,167.185 302.5,161.5C 302.919,160.328 303.585,159.328 304.5,158.5C 307.826,163.495 311.159,168.495 314.5,173.5 Z"/></g>
<g><path style="opacity:1" fill="#c9a836" d="M 351.5,152.5 C 351.5,154.167 351.5,155.833 351.5,157.5C 350.957,157.56 350.624,157.893 350.5,158.5C 351.833,160.833 353.167,163.167 354.5,165.5C 354.03,166.463 353.363,166.463 352.5,165.5C 349.17,167.863 346.17,171.196 343.5,175.5C 342.833,175.5 342.167,175.5 341.5,175.5C 343.728,171.388 346.228,167.388 349,163.5C 349.798,161.741 349.631,160.074 348.5,158.5C 344.922,163.32 341.588,168.32 338.5,173.5C 337.314,172.295 337.314,170.961 338.5,169.5C 340.219,165.732 342.219,162.065 344.5,158.5C 343.167,157.167 341.833,157.167 340.5,158.5C 339.688,160.945 338.688,163.278 337.5,165.5C 336.5,164.167 335.5,164.167 334.5,165.5C 335.349,162.965 336.349,160.465 337.5,158C 337.387,156.72 336.72,155.887 335.5,155.5C 334.824,156.602 334.158,157.602 333.5,158.5C 333.633,155.075 332.967,154.742 331.5,157.5C 331.5,156.167 331.5,154.833 331.5,153.5C 333.167,153.5 334.833,153.5 336.5,153.5C 337.609,153.557 338.609,153.89 339.5,154.5C 342.625,155.479 345.958,155.813 349.5,155.5C 350.167,154.5 350.833,153.5 351.5,152.5 Z"/></g>
<g><path style="opacity:0.016" fill="#f8f4d5" d="M 349.5,155.5 C 345.958,155.813 342.625,155.479 339.5,154.5C 342.777,154.784 345.943,154.451 349,153.5C 349.464,154.094 349.631,154.761 349.5,155.5 Z"/></g>
<g><path style="opacity:1" fill="#745618" d="M 328.5,158.5 C 328.5,159.167 328.5,159.833 328.5,160.5C 327.85,160.196 327.183,159.863 326.5,159.5C 325.676,162.785 325.176,166.118 325,169.5C 324.71,167.08 324.21,164.746 323.5,162.5C 324.434,161.432 324.768,160.099 324.5,158.5C 325.833,157.167 327.167,157.167 328.5,158.5 Z"/></g>
<g><path style="opacity:1" fill="#d9b024" d="M 367.5,155.5 C 368.082,157.669 368.082,160.002 367.5,162.5C 366.5,162.5 365.5,162.5 364.5,162.5C 364.5,160.833 364.5,159.167 364.5,157.5C 363.5,157.5 362.5,157.5 361.5,157.5C 361.354,155.058 362.187,154.391 364,155.5C 364.333,154.833 364.667,154.167 365,153.5C 365.708,154.381 366.542,155.047 367.5,155.5 Z"/></g>
<g><path style="opacity:1" fill="#efc83e" d="M 131.5,151.5 C 132.71,151.932 133.71,152.599 134.5,153.5C 129.868,152.617 125.202,151.95 120.5,151.5C 120.22,174.189 120.553,196.855 121.5,219.5C 126.727,218.582 131.394,217.249 135.5,215.5C 131.615,219.274 126.948,221.107 121.5,221C 121,220.5 120.5,220 120,219.5C 119.5,211.841 119.334,204.174 119.5,196.5C 119.5,180.833 119.5,165.167 119.5,149.5C 123.5,150.167 127.5,150.833 131.5,151.5 Z"/></g>
<g><path style="opacity:1" fill="#cfb24e" d="M 367.5,155.5 C 371.106,155.939 373.272,157.939 374,161.5C 375.147,160.542 376.147,160.875 377,162.5C 377.869,165.113 378.369,167.78 378.5,170.5C 379.791,170.263 380.791,170.596 381.5,171.5C 381.737,172.791 381.404,173.791 380.5,174.5C 380.565,174.062 380.399,173.728 380,173.5C 377.852,177.614 376.518,177.281 376,172.5C 375.683,174.301 375.016,174.634 374,173.5C 372.642,171.596 372.809,169.596 374.5,167.5C 374.217,164.258 373.383,163.924 372,166.5C 370.383,165.464 370.216,164.297 371.5,163C 370.906,162.536 370.239,162.369 369.5,162.5C 369.918,161.778 370.584,161.278 371.5,161C 369.807,160.516 368.473,161.016 367.5,162.5C 368.082,160.002 368.082,157.669 367.5,155.5 Z"/></g>
<g><path style="opacity:1" fill="#debe3d" d="M 279.5,162.5 C 280.11,163.391 280.443,164.391 280.5,165.5C 279.609,166.11 278.609,166.443 277.5,166.5C 277.229,164.62 277.896,163.287 279.5,162.5 Z"/></g>
<g><path style="opacity:0.69" fill="#cbb158" d="M 291.5,161.5 C 291.811,162.478 292.478,163.145 293.5,163.5C 294.891,162.355 296.224,162.355 297.5,163.5C 295.172,164.724 292.839,164.724 290.5,163.5C 288.078,165.149 287.411,167.149 288.5,169.5C 287.542,169.047 286.708,168.381 286,167.5C 285.751,168.624 285.251,169.624 284.5,170.5C 282.358,169.563 282.024,168.23 283.5,166.5C 284.204,162.294 286.037,160.961 289,162.5C 289.333,160.833 289.667,159.167 290,157.5C 290.21,159.058 290.71,160.391 291.5,161.5 Z"/></g>
<g><path style="opacity:1" fill="#362402" d="M 315.5,165.5 C 315.5,166.833 315.5,168.167 315.5,169.5C 315.167,169.5 314.833,169.5 314.5,169.5C 312.766,165.7 310.766,162.034 308.5,158.5C 309.689,157.571 311.022,157.238 312.5,157.5C 312.94,160.38 313.94,163.046 315.5,165.5 Z"/></g>
<g><path style="opacity:1" fill="#362202" d="M 338.5,169.5 C 338.167,169.5 337.833,169.5 337.5,169.5C 337.5,168.167 337.5,166.833 337.5,165.5C 338.688,163.278 339.688,160.945 340.5,158.5C 341.833,157.167 343.167,157.167 344.5,158.5C 342.219,162.065 340.219,165.732 338.5,169.5 Z"/></g>
<g><path style="opacity:0.902" fill="#f6e084" d="M 75.5,160.5 C 73.4309,163.573 70.7642,165.906 67.5,167.5C 69.5691,164.427 72.2358,162.094 75.5,160.5 Z"/></g>
<g><path style="opacity:0.863" fill="#91782a" d="M 288.5,153.5 C 290.451,153.227 291.951,153.893 293,155.5C 293.333,155.167 293.667,154.833 294,154.5C 294.419,158.852 295.086,159.185 296,155.5C 297.637,156.833 298.471,158.166 298.5,159.5C 299.739,159.058 300.739,158.391 301.5,157.5C 301.833,157.5 302.167,157.5 302.5,157.5C 301.142,160.874 299.809,164.207 298.5,167.5C 297.527,166.016 296.193,165.516 294.5,166C 295.337,167.011 295.67,168.178 295.5,169.5C 293.167,169.5 290.833,169.5 288.5,169.5C 287.411,167.149 288.078,165.149 290.5,163.5C 292.839,164.724 295.172,164.724 297.5,163.5C 296.224,162.355 294.891,162.355 293.5,163.5C 292.478,163.145 291.811,162.478 291.5,161.5C 290.71,160.391 290.21,159.058 290,157.5C 289.667,159.167 289.333,160.833 289,162.5C 286.037,160.961 284.204,162.294 283.5,166.5C 282.778,166.082 282.278,165.416 282,164.5C 281.617,165.056 281.117,165.389 280.5,165.5C 280.443,164.391 280.11,163.391 279.5,162.5C 279.557,161.391 279.89,160.391 280.5,159.5C 281.158,160.398 281.824,161.398 282.5,162.5C 283.167,160.5 283.833,158.5 284.5,156.5C 284.669,157.397 285.002,158.397 285.5,159.5C 287.704,158.218 288.038,156.551 286.5,154.5C 286.842,153.662 287.508,153.328 288.5,153.5 Z"/></g>
<g><path style="opacity:1" fill="#eac637" d="M 291.5,161.5 C 291.231,159.571 291.731,157.905 293,156.5C 293.877,158.674 293.377,160.341 291.5,161.5 Z"/></g>
<g><path style="opacity:1" fill="#a47e1a" d="M 367.5,155.5 C 366.542,155.047 365.708,154.381 365,153.5C 364.667,154.167 364.333,154.833 364,155.5C 362.187,154.391 361.354,155.058 361.5,157.5C 362.5,157.5 363.5,157.5 364.5,157.5C 364.5,159.167 364.5,160.833 364.5,162.5C 365.5,162.5 366.5,162.5 367.5,162.5C 367.082,163.222 366.416,163.722 365.5,164C 365.833,164.333 366.167,164.667 366.5,165C 365.692,165.308 365.025,165.808 364.5,166.5C 365.641,167.425 365.641,168.259 364.5,169C 365.591,170.55 366.924,171.717 368.5,172.5C 366.486,172.392 364.82,173.058 363.5,174.5C 363.5,174.167 363.5,173.833 363.5,173.5C 364.275,171.612 364.275,169.612 363.5,167.5C 361.833,167.5 360.167,167.5 358.5,167.5C 358.5,167.167 358.5,166.833 358.5,166.5C 360.288,166.785 361.955,166.452 363.5,165.5C 362.418,163.116 361.751,160.95 361.5,159C 359.5,159.333 357.5,159.667 355.5,160C 357.001,158.748 358.668,157.748 360.5,157C 359.733,155.53 359.067,154.03 358.5,152.5C 359.167,152.5 359.833,152.5 360.5,152.5C 363.99,149.896 366.324,150.896 367.5,155.5 Z"/></g>
<g><path style="opacity:0.957" fill="#b19f73" d="M 280.5,159.5 C 279.89,160.391 279.557,161.391 279.5,162.5C 277.896,163.287 277.229,164.62 277.5,166.5C 277.672,167.492 277.338,168.158 276.5,168.5C 275.85,168.196 275.183,167.863 274.5,167.5C 273.833,169.167 273.167,170.833 272.5,172.5C 270.117,171.538 269.117,172.538 269.5,175.5C 268.609,176.11 267.609,176.443 266.5,176.5C 269.729,169.609 274.395,163.942 280.5,159.5 Z"/></g>
<g><path style="opacity:1" fill="#e0b929" d="M 358.5,167.5 C 360.167,167.5 361.833,167.5 363.5,167.5C 364.275,169.612 364.275,171.612 363.5,173.5C 362.5,173.5 361.5,173.5 360.5,173.5C 359.833,173.5 359.5,173.167 359.5,172.5C 359.371,170.784 359.038,169.117 358.5,167.5 Z"/></g>
<g><path style="opacity:1" fill="#3d2804" d="M 320.5,161.5 C 320.222,164.29 320.889,166.79 322.5,169C 322.387,170.28 321.72,171.113 320.5,171.5C 319.686,169.234 319.186,166.9 319,164.5C 318.617,163.944 318.117,163.611 317.5,163.5C 316.681,161.228 316.015,158.894 315.5,156.5C 316.15,156.196 316.817,155.863 317.5,155.5C 318.518,157.594 319.518,159.594 320.5,161.5 Z"/></g>
<g><path style="opacity:1" fill="#312303" d="M 341.5,175.5 C 339.926,175.937 338.759,176.937 338,178.5C 337.36,176.735 337.527,175.068 338.5,173.5C 341.588,168.32 344.922,163.32 348.5,158.5C 349.631,160.074 349.798,161.741 349,163.5C 346.228,167.388 343.728,171.388 341.5,175.5 Z"/></g>
<g><path style="opacity:0.412" fill="#c4ba9b" d="M 298.5,167.5 C 299.167,167.5 299.5,167.833 299.5,168.5C 299.5,169.167 299.5,169.833 299.5,170.5C 298.778,170.082 298.278,169.416 298,168.5C 297.051,170.093 295.885,171.426 294.5,172.5C 292.629,171.203 290.629,170.203 288.5,169.5C 290.833,169.5 293.167,169.5 295.5,169.5C 295.67,168.178 295.337,167.011 294.5,166C 296.193,165.516 297.527,166.016 298.5,167.5 Z"/></g>
<g><path style="opacity:1" fill="#312204" d="M 302.5,173.5 C 302.125,171.302 301.458,169.302 300.5,167.5C 299.105,166.352 299.272,165.352 301,164.5C 304,168.5 307,172.5 310,176.5C 310.667,177.833 310.667,179.167 310,180.5C 307.63,177.961 305.13,175.628 302.5,173.5 Z"/></g>
<g><path style="opacity:1" fill="#e7bc1d" d="M 369.5,162.5 C 369.64,164.124 368.973,165.29 367.5,166C 372.311,168.763 372.644,170.93 368.5,172.5C 366.924,171.717 365.591,170.55 364.5,169C 365.641,168.259 365.641,167.425 364.5,166.5C 365.025,165.808 365.692,165.308 366.5,165C 366.167,164.667 365.833,164.333 365.5,164C 366.416,163.722 367.082,163.222 367.5,162.5C 368.473,161.016 369.807,160.516 371.5,161C 370.584,161.278 369.918,161.778 369.5,162.5 Z"/></g>
<g><path style="opacity:1" fill="#e4bb25" d="M 333.5,158.5 C 332.429,161.947 331.429,165.447 330.5,169C 330.63,170.059 331.13,170.892 332,171.5C 332.938,169.512 333.772,167.512 334.5,165.5C 335.5,164.167 336.5,164.167 337.5,165.5C 337.5,166.833 337.5,168.167 337.5,169.5C 336.676,173.312 336.176,177.312 336,181.5C 335,182.5 334,183.5 333,184.5C 332.833,183.833 332.667,183.167 332.5,182.5C 335.003,180.197 335.67,177.531 334.5,174.5C 329.167,173.167 323.833,173.167 318.5,174.5C 318.069,175.293 317.735,176.127 317.5,177C 318.619,179.289 319.953,181.455 321.5,183.5C 319.671,184.282 318.171,183.616 317,181.5C 316.824,177.312 316.324,173.312 315.5,169.5C 315.5,168.167 315.5,166.833 315.5,165.5C 316.167,164.833 316.833,164.167 317.5,163.5C 318.117,163.611 318.617,163.944 319,164.5C 319.186,166.9 319.686,169.234 320.5,171.5C 321.72,171.113 322.387,170.28 322.5,169C 320.889,166.79 320.222,164.29 320.5,161.5C 321.167,161.5 321.833,161.5 322.5,161.5C 323.167,161.5 323.5,161.833 323.5,162.5C 324.21,164.746 324.71,167.08 325,169.5C 325.176,166.118 325.676,162.785 326.5,159.5C 327.183,159.863 327.85,160.196 328.5,160.5C 328.783,161.289 329.283,161.956 330,162.5C 330.352,160.753 330.852,159.086 331.5,157.5C 332.967,154.742 333.633,155.075 333.5,158.5 Z"/></g>
<g><path style="opacity:0.51" fill="#f7e27f" d="M 104.5,149.5 C 106.948,148.527 109.615,148.194 112.5,148.5C 113.166,157.485 113.499,166.485 113.5,175.5C 112.426,167.014 111.759,158.347 111.5,149.5C 109.167,149.5 106.833,149.5 104.5,149.5 Z"/></g>
<g><path style="opacity:1" fill="#2e1d06" d="M 352.5,165.5 C 352.071,169.237 350.738,172.57 348.5,175.5C 346.754,177.252 344.754,178.585 342.5,179.5C 342.433,178.041 342.766,176.708 343.5,175.5C 346.17,171.196 349.17,167.863 352.5,165.5 Z"/></g>
<g><path style="opacity:1" fill="#f3cf62" d="M 67.5,167.5 C 67.3184,171.216 65.6517,173.883 62.5,175.5C 63.3833,172.296 65.0499,169.629 67.5,167.5 Z"/></g>
<g><path style="opacity:1" fill="#ac870f" d="M 369.5,162.5 C 370.239,162.369 370.906,162.536 371.5,163C 370.216,164.297 370.383,165.464 372,166.5C 373.383,163.924 374.217,164.258 374.5,167.5C 372.809,169.596 372.642,171.596 374,173.5C 375.016,174.634 375.683,174.301 376,172.5C 376.518,177.281 377.852,177.614 380,173.5C 380.399,173.728 380.565,174.062 380.5,174.5C 381.189,175.774 382.023,175.774 383,174.5C 383.464,175.094 383.631,175.761 383.5,176.5C 383.443,178.884 383.777,181.218 384.5,183.5C 384.167,184.167 383.833,184.833 383.5,185.5C 382.534,183.604 382.201,181.604 382.5,179.5C 381.5,179.5 380.5,179.5 379.5,179.5C 379.247,181.827 379.914,183.827 381.5,185.5C 380.626,187.747 380.292,190.08 380.5,192.5C 379.527,192.013 378.527,191.513 377.5,191C 379.007,190.163 379.507,188.996 379,187.5C 377.512,189.267 376.012,189.601 374.5,188.5C 375.325,187.614 376.325,187.281 377.5,187.5C 380.154,181.724 378.487,178.057 372.5,176.5C 371.253,178.006 371.253,179.506 372.5,181C 370.942,181.21 369.609,181.71 368.5,182.5C 367.512,181.205 366.512,179.872 365.5,178.5C 366.35,176.397 367.35,174.397 368.5,172.5C 372.644,170.93 372.311,168.763 367.5,166C 368.973,165.29 369.64,164.124 369.5,162.5 Z"/></g>
<g><path style="opacity:1" fill="#ceae38" d="M 276.5,168.5 C 275.882,171.398 274.715,174.065 273,176.5C 272.329,177.252 271.496,177.586 270.5,177.5C 270.167,176.833 269.833,176.167 269.5,175.5C 269.117,172.538 270.117,171.538 272.5,172.5C 273.167,170.833 273.833,169.167 274.5,167.5C 275.183,167.863 275.85,168.196 276.5,168.5 Z"/></g>
<g><path style="opacity:1" fill="#e9c124" d="M 368.5,172.5 C 367.35,174.397 366.35,176.397 365.5,178.5C 363.824,177.817 363.157,176.483 363.5,174.5C 364.82,173.058 366.486,172.392 368.5,172.5 Z"/></g>
<g><path style="opacity:1" fill="#e1be34" d="M 277.5,176.5 C 277.5,176.833 277.5,177.167 277.5,177.5C 277.211,182.592 276.211,182.759 274.5,178C 274.862,176.775 275.362,175.609 276,174.5C 276.278,175.416 276.778,176.082 277.5,176.5 Z"/></g>
<g><path style="opacity:0.996" fill="#a88e3e" d="M 283.5,166.5 C 282.024,168.23 282.358,169.563 284.5,170.5C 285.251,169.624 285.751,168.624 286,167.5C 286.708,168.381 287.542,169.047 288.5,169.5C 290.629,170.203 292.629,171.203 294.5,172.5C 293.833,172.5 293.5,172.833 293.5,173.5C 289.075,174.19 285.241,173.19 282,170.5C 280.551,174.84 281.717,176.174 285.5,174.5C 290.649,175.914 290.649,177.581 285.5,179.5C 283.379,179.675 281.379,179.341 279.5,178.5C 278.833,178.167 278.167,177.833 277.5,177.5C 277.5,177.167 277.5,176.833 277.5,176.5C 277.918,175.778 278.584,175.278 279.5,175C 278.941,174.275 278.608,173.442 278.5,172.5C 279.937,170.423 280.604,168.09 280.5,165.5C 281.117,165.389 281.617,165.056 282,164.5C 282.278,165.416 282.778,166.082 283.5,166.5 Z"/></g>
<g><path style="opacity:1" fill="#f0d265" d="M 62.5,175.5 C 61.9751,179.533 60.6418,183.2 58.5,186.5C 58.6667,182.327 60,178.66 62.5,175.5 Z"/></g>
<g><path style="opacity:0.976" fill="#80671e" d="M 280.5,165.5 C 280.604,168.09 279.937,170.423 278.5,172.5C 278.608,173.442 278.941,174.275 279.5,175C 278.584,175.278 277.918,175.778 277.5,176.5C 276.778,176.082 276.278,175.416 276,174.5C 275.362,175.609 274.862,176.775 274.5,178C 276.211,182.759 277.211,182.592 277.5,177.5C 278.167,177.833 278.833,178.167 279.5,178.5C 279.5,179.5 279.5,180.5 279.5,181.5C 279.328,182.492 279.662,183.158 280.5,183.5C 280.047,184.458 279.381,185.292 278.5,186C 278.833,186.333 279.167,186.667 279.5,187C 277.924,187.44 276.59,188.273 275.5,189.5C 274.261,189.058 273.261,188.391 272.5,187.5C 269.158,190.844 269.158,194.177 272.5,197.5C 270.952,197.821 270.285,198.821 270.5,200.5C 269.294,201.88 269.627,203.047 271.5,204C 270.226,204.977 270.226,205.811 271.5,206.5C 271.557,207.609 271.89,208.609 272.5,209.5C 271.508,209.328 270.842,209.662 270.5,210.5C 269.833,210.167 269.167,209.833 268.5,209.5C 268.167,209.5 267.833,209.5 267.5,209.5C 266.833,209.5 266.167,209.5 265.5,209.5C 265.167,209.5 264.833,209.5 264.5,209.5C 264.5,209.167 264.5,208.833 264.5,208.5C 265.833,208.5 267.167,208.5 268.5,208.5C 268.649,207.448 268.483,206.448 268,205.5C 265.982,204.777 264.148,203.777 262.5,202.5C 261.375,201.348 261.375,200.348 262.5,199.5C 267.17,205.478 268.504,204.811 266.5,197.5C 266.938,197.565 267.272,197.399 267.5,197C 266.584,196.722 265.918,196.222 265.5,195.5C 267.652,194.923 267.985,193.756 266.5,192C 269.714,191.59 270.38,190.09 268.5,187.5C 268.919,186.328 269.585,185.328 270.5,184.5C 270.481,182.138 270.481,179.805 270.5,177.5C 271.496,177.586 272.329,177.252 273,176.5C 274.715,174.065 275.882,171.398 276.5,168.5C 277.338,168.158 277.672,167.492 277.5,166.5C 278.609,166.443 279.609,166.11 280.5,165.5 Z"/></g>
<g><path style="opacity:0.969" fill="#b59f64" d="M 360.5,173.5 C 361.5,173.5 362.5,173.5 363.5,173.5C 363.5,173.833 363.5,174.167 363.5,174.5C 363.157,176.483 363.824,177.817 365.5,178.5C 366.512,179.872 367.512,181.205 368.5,182.5C 369.785,183.785 371.119,185.119 372.5,186.5C 371.029,188.83 370.696,191.164 371.5,193.5C 371.167,193.5 370.833,193.5 370.5,193.5C 369.522,193.189 368.855,192.522 368.5,191.5C 369.167,190.167 369.833,188.833 370.5,187.5C 368.445,184.609 365.945,182.275 363,180.5C 362.832,177.823 361.999,175.49 360.5,173.5 Z"/></g>
<g><path style="opacity:0.686" fill="#b4a991" d="M 266.5,177.5 C 265.014,181.986 264.014,187.319 263.5,193.5C 262.094,193.973 261.427,194.973 261.5,196.5C 262.335,192.913 262.335,189.413 261.5,186C 262.803,182.896 264.47,180.063 266.5,177.5 Z"/></g>
<g><path style="opacity:1" fill="#d2b031" d="M 279.5,178.5 C 281.379,179.341 283.379,179.675 285.5,179.5C 286.043,179.56 286.376,179.893 286.5,180.5C 284.257,181.474 281.924,181.808 279.5,181.5C 279.5,180.5 279.5,179.5 279.5,178.5 Z"/></g>
<g><path style="opacity:0.831" fill="#b29f66" d="M 381.5,171.5 C 384.909,174.242 387.909,177.242 390.5,180.5C 390.194,183.385 390.527,186.052 391.5,188.5C 394.046,195.461 393.713,202.461 390.5,209.5C 390.736,212.609 390.403,215.609 389.5,218.5C 388.999,222.868 386.666,225.535 382.5,226.5C 382.5,226.167 382.5,225.833 382.5,225.5C 384.822,224.198 386.155,222.198 386.5,219.5C 387.315,218.571 388.148,217.571 389,216.5C 389.29,212.137 389.79,207.804 390.5,203.5C 390.392,202.558 390.059,201.725 389.5,201C 391.028,199.352 391.695,197.352 391.5,195C 390.207,189.976 389.207,184.81 388.5,179.5C 386.898,180.55 386.065,179.883 386,177.5C 385.329,176.748 384.496,176.414 383.5,176.5C 383.631,175.761 383.464,175.094 383,174.5C 382.023,175.774 381.189,175.774 380.5,174.5C 381.404,173.791 381.737,172.791 381.5,171.5 Z"/></g>
<g><path style="opacity:0.757" fill="#bdad89" d="M 293.5,173.5 C 289.745,178.585 286.411,183.918 283.5,189.5C 283.5,187.5 283.5,185.5 283.5,183.5C 282.5,183.5 281.5,183.5 280.5,183.5C 279.662,183.158 279.328,182.492 279.5,181.5C 281.924,181.808 284.257,181.474 286.5,180.5C 286.376,179.893 286.043,179.56 285.5,179.5C 290.649,177.581 290.649,175.914 285.5,174.5C 281.717,176.174 280.551,174.84 282,170.5C 285.241,173.19 289.075,174.19 293.5,173.5 Z"/></g>
<g><path style="opacity:1" fill="#d0a719" d="M 383.5,176.5 C 384.496,176.414 385.329,176.748 386,177.5C 386.065,179.883 386.898,180.55 388.5,179.5C 389.207,184.81 390.207,189.976 391.5,195C 391.695,197.352 391.028,199.352 389.5,201C 390.059,201.725 390.392,202.558 390.5,203.5C 389.79,207.804 389.29,212.137 389,216.5C 388.148,217.571 387.315,218.571 386.5,219.5C 384.61,219.297 383.11,219.963 382,221.5C 380.186,220.149 380.519,219.149 383,218.5C 383.483,217.552 383.649,216.552 383.5,215.5C 380.285,216.176 378.118,218.176 377,221.5C 376.333,220.167 375.667,220.167 375,221.5C 373.622,217.558 371.122,216.558 367.5,218.5C 367.5,219.5 367.5,220.5 367.5,221.5C 368.209,222.404 369.209,222.737 370.5,222.5C 370.234,226.079 368.901,226.413 366.5,223.5C 366.167,223.833 365.833,224.167 365.5,224.5C 366.624,225.859 367.958,226.859 369.5,227.5C 367.742,227.877 366.075,228.544 364.5,229.5C 362.556,228.811 360.556,228.311 358.5,228C 359.451,227.282 359.617,226.449 359,225.5C 356.723,226.117 354.556,226.784 352.5,227.5C 351.508,227.672 350.842,227.338 350.5,226.5C 353.573,224.431 355.906,221.764 357.5,218.5C 359.243,215.753 361.576,213.753 364.5,212.5C 365.167,212.5 365.833,212.5 366.5,212.5C 367.734,215.54 370.068,216.873 373.5,216.5C 373.879,213.747 375.379,211.747 378,210.5C 378.333,211.5 378.667,212.5 379,213.5C 379.498,210.518 379.665,207.518 379.5,204.5C 379.703,202.956 380.37,201.622 381.5,200.5C 381.35,198.034 381.017,195.368 380.5,192.5C 380.292,190.08 380.626,187.747 381.5,185.5C 379.914,183.827 379.247,181.827 379.5,179.5C 380.5,179.5 381.5,179.5 382.5,179.5C 382.201,181.604 382.534,183.604 383.5,185.5C 383.833,184.833 384.167,184.167 384.5,183.5C 383.777,181.218 383.443,178.884 383.5,176.5 Z"/></g>
<g><path style="opacity:1" fill="#dfb728" d="M 275.5,183.5 C 275.5,184.833 275.5,186.167 275.5,187.5C 274.5,187.5 273.5,187.5 272.5,187.5C 271.17,185.119 271.336,182.786 273,180.5C 273.236,182.119 274.069,183.119 275.5,183.5 Z"/></g>
<g><path style="opacity:0.008" fill="#f9f9ef" d="M 390.5,180.5 C 392.141,183.046 392.475,185.713 391.5,188.5C 390.527,186.052 390.194,183.385 390.5,180.5 Z"/></g>
<g><path style="opacity:1" fill="#e6bb1f" d="M 380.5,192.5 C 381.017,195.368 381.35,198.034 381.5,200.5C 380.37,201.622 379.703,202.956 379.5,204.5C 375.369,203.345 375.036,202.178 378.5,201C 377.643,200.311 376.977,199.478 376.5,198.5C 377.052,196.997 377.052,195.331 376.5,193.5C 375.448,193.351 374.448,193.517 373.5,194C 374.994,196.604 375.327,199.271 374.5,202C 375.101,203.605 376.101,204.938 377.5,206C 376.5,206.333 375.5,206.667 374.5,207C 379.553,207.75 379.72,208.916 375,210.5C 373.829,209.66 372.662,208.827 371.5,208C 372.167,206.667 372.833,205.333 373.5,204C 372.11,200.34 371.444,196.84 371.5,193.5C 370.696,191.164 371.029,188.83 372.5,186.5C 371.119,185.119 369.785,183.785 368.5,182.5C 369.609,181.71 370.942,181.21 372.5,181C 371.253,179.506 371.253,178.006 372.5,176.5C 378.487,178.057 380.154,181.724 377.5,187.5C 376.325,187.281 375.325,187.614 374.5,188.5C 376.012,189.601 377.512,189.267 379,187.5C 379.507,188.996 379.007,190.163 377.5,191C 378.527,191.513 379.527,192.013 380.5,192.5 Z"/></g>
<g><path style="opacity:1" fill="#c3a546" d="M 269.5,175.5 C 269.833,176.167 270.167,176.833 270.5,177.5C 270.481,179.805 270.481,182.138 270.5,184.5C 269.585,185.328 268.919,186.328 268.5,187.5C 270.38,190.09 269.714,191.59 266.5,192C 267.985,193.756 267.652,194.923 265.5,195.5C 265.167,194.5 264.5,193.833 263.5,193.5C 264.014,187.319 265.014,181.986 266.5,177.5C 266.5,177.167 266.5,176.833 266.5,176.5C 267.609,176.443 268.609,176.11 269.5,175.5 Z"/></g>
<g><path style="opacity:0.769" fill="#ae9849" d="M 280.5,183.5 C 281.5,183.5 282.5,183.5 283.5,183.5C 283.5,185.5 283.5,187.5 283.5,189.5C 281.536,190.782 279.536,192.115 277.5,193.5C 278.687,193.554 280.02,193.887 281.5,194.5C 279.95,196.485 278.783,198.485 278,200.5C 279.011,199.663 280.178,199.33 281.5,199.5C 281.259,201.886 281.925,203.886 283.5,205.5C 281.616,206.382 280.283,207.882 279.5,210C 280.056,210.383 280.389,210.883 280.5,211.5C 280.5,212.167 280.167,212.5 279.5,212.5C 278.167,211.167 276.833,211.167 275.5,212.5C 273.95,211.559 272.284,210.893 270.5,210.5C 270.842,209.662 271.508,209.328 272.5,209.5C 278.006,210.176 278.673,209.009 274.5,206C 273.251,205.26 272.251,205.427 271.5,206.5C 270.226,205.811 270.226,204.977 271.5,204C 269.627,203.047 269.294,201.88 270.5,200.5C 271.82,201.942 273.486,202.608 275.5,202.5C 275.279,200.336 274.279,198.67 272.5,197.5C 269.158,194.177 269.158,190.844 272.5,187.5C 273.261,188.391 274.261,189.058 275.5,189.5C 276.59,188.273 277.924,187.44 279.5,187C 279.167,186.667 278.833,186.333 278.5,186C 279.381,185.292 280.047,184.458 280.5,183.5 Z"/></g>
<g><path style="opacity:0.059" fill="#f8f5ef" d="M 370.5,193.5 C 370.833,193.5 371.167,193.5 371.5,193.5C 371.528,195.582 370.861,197.416 369.5,199C 370.056,199.383 370.389,199.883 370.5,200.5C 369.244,200.539 368.244,200.039 367.5,199C 368.758,197.259 369.758,195.426 370.5,193.5 Z"/></g>
<g><path style="opacity:1" fill="#e0ba31" d="M 266.5,197.5 C 268.504,204.811 267.17,205.478 262.5,199.5C 262.343,198.127 262.51,196.793 263,195.5C 263.71,196.973 264.876,197.64 266.5,197.5 Z"/></g>
<g><path style="opacity:1" fill="#ecbe2f" d="M 272.5,197.5 C 274.279,198.67 275.279,200.336 275.5,202.5C 273.486,202.608 271.82,201.942 270.5,200.5C 270.285,198.821 270.952,197.821 272.5,197.5 Z"/></g>
<g><path style="opacity:0.796" fill="#a79a75" d="M 283.5,189.5 C 283.169,193.521 282.836,197.354 282.5,201C 283.876,203.552 285.209,206.052 286.5,208.5C 289.332,211.178 292.499,213.512 296,215.5C 298.285,212.108 301.452,210.441 305.5,210.5C 306.338,210.842 306.672,211.508 306.5,212.5C 304.473,212.338 302.473,212.505 300.5,213C 299.748,213.671 299.414,214.504 299.5,215.5C 298.508,215.328 297.842,215.662 297.5,216.5C 296.735,216.923 295.902,217.257 295,217.5C 293.669,216.004 292.169,214.671 290.5,213.5C 289.571,214.689 289.238,216.022 289.5,217.5C 288.5,217.167 287.833,216.5 287.5,215.5C 288.077,212.45 286.91,210.45 284,209.5C 283.51,208.207 283.343,206.873 283.5,205.5C 281.925,203.886 281.259,201.886 281.5,199.5C 280.178,199.33 279.011,199.663 278,200.5C 278.783,198.485 279.95,196.485 281.5,194.5C 280.02,193.887 278.687,193.554 277.5,193.5C 279.536,192.115 281.536,190.782 283.5,189.5 Z"/></g>
<g><path style="opacity:0.976" fill="#f2d362" d="M 58.5,186.5 C 58.5227,207.552 59.5227,228.552 61.5,249.5C 58.5236,232.435 56.857,215.102 56.5,197.5C 56.9318,193.65 57.5984,189.983 58.5,186.5 Z"/></g>
<g><path style="opacity:0.106" fill="#f4eee1" d="M 370.5,202.5 C 370.5,203.167 370.833,203.5 371.5,203.5C 370.52,207.326 369.687,207.326 369,203.5C 368.878,205.437 368.045,206.77 366.5,207.5C 366.879,206.194 367.212,204.861 367.5,203.5C 368.325,202.614 369.325,202.281 370.5,202.5 Z"/></g>
<g><path style="opacity:1" fill="#e7c037" d="M 262.5,202.5 C 264.148,203.777 265.982,204.777 268,205.5C 268.483,206.448 268.649,207.448 268.5,208.5C 267.167,208.5 265.833,208.5 264.5,208.5C 263.637,206.579 262.971,204.579 262.5,202.5 Z"/></g>
<g><path style="opacity:1" fill="#e7bf29" d="M 272.5,209.5 C 271.89,208.609 271.557,207.609 271.5,206.5C 272.251,205.427 273.251,205.26 274.5,206C 278.673,209.009 278.006,210.176 272.5,209.5 Z"/></g>
<g><path style="opacity:1" fill="#aa8417" d="M 371.5,193.5 C 371.444,196.84 372.11,200.34 373.5,204C 372.833,205.333 372.167,206.667 371.5,208C 372.662,208.827 373.829,209.66 375,210.5C 379.72,208.916 379.553,207.75 374.5,207C 375.5,206.667 376.5,206.333 377.5,206C 376.101,204.938 375.101,203.605 374.5,202C 375.327,199.271 374.994,196.604 373.5,194C 374.448,193.517 375.448,193.351 376.5,193.5C 377.052,195.331 377.052,196.997 376.5,198.5C 376.977,199.478 377.643,200.311 378.5,201C 375.036,202.178 375.369,203.345 379.5,204.5C 379.665,207.518 379.498,210.518 379,213.5C 378.667,212.5 378.333,211.5 378,210.5C 375.379,211.747 373.879,213.747 373.5,216.5C 373.785,214.712 373.452,213.045 372.5,211.5C 370.294,207.88 368.294,208.213 366.5,212.5C 365.833,212.5 365.167,212.5 364.5,212.5C 365.234,211.292 365.567,209.959 365.5,208.5C 366.167,208.5 366.5,208.167 366.5,207.5C 368.045,206.77 368.878,205.437 369,203.5C 369.687,207.326 370.52,207.326 371.5,203.5C 370.833,203.5 370.5,203.167 370.5,202.5C 370.5,201.833 370.5,201.167 370.5,200.5C 370.389,199.883 370.056,199.383 369.5,199C 370.861,197.416 371.528,195.582 371.5,193.5 Z"/></g>
<g><path style="opacity:1" fill="#f4d25b" d="M 138.5,158.5 C 139.53,175.672 140.03,193.005 140,210.5C 138.264,212.063 136.764,213.73 135.5,215.5C 135.336,212.813 135.503,210.146 136,207.5C 136.414,207.957 136.914,208.291 137.5,208.5C 138.499,191.847 138.833,175.18 138.5,158.5 Z"/></g>
<g><path style="opacity:1" fill="#d1b347" d="M 283.5,205.5 C 283.343,206.873 283.51,208.207 284,209.5C 286.91,210.45 288.077,212.45 287.5,215.5C 285.176,214.413 283.342,212.747 282,210.5C 281.617,211.056 281.117,211.389 280.5,211.5C 280.389,210.883 280.056,210.383 279.5,210C 280.283,207.882 281.616,206.382 283.5,205.5 Z"/></g>
<g><path style="opacity:0.612" fill="#bcab7c" d="M 263.5,193.5 C 264.5,193.833 265.167,194.5 265.5,195.5C 265.918,196.222 266.584,196.722 267.5,197C 267.272,197.399 266.938,197.565 266.5,197.5C 264.876,197.64 263.71,196.973 263,195.5C 262.51,196.793 262.343,198.127 262.5,199.5C 261.375,200.348 261.375,201.348 262.5,202.5C 262.971,204.579 263.637,206.579 264.5,208.5C 264.5,208.833 264.5,209.167 264.5,209.5C 264.833,210.833 265.167,210.833 265.5,209.5C 266.167,209.5 266.833,209.5 267.5,209.5C 267.833,210.833 268.167,210.833 268.5,209.5C 269.167,209.833 269.833,210.167 270.5,210.5C 270.5,211.167 270.167,211.5 269.5,211.5C 264.831,210.99 263.831,212.323 266.5,215.5C 267.405,216.702 267.405,218.036 266.5,219.5C 264.866,218.793 263.532,217.627 262.5,216C 264.443,214.807 264.276,213.307 262,211.5C 260.905,206.461 260.739,201.461 261.5,196.5C 261.427,194.973 262.094,193.973 263.5,193.5 Z"/></g>
<g><path style="opacity:0.133" fill="#f5f2e1" d="M 349.5,208.5 C 350.906,208.973 351.573,209.973 351.5,211.5C 349.801,211.66 348.134,211.494 346.5,211C 347.044,210.283 347.711,209.783 348.5,209.5C 349.167,209.5 349.5,209.167 349.5,208.5 Z"/></g>
<g><path style="opacity:1" fill="#f1c114" d="M 373.5,216.5 C 370.068,216.873 367.734,215.54 366.5,212.5C 368.294,208.213 370.294,207.88 372.5,211.5C 373.452,213.045 373.785,214.712 373.5,216.5 Z"/></g>
<g><path style="opacity:1" fill="#311f03" d="M 306.5,212.5 C 308.2,213.016 309.533,214.016 310.5,215.5C 310.062,216.506 309.396,216.506 308.5,215.5C 307.702,215.957 307.369,216.624 307.5,217.5C 306.596,216.791 306.263,215.791 306.5,214.5C 305.5,214.5 304.5,214.5 303.5,214.5C 303.649,215.552 303.483,216.552 303,217.5C 301.796,216.529 301.296,215.529 301.5,214.5C 300.818,215.243 300.151,215.909 299.5,216.5C 299.5,216.167 299.5,215.833 299.5,215.5C 299.414,214.504 299.748,213.671 300.5,213C 302.473,212.505 304.473,212.338 306.5,212.5 Z"/></g>
<g><path style="opacity:1" fill="#b29a4d" d="M 351.5,157.5 C 353.117,161.072 355.45,164.072 358.5,166.5C 358.5,166.833 358.5,167.167 358.5,167.5C 359.038,169.117 359.371,170.784 359.5,172.5C 358.5,172.167 357.833,171.5 357.5,170.5C 357.672,169.508 357.338,168.842 356.5,168.5C 356.5,167.833 356.167,167.5 355.5,167.5C 353.787,168.635 353.12,170.302 353.5,172.5C 354.137,181.553 354.304,190.886 354,200.5C 352.741,203.356 351.241,206.023 349.5,208.5C 348.833,208.5 348.5,208.833 348.5,209.5C 347.711,209.783 347.044,210.283 346.5,211C 348.134,211.494 349.801,211.66 351.5,211.5C 353.632,211.554 354.965,212.554 355.5,214.5C 355.157,216.483 355.824,217.817 357.5,218.5C 355.906,221.764 353.573,224.431 350.5,226.5C 349.5,226.167 348.833,225.5 348.5,224.5C 353.626,223.747 355.292,221.08 353.5,216.5C 353.126,213.38 351.293,212.046 348,212.5C 345.265,212.431 343.098,213.431 341.5,215.5C 340.041,215.433 338.708,215.766 337.5,216.5C 337.44,215.957 337.107,215.624 336.5,215.5C 333.432,216.691 330.765,218.358 328.5,220.5C 327.167,221.833 325.833,221.833 324.5,220.5C 322.235,218.358 319.568,216.691 316.5,215.5C 315.893,215.624 315.56,215.957 315.5,216.5C 312.438,214.87 310.771,215.87 310.5,219.5C 309.772,217.709 308.772,217.042 307.5,217.5C 307.369,216.624 307.702,215.957 308.5,215.5C 309.396,216.506 310.062,216.506 310.5,215.5C 309.533,214.016 308.2,213.016 306.5,212.5C 306.672,211.508 306.338,210.842 305.5,210.5C 302.585,207.01 300.418,203.01 299,198.5C 299.067,189.179 299.234,179.846 299.5,170.5C 299.5,169.833 299.5,169.167 299.5,168.5C 300.167,168.5 300.5,168.167 300.5,167.5C 301.458,169.302 302.125,171.302 302.5,173.5C 301.167,175.167 301.167,176.833 302.5,178.5C 302.201,180.604 302.534,182.604 303.5,184.5C 304.417,185.127 305.417,185.461 306.5,185.5C 306.5,186.5 306.5,187.5 306.5,188.5C 304.856,188.714 303.356,188.38 302,187.5C 301.505,189.473 301.338,191.473 301.5,193.5C 301.821,195.048 302.821,195.715 304.5,195.5C 300.849,196.492 300.516,198.159 303.5,200.5C 304.514,201.674 305.847,202.34 307.5,202.5C 306.602,203.158 305.602,203.824 304.5,204.5C 306.227,208.524 309.227,210.857 313.5,211.5C 317.589,213.999 321.923,216.332 326.5,218.5C 330.813,215.965 335.146,213.632 339.5,211.5C 344.091,210.573 347.091,207.906 348.5,203.5C 348.611,202.883 348.944,202.383 349.5,202C 348.058,201.623 347.058,200.79 346.5,199.5C 347.583,199.539 348.583,199.873 349.5,200.5C 350.262,199.372 350.929,198.205 351.5,197C 349.292,196.809 347.292,196.309 345.5,195.5C 348.082,195.975 350.082,195.308 351.5,193.5C 351.5,191.5 351.5,189.5 351.5,187.5C 349.784,187.629 348.117,187.962 346.5,188.5C 346.5,187.5 346.5,186.5 346.5,185.5C 347.708,184.766 349.041,184.433 350.5,184.5C 350.795,182.265 350.461,180.265 349.5,178.5C 349.737,177.209 349.404,176.209 348.5,175.5C 350.738,172.57 352.071,169.237 352.5,165.5C 353.363,166.463 354.03,166.463 354.5,165.5C 353.167,163.167 351.833,160.833 350.5,158.5C 350.624,157.893 350.957,157.56 351.5,157.5 Z"/></g>
<g><path style="opacity:1" fill="#251b09" d="M 313.5,211.5 C 322.167,211.5 330.833,211.5 339.5,211.5C 335.146,213.632 330.813,215.965 326.5,218.5C 321.923,216.332 317.589,213.999 313.5,211.5 Z"/></g>
<g><path style="opacity:1" fill="#b59316" d="M 315.5,206.5 C 316.167,206.5 316.833,206.5 317.5,206.5C 323.5,206.5 329.5,206.5 335.5,206.5C 336.167,206.5 336.833,206.5 337.5,206.5C 338.467,207.806 339.801,208.473 341.5,208.5C 340.449,209.222 339.782,210.222 339.5,211.5C 330.833,211.5 322.167,211.5 313.5,211.5C 313.218,210.222 312.551,209.222 311.5,208.5C 313.199,208.473 314.533,207.806 315.5,206.5 Z"/></g>
<g><path style="opacity:1" fill="#331f03" d="M 348.5,203.5 C 347.091,207.906 344.091,210.573 339.5,211.5C 339.782,210.222 340.449,209.222 341.5,208.5C 342.989,206.884 343.989,204.884 344.5,202.5C 345.736,203.246 347.07,203.579 348.5,203.5 Z"/></g>
<g><path style="opacity:1" fill="#362306" d="M 307.5,202.5 C 308.956,204.37 310.289,206.37 311.5,208.5C 312.551,209.222 313.218,210.222 313.5,211.5C 309.227,210.857 306.227,208.524 304.5,204.5C 305.602,203.824 306.602,203.158 307.5,202.5 Z"/></g>
<g><path style="opacity:1" fill="#7a5402" d="M 333.5,203.5 C 334.167,203.5 334.833,203.5 335.5,203.5C 337.048,203.821 337.715,204.821 337.5,206.5C 336.833,206.5 336.167,206.5 335.5,206.5C 332.913,205.184 329.913,204.517 326.5,204.5C 323.087,204.517 320.087,205.184 317.5,206.5C 316.833,206.5 316.167,206.5 315.5,206.5C 315.5,205.5 315.5,204.5 315.5,203.5C 313.876,203.36 312.71,204.027 312,205.5C 311.562,201.466 313.062,200.633 316.5,203C 322.157,203.499 327.824,203.666 333.5,203.5 Z"/></g>
<g><path style="opacity:1" fill="#cfa928" d="M 335.5,206.5 C 329.5,206.5 323.5,206.5 317.5,206.5C 320.087,205.184 323.087,204.517 326.5,204.5C 329.913,204.517 332.913,205.184 335.5,206.5 Z"/></g>
<g><path style="opacity:1" fill="#291d04" d="M 345.5,195.5 C 347.292,196.309 349.292,196.809 351.5,197C 350.929,198.205 350.262,199.372 349.5,200.5C 348.583,199.873 347.583,199.539 346.5,199.5C 344.023,199.949 342.023,199.283 340.5,197.5C 341.668,195.783 343.335,195.116 345.5,195.5 Z"/></g>
<g><path style="opacity:1" fill="#392707" d="M 304.5,195.5 C 307.167,195.5 309.833,195.5 312.5,195.5C 312.5,196.833 312.5,198.167 312.5,199.5C 309.391,199.264 306.391,199.597 303.5,200.5C 300.516,198.159 300.849,196.492 304.5,195.5 Z"/></g>
<g><path style="opacity:1" fill="#e5bc23" d="M 314.5,181.5 C 315.772,184.977 317.772,187.977 320.5,190.5C 320.124,192.803 319.124,193.137 317.5,191.5C 316.341,189.623 314.674,189.123 312.5,190C 313.71,191.039 314.71,192.206 315.5,193.5C 316.287,195.104 317.62,195.771 319.5,195.5C 319.756,197.792 319.423,199.959 318.5,202C 323.684,202.174 328.684,202.674 333.5,203.5C 327.824,203.666 322.157,203.499 316.5,203C 313.062,200.633 311.562,201.466 312,205.5C 312.71,204.027 313.876,203.36 315.5,203.5C 315.5,204.5 315.5,205.5 315.5,206.5C 314.533,207.806 313.199,208.473 311.5,208.5C 310.289,206.37 308.956,204.37 307.5,202.5C 305.847,202.34 304.514,201.674 303.5,200.5C 306.391,199.597 309.391,199.264 312.5,199.5C 312.5,198.167 312.5,196.833 312.5,195.5C 309.833,195.5 307.167,195.5 304.5,195.5C 302.821,195.715 301.821,195.048 301.5,193.5C 303.924,193.808 306.257,193.474 308.5,192.5C 307.37,191.378 306.703,190.044 306.5,188.5C 306.5,187.5 306.5,186.5 306.5,185.5C 306.369,184.624 306.702,183.957 307.5,183.5C 308.526,187.149 310.859,188.315 314.5,187C 313.29,185.961 312.29,184.794 311.5,183.5C 311.351,182.448 311.517,181.448 312,180.5C 312.671,181.252 313.504,181.586 314.5,181.5 Z"/></g>
<g><path style="opacity:1" fill="#372407" d="M 351.5,193.5 C 349.143,193.663 346.81,193.497 344.5,193C 345.582,191.67 346.249,190.17 346.5,188.5C 348.117,187.962 349.784,187.629 351.5,187.5C 351.5,189.5 351.5,191.5 351.5,193.5 Z"/></g>
<g><path style="opacity:1" fill="#dcb322" d="M 348.5,175.5 C 349.404,176.209 349.737,177.209 349.5,178.5C 345.733,181.087 342.067,183.92 338.5,187C 341.827,187.97 343.993,186.803 345,183.5C 345.717,184.044 346.217,184.711 346.5,185.5C 346.5,186.5 346.5,187.5 346.5,188.5C 346.249,190.17 345.582,191.67 344.5,193C 346.81,193.497 349.143,193.663 351.5,193.5C 350.082,195.308 348.082,195.975 345.5,195.5C 343.335,195.116 341.668,195.783 340.5,197.5C 342.023,199.283 344.023,199.949 346.5,199.5C 347.058,200.79 348.058,201.623 349.5,202C 348.944,202.383 348.611,202.883 348.5,203.5C 347.07,203.579 345.736,203.246 344.5,202.5C 343.989,204.884 342.989,206.884 341.5,208.5C 339.801,208.473 338.467,207.806 337.5,206.5C 337.715,204.821 337.048,203.821 335.5,203.5C 332.887,198.511 332.054,193.178 333,187.5C 333.333,187.833 333.667,188.167 334,188.5C 335.74,187.284 336.74,185.618 337,183.5C 338.73,181.924 340.563,180.59 342.5,179.5C 344.754,178.585 346.754,177.252 348.5,175.5 Z"/></g>
<g><path style="opacity:1" fill="#473006" d="M 336.5,189.5 C 341.297,189.126 341.964,189.792 338.5,191.5C 337.886,195.07 336.552,195.403 334.5,192.5C 335.193,191.482 335.859,190.482 336.5,189.5 Z"/></g>
<g><path style="opacity:1" fill="#422502" d="M 317.5,191.5 C 317.167,192.5 316.5,193.167 315.5,193.5C 314.71,192.206 313.71,191.039 312.5,190C 314.674,189.123 316.341,189.623 317.5,191.5 Z"/></g>
<g><path style="opacity:1" fill="#2c1e06" d="M 306.5,188.5 C 306.703,190.044 307.37,191.378 308.5,192.5C 306.257,193.474 303.924,193.808 301.5,193.5C 301.338,191.473 301.505,189.473 302,187.5C 303.356,188.38 304.856,188.714 306.5,188.5 Z"/></g>
<g><path style="opacity:1" fill="#321e06" d="M 349.5,178.5 C 350.461,180.265 350.795,182.265 350.5,184.5C 349.041,184.433 347.708,184.766 346.5,185.5C 346.217,184.711 345.717,184.044 345,183.5C 343.993,186.803 341.827,187.97 338.5,187C 342.067,183.92 345.733,181.087 349.5,178.5 Z"/></g>
<g><path style="opacity:1" fill="#ac850f" d="M 314.5,169.5 C 314.833,169.5 315.167,169.5 315.5,169.5C 316.324,173.312 316.824,177.312 317,181.5C 318.171,183.616 319.671,184.282 321.5,183.5C 319.953,181.455 318.619,179.289 317.5,177C 317.735,176.127 318.069,175.293 318.5,174.5C 323.833,173.167 329.167,173.167 334.5,174.5C 335.67,177.531 335.003,180.197 332.5,182.5C 332.667,183.167 332.833,183.833 333,184.5C 334,183.5 335,182.5 336,181.5C 336.176,177.312 336.676,173.312 337.5,169.5C 337.833,169.5 338.167,169.5 338.5,169.5C 337.314,170.961 337.314,172.295 338.5,173.5C 337.527,175.068 337.36,176.735 338,178.5C 338.759,176.937 339.926,175.937 341.5,175.5C 342.167,175.5 342.833,175.5 343.5,175.5C 342.766,176.708 342.433,178.041 342.5,179.5C 340.563,180.59 338.73,181.924 337,183.5C 336.74,185.618 335.74,187.284 334,188.5C 333.667,188.167 333.333,187.833 333,187.5C 332.054,193.178 332.887,198.511 335.5,203.5C 334.833,203.5 334.167,203.5 333.5,203.5C 328.684,202.674 323.684,202.174 318.5,202C 319.423,199.959 319.756,197.792 319.5,195.5C 317.62,195.771 316.287,195.104 315.5,193.5C 316.5,193.167 317.167,192.5 317.5,191.5C 319.124,193.137 320.124,192.803 320.5,190.5C 317.772,187.977 315.772,184.977 314.5,181.5C 315.625,180.652 315.625,179.652 314.5,178.5C 315.72,176.95 315.72,175.284 314.5,173.5C 315.686,172.295 315.686,170.961 314.5,169.5 Z"/></g>
<g><path style="opacity:1" fill="#e6bb1c" d="M 325.5,182.5 C 327.292,187.745 328.126,193.412 328,199.5C 328.17,193.804 328.67,188.138 329.5,182.5C 329.929,188.684 330.929,194.684 332.5,200.5C 328.5,201.833 324.5,201.833 320.5,200.5C 322.045,199.548 323.712,199.215 325.5,199.5C 325.5,193.833 325.5,188.167 325.5,182.5 Z"/></g>
<g><path style="opacity:1" fill="#e1ba31" d="M 322.5,182.5 C 323.812,184.743 324.478,187.41 324.5,190.5C 324.167,193.167 323.833,195.833 323.5,198.5C 322.505,193.208 322.172,187.875 322.5,182.5 Z"/></g>
<g><path style="opacity:1" fill="#382605" d="M 302.5,178.5 C 305.366,180.432 308.366,182.099 311.5,183.5C 312.29,184.794 313.29,185.961 314.5,187C 310.859,188.315 308.526,187.149 307.5,183.5C 306.702,183.957 306.369,184.624 306.5,185.5C 305.417,185.461 304.417,185.127 303.5,184.5C 302.534,182.604 302.201,180.604 302.5,178.5 Z"/></g>
<g><path style="opacity:0.004" fill="#faf5e9" d="M 355.5,167.5 C 355.461,169.224 355.794,169.557 356.5,168.5C 357.338,168.842 357.672,169.508 357.5,170.5C 355.801,170.527 354.467,171.194 353.5,172.5C 353.12,170.302 353.787,168.635 355.5,167.5 Z"/></g>
<g><path style="opacity:1" fill="#b9aa85" d="M 365.5,208.5 C 365.567,209.959 365.234,211.292 364.5,212.5C 361.576,213.753 359.243,215.753 357.5,218.5C 355.824,217.817 355.157,216.483 355.5,214.5C 356.222,214.918 356.722,215.584 357,216.5C 358.02,215.109 358.853,213.609 359.5,212C 360.449,211.383 361.282,211.549 362,212.5C 363.032,210.973 364.199,209.64 365.5,208.5 Z"/></g>
<g><path style="opacity:1" fill="#ebc023" d="M 269.5,211.5 C 272.169,214.677 271.169,216.01 266.5,215.5C 263.831,212.323 264.831,210.99 269.5,211.5 Z"/></g>
<g><path style="opacity:1" fill="#332004" d="M 353.5,216.5 C 352.844,215.722 352.011,215.056 351,214.5C 348.991,214.995 346.824,214.995 344.5,214.5C 344.5,215.5 344.5,216.5 344.5,217.5C 343.778,216.449 342.778,215.782 341.5,215.5C 343.098,213.431 345.265,212.431 348,212.5C 351.293,212.046 353.126,213.38 353.5,216.5 Z"/></g>
<g><path style="opacity:0.09" fill="#fdf7e5" d="M 390.5,209.5 C 391.158,210.793 391.492,212.293 391.5,214C 391.431,215.986 390.765,217.486 389.5,218.5C 390.403,215.609 390.736,212.609 390.5,209.5 Z"/></g>
<g><path style="opacity:0.937" fill="#9b833f" d="M 270.5,210.5 C 272.284,210.893 273.95,211.559 275.5,212.5C 276.833,212.5 278.167,212.5 279.5,212.5C 280.167,212.5 280.5,212.167 280.5,211.5C 281.117,211.389 281.617,211.056 282,210.5C 283.342,212.747 285.176,214.413 287.5,215.5C 287.833,216.5 288.5,217.167 289.5,217.5C 291.308,218.907 293.308,220.074 295.5,221C 294.333,221.5 293.5,222.333 293,223.5C 292.612,222.572 291.945,221.905 291,221.5C 289.37,222.713 287.536,223.546 285.5,224C 288.043,224.14 290.377,224.806 292.5,226C 291.034,226.635 289.7,227.469 288.5,228.5C 287.135,227.193 285.802,227.193 284.5,228.5C 284.5,227.5 284.5,226.5 284.5,225.5C 281.722,225.022 279.722,226.022 278.5,228.5C 280.045,229.452 281.712,229.785 283.5,229.5C 284.692,230.566 284.359,231.399 282.5,232C 285.146,232.497 287.813,232.664 290.5,232.5C 290.481,227.984 292.814,225.984 297.5,226.5C 297.216,224.585 297.549,222.919 298.5,221.5C 304.208,226.025 303.208,228.191 295.5,228C 296.571,228.852 297.571,229.685 298.5,230.5C 296.801,230.38 295.135,230.046 293.5,229.5C 292.287,229.747 291.62,230.414 291.5,231.5C 291.218,232.778 290.551,233.778 289.5,234.5C 287.621,233.659 285.621,233.325 283.5,233.5C 281.692,233.509 280.025,233.009 278.5,232C 275.811,230.405 273.811,228.238 272.5,225.5C 274.833,225.5 277.167,225.5 279.5,225.5C 279.55,223.41 278.55,222.077 276.5,221.5C 274.414,222.489 272.747,223.822 271.5,225.5C 268.354,224.69 266.687,222.69 266.5,219.5C 267.405,218.036 267.405,216.702 266.5,215.5C 271.169,216.01 272.169,214.677 269.5,211.5C 270.167,211.5 270.5,211.167 270.5,210.5 Z"/></g>
<g><path style="opacity:1" fill="#e9c532" d="M 275.5,213.5 C 277.5,213.5 279.5,213.5 281.5,213.5C 281.5,214.5 281.5,215.5 281.5,216.5C 278.607,216.969 276.607,215.969 275.5,213.5 Z"/></g>
<g><path style="opacity:0.976" fill="#846e2e" d="M 353.5,216.5 C 353.5,217.167 353.167,217.5 352.5,217.5C 350.5,217.833 348.5,218.167 346.5,218.5C 346.633,215.075 345.967,214.742 344.5,217.5C 344.5,216.5 344.5,215.5 344.5,214.5C 346.824,214.995 348.991,214.995 351,214.5C 352.011,215.056 352.844,215.722 353.5,216.5 Z"/></g>
<g><path style="opacity:0.973" fill="#796328" d="M 307.5,217.5 C 308.772,217.042 309.772,217.709 310.5,219.5C 310.435,219.938 310.601,220.272 311,220.5C 311.368,219.09 312.201,218.09 313.5,217.5C 315.888,219.728 317.221,222.061 317.5,224.5C 315.143,224.663 312.81,224.497 310.5,224C 311.5,223.667 312.5,223.333 313.5,223C 310.576,222.012 307.576,221.346 304.5,221C 302.34,220.004 300.673,218.504 299.5,216.5C 300.151,215.909 300.818,215.243 301.5,214.5C 301.296,215.529 301.796,216.529 303,217.5C 303.483,216.552 303.649,215.552 303.5,214.5C 304.5,214.5 305.5,214.5 306.5,214.5C 306.263,215.791 306.596,216.791 307.5,217.5 Z"/></g>
<g><path style="opacity:0.341" fill="#c1b792" d="M 324.5,220.5 C 323.833,220.5 323.167,220.5 322.5,220.5C 319.996,219.416 317.663,218.083 315.5,216.5C 315.56,215.957 315.893,215.624 316.5,215.5C 319.568,216.691 322.235,218.358 324.5,220.5 Z"/></g>
<g><path style="opacity:0.333" fill="#dbd3a9" d="M 337.5,216.5 C 334.706,218.213 331.706,219.546 328.5,220.5C 330.765,218.358 333.432,216.691 336.5,215.5C 337.107,215.624 337.44,215.957 337.5,216.5 Z"/></g>
<g><path style="opacity:1" fill="#e7c230" d="M 270.5,217.5 C 273.694,217.176 274.694,218.342 273.5,221C 272.207,221.49 270.873,221.657 269.5,221.5C 269.433,220.041 269.766,218.708 270.5,217.5 Z"/></g>
<g><path style="opacity:1" fill="#dab43e" d="M 284.5,217.5 C 286.532,218.048 287.532,219.381 287.5,221.5C 285.011,221.702 282.677,221.202 280.5,220C 282.32,219.8 283.653,218.966 284.5,217.5 Z"/></g>
<g><path style="opacity:0.988" fill="#2e230a" d="M 315.5,216.5 C 317.663,218.083 319.996,219.416 322.5,220.5C 322.918,221.222 323.584,221.722 324.5,222C 323.101,222.595 321.768,222.428 320.5,221.5C 319.859,222.993 318.859,223.993 317.5,224.5C 317.221,222.061 315.888,219.728 313.5,217.5C 312.201,218.09 311.368,219.09 311,220.5C 310.601,220.272 310.435,219.938 310.5,219.5C 310.771,215.87 312.438,214.87 315.5,216.5 Z"/></g>
<g><path style="opacity:1" fill="#c3a439" d="M 297.5,216.5 C 297.629,218.216 297.962,219.883 298.5,221.5C 297.549,222.919 297.216,224.585 297.5,226.5C 292.814,225.984 290.481,227.984 290.5,232.5C 287.813,232.664 285.146,232.497 282.5,232C 284.359,231.399 284.692,230.566 283.5,229.5C 283.5,228.833 283.833,228.5 284.5,228.5C 285.802,227.193 287.135,227.193 288.5,228.5C 289.7,227.469 291.034,226.635 292.5,226C 290.377,224.806 288.043,224.14 285.5,224C 287.536,223.546 289.37,222.713 291,221.5C 291.945,221.905 292.612,222.572 293,223.5C 293.5,222.333 294.333,221.5 295.5,221C 293.308,220.074 291.308,218.907 289.5,217.5C 289.238,216.022 289.571,214.689 290.5,213.5C 292.169,214.671 293.669,216.004 295,217.5C 295.902,217.257 296.735,216.923 297.5,216.5 Z"/></g>
<g><path style="opacity:1" fill="#67511a" d="M 341.5,215.5 C 342.778,215.782 343.778,216.449 344.5,217.5C 345.967,214.742 346.633,215.075 346.5,218.5C 348.5,218.167 350.5,217.833 352.5,217.5C 351.013,218.804 349.346,219.97 347.5,221C 343.471,221.416 339.804,222.583 336.5,224.5C 334.52,225.484 332.853,226.817 331.5,228.5C 329.167,228.5 326.833,228.5 324.5,228.5C 323.833,228.5 323.167,228.5 322.5,228.5C 322.167,228.5 321.833,228.5 321.5,228.5C 320.167,227.167 318.833,225.833 317.5,224.5C 318.859,223.993 319.859,222.993 320.5,221.5C 321.768,222.428 323.101,222.595 324.5,222C 323.584,221.722 322.918,221.222 322.5,220.5C 323.167,220.5 323.833,220.5 324.5,220.5C 325.833,221.833 327.167,221.833 328.5,220.5C 331.706,219.546 334.706,218.213 337.5,216.5C 338.708,215.766 340.041,215.433 341.5,215.5 Z"/></g>
<g><path style="opacity:1" fill="#cea623" d="M 353.5,216.5 C 355.292,221.08 353.626,223.747 348.5,224.5C 344.565,223.801 340.565,223.801 336.5,224.5C 339.804,222.583 343.471,221.416 347.5,221C 349.346,219.97 351.013,218.804 352.5,217.5C 353.167,217.5 353.5,217.167 353.5,216.5 Z"/></g>
<g><path style="opacity:1" fill="#a17e14" d="M 367.5,221.5 C 368.833,221.5 370.167,221.5 371.5,221.5C 371.651,224.718 372.484,225.051 374,222.5C 374.483,223.448 374.649,224.448 374.5,225.5C 377.167,225.5 379.833,225.5 382.5,225.5C 382.5,225.833 382.5,226.167 382.5,226.5C 382.158,227.338 381.492,227.672 380.5,227.5C 380.167,227.5 379.833,227.5 379.5,227.5C 376.062,228.373 372.728,228.373 369.5,227.5C 367.958,226.859 366.624,225.859 365.5,224.5C 365.833,224.167 366.167,223.833 366.5,223.5C 368.901,226.413 370.234,226.079 370.5,222.5C 369.209,222.737 368.209,222.404 367.5,221.5 Z"/></g>
<g><path style="opacity:1" fill="#e6b91b" d="M 386.5,219.5 C 386.155,222.198 384.822,224.198 382.5,225.5C 379.833,225.5 377.167,225.5 374.5,225.5C 374.649,224.448 374.483,223.448 374,222.5C 372.484,225.051 371.651,224.718 371.5,221.5C 370.167,221.5 368.833,221.5 367.5,221.5C 367.5,220.5 367.5,219.5 367.5,218.5C 371.122,216.558 373.622,217.558 375,221.5C 375.667,220.167 376.333,220.167 377,221.5C 378.118,218.176 380.285,216.176 383.5,215.5C 383.649,216.552 383.483,217.552 383,218.5C 380.519,219.149 380.186,220.149 382,221.5C 383.11,219.963 384.61,219.297 386.5,219.5 Z"/></g>
<g><path style="opacity:1" fill="#e7c028" d="M 272.5,225.5 C 272.167,225.5 271.833,225.5 271.5,225.5C 272.747,223.822 274.414,222.489 276.5,221.5C 278.55,222.077 279.55,223.41 279.5,225.5C 277.167,225.5 274.833,225.5 272.5,225.5 Z"/></g>
<g><path style="opacity:1" fill="#aa840a" d="M 369.5,227.5 C 368.748,229.1 367.748,230.6 366.5,232C 366.728,232.399 367.062,232.565 367.5,232.5C 367.5,233.167 367.167,233.5 366.5,233.5C 364.645,231.307 362.311,229.974 359.5,229.5C 357.97,229.64 356.97,230.307 356.5,231.5C 356.167,231.5 355.833,231.5 355.5,231.5C 355.5,230.833 355.167,230.5 354.5,230.5C 355.058,229.21 356.058,228.377 357.5,228C 355.866,227.506 354.199,227.34 352.5,227.5C 354.556,226.784 356.723,226.117 359,225.5C 359.617,226.449 359.451,227.282 358.5,228C 360.556,228.311 362.556,228.811 364.5,229.5C 366.075,228.544 367.742,227.877 369.5,227.5 Z"/></g>
<g><path style="opacity:1" fill="#f3cd45" d="M 109.5,225.5 C 102.699,231.23 100.032,238.564 101.5,247.5C 100.235,246.486 99.5687,244.986 99.5,243C 100.239,239.173 100.406,235.34 100,231.5C 98.3851,230.344 98.3851,229.011 100,227.5C 103.11,231.806 103.943,231.473 102.5,226.5C 104.743,225.526 107.076,225.192 109.5,225.5 Z"/></g>
<g><path style="opacity:1" fill="#e6c026" d="M 284.5,228.5 C 283.833,228.5 283.5,228.833 283.5,229.5C 281.712,229.785 280.045,229.452 278.5,228.5C 279.722,226.022 281.722,225.022 284.5,225.5C 284.5,226.5 284.5,227.5 284.5,228.5 Z"/></g>
<g><path style="opacity:1" fill="#e8bb1c" d="M 299.5,215.5 C 299.5,215.833 299.5,216.167 299.5,216.5C 300.673,218.504 302.34,220.004 304.5,221C 307.576,221.346 310.576,222.012 313.5,223C 312.5,223.333 311.5,223.667 310.5,224C 312.81,224.497 315.143,224.663 317.5,224.5C 318.833,225.833 320.167,227.167 321.5,228.5C 321.631,229.239 321.464,229.906 321,230.5C 317.591,229.378 314.091,229.211 310.5,230C 308.574,230.422 307.574,231.589 307.5,233.5C 307.158,234.338 306.492,234.672 305.5,234.5C 303.079,236.215 300.413,237.048 297.5,237C 297.167,236.667 296.833,236.333 296.5,236C 298.5,234.667 300.5,233.333 302.5,232C 301.906,231.536 301.239,231.369 300.5,231.5C 300.167,231.5 299.833,231.5 299.5,231.5C 299.5,230.833 299.167,230.5 298.5,230.5C 297.571,229.685 296.571,228.852 295.5,228C 303.208,228.191 304.208,226.025 298.5,221.5C 297.962,219.883 297.629,218.216 297.5,216.5C 297.842,215.662 298.508,215.328 299.5,215.5 Z"/></g>
<g><path style="opacity:1" fill="#beaf78" d="M 379.5,227.5 C 379.833,227.5 380.167,227.5 380.5,227.5C 378.955,230.944 376.289,232.944 372.5,233.5C 372.5,233.167 372.5,232.833 372.5,232.5C 374.611,230.369 376.944,228.702 379.5,227.5 Z"/></g>
<g><path style="opacity:1" fill="#ecc024" d="M 379.5,227.5 C 376.944,228.702 374.611,230.369 372.5,232.5C 370.833,232.5 369.167,232.5 367.5,232.5C 367.062,232.565 366.728,232.399 366.5,232C 367.748,230.6 368.748,229.1 369.5,227.5C 372.728,228.373 376.062,228.373 379.5,227.5 Z"/></g>
<g><path style="opacity:1" fill="#ecbe1f" d="M 348.5,224.5 C 348.833,225.5 349.5,226.167 350.5,226.5C 350.842,227.338 351.508,227.672 352.5,227.5C 354.199,227.34 355.866,227.506 357.5,228C 356.058,228.377 355.058,229.21 354.5,230.5C 353.078,230.709 351.745,231.209 350.5,232C 352.597,233.61 354.93,234.777 357.5,235.5C 355.827,237.086 353.827,237.753 351.5,237.5C 349.205,236.864 347.539,235.531 346.5,233.5C 345.657,231.827 344.324,230.66 342.5,230C 339.106,229.248 335.773,229.415 332.5,230.5C 331.702,230.043 331.369,229.376 331.5,228.5C 332.853,226.817 334.52,225.484 336.5,224.5C 340.565,223.801 344.565,223.801 348.5,224.5 Z"/></g>
<g><path style="opacity:1" fill="#f0c21c" d="M 366.5,233.5 C 362.734,235.151 359.4,234.484 356.5,231.5C 356.97,230.307 357.97,229.64 359.5,229.5C 362.311,229.974 364.645,231.307 366.5,233.5 Z"/></g>
<g><path style="opacity:1" fill="#c5a955" d="M 321.5,228.5 C 321.833,228.5 322.167,228.5 322.5,228.5C 322.64,230.124 321.973,231.29 320.5,232C 323.953,232.477 327.286,231.977 330.5,230.5C 328.369,229.831 326.369,229.165 324.5,228.5C 326.833,228.5 329.167,228.5 331.5,228.5C 331.369,229.376 331.702,230.043 332.5,230.5C 335.773,229.415 339.106,229.248 342.5,230C 344.324,230.66 345.657,231.827 346.5,233.5C 343.899,232.021 341.066,231.021 338,230.5C 335.157,231.024 332.823,232.358 331,234.5C 327.185,233.439 323.351,233.439 319.5,234.5C 319.649,233.448 319.483,232.448 319,231.5C 318.667,231.833 318.333,232.167 318,232.5C 314.412,230.103 310.912,230.436 307.5,233.5C 307.574,231.589 308.574,230.422 310.5,230C 314.091,229.211 317.591,229.378 321,230.5C 321.464,229.906 321.631,229.239 321.5,228.5 Z"/></g>
<g><path style="opacity:1" fill="#e9bf29" d="M 322.5,228.5 C 323.167,228.5 323.833,228.5 324.5,228.5C 326.369,229.165 328.369,229.831 330.5,230.5C 327.286,231.977 323.953,232.477 320.5,232C 321.973,231.29 322.64,230.124 322.5,228.5 Z"/></g>
<g><path style="opacity:1" fill="#ebbf25" d="M 291.5,231.5 C 296.45,231.993 296.45,233.327 291.5,235.5C 290.584,235.457 289.917,235.124 289.5,234.5C 290.551,233.778 291.218,232.778 291.5,231.5 Z"/></g>
<g><path style="opacity:0.722" fill="#b49d4d" d="M 354.5,230.5 C 355.167,230.5 355.5,230.833 355.5,231.5C 355.833,231.5 356.167,231.5 356.5,231.5C 359.4,234.484 362.734,235.151 366.5,233.5C 367.167,233.5 367.5,233.167 367.5,232.5C 369.167,232.5 370.833,232.5 372.5,232.5C 372.5,232.833 372.5,233.167 372.5,233.5C 372.167,233.5 371.833,233.5 371.5,233.5C 368.081,235.087 364.415,235.753 360.5,235.5C 359.069,236.082 357.736,236.915 356.5,238C 354.613,238.78 352.946,238.613 351.5,237.5C 353.827,237.753 355.827,237.086 357.5,235.5C 354.93,234.777 352.597,233.61 350.5,232C 351.745,231.209 353.078,230.709 354.5,230.5 Z M 355.5,231.5 C 354.761,231.369 354.094,231.536 353.5,232C 355.701,234.059 356.368,233.892 355.5,231.5 Z"/></g>
<g><path style="opacity:1" fill="#bba465" d="M 298.5,230.5 C 299.167,230.5 299.5,230.833 299.5,231.5C 297.972,231.517 297.472,232.184 298,233.5C 298.995,232.934 299.828,232.267 300.5,231.5C 301.239,231.369 301.906,231.536 302.5,232C 300.5,233.333 298.5,234.667 296.5,236C 296.833,236.333 297.167,236.667 297.5,237C 300.413,237.048 303.079,236.215 305.5,234.5C 304.09,236.96 301.924,238.293 299,238.5C 294.611,237.379 290.111,236.545 285.5,236C 283.065,235.925 282.398,235.092 283.5,233.5C 285.621,233.325 287.621,233.659 289.5,234.5C 289.917,235.124 290.584,235.457 291.5,235.5C 296.45,233.327 296.45,231.993 291.5,231.5C 291.62,230.414 292.287,229.747 293.5,229.5C 295.135,230.046 296.801,230.38 298.5,230.5 Z M 299.5,231.5 C 299.833,231.5 300.167,231.5 300.5,231.5C 299.828,232.267 298.995,232.934 298,233.5C 297.472,232.184 297.972,231.517 299.5,231.5 Z"/></g>
<g><path style="opacity:0.514" fill="#c7c1b1" d="M 371.5,233.5 C 371.5,234.5 371.5,235.5 371.5,236.5C 368.751,236.274 366.084,236.607 363.5,237.5C 362.261,237.058 361.261,236.391 360.5,235.5C 364.415,235.753 368.081,235.087 371.5,233.5 Z"/></g>
<g><path style="opacity:0.557" fill="#808080" d="M 212.5,247.5 C 213.906,247.973 214.573,248.973 214.5,250.5C 213.094,250.027 212.427,249.027 212.5,247.5 Z"/></g>
<g><path style="opacity:1" fill="#f2cd53" d="M 61.5,250.5 C 62.4959,250.414 63.3292,250.748 64,251.5C 65.8225,260.383 66.9892,269.383 67.5,278.5C 64.3701,269.525 62.3701,260.192 61.5,250.5 Z"/></g>
<g><path style="opacity:0.995" fill="#8a8a8a" d="M 447.5,109.5 C 450.324,111.8 452.157,114.8 453,118.5C 456.288,149.748 457.288,181.082 456,212.5C 455.709,221.58 454.709,230.58 453,239.5C 448.682,254.491 438.849,262.991 423.5,265C 397.571,267.548 371.571,268.881 345.5,269C 315.081,286.293 284.581,303.46 254,320.5C 253.833,320.167 253.667,319.833 253.5,319.5C 258.213,315.117 262.88,310.783 267.5,306.5C 268.167,306.5 268.5,306.167 268.5,305.5C 291.779,291.521 315.445,278.021 339.5,265C 365.578,265.032 391.578,263.698 417.5,261C 433.19,258.65 443.357,249.817 448,234.5C 450.643,224.002 451.976,213.335 452,202.5C 452.667,183.5 452.667,164.5 452,145.5C 451.488,133.335 449.988,121.335 447.5,109.5 Z"/></g>
<g><path style="opacity:1" fill="#606060" d="M 228.5,263.5 C 252.169,263.333 275.836,263.5 299.5,264C 298.956,264.717 298.289,265.217 297.5,265.5C 274.5,264.833 251.5,264.167 228.5,263.5 Z"/></g>
<g><path style="opacity:0.998" fill="#8f8f8f" d="M 224.5,263.5 C 225.833,263.5 227.167,263.5 228.5,263.5C 251.5,264.167 274.5,264.833 297.5,265.5C 297.027,266.906 296.027,267.573 294.5,267.5C 273.831,267.667 253.164,267.5 232.5,267C 229.401,266.613 226.734,265.446 224.5,263.5 Z"/></g>
<g><path style="opacity:1" fill="#f3cb44" d="M 67.5,278.5 C 69.0413,281.859 70.8746,285.192 73,288.5C 73.1705,286.285 73.8372,284.285 75,282.5C 75.5726,286.686 75.406,290.853 74.5,295C 76.2413,300.387 78.408,305.554 81,310.5C 81.414,310.043 81.914,309.709 82.5,309.5C 83.4519,311.045 83.7852,312.712 83.5,314.5C 85.1033,314.312 86.4366,314.812 87.5,316C 85.9632,317.11 85.2965,318.61 85.5,320.5C 76.8082,307.769 70.8082,293.769 67.5,278.5 Z"/></g>
<g><path style="opacity:0.373" fill="#a8a8a8" d="M 272.5,296.5 C 271.473,297.848 270.14,298.348 268.5,298C 269.563,296.812 270.897,296.312 272.5,296.5 Z"/></g>
<g><path style="opacity:1" fill="#f1d05e" d="M 204.5,327.5 C 199.346,327.294 194.346,327.961 189.5,329.5C 191.991,327.378 194.824,325.711 198,324.5C 200.482,325.039 202.648,326.039 204.5,327.5 Z"/></g>
<g><path style="opacity:1" fill="#f2d463" d="M 90.5,328.5 C 94.3522,329.187 96.0189,331.521 95.5,335.5C 93.6002,333.381 91.9336,331.047 90.5,328.5 Z"/></g>
<g><path style="opacity:1" fill="#f3cb44" d="M 137.5,319.5 C 141.662,326.479 146.328,333.146 151.5,339.5C 149.405,338.588 147.405,337.421 145.5,336C 144.159,332.994 141.825,331.494 138.5,331.5C 138.519,329.94 138.852,328.44 139.5,327C 138.129,324.681 137.462,322.181 137.5,319.5 Z"/></g>
<g><path style="opacity:0.871" fill="#f7e092" d="M 183.5,332.5 C 182.167,333.833 182.167,335.167 183.5,336.5C 179.5,335.167 179.5,333.833 183.5,332.5 Z"/></g>
<g><path style="opacity:1" fill="#f6c415" d="M 204.5,327.5 C 211.401,331.402 217.734,336.069 223.5,341.5C 223.343,342.873 223.51,344.207 224,345.5C 225.918,346.542 227.751,347.708 229.5,349C 228.5,349.333 227.5,349.667 226.5,350C 226.833,350.333 227.167,350.667 227.5,351C 225,351.833 224.833,353 227,354.5C 229.122,353.78 229.622,352.613 228.5,351C 229.5,350.333 230.5,350.333 231.5,351C 233.847,353.805 236.847,355.638 240.5,356.5C 242.532,360.466 243.865,364.633 244.5,369C 241.243,369.419 237.91,370.253 234.5,371.5C 234.33,372.822 234.663,373.989 235.5,375C 233.811,374.866 232.144,374.366 230.5,373.5C 218.92,365.589 207.92,356.922 197.5,347.5C 195.363,344.027 192.363,341.694 188.5,340.5C 186.251,339.92 184.585,338.587 183.5,336.5C 182.167,335.167 182.167,333.833 183.5,332.5C 185.181,330.992 187.181,329.992 189.5,329.5C 194.346,327.961 199.346,327.294 204.5,327.5 Z"/></g>
<g><path style="opacity:1" fill="#efd76d" d="M 188.5,340.5 C 192.363,341.694 195.363,344.027 197.5,347.5C 194.208,345.542 191.208,343.209 188.5,340.5 Z"/></g>
<g><path style="opacity:1" fill="#efcd53" d="M 151.5,339.5 C 159.278,344.014 167.278,344.014 175.5,339.5C 177.417,339.754 178.751,340.754 179.5,342.5C 178.033,342.106 176.533,341.773 175,341.5C 168.499,344.57 161.666,345.236 154.5,343.5C 152.712,342.717 151.712,341.384 151.5,339.5 Z"/></g>
<g><path style="opacity:1" fill="#f2c832" d="M 223.5,341.5 C 229.289,345.449 234.956,349.616 240.5,354C 245.055,357.007 246.888,361.174 246,366.5C 244.535,371.894 242.869,377.228 241,382.5C 237.308,379.635 233.808,376.635 230.5,373.5C 232.144,374.366 233.811,374.866 235.5,375C 234.663,373.989 234.33,372.822 234.5,371.5C 237.91,370.253 241.243,369.419 244.5,369C 243.865,364.633 242.532,360.466 240.5,356.5C 236.847,355.638 233.847,353.805 231.5,351C 230.5,350.333 229.5,350.333 228.5,351C 229.622,352.613 229.122,353.78 227,354.5C 224.833,353 225,351.833 227.5,351C 227.167,350.667 226.833,350.333 226.5,350C 227.5,349.667 228.5,349.333 229.5,349C 227.751,347.708 225.918,346.542 224,345.5C 223.51,344.207 223.343,342.873 223.5,341.5 Z"/></g>
<g><path style="opacity:1" fill="#f4cb45" d="M 191.5,351.5 C 199.387,357.27 207.054,363.27 214.5,369.5C 211.017,367.97 207.35,366.97 203.5,366.5C 203.785,364.712 203.452,363.045 202.5,361.5C 198.977,358.74 194.977,357.073 190.5,356.5C 191.309,354.929 191.643,353.262 191.5,351.5 Z"/></g>
<g><path style="opacity:1" fill="#f3ce50" d="M 214.5,369.5 C 219.722,373.271 224.722,377.271 229.5,381.5C 226.401,379.855 223.068,378.688 219.5,378C 218.62,376.644 218.286,375.144 218.5,373.5C 215.858,373.512 214.525,372.179 214.5,369.5 Z"/></g>
<g><path style="opacity:1" fill="#f2cc45" d="M 229.5,381.5 C 234.549,382.91 235.215,385.077 231.5,388C 220.184,394.382 208.184,398.882 195.5,401.5C 193.833,401.5 192.167,401.5 190.5,401.5C 194.45,401.021 197.783,399.188 200.5,396C 204.5,395.667 208.5,395.333 212.5,395C 215.747,392.636 219.413,391.136 223.5,390.5C 223.33,389.178 223.663,388.011 224.5,387C 229.378,387.618 231.045,385.784 229.5,381.5 Z"/></g>
<g><path style="opacity:1" fill="#efcb4d" d="M 153.5,393.5 C 156.216,393.678 158.883,394.178 161.5,395C 163.904,396.822 166.57,398.156 169.5,399C 170.381,399.708 171.047,400.542 171.5,401.5C 164.929,399.876 158.929,397.21 153.5,393.5 Z"/></g>
<g><path style="opacity:1" fill="#f0d87a" d="M 174.5,401.5 C 179.833,401.5 185.167,401.5 190.5,401.5C 192.167,401.5 193.833,401.5 195.5,401.5C 188.5,404.167 181.5,404.167 174.5,401.5 Z"/></g>
</svg>
