<?xml version="1.0" encoding="UTF-8"?>
<!DOCTYPE svg PUBLIC "-//W3C//DTD SVG 1.1//EN" "http://www.w3.org/Graphics/SVG/1.1/DTD/svg11.dtd">
<svg xmlns="http://www.w3.org/2000/svg" version="1.1" width="500px" height="500px" style="shape-rendering:geometricPrecision; text-rendering:geometricPrecision; image-rendering:optimizeQuality; fill-rule:evenodd; clip-rule:evenodd" xmlns:xlink="http://www.w3.org/1999/xlink">
<g><path style="opacity:1" fill="#eedf45" d="M 282.5,45.5 C 283.496,45.4142 284.329,45.7476 285,46.5C 287.564,50.4622 289.731,54.6288 291.5,59C 289.613,59.1626 288.113,58.3293 287,56.5C 285.04,53.4151 283.207,50.2485 281.5,47C 282.056,46.6174 282.389,46.1174 282.5,45.5 Z"/></g>
<g><path style="opacity:0.91" fill="#ecd855" d="M 302.5,43.5 C 303.725,44.1522 304.392,45.3189 304.5,47C 304.212,50.3185 303.379,53.4852 302,56.5C 301.13,55.8921 300.63,55.0588 300.5,54C 301.329,50.5221 301.996,47.0221 302.5,43.5 Z"/></g>
<g><path style="opacity:0.949" fill="#eddb49" d="M 321.5,46.5 C 322.922,46.7496 323.922,47.583 324.5,49C 312.758,64.4289 311.758,63.5956 321.5,46.5 Z"/></g>
<g><path style="opacity:0.886" fill="#efdf5c" d="M 270.5,59.5 C 274.756,60.5719 278.422,62.7386 281.5,66C 276.865,66.0203 272.865,64.3536 269.5,61C 270.056,60.6174 270.389,60.1174 270.5,59.5 Z"/></g>
<g><path style="opacity:1" fill="#f0dd50" d="M 332.5,61.5 C 336.135,61.6556 336.468,62.8223 333.5,65C 330.5,66.5 327.5,68 324.5,69.5C 324.167,69.1667 323.833,68.8333 323.5,68.5C 326.349,65.9163 329.349,63.583 332.5,61.5 Z"/></g>
<g><path style="opacity:0.278" fill="#f2dc4d" d="M 332.5,79.5 C 335.5,79.5 338.5,79.5 341.5,79.5C 341.67,80.8221 341.337,81.9887 340.5,83C 335.428,83.7511 330.428,83.4178 325.5,82C 327.833,80.957 330.166,80.1237 332.5,79.5 Z"/></g>
<g><path style="opacity:1" fill="#514d41" d="M 294.5,111.5 C 293.791,110.596 292.791,110.263 291.5,110.5C 287.883,109.358 284.55,107.692 281.5,105.5C 282.044,101.9 283.044,98.3995 284.5,95C 279.562,85.8444 279.396,76.6777 284,67.5C 296.48,56.5097 308.48,57.1763 320,69.5C 323.984,78.9001 322.15,87.0668 314.5,94C 310.5,95.6667 306.5,97.3333 302.5,99C 300.294,102.268 298.461,105.768 297,109.5C 296.292,110.381 295.458,111.047 294.5,111.5 Z"/></g>
<g><path style="opacity:1" fill="#4f491b" d="M 284.5,73.5 C 283.225,76.6038 283.225,79.6038 284.5,82.5C 284.5,83.8333 284.5,85.1667 284.5,86.5C 283.048,84.1524 282.382,81.4857 282.5,78.5C 282.556,76.3603 283.223,74.6936 284.5,73.5 Z"/></g>
<g><path style="opacity:1" fill="#ede082" d="M 316.5,69.5 C 319.012,71.237 320.012,73.737 319.5,77C 319.7,79.8655 319.033,82.3655 317.5,84.5C 318.331,80.5239 318.497,76.5239 318,72.5C 317.617,71.944 317.117,71.6107 316.5,71.5C 316.5,70.8333 316.5,70.1667 316.5,69.5 Z"/></g>
<g><path style="opacity:1" fill="#605912" d="M 307.5,75.5 C 308.207,77.1344 309.373,78.4677 311,79.5C 311.667,80.8333 311.667,82.1667 311,83.5C 301.924,88.4085 295.09,95.4085 290.5,104.5C 293.595,94.8986 299.762,87.8986 309,83.5C 309.783,81.6815 309.283,80.3482 307.5,79.5C 303.368,83.6018 302.701,83.1018 305.5,78C 305.167,77.8333 304.833,77.6667 304.5,77.5C 303.305,79.297 301.638,80.297 299.5,80.5C 299.383,78.5165 300.05,76.8498 301.5,75.5C 300.112,72.9211 298.612,72.9211 297,75.5C 296.1,81.6076 294.767,87.6076 293,93.5C 291.914,97.3464 290.081,100.68 287.5,103.5C 287.833,102.167 288.167,100.833 288.5,99.5C 290.601,96.2034 291.935,92.5368 292.5,88.5C 293.867,83.6788 295.034,78.6788 296,73.5C 299.48,70.5298 302.314,71.0298 304.5,75C 305.448,75.4828 306.448,75.6495 307.5,75.5 Z"/></g>
<g><path style="opacity:1" fill="#f7e228" d="M 316.5,71.5 C 317.117,71.6107 317.617,71.944 318,72.5C 318.497,76.5239 318.331,80.5239 317.5,84.5C 317.025,86.7837 316.025,88.7837 314.5,90.5C 310.605,91.9525 306.938,93.6191 303.5,95.5C 300.981,95.8477 299.147,97.1811 298,99.5C 296.355,102.622 294.855,105.788 293.5,109C 292.551,109.617 291.718,109.451 291,108.5C 290.51,107.207 290.343,105.873 290.5,104.5C 295.09,95.4085 301.924,88.4085 311,83.5C 311.667,82.1667 311.667,80.8333 311,79.5C 309.373,78.4677 308.207,77.1344 307.5,75.5C 307.063,73.9256 306.063,72.7589 304.5,72C 305.451,71.2825 305.617,70.4491 305,69.5C 303.132,70.6719 301.298,70.5053 299.5,69C 299.957,68.586 300.291,68.086 300.5,67.5C 299.167,66.8333 297.833,66.1667 296.5,65.5C 299.167,64.1667 301.833,64.1667 304.5,65.5C 308.28,68.0565 312.28,70.0565 316.5,71.5 Z"/></g>
<g><path style="opacity:1" fill="#f5ea55" d="M 313.5,67.5 C 314.5,68.1667 315.5,68.8333 316.5,69.5C 316.5,70.1667 316.5,70.8333 316.5,71.5C 312.28,70.0565 308.28,68.0565 304.5,65.5C 301.833,64.1667 299.167,64.1667 296.5,65.5C 297.833,66.1667 299.167,66.8333 300.5,67.5C 300.291,68.086 299.957,68.586 299.5,69C 301.298,70.5053 303.132,70.6719 305,69.5C 305.617,70.4491 305.451,71.2825 304.5,72C 306.063,72.7589 307.063,73.9256 307.5,75.5C 306.448,75.6495 305.448,75.4828 304.5,75C 302.314,71.0298 299.48,70.5298 296,73.5C 295.034,78.6788 293.867,83.6788 292.5,88.5C 292.17,82.9902 292.836,77.6569 294.5,72.5C 293.07,72.4208 291.736,72.7542 290.5,73.5C 289.833,72.5 289.167,71.5 288.5,70.5C 285.075,73.762 283.742,77.762 284.5,82.5C 283.225,79.6038 283.225,76.6038 284.5,73.5C 284.75,71.326 285.75,69.6594 287.5,68.5C 295.879,62.1982 304.546,61.8649 313.5,67.5 Z"/></g>
<g><path style="opacity:0.949" fill="#ece5a6" d="M 313.5,67.5 C 304.546,61.8649 295.879,62.1982 287.5,68.5C 290.398,63.8783 294.731,61.545 300.5,61.5C 305.515,62.1764 309.849,64.1764 313.5,67.5 Z"/></g>
<g><path style="opacity:1" fill="#f8e529" d="M 292.5,88.5 C 291.935,92.5368 290.601,96.2034 288.5,99.5C 287.662,99.1583 287.328,98.4916 287.5,97.5C 288.055,93.2935 287.055,89.6269 284.5,86.5C 284.5,85.1667 284.5,83.8333 284.5,82.5C 283.742,77.762 285.075,73.762 288.5,70.5C 289.167,71.5 289.833,72.5 290.5,73.5C 291.736,72.7542 293.07,72.4208 294.5,72.5C 292.836,77.6569 292.17,82.9902 292.5,88.5 Z"/></g>
<g><path style="opacity:1" fill="#5a5113" d="M 284.5,86.5 C 287.055,89.6269 288.055,93.2935 287.5,97.5C 287.167,97.5 286.833,97.5 286.5,97.5C 286.13,93.7674 285.463,90.1007 284.5,86.5 Z"/></g>
<g><path style="opacity:1" fill="#5f5715" d="M 314.5,90.5 C 311.668,93.7549 308.001,95.4216 303.5,95.5C 306.938,93.6191 310.605,91.9525 314.5,90.5 Z"/></g>
<g><path style="opacity:1" fill="#e8df46" d="M 290.5,104.5 C 288.694,107.338 287.694,107.005 287.5,103.5C 290.081,100.68 291.914,97.3464 293,93.5C 294.767,87.6076 296.1,81.6076 297,75.5C 298.612,72.9211 300.112,72.9211 301.5,75.5C 300.05,76.8498 299.383,78.5165 299.5,80.5C 301.638,80.297 303.305,79.297 304.5,77.5C 304.833,77.6667 305.167,77.8333 305.5,78C 302.701,83.1018 303.368,83.6018 307.5,79.5C 309.283,80.3482 309.783,81.6815 309,83.5C 299.762,87.8986 293.595,94.8986 290.5,104.5 Z"/></g>
<g><path style="opacity:1" fill="#f2dc4c" d="M 321.5,91.5 C 325.886,93.3837 329.552,96.2171 332.5,100C 331.725,101.23 330.725,101.563 329.5,101C 327.093,98.7152 324.593,96.5486 322,94.5C 321.517,93.552 321.351,92.552 321.5,91.5 Z"/></g>
<g><path style="opacity:1" fill="#ccc449" d="M 286.5,97.5 C 286.833,97.5 287.167,97.5 287.5,97.5C 287.328,98.4916 287.662,99.1583 288.5,99.5C 288.167,100.833 287.833,102.167 287.5,103.5C 286.542,103.953 285.708,104.619 285,105.5C 284.833,105 284.667,104.5 284.5,104C 285.609,101.953 286.276,99.7867 286.5,97.5 Z"/></g>
<g><path style="opacity:1" fill="#a1aaad" d="M 281.5,105.5 C 284.55,107.692 287.883,109.358 291.5,110.5C 291.918,111.222 292.584,111.722 293.5,112C 291.155,112.17 288.821,111.837 286.5,111C 284.937,109.264 283.27,107.764 281.5,106.5C 281.5,106.167 281.5,105.833 281.5,105.5 Z"/></g>
<g><path style="opacity:0.365" fill="#22160f" d="M 251.5,128.5 C 246.026,127.096 241.026,124.596 236.5,121C 225.585,116.535 214.585,116.368 203.5,120.5C 205.649,118.254 208.316,116.754 211.5,116C 224.709,113.297 236.375,116.297 246.5,125C 248.5,125.333 250.5,125.667 252.5,126C 253.883,127.461 253.549,128.294 251.5,128.5 Z"/></g>
<g><path style="opacity:1" fill="#44494c" d="M 281.5,106.5 C 283.27,107.764 284.937,109.264 286.5,111C 288.821,111.837 291.155,112.17 293.5,112C 292.584,111.722 291.918,111.222 291.5,110.5C 292.791,110.263 293.791,110.596 294.5,111.5C 295.218,113.137 295.384,114.803 295,116.5C 293,119.833 290.333,122.5 287,124.5C 284.455,123.478 281.955,122.312 279.5,121C 278.978,120.439 278.645,119.772 278.5,119C 278.365,115.281 278.865,111.448 280,107.5C 280.383,106.944 280.883,106.611 281.5,106.5 Z"/></g>
<g><path style="opacity:1" fill="#af7358" d="M 261.5,143.5 C 263.132,146.558 264.299,149.891 265,153.5C 266.408,165.129 265.242,176.462 261.5,187.5C 258.705,187.938 256.372,188.938 254.5,190.5C 251.5,188.833 249.167,186.5 247.5,183.5C 249.857,183.663 252.19,183.497 254.5,183C 243.939,182.254 236.606,177.087 232.5,167.5C 231.777,169.164 232.11,170.831 233.5,172.5C 226.351,176.265 220.851,174.598 217,167.5C 215.651,161.066 213.985,154.732 212,148.5C 210.136,145.793 207.636,144.959 204.5,146C 208.039,146.422 210.373,148.255 211.5,151.5C 209.05,151.298 206.717,151.631 204.5,152.5C 204.103,151.475 203.437,151.308 202.5,152C 201.333,153.167 200.167,154.333 199,155.5C 199.722,163.494 197.556,170.494 192.5,176.5C 191.476,175.147 190.143,174.48 188.5,174.5C 188.084,179.434 185.75,183.267 181.5,186C 182.094,186.464 182.761,186.631 183.5,186.5C 181.663,189.372 178.997,190.706 175.5,190.5C 176.609,189.71 177.942,189.21 179.5,189C 177.527,188.505 175.527,188.338 173.5,188.5C 171.653,180.263 170.32,171.929 169.5,163.5C 169.443,156.568 171.443,150.401 175.5,145C 174.231,145.109 173.231,144.942 172.5,144.5C 172.5,143.833 172.5,143.167 172.5,142.5C 176.477,138.676 179.977,134.342 183,129.5C 183.816,128.177 184.983,127.511 186.5,127.5C 190.163,126.888 193.83,126.721 197.5,127C 194.501,132.196 193.501,137.696 194.5,143.5C 196.188,142.479 197.521,141.145 198.5,139.5C 200.073,136.607 201.406,133.44 202.5,130C 201.258,128.555 200.425,127.055 200,125.5C 203.098,124.698 206.265,124.031 209.5,123.5C 211.272,122.64 212.605,121.307 213.5,119.5C 224.993,117.39 234.993,120.223 243.5,128C 247.416,127.842 250.082,129.509 251.5,133C 252.448,133.483 253.448,133.649 254.5,133.5C 254.551,135.57 253.885,137.403 252.5,139C 252.862,140.225 253.362,141.391 254,142.5C 254.419,141.328 255.085,140.328 256,139.5C 257.651,141.21 259.484,142.544 261.5,143.5 Z"/></g>
<g><path style="opacity:1" fill="#9e6e58" d="M 251.5,128.5 C 252.5,130.167 253.833,131.5 255.5,132.5C 257.455,136.14 259.455,139.806 261.5,143.5C 259.484,142.544 257.651,141.21 256,139.5C 255.085,140.328 254.419,141.328 254,142.5C 253.362,141.391 252.862,140.225 252.5,139C 253.885,137.403 254.551,135.57 254.5,133.5C 253.448,133.649 252.448,133.483 251.5,133C 250.082,129.509 247.416,127.842 243.5,128C 234.993,120.223 224.993,117.39 213.5,119.5C 212.605,121.307 211.272,122.64 209.5,123.5C 206.265,124.031 203.098,124.698 200,125.5C 200.425,127.055 201.258,128.555 202.5,130C 201.406,133.44 200.073,136.607 198.5,139.5C 197.521,141.145 196.188,142.479 194.5,143.5C 193.501,137.696 194.501,132.196 197.5,127C 193.83,126.721 190.163,126.888 186.5,127.5C 189.704,126.006 192.704,124.339 195.5,122.5C 198.221,122.037 200.888,121.371 203.5,120.5C 214.585,116.368 225.585,116.535 236.5,121C 241.026,124.596 246.026,127.096 251.5,128.5 Z"/></g>
<g><path style="opacity:1" fill="#452517" d="M 198.5,139.5 C 197.5,139.5 196.5,139.5 195.5,139.5C 195.987,135.526 197.32,131.859 199.5,128.5C 199.833,128.833 200.167,129.167 200.5,129.5C 198.816,132.612 198.15,135.946 198.5,139.5 Z"/></g>
<g><path style="opacity:0.73" fill="#202020" d="M 344.5,131.5 C 345.117,131.611 345.617,131.944 346,132.5C 346.667,137.5 346.667,142.5 346,147.5C 345.085,146.672 344.419,145.672 344,144.5C 343.232,140.08 343.398,135.747 344.5,131.5 Z"/></g>
<g><path style="opacity:0.627" fill="#1e120d" d="M 195.5,122.5 C 192.704,124.339 189.704,126.006 186.5,127.5C 184.983,127.511 183.816,128.177 183,129.5C 179.977,134.342 176.477,138.676 172.5,142.5C 171.602,141.842 170.602,141.176 169.5,140.5C 174.324,136.509 178.657,132.009 182.5,127C 186.337,124.123 190.67,122.623 195.5,122.5 Z"/></g>
<g><path style="opacity:0.969" fill="#191919" d="M 328.5,135.5 C 329.376,135.369 330.043,135.702 330.5,136.5C 331.903,139.875 333.403,143.209 335,146.5C 335.749,147.635 335.583,148.635 334.5,149.5C 330.874,145.577 328.874,140.91 328.5,135.5 Z"/></g>
<g><path style="opacity:0.643" fill="#3b3b3b" d="M 359.5,135.5 C 360.695,135.866 361.361,136.699 361.5,138C 360.217,141.852 358.55,145.519 356.5,149C 355.552,149.483 354.552,149.649 353.5,149.5C 354.963,144.577 356.963,139.91 359.5,135.5 Z"/></g>
<g><path style="opacity:1" fill="#412619" d="M 204.5,152.5 C 202.856,153.316 201.69,154.65 201,156.5C 200.279,162.606 199.112,168.606 197.5,174.5C 200.397,174.125 203.063,174.625 205.5,176C 202.54,175.68 199.54,175.68 196.5,176C 194.403,177.61 192.07,178.777 189.5,179.5C 188.192,182.464 186.192,184.797 183.5,186.5C 182.761,186.631 182.094,186.464 181.5,186C 185.75,183.267 188.084,179.434 188.5,174.5C 190.143,174.48 191.476,175.147 192.5,176.5C 197.556,170.494 199.722,163.494 199,155.5C 200.167,154.333 201.333,153.167 202.5,152C 203.437,151.308 204.103,151.475 204.5,152.5 Z"/></g>
<g><path style="opacity:0.984" fill="#4b4540" d="M 353.5,192.5 C 353.565,192.938 353.399,193.272 353,193.5C 352.768,192.263 352.268,191.263 351.5,190.5C 350.597,181.471 349.43,172.471 348,163.5C 345.924,162.243 344.09,162.576 342.5,164.5C 341.732,165.263 341.232,166.263 341,167.5C 340.845,177.247 340.345,186.247 339.5,194.5C 338.002,184.807 338.168,175.141 340,165.5C 343.776,157.535 347.443,157.535 351,165.5C 352.22,174.468 353.053,183.468 353.5,192.5 Z"/></g>
<g><path style="opacity:1" fill="#160c05" d="M 172.5,144.5 C 173.231,144.942 174.231,145.109 175.5,145C 171.443,150.401 169.443,156.568 169.5,163.5C 170.32,171.929 171.653,180.263 173.5,188.5C 175.527,188.338 177.527,188.505 179.5,189C 177.942,189.21 176.609,189.71 175.5,190.5C 171.541,192.073 169.875,195.073 170.5,199.5C 170.672,200.492 170.338,201.158 169.5,201.5C 168.371,199.372 168.204,197.039 169,194.5C 169.867,192.316 170.701,190.149 171.5,188C 167.655,176.345 166.821,164.511 169,152.5C 169.942,149.626 171.109,146.96 172.5,144.5 Z"/></g>
<g><path style="opacity:1" fill="#2c170e" d="M 247.5,183.5 C 242.873,182.048 238.873,179.548 235.5,176C 226.005,179.007 219.172,175.841 215,166.5C 213.89,161.445 212.724,156.445 211.5,151.5C 210.373,148.255 208.039,146.422 204.5,146C 207.636,144.959 210.136,145.793 212,148.5C 213.985,154.732 215.651,161.066 217,167.5C 220.851,174.598 226.351,176.265 233.5,172.5C 232.11,170.831 231.777,169.164 232.5,167.5C 236.606,177.087 243.939,182.254 254.5,183C 252.19,183.497 249.857,183.663 247.5,183.5 Z"/></g>
<g><path style="opacity:1" fill="#f1d4bb" d="M 351.5,190.5 C 351.5,192.167 351.5,193.833 351.5,195.5C 351.753,197.827 351.086,199.827 349.5,201.5C 348.818,200.757 348.151,200.091 347.5,199.5C 346.162,197.33 344.328,195.664 342,194.5C 341.271,184.473 341.437,174.473 342.5,164.5C 344.09,162.576 345.924,162.243 348,163.5C 349.43,172.471 350.597,181.471 351.5,190.5 Z"/></g>
<g><path style="opacity:0.314" fill="#21140d" d="M 255.5,132.5 C 258.449,133.614 260.615,135.614 262,138.5C 270.11,155.27 270.61,172.27 263.5,189.5C 262.609,190.11 261.609,190.443 260.5,190.5C 258.5,190.5 256.5,190.5 254.5,190.5C 256.372,188.938 258.705,187.938 261.5,187.5C 265.242,176.462 266.408,165.129 265,153.5C 264.299,149.891 263.132,146.558 261.5,143.5C 259.455,139.806 257.455,136.14 255.5,132.5 Z"/></g>
<g><path style="opacity:1" fill="#f9dabf" d="M 211.5,151.5 C 212.724,156.445 213.89,161.445 215,166.5C 219.172,175.841 226.005,179.007 235.5,176C 238.873,179.548 242.873,182.048 247.5,183.5C 249.167,186.5 251.5,188.833 254.5,190.5C 256.5,190.5 258.5,190.5 260.5,190.5C 265.05,198.546 263.384,205.212 255.5,210.5C 254.833,209.167 254.167,207.833 253.5,206.5C 251.181,216.176 247.515,225.176 242.5,233.5C 235.178,242.162 225.844,247.162 214.5,248.5C 195.833,241.305 185,227.638 182,207.5C 181.667,207.167 181.333,206.833 181,206.5C 180.51,207.793 180.343,209.127 180.5,210.5C 175.061,208.728 171.727,205.062 170.5,199.5C 169.875,195.073 171.541,192.073 175.5,190.5C 178.997,190.706 181.663,189.372 183.5,186.5C 186.192,184.797 188.192,182.464 189.5,179.5C 192.07,178.777 194.403,177.61 196.5,176C 199.54,175.68 202.54,175.68 205.5,176C 203.063,174.625 200.397,174.125 197.5,174.5C 199.112,168.606 200.279,162.606 201,156.5C 201.69,154.65 202.856,153.316 204.5,152.5C 206.717,151.631 209.05,151.298 211.5,151.5 Z"/></g>
<g><path style="opacity:1" fill="#1a120d" d="M 197.5,189.5 C 202.068,189.083 203.568,191.083 202,195.5C 200.451,198.003 198.784,198.003 197,195.5C 196.322,193.402 196.489,191.402 197.5,189.5 Z"/></g>
<g><path style="opacity:1" fill="#332115" d="M 217.5,187.5 C 218.097,187.735 218.43,188.235 218.5,189C 217.188,192.581 216.188,196.248 215.5,200C 216.838,203.174 218.505,206.174 220.5,209C 220.112,210.951 219.112,212.451 217.5,213.5C 217.167,213.167 216.833,212.833 216.5,212.5C 219.223,209.371 218.723,206.704 215,204.5C 213.995,198.532 214.829,192.866 217.5,187.5 Z"/></g>
<g><path style="opacity:1" fill="#1d1713" d="M 232.5,189.5 C 235.352,189.352 237.019,190.686 237.5,193.5C 235.167,198.833 232.833,198.833 230.5,193.5C 230.752,191.927 231.418,190.594 232.5,189.5 Z"/></g>
<g><path style="opacity:1" fill="#3f2816" d="M 175.5,197.5 C 177.609,198.052 178.442,199.386 178,201.5C 176.519,200.529 175.685,199.196 175.5,197.5 Z"/></g>
<g><path style="opacity:1" fill="#8f7561" d="M 256.5,197.5 C 257.586,197.62 258.253,198.287 258.5,199.5C 258.141,202.282 256.808,202.948 254.5,201.5C 255.63,200.378 256.297,199.044 256.5,197.5 Z"/></g>
<g><path style="opacity:1" fill="#f2d6be" d="M 361.5,202.5 C 356.902,208.248 355.235,214.915 356.5,222.5C 353.234,222.567 351.734,220.901 352,217.5C 350.999,210.33 351.499,203.33 353.5,196.5C 353.611,195.883 353.944,195.383 354.5,195C 358.819,193.54 361.819,194.874 363.5,199C 363.022,200.303 362.355,201.469 361.5,202.5 Z"/></g>
<g><path style="opacity:0.431" fill="#352c25" d="M 263.5,189.5 C 267.981,200.396 264.981,208.396 254.5,213.5C 252.717,221.065 249.384,227.732 244.5,233.5C 243.833,233.5 243.167,233.5 242.5,233.5C 247.515,225.176 251.181,216.176 253.5,206.5C 254.167,207.833 254.833,209.167 255.5,210.5C 263.384,205.212 265.05,198.546 260.5,190.5C 261.609,190.443 262.609,190.11 263.5,189.5 Z"/></g>
<g><path style="opacity:1" fill="#f0d4bb" d="M 358.5,225.5 C 357.501,217.61 358.834,210.276 362.5,203.5C 366.655,199.13 369.988,199.797 372.5,205.5C 366.515,211.957 364.015,219.624 365,228.5C 361.552,230.264 359.385,229.264 358.5,225.5 Z"/></g>
<g><path style="opacity:1" fill="#503f2f" d="M 351.5,195.5 C 352.167,195.833 352.833,196.167 353.5,196.5C 351.499,203.33 350.999,210.33 352,217.5C 351.734,220.901 353.234,222.567 356.5,222.5C 355.235,214.915 356.902,208.248 361.5,202.5C 361.5,203.167 361.833,203.5 362.5,203.5C 358.834,210.276 357.501,217.61 358.5,225.5C 357.599,226.29 356.932,227.29 356.5,228.5C 350.652,222.497 348.152,215.164 349,206.5C 348.427,204.359 347.594,202.359 346.5,200.5C 347.167,200.5 347.5,200.167 347.5,199.5C 348.151,200.091 348.818,200.757 349.5,201.5C 351.086,199.827 351.753,197.827 351.5,195.5 Z"/></g>
<g><path style="opacity:1" fill="#35271d" d="M 351.5,190.5 C 352.268,191.263 352.768,192.263 353,193.5C 353.399,193.272 353.565,192.938 353.5,192.5C 359.248,190.704 363.581,192.537 366.5,198C 371.611,201.161 376.611,204.328 381.5,207.5C 381.5,208.167 381.167,208.5 380.5,208.5C 377.887,207.565 375.221,207.398 372.5,208C 367.619,213.642 365.786,220.142 367,227.5C 368.478,230.993 370.478,231.326 373,228.5C 374.107,223.619 376.274,219.286 379.5,215.5C 379.833,215.833 380.167,216.167 380.5,216.5C 377.483,220.369 375.316,224.702 374,229.5C 373.044,230.894 371.711,231.561 370,231.5C 366.479,230.37 362.979,230.37 359.5,231.5C 362.203,235.439 363.37,239.773 363,244.5C 361.119,239.017 358.952,233.684 356.5,228.5C 356.932,227.29 357.599,226.29 358.5,225.5C 359.385,229.264 361.552,230.264 365,228.5C 364.015,219.624 366.515,211.957 372.5,205.5C 369.988,199.797 366.655,199.13 362.5,203.5C 361.833,203.5 361.5,203.167 361.5,202.5C 362.355,201.469 363.022,200.303 363.5,199C 361.819,194.874 358.819,193.54 354.5,195C 353.944,195.383 353.611,195.883 353.5,196.5C 352.833,196.167 352.167,195.833 351.5,195.5C 351.5,193.833 351.5,192.167 351.5,190.5 Z"/></g>
<g><path style="opacity:1" fill="#352a23" d="M 202.5,217.5 C 212.134,218.392 221.801,218.725 231.5,218.5C 229.883,230.646 223.217,235.479 211.5,233C 205.795,229.426 202.795,224.259 202.5,217.5 Z"/></g>
<g><path style="opacity:1" fill="#f7f8f7" d="M 229.5,220.5 C 224.788,233.851 217.288,235.851 207,226.5C 206.209,225.255 205.709,223.922 205.5,222.5C 213.097,220.533 221.097,219.866 229.5,220.5 Z"/></g>
<g><path style="opacity:1" fill="#a09c97" d="M 229.5,220.5 C 221.097,219.866 213.097,220.533 205.5,222.5C 204.596,221.791 204.263,220.791 204.5,219.5C 213.017,219.174 221.35,219.507 229.5,220.5 Z"/></g>
<g><path style="opacity:1" fill="#120f0d" d="M 242.5,233.5 C 243.167,233.5 243.833,233.5 244.5,233.5C 243.569,235.033 242.902,236.7 242.5,238.5C 243.84,239.99 244.84,241.656 245.5,243.5C 244.213,244.768 243.213,244.435 242.5,242.5C 241.202,244.052 241.535,245.052 243.5,245.5C 241.193,252.474 236.526,257.141 229.5,259.5C 233.104,256.398 236.604,253.065 240,249.5C 240.688,248.668 240.521,248.002 239.5,247.5C 233.376,252.598 226.376,254.764 218.5,254C 216.509,253.626 214.842,252.793 213.5,251.5C 213.389,250.883 213.056,250.383 212.5,250C 213.416,249.722 214.082,249.222 214.5,248.5C 225.844,247.162 235.178,242.162 242.5,233.5 Z"/></g>
<g><path style="opacity:1" fill="#fadbbf" d="M 346.5,200.5 C 347.594,202.359 348.427,204.359 349,206.5C 348.152,215.164 350.652,222.497 356.5,228.5C 358.952,233.684 361.119,239.017 363,244.5C 363.37,239.773 362.203,235.439 359.5,231.5C 362.979,230.37 366.479,230.37 370,231.5C 371.711,231.561 373.044,230.894 374,229.5C 375.316,224.702 377.483,220.369 380.5,216.5C 380.167,216.167 379.833,215.833 379.5,215.5C 376.274,219.286 374.107,223.619 373,228.5C 370.478,231.326 368.478,230.993 367,227.5C 365.786,220.142 367.619,213.642 372.5,208C 375.221,207.398 377.887,207.565 380.5,208.5C 383.645,214.586 384.978,221.086 384.5,228C 383.547,239.267 381.88,250.434 379.5,261.5C 379.85,265.565 380.517,269.565 381.5,273.5C 373.11,278.013 364.11,279.68 354.5,278.5C 354.625,273.667 353.792,269 352,264.5C 347.841,257.184 344.508,249.517 342,241.5C 340.675,226.533 339.841,211.533 339.5,196.5C 342.812,196.149 345.145,197.482 346.5,200.5 Z"/></g>
<g><path style="opacity:0.741" fill="#1a1613" d="M 381.5,207.5 C 383.41,208.975 384.576,210.975 385,213.5C 386.006,218.611 386.506,223.778 386.5,229C 384.908,241.518 383.408,254.018 382,266.5C 383.955,267.453 385.622,268.787 387,270.5C 390.134,281.036 392.634,291.703 394.5,302.5C 394.167,302.5 393.833,302.5 393.5,302.5C 391.002,292.522 388.169,282.522 385,272.5C 384.292,273.381 383.458,274.047 382.5,274.5C 381.833,274.5 381.5,274.167 381.5,273.5C 380.517,269.565 379.85,265.565 379.5,261.5C 381.88,250.434 383.547,239.267 384.5,228C 384.978,221.086 383.645,214.586 380.5,208.5C 381.167,208.5 381.5,208.167 381.5,207.5 Z"/></g>
<g><path style="opacity:1" fill="#f1f1f1" d="M 243.5,245.5 C 246.653,247.502 248.987,250.335 250.5,254C 247.744,260.011 245.41,266.178 243.5,272.5C 242.635,273.583 241.635,273.749 240.5,273C 238.542,270.252 236.709,267.418 235,264.5C 234.184,263.177 233.017,262.511 231.5,262.5C 230.449,261.778 229.782,260.778 229.5,259.5C 236.526,257.141 241.193,252.474 243.5,245.5 Z"/></g>
<g><path style="opacity:1" fill="#f4d7bd" d="M 213.5,251.5 C 214.842,252.793 216.509,253.626 218.5,254C 226.376,254.764 233.376,252.598 239.5,247.5C 240.521,248.002 240.688,248.668 240,249.5C 236.604,253.065 233.104,256.398 229.5,259.5C 227.284,260.203 225.451,261.536 224,263.5C 222.05,270.021 219.717,276.354 217,282.5C 214.667,276.167 212.333,269.833 210,263.5C 204.646,259.144 199.646,254.477 195,249.5C 194.333,245.833 194.333,242.167 195,238.5C 200.788,243.467 206.954,247.801 213.5,251.5 Z"/></g>
<g><path style="opacity:0.995" fill="#fdfdfd" d="M 181.5,252.5 C 184.608,261.385 188.275,270.051 192.5,278.5C 195.709,273.248 199.042,268.082 202.5,263C 203.833,262.333 205.167,262.333 206.5,263C 208.377,265.251 209.877,267.751 211,270.5C 212.568,275.714 214.401,280.714 216.5,285.5C 217.877,290.386 218.711,295.386 219,300.5C 221.255,350.138 222.088,399.805 221.5,449.5C 219.71,447.432 217.377,446.099 214.5,445.5C 202.106,448.745 189.606,451.412 177,453.5C 167.405,452.363 157.905,450.697 148.5,448.5C 146.488,448.84 144.488,449.173 142.5,449.5C 142.825,442.313 142.491,435.313 141.5,428.5C 141.468,409.961 140.468,391.628 138.5,373.5C 138.546,366.809 138.212,360.143 137.5,353.5C 137.348,347.301 136.682,341.301 135.5,335.5C 135.823,331.774 135.489,328.107 134.5,324.5C 134.167,326 133.833,327.5 133.5,329C 134.198,333.811 134.531,338.644 134.5,343.5C 134.181,348.363 134.514,353.03 135.5,357.5C 136.449,366.143 137.116,374.81 137.5,383.5C 138.667,398.171 138.667,412.838 137.5,427.5C 136.577,434.109 136.244,440.776 136.5,447.5C 130.802,447.409 126.968,444.742 125,439.5C 117.569,444.868 110.236,444.535 103,438.5C 100.425,441.319 98.0917,444.319 96,447.5C 95.3292,448.252 94.4959,448.586 93.5,448.5C 93.9303,439.476 94.597,430.476 95.5,421.5C 96.6361,415.359 97.3028,409.026 97.5,402.5C 97.2941,398.102 97.6274,393.768 98.5,389.5C 100.078,384.417 100.745,379.084 100.5,373.5C 100.185,369.629 100.518,365.962 101.5,362.5C 103.321,354.401 104.321,346.068 104.5,337.5C 105.827,325.03 107.994,312.696 111,300.5C 114.18,287.987 121.68,279.154 133.5,274C 146.167,269.333 158.833,264.667 171.5,260C 173.833,258.833 176.167,257.667 178.5,256.5C 179.386,255.675 179.719,254.675 179.5,253.5C 180.167,253.167 180.833,252.833 181.5,252.5 Z"/></g>
<g><path style="opacity:0.997" fill="#fdfdfd" d="M 253.5,254.5 C 253.833,254.5 254.167,254.5 254.5,254.5C 254.756,256.776 256.09,257.943 258.5,258C 269.87,259.815 281.203,261.815 292.5,264C 299.924,265.418 306.924,267.918 313.5,271.5C 324.515,281.017 334.348,291.684 343,303.5C 346.667,308.5 350.333,313.5 354,318.5C 354.495,320.473 354.662,322.473 354.5,324.5C 355.061,339.179 355.895,353.846 357,368.5C 357.27,371.362 358.104,374.028 359.5,376.5C 359.833,376 360.167,375.5 360.5,375C 359.252,359.018 357.918,343.185 356.5,327.5C 356.5,325.833 356.5,324.167 356.5,322.5C 356.624,316.931 355.957,311.598 354.5,306.5C 354.074,297.425 353.074,288.425 351.5,279.5C 362.647,282.025 372.98,280.358 382.5,274.5C 383.458,274.047 384.292,273.381 385,272.5C 388.169,282.522 391.002,292.522 393.5,302.5C 398.579,324.973 402.579,347.64 405.5,370.5C 405.694,380.095 403.028,388.762 397.5,396.5C 394.216,401.055 389.716,403.055 384,402.5C 376.327,401.748 369.16,399.415 362.5,395.5C 343.184,383.323 325.517,368.99 309.5,352.5C 309.44,351.957 309.107,351.624 308.5,351.5C 307.476,352.853 306.143,353.52 304.5,353.5C 304.833,339.817 304.499,326.15 303.5,312.5C 302.123,331.809 301.456,351.142 301.5,370.5C 301.695,384.186 301.362,397.853 300.5,411.5C 299.833,422.167 299.167,432.833 298.5,443.5C 296.825,441.998 294.992,440.665 293,439.5C 286.159,443.83 278.659,446.33 270.5,447C 256.727,449.285 243.06,448.785 229.5,445.5C 227.488,445.84 225.488,446.173 223.5,446.5C 223.73,404.824 223.23,363.157 222,321.5C 221.428,309.075 220.262,296.742 218.5,284.5C 220.064,280.313 221.564,275.98 223,271.5C 224.306,268.379 226.14,265.713 228.5,263.5C 231.263,263.744 233.429,265.077 235,267.5C 237.084,271.336 239.417,275.003 242,278.5C 246.159,270.52 249.992,262.52 253.5,254.5 Z"/></g>
<g><path style="opacity:0.82" fill="#3b332c" d="M 342.5,164.5 C 341.437,174.473 341.271,184.473 342,194.5C 344.328,195.664 346.162,197.33 347.5,199.5C 347.5,200.167 347.167,200.5 346.5,200.5C 345.145,197.482 342.812,196.149 339.5,196.5C 339.841,211.533 340.675,226.533 342,241.5C 344.508,249.517 347.841,257.184 352,264.5C 353.792,269 354.625,273.667 354.5,278.5C 364.11,279.68 373.11,278.013 381.5,273.5C 381.5,274.167 381.833,274.5 382.5,274.5C 372.98,280.358 362.647,282.025 351.5,279.5C 353.074,288.425 354.074,297.425 354.5,306.5C 354.66,308.199 354.494,309.866 354,311.5C 353.722,310.584 353.222,309.918 352.5,309.5C 350.906,298.184 349.739,286.85 349,275.5C 350.022,274.646 350.855,273.646 351.5,272.5C 347.673,262.843 343.839,253.177 340,243.5C 339.007,239.558 338.34,235.558 338,231.5C 337.435,219.82 337.102,208.154 337,196.5C 337.708,195.619 338.542,194.953 339.5,194.5C 340.345,186.247 340.845,177.247 341,167.5C 341.232,166.263 341.732,165.263 342.5,164.5 Z"/></g>
<g><path style="opacity:0.602" fill="#464646" d="M 254.5,254.5 C 269.902,256.915 285.236,259.748 300.5,263C 305.368,264.33 309.701,266.496 313.5,269.5C 313.5,270.167 313.5,270.833 313.5,271.5C 306.924,267.918 299.924,265.418 292.5,264C 281.203,261.815 269.87,259.815 258.5,258C 256.09,257.943 254.756,256.776 254.5,254.5 Z"/></g>
<g><path style="opacity:1" fill="#464646" d="M 245.5,243.5 C 248.888,246.597 251.555,250.264 253.5,254.5C 249.992,262.52 246.159,270.52 242,278.5C 239.417,275.003 237.084,271.336 235,267.5C 233.429,265.077 231.263,263.744 228.5,263.5C 229.209,262.596 230.209,262.263 231.5,262.5C 233.017,262.511 234.184,263.177 235,264.5C 236.709,267.418 238.542,270.252 240.5,273C 241.635,273.749 242.635,273.583 243.5,272.5C 245.41,266.178 247.744,260.011 250.5,254C 248.987,250.335 246.653,247.502 243.5,245.5C 241.535,245.052 241.202,244.052 242.5,242.5C 243.213,244.435 244.213,244.768 245.5,243.5 Z"/></g>
<g><path style="opacity:1" fill="#312a26" d="M 170.5,199.5 C 171.727,205.062 175.061,208.728 180.5,210.5C 180.343,209.127 180.51,207.793 181,206.5C 181.333,206.833 181.667,207.167 182,207.5C 185,227.638 195.833,241.305 214.5,248.5C 214.082,249.222 213.416,249.722 212.5,250C 213.056,250.383 213.389,250.883 213.5,251.5C 206.954,247.801 200.788,243.467 195,238.5C 194.333,242.167 194.333,245.833 195,249.5C 199.646,254.477 204.646,259.144 210,263.5C 212.333,269.833 214.667,276.167 217,282.5C 219.717,276.354 222.05,270.021 224,263.5C 225.451,261.536 227.284,260.203 229.5,259.5C 229.782,260.778 230.449,261.778 231.5,262.5C 230.209,262.263 229.209,262.596 228.5,263.5C 226.14,265.713 224.306,268.379 223,271.5C 221.564,275.98 220.064,280.313 218.5,284.5C 217.377,283.243 216.711,283.576 216.5,285.5C 214.401,280.714 212.568,275.714 211,270.5C 209.877,267.751 208.377,265.251 206.5,263C 205.167,262.333 203.833,262.333 202.5,263C 199.042,268.082 195.709,273.248 192.5,278.5C 188.275,270.051 184.608,261.385 181.5,252.5C 184.843,247.493 188.176,242.493 191.5,237.5C 186.884,229.932 183.05,221.932 180,213.5C 174.483,211.157 170.983,207.157 169.5,201.5C 170.338,201.158 170.672,200.492 170.5,199.5 Z"/></g>
<g><path style="opacity:1" fill="#f3f4f3" d="M 188.5,245.5 C 190.988,246.74 192.821,248.74 194,251.5C 196.869,254.704 200.035,257.537 203.5,260C 199.224,264.081 195.557,268.581 192.5,273.5C 189.106,267.21 186.106,260.71 183.5,254C 185.057,251.045 186.724,248.212 188.5,245.5 Z"/></g>
<g><path style="opacity:0.067" fill="#1c1c1c" d="M 313.5,269.5 C 319.742,274.236 325.576,279.569 331,285.5C 337.279,293.753 343.779,301.753 350.5,309.5C 350.764,312.757 352.43,314.757 355.5,315.5C 355.198,318.059 355.532,320.393 356.5,322.5C 356.5,324.167 356.5,325.833 356.5,327.5C 356.662,329.527 356.495,331.527 356,333.5C 355.819,330.305 355.319,327.305 354.5,324.5C 354.662,322.473 354.495,320.473 354,318.5C 350.333,313.5 346.667,308.5 343,303.5C 334.348,291.684 324.515,281.017 313.5,271.5C 313.5,270.833 313.5,270.167 313.5,269.5 Z"/></g>
<g><path style="opacity:1" fill="#1a1a1a" d="M 385.5,290.5 C 387.842,290.775 387.842,291.608 385.5,293C 376.271,298.688 366.604,299.855 356.5,296.5C 356.833,296.167 357.167,295.833 357.5,295.5C 367.738,298.604 377.071,296.937 385.5,290.5 Z"/></g>
<g><path style="opacity:1" fill="#7f7f7f" d="M 354.5,306.5 C 355.957,311.598 356.624,316.931 356.5,322.5C 355.532,320.393 355.198,318.059 355.5,315.5C 352.43,314.757 350.764,312.757 350.5,309.5C 351.167,309.5 351.833,309.5 352.5,309.5C 353.222,309.918 353.722,310.584 354,311.5C 354.494,309.866 354.66,308.199 354.5,306.5 Z"/></g>
<g><path style="opacity:1" fill="#6a6a6a" d="M 309.5,352.5 C 308.662,352.842 308.328,353.508 308.5,354.5C 307.167,354.5 305.833,354.5 304.5,354.5C 303.675,350.353 303.175,346.019 303,341.5C 302.83,351.342 302.33,361.009 301.5,370.5C 301.456,351.142 302.123,331.809 303.5,312.5C 304.499,326.15 304.833,339.817 304.5,353.5C 306.143,353.52 307.476,352.853 308.5,351.5C 309.107,351.624 309.44,351.957 309.5,352.5 Z"/></g>
<g><path style="opacity:1" fill="#3f3f3f" d="M 135.5,335.5 C 135.806,338.385 135.473,341.052 134.5,343.5C 134.531,338.644 134.198,333.811 133.5,329C 133.833,327.5 134.167,326 134.5,324.5C 135.489,328.107 135.823,331.774 135.5,335.5 Z"/></g>
<g><path style="opacity:1" fill="#6e6e6e" d="M 354.5,324.5 C 355.319,327.305 355.819,330.305 356,333.5C 356.495,331.527 356.662,329.527 356.5,327.5C 357.918,343.185 359.252,359.018 360.5,375C 360.167,375.5 359.833,376 359.5,376.5C 358.104,374.028 357.27,371.362 357,368.5C 355.895,353.846 355.061,339.179 354.5,324.5 Z"/></g>
<g><path style="opacity:1" fill="#b7b7b7" d="M 104.5,337.5 C 104.321,346.068 103.321,354.401 101.5,362.5C 101.779,353.943 102.779,345.609 104.5,337.5 Z"/></g>
<g><path style="opacity:0.484" fill="#373737" d="M 393.5,302.5 C 393.833,302.5 394.167,302.5 394.5,302.5C 400.116,322.409 404.282,342.743 407,363.5C 407.788,370.556 407.455,377.556 406,384.5C 405.19,388.787 403.357,392.454 400.5,395.5C 399.609,396.11 398.609,396.443 397.5,396.5C 403.028,388.762 405.694,380.095 405.5,370.5C 402.579,347.64 398.579,324.973 393.5,302.5 Z"/></g>
<g><path style="opacity:0.153" fill="#2b2b2b" d="M 179.5,253.5 C 179.719,254.675 179.386,255.675 178.5,256.5C 176.167,257.667 173.833,258.833 171.5,260C 158.833,264.667 146.167,269.333 133.5,274C 121.68,279.154 114.18,287.987 111,300.5C 107.994,312.696 105.827,325.03 104.5,337.5C 102.779,345.609 101.779,353.943 101.5,362.5C 100.518,365.962 100.185,369.629 100.5,373.5C 99.1937,378.616 98.527,383.949 98.5,389.5C 97.6274,393.768 97.2941,398.102 97.5,402.5C 96.6862,404.631 96.1862,406.964 96,409.5C 95.7216,408.584 95.2216,407.918 94.5,407.5C 96.9622,371.505 101.796,335.838 109,300.5C 111.385,289.219 117.552,280.719 127.5,275C 144.574,267.144 161.908,259.977 179.5,253.5 Z"/></g>
<g><path style="opacity:1" fill="#848484" d="M 135.5,335.5 C 136.682,341.301 137.348,347.301 137.5,353.5C 136.691,351.708 136.191,349.708 136,347.5C 135.502,350.817 135.335,354.15 135.5,357.5C 134.514,353.03 134.181,348.363 134.5,343.5C 135.473,341.052 135.806,338.385 135.5,335.5 Z"/></g>
<g><path style="opacity:1" fill="#4b4b4b" d="M 137.5,353.5 C 138.212,360.143 138.546,366.809 138.5,373.5C 138.813,377.042 138.479,380.375 137.5,383.5C 137.116,374.81 136.449,366.143 135.5,357.5C 135.335,354.15 135.502,350.817 136,347.5C 136.191,349.708 136.691,351.708 137.5,353.5 Z"/></g>
<g><path style="opacity:1" fill="#1a1a1a" d="M 218.5,284.5 C 220.262,296.742 221.428,309.075 222,321.5C 223.23,363.157 223.73,404.824 223.5,446.5C 223.715,448.179 223.048,449.179 221.5,449.5C 222.088,399.805 221.255,350.138 219,300.5C 218.711,295.386 217.877,290.386 216.5,285.5C 216.711,283.576 217.377,283.243 218.5,284.5 Z"/></g>
<g><path style="opacity:0.937" fill="#323232" d="M 309.5,352.5 C 325.517,368.99 343.184,383.323 362.5,395.5C 361.5,395.5 360.5,395.5 359.5,395.5C 352.132,391.644 345.132,387.144 338.5,382C 328.004,373.336 318.004,364.169 308.5,354.5C 308.328,353.508 308.662,352.842 309.5,352.5 Z"/></g>
<g><path style="opacity:1" fill="#a3a3a3" d="M 100.5,373.5 C 100.745,379.084 100.078,384.417 98.5,389.5C 98.527,383.949 99.1937,378.616 100.5,373.5 Z"/></g>
<g><path style="opacity:0.347" fill="#313031" d="M 304.5,354.5 C 303.738,381.164 303.072,407.831 302.5,434.5C 300.535,427.24 299.868,419.573 300.5,411.5C 301.362,397.853 301.695,384.186 301.5,370.5C 302.33,361.009 302.83,351.342 303,341.5C 303.175,346.019 303.675,350.353 304.5,354.5 Z"/></g>
<g><path style="opacity:0.604" fill="#161616" d="M 359.5,395.5 C 360.5,395.5 361.5,395.5 362.5,395.5C 369.16,399.415 376.327,401.748 384,402.5C 389.716,403.055 394.216,401.055 397.5,396.5C 398.609,396.443 399.609,396.11 400.5,395.5C 397.282,401.701 392.116,405.034 385,405.5C 375.619,404.21 367.119,400.877 359.5,395.5 Z"/></g>
<g><path style="opacity:1" fill="#656565" d="M 138.5,373.5 C 140.468,391.628 141.468,409.961 141.5,428.5C 141.666,435.175 141.5,441.842 141,448.5C 140.667,444.833 140.333,441.167 140,437.5C 139.722,436.584 139.222,435.918 138.5,435.5C 139.167,433.167 139.833,430.833 140.5,428.5C 140.666,421.492 140.5,414.492 140,407.5C 139.169,414.146 138.669,420.813 138.5,427.5C 138.167,427.5 137.833,427.5 137.5,427.5C 138.667,412.838 138.667,398.171 137.5,383.5C 138.479,380.375 138.813,377.042 138.5,373.5 Z"/></g>
<g><path style="opacity:0.959" fill="#6d6d6d" d="M 97.5,402.5 C 97.3028,409.026 96.6361,415.359 95.5,421.5C 95.5405,418.119 95.2071,414.786 94.5,411.5C 94.5,410.167 94.5,408.833 94.5,407.5C 95.2216,407.918 95.7216,408.584 96,409.5C 96.1862,406.964 96.6862,404.631 97.5,402.5 Z"/></g>
<g><path style="opacity:1" fill="#151515" d="M 140.5,428.5 C 139.075,430.031 138.409,429.698 138.5,427.5C 138.669,420.813 139.169,414.146 140,407.5C 140.5,414.492 140.666,421.492 140.5,428.5 Z"/></g>
<g><path style="opacity:0.29" fill="#363636" d="M 94.5,411.5 C 95.2071,414.786 95.5405,418.119 95.5,421.5C 94.597,430.476 93.9303,439.476 93.5,448.5C 92.1999,446.777 91.5332,444.61 91.5,442C 92.0757,431.641 93.0757,421.475 94.5,411.5 Z"/></g>
<g><path style="opacity:1" fill="#a4a4a4" d="M 141.5,428.5 C 142.491,435.313 142.825,442.313 142.5,449.5C 140.214,449.405 138.214,448.738 136.5,447.5C 137.117,447.389 137.617,447.056 138,446.5C 138.499,442.848 138.665,439.182 138.5,435.5C 139.222,435.918 139.722,436.584 140,437.5C 140.333,441.167 140.667,444.833 141,448.5C 141.5,441.842 141.666,435.175 141.5,428.5 Z"/></g>
<g><path style="opacity:1" fill="#505050" d="M 137.5,427.5 C 137.833,427.5 138.167,427.5 138.5,427.5C 138.409,429.698 139.075,430.031 140.5,428.5C 139.833,430.833 139.167,433.167 138.5,435.5C 138.665,439.182 138.499,442.848 138,446.5C 137.617,447.056 137.117,447.389 136.5,447.5C 136.244,440.776 136.577,434.109 137.5,427.5 Z"/></g>
<g><path style="opacity:0.94" fill="#6c6a6b" d="M 300.5,411.5 C 299.868,419.573 300.535,427.24 302.5,434.5C 302.78,439.314 302.114,443.98 300.5,448.5C 298.783,447.332 298.116,445.665 298.5,443.5C 299.167,432.833 299.833,422.167 300.5,411.5 Z"/></g>
</svg>
