<?xml version="1.0" encoding="UTF-8"?>
<!DOCTYPE svg PUBLIC "-//W3C//DTD SVG 1.1//EN" "http://www.w3.org/Graphics/SVG/1.1/DTD/svg11.dtd">
<svg xmlns="http://www.w3.org/2000/svg" version="1.1" width="500px" height="500px" style="shape-rendering:geometricPrecision; text-rendering:geometricPrecision; image-rendering:optimizeQuality; fill-rule:evenodd; clip-rule:evenodd" xmlns:xlink="http://www.w3.org/1999/xlink">
<g><path style="opacity:1" fill="#81d0fe" d="M -0.5,-0.5 C 166.167,-0.5 332.833,-0.5 499.5,-0.5C 499.5,129.167 499.5,258.833 499.5,388.5C 482.167,388.5 464.833,388.5 447.5,388.5C 447.5,354.5 447.5,320.5 447.5,286.5C 456.95,287.322 460.617,282.989 458.5,273.5C 459.833,273.5 461.167,273.5 462.5,273.5C 462.343,272.127 462.51,270.793 463,269.5C 468.166,269.187 471,266.521 471.5,261.5C 467.5,261.5 463.5,261.5 459.5,261.5C 458.955,255.537 459.621,249.87 461.5,244.5C 462.234,243.122 462.901,241.622 463.5,240C 468.593,239.971 471.26,237.471 471.5,232.5C 467.167,232.5 462.833,232.5 458.5,232.5C 458.5,226.5 458.5,220.5 458.5,214.5C 461.541,214.594 463.207,213.094 463.5,210C 468.013,209.317 470.68,206.817 471.5,202.5C 467.167,202.5 462.833,202.5 458.5,202.5C 458.919,199.675 457.919,197.509 455.5,196C 451.514,195.501 447.514,195.334 443.5,195.5C 439.818,195.335 436.152,195.501 432.5,196C 430.077,197.571 428.744,199.737 428.5,202.5C 424.5,202.5 420.5,202.5 416.5,202.5C 416.178,204.722 416.845,206.556 418.5,208C 420.659,208.912 422.825,209.745 425,210.5C 425.49,211.793 425.657,213.127 425.5,214.5C 426.5,214.5 427.5,214.5 428.5,214.5C 428.5,220.5 428.5,226.5 428.5,232.5C 424.5,232.5 420.5,232.5 416.5,232.5C 416.859,237.691 419.693,240.357 425,240.5C 425.49,241.793 425.657,243.127 425.5,244.5C 426.5,244.5 427.5,244.5 428.5,244.5C 428.5,250.167 428.5,255.833 428.5,261.5C 424.5,261.5 420.5,261.5 416.5,261.5C 416.178,263.722 416.845,265.556 418.5,267C 420.659,267.912 422.825,268.745 425,269.5C 425.49,270.793 425.657,272.127 425.5,273.5C 426.5,273.5 427.5,273.5 428.5,273.5C 427.058,283.054 431.058,287.387 440.5,286.5C 440.5,320.167 440.5,353.833 440.5,387.5C 399.833,387.5 359.167,387.5 318.5,387.5C 318.81,384.287 318.477,381.287 317.5,378.5C 317.573,376.973 316.906,375.973 315.5,375.5C 315.092,368.178 311.759,362.678 305.5,359C 302.408,357.454 299.408,355.954 296.5,354.5C 294.485,353.076 292.152,352.41 289.5,352.5C 278.546,350.508 267.546,348.841 256.5,347.5C 254.287,345.688 251.953,345.355 249.5,346.5C 249.167,346.5 248.833,346.5 248.5,346.5C 247.391,346.443 246.391,346.11 245.5,345.5C 222.662,332.254 198.329,322.588 172.5,316.5C 145.447,313.668 118.447,314.001 91.5,317.5C 88.2864,316.273 85.2864,314.606 82.5,312.5C 82.1667,312.667 81.8333,312.833 81.5,313C 83.607,314.264 84.607,316.097 84.5,318.5C 82.2646,318.205 80.2646,318.539 78.5,319.5C 77.5,319.5 76.5,319.5 75.5,319.5C 68.772,320.193 62.1054,321.36 55.5,323C 54.6433,323.689 53.9767,324.522 53.5,325.5C 54.6302,326.622 55.2969,327.956 55.5,329.5C 50.5731,332.42 45.9065,335.754 41.5,339.5C 40.5416,339.047 39.7083,338.381 39,337.5C 38.102,339.388 37.602,341.388 37.5,343.5C 36.1667,344.5 34.8333,345.5 33.5,346.5C 29.8382,349.474 28.1715,353.141 28.5,357.5C 27.2616,359.214 26.595,361.214 26.5,363.5C 25.5023,368.694 24.0023,373.694 22,378.5C 21.5026,381.146 21.3359,383.813 21.5,386.5C 14.5762,388.463 7.24283,389.13 -0.5,388.5C -0.5,258.833 -0.5,129.167 -0.5,-0.5 Z"/></g>
<g><path style="opacity:1" fill="#505255" d="M 443.5,195.5 C 443.5,196.5 443.5,197.5 443.5,198.5C 432.054,201.062 428.887,207.729 434,218.5C 436.185,220.54 438.685,221.874 441.5,222.5C 443.075,224.114 443.741,226.114 443.5,228.5C 432.019,231.131 428.852,237.797 434,248.5C 436.552,251.359 439.719,253.026 443.5,253.5C 443.433,254.959 443.766,256.292 444.5,257.5C 433.593,258.916 429.76,264.916 433,275.5C 435.91,280.863 440.41,282.863 446.5,281.5C 445.791,282.404 444.791,282.737 443.5,282.5C 443.5,319.833 443.5,357.167 443.5,394.5C 446.833,394.5 450.167,394.5 453.5,394.5C 447.021,395.491 440.354,395.824 433.5,395.5C 433.5,393.5 433.5,391.5 433.5,389.5C 436.059,389.802 438.393,389.468 440.5,388.5C 440.5,388.167 440.5,387.833 440.5,387.5C 440.5,353.833 440.5,320.167 440.5,286.5C 431.058,287.387 427.058,283.054 428.5,273.5C 427.5,273.5 426.5,273.5 425.5,273.5C 425.657,272.127 425.49,270.793 425,269.5C 422.825,268.745 420.659,267.912 418.5,267C 416.845,265.556 416.178,263.722 416.5,261.5C 420.5,261.5 424.5,261.5 428.5,261.5C 428.5,255.833 428.5,250.167 428.5,244.5C 427.5,244.5 426.5,244.5 425.5,244.5C 425.657,243.127 425.49,241.793 425,240.5C 419.693,240.357 416.859,237.691 416.5,232.5C 420.5,232.5 424.5,232.5 428.5,232.5C 428.5,226.5 428.5,220.5 428.5,214.5C 427.5,214.5 426.5,214.5 425.5,214.5C 425.657,213.127 425.49,211.793 425,210.5C 422.825,209.745 420.659,208.912 418.5,208C 416.845,206.556 416.178,204.722 416.5,202.5C 420.5,202.5 424.5,202.5 428.5,202.5C 428.744,199.737 430.077,197.571 432.5,196C 436.152,195.501 439.818,195.335 443.5,195.5 Z"/></g>
<g><path style="opacity:1" fill="#403d3a" d="M 443.5,195.5 C 447.514,195.334 451.514,195.501 455.5,196C 457.919,197.509 458.919,199.675 458.5,202.5C 462.833,202.5 467.167,202.5 471.5,202.5C 470.68,206.817 468.013,209.317 463.5,210C 463.207,213.094 461.541,214.594 458.5,214.5C 458.5,220.5 458.5,226.5 458.5,232.5C 462.833,232.5 467.167,232.5 471.5,232.5C 471.26,237.471 468.593,239.971 463.5,240C 462.901,241.622 462.234,243.122 461.5,244.5C 460.5,244.5 459.5,244.5 458.5,244.5C 458.178,250.358 458.511,256.025 459.5,261.5C 463.5,261.5 467.5,261.5 471.5,261.5C 471,266.521 468.166,269.187 463,269.5C 462.51,270.793 462.343,272.127 462.5,273.5C 461.167,273.5 459.833,273.5 458.5,273.5C 460.617,282.989 456.95,287.322 447.5,286.5C 446.502,320.663 446.168,354.996 446.5,389.5C 448.833,389.5 451.167,389.5 453.5,389.5C 453.5,391.167 453.5,392.833 453.5,394.5C 450.167,394.5 446.833,394.5 443.5,394.5C 443.5,357.167 443.5,319.833 443.5,282.5C 444.791,282.737 445.791,282.404 446.5,281.5C 455.426,277.896 457.926,271.563 454,262.5C 451.448,259.641 448.281,257.974 444.5,257.5C 443.766,256.292 443.433,254.959 443.5,253.5C 455.36,250.446 458.527,243.446 453,232.5C 450.297,230.098 447.13,228.765 443.5,228.5C 443.741,226.114 443.075,224.114 441.5,222.5C 454.134,221.921 458.301,215.587 454,203.5C 451.195,200.347 447.695,198.681 443.5,198.5C 443.5,197.5 443.5,196.5 443.5,195.5 Z"/></g>
<g><path style="opacity:1" fill="#ea2742" d="M 443.5,198.5 C 447.695,198.681 451.195,200.347 454,203.5C 458.301,215.587 454.134,221.921 441.5,222.5C 438.685,221.874 436.185,220.54 434,218.5C 428.887,207.729 432.054,201.062 443.5,198.5 Z"/></g>
<g><path style="opacity:1" fill="#f5b90e" d="M 443.5,228.5 C 447.13,228.765 450.297,230.098 453,232.5C 458.527,243.446 455.36,250.446 443.5,253.5C 439.719,253.026 436.552,251.359 434,248.5C 428.852,237.797 432.019,231.131 443.5,228.5 Z"/></g>
<g><path style="opacity:1" fill="#648ba2" d="M 461.5,244.5 C 459.621,249.87 458.955,255.537 459.5,261.5C 458.511,256.025 458.178,250.358 458.5,244.5C 459.5,244.5 460.5,244.5 461.5,244.5 Z"/></g>
<g><path style="opacity:1" fill="#8dce24" d="M 444.5,257.5 C 448.281,257.974 451.448,259.641 454,262.5C 457.926,271.563 455.426,277.896 446.5,281.5C 440.41,282.863 435.91,280.863 433,275.5C 429.76,264.916 433.593,258.916 444.5,257.5 Z"/></g>
<g><path style="opacity:1" fill="#352b31" d="M 91.5,317.5 C 87.4333,319.054 83.1,319.72 78.5,319.5C 80.2646,318.539 82.2646,318.205 84.5,318.5C 84.607,316.097 83.607,314.264 81.5,313C 81.8333,312.833 82.1667,312.667 82.5,312.5C 85.2864,314.606 88.2864,316.273 91.5,317.5 Z"/></g>
<g><path style="opacity:1" fill="#1a1718" d="M 75.5,319.5 C 73.3448,323.139 71.1782,326.806 69,330.5C 66.7492,331.412 64.5825,332.412 62.5,333.5C 60.6644,331.412 58.3311,330.079 55.5,329.5C 55.2969,327.956 54.6302,326.622 53.5,325.5C 53.9767,324.522 54.6433,323.689 55.5,323C 62.1054,321.36 68.772,320.193 75.5,319.5 Z"/></g>
<g><path style="opacity:1" fill="#5d7b93" d="M 172.5,316.5 C 198.329,322.588 222.662,332.254 245.5,345.5C 245.958,346.772 245.291,347.772 243.5,348.5C 242.5,348.5 241.5,348.5 240.5,348.5C 219.934,336.384 198.267,326.717 175.5,319.5C 175.709,318.914 176.043,318.414 176.5,318C 174.942,317.79 173.609,317.29 172.5,316.5 Z"/></g>
<g><path style="opacity:1" fill="#648ba7" d="M 55.5,329.5 C 58.3311,330.079 60.6644,331.412 62.5,333.5C 62.1583,334.338 61.4916,334.672 60.5,334.5C 58.9731,334.427 57.9731,335.094 57.5,336.5C 56.1667,337.167 54.8333,337.833 53.5,338.5C 51.9731,338.427 50.9731,339.094 50.5,340.5C 49.1667,341.167 47.8333,341.833 46.5,342.5C 44.4727,342.662 42.4727,342.495 40.5,342C 41.2524,341.329 41.5858,340.496 41.5,339.5C 45.9065,335.754 50.5731,332.42 55.5,329.5 Z"/></g>
<g><path style="opacity:1" fill="#601c19" d="M 60.5,334.5 C 60.0269,335.906 59.0269,336.573 57.5,336.5C 57.9731,335.094 58.9731,334.427 60.5,334.5 Z"/></g>
<g><path style="opacity:1" fill="#5e1b18" d="M 53.5,338.5 C 53.0269,339.906 52.0269,340.573 50.5,340.5C 50.9731,339.094 51.9731,338.427 53.5,338.5 Z"/></g>
<g><path style="opacity:1" fill="#30333c" d="M 41.5,339.5 C 41.5858,340.496 41.2524,341.329 40.5,342C 42.4727,342.495 44.4727,342.662 46.5,342.5C 43.7131,343.477 40.7131,343.81 37.5,343.5C 37.602,341.388 38.102,339.388 39,337.5C 39.7083,338.381 40.5416,339.047 41.5,339.5 Z"/></g>
<g><path style="opacity:1" fill="#3e343e" d="M 245.5,345.5 C 246.391,346.11 247.391,346.443 248.5,346.5C 247.22,347.931 245.553,348.598 243.5,348.5C 245.291,347.772 245.958,346.772 245.5,345.5 Z"/></g>
<g><path style="opacity:1" fill="#be0706" d="M 248.5,346.5 C 248.833,346.5 249.167,346.5 249.5,346.5C 251.806,346.993 254.139,347.326 256.5,347.5C 267.546,348.841 278.546,350.508 289.5,352.5C 291.515,353.924 293.848,354.59 296.5,354.5C 299.408,355.954 302.408,357.454 305.5,359C 311.759,362.678 315.092,368.178 315.5,375.5C 315.177,382.022 315.51,388.355 316.5,394.5C 317.341,396.379 317.675,398.379 317.5,400.5C 316.5,400.833 315.833,401.5 315.5,402.5C 308.471,405.424 301.137,407.09 293.5,407.5C 290.833,407.5 288.167,407.5 285.5,407.5C 287.884,397.35 286.218,388.017 280.5,379.5C 283.949,377.059 286.616,374.059 288.5,370.5C 293.954,373.575 299.621,374.575 305.5,373.5C 305.5,372.833 305.833,372.5 306.5,372.5C 308.167,372.5 309.833,372.5 311.5,372.5C 311.768,370.901 311.434,369.568 310.5,368.5C 308.59,366.438 306.257,364.938 303.5,364C 294.219,361.841 284.885,360.008 275.5,358.5C 267.886,356.911 260.219,355.577 252.5,354.5C 248.42,352.46 244.42,350.46 240.5,348.5C 241.5,348.5 242.5,348.5 243.5,348.5C 245.553,348.598 247.22,347.931 248.5,346.5 Z"/></g>
<g><path style="opacity:1" fill="#6a6074" d="M 249.5,346.5 C 251.953,345.355 254.287,345.688 256.5,347.5C 254.139,347.326 251.806,346.993 249.5,346.5 Z"/></g>
<g><path style="opacity:1" fill="#961f1d" d="M 33.5,346.5 C 38.6509,347.327 43.9842,347.827 49.5,348C 50.056,348.383 50.3893,348.883 50.5,349.5C 44.4908,349.334 38.4908,349.501 32.5,350C 29.8862,352.243 29.8862,354.41 32.5,356.5C 31.6618,356.842 31.3284,357.508 31.5,358.5C 30.609,357.89 29.609,357.557 28.5,357.5C 28.1715,353.141 29.8382,349.474 33.5,346.5 Z"/></g>
<g><path style="opacity:1" fill="#c80202" d="M 98.5,348.5 C 112.471,349.429 126.471,349.762 140.5,349.5C 143.625,350.479 146.958,350.813 150.5,350.5C 152.429,357.004 153.429,363.671 153.5,370.5C 134.49,369.903 115.824,368.07 97.5,365C 96.7709,362.942 95.7709,361.109 94.5,359.5C 93.9094,356.06 92.9094,352.727 91.5,349.5C 93.7427,348.526 96.076,348.192 98.5,348.5 Z"/></g>
<g><path style="opacity:1" fill="#df1d1c" d="M 50.5,349.5 C 51.1175,351.229 52.1175,352.729 53.5,354C 50.2415,354.003 47.5749,355.17 45.5,357.5C 41.8927,358.489 38.226,358.823 34.5,358.5C 33.8333,357.833 33.1667,357.167 32.5,356.5C 29.8862,354.41 29.8862,352.243 32.5,350C 38.4908,349.501 44.4908,349.334 50.5,349.5 Z"/></g>
<g><path style="opacity:1" fill="#c50403" d="M 172.5,316.5 C 173.609,317.29 174.942,317.79 176.5,318C 176.043,318.414 175.709,318.914 175.5,319.5C 198.267,326.717 219.934,336.384 240.5,348.5C 244.42,350.46 248.42,352.46 252.5,354.5C 259.855,357.04 267.522,358.706 275.5,359.5C 277.607,361.727 279.94,363.727 282.5,365.5C 284.5,367.167 286.5,368.833 288.5,370.5C 286.616,374.059 283.949,377.059 280.5,379.5C 266.373,367.531 252.206,367.531 238,379.5C 233.232,385.302 230.732,391.968 230.5,399.5C 229.596,400.209 229.263,401.209 229.5,402.5C 228.5,402.5 227.5,402.5 226.5,402.5C 226.252,394.492 227.752,386.825 231,379.5C 231.667,373.167 231.667,366.833 231,360.5C 230.617,367.86 229.95,375.193 229,382.5C 228.722,383.416 228.222,384.082 227.5,384.5C 203.347,382.306 179.347,379.306 155.5,375.5C 155.527,367.025 154.527,358.692 152.5,350.5C 169.15,351.749 185.816,352.749 202.5,353.5C 202.833,353.5 203.167,353.5 203.5,353.5C 204.568,354.434 205.901,354.768 207.5,354.5C 207.375,357.893 209.042,359.226 212.5,358.5C 213.833,358.167 215.167,357.833 216.5,357.5C 216.376,356.893 216.043,356.56 215.5,356.5C 213.735,355.539 211.735,355.205 209.5,355.5C 210.157,354.684 211.49,354.017 213.5,353.5C 214.167,353.5 214.833,353.5 215.5,353.5C 215.611,354.117 215.944,354.617 216.5,355C 222.5,355.667 228.5,355.667 234.5,355C 235.451,354.282 235.617,353.449 235,352.5C 224.597,343.884 213.097,337.217 200.5,332.5C 197.665,330.215 194.332,328.882 190.5,328.5C 181.033,324.467 171.033,321.967 160.5,321C 137.113,318.854 114.113,320.854 91.5,327C 85.1256,328.69 79.1256,331.19 73.5,334.5C 78.5367,339.331 83.8701,343.665 89.5,347.5C 90.7958,351.739 92.4625,355.739 94.5,359.5C 94.4208,360.93 94.7542,362.264 95.5,363.5C 94.6667,363.833 93.8333,364.167 93,364.5C 84.9579,362.866 77.1245,360.699 69.5,358C 72.2013,354.447 71.5346,352.113 67.5,351C 70.4916,354.536 69.8249,357.036 65.5,358.5C 61.7962,358.294 59.9628,356.294 60,352.5C 58.7381,356.15 57.2381,356.15 55.5,352.5C 54.1007,351.11 52.4341,350.11 50.5,349.5C 50.3893,348.883 50.056,348.383 49.5,348C 43.9842,347.827 38.6509,347.327 33.5,346.5C 34.8333,345.5 36.1667,344.5 37.5,343.5C 40.7131,343.81 43.7131,343.477 46.5,342.5C 47.8333,341.833 49.1667,341.167 50.5,340.5C 52.0269,340.573 53.0269,339.906 53.5,338.5C 54.8333,337.833 56.1667,337.167 57.5,336.5C 59.0269,336.573 60.0269,335.906 60.5,334.5C 61.4916,334.672 62.1583,334.338 62.5,333.5C 64.5825,332.412 66.7492,331.412 69,330.5C 71.1782,326.806 73.3448,323.139 75.5,319.5C 76.5,319.5 77.5,319.5 78.5,319.5C 83.1,319.72 87.4333,319.054 91.5,317.5C 118.447,314.001 145.447,313.668 172.5,316.5 Z"/></g>
<g><path style="opacity:1" fill="#846c6a" d="M 156.5,348.5 C 156.833,348.5 157.167,348.5 157.5,348.5C 161.634,349.485 165.968,349.818 170.5,349.5C 179.655,350.184 188.821,350.85 198,351.5C 199.986,351.569 201.486,352.235 202.5,353.5C 185.816,352.749 169.15,351.749 152.5,350.5C 151.833,350.5 151.167,350.5 150.5,350.5C 146.958,350.813 143.625,350.479 140.5,349.5C 146.026,349.821 151.36,349.488 156.5,348.5 Z"/></g>
<g><path style="opacity:1" fill="#8a140e" d="M 89.5,347.5 C 90.8333,347.5 92.1667,347.5 93.5,347.5C 95.4147,347.216 97.0813,347.549 98.5,348.5C 96.076,348.192 93.7427,348.526 91.5,349.5C 92.9094,352.727 93.9094,356.06 94.5,359.5C 92.4625,355.739 90.7958,351.739 89.5,347.5 Z"/></g>
<g><path style="opacity:1" fill="#a7a0a0" d="M 90.5,344.5 C 105.433,346.126 120.433,347.126 135.5,347.5C 142.476,348.232 149.476,348.565 156.5,348.5C 151.36,349.488 146.026,349.821 140.5,349.5C 126.471,349.762 112.471,349.429 98.5,348.5C 97.0813,347.549 95.4147,347.216 93.5,347.5C 92.0998,346.9 91.0998,345.9 90.5,344.5 Z"/></g>
<g><path style="opacity:1" fill="#1e191a" d="M 194.5,332.5 C 196.309,331.709 198.309,331.709 200.5,332.5C 211.471,338.292 221.804,345.125 231.5,353C 225.988,352.937 220.655,353.104 215.5,353.5C 214.833,353.5 214.167,353.5 213.5,353.5C 210.167,353.5 206.833,353.5 203.5,353.5C 203.167,353.5 202.833,353.5 202.5,353.5C 201.486,352.235 199.986,351.569 198,351.5C 188.821,350.85 179.655,350.184 170.5,349.5C 172.557,347.144 175.224,346.144 178.5,346.5C 183.844,346.666 189.177,346.499 194.5,346C 196.268,343.116 198.268,340.449 200.5,338C 199.551,335.025 197.551,333.191 194.5,332.5 Z"/></g>
<g><path style="opacity:1" fill="#c70101" d="M 204.5,343.5 C 211.379,342.251 215.379,344.918 216.5,351.5C 211.881,350.686 207.214,350.353 202.5,350.5C 202.4,347.892 203.067,345.558 204.5,343.5 Z"/></g>
<g><path style="opacity:1" fill="#1f1f20" d="M 138.5,322.5 C 138.5,323.833 138.5,325.167 138.5,326.5C 133.046,324.49 127.38,323.99 121.5,325C 115.135,326.175 108.801,327.508 102.5,329C 101.643,329.689 100.977,330.522 100.5,331.5C 102.5,334.833 104.5,338.167 106.5,341.5C 114.807,342.498 123.14,342.831 131.5,342.5C 131.241,337.59 132.907,333.59 136.5,330.5C 136.786,336.259 136.452,341.925 135.5,347.5C 120.433,347.126 105.433,346.126 90.5,344.5C 86.3875,341.594 82.3875,338.427 78.5,335C 97.3851,325.798 117.385,321.631 138.5,322.5 Z"/></g>
<g><path style="opacity:1" fill="#0e0d0e" d="M 138.5,322.5 C 144.833,322.5 151.167,322.5 157.5,322.5C 155.031,323.317 152.365,323.817 149.5,324C 152.061,331.407 154.395,338.907 156.5,346.5C 159.107,347.318 161.774,347.818 164.5,348C 162.19,348.497 159.857,348.663 157.5,348.5C 157.167,348.5 156.833,348.5 156.5,348.5C 149.476,348.565 142.476,348.232 135.5,347.5C 136.452,341.925 136.786,336.259 136.5,330.5C 137.6,329.395 138.267,328.062 138.5,326.5C 138.5,325.167 138.5,323.833 138.5,322.5 Z"/></g>
<g><path style="opacity:1" fill="#6797b5" d="M 194.5,332.5 C 197.551,333.191 199.551,335.025 200.5,338C 198.268,340.449 196.268,343.116 194.5,346C 189.177,346.499 183.844,346.666 178.5,346.5C 172.342,345.535 166.008,344.868 159.5,344.5C 158.008,338.197 156.674,331.864 155.5,325.5C 168.901,325.647 181.901,327.98 194.5,332.5 Z"/></g>
<g><path style="opacity:1" fill="#6697b5" d="M 138.5,326.5 C 138.267,328.062 137.6,329.395 136.5,330.5C 132.907,333.59 131.241,337.59 131.5,342.5C 123.14,342.831 114.807,342.498 106.5,341.5C 104.5,338.167 102.5,334.833 100.5,331.5C 100.977,330.522 101.643,329.689 102.5,329C 108.801,327.508 115.135,326.175 121.5,325C 127.38,323.99 133.046,324.49 138.5,326.5 Z"/></g>
<g><path style="opacity:1" fill="#252528" d="M 157.5,322.5 C 168.682,323.573 179.682,325.573 190.5,328.5C 194.332,328.882 197.665,330.215 200.5,332.5C 198.309,331.709 196.309,331.709 194.5,332.5C 181.901,327.98 168.901,325.647 155.5,325.5C 156.674,331.864 158.008,338.197 159.5,344.5C 166.008,344.868 172.342,345.535 178.5,346.5C 175.224,346.144 172.557,347.144 170.5,349.5C 165.968,349.818 161.634,349.485 157.5,348.5C 159.857,348.663 162.19,348.497 164.5,348C 161.774,347.818 159.107,347.318 156.5,346.5C 154.395,338.907 152.061,331.407 149.5,324C 152.365,323.817 155.031,323.317 157.5,322.5 Z"/></g>
<g><path style="opacity:1" fill="#918685" d="M 190.5,328.5 C 179.682,325.573 168.682,323.573 157.5,322.5C 151.167,322.5 144.833,322.5 138.5,322.5C 117.385,321.631 97.3851,325.798 78.5,335C 82.3875,338.427 86.3875,341.594 90.5,344.5C 91.0998,345.9 92.0998,346.9 93.5,347.5C 92.1667,347.5 90.8333,347.5 89.5,347.5C 83.8701,343.665 78.5367,339.331 73.5,334.5C 79.1256,331.19 85.1256,328.69 91.5,327C 114.113,320.854 137.113,318.854 160.5,321C 171.033,321.967 181.033,324.467 190.5,328.5 Z"/></g>
<g><path style="opacity:1" fill="#6f605f" d="M 200.5,332.5 C 213.097,337.217 224.597,343.884 235,352.5C 235.617,353.449 235.451,354.282 234.5,355C 228.5,355.667 222.5,355.667 216.5,355C 215.944,354.617 215.611,354.117 215.5,353.5C 220.655,353.104 225.988,352.937 231.5,353C 221.804,345.125 211.471,338.292 200.5,332.5 Z"/></g>
<g><path style="opacity:1" fill="#707086" d="M 289.5,352.5 C 292.152,352.41 294.485,353.076 296.5,354.5C 293.848,354.59 291.515,353.924 289.5,352.5 Z"/></g>
<g><path style="opacity:1" fill="#6e1b18" d="M 203.5,353.5 C 206.833,353.5 210.167,353.5 213.5,353.5C 211.49,354.017 210.157,354.684 209.5,355.5C 209.97,356.693 210.97,357.36 212.5,357.5C 213.726,357.48 214.726,357.147 215.5,356.5C 216.043,356.56 216.376,356.893 216.5,357.5C 215.167,357.833 213.833,358.167 212.5,358.5C 209.042,359.226 207.375,357.893 207.5,354.5C 205.901,354.768 204.568,354.434 203.5,353.5 Z"/></g>
<g><path style="opacity:1" fill="#bbb1b1" d="M 209.5,355.5 C 211.735,355.205 213.735,355.539 215.5,356.5C 214.726,357.147 213.726,357.48 212.5,357.5C 210.97,357.36 209.97,356.693 209.5,355.5 Z"/></g>
<g><path style="opacity:1" fill="#8c0204" d="M 252.5,354.5 C 260.219,355.577 267.886,356.911 275.5,358.5C 275.5,358.833 275.5,359.167 275.5,359.5C 267.522,358.706 259.855,357.04 252.5,354.5 Z"/></g>
<g><path style="opacity:1" fill="#aba9a8" d="M 32.5,356.5 C 33.1667,357.167 33.8333,357.833 34.5,358.5C 38.0208,359.166 41.6875,359.833 45.5,360.5C 40.4785,361.773 35.8119,361.106 31.5,358.5C 31.3284,357.508 31.6618,356.842 32.5,356.5 Z"/></g>
<g><path style="opacity:1" fill="#833939" d="M 28.5,357.5 C 28.7406,359.898 28.0739,361.898 26.5,363.5C 26.595,361.214 27.2616,359.214 28.5,357.5 Z"/></g>
<g><path style="opacity:1" fill="#980102" d="M 156.5,359.5 C 161.511,359.334 166.511,359.501 171.5,360C 175.378,361.572 175.378,363.072 171.5,364.5C 166.887,363.721 162.22,363.221 157.5,363C 155.273,362.296 154.94,361.129 156.5,359.5 Z"/></g>
<g><path style="opacity:1" fill="#881d19" d="M 50.5,349.5 C 52.4341,350.11 54.1007,351.11 55.5,352.5C 55.5858,353.496 55.2524,354.329 54.5,355C 51.9471,355.761 49.4471,356.594 47,357.5C 47.1529,360.174 47.6529,362.84 48.5,365.5C 43.5174,363.373 38.184,362.207 32.5,362C 31.6634,360.989 31.33,359.822 31.5,358.5C 35.8119,361.106 40.4785,361.773 45.5,360.5C 41.6875,359.833 38.0208,359.166 34.5,358.5C 38.226,358.823 41.8927,358.489 45.5,357.5C 47.5749,355.17 50.2415,354.003 53.5,354C 52.1175,352.729 51.1175,351.229 50.5,349.5 Z"/></g>
<g><path style="opacity:1" fill="#cec9c9" d="M 275.5,358.5 C 284.885,360.008 294.219,361.841 303.5,364C 306.257,364.938 308.59,366.438 310.5,368.5C 310.5,369.5 310.5,370.5 310.5,371.5C 308.901,371.232 307.568,371.566 306.5,372.5C 305.833,372.5 305.5,372.833 305.5,373.5C 303.801,373.66 302.134,373.494 300.5,373C 303.035,371.087 302.535,369.92 299,369.5C 297.238,369.944 297.405,370.444 299.5,371C 298.07,372.44 296.403,372.774 294.5,372C 295.167,371.667 295.833,371.333 296.5,371C 292.291,370.449 288.958,368.449 286.5,365C 285.181,364.805 283.847,364.972 282.5,365.5C 279.94,363.727 277.607,361.727 275.5,359.5C 275.5,359.167 275.5,358.833 275.5,358.5 Z"/></g>
<g><path style="opacity:1" fill="#0a0100" d="M 97.5,406.5 C 95.8333,406.5 94.1667,406.5 92.5,406.5C 94.0531,384.887 84.0531,374.72 62.5,376C 50.2145,380.073 43.8812,388.573 43.5,401.5C 42.5,401.5 41.5,401.5 40.5,401.5C 39.9186,385.803 46.9186,375.303 61.5,370C 78.8621,368.027 90.6954,375.194 97,391.5C 97.4993,396.489 97.6659,401.489 97.5,406.5 Z"/></g>
<g><path style="opacity:1" fill="#b6a6a5" d="M 305.5,373.5 C 299.621,374.575 293.954,373.575 288.5,370.5C 286.5,368.833 284.5,367.167 282.5,365.5C 283.847,364.972 285.181,364.805 286.5,365C 288.958,368.449 292.291,370.449 296.5,371C 295.833,371.333 295.167,371.667 294.5,372C 296.403,372.774 298.07,372.44 299.5,371C 297.405,370.444 297.238,369.944 299,369.5C 302.535,369.92 303.035,371.087 300.5,373C 302.134,373.494 303.801,373.66 305.5,373.5 Z"/></g>
<g><path style="opacity:1" fill="#0f0202" d="M 280.5,379.5 C 286.218,388.017 287.884,397.35 285.5,407.5C 288.167,407.5 290.833,407.5 293.5,407.5C 289.702,408.483 285.702,408.817 281.5,408.5C 284.959,389.409 277.126,378.409 258,375.5C 239.402,378.415 231.236,389.081 233.5,407.5C 232.5,407.5 231.5,407.5 230.5,407.5C 230.5,404.833 230.5,402.167 230.5,399.5C 230.732,391.968 233.232,385.302 238,379.5C 252.206,367.531 266.373,367.531 280.5,379.5 Z"/></g>
<g><path style="opacity:1" fill="#803a39" d="M 310.5,368.5 C 311.434,369.568 311.768,370.901 311.5,372.5C 309.833,372.5 308.167,372.5 306.5,372.5C 307.568,371.566 308.901,371.232 310.5,371.5C 310.5,370.5 310.5,369.5 310.5,368.5 Z"/></g>
<g><path style="opacity:1" fill="#960f0a" d="M 150.5,350.5 C 151.167,350.5 151.833,350.5 152.5,350.5C 154.527,358.692 155.527,367.025 155.5,375.5C 155.237,379.6 155.57,383.6 156.5,387.5C 153.287,387.81 150.287,387.477 147.5,386.5C 149.924,386.808 152.257,386.474 154.5,385.5C 153.552,380.565 153.219,375.565 153.5,370.5C 153.429,363.671 152.429,357.004 150.5,350.5 Z"/></g>
<g><path style="opacity:1" fill="#c30404" d="M 28.5,357.5 C 29.609,357.557 30.609,357.89 31.5,358.5C 31.33,359.822 31.6634,360.989 32.5,362C 38.184,362.207 43.5174,363.373 48.5,365.5C 48.2606,367.467 48.5939,369.301 49.5,371C 45.5404,374.282 42.3737,378.116 40,382.5C 39.6667,381.5 39.3333,380.5 39,379.5C 38.0263,386.335 36.8596,393.001 35.5,399.5C 34.9744,397.77 33.9744,396.436 32.5,395.5C 32.1193,394.069 31.1193,393.236 29.5,393C 27.1902,392.503 24.8568,392.337 22.5,392.5C 22.7947,390.265 22.4614,388.265 21.5,386.5C 21.3359,383.813 21.5026,381.146 22,378.5C 24.0023,373.694 25.5023,368.694 26.5,363.5C 28.0739,361.898 28.7406,359.898 28.5,357.5 Z"/></g>
<g><path style="opacity:1" fill="#1c1919" d="M 97.5,406.5 C 121.833,406.5 146.167,406.5 170.5,406.5C 190.326,407.497 210.326,407.83 230.5,407.5C 184.663,407.82 138.663,408.153 92.5,408.5C 85.8672,422.774 74.8672,427.941 59.5,424C 49.7166,420.062 44.3833,412.895 43.5,402.5C 42.5,402.5 41.5,402.5 40.5,402.5C 40.5,402.167 40.5,401.833 40.5,401.5C 41.5,401.5 42.5,401.5 43.5,401.5C 43.8812,388.573 50.2145,380.073 62.5,376C 84.0531,374.72 94.0531,384.887 92.5,406.5C 94.1667,406.5 95.8333,406.5 97.5,406.5 Z"/></g>
<g><path style="opacity:1" fill="#181818" d="M 281.5,408.5 C 275.978,421.807 265.978,427.307 251.5,425C 243.009,421.675 237.009,415.842 233.5,407.5C 231.236,389.081 239.402,378.415 258,375.5C 277.126,378.409 284.959,389.409 281.5,408.5 Z"/></g>
<g><path style="opacity:1" fill="#241212" d="M 315.5,375.5 C 316.906,375.973 317.573,376.973 317.5,378.5C 317.747,381.939 317.414,385.272 316.5,388.5C 316.5,390.5 316.5,392.5 316.5,394.5C 315.51,388.355 315.177,382.022 315.5,375.5 Z"/></g>
<g><path style="opacity:1" fill="#100100" d="M 116.5,386.5 C 150.835,388.458 185.168,390.458 219.5,392.5C 220.995,392.415 221.995,393.081 222.5,394.5C 218.167,394.833 213.833,395.167 209.5,395.5C 193.168,394.733 176.835,394.067 160.5,393.5C 158.735,392.539 156.735,392.205 154.5,392.5C 141.402,393.206 128.569,391.873 116,388.5C 114.128,387.513 114.295,386.846 116.5,386.5 Z"/></g>
<g><path style="opacity:1" fill="#8bbcda" d="M 317.5,378.5 C 318.477,381.287 318.81,384.287 318.5,387.5C 359.167,387.5 399.833,387.5 440.5,387.5C 440.5,387.833 440.5,388.167 440.5,388.5C 399.167,388.5 357.833,388.5 316.5,388.5C 317.414,385.272 317.747,381.939 317.5,378.5 Z"/></g>
<g><path style="opacity:1" fill="#a3a2a2" d="M 21.5,386.5 C 22.4614,388.265 22.7947,390.265 22.5,392.5C 22.953,394.565 23.953,396.232 25.5,397.5C 25.427,399.027 26.0937,400.027 27.5,400.5C 28.4916,400.328 29.1583,400.662 29.5,401.5C 19.6806,402.494 9.68063,402.827 -0.5,402.5C -0.5,397.833 -0.5,393.167 -0.5,388.5C 7.24283,389.13 14.5762,388.463 21.5,386.5 Z"/></g>
<g><path style="opacity:1" fill="#a3a3a3" d="M 75.5,382.5 C 75.5,383.167 75.5,383.833 75.5,384.5C 74.0687,385.78 73.4021,387.447 73.5,389.5C 72.5657,390.772 71.899,392.272 71.5,394C 71.8919,395.011 72.5585,395.511 73.5,395.5C 70.732,397.625 70.8987,399.291 74,400.5C 76.3461,400.01 78.5128,399.343 80.5,398.5C 85.2884,395.597 85.6217,392.263 81.5,388.5C 81.5,388.167 81.5,387.833 81.5,387.5C 85.5781,390.368 87.5781,394.368 87.5,399.5C 85.3642,413.911 77.0308,420.078 62.5,418C 50.3408,412.194 46.8408,403.027 52,390.5C 57.8858,382.371 65.7191,379.704 75.5,382.5 Z"/></g>
<g><path style="opacity:1" fill="#734e4d" d="M 116.5,386.5 C 126.668,385.57 137.001,385.57 147.5,386.5C 150.287,387.477 153.287,387.81 156.5,387.5C 177.709,388.397 198.709,390.064 219.5,392.5C 185.168,390.458 150.835,388.458 116.5,386.5 Z"/></g>
<g><path style="opacity:1" fill="#141212" d="M 311.5,387.5 C 311.675,390.329 310.342,391.996 307.5,392.5C 306.96,393.748 306.293,394.915 305.5,396C 302.854,396.497 300.187,396.664 297.5,396.5C 298.484,388.088 303.151,385.088 311.5,387.5 Z"/></g>
<g><path style="opacity:1" fill="#a2a4a5" d="M 447.5,286.5 C 447.5,320.5 447.5,354.5 447.5,388.5C 464.833,388.5 482.167,388.5 499.5,388.5C 499.5,393.167 499.5,397.833 499.5,402.5C 438.491,403.163 377.824,402.496 317.5,400.5C 317.675,398.379 317.341,396.379 316.5,394.5C 316.5,392.5 316.5,390.5 316.5,388.5C 357.833,388.5 399.167,388.5 440.5,388.5C 438.393,389.468 436.059,389.802 433.5,389.5C 433.5,391.5 433.5,393.5 433.5,395.5C 440.354,395.824 447.021,395.491 453.5,394.5C 453.5,392.833 453.5,391.167 453.5,389.5C 451.167,389.5 448.833,389.5 446.5,389.5C 446.168,354.996 446.502,320.663 447.5,286.5 Z"/></g>
<g><path style="opacity:1" fill="#848484" d="M 303.5,389.5 C 304.649,389.791 305.316,390.624 305.5,392C 305.167,392.833 304.833,393.667 304.5,394.5C 303.548,392.955 303.215,391.288 303.5,389.5 Z"/></g>
<g><path style="opacity:1" fill="#72605f" d="M 311.5,387.5 C 303.151,385.088 298.484,388.088 297.5,396.5C 296.482,392.958 297.482,389.791 300.5,387C 304.938,386.192 308.604,386.359 311.5,387.5 Z"/></g>
<g><path style="opacity:1" fill="#610a0a" d="M 22.5,392.5 C 24.8568,392.337 27.1902,392.503 29.5,393C 31.1193,393.236 32.1193,394.069 32.5,395.5C 30.5842,393.884 29.0842,394.218 28,396.5C 27.5172,395.552 27.3505,394.552 27.5,393.5C 26.325,393.281 25.325,393.614 24.5,394.5C 25.1272,395.417 25.4606,396.417 25.5,397.5C 23.953,396.232 22.953,394.565 22.5,392.5 Z"/></g>
<g><path style="opacity:1" fill="#c00b0a" d="M 32.5,395.5 C 32.4142,396.496 32.7476,397.329 33.5,398C 30.7395,398.722 28.0728,398.555 25.5,397.5C 25.4606,396.417 25.1272,395.417 24.5,394.5C 25.325,393.614 26.325,393.281 27.5,393.5C 27.3505,394.552 27.5172,395.552 28,396.5C 29.0842,394.218 30.5842,393.884 32.5,395.5 Z"/></g>
<g><path style="opacity:1" fill="#b90101" d="M 155.5,375.5 C 179.347,379.306 203.347,382.306 227.5,384.5C 225.944,390.393 224.944,396.393 224.5,402.5C 206.51,401.757 188.51,401.423 170.5,401.5C 165.125,401.828 159.792,401.495 154.5,400.5C 155.374,398.253 155.708,395.92 155.5,393.5C 157.167,393.5 158.833,393.5 160.5,393.5C 176.835,394.067 193.168,394.733 209.5,395.5C 213.833,395.167 218.167,394.833 222.5,394.5C 221.995,393.081 220.995,392.415 219.5,392.5C 198.709,390.064 177.709,388.397 156.5,387.5C 155.57,383.6 155.237,379.6 155.5,375.5 Z"/></g>
<g><path style="opacity:1" fill="#b90202" d="M 94.5,359.5 C 95.7709,361.109 96.7709,362.942 97.5,365C 115.824,368.07 134.49,369.903 153.5,370.5C 153.219,375.565 153.552,380.565 154.5,385.5C 152.257,386.474 149.924,386.808 147.5,386.5C 137.001,385.57 126.668,385.57 116.5,386.5C 114.295,386.846 114.128,387.513 116,388.5C 128.569,391.873 141.402,393.206 154.5,392.5C 154.708,394.92 154.374,397.253 153.5,399.5C 150.5,399.833 147.5,400.167 144.5,400.5C 138.286,400.579 132.286,399.745 126.5,398C 131.522,400.563 136.855,401.896 142.5,402C 149.492,402.5 156.492,402.666 163.5,402.5C 185.327,403.497 207.327,403.831 229.5,403.5C 229.5,404.5 229.5,405.5 229.5,406.5C 209.833,406.5 190.167,406.5 170.5,406.5C 146.167,406.5 121.833,406.5 97.5,406.5C 97.6659,401.489 97.4993,396.489 97,391.5C 90.6954,375.194 78.8621,368.027 61.5,370C 46.9186,375.303 39.9186,385.803 40.5,401.5C 40.5,401.833 40.5,402.167 40.5,402.5C 39.7261,403.147 38.7261,403.48 37.5,403.5C 34.7666,403.032 32.1,402.365 29.5,401.5C 29.1583,400.662 28.4916,400.328 27.5,400.5C 30.1667,400.167 32.8333,399.833 35.5,399.5C 36.8596,393.001 38.0263,386.335 39,379.5C 39.3333,380.5 39.6667,381.5 40,382.5C 42.3737,378.116 45.5404,374.282 49.5,371C 48.5939,369.301 48.2606,367.467 48.5,365.5C 47.6529,362.84 47.1529,360.174 47,357.5C 49.4471,356.594 51.9471,355.761 54.5,355C 55.2524,354.329 55.5858,353.496 55.5,352.5C 57.2381,356.15 58.7381,356.15 60,352.5C 59.9628,356.294 61.7962,358.294 65.5,358.5C 69.8249,357.036 70.4916,354.536 67.5,351C 71.5346,352.113 72.2013,354.447 69.5,358C 77.1245,360.699 84.9579,362.866 93,364.5C 93.8333,364.167 94.6667,363.833 95.5,363.5C 94.7542,362.264 94.4208,360.93 94.5,359.5 Z"/></g>
<g><path style="opacity:1" fill="#171717" d="M 81.5,388.5 C 85.6217,392.263 85.2884,395.597 80.5,398.5C 79.5041,398.586 78.6708,398.252 78,397.5C 74.7775,393.13 75.9442,390.13 81.5,388.5 Z"/></g>
<g><path style="opacity:1" fill="#1b1b1b" d="M 61.5,392.5 C 61.5,393.167 61.1667,393.5 60.5,393.5C 55.1971,391.968 54.5304,389.635 58.5,386.5C 59.8829,388.32 60.8829,390.32 61.5,392.5 Z"/></g>
<g><path style="opacity:1" fill="#7f7f7f" d="M 75.5,382.5 C 78.1092,383.443 80.1092,385.11 81.5,387.5C 81.5,387.833 81.5,388.167 81.5,388.5C 75.9442,390.13 74.7775,393.13 78,397.5C 78.6708,398.252 79.5041,398.586 80.5,398.5C 78.5128,399.343 76.3461,400.01 74,400.5C 70.8987,399.291 70.732,397.625 73.5,395.5C 72.5585,395.511 71.8919,395.011 71.5,394C 71.899,392.272 72.5657,390.772 73.5,389.5C 73.3691,390.376 73.7025,391.043 74.5,391.5C 76.3159,390.185 77.9825,388.685 79.5,387C 78.5291,385.519 77.1958,384.685 75.5,384.5C 75.5,383.833 75.5,383.167 75.5,382.5 Z"/></g>
<g><path style="opacity:1" fill="#202020" d="M 75.5,384.5 C 77.1958,384.685 78.5291,385.519 79.5,387C 77.9825,388.685 76.3159,390.185 74.5,391.5C 73.7025,391.043 73.3691,390.376 73.5,389.5C 73.4021,387.447 74.0687,385.78 75.5,384.5 Z"/></g>
<g><path style="opacity:1" fill="#202020" d="M 66.5,390.5 C 65.391,390.557 64.391,390.89 63.5,391.5C 59.0838,386.368 60.4171,383.868 67.5,384C 70.4285,387.257 71.2618,391.091 70,395.5C 68.8173,396.731 67.6507,396.731 66.5,395.5C 67.325,394.614 68.325,394.281 69.5,394.5C 69.5,393.167 69.5,391.833 69.5,390.5C 68.5,390.5 67.5,390.5 66.5,390.5 Z"/></g>
<g><path style="opacity:1" fill="#5d0c0c" d="M 32.5,395.5 C 33.9744,396.436 34.9744,397.77 35.5,399.5C 32.8333,399.833 30.1667,400.167 27.5,400.5C 26.0937,400.027 25.427,399.027 25.5,397.5C 28.0728,398.555 30.7395,398.722 33.5,398C 32.7476,397.329 32.4142,396.496 32.5,395.5 Z"/></g>
<g><path style="opacity:1" fill="#232323" d="M 66.5,401.5 C 66.5,400.833 66.5,400.167 66.5,399.5C 67.5676,398.566 68.901,398.232 70.5,398.5C 70.7332,401.954 69.3999,402.954 66.5,401.5 Z"/></g>
<g><path style="opacity:1" fill="#191919" d="M 78.5,401.5 C 80.8333,401.5 83.1667,401.5 85.5,401.5C 85.7692,403.429 85.2692,405.095 84,406.5C 82.4167,405.029 80.5834,404.029 78.5,403.5C 78.5,402.833 78.5,402.167 78.5,401.5 Z"/></g>
<g><path style="opacity:1" fill="#750000" d="M 154.5,392.5 C 156.735,392.205 158.735,392.539 160.5,393.5C 158.833,393.5 157.167,393.5 155.5,393.5C 155.708,395.92 155.374,398.253 154.5,400.5C 159.792,401.495 165.125,401.828 170.5,401.5C 168.393,402.468 166.059,402.802 163.5,402.5C 156.492,402.666 149.492,402.5 142.5,402C 136.855,401.896 131.522,400.563 126.5,398C 132.286,399.745 138.286,400.579 144.5,400.5C 147.5,400.167 150.5,399.833 153.5,399.5C 154.374,397.253 154.708,394.92 154.5,392.5 Z"/></g>
<g><path style="opacity:1" fill="#576876" d="M 317.5,400.5 C 377.824,402.496 438.491,403.163 499.5,402.5C 499.5,402.833 499.5,403.167 499.5,403.5C 437.998,403.832 376.664,403.499 315.5,402.5C 315.833,401.5 316.5,400.833 317.5,400.5 Z"/></g>
<g><path style="opacity:1" fill="#464a51" d="M 29.5,401.5 C 32.1,402.365 34.7666,403.032 37.5,403.5C 38.7261,403.48 39.7261,403.147 40.5,402.5C 41.5,402.5 42.5,402.5 43.5,402.5C 44.3833,412.895 49.7166,420.062 59.5,424C 74.8672,427.941 85.8672,422.774 92.5,408.5C 138.663,408.153 184.663,407.82 230.5,407.5C 231.5,407.5 232.5,407.5 233.5,407.5C 237.009,415.842 243.009,421.675 251.5,425C 265.978,427.307 275.978,421.807 281.5,408.5C 285.702,408.817 289.702,408.483 293.5,407.5C 301.137,407.09 308.471,405.424 315.5,402.5C 376.664,403.499 437.998,403.832 499.5,403.5C 499.5,430.5 499.5,457.5 499.5,484.5C 332.833,484.5 166.167,484.5 -0.5,484.5C -0.5,457.167 -0.5,429.833 -0.5,402.5C 9.68063,402.827 19.6806,402.494 29.5,401.5 Z"/></g>
<g><path style="opacity:1" fill="#6f6f70" d="M 66.5,390.5 C 65.7929,392.781 64.7929,394.948 63.5,397C 64.3734,398.045 65.3734,398.878 66.5,399.5C 66.5,400.167 66.5,400.833 66.5,401.5C 62.2322,403.315 61.8988,403.982 65.5,403.5C 66.2652,404.612 67.2652,405.279 68.5,405.5C 71.1411,404.737 73.8078,404.57 76.5,405C 74.9586,406.371 73.6253,407.871 72.5,409.5C 72.1667,409.5 71.8333,409.5 71.5,409.5C 70.6851,408.571 69.8518,407.571 69,406.5C 69.5589,408.638 69.3922,410.638 68.5,412.5C 68.5,411.833 68.1667,411.5 67.5,411.5C 65.5921,409.836 63.5921,408.169 61.5,406.5C 61.5654,406.062 61.3988,405.728 61,405.5C 59.1847,407.405 57.1847,409.072 55,410.5C 51.9758,406.699 50.9758,402.366 52,397.5C 52.8159,396.177 53.9826,395.511 55.5,395.5C 50.755,400.553 51.755,403.22 58.5,403.5C 58.2786,400.721 58.612,398.054 59.5,395.5C 61.6977,395.591 62.0311,394.925 60.5,393.5C 61.1667,393.5 61.5,393.167 61.5,392.5C 62.9245,394.031 63.5912,393.698 63.5,391.5C 64.391,390.89 65.391,390.557 66.5,390.5 Z"/></g>
<g><path style="opacity:1" fill="#0a0a0b" d="M 55.5,395.5 C 56.8333,395.5 58.1667,395.5 59.5,395.5C 58.612,398.054 58.2786,400.721 58.5,403.5C 51.755,403.22 50.755,400.553 55.5,395.5 Z"/></g>
<g><path style="opacity:1" fill="#454649" d="M 78.5,401.5 C 78.5,402.167 78.5,402.833 78.5,403.5C 78.0618,403.435 77.7284,403.601 77.5,404C 79.7173,405.268 81.7173,406.768 83.5,408.5C 80.3297,414.736 76.6631,415.069 72.5,409.5C 73.6253,407.871 74.9586,406.371 76.5,405C 73.8078,404.57 71.1411,404.737 68.5,405.5C 70.3052,403.803 72.6385,402.97 75.5,403C 75.1667,402.667 74.8333,402.333 74.5,402C 75.7932,401.51 77.1266,401.343 78.5,401.5 Z"/></g>
<g><path style="opacity:1" fill="#830001" d="M 230.5,399.5 C 230.5,402.167 230.5,404.833 230.5,407.5C 210.326,407.83 190.326,407.497 170.5,406.5C 190.167,406.5 209.833,406.5 229.5,406.5C 229.5,405.5 229.5,404.5 229.5,403.5C 207.327,403.831 185.327,403.497 163.5,402.5C 166.059,402.802 168.393,402.468 170.5,401.5C 188.51,401.423 206.51,401.757 224.5,402.5C 224.944,396.393 225.944,390.393 227.5,384.5C 228.222,384.082 228.722,383.416 229,382.5C 229.95,375.193 230.617,367.86 231,360.5C 231.667,366.833 231.667,373.167 231,379.5C 227.752,386.825 226.252,394.492 226.5,402.5C 227.5,402.5 228.5,402.5 229.5,402.5C 229.263,401.209 229.596,400.209 230.5,399.5 Z"/></g>
<g><path style="opacity:1" fill="#414448" d="M 61.5,406.5 C 63.5921,408.169 65.5921,409.836 67.5,411.5C 67.7989,413.604 67.4656,415.604 66.5,417.5C 59.5302,416.281 57.8635,412.615 61.5,406.5 Z"/></g>
<g><path style="opacity:1" fill="#a2a2a2" d="M 267.5,384.5 C 275.465,389.194 278.299,396.194 276,405.5C 270.08,418.255 260.58,421.755 247.5,416C 239.597,409.401 237.43,401.234 241,391.5C 247.841,381.146 256.674,378.813 267.5,384.5 Z"/></g>
<g><path style="opacity:1" fill="#1a1b1b" d="M 244.5,404.5 C 246.415,404.216 248.081,404.549 249.5,405.5C 248.48,407.352 246.98,408.685 245,409.5C 241.928,408.119 241.761,406.452 244.5,404.5 Z"/></g>
<g><path style="opacity:1" fill="#525252" d="M 267.5,401.5 C 267.833,402.167 268.167,402.833 268.5,403.5C 267.508,403.328 266.842,403.662 266.5,404.5C 266.672,405.492 266.338,406.158 265.5,406.5C 264.189,403.867 262.689,403.867 261,406.5C 260.329,405.748 259.496,405.414 258.5,405.5C 259.949,403.836 261.949,403.002 264.5,403C 264.167,402.667 263.833,402.333 263.5,402C 264.793,401.51 266.127,401.343 267.5,401.5 Z"/></g>
<g><path style="opacity:1" fill="#5b5b5b" d="M 243.5,396.5 C 242.631,398.717 242.298,401.05 242.5,403.5C 245.01,403.946 247.01,403.28 248.5,401.5C 250.903,401.607 252.736,400.607 254,398.5C 254.333,399.167 254.667,399.833 255,400.5C 256.11,398.963 257.61,398.297 259.5,398.5C 260.791,399.473 260.791,400.473 259.5,401.5C 258.224,402.645 256.891,402.645 255.5,401.5C 253.21,402.467 251.21,403.8 249.5,405.5C 248.081,404.549 246.415,404.216 244.5,404.5C 243.5,404.5 242.5,404.5 241.5,404.5C 240.964,401.302 241.631,398.635 243.5,396.5 Z"/></g>
<g><path style="opacity:1" fill="#171717" d="M 267.5,401.5 C 270.167,401.5 272.833,401.5 275.5,401.5C 275.509,403.308 275.009,404.975 274,406.5C 272.22,405.361 270.386,404.361 268.5,403.5C 268.167,402.833 267.833,402.167 267.5,401.5 Z"/></g>
<g><path style="opacity:1" fill="#0d0d0d" d="M 248.5,395.5 C 248.5,397.5 248.5,399.5 248.5,401.5C 247.01,403.28 245.01,403.946 242.5,403.5C 242.298,401.05 242.631,398.717 243.5,396.5C 244.919,395.549 246.585,395.216 248.5,395.5 Z"/></g>
<g><path style="opacity:1" fill="#858585" d="M 250.5,385.5 C 250.585,387.929 251.585,389.929 253.5,391.5C 255.409,390.652 257.409,390.318 259.5,390.5C 259.5,389.5 259.5,388.5 259.5,387.5C 260.272,388.694 261.272,389.694 262.5,390.5C 262.56,391.043 262.893,391.376 263.5,391.5C 264.94,390.048 266.606,389.048 268.5,388.5C 269.552,388.351 270.552,388.517 271.5,389C 272.5,390.667 273.5,392.333 274.5,394C 273.934,394.995 273.267,395.828 272.5,396.5C 272.908,393.401 271.741,391.067 269,389.5C 267.647,390.685 266.48,392.019 265.5,393.5C 267.086,395.173 267.753,397.173 267.5,399.5C 265.396,399.799 263.396,399.466 261.5,398.5C 262.879,397.137 262.713,396.137 261,395.5C 258.72,395.894 258.22,396.894 259.5,398.5C 257.61,398.297 256.11,398.963 255,400.5C 254.667,399.833 254.333,399.167 254,398.5C 252.736,400.607 250.903,401.607 248.5,401.5C 248.5,399.5 248.5,397.5 248.5,395.5C 253.375,396.901 253.708,396.234 249.5,393.5C 250.672,391.123 250.339,388.79 248.5,386.5C 249.167,386.167 249.833,385.833 250.5,385.5 Z"/></g>
<g><path style="opacity:1" fill="#0e0e0e" d="M 272.5,396.5 C 271.341,398.25 269.674,399.25 267.5,399.5C 267.753,397.173 267.086,395.173 265.5,393.5C 266.48,392.019 267.647,390.685 269,389.5C 271.741,391.067 272.908,393.401 272.5,396.5 Z"/></g>
<g><path style="opacity:1" fill="#1e1e1e" d="M 248.5,386.5 C 250.339,388.79 250.672,391.123 249.5,393.5C 247.852,392.19 246.186,390.857 244.5,389.5C 245.283,387.712 246.616,386.712 248.5,386.5 Z"/></g>
<g><path style="opacity:1" fill="#1f1f1f" d="M 267.5,384.5 C 269.138,385.705 269.471,387.038 268.5,388.5C 266.606,389.048 264.94,390.048 263.5,391.5C 262.893,391.376 262.56,391.043 262.5,390.5C 262.447,386.862 264.113,384.862 267.5,384.5 Z"/></g>
<g><path style="opacity:1" fill="#191919" d="M 259.5,387.5 C 259.5,388.5 259.5,389.5 259.5,390.5C 257.409,390.318 255.409,390.652 253.5,391.5C 251.585,389.929 250.585,387.929 250.5,385.5C 252.352,384.911 254.185,384.244 256,383.5C 258.071,384.103 259.238,385.436 259.5,387.5 Z"/></g>
<g><path style="opacity:1" fill="#363739" d="M 266.5,404.5 C 268.969,405.569 271.302,406.902 273.5,408.5C 269.5,415.167 265.5,415.167 261.5,408.5C 262.836,408.655 264.169,407.988 265.5,406.5C 266.338,406.158 266.672,405.492 266.5,404.5 Z"/></g>
<g><path style="opacity:1" fill="#414346" d="M 258.5,405.5 C 260.153,408.807 261.82,412.14 263.5,415.5C 262.264,416.357 260.931,417.023 259.5,417.5C 258.676,414.215 258.176,410.882 258,407.5C 257.667,410.5 257.333,413.5 257,416.5C 250.242,418.067 247.908,415.4 250,408.5C 251.881,407.646 253.714,407.979 255.5,409.5C 256.15,407.816 257.15,406.483 258.5,405.5 Z"/></g>
<g><path style="opacity:1" fill="#454648" d="M 71.5,409.5 C 72.0138,411.366 72.6805,413.2 73.5,415C 72.381,416.876 70.7144,417.709 68.5,417.5C 68.5,415.833 68.5,414.167 68.5,412.5C 69.3922,410.638 69.5589,408.638 69,406.5C 69.8518,407.571 70.6851,408.571 71.5,409.5 Z"/></g>
<g><path style="opacity:1" fill="#bcbcbc" d="M 35.5,436.5 C 52.8365,436.333 70.1699,436.5 87.5,437C 94.4993,440.333 95.1659,444.666 89.5,450C 71.1667,450.667 52.8333,450.667 34.5,450C 29.1142,445.091 29.4475,440.591 35.5,436.5 Z"/></g>
<g><path style="opacity:1" fill="#bcbcbc" d="M 160.5,436.5 C 177.837,436.333 195.17,436.5 212.5,437C 219.499,440.333 220.166,444.666 214.5,450C 196.167,450.667 177.833,450.667 159.5,450C 154.114,445.091 154.448,440.591 160.5,436.5 Z"/></g>
<g><path style="opacity:1" fill="#bcbcbc" d="M 285.5,436.5 C 302.837,436.333 320.17,436.5 337.5,437C 344.499,440.333 345.166,444.666 339.5,450C 321.167,450.667 302.833,450.667 284.5,450C 279.114,445.091 279.448,440.591 285.5,436.5 Z"/></g>
<g><path style="opacity:1" fill="#bcbcbc" d="M 410.5,436.5 C 427.837,436.333 445.17,436.5 462.5,437C 469.499,440.333 470.166,444.666 464.5,450C 446.167,450.667 427.833,450.667 409.5,450C 404.114,445.091 404.448,440.591 410.5,436.5 Z"/></g>
<g><path style="opacity:1" fill="#a4a6a7" d="M -0.5,484.5 C 166.167,484.5 332.833,484.5 499.5,484.5C 499.5,489.5 499.5,494.5 499.5,499.5C 332.833,499.5 166.167,499.5 -0.5,499.5C -0.5,494.5 -0.5,489.5 -0.5,484.5 Z"/></g>
</svg>
