<?xml version="1.0" encoding="UTF-8"?>
<!DOCTYPE svg PUBLIC "-//W3C//DTD SVG 1.1//EN" "http://www.w3.org/Graphics/SVG/1.1/DTD/svg11.dtd">
<svg xmlns="http://www.w3.org/2000/svg" version="1.1" width="500px" height="500px" style="shape-rendering:geometricPrecision; text-rendering:geometricPrecision; image-rendering:optimizeQuality; fill-rule:evenodd; clip-rule:evenodd" xmlns:xlink="http://www.w3.org/1999/xlink">
<g><path style="opacity:1" fill="#181818" d="M 447.5,109.5 C 449.988,121.335 451.488,133.335 452,145.5C 452.667,164.5 452.667,183.5 452,202.5C 451.976,213.335 450.643,224.002 448,234.5C 443.357,249.817 433.19,258.65 417.5,261C 391.573,263.698 365.573,265.032 339.5,265C 315.445,278.021 291.779,291.521 268.5,305.5C 267.833,305.5 267.5,305.833 267.5,306.5C 260.899,309.468 254.566,312.968 248.5,317C 244.333,318.167 242.833,316.667 244,312.5C 261.028,297.635 277.861,282.635 294.5,267.5C 296.027,267.573 297.027,266.906 297.5,265.5C 298.289,265.217 298.956,264.717 299.5,264C 275.836,263.5 252.169,263.333 228.5,263.5C 227.167,263.5 225.833,263.5 224.5,263.5C 215.737,261.241 209.57,255.908 206,247.5C 201.392,230.158 199.059,212.491 199,194.5C 197.946,171.773 198.612,149.106 201,126.5C 203.735,113.846 209.902,103.346 219.5,95C 222.382,93.3921 225.382,92.0587 228.5,91C 292.839,90.2207 357.173,90.5541 421.5,92C 430.368,92.6855 437.868,96.1855 444,102.5C 445.705,104.577 446.872,106.91 447.5,109.5 Z M 301.5,269.5 C 302.993,270.312 303.66,271.645 303.5,273.5C 303.16,275.512 302.827,277.512 302.5,279.5C 293.14,284.513 283.806,289.513 274.5,294.5C 283.199,285.799 292.199,277.466 301.5,269.5 Z"/></g>
<g><path style="opacity:0.999" fill="#fdfdfd" d="M 302.5,279.5 C 302.827,277.512 303.16,275.512 303.5,273.5C 303.66,271.645 302.993,270.312 301.5,269.5C 303.502,266.666 306.002,264.333 309,262.5C 309.507,261.004 309.007,259.837 307.5,259C 279.833,258.667 252.167,258.333 224.5,258C 214.431,253.061 208.931,244.894 208,233.5C 204.633,201.253 203.633,168.92 205,136.5C 205.7,123.888 210.2,112.888 218.5,103.5C 221.322,100.587 224.655,98.4198 228.5,97C 291.833,96.3333 355.167,96.3333 418.5,97C 426.83,97.6607 433.997,100.827 440,106.5C 441.893,109.618 443.226,112.951 444,116.5C 446.909,152.138 447.242,187.805 445,223.5C 442.934,243.232 432.101,254.399 412.5,257C 387.512,258.216 362.512,259.216 337.5,260C 325.806,266.512 314.139,273.012 302.5,279.5 Z"/></g>
<g><path style="opacity:0.996" fill="#8a8a8a" d="M 447.5,109.5 C 450.324,111.8 452.157,114.8 453,118.5C 456.288,149.748 457.288,181.082 456,212.5C 455.709,221.58 454.709,230.58 453,239.5C 448.682,254.491 438.849,262.991 423.5,265C 397.571,267.548 371.571,268.881 345.5,269C 315.081,286.293 284.581,303.46 254,320.5C 253.833,320.167 253.667,319.833 253.5,319.5C 258.213,315.117 262.88,310.783 267.5,306.5C 268.167,306.5 268.5,306.167 268.5,305.5C 291.779,291.521 315.445,278.021 339.5,265C 365.573,265.032 391.573,263.698 417.5,261C 433.19,258.65 443.357,249.817 448,234.5C 450.643,224.002 451.976,213.335 452,202.5C 452.667,183.5 452.667,164.5 452,145.5C 451.488,133.335 449.988,121.335 447.5,109.5 Z"/></g>
<g><path style="opacity:1" fill="#bf6667" d="M 318.5,127.5 C 318.833,127.5 319.167,127.5 319.5,127.5C 322.768,128.822 326.435,129.489 330.5,129.5C 334.565,129.489 338.232,128.822 341.5,127.5C 342.167,127.5 342.5,127.833 342.5,128.5C 334.903,130.467 326.903,131.134 318.5,130.5C 318.5,129.5 318.5,128.5 318.5,127.5 Z"/></g>
<g><path style="opacity:1" fill="#aa1615" d="M 319.5,127.5 C 326.833,127.5 334.167,127.5 341.5,127.5C 338.232,128.822 334.565,129.489 330.5,129.5C 326.435,129.489 322.768,128.822 319.5,127.5 Z"/></g>
<g><path style="opacity:1" fill="#ebe9e8" d="M 318.5,127.5 C 318.5,128.5 318.5,129.5 318.5,130.5C 326.903,131.134 334.903,130.467 342.5,128.5C 348.545,130.393 354.879,131.06 361.5,130.5C 361.5,136.833 361.5,143.167 361.5,149.5C 362.833,149.5 364.167,149.5 365.5,149.5C 371.5,149.5 377.5,149.5 383.5,149.5C 383.5,149.833 383.5,150.167 383.5,150.5C 376.833,150.5 370.167,150.5 363.5,150.5C 363.5,161.167 363.5,171.833 363.5,182.5C 362.833,181.833 362.167,181.167 361.5,180.5C 318.67,179.501 275.67,179.168 232.5,179.5C 232.463,163.375 232.463,147.042 232.5,130.5C 236.167,130.5 239.833,130.5 243.5,130.5C 243.285,128.821 243.952,127.821 245.5,127.5C 253.316,126.508 261.316,126.174 269.5,126.5C 269.5,127.833 269.5,129.167 269.5,130.5C 285.167,130.5 300.833,130.5 316.5,130.5C 316.285,128.821 316.952,127.821 318.5,127.5 Z"/></g>
<g><path style="opacity:1" fill="#c56865" d="M 245.5,128.5 C 252.982,129.492 260.648,129.825 268.5,129.5C 260.657,130.82 252.657,130.82 244.5,129.5C 244.624,128.893 244.957,128.56 245.5,128.5 Z"/></g>
<g><path style="opacity:1" fill="#a81717" d="M 245.5,127.5 C 253.573,126.868 261.24,127.535 268.5,129.5C 260.648,129.825 252.982,129.492 245.5,128.5C 245.5,128.167 245.5,127.833 245.5,127.5 Z"/></g>
<g><path style="opacity:1" fill="#797979" d="M 300.5,171.5 C 300.5,162.5 300.5,153.5 300.5,144.5C 292.493,144.334 284.493,144.5 276.5,145C 280.197,153.592 283.197,162.425 285.5,171.5C 283.5,171.5 281.5,171.5 279.5,171.5C 276.474,162.743 273.141,154.077 269.5,145.5C 265.205,144.339 260.871,144.172 256.5,145C 259.93,153.79 263.264,162.624 266.5,171.5C 259.833,171.5 253.167,171.5 246.5,171.5C 246.5,162.167 246.5,152.833 246.5,143.5C 264.833,143.5 283.167,143.5 301.5,143.5C 301.827,153.015 301.494,162.348 300.5,171.5 Z"/></g>
<g><path style="opacity:1" fill="#5a5a5a" d="M 300.5,171.5 C 295.5,171.5 290.5,171.5 285.5,171.5C 283.197,162.425 280.197,153.592 276.5,145C 284.493,144.5 292.493,144.334 300.5,144.5C 300.5,153.5 300.5,162.5 300.5,171.5 Z"/></g>
<g><path style="opacity:1" fill="#5b5b5b" d="M 279.5,171.5 C 275.167,171.5 270.833,171.5 266.5,171.5C 263.264,162.624 259.93,153.79 256.5,145C 260.871,144.172 265.205,144.339 269.5,145.5C 273.141,154.077 276.474,162.743 279.5,171.5 Z"/></g>
<g><path style="opacity:1" fill="#b73835" d="M 383.5,149.5 C 377.5,149.5 371.5,149.5 365.5,149.5C 365.33,148.178 365.663,147.011 366.5,146C 372.157,145.501 377.824,145.334 383.5,145.5C 383.5,146.833 383.5,148.167 383.5,149.5 Z"/></g>
<g><path style="opacity:1" fill="#f6c40d" d="M 109.5,225.5 C 107.076,225.192 104.743,225.526 102.5,226.5C 103.943,231.473 103.11,231.806 100,227.5C 99.6258,228.416 99.1258,229.25 98.5,230C 99.5742,230.739 100.241,231.739 100.5,233C 99.913,235.625 99.5797,238.292 99.5,241C 99.5332,243.61 100.2,245.777 101.5,247.5C 112.461,272.089 124.461,296.089 137.5,319.5C 137.462,322.181 138.129,324.681 139.5,327C 138.852,328.44 138.519,329.94 138.5,331.5C 141.825,331.494 144.159,332.994 145.5,336C 147.405,337.421 149.405,338.588 151.5,339.5C 151.712,341.384 152.712,342.717 154.5,343.5C 157,343.833 159.5,344.167 162,344.5C 167.327,344.1 172.493,343.266 177.5,342C 179.863,342.589 180.863,344.089 180.5,346.5C 182.921,346.878 185.254,347.545 187.5,348.5C 187.828,351.172 189.328,352.839 192,353.5C 192.483,354.448 192.649,355.448 192.5,356.5C 195.163,358.323 198.163,359.323 201.5,359.5C 211.815,367.476 222.148,375.476 232.5,383.5C 233.731,384.651 233.731,385.817 232.5,387C 229.589,388.761 226.589,390.261 223.5,391.5C 219.358,391.527 215.691,392.693 212.5,395C 208.5,395.333 204.5,395.667 200.5,396C 199.122,397.713 197.455,399.047 195.5,400C 188.563,401.288 181.563,401.788 174.5,401.5C 166.32,400.161 158.653,397.328 151.5,393C 127.461,376.799 108.128,356.299 93.5,331.5C 93.5792,330.07 93.2458,328.736 92.5,327.5C 89.557,323.752 86.8904,319.752 84.5,315.5C 83.5832,314.873 82.5832,314.539 81.5,314.5C 81.5,314.167 81.5,313.833 81.5,313.5C 81.2767,311.658 80.9434,309.825 80.5,308C 77.6066,304.124 75.6066,299.791 74.5,295C 75.406,290.853 75.5726,286.686 75,282.5C 73.8372,284.285 73.1705,286.285 73,288.5C 70.8746,285.192 69.0413,281.859 67.5,278.5C 65.7593,262.302 63.2593,246.302 60,230.5C 58.9366,216.185 58.4366,201.852 58.5,187.5C 58.9564,181.78 60.9564,176.78 64.5,172.5C 67.6662,170.166 70.3329,167.333 72.5,164C 76.1537,164.075 78.8204,162.575 80.5,159.5C 81.6888,158.571 83.0222,158.238 84.5,158.5C 84.5,157.5 84.5,156.5 84.5,155.5C 92.9369,153.031 101.604,151.365 110.5,150.5C 112.145,174.461 112.811,198.461 112.5,222.5C 111.5,222.5 110.5,222.5 109.5,222.5C 109.5,223.5 109.5,224.5 109.5,225.5 Z"/></g>
<g><path style="opacity:1" fill="#f6c30e" d="M 130.5,151.5 C 134.429,152.431 137.095,154.764 138.5,158.5C 139.03,176.925 138.363,195.258 136.5,213.5C 136.167,214.167 135.833,214.833 135.5,215.5C 133.076,215.192 130.743,215.526 128.5,216.5C 128.709,217.086 129.043,217.586 129.5,218C 127.19,218.497 124.857,218.663 122.5,218.5C 121.154,207.058 120.154,195.725 119.5,184.5C 119.5,172.833 119.5,161.167 119.5,149.5C 123.197,150.008 126.864,150.674 130.5,151.5 Z"/></g>
<g><path style="opacity:1" fill="#afadad" d="M 383.5,150.5 C 385.604,150.201 387.604,150.534 389.5,151.5C 393.51,157.529 397.51,163.529 401.5,169.5C 401.5,174.167 401.5,178.833 401.5,183.5C 401.167,183.5 400.833,183.5 400.5,183.5C 400.666,178.821 400.499,174.155 400,169.5C 399.617,168.944 399.117,168.611 398.5,168.5C 394.697,163.851 391.03,159.018 387.5,154C 380.508,153.5 373.508,153.334 366.5,153.5C 366.5,159.167 366.5,164.833 366.5,170.5C 365.291,174.618 364.624,178.951 364.5,183.5C 363.833,183.5 363.5,183.167 363.5,182.5C 363.5,171.833 363.5,161.167 363.5,150.5C 370.167,150.5 376.833,150.5 383.5,150.5 Z"/></g>
<g><path style="opacity:1" fill="#7b7a7b" d="M 398.5,168.5 C 388.219,170.476 377.552,171.143 366.5,170.5C 366.5,164.833 366.5,159.167 366.5,153.5C 373.508,153.334 380.508,153.5 387.5,154C 391.03,159.018 394.697,163.851 398.5,168.5 Z"/></g>
<g><path style="opacity:1" fill="#f1ca3e" d="M 84.5,155.5 C 84.5,156.5 84.5,157.5 84.5,158.5C 83.0222,158.238 81.6888,158.571 80.5,159.5C 78.8204,162.575 76.1537,164.075 72.5,164C 70.3329,167.333 67.6662,170.166 64.5,172.5C 69.1065,164.513 75.7732,158.847 84.5,155.5 Z"/></g>
<g><path style="opacity:0.493" fill="#f6de87" d="M 130.5,151.5 C 126.864,150.674 123.197,150.008 119.5,149.5C 119.5,161.167 119.5,172.833 119.5,184.5C 119.5,188.167 119.5,191.833 119.5,195.5C 118.504,180.009 118.17,164.342 118.5,148.5C 123.032,147.886 127.032,148.886 130.5,151.5 Z"/></g>
<g><path style="opacity:1" fill="#efcc50" d="M 109.5,225.5 C 109.5,224.5 109.5,223.5 109.5,222.5C 110.5,222.5 111.5,222.5 112.5,222.5C 112.811,198.461 112.145,174.461 110.5,150.5C 101.604,151.365 92.9369,153.031 84.5,155.5C 93.1842,150.996 102.518,148.662 112.5,148.5C 113.708,173.155 114.208,197.822 114,222.5C 112.729,223.883 111.229,224.883 109.5,225.5 Z"/></g>
<g><path style="opacity:1" fill="#b36e73" d="M 317.5,147.5 C 323.927,138.836 331.927,137.336 341.5,143C 349.899,151.384 350.732,160.55 344,170.5C 330.876,179.198 320.876,176.532 314,162.5C 313.333,159.167 313.333,155.833 314,152.5C 314.697,150.416 315.864,148.749 317.5,147.5 Z"/></g>
<g><path style="opacity:1" fill="#f1e5e4" d="M 317.5,147.5 C 324.846,140.628 332.846,139.795 341.5,145C 349.84,154.638 349.173,163.638 339.5,172C 319.433,175.429 312.099,167.262 317.5,147.5 Z"/></g>
<g><path style="opacity:1" fill="#cc514e" d="M 328.5,148.5 C 328.5,150.833 328.5,153.167 328.5,155.5C 326.5,155.5 324.5,155.5 322.5,155.5C 322.5,156.833 322.5,158.167 322.5,159.5C 324.415,159.216 326.081,159.549 327.5,160.5C 325.5,160.5 323.5,160.5 321.5,160.5C 321.5,158.5 321.5,156.5 321.5,154.5C 323.5,154.5 325.5,154.5 327.5,154.5C 327.205,152.265 327.539,150.265 328.5,148.5 Z"/></g>
<g><path style="opacity:1" fill="#d40b09" d="M 328.5,148.5 C 330.167,148.5 331.833,148.5 333.5,148.5C 333.5,150.833 333.5,153.167 333.5,155.5C 335.265,156.461 337.265,156.795 339.5,156.5C 339.5,157.5 339.5,158.5 339.5,159.5C 337.167,159.5 334.833,159.5 332.5,159.5C 332.5,161.833 332.5,164.167 332.5,166.5C 331.5,166.5 330.5,166.5 329.5,166.5C 329.784,164.585 329.451,162.919 328.5,161.5C 328.5,160.833 328.167,160.5 327.5,160.5C 326.081,159.549 324.415,159.216 322.5,159.5C 322.5,158.167 322.5,156.833 322.5,155.5C 324.5,155.5 326.5,155.5 328.5,155.5C 328.5,153.167 328.5,150.833 328.5,148.5 Z"/></g>
<g><path style="opacity:1" fill="#bb2725" d="M 333.5,155.5 C 335.833,155.5 338.167,155.5 340.5,155.5C 340.5,157.167 340.5,158.833 340.5,160.5C 338.167,160.5 335.833,160.5 333.5,160.5C 333.5,162.833 333.5,165.167 333.5,167.5C 331.833,167.5 330.167,167.5 328.5,167.5C 328.5,165.5 328.5,163.5 328.5,161.5C 329.451,162.919 329.784,164.585 329.5,166.5C 330.5,166.5 331.5,166.5 332.5,166.5C 332.5,164.167 332.5,161.833 332.5,159.5C 334.833,159.5 337.167,159.5 339.5,159.5C 339.5,158.5 339.5,157.5 339.5,156.5C 337.265,156.795 335.265,156.461 333.5,155.5 Z"/></g>
<g><path style="opacity:1" fill="#e88888" d="M 328.5,148.5 C 330.265,147.539 332.265,147.205 334.5,147.5C 334.5,149.833 334.5,152.167 334.5,154.5C 336.735,154.205 338.735,154.539 340.5,155.5C 338.167,155.5 335.833,155.5 333.5,155.5C 333.5,153.167 333.5,150.833 333.5,148.5C 331.833,148.5 330.167,148.5 328.5,148.5 Z"/></g>
<g><path style="opacity:1" fill="#cecbcb" d="M 398.5,168.5 C 399.117,168.611 399.617,168.944 400,169.5C 400.499,174.155 400.666,178.821 400.5,183.5C 388.5,183.5 376.5,183.5 364.5,183.5C 364.624,178.951 365.291,174.618 366.5,170.5C 377.552,171.143 388.219,170.476 398.5,168.5 Z"/></g>
<g><path style="opacity:1" fill="#d1cbca" d="M 401.5,169.5 C 410.603,174.598 419.937,179.264 429.5,183.5C 420.167,183.5 410.833,183.5 401.5,183.5C 401.5,178.833 401.5,174.167 401.5,169.5 Z"/></g>
<g><path style="opacity:1" fill="#ca0002" d="M 361.5,182.5 C 361.5,183.167 361.5,183.833 361.5,184.5C 362.968,185.779 363.635,187.446 363.5,189.5C 362.167,189.5 360.833,189.5 359.5,189.5C 359.5,190.833 359.5,192.167 359.5,193.5C 331.94,192.901 304.44,192.234 277,191.5C 274.067,192.466 271.401,192.466 269,191.5C 264.795,193.642 260.795,193.642 257,191.5C 249.556,192.295 242.056,192.961 234.5,193.5C 234.5,189.5 234.5,185.5 234.5,181.5C 276.906,181.173 319.239,181.506 361.5,182.5 Z"/></g>
<g><path style="opacity:1" fill="#ee8788" d="M 361.5,180.5 C 362.167,181.167 362.833,181.833 363.5,182.5C 363.5,183.167 363.833,183.5 364.5,183.5C 376.5,183.5 388.5,183.5 400.5,183.5C 400.833,183.5 401.167,183.5 401.5,183.5C 410.833,183.5 420.167,183.5 429.5,183.5C 429.5,183.833 429.5,184.167 429.5,184.5C 406.833,184.5 384.167,184.5 361.5,184.5C 361.5,183.833 361.5,183.167 361.5,182.5C 361.5,181.833 361.5,181.167 361.5,180.5 Z"/></g>
<g><path style="opacity:1" fill="#bd1310" d="M 361.5,180.5 C 361.5,181.167 361.5,181.833 361.5,182.5C 319.239,181.506 276.906,181.173 234.5,181.5C 234.5,185.5 234.5,189.5 234.5,193.5C 242.056,192.961 249.556,192.295 257,191.5C 260.795,193.642 264.795,193.642 269,191.5C 271.401,192.466 274.067,192.466 277,191.5C 304.44,192.234 331.94,192.901 359.5,193.5C 359.5,192.167 359.5,190.833 359.5,189.5C 360.833,189.5 362.167,189.5 363.5,189.5C 363.635,187.446 362.968,185.779 361.5,184.5C 384.167,184.5 406.833,184.5 429.5,184.5C 429.5,186.833 429.5,189.167 429.5,191.5C 407.5,191.5 385.5,191.5 363.5,191.5C 362.833,191.5 362.167,191.5 361.5,191.5C 360.596,192.209 360.263,193.209 360.5,194.5C 318.167,194.5 275.833,194.5 233.5,194.5C 233.5,189.833 233.5,185.167 233.5,180.5C 276.167,180.5 318.833,180.5 361.5,180.5 Z"/></g>
<g><path style="opacity:1" fill="#d90506" d="M 376.5,185.5 C 393.833,185.5 411.167,185.5 428.5,185.5C 428.5,187.167 428.5,188.833 428.5,190.5C 411.497,190.667 394.497,190.5 377.5,190C 376.62,188.644 376.286,187.144 376.5,185.5 Z"/></g>
<g><path style="opacity:1" fill="#cdc7c6" d="M 429.5,184.5 C 430.198,187.897 430.865,191.397 431.5,195C 430.883,197.277 430.216,199.444 429.5,201.5C 429.5,202.833 429.5,204.167 429.5,205.5C 424.5,205.5 419.5,205.5 414.5,205.5C 411.182,200.003 406.182,197.337 399.5,197.5C 393.074,197.216 388.074,199.883 384.5,205.5C 350.167,205.5 315.833,205.5 281.5,205.5C 280.833,205.5 280.5,205.167 280.5,204.5C 307.5,204.5 334.5,204.5 361.5,204.5C 361.5,201.833 361.5,199.167 361.5,196.5C 363.256,195.448 363.923,193.781 363.5,191.5C 385.5,191.5 407.5,191.5 429.5,191.5C 429.5,189.167 429.5,186.833 429.5,184.5 Z"/></g>
<g><path style="opacity:1" fill="#c64543" d="M 232.5,179.5 C 275.67,179.168 318.67,179.501 361.5,180.5C 318.833,180.5 276.167,180.5 233.5,180.5C 233.5,185.167 233.5,189.833 233.5,194.5C 275.833,194.5 318.167,194.5 360.5,194.5C 360.263,193.209 360.596,192.209 361.5,191.5C 361.5,192.833 361.5,194.167 361.5,195.5C 318.5,195.5 275.5,195.5 232.5,195.5C 232.5,190.167 232.5,184.833 232.5,179.5 Z"/></g>
<g><path style="opacity:1" fill="#fccbcc" d="M 361.5,191.5 C 362.167,191.5 362.833,191.5 363.5,191.5C 363.923,193.781 363.256,195.448 361.5,196.5C 330.833,196.5 300.167,196.5 269.5,196.5C 267.167,196.5 264.833,196.5 262.5,196.5C 252.319,196.827 242.319,196.494 232.5,195.5C 275.5,195.5 318.5,195.5 361.5,195.5C 361.5,194.167 361.5,192.833 361.5,191.5 Z"/></g>
<g><path style="opacity:1" fill="#ebe9e9" d="M 269.5,196.5 C 300.167,196.5 330.833,196.5 361.5,196.5C 361.5,199.167 361.5,201.833 361.5,204.5C 334.5,204.5 307.5,204.5 280.5,204.5C 277.3,200.934 273.634,198.267 269.5,196.5 Z"/></g>
<g><path style="opacity:1" fill="#cf561f" d="M 429.5,197.5 C 429.5,198.5 429.5,199.5 429.5,200.5C 427.167,200.5 424.833,200.5 422.5,200.5C 422.5,199.5 422.5,198.5 422.5,197.5C 424.833,197.5 427.167,197.5 429.5,197.5 Z"/></g>
<g><path style="opacity:1" fill="#ce7d54" d="M 429.5,197.5 C 427.167,197.5 424.833,197.5 422.5,197.5C 422.5,198.5 422.5,199.5 422.5,200.5C 424.833,200.5 427.167,200.5 429.5,200.5C 429.5,200.833 429.5,201.167 429.5,201.5C 426.833,201.5 424.167,201.5 421.5,201.5C 421.5,199.833 421.5,198.167 421.5,196.5C 424.385,196.194 427.052,196.527 429.5,197.5 Z"/></g>
<g><path style="opacity:1" fill="#f2d15b" d="M 138.5,158.5 C 139.53,175.672 140.03,193.005 140,210.5C 138.961,211.71 137.794,212.71 136.5,213.5C 138.363,195.258 139.03,176.925 138.5,158.5 Z"/></g>
<g><path style="opacity:1" fill="#eae7e8" d="M 232.5,179.5 C 232.5,184.833 232.5,190.167 232.5,195.5C 242.319,196.494 252.319,196.827 262.5,196.5C 262.631,197.239 262.464,197.906 262,198.5C 261.282,197.549 260.449,197.383 259.5,198C 256.833,199.862 254.5,202.028 252.5,204.5C 245.416,203.874 238.75,204.541 232.5,206.5C 231.167,197.5 231.167,188.5 232.5,179.5 Z"/></g>
<g><path style="opacity:1" fill="#252322" d="M 262.5,196.5 C 264.833,196.5 267.167,196.5 269.5,196.5C 273.634,198.267 277.3,200.934 280.5,204.5C 280.5,205.167 280.833,205.5 281.5,205.5C 282.175,207.283 282.508,208.95 282.5,210.5C 282.84,213.144 282.173,215.477 280.5,217.5C 281.127,218.417 281.461,219.417 281.5,220.5C 279.167,223.167 276.833,225.833 274.5,228.5C 273.5,228.833 272.833,229.5 272.5,230.5C 272.167,230.5 271.833,230.5 271.5,230.5C 263.895,231.358 257.562,229.024 252.5,223.5C 252.137,219.748 251.137,216.081 249.5,212.5C 250.015,210.106 250.681,207.772 251.5,205.5C 252.167,205.5 252.5,205.167 252.5,204.5C 254.5,202.028 256.833,199.862 259.5,198C 260.449,197.383 261.282,197.549 262,198.5C 262.464,197.906 262.631,197.239 262.5,196.5 Z"/></g>
<g><path style="opacity:1" fill="#f1cf56" d="M 58.5,187.5 C 58.4366,201.852 58.9366,216.185 60,230.5C 63.2593,246.302 65.7593,262.302 67.5,278.5C 63.2159,263.906 60.3825,248.906 59,233.5C 58.0798,221.332 57.2465,209.166 56.5,197C 56.9458,193.65 57.6125,190.483 58.5,187.5 Z"/></g>
<g><path style="opacity:1" fill="#4e4d4d" d="M 251.5,205.5 C 250.681,207.772 250.015,210.106 249.5,212.5C 246.167,212.5 242.833,212.5 239.5,212.5C 238.022,212.762 236.689,212.429 235.5,211.5C 235.006,209.974 234.339,208.641 233.5,207.5C 239.074,205.547 245.074,204.88 251.5,205.5 Z"/></g>
<g><path style="opacity:1" fill="#4e4d4b" d="M 281.5,205.5 C 315.833,205.5 350.167,205.5 384.5,205.5C 384.784,207.415 384.451,209.081 383.5,210.5C 366.886,211.819 350.052,212.486 333,212.5C 315.948,212.486 299.114,211.819 282.5,210.5C 282.508,208.95 282.175,207.283 281.5,205.5 Z"/></g>
<g><path style="opacity:1" fill="#4e4e4d" d="M 414.5,205.5 C 419.5,205.5 424.5,205.5 429.5,205.5C 428.052,207.555 426.719,209.722 425.5,212C 422.518,212.498 419.518,212.665 416.5,212.5C 414.832,210.521 414.166,208.188 414.5,205.5 Z"/></g>
<g><path style="opacity:1" fill="#eecb44" d="M 119.5,184.5 C 120.154,195.725 121.154,207.058 122.5,218.5C 124.857,218.663 127.19,218.497 129.5,218C 129.043,217.586 128.709,217.086 128.5,216.5C 130.743,215.526 133.076,215.192 135.5,215.5C 131.437,219.624 126.604,221.291 121,220.5C 119.562,212.277 119.062,203.943 119.5,195.5C 119.5,191.833 119.5,188.167 119.5,184.5 Z"/></g>
<g><path style="opacity:1" fill="#2f2e2e" d="M 282.5,210.5 C 299.114,211.819 315.948,212.486 333,212.5C 350.052,212.486 366.886,211.819 383.5,210.5C 383.5,211.5 383.5,212.5 383.5,213.5C 381.5,213.5 379.5,213.5 377.5,213.5C 377.5,214.5 377.5,215.5 377.5,216.5C 378.93,216.421 380.264,216.754 381.5,217.5C 382.251,216.624 382.751,215.624 383,214.5C 383.645,215.646 384.478,216.646 385.5,217.5C 384.873,218.417 384.539,219.417 384.5,220.5C 382.554,221.199 380.554,220.865 378.5,219.5C 348.506,218.333 318.506,218.167 288.5,219C 286.481,219.45 284.648,220.283 283,221.5C 282.617,220.944 282.117,220.611 281.5,220.5C 281.461,219.417 281.127,218.417 280.5,217.5C 282.173,215.477 282.84,213.144 282.5,210.5 Z"/></g>
<g><path style="opacity:1" fill="#989899" d="M 233.5,207.5 C 234.339,208.641 235.006,209.974 235.5,211.5C 236.689,212.429 238.022,212.762 239.5,212.5C 242.47,216.856 246.137,221.189 250.5,225.5C 252.911,226.361 254.911,227.694 256.5,229.5C 254.194,229.007 251.861,228.674 249.5,228.5C 247.868,226.673 246.201,224.839 244.5,223C 236.454,221.137 232.787,215.97 233.5,207.5 Z"/></g>
<g><path style="opacity:1" fill="#807c7b" d="M 262.5,202.5 C 272.495,201.997 277.329,206.664 277,216.5C 274.189,222.823 269.355,225.323 262.5,224C 256.092,220.677 253.925,215.511 256,208.5C 258.063,206.266 260.229,204.266 262.5,202.5 Z"/></g>
<g><path style="opacity:1" fill="#363231" d="M 264.5,208.5 C 271.821,209.319 273.154,212.486 268.5,218C 264.167,219.489 261.833,217.989 261.5,213.5C 261.771,211.307 262.771,209.641 264.5,208.5 Z"/></g>
<g><path style="opacity:1" fill="#242321" d="M 414.5,205.5 C 414.166,208.188 414.832,210.521 416.5,212.5C 415.134,215.961 414.134,219.627 413.5,223.5C 411.81,223.856 410.81,224.856 410.5,226.5C 404.897,230.368 398.897,231.368 392.5,229.5C 390.518,225.854 387.851,222.854 384.5,220.5C 384.539,219.417 384.873,218.417 385.5,217.5C 384.478,216.646 383.645,215.646 383,214.5C 382.751,215.624 382.251,216.624 381.5,217.5C 380.264,216.754 378.93,216.421 377.5,216.5C 377.5,215.5 377.5,214.5 377.5,213.5C 379.5,213.5 381.5,213.5 383.5,213.5C 383.5,212.5 383.5,211.5 383.5,210.5C 384.451,209.081 384.784,207.415 384.5,205.5C 388.074,199.883 393.074,197.216 399.5,197.5C 406.182,197.337 411.182,200.003 414.5,205.5 Z"/></g>
<g><path style="opacity:1" fill="#7e7b7a" d="M 396.5,202.5 C 408.207,202.699 412.373,208.366 409,219.5C 405.562,224.081 401.062,225.581 395.5,224C 389.397,220.96 387.231,216.126 389,209.5C 390.742,206.254 393.242,203.921 396.5,202.5 Z"/></g>
<g><path style="opacity:1" fill="#34302f" d="M 397.5,208.5 C 404.821,209.319 406.154,212.486 401.5,218C 394.075,217.484 392.742,214.318 397.5,208.5 Z"/></g>
<g><path style="opacity:1" fill="#444444" d="M 384.5,220.5 C 387.851,222.854 390.518,225.854 392.5,229.5C 389.281,227.061 385.614,225.394 381.5,224.5C 378.797,223.037 375.797,222.204 372.5,222C 346.5,221.333 320.5,221.333 294.5,222C 291.149,222.057 288.149,222.891 285.5,224.5C 281.512,225.076 277.845,226.409 274.5,228.5C 276.833,225.833 279.167,223.167 281.5,220.5C 282.117,220.611 282.617,220.944 283,221.5C 284.648,220.283 286.481,219.45 288.5,219C 318.506,218.167 348.506,218.333 378.5,219.5C 380.554,220.865 382.554,221.199 384.5,220.5 Z"/></g>
<g><path style="opacity:1" fill="#807f7f" d="M 239.5,212.5 C 242.833,212.5 246.167,212.5 249.5,212.5C 251.137,216.081 252.137,219.748 252.5,223.5C 257.562,229.024 263.895,231.358 271.5,230.5C 271.5,231.167 271.5,231.833 271.5,232.5C 268.15,232.665 264.817,232.498 261.5,232C 259.509,231.626 257.842,230.793 256.5,229.5C 254.911,227.694 252.911,226.361 250.5,225.5C 246.137,221.189 242.47,216.856 239.5,212.5 Z"/></g>
<g><path style="opacity:1" fill="#c3c4c4" d="M 252.5,204.5 C 252.5,205.167 252.167,205.5 251.5,205.5C 245.074,204.88 239.074,205.547 233.5,207.5C 232.787,215.97 236.454,221.137 244.5,223C 246.201,224.839 247.868,226.673 249.5,228.5C 244.317,227.497 239.484,225.497 235,222.5C 232.672,217.506 231.839,212.173 232.5,206.5C 238.75,204.541 245.416,203.874 252.5,204.5 Z"/></g>
<g><path style="opacity:1" fill="#676767" d="M 381.5,224.5 C 349.5,223.167 317.5,223.167 285.5,224.5C 288.149,222.891 291.149,222.057 294.5,222C 320.5,221.333 346.5,221.333 372.5,222C 375.797,222.204 378.797,223.037 381.5,224.5 Z"/></g>
<g><path style="opacity:1" fill="#828282" d="M 381.5,224.5 C 385.614,225.394 389.281,227.061 392.5,229.5C 398.897,231.368 404.897,230.368 410.5,226.5C 410.063,228.074 409.063,229.241 407.5,230C 401.92,231.517 396.253,231.851 390.5,231C 387.619,228.54 384.286,227.373 380.5,227.5C 378.031,226.683 375.365,226.183 372.5,226C 343.5,225.333 314.5,225.333 285.5,226C 281.545,228.573 277.212,230.073 272.5,230.5C 272.833,229.5 273.5,228.833 274.5,228.5C 277.845,226.409 281.512,225.076 285.5,224.5C 317.5,223.167 349.5,223.167 381.5,224.5 Z"/></g>
<g><path style="opacity:1" fill="#b4b4b4" d="M 380.5,227.5 C 350.831,227.333 321.165,227.5 291.5,228C 288.635,228.183 285.969,228.683 283.5,229.5C 279.841,231.342 275.841,232.342 271.5,232.5C 271.5,231.833 271.5,231.167 271.5,230.5C 271.833,230.5 272.167,230.5 272.5,230.5C 277.212,230.073 281.545,228.573 285.5,226C 314.5,225.333 343.5,225.333 372.5,226C 375.365,226.183 378.031,226.683 380.5,227.5 Z"/></g>
<g><path style="opacity:1" fill="#d3d2d2" d="M 413.5,223.5 C 413.33,224.822 413.663,225.989 414.5,227C 409.383,231.901 403.216,234.068 396,233.5C 390.534,232.876 385.367,231.376 380.5,229C 348.155,228.235 315.822,228.402 283.5,229.5C 285.969,228.683 288.635,228.183 291.5,228C 321.165,227.5 350.831,227.333 380.5,227.5C 384.286,227.373 387.619,228.54 390.5,231C 396.253,231.851 401.92,231.517 407.5,230C 409.063,229.241 410.063,228.074 410.5,226.5C 410.81,224.856 411.81,223.856 413.5,223.5 Z"/></g>
<g><path style="opacity:1" fill="#f2cb3f" d="M 109.5,225.5 C 102.722,231.152 100.056,238.485 101.5,247.5C 100.2,245.777 99.5332,243.61 99.5,241C 99.5797,238.292 99.913,235.625 100.5,233C 100.241,231.739 99.5742,230.739 98.5,230C 99.1258,229.25 99.6258,228.416 100,227.5C 103.11,231.806 103.943,231.473 102.5,226.5C 104.743,225.526 107.076,225.192 109.5,225.5 Z"/></g>
<g><path style="opacity:1" fill="#606060" d="M 228.5,263.5 C 252.169,263.333 275.836,263.5 299.5,264C 298.956,264.717 298.289,265.217 297.5,265.5C 274.5,264.833 251.5,264.167 228.5,263.5 Z"/></g>
<g><path style="opacity:1" fill="#8f8f8f" d="M 224.5,263.5 C 225.833,263.5 227.167,263.5 228.5,263.5C 251.5,264.167 274.5,264.833 297.5,265.5C 297.027,266.906 296.027,267.573 294.5,267.5C 273.831,267.667 253.164,267.5 232.5,267C 229.401,266.613 226.734,265.446 224.5,263.5 Z"/></g>
<g><path style="opacity:0.345" fill="#fbfbfb" d="M 298.5,277.5 C 300.337,277.639 300.67,278.306 299.5,279.5C 298.702,279.043 298.369,278.376 298.5,277.5 Z"/></g>
<g><path style="opacity:1" fill="#f4ca43" d="M 67.5,278.5 C 69.0413,281.859 70.8746,285.192 73,288.5C 73.1705,286.285 73.8372,284.285 75,282.5C 75.5726,286.686 75.406,290.853 74.5,295C 75.6066,299.791 77.6066,304.124 80.5,308C 80.9434,309.825 81.2767,311.658 81.5,313.5C 74.8995,302.717 70.2328,291.051 67.5,278.5 Z"/></g>
<g><path style="opacity:0.373" fill="#a8a8a8" d="M 272.5,296.5 C 271.473,297.848 270.14,298.348 268.5,298C 269.563,296.812 270.897,296.312 272.5,296.5 Z"/></g>
<g><path style="opacity:1" fill="#f1cf4f" d="M 81.5,314.5 C 82.5832,314.539 83.5832,314.873 84.5,315.5C 86.8904,319.752 89.557,323.752 92.5,327.5C 93.2458,328.736 93.5792,330.07 93.5,331.5C 88.7748,326.397 84.7748,320.731 81.5,314.5 Z"/></g>
<g><path style="opacity:0.565" fill="#f7dd87" d="M 204.5,327.5 C 201.545,326.841 198.545,326.508 195.5,326.5C 198.57,324.377 201.57,324.71 204.5,327.5 Z"/></g>
<g><path style="opacity:1" fill="#f3cb44" d="M 137.5,319.5 C 141.662,326.479 146.328,333.146 151.5,339.5C 149.405,338.588 147.405,337.421 145.5,336C 144.159,332.994 141.825,331.494 138.5,331.5C 138.519,329.94 138.852,328.44 139.5,327C 138.129,324.681 137.462,322.181 137.5,319.5 Z"/></g>
<g><path style="opacity:1" fill="#f0cf59" d="M 151.5,339.5 C 159.278,344.014 167.278,344.014 175.5,339.5C 180.083,341.753 184.083,344.753 187.5,348.5C 185.254,347.545 182.921,346.878 180.5,346.5C 180.863,344.089 179.863,342.589 177.5,342C 172.493,343.266 167.327,344.1 162,344.5C 159.5,344.167 157,343.833 154.5,343.5C 152.712,342.717 151.712,341.384 151.5,339.5 Z"/></g>
<g><path style="opacity:1" fill="#f4c936" d="M 189.5,329.5 C 188.013,331.605 186.013,333.272 183.5,334.5C 185.241,337.591 187.907,339.258 191.5,339.5C 193.817,341.316 195.984,343.316 198,345.5C 199.775,342.956 201.608,342.956 203.5,345.5C 204.086,345.291 204.586,344.957 205,344.5C 206.641,345.611 207.975,347.611 209,350.5C 209.595,351.899 209.428,353.232 208.5,354.5C 209.524,355.852 210.524,357.185 211.5,358.5C 200.685,351.243 190.351,343.243 180.5,334.5C 183.035,332.064 186.035,330.397 189.5,329.5 Z"/></g>
<g><path style="opacity:1" fill="#f1ce4d" d="M 187.5,348.5 C 192.569,351.695 197.235,355.362 201.5,359.5C 198.163,359.323 195.163,358.323 192.5,356.5C 192.649,355.448 192.483,354.448 192,353.5C 189.328,352.839 187.828,351.172 187.5,348.5 Z"/></g>
<g><path style="opacity:1" fill="#f7c410" d="M 195.5,326.5 C 198.545,326.508 201.545,326.841 204.5,327.5C 210.455,330.818 216.122,334.651 221.5,339C 229.024,345.031 236.357,351.198 243.5,357.5C 245.694,365.012 244.361,371.679 239.5,377.5C 237.483,376.826 235.817,375.659 234.5,374C 233.207,373.51 231.873,373.343 230.5,373.5C 227.208,371.542 224.208,369.209 221.5,366.5C 219.92,362.337 216.92,360.004 212.5,359.5C 211.833,359.5 211.5,359.167 211.5,358.5C 210.524,357.185 209.524,355.852 208.5,354.5C 209.428,353.232 209.595,351.899 209,350.5C 207.975,347.611 206.641,345.611 205,344.5C 204.586,344.957 204.086,345.291 203.5,345.5C 201.608,342.956 199.775,342.956 198,345.5C 195.984,343.316 193.817,341.316 191.5,339.5C 187.907,339.258 185.241,337.591 183.5,334.5C 186.013,333.272 188.013,331.605 189.5,329.5C 191.181,327.992 193.181,326.992 195.5,326.5 Z"/></g>
<g><path style="opacity:1" fill="#f5d467" d="M 212.5,359.5 C 216.92,360.004 219.92,362.337 221.5,366.5C 218.208,364.542 215.208,362.209 212.5,359.5 Z"/></g>
<g><path style="opacity:1" fill="#f1cb4c" d="M 243.5,357.5 C 245.343,359.159 246.343,361.325 246.5,364C 244.998,370.005 242.998,375.838 240.5,381.5C 236.835,379.159 233.501,376.493 230.5,373.5C 231.873,373.343 233.207,373.51 234.5,374C 235.817,375.659 237.483,376.826 239.5,377.5C 244.361,371.679 245.694,365.012 243.5,357.5 Z"/></g>
<g><path style="opacity:1" fill="#f1cc4c" d="M 223.5,391.5 C 211.624,397.679 198.957,401.679 185.5,403.5C 181.669,402.973 178.002,402.306 174.5,401.5C 181.563,401.788 188.563,401.288 195.5,400C 197.455,399.047 199.122,397.713 200.5,396C 204.5,395.667 208.5,395.333 212.5,395C 215.691,392.693 219.358,391.527 223.5,391.5 Z"/></g>
</svg>
