<?xml version="1.0" encoding="UTF-8"?>
<!DOCTYPE svg PUBLIC "-//W3C//DTD SVG 1.1//EN" "http://www.w3.org/Graphics/SVG/1.1/DTD/svg11.dtd">
<svg xmlns="http://www.w3.org/2000/svg" version="1.1" width="500px" height="500px" style="shape-rendering:geometricPrecision; text-rendering:geometricPrecision; image-rendering:optimizeQuality; fill-rule:evenodd; clip-rule:evenodd" xmlns:xlink="http://www.w3.org/1999/xlink">
<g><path style="opacity:0.1" fill="#fefffe" d="M 119.5,81.5 C 120.404,82.209 120.737,83.209 120.5,84.5C 119.448,84.6495 118.448,84.4828 117.5,84C 118.381,83.2917 119.047,82.4584 119.5,81.5 Z"/></g>
<g><path style="opacity:0.012" fill="#fefffe" d="M 123.5,81.5 C 124.833,82.1667 124.833,82.1667 123.5,81.5 Z"/></g>
<g><path style="opacity:1" fill="#e27184" d="M 147.5,84.5 C 216.002,84.7233 284.335,85.39 352.5,86.5C 336.167,86.5 319.833,86.5 303.5,86.5C 251.5,86.5 199.5,86.5 147.5,86.5C 147.5,86.1667 147.5,85.8333 147.5,85.5C 147.5,85.1667 147.5,84.8333 147.5,84.5 Z"/></g>
<g><path style="opacity:1" fill="#e83b5b" d="M 147.5,86.5 C 199.5,86.5 251.5,86.5 303.5,86.5C 319.569,87.1736 335.735,87.8402 352,88.5C 352.5,170.499 352.667,252.499 352.5,334.5C 352.5,353.167 352.5,371.833 352.5,390.5C 338.167,390.5 323.833,390.5 309.5,390.5C 309.5,389.833 309.167,389.5 308.5,389.5C 274.5,363.004 243.5,333.171 215.5,300C 217.765,298.882 220.099,298.049 222.5,297.5C 222.5,296.5 222.5,295.5 222.5,294.5C 216.5,294.5 210.5,294.5 204.5,294.5C 210.678,293.183 217.012,293.183 223.5,294.5C 225.281,297.956 226.281,301.622 226.5,305.5C 230.555,305.824 234.555,305.491 238.5,304.5C 236.707,300.133 235.04,295.8 233.5,291.5C 232.744,287.233 231.411,283.233 229.5,279.5C 228.297,275.89 227.297,272.223 226.5,268.5C 225.402,263.609 224.069,258.776 222.5,254C 217.148,251.94 212.148,252.106 207.5,254.5C 204.805,261.597 202.139,268.597 199.5,275.5C 197.386,276.34 195.553,275.673 194,273.5C 178.039,249.229 162.872,224.562 148.5,199.5C 147.564,195.265 147.231,190.931 147.5,186.5C 147.5,153.167 147.5,119.833 147.5,86.5 Z"/></g>
<g><path style="opacity:1" fill="#a31d30" d="M 147.5,86.5 C 147.5,119.833 147.5,153.167 147.5,186.5C 146.691,188.292 146.191,190.292 146,192.5C 139.823,183.801 135.49,174.134 133,163.5C 132.376,161.246 131.043,159.579 129,158.5C 128.088,153.536 127.588,148.536 127.5,143.5C 126.5,143.5 125.5,143.5 124.5,143.5C 124.5,124.5 124.5,105.5 124.5,86.5C 132.167,86.5 139.833,86.5 147.5,86.5 Z"/></g>
<g><path style="opacity:1" fill="#d84747" d="M 221.5,97.5 C 211.319,97.1726 201.319,97.506 191.5,98.5C 190.542,98.9528 189.708,99.6195 189,100.5C 188.5,109.494 188.334,118.494 188.5,127.5C 187.833,128.167 187.167,128.833 186.5,129.5C 186.334,119.828 186.5,110.161 187,100.5C 187.833,99.5 188.667,98.5 189.5,97.5C 200.295,96.1799 210.961,96.1799 221.5,97.5 Z"/></g>
<g><path style="opacity:1" fill="#eae9e9" d="M 353.5,87.5 C 354.317,89.9686 354.817,92.6353 355,95.5C 361.036,101.369 366.87,107.369 372.5,113.5C 370.76,162.495 369.593,211.828 369,261.5C 368.667,310.167 368.333,358.833 368,407.5C 335.907,408.496 303.74,408.829 271.5,408.5C 271.167,408.5 270.833,408.5 270.5,408.5C 230.33,407.274 189.997,406.107 149.5,405C 148.255,404.209 146.922,403.709 145.5,403.5C 143.833,402.5 142.5,401.167 141.5,399.5C 141.576,397.077 140.576,395.244 138.5,394C 138.645,393.228 138.978,392.561 139.5,392C 177.832,391.5 216.165,391.333 254.5,391.5C 287.5,391.5 320.5,391.5 353.5,391.5C 353.5,372.5 353.5,353.5 353.5,334.5C 353.5,252.167 353.5,169.833 353.5,87.5 Z"/></g>
<g><path style="opacity:1" fill="#fbc05e" d="M 221.5,97.5 C 225.093,99.7371 226.426,103.07 225.5,107.5C 225.5,108.167 225.5,108.833 225.5,109.5C 225.666,115.509 225.499,121.509 225,127.5C 224.044,128.579 223.211,129.745 222.5,131C 213.833,131.333 205.167,131.667 196.5,132C 194.569,132.902 192.903,134.069 191.5,135.5C 190.833,135.5 190.5,135.833 190.5,136.5C 190.167,136.5 189.833,136.5 189.5,136.5C 188.167,136.5 186.833,136.5 185.5,136.5C 185.5,135.5 185.5,134.5 185.5,133.5C 185.833,132.167 186.167,130.833 186.5,129.5C 187.167,128.833 187.833,128.167 188.5,127.5C 189.33,119.01 189.83,110.343 190,101.5C 191.039,100.756 191.539,99.7562 191.5,98.5C 201.319,97.506 211.319,97.1726 221.5,97.5 Z"/></g>
<g><path style="opacity:1" fill="#fead7b" d="M 191.5,98.5 C 191.539,99.7562 191.039,100.756 190,101.5C 189.83,110.343 189.33,119.01 188.5,127.5C 188.334,118.494 188.5,109.494 189,100.5C 189.708,99.6195 190.542,98.9528 191.5,98.5 Z"/></g>
<g><path style="opacity:1" fill="#967f93" d="M 225.5,107.5 C 234.917,107.195 244.25,107.528 253.5,108.5C 253.5,108.833 253.5,109.167 253.5,109.5C 244.5,109.5 235.5,109.5 226.5,109.5C 226.167,109.5 225.833,109.5 225.5,109.5C 225.5,108.833 225.5,108.167 225.5,107.5 Z"/></g>
<g><path style="opacity:1" fill="#ab6776" d="M 253.5,109.5 C 253.5,109.167 253.5,108.833 253.5,108.5C 255.989,108.241 257.656,109.241 258.5,111.5C 257.391,111.443 256.391,111.11 255.5,110.5C 255.158,109.662 254.492,109.328 253.5,109.5 Z"/></g>
<g><path style="opacity:1" fill="#f6e4b8" d="M 205.5,101.5 C 206.552,101.351 207.552,101.517 208.5,102C 211.684,109.362 214.684,116.862 217.5,124.5C 217.167,125.5 216.833,126.5 216.5,127.5C 214.022,126.278 213.022,124.278 213.5,121.5C 209.5,121.5 205.5,121.5 201.5,121.5C 201.703,123.39 201.037,124.89 199.5,126C 198.517,126.591 197.85,126.257 197.5,125C 200.604,117.305 203.271,109.472 205.5,101.5 Z"/></g>
<g><path style="opacity:1" fill="#f8c166" d="M 205.5,108.5 C 206.822,108.33 207.989,108.663 209,109.5C 209.287,111.891 209.787,114.224 210.5,116.5C 208.257,117.474 205.924,117.808 203.5,117.5C 204.461,114.574 205.127,111.574 205.5,108.5 Z"/></g>
<g><path style="opacity:1" fill="#73889b" d="M 258.5,111.5 C 259.313,113.261 260.313,114.928 261.5,116.5C 261.5,126.5 261.5,136.5 261.5,146.5C 260.833,146.5 260.167,146.5 259.5,146.5C 259.746,134.803 259.413,123.136 258.5,111.5 Z"/></g>
<g><path style="opacity:1" fill="#e3767b" d="M 373.5,114.5 C 375.39,114.297 376.89,114.963 378,116.5C 377.576,215.993 376.742,315.326 375.5,414.5C 375.296,350.829 375.629,287.162 376.5,223.5C 376.833,187.827 376.5,152.16 375.5,116.5C 374.702,118.078 374.202,119.744 374,121.5C 373.667,128.833 373.333,136.167 373,143.5C 372.832,170.336 372.332,197.003 371.5,223.5C 370.84,186.818 371.506,150.485 373.5,114.5 Z"/></g>
<g><path style="opacity:1" fill="#5d9e97" d="M 225.5,109.5 C 225.833,109.5 226.167,109.5 226.5,109.5C 226.666,115.842 226.5,122.175 226,128.5C 225.044,129.579 224.211,130.745 223.5,132C 214.833,132.333 206.167,132.667 197.5,133C 196.022,135.039 194.022,135.872 191.5,135.5C 192.903,134.069 194.569,132.902 196.5,132C 205.167,131.667 213.833,131.333 222.5,131C 223.211,129.745 224.044,128.579 225,127.5C 225.499,121.509 225.666,115.509 225.5,109.5 Z"/></g>
<g><path style="opacity:1" fill="#2894af" d="M 226.5,109.5 C 235.5,109.5 244.5,109.5 253.5,109.5C 254.492,109.328 255.158,109.662 255.5,110.5C 247.5,110.5 239.5,110.5 231.5,110.5C 231.5,116.167 231.5,121.833 231.5,127.5C 238.167,127.5 244.833,127.5 251.5,127.5C 251.5,128.5 251.5,129.5 251.5,130.5C 244.492,130.334 237.492,130.5 230.5,131C 229.944,133.237 228.944,135.237 227.5,137C 235.493,137.5 243.493,137.666 251.5,137.5C 251.5,138.5 251.5,139.5 251.5,140.5C 234.833,140.5 218.167,140.5 201.5,140.5C 201.719,139.325 201.386,138.325 200.5,137.5C 197.724,138.089 195.39,139.422 193.5,141.5C 192.503,148.134 192.17,154.8 192.5,161.5C 193.5,161.5 194.5,161.5 195.5,161.5C 195.608,163.514 194.942,165.18 193.5,166.5C 192.542,166.047 191.708,165.381 191,164.5C 190.5,155.173 190.334,145.839 190.5,136.5C 190.5,135.833 190.833,135.5 191.5,135.5C 194.022,135.872 196.022,135.039 197.5,133C 206.167,132.667 214.833,132.333 223.5,132C 224.211,130.745 225.044,129.579 226,128.5C 226.5,122.175 226.666,115.842 226.5,109.5 Z"/></g>
<g><path style="opacity:1" fill="#fdab7b" d="M 185.5,133.5 C 185.5,134.5 185.5,135.5 185.5,136.5C 186.833,136.5 188.167,136.5 189.5,136.5C 189.5,137.167 189.167,137.5 188.5,137.5C 180.153,142.149 179.153,140.816 185.5,133.5 Z"/></g>
<g><path style="opacity:1" fill="#25a4ba" d="M 255.5,110.5 C 256.391,111.11 257.391,111.443 258.5,111.5C 259.413,123.136 259.746,134.803 259.5,146.5C 255.486,146.334 251.486,146.501 247.5,147C 246,148.5 244.5,150 243,151.5C 241.584,157.715 241.084,164.048 241.5,170.5C 226.83,170.667 212.163,170.5 197.5,170C 195.676,169.34 194.343,168.173 193.5,166.5C 194.942,165.18 195.608,163.514 195.5,161.5C 194.5,161.5 193.5,161.5 192.5,161.5C 192.17,154.8 192.503,148.134 193.5,141.5C 195.39,139.422 197.724,138.089 200.5,137.5C 201.386,138.325 201.719,139.325 201.5,140.5C 218.167,140.5 234.833,140.5 251.5,140.5C 251.5,139.5 251.5,138.5 251.5,137.5C 243.493,137.666 235.493,137.5 227.5,137C 228.944,135.237 229.944,133.237 230.5,131C 237.492,130.5 244.492,130.334 251.5,130.5C 251.5,129.5 251.5,128.5 251.5,127.5C 244.833,127.5 238.167,127.5 231.5,127.5C 231.5,121.833 231.5,116.167 231.5,110.5C 239.5,110.5 247.5,110.5 255.5,110.5 Z"/></g>
<g><path style="opacity:1" fill="#c16179" d="M 189.5,136.5 C 189.833,136.5 190.167,136.5 190.5,136.5C 190.334,145.839 190.5,155.173 191,164.5C 191.708,165.381 192.542,166.047 193.5,166.5C 194.343,168.173 195.676,169.34 197.5,170C 212.163,170.5 226.83,170.667 241.5,170.5C 242.494,180.319 242.827,190.319 242.5,200.5C 241.506,191.014 241.173,181.348 241.5,171.5C 227.5,171.5 213.5,171.5 199.5,171.5C 197.5,171.5 195.5,171.5 193.5,171.5C 192.273,168.418 190.773,165.418 189,162.5C 188.5,154.173 188.334,145.84 188.5,137.5C 189.167,137.5 189.5,137.167 189.5,136.5 Z"/></g>
<g><path style="opacity:1" fill="#cf4f65" d="M 303.5,86.5 C 319.833,86.5 336.167,86.5 352.5,86.5C 353.167,86.5 353.5,86.8333 353.5,87.5C 353.5,169.833 353.5,252.167 353.5,334.5C 353.167,334.5 352.833,334.5 352.5,334.5C 352.667,252.499 352.5,170.499 352,88.5C 335.735,87.8402 319.569,87.1736 303.5,86.5 Z"/></g>
<g><path style="opacity:1" fill="#bf4f68" d="M 261.5,116.5 C 262.494,125.986 262.827,135.652 262.5,145.5C 276.171,145.333 289.837,145.5 303.5,146C 304.381,146.708 305.047,147.542 305.5,148.5C 303.821,148.108 302.154,147.608 300.5,147C 287.504,146.5 274.504,146.333 261.5,146.5C 261.5,136.5 261.5,126.5 261.5,116.5 Z"/></g>
<g><path style="opacity:1" fill="#9c1c29" d="M 124.5,143.5 C 125.5,143.5 126.5,143.5 127.5,143.5C 127.588,148.536 128.088,153.536 129,158.5C 131.043,159.579 132.376,161.246 133,163.5C 135.49,174.134 139.823,183.801 146,192.5C 146.191,190.292 146.691,188.292 147.5,186.5C 147.231,190.931 147.564,195.265 148.5,199.5C 148.5,262.5 148.5,325.5 148.5,388.5C 148.5,388.833 148.5,389.167 148.5,389.5C 143.167,389.5 137.833,389.5 132.5,389.5C 129.5,389.5 126.5,389.5 123.5,389.5C 123.476,307.592 123.81,225.592 124.5,143.5 Z"/></g>
<g><path style="opacity:1" fill="#f6e5e7" d="M 261.5,146.5 C 274.504,146.333 287.504,146.5 300.5,147C 302.154,147.608 303.821,148.108 305.5,148.5C 306.167,149.5 306.833,150.5 307.5,151.5C 308.454,162.115 308.787,172.782 308.5,183.5C 298.319,183.173 288.319,183.506 278.5,184.5C 277.833,184.833 277.167,185.167 276.5,185.5C 276.414,184.504 276.748,183.671 277.5,183C 287.517,182.832 297.517,182.332 307.5,181.5C 307.137,180.817 306.804,180.15 306.5,179.5C 306.818,169.917 306.485,160.417 305.5,151C 304.328,150.581 303.328,149.915 302.5,149C 290.5,148.667 278.5,148.333 266.5,148C 264.618,147.802 262.952,147.302 261.5,146.5 Z"/></g>
<g><path style="opacity:1" fill="#d07989" d="M 307.5,151.5 C 308.117,151.611 308.617,151.944 309,152.5C 309.5,163.161 309.667,173.828 309.5,184.5C 309.167,184.5 308.833,184.5 308.5,184.5C 308.5,184.167 308.5,183.833 308.5,183.5C 308.787,172.782 308.454,162.115 307.5,151.5 Z"/></g>
<g><path style="opacity:1" fill="#cf4763" d="M 199.5,171.5 C 213.5,171.5 227.5,171.5 241.5,171.5C 241.173,181.348 241.506,191.014 242.5,200.5C 242.5,201.167 242.5,201.833 242.5,202.5C 241.883,202.389 241.383,202.056 241,201.5C 240.5,191.839 240.334,182.172 240.5,172.5C 226.656,172.829 212.99,172.496 199.5,171.5 Z"/></g>
<g><path style="opacity:1" fill="#e8f0f0" d="M 259.5,146.5 C 260.167,146.5 260.833,146.5 261.5,146.5C 262.952,147.302 264.618,147.802 266.5,148C 278.5,148.333 290.5,148.667 302.5,149C 303.328,149.915 304.328,150.581 305.5,151C 306.485,160.417 306.818,169.917 306.5,179.5C 295.495,179.667 284.495,179.5 273.5,179C 277.972,177.563 282.639,177.063 287.5,177.5C 287.5,176.5 287.5,175.5 287.5,174.5C 275.833,174.5 264.167,174.5 252.5,174.5C 252.682,176.591 252.348,178.591 251.5,180.5C 252.889,184.397 254.723,188.064 257,191.5C 258.669,189.831 259.502,187.831 259.5,185.5C 258.167,185.5 256.833,185.5 255.5,185.5C 255.5,183.5 255.5,181.5 255.5,179.5C 260.511,179.334 265.511,179.501 270.5,180C 269.5,180.333 268.5,180.667 267.5,181C 267.833,181.333 268.167,181.667 268.5,182C 267.033,183.098 266.199,184.598 266,186.5C 264.997,184.065 264.497,184.398 264.5,187.5C 266.234,193.71 266.901,200.044 266.5,206.5C 268.5,206.5 270.5,206.5 272.5,206.5C 272.334,200.158 272.5,193.825 273,187.5C 273.671,186.748 274.504,186.414 275.5,186.5C 275.013,187.473 274.513,188.473 274,189.5C 273.501,195.491 273.334,201.491 273.5,207.5C 264.833,207.5 256.167,207.5 247.5,207.5C 245.614,206.07 243.947,204.403 242.5,202.5C 242.5,201.833 242.5,201.167 242.5,200.5C 242.827,190.319 242.494,180.319 241.5,170.5C 241.084,164.048 241.584,157.715 243,151.5C 244.5,150 246,148.5 247.5,147C 251.486,146.501 255.486,146.334 259.5,146.5 Z"/></g>
<g><path style="opacity:1" fill="#d9eae8" d="M 306.5,179.5 C 306.804,180.15 307.137,180.817 307.5,181.5C 297.517,182.332 287.517,182.832 277.5,183C 276.748,183.671 276.414,184.504 276.5,185.5C 275.833,185.5 275.5,185.833 275.5,186.5C 274.504,186.414 273.671,186.748 273,187.5C 272.5,193.825 272.334,200.158 272.5,206.5C 270.5,206.5 268.5,206.5 266.5,206.5C 266.901,200.044 266.234,193.71 264.5,187.5C 264.497,184.398 264.997,184.065 266,186.5C 266.199,184.598 267.033,183.098 268.5,182C 268.167,181.667 267.833,181.333 267.5,181C 268.5,180.667 269.5,180.333 270.5,180C 265.511,179.501 260.511,179.334 255.5,179.5C 255.5,181.5 255.5,183.5 255.5,185.5C 256.833,185.5 258.167,185.5 259.5,185.5C 259.502,187.831 258.669,189.831 257,191.5C 254.723,188.064 252.889,184.397 251.5,180.5C 252.348,178.591 252.682,176.591 252.5,174.5C 264.167,174.5 275.833,174.5 287.5,174.5C 287.5,175.5 287.5,176.5 287.5,177.5C 282.639,177.063 277.972,177.563 273.5,179C 284.495,179.5 295.495,179.667 306.5,179.5 Z"/></g>
<g><path style="opacity:1" fill="#f5c2c3" d="M 278.5,184.5 C 288.319,183.506 298.319,183.173 308.5,183.5C 308.5,183.833 308.5,184.167 308.5,184.5C 308.5,185.167 308.167,185.5 307.5,185.5C 298.014,184.506 288.348,184.173 278.5,184.5 Z"/></g>
<g><path style="opacity:1" fill="#a04954" d="M 147.5,84.5 C 147.5,84.8333 147.5,85.1667 147.5,85.5C 139.5,85.5 131.5,85.5 123.5,85.5C 123.044,187.166 122.71,288.833 122.5,390.5C 121.503,288.666 121.503,186.666 122.5,84.5C 130.833,84.5 139.167,84.5 147.5,84.5 Z"/></g>
<g><path style="opacity:1" fill="#d06f73" d="M 278.5,184.5 C 288.348,184.173 298.014,184.506 307.5,185.5C 302.706,184.903 298.373,185.57 294.5,187.5C 292.744,188.552 292.077,190.219 292.5,192.5C 289.167,192.5 285.833,192.5 282.5,192.5C 284.948,191.527 287.615,191.194 290.5,191.5C 290.5,189.833 290.5,188.167 290.5,186.5C 285.833,186.5 281.167,186.5 276.5,186.5C 276.28,193.88 275.28,200.88 273.5,207.5C 273.334,201.491 273.501,195.491 274,189.5C 274.513,188.473 275.013,187.473 275.5,186.5C 275.5,185.833 275.833,185.5 276.5,185.5C 277.167,185.167 277.833,184.833 278.5,184.5 Z"/></g>
<g><path style="opacity:1" fill="#c72e43" d="M 148.5,199.5 C 162.872,224.562 178.039,249.229 194,273.5C 195.553,275.673 197.386,276.34 199.5,275.5C 199.5,276.167 199.5,276.833 199.5,277.5C 196.196,286.401 192.863,295.401 189.5,304.5C 193.5,305.833 197.5,305.833 201.5,304.5C 202.372,302.55 203.039,300.55 203.5,298.5C 203.433,297.041 203.766,295.708 204.5,294.5C 210.5,294.5 216.5,294.5 222.5,294.5C 222.5,295.5 222.5,296.5 222.5,297.5C 220.099,298.049 217.765,298.882 215.5,300C 243.5,333.171 274.5,363.004 308.5,389.5C 255.173,388.601 201.839,388.267 148.5,388.5C 148.5,325.5 148.5,262.5 148.5,199.5 Z"/></g>
<g><path style="opacity:1" fill="#e15e67" d="M 308.5,184.5 C 308.833,184.5 309.167,184.5 309.5,184.5C 309.709,185.922 310.209,187.255 311,188.5C 311.333,197.167 311.667,205.833 312,214.5C 313.833,218.167 315.667,221.833 317.5,225.5C 316.635,226.583 315.635,226.749 314.5,226C 303.229,219.145 290.895,216.479 277.5,218C 274.037,215.85 272.704,212.684 273.5,208.5C 264.651,208.826 255.984,208.493 247.5,207.5C 256.167,207.5 264.833,207.5 273.5,207.5C 275.28,200.88 276.28,193.88 276.5,186.5C 281.167,186.5 285.833,186.5 290.5,186.5C 290.5,188.167 290.5,189.833 290.5,191.5C 287.615,191.194 284.948,191.527 282.5,192.5C 281.89,193.391 281.557,194.391 281.5,195.5C 282.234,196.708 282.567,198.041 282.5,199.5C 283.833,199.5 285.167,199.5 286.5,199.5C 286.5,201.5 286.5,203.5 286.5,205.5C 283.795,205.38 283.128,206.38 284.5,208.5C 282.146,210.246 281.146,212.579 281.5,215.5C 282.791,215.737 283.791,215.404 284.5,214.5C 287.314,212.591 290.314,210.924 293.5,209.5C 296.13,210.815 298.797,212.149 301.5,213.5C 302.308,213.192 302.975,212.692 303.5,212C 300.308,210.906 297.642,209.073 295.5,206.5C 297.68,203.141 299.013,199.474 299.5,195.5C 301.604,195.799 303.604,195.466 305.5,194.5C 305.291,193.914 304.957,193.414 304.5,193C 301.183,192.502 297.85,192.335 294.5,192.5C 294.5,190.833 294.5,189.167 294.5,187.5C 298.373,185.57 302.706,184.903 307.5,185.5C 308.167,185.5 308.5,185.167 308.5,184.5 Z"/></g>
<g><path style="opacity:1" fill="#f8d6d5" d="M 294.5,187.5 C 294.5,189.167 294.5,190.833 294.5,192.5C 297.85,192.335 301.183,192.502 304.5,193C 304.957,193.414 305.291,193.914 305.5,194.5C 303.604,195.466 301.604,195.799 299.5,195.5C 299.013,199.474 297.68,203.141 295.5,206.5C 297.642,209.073 300.308,210.906 303.5,212C 302.975,212.692 302.308,213.192 301.5,213.5C 298.797,212.149 296.13,210.815 293.5,209.5C 290.314,210.924 287.314,212.591 284.5,214.5C 282.972,214.483 282.472,213.816 283,212.5C 286.275,211.114 289.109,209.114 291.5,206.5C 290.333,204.833 289.167,203.167 288,201.5C 287.219,200.056 287.386,198.723 288.5,197.5C 293.137,207.042 296.137,206.376 297.5,195.5C 292.167,195.5 286.833,195.5 281.5,195.5C 281.557,194.391 281.89,193.391 282.5,192.5C 285.833,192.5 289.167,192.5 292.5,192.5C 292.077,190.219 292.744,188.552 294.5,187.5 Z"/></g>
<g><path style="opacity:1" fill="#d6646b" d="M 281.5,195.5 C 286.833,195.5 292.167,195.5 297.5,195.5C 296.137,206.376 293.137,207.042 288.5,197.5C 287.386,198.723 287.219,200.056 288,201.5C 289.167,203.167 290.333,204.833 291.5,206.5C 289.109,209.114 286.275,211.114 283,212.5C 282.472,213.816 282.972,214.483 284.5,214.5C 283.791,215.404 282.791,215.737 281.5,215.5C 281.146,212.579 282.146,210.246 284.5,208.5C 283.128,206.38 283.795,205.38 286.5,205.5C 286.5,203.5 286.5,201.5 286.5,199.5C 285.167,199.5 283.833,199.5 282.5,199.5C 282.567,198.041 282.234,196.708 281.5,195.5 Z"/></g>
<g><path style="opacity:1" fill="#d4546c" d="M 226.5,268.5 C 225.883,268.389 225.383,268.056 225,267.5C 223.673,263.191 222.506,258.858 221.5,254.5C 216.833,254.5 212.167,254.5 207.5,254.5C 212.148,252.106 217.148,251.94 222.5,254C 224.069,258.776 225.402,263.609 226.5,268.5 Z"/></g>
<g><path style="opacity:1" fill="#db3f49" d="M 376.5,223.5 C 375.629,287.162 375.296,350.829 375.5,414.5C 375.5,414.833 375.5,415.167 375.5,415.5C 375.167,415.5 374.833,415.5 374.5,415.5C 374.333,360.166 374.5,304.832 375,249.5C 375.17,240.657 375.67,231.99 376.5,223.5 Z"/></g>
<g><path style="opacity:1" fill="#f6cecf" d="M 199.5,277.5 C 198.07,286.463 195.403,295.129 191.5,303.5C 194.5,304.833 197.5,304.833 200.5,303.5C 200.957,301.402 201.957,299.736 203.5,298.5C 203.039,300.55 202.372,302.55 201.5,304.5C 197.5,305.833 193.5,305.833 189.5,304.5C 192.863,295.401 196.196,286.401 199.5,277.5 Z"/></g>
<g><path style="opacity:1" fill="#ebdedf" d="M 207.5,254.5 C 212.167,254.5 216.833,254.5 221.5,254.5C 222.506,258.858 223.673,263.191 225,267.5C 225.383,268.056 225.883,268.389 226.5,268.5C 227.297,272.223 228.297,275.89 229.5,279.5C 229.363,284.124 230.696,288.124 233.5,291.5C 235.04,295.8 236.707,300.133 238.5,304.5C 234.555,305.491 230.555,305.824 226.5,305.5C 226.281,301.622 225.281,297.956 223.5,294.5C 217.012,293.183 210.678,293.183 204.5,294.5C 203.766,295.708 203.433,297.041 203.5,298.5C 201.957,299.736 200.957,301.402 200.5,303.5C 197.5,304.833 194.5,304.833 191.5,303.5C 195.403,295.129 198.07,286.463 199.5,277.5C 199.5,276.833 199.5,276.167 199.5,275.5C 202.139,268.597 204.805,261.597 207.5,254.5 Z"/></g>
<g><path style="opacity:1" fill="#d55971" d="M 212.5,268.5 C 211.624,273.132 210.957,277.799 210.5,282.5C 213.167,282.5 215.833,282.5 218.5,282.5C 217.833,278.833 217.167,275.167 216.5,271.5C 218.589,275.501 219.922,279.835 220.5,284.5C 216.5,284.5 212.5,284.5 208.5,284.5C 208.917,278.83 210.251,273.497 212.5,268.5 Z"/></g>
<g><path style="opacity:1" fill="#e33f5d" d="M 216.5,271.5 C 217.167,275.167 217.833,278.833 218.5,282.5C 215.833,282.5 213.167,282.5 210.5,282.5C 210.957,277.799 211.624,273.132 212.5,268.5C 212.892,266.821 213.392,265.154 214,263.5C 215.269,265.993 216.102,268.66 216.5,271.5 Z"/></g>
<g><path style="opacity:1" fill="#f4c0ca" d="M 229.5,279.5 C 231.411,283.233 232.744,287.233 233.5,291.5C 230.696,288.124 229.363,284.124 229.5,279.5 Z"/></g>
<g><path style="opacity:1" fill="#e6e3e1" d="M 268.5,298.5 C 279.833,298.5 291.167,298.5 302.5,298.5C 302.5,299.833 302.5,301.167 302.5,302.5C 300.955,303.23 300.122,304.563 300,306.5C 299.586,306.043 299.086,305.709 298.5,305.5C 296.178,308.472 294.844,311.805 294.5,315.5C 292.5,314.833 290.5,314.167 288.5,313.5C 289.776,310.664 290.442,307.664 290.5,304.5C 283.167,304.5 275.833,304.5 268.5,304.5C 268.5,302.5 268.5,300.5 268.5,298.5 Z"/></g>
<g><path style="opacity:1" fill="#fec9d4" d="M 266.5,297.5 C 278.833,297.5 291.167,297.5 303.5,297.5C 303.806,300.385 303.473,303.052 302.5,305.5C 302.5,304.5 302.5,303.5 302.5,302.5C 302.5,301.167 302.5,299.833 302.5,298.5C 291.167,298.5 279.833,298.5 268.5,298.5C 267.532,300.607 267.198,302.941 267.5,305.5C 275.019,305.175 282.352,305.508 289.5,306.5C 281.833,306.5 274.167,306.5 266.5,306.5C 266.5,303.5 266.5,300.5 266.5,297.5 Z"/></g>
<g><path style="opacity:1" fill="#d34965" d="M 266.5,297.5 C 266.5,300.5 266.5,303.5 266.5,306.5C 274.167,306.5 281.833,306.5 289.5,306.5C 287.237,311.365 284.237,315.698 280.5,319.5C 281.219,317.236 281.552,314.903 281.5,312.5C 282.5,312.5 283.5,312.5 284.5,312.5C 284.351,311.448 284.517,310.448 285,309.5C 285.654,310.696 286.154,310.696 286.5,309.5C 279.83,308.558 273.164,308.391 266.5,309C 264.955,307.178 264.288,305.011 264.5,302.5C 264.556,300.36 265.223,298.694 266.5,297.5 Z"/></g>
<g><path style="opacity:1" fill="#92202f" d="M 147.5,85.5 C 147.5,85.8333 147.5,86.1667 147.5,86.5C 139.833,86.5 132.167,86.5 124.5,86.5C 124.5,105.5 124.5,124.5 124.5,143.5C 123.81,225.592 123.476,307.592 123.5,389.5C 123.5,389.833 123.5,390.167 123.5,390.5C 123.167,390.5 122.833,390.5 122.5,390.5C 122.71,288.833 123.044,187.166 123.5,85.5C 131.5,85.5 139.5,85.5 147.5,85.5 Z"/></g>
<g><path style="opacity:1" fill="#fdd8da" d="M 372.5,113.5 C 373.167,113.5 373.5,113.833 373.5,114.5C 371.506,150.485 370.84,186.818 371.5,223.5C 370.302,271.329 369.635,319.329 369.5,367.5C 369.5,381.833 369.5,396.167 369.5,410.5C 352.833,410.5 336.167,410.5 319.5,410.5C 303.5,409.833 287.5,409.167 271.5,408.5C 303.74,408.829 335.907,408.496 368,407.5C 368.333,358.833 368.667,310.167 369,261.5C 369.593,211.828 370.76,162.495 372.5,113.5 Z"/></g>
<g><path style="opacity:1" fill="#e87d84" d="M 371.5,223.5 C 371.667,260.835 371.5,298.168 371,335.5C 370.83,346.341 370.33,357.008 369.5,367.5C 369.635,319.329 370.302,271.329 371.5,223.5 Z"/></g>
<g><path style="opacity:1" fill="#e9e0e0" d="M 268.5,298.5 C 268.5,300.5 268.5,302.5 268.5,304.5C 275.833,304.5 283.167,304.5 290.5,304.5C 290.442,307.664 289.776,310.664 288.5,313.5C 290.5,314.167 292.5,314.833 294.5,315.5C 294.844,311.805 296.178,308.472 298.5,305.5C 299.086,305.709 299.586,306.043 300,306.5C 300.122,304.563 300.955,303.23 302.5,302.5C 302.5,303.5 302.5,304.5 302.5,305.5C 296.599,313.623 290.932,321.956 285.5,330.5C 282.769,332.946 280.769,335.946 279.5,339.5C 286.982,340.492 294.648,340.825 302.5,340.5C 302.5,342.833 302.5,345.167 302.5,347.5C 290.5,347.5 278.5,347.5 266.5,347.5C 266.5,345.5 266.5,343.5 266.5,341.5C 271.167,334.167 275.833,326.833 280.5,319.5C 284.237,315.698 287.237,311.365 289.5,306.5C 282.352,305.508 275.019,305.175 267.5,305.5C 267.198,302.941 267.532,300.607 268.5,298.5 Z"/></g>
<g><path style="opacity:1" fill="#d35065" d="M 285.5,330.5 C 285.693,333.475 284.693,335.975 282.5,338C 289.883,338.799 297.217,338.632 304.5,337.5C 307.067,341.798 307.067,346.131 304.5,350.5C 292.039,349.852 279.705,349.185 267.5,348.5C 279.5,348.5 291.5,348.5 303.5,348.5C 303.5,345.5 303.5,342.5 303.5,339.5C 295.5,339.5 287.5,339.5 279.5,339.5C 280.769,335.946 282.769,332.946 285.5,330.5 Z"/></g>
<g><path style="opacity:1" fill="#feced5" d="M 279.5,339.5 C 287.5,339.5 295.5,339.5 303.5,339.5C 303.5,342.5 303.5,345.5 303.5,348.5C 291.5,348.5 279.5,348.5 267.5,348.5C 266.275,347.848 265.608,346.681 265.5,345C 265.514,343.615 265.848,342.449 266.5,341.5C 266.5,343.5 266.5,345.5 266.5,347.5C 278.5,347.5 290.5,347.5 302.5,347.5C 302.5,345.167 302.5,342.833 302.5,340.5C 294.648,340.825 286.982,340.492 279.5,339.5 Z"/></g>
<g><path style="opacity:1" fill="#ea3844" d="M 376.5,223.5 C 375.67,231.99 375.17,240.657 375,249.5C 374.5,304.832 374.333,360.166 374.5,415.5C 354.5,415.5 334.5,415.5 314.5,415.5C 307.167,415.5 299.833,415.5 292.5,415.5C 285.679,414.671 278.679,414.171 271.5,414C 249.503,413.5 227.503,413.333 205.5,413.5C 200.833,413.5 196.167,413.5 191.5,413.5C 176.975,411.186 162.309,409.853 147.5,409.5C 164.821,408.5 182.154,408.167 199.5,408.5C 239.478,410.214 279.478,410.881 319.5,410.5C 336.167,410.5 352.833,410.5 369.5,410.5C 369.5,396.167 369.5,381.833 369.5,367.5C 370.33,357.008 370.83,346.341 371,335.5C 371.5,298.168 371.667,260.835 371.5,223.5C 372.332,197.003 372.832,170.336 373,143.5C 373.333,136.167 373.667,128.833 374,121.5C 374.202,119.744 374.702,118.078 375.5,116.5C 376.5,152.16 376.833,187.827 376.5,223.5 Z"/></g>
<g><path style="opacity:1" fill="#e98595" d="M 352.5,334.5 C 352.833,334.5 353.167,334.5 353.5,334.5C 353.5,353.5 353.5,372.5 353.5,391.5C 320.5,391.5 287.5,391.5 254.5,391.5C 254.5,391.167 254.5,390.833 254.5,390.5C 272.833,390.5 291.167,390.5 309.5,390.5C 323.833,390.5 338.167,390.5 352.5,390.5C 352.5,371.833 352.5,353.167 352.5,334.5 Z"/></g>
<g><path style="opacity:1" fill="#b23a4c" d="M 148.5,389.5 C 148.5,389.167 148.5,388.833 148.5,388.5C 201.839,388.267 255.173,388.601 308.5,389.5C 309.167,389.5 309.5,389.833 309.5,390.5C 291.167,390.5 272.833,390.5 254.5,390.5C 233.5,390.5 212.5,390.5 191.5,390.5C 177.343,389.504 163.01,389.171 148.5,389.5 Z"/></g>
<g><path style="opacity:1" fill="#db9aa2" d="M 132.5,389.5 C 137.833,389.5 143.167,389.5 148.5,389.5C 163.01,389.171 177.343,389.504 191.5,390.5C 171.993,390.17 152.659,390.503 133.5,391.5C 133.167,391.5 132.833,391.5 132.5,391.5C 132.5,390.833 132.5,390.167 132.5,389.5 Z"/></g>
<g><path style="opacity:1" fill="#fcdddf" d="M 191.5,390.5 C 212.5,390.5 233.5,390.5 254.5,390.5C 254.5,390.833 254.5,391.167 254.5,391.5C 216.165,391.333 177.832,391.5 139.5,392C 138.978,392.561 138.645,393.228 138.5,394C 140.576,395.244 141.576,397.077 141.5,399.5C 139.167,397.5 136.833,395.5 134.5,393.5C 134.167,392.833 133.833,392.167 133.5,391.5C 152.659,390.503 171.993,390.17 191.5,390.5 Z"/></g>
<g><path style="opacity:1" fill="#db434f" d="M 123.5,389.5 C 126.5,389.5 129.5,389.5 132.5,389.5C 132.5,390.167 132.5,390.833 132.5,391.5C 131.167,391.5 129.833,391.5 128.5,391.5C 128.351,392.552 128.517,393.552 129,394.5C 131.782,396.771 133.949,399.437 135.5,402.5C 131.167,398.833 127.167,394.833 123.5,390.5C 123.5,390.167 123.5,389.833 123.5,389.5 Z"/></g>
<g><path style="opacity:1" fill="#eb3740" d="M 132.5,391.5 C 132.833,391.5 133.167,391.5 133.5,391.5C 133.833,392.167 134.167,392.833 134.5,393.5C 135.373,395.886 136.873,397.886 139,399.5C 139.483,400.448 139.649,401.448 139.5,402.5C 138.167,402.5 136.833,402.5 135.5,402.5C 133.949,399.437 131.782,396.771 129,394.5C 128.517,393.552 128.351,392.552 128.5,391.5C 129.833,391.5 131.167,391.5 132.5,391.5 Z"/></g>
<g><path style="opacity:1" fill="#fbced0" d="M 145.5,403.5 C 146.922,403.709 148.255,404.209 149.5,405C 189.997,406.107 230.33,407.274 270.5,408.5C 246.828,408.493 223.161,408.159 199.5,407.5C 182.497,407.667 165.497,407.5 148.5,407C 147.29,405.961 146.29,404.794 145.5,403.5 Z"/></g>
<g><path style="opacity:1" fill="#da545b" d="M 199.5,408.5 C 199.5,408.167 199.5,407.833 199.5,407.5C 223.161,408.159 246.828,408.493 270.5,408.5C 270.833,408.5 271.167,408.5 271.5,408.5C 287.5,409.167 303.5,409.833 319.5,410.5C 279.478,410.881 239.478,410.214 199.5,408.5 Z"/></g>
<g><path style="opacity:1" fill="#e0454e" d="M 134.5,393.5 C 136.833,395.5 139.167,397.5 141.5,399.5C 142.5,401.167 143.833,402.5 145.5,403.5C 146.29,404.794 147.29,405.961 148.5,407C 165.497,407.5 182.497,407.667 199.5,407.5C 199.5,407.833 199.5,408.167 199.5,408.5C 182.154,408.167 164.821,408.5 147.5,409.5C 162.309,409.853 176.975,411.186 191.5,413.5C 175.803,413.819 160.136,413.319 144.5,412C 141.296,408.964 138.296,405.797 135.5,402.5C 136.833,402.5 138.167,402.5 139.5,402.5C 139.649,401.448 139.483,400.448 139,399.5C 136.873,397.886 135.373,395.886 134.5,393.5 Z"/></g>
<g><path style="opacity:0.89" fill="#d86569" d="M 205.5,413.5 C 227.503,413.333 249.503,413.5 271.5,414C 278.679,414.171 285.679,414.671 292.5,415.5C 263.333,415.071 234.333,414.405 205.5,413.5 Z"/></g>
<g><path style="opacity:0.916" fill="#d7666d" d="M 314.5,415.5 C 334.5,415.5 354.5,415.5 374.5,415.5C 374.833,415.5 375.167,415.5 375.5,415.5C 374.688,416.993 373.355,417.66 371.5,417.5C 352.346,416.87 333.346,416.203 314.5,415.5 Z"/></g>
</svg>
