<?xml version="1.0" encoding="UTF-8"?>
<!DOCTYPE svg PUBLIC "-//W3C//DTD SVG 1.1//EN" "http://www.w3.org/Graphics/SVG/1.1/DTD/svg11.dtd">
<svg xmlns="http://www.w3.org/2000/svg" version="1.1" width="500px" height="500px" style="shape-rendering:geometricPrecision; text-rendering:geometricPrecision; image-rendering:optimizeQuality; fill-rule:evenodd; clip-rule:evenodd" xmlns:xlink="http://www.w3.org/1999/xlink">
<g><path style="opacity:1" fill="#181818" d="M 447.5,109.5 C 449.988,121.335 451.488,133.335 452,145.5C 452.667,164.5 452.667,183.5 452,202.5C 451.976,213.335 450.643,224.002 448,234.5C 443.357,249.817 433.19,258.65 417.5,261C 391.573,263.698 365.573,265.032 339.5,265C 315.445,278.021 291.779,291.521 268.5,305.5C 267.833,305.5 267.5,305.833 267.5,306.5C 260.899,309.468 254.566,312.968 248.5,317C 244.333,318.167 242.833,316.667 244,312.5C 261.028,297.635 277.861,282.635 294.5,267.5C 296.027,267.573 297.027,266.906 297.5,265.5C 298.289,265.217 298.956,264.717 299.5,264C 275.836,263.5 252.169,263.333 228.5,263.5C 227.167,263.5 225.833,263.5 224.5,263.5C 215.737,261.241 209.57,255.908 206,247.5C 201.392,230.158 199.059,212.491 199,194.5C 197.946,171.773 198.612,149.106 201,126.5C 203.735,113.846 209.902,103.346 219.5,95C 222.382,93.3921 225.382,92.0587 228.5,91C 292.839,90.2207 357.173,90.5541 421.5,92C 430.368,92.6855 437.868,96.1855 444,102.5C 445.705,104.577 446.872,106.91 447.5,109.5 Z M 300.5,270.5 C 302.749,274.115 305.749,275.782 309.5,275.5C 297.966,282.1 286.299,288.433 274.5,294.5C 282.84,286.16 291.507,278.16 300.5,270.5 Z"/></g>
<g><path style="opacity:0.998" fill="#fdfdfd" d="M 311.5,274.5 C 311.565,274.062 311.399,273.728 311,273.5C 310.722,274.416 310.222,275.082 309.5,275.5C 305.749,275.782 302.749,274.115 300.5,270.5C 302.834,267.334 305.667,264.667 309,262.5C 309.507,261.004 309.007,259.837 307.5,259C 279.833,258.667 252.167,258.333 224.5,258C 214.431,253.061 208.931,244.894 208,233.5C 204.23,198.889 203.563,164.223 206,129.5C 208.1,114.763 215.6,103.93 228.5,97C 291.833,96.3333 355.167,96.3333 418.5,97C 424.905,97.8017 430.905,99.8017 436.5,103C 439.531,105.559 441.698,108.726 443,112.5C 444.599,122.093 445.599,131.76 446,141.5C 446.838,168.85 446.505,196.184 445,223.5C 442.934,243.232 432.101,254.399 412.5,257C 387.512,258.216 362.512,259.216 337.5,260C 328.967,265.099 320.301,269.932 311.5,274.5 Z"/></g>
<g><path style="opacity:1" fill="#43331c" d="M 329.5,114.5 C 331.199,114.34 332.866,114.506 334.5,115C 335.738,115.69 335.738,116.19 334.5,116.5C 332.131,116.851 329.797,117.018 327.5,117C 328.381,116.292 329.047,115.458 329.5,114.5 Z"/></g>
<g><path style="opacity:1" fill="#584626" d="M 325.5,110.5 C 326.629,112.628 326.796,114.961 326,117.5C 324.534,115.675 322.701,115.175 320.5,116C 321.5,116.833 322.5,117.667 323.5,118.5C 323.043,119.298 322.376,119.631 321.5,119.5C 316.079,116.275 316.746,114.442 323.5,114C 324.305,112.887 324.972,111.721 325.5,110.5 Z"/></g>
<g><path style="opacity:0.998" fill="#8a8a8a" d="M 447.5,109.5 C 450.324,111.8 452.157,114.8 453,118.5C 456.288,149.748 457.288,181.082 456,212.5C 455.788,222.653 454.454,232.653 452,242.5C 447.08,255.869 437.58,263.369 423.5,265C 397.571,267.548 371.571,268.881 345.5,269C 315,286.167 284.5,303.333 254,320.5C 253.833,320.167 253.667,319.833 253.5,319.5C 258.213,315.117 262.88,310.783 267.5,306.5C 268.167,306.5 268.5,306.167 268.5,305.5C 291.779,291.521 315.445,278.021 339.5,265C 365.573,265.032 391.573,263.698 417.5,261C 433.19,258.65 443.357,249.817 448,234.5C 450.643,224.002 451.976,213.335 452,202.5C 452.667,183.5 452.667,164.5 452,145.5C 451.488,133.335 449.988,121.335 447.5,109.5 Z"/></g>
<g><path style="opacity:1" fill="#b4993d" d="M 329.5,114.5 C 329.047,115.458 328.381,116.292 327.5,117C 329.797,117.018 332.131,116.851 334.5,116.5C 333.833,117.833 332.833,118.833 331.5,119.5C 330.127,119.343 328.793,119.51 327.5,120C 328.823,120.816 329.489,121.983 329.5,123.5C 328.833,123.5 328.167,123.5 327.5,123.5C 327.167,123.5 326.833,123.5 326.5,123.5C 326.657,122.127 326.49,120.793 326,119.5C 324.426,120.984 323.093,122.651 322,124.5C 321.601,124.272 321.435,123.938 321.5,123.5C 321.5,122.167 321.5,120.833 321.5,119.5C 322.376,119.631 323.043,119.298 323.5,118.5C 322.5,117.667 321.5,116.833 320.5,116C 322.701,115.175 324.534,115.675 326,117.5C 326.796,114.961 326.629,112.628 325.5,110.5C 325.369,109.624 325.702,108.957 326.5,108.5C 327.883,110.32 328.883,112.32 329.5,114.5 Z"/></g>
<g><path style="opacity:1" fill="#332810" d="M 331.5,119.5 C 331.5,120.833 331.5,122.167 331.5,123.5C 331.062,124.506 330.396,124.506 329.5,123.5C 329.489,121.983 328.823,120.816 327.5,120C 328.793,119.51 330.127,119.343 331.5,119.5 Z"/></g>
<g><path style="opacity:1" fill="#3c3416" d="M 326.5,123.5 C 324.574,124.242 322.741,125.242 321,126.5C 320.26,125.251 320.427,124.251 321.5,123.5C 321.435,123.938 321.601,124.272 322,124.5C 323.093,122.651 324.426,120.984 326,119.5C 326.49,120.793 326.657,122.127 326.5,123.5 Z"/></g>
<g><path style="opacity:1" fill="#9c9574" d="M 327.5,123.5 C 328.167,123.5 328.833,123.5 329.5,123.5C 330.396,124.506 331.062,124.506 331.5,123.5C 332.776,124.386 332.776,125.386 331.5,126.5C 330.099,125.479 328.765,124.479 327.5,123.5 Z"/></g>
<g><path style="opacity:1" fill="#5c4b18" d="M 341.5,129.5 C 340.835,131.369 340.169,133.369 339.5,135.5C 338.478,135.145 337.811,134.478 337.5,133.5C 338.045,131.407 338.878,129.407 340,127.5C 340.717,128.044 341.217,128.711 341.5,129.5 Z"/></g>
<g><path style="opacity:1" fill="#372b0c" d="M 311.5,129.5 C 312.622,131.288 312.789,133.288 312,135.5C 310.961,134.756 310.461,133.756 310.5,132.5C 310.557,131.391 310.89,130.391 311.5,129.5 Z"/></g>
<g><path style="opacity:1" fill="#b89e4a" d="M 315.5,133.5 C 315.047,134.458 314.381,135.292 313.5,136C 315.679,135.716 317.679,135.883 319.5,136.5C 319.167,137.5 318.5,138.167 317.5,138.5C 316.325,138.281 315.325,138.614 314.5,139.5C 315.193,140.518 315.859,141.518 316.5,142.5C 316.5,143.167 316.167,143.5 315.5,143.5C 314.391,143.443 313.391,143.11 312.5,142.5C 312.657,141.127 312.49,139.793 312,138.5C 310.907,140.349 309.574,142.016 308,143.5C 307.601,143.272 307.435,142.938 307.5,142.5C 307.5,141.167 307.5,139.833 307.5,138.5C 312.749,137.369 312.582,136.369 307,135.5C 306.235,135.57 305.735,135.903 305.5,136.5C 304.522,136.189 303.855,135.522 303.5,134.5C 305.843,133.725 308.177,133.058 310.5,132.5C 310.461,133.756 310.961,134.756 312,135.5C 312.789,133.288 312.622,131.288 311.5,129.5C 311.783,128.711 312.283,128.044 313,127.5C 314.122,129.407 314.955,131.407 315.5,133.5 Z"/></g>
<g><path style="opacity:1" fill="#4b3b20" d="M 315.5,133.5 C 317.604,133.201 319.604,133.534 321.5,134.5C 321.145,135.522 320.478,136.189 319.5,136.5C 317.679,135.883 315.679,135.716 313.5,136C 314.381,135.292 315.047,134.458 315.5,133.5 Z"/></g>
<g><path style="opacity:1" fill="#362508" d="M 305.5,136.5 C 305.735,135.903 306.235,135.57 307,135.5C 312.582,136.369 312.749,137.369 307.5,138.5C 307.167,137.5 306.5,136.833 305.5,136.5 Z"/></g>
<g><path style="opacity:1" fill="#3f2d14" d="M 331.5,134.5 C 333.812,135.32 336.146,136.153 338.5,137C 337.756,138.039 336.756,138.539 335.5,138.5C 333.833,137.5 332.5,136.167 331.5,134.5 Z"/></g>
<g><path style="opacity:1" fill="#ae9543" d="M 341.5,129.5 C 342.167,130.833 342.833,132.167 343.5,133.5C 342.733,134.172 342.066,135.005 341.5,136C 343.169,136.122 344.835,135.788 346.5,135C 345.584,134.722 344.918,134.222 344.5,133.5C 346.288,133.215 347.955,133.548 349.5,134.5C 348.143,136.186 346.81,137.852 345.5,139.5C 344.262,138.588 342.928,138.421 341.5,139C 343.16,140.488 344.16,142.321 344.5,144.5C 342.833,143.833 341.167,143.167 339.5,142.5C 339.29,139.03 338.123,139.03 336,142.5C 335.601,142.272 335.435,141.938 335.5,141.5C 335.5,140.5 335.5,139.5 335.5,138.5C 336.756,138.539 337.756,138.039 338.5,137C 336.146,136.153 333.812,135.32 331.5,134.5C 333.265,133.539 335.265,133.205 337.5,133.5C 337.811,134.478 338.478,135.145 339.5,135.5C 340.169,133.369 340.835,131.369 341.5,129.5 Z"/></g>
<g><path style="opacity:1" fill="#312707" d="M 343.5,133.5 C 343.833,133.5 344.167,133.5 344.5,133.5C 344.918,134.222 345.584,134.722 346.5,135C 344.835,135.788 343.169,136.122 341.5,136C 342.066,135.005 342.733,134.172 343.5,133.5 Z"/></g>
<g><path style="opacity:1" fill="#2e1d03" d="M 317.5,138.5 C 317.5,139.167 317.5,139.833 317.5,140.5C 317.672,141.492 317.338,142.158 316.5,142.5C 315.859,141.518 315.193,140.518 314.5,139.5C 315.325,138.614 316.325,138.281 317.5,138.5 Z"/></g>
<g><path style="opacity:1" fill="#42361e" d="M 339.5,142.5 C 337.771,143.117 336.271,144.117 335,145.5C 334.235,143.934 334.402,142.601 335.5,141.5C 335.435,141.938 335.601,142.272 336,142.5C 338.123,139.03 339.29,139.03 339.5,142.5 Z"/></g>
<g><path style="opacity:1" fill="#44311b" d="M 345.5,139.5 C 345.784,141.415 345.451,143.081 344.5,144.5C 344.16,142.321 343.16,140.488 341.5,139C 342.928,138.421 344.262,138.588 345.5,139.5 Z"/></g>
<g><path style="opacity:1" fill="#4c3a29" d="M 312.5,142.5 C 310.614,143.361 308.78,144.361 307,145.5C 306.26,144.251 306.427,143.251 307.5,142.5C 307.435,142.938 307.601,143.272 308,143.5C 309.574,142.016 310.907,140.349 312,138.5C 312.49,139.793 312.657,141.127 312.5,142.5 Z"/></g>
<g><path style="opacity:1" fill="#80715d" d="M 317.5,140.5 C 318.613,141.946 318.78,143.613 318,145.5C 317.005,144.934 316.172,144.267 315.5,143.5C 316.167,143.5 316.5,143.167 316.5,142.5C 317.338,142.158 317.672,141.492 317.5,140.5 Z"/></g>
<g><path style="opacity:1" fill="#f6c40f" d="M 104.5,149.5 C 106.833,149.5 109.167,149.5 111.5,149.5C 111.759,158.347 112.426,167.014 113.5,175.5C 113.5,180.833 113.5,186.167 113.5,191.5C 113.666,201.172 113.5,210.839 113,220.5C 112.29,221.973 111.124,222.64 109.5,222.5C 109.5,223.5 109.5,224.5 109.5,225.5C 107.076,225.192 104.743,225.526 102.5,226.5C 103.943,231.473 103.11,231.806 100,227.5C 98.3851,229.011 98.3851,230.344 100,231.5C 100.406,235.34 100.239,239.173 99.5,243C 99.5687,244.986 100.235,246.486 101.5,247.5C 115.096,277.36 130.263,306.36 147,334.5C 149.729,337.399 152.562,340.066 155.5,342.5C 155.611,343.117 155.944,343.617 156.5,344C 162.876,344.725 169.043,343.891 175,341.5C 176.533,341.773 178.033,342.106 179.5,342.5C 197.053,355.112 214.053,368.445 230.5,382.5C 230.67,383.822 230.337,384.989 229.5,386C 227.567,386.251 225.734,386.751 224,387.5C 223.517,388.448 223.351,389.448 223.5,390.5C 219.413,391.136 215.747,392.636 212.5,395C 208.5,395.333 204.5,395.667 200.5,396C 199.122,397.713 197.455,399.047 195.5,400C 188.563,401.288 181.563,401.788 174.5,401.5C 173.5,401.5 172.5,401.5 171.5,401.5C 171.047,400.542 170.381,399.708 169.5,399C 166.57,398.156 163.904,396.822 161.5,395C 158.883,394.178 156.216,393.678 153.5,393.5C 148.473,391.317 143.807,388.483 139.5,385C 132.329,378.996 125.662,372.496 119.5,365.5C 118.459,362.906 117.126,360.406 115.5,358C 117.994,356.225 117.66,354.725 114.5,353.5C 113.833,354.167 113.167,354.833 112.5,355.5C 111.671,352.72 110.671,350.054 109.5,347.5C 107.278,347.822 105.444,347.155 104,345.5C 103.688,342.691 104.188,340.024 105.5,337.5C 103.8,337.626 102.3,338.293 101,339.5C 99.8615,339.011 98.6948,338.678 97.5,338.5C 91.8077,330.795 86.4744,322.795 81.5,314.5C 81.41,312.304 81.0767,310.137 80.5,308C 77.6066,304.124 75.6066,299.791 74.5,295C 75.406,290.853 75.5726,286.686 75,282.5C 73.8372,284.285 73.1705,286.285 73,288.5C 69.682,283.45 68.182,277.783 68.5,271.5C 67.5,271.5 66.5,271.5 65.5,271.5C 65.5,271.167 65.5,270.833 65.5,270.5C 64.9058,264.183 64.4058,257.849 64,251.5C 63.3292,250.748 62.4959,250.414 61.5,250.5C 61.5,250.167 61.5,249.833 61.5,249.5C 59.5227,228.552 58.5227,207.552 58.5,186.5C 60.6418,183.2 61.9751,179.533 62.5,175.5C 65.6517,173.883 67.3184,171.216 67.5,167.5C 77.5285,156.987 89.8619,150.987 104.5,149.5 Z"/></g>
<g><path style="opacity:1" fill="#b69f65" d="M 299.5,158.5 C 299.103,159.525 298.437,159.692 297.5,159C 297.833,158.667 298.167,158.333 298.5,158C 297.333,157.5 296.5,156.667 296,155.5C 295.086,159.185 294.419,158.852 294,154.5C 293.667,154.833 293.333,155.167 293,155.5C 292.583,154.244 291.75,153.577 290.5,153.5C 290.811,152.522 291.478,151.855 292.5,151.5C 294.348,154.478 296.348,154.812 298.5,152.5C 299.466,154.396 299.799,156.396 299.5,158.5 Z"/></g>
<g><path style="opacity:0.712" fill="#f5dd85" d="M 131.5,151.5 C 127.5,150.833 123.5,150.167 119.5,149.5C 119.5,165.167 119.5,180.833 119.5,196.5C 118.504,180.675 118.17,164.675 118.5,148.5C 123.312,147.965 127.645,148.965 131.5,151.5 Z"/></g>
<g><path style="opacity:1" fill="#f6c312" d="M 131.5,151.5 C 134.855,152.855 137.189,155.189 138.5,158.5C 139.03,176.925 138.363,195.258 136.5,213.5C 134.021,217.58 130.354,219.913 125.5,220.5C 124.178,220.67 123.011,220.337 122,219.5C 121.055,212.702 120.222,206.035 119.5,199.5C 119.5,198.5 119.5,197.5 119.5,196.5C 119.5,180.833 119.5,165.167 119.5,149.5C 123.5,150.167 127.5,150.833 131.5,151.5 Z"/></g>
<g><path style="opacity:1" fill="#9e8329" d="M 365.5,153.5 C 364.778,153.918 364.278,154.584 364,155.5C 362.187,154.391 361.354,155.058 361.5,157.5C 362.5,157.5 363.5,157.5 364.5,157.5C 364.5,159.167 364.5,160.833 364.5,162.5C 365.552,162.351 366.552,162.517 367.5,163C 366.562,164.063 365.562,165.23 364.5,166.5C 365.002,167.716 365.335,168.883 365.5,170C 363.939,170.188 363.272,169.355 363.5,167.5C 361.712,167.215 360.045,167.548 358.5,168.5C 359.26,170.36 360.26,172.027 361.5,173.5C 360.504,173.586 359.671,173.252 359,172.5C 358,170.5 357,168.5 356,166.5C 353.698,169.18 352.532,172.347 352.5,176C 353.205,179.804 353.538,183.637 353.5,187.5C 352.71,186.391 352.21,185.058 352,183.5C 351.51,184.793 351.343,186.127 351.5,187.5C 348.911,187.461 346.911,188.461 345.5,190.5C 345.657,189.127 345.49,187.793 345,186.5C 344.617,187.056 344.117,187.389 343.5,187.5C 343.718,183.819 344.884,183.152 347,185.5C 348.011,184.663 349.178,184.33 350.5,184.5C 350.795,182.265 350.461,180.265 349.5,178.5C 349.737,177.209 349.404,176.209 348.5,175.5C 350.738,172.57 352.071,169.237 352.5,165.5C 353.363,166.463 354.03,166.463 354.5,165.5C 352.707,162.749 351.041,159.916 349.5,157C 346.635,156.817 343.969,156.317 341.5,155.5C 345.179,155.94 348.512,155.273 351.5,153.5C 352.492,151.974 353.992,151.307 356,151.5C 359.397,152.534 362.563,153.201 365.5,153.5 Z"/></g>
<g><path style="opacity:1" fill="#caa932" d="M 341.5,155.5 C 343.969,156.317 346.635,156.817 349.5,157C 351.041,159.916 352.707,162.749 354.5,165.5C 354.03,166.463 353.363,166.463 352.5,165.5C 349.17,167.863 346.17,171.196 343.5,175.5C 342.833,175.5 342.167,175.5 341.5,175.5C 343.728,171.388 346.228,167.388 349,163.5C 349.798,161.741 349.631,160.074 348.5,158.5C 344.922,163.32 341.588,168.32 338.5,173.5C 337.314,172.295 337.314,170.961 338.5,169.5C 340.219,165.732 342.219,162.065 344.5,158.5C 343.167,157.167 341.833,157.167 340.5,158.5C 339.688,160.945 338.688,163.278 337.5,165.5C 336.5,164.167 335.5,164.167 334.5,165.5C 335.349,162.965 336.349,160.465 337.5,158C 337.252,156.251 336.252,155.418 334.5,155.5C 333.5,155.5 332.5,155.5 331.5,155.5C 331.25,154.078 330.417,153.078 329,152.5C 328.505,154.473 328.338,156.473 328.5,158.5C 327.167,157.167 325.833,157.167 324.5,158.5C 324.662,156.473 324.495,154.473 324,152.5C 323.586,152.957 323.086,153.291 322.5,153.5C 321.795,156.089 321.795,158.756 322.5,161.5C 321.833,161.5 321.167,161.5 320.5,161.5C 319.518,159.594 318.518,157.594 317.5,155.5C 316.5,155.833 315.833,156.5 315.5,157.5C 316.172,159.53 316.838,161.53 317.5,163.5C 316.833,164.167 316.167,164.833 315.5,165.5C 313.94,163.046 312.94,160.38 312.5,157.5C 311.022,157.238 309.689,157.571 308.5,158.5C 310.766,162.034 312.766,165.7 314.5,169.5C 315.686,170.961 315.686,172.295 314.5,173.5C 311.159,168.495 307.826,163.495 304.5,158.5C 303.585,159.328 302.919,160.328 302.5,161.5C 306.525,167.185 310.525,172.851 314.5,178.5C 315.112,182.893 317.112,186.893 320.5,190.5C 320.124,192.803 319.124,193.137 317.5,191.5C 316.121,189.403 314.455,189.07 312.5,190.5C 311.167,189.833 310.167,188.833 309.5,187.5C 311.199,187.66 312.866,187.494 314.5,187C 310.898,183.559 306.898,180.725 302.5,178.5C 301.167,176.833 301.167,175.167 302.5,173.5C 305.13,175.628 307.63,177.961 310,180.5C 310.667,179.167 310.667,177.833 310,176.5C 307,172.5 304,168.5 301,164.5C 299.272,165.352 299.105,166.352 300.5,167.5C 300.5,168.167 300.167,168.5 299.5,168.5C 298.833,168.5 298.5,168.167 298.5,167.5C 299.809,164.207 301.142,160.874 302.5,157.5C 310.596,155.793 318.596,153.126 326.5,149.5C 331.404,151.787 336.404,153.787 341.5,155.5 Z"/></g>
<g><path style="opacity:1" fill="#342302" d="M 334.5,155.5 C 336.252,155.418 337.252,156.251 337.5,158C 336.349,160.465 335.349,162.965 334.5,165.5C 333.772,167.512 332.938,169.512 332,171.5C 331.13,170.892 330.63,170.059 330.5,169C 331.989,164.528 333.323,160.028 334.5,155.5 Z"/></g>
<g><path style="opacity:1" fill="#2f2002" d="M 331.5,155.5 C 331.162,157.854 330.662,160.187 330,162.5C 329.283,161.956 328.783,161.289 328.5,160.5C 328.5,159.833 328.5,159.167 328.5,158.5C 328.338,156.473 328.505,154.473 329,152.5C 330.417,153.078 331.25,154.078 331.5,155.5 Z"/></g>
<g><path style="opacity:1" fill="#301e00" d="M 324.5,158.5 C 324.768,160.099 324.434,161.432 323.5,162.5C 323.5,161.833 323.167,161.5 322.5,161.5C 321.795,158.756 321.795,156.089 322.5,153.5C 323.086,153.291 323.586,152.957 324,152.5C 324.495,154.473 324.662,156.473 324.5,158.5 Z"/></g>
<g><path style="opacity:1" fill="#745618" d="M 328.5,158.5 C 328.5,159.167 328.5,159.833 328.5,160.5C 327.85,160.196 327.183,159.863 326.5,159.5C 325.676,162.785 325.176,166.118 325,169.5C 324.71,167.08 324.21,164.746 323.5,162.5C 324.434,161.432 324.768,160.099 324.5,158.5C 325.833,157.167 327.167,157.167 328.5,158.5 Z"/></g>
<g><path style="opacity:1" fill="#e1b71f" d="M 351.5,153.5 C 356.008,151.282 359.008,152.448 360.5,157C 358.668,157.748 357.001,158.748 355.5,160C 357.5,159.667 359.5,159.333 361.5,159C 361.751,160.95 362.418,163.116 363.5,165.5C 357.612,166.982 353.945,164.648 352.5,158.5C 351.548,156.955 351.215,155.288 351.5,153.5 Z"/></g>
<g><path style="opacity:1" fill="#bc9e43" d="M 369.5,156.5 C 372.837,157.484 374.337,159.817 374,163.5C 374.691,161.109 375.691,161.109 377,163.5C 377.497,165.81 377.663,168.143 377.5,170.5C 378.791,170.263 379.791,170.596 380.5,171.5C 379.167,171.5 377.833,171.5 376.5,171.5C 376.5,169.167 376.5,166.833 376.5,164.5C 374.533,164.739 372.699,164.406 371,163.5C 371.019,165.107 371.185,166.774 371.5,168.5C 367.253,166.796 367.253,164.296 371.5,161C 370.733,159.53 370.067,158.03 369.5,156.5 Z"/></g>
<g><path style="opacity:1" fill="#362402" d="M 315.5,165.5 C 315.5,166.833 315.5,168.167 315.5,169.5C 315.167,169.5 314.833,169.5 314.5,169.5C 312.766,165.7 310.766,162.034 308.5,158.5C 309.689,157.571 311.022,157.238 312.5,157.5C 312.94,160.38 313.94,163.046 315.5,165.5 Z"/></g>
<g><path style="opacity:1" fill="#362202" d="M 338.5,169.5 C 338.167,169.5 337.833,169.5 337.5,169.5C 337.5,168.167 337.5,166.833 337.5,165.5C 338.688,163.278 339.688,160.945 340.5,158.5C 341.833,157.167 343.167,157.167 344.5,158.5C 342.219,162.065 340.219,165.732 338.5,169.5 Z"/></g>
<g><path style="opacity:1" fill="#937a2a" d="M 290.5,153.5 C 291.75,153.577 292.583,154.244 293,155.5C 293.333,155.167 293.667,154.833 294,154.5C 294.419,158.852 295.086,159.185 296,155.5C 296.5,156.667 297.333,157.5 298.5,158C 298.167,158.333 297.833,158.667 297.5,159C 298.437,159.692 299.103,159.525 299.5,158.5C 300.609,158.443 301.609,158.11 302.5,157.5C 301.142,160.874 299.809,164.207 298.5,167.5C 297.527,166.016 296.193,165.516 294.5,166C 295.337,167.011 295.67,168.178 295.5,169.5C 293.167,169.5 290.833,169.5 288.5,169.5C 287.411,167.149 288.078,165.149 290.5,163.5C 292.839,164.724 295.172,164.724 297.5,163.5C 296.224,162.355 294.891,162.355 293.5,163.5C 292.478,163.145 291.811,162.478 291.5,161.5C 290.71,160.391 290.21,159.058 290,157.5C 289.667,159.167 289.333,160.833 289,162.5C 288,162.167 287,161.833 286,161.5C 285,163.167 284,164.833 283,166.5C 282.552,164.776 281.718,164.109 280.5,164.5C 283.454,162.7 284.121,160.367 282.5,157.5C 284.837,155.604 287.504,154.27 290.5,153.5 Z"/></g>
<g><path style="opacity:1" fill="#eac637" d="M 291.5,161.5 C 291.231,159.571 291.731,157.905 293,156.5C 293.877,158.674 293.377,160.341 291.5,161.5 Z"/></g>
<g><path style="opacity:1" fill="#3d2804" d="M 320.5,161.5 C 320.222,164.29 320.889,166.79 322.5,169C 322.387,170.28 321.72,171.113 320.5,171.5C 319.686,169.234 319.186,166.9 319,164.5C 318.617,163.944 318.117,163.611 317.5,163.5C 316.838,161.53 316.172,159.53 315.5,157.5C 315.833,156.5 316.5,155.833 317.5,155.5C 318.518,157.594 319.518,159.594 320.5,161.5 Z"/></g>
<g><path style="opacity:1" fill="#312203" d="M 314.5,173.5 C 315.72,175.284 315.72,176.95 314.5,178.5C 310.525,172.851 306.525,167.185 302.5,161.5C 302.919,160.328 303.585,159.328 304.5,158.5C 307.826,163.495 311.159,168.495 314.5,173.5 Z"/></g>
<g><path style="opacity:1" fill="#312303" d="M 341.5,175.5 C 339.926,175.937 338.759,176.937 338,178.5C 337.36,176.735 337.527,175.068 338.5,173.5C 341.588,168.32 344.922,163.32 348.5,158.5C 349.631,160.074 349.798,161.741 349,163.5C 346.228,167.388 343.728,171.388 341.5,175.5 Z"/></g>
<g><path style="opacity:0.467" fill="#f7e17d" d="M 104.5,149.5 C 106.948,148.527 109.615,148.194 112.5,148.5C 113.107,157.487 113.44,166.487 113.5,175.5C 112.426,167.014 111.759,158.347 111.5,149.5C 109.167,149.5 106.833,149.5 104.5,149.5 Z"/></g>
<g><path style="opacity:1" fill="#312204" d="M 302.5,173.5 C 302.125,171.302 301.458,169.302 300.5,167.5C 299.105,166.352 299.272,165.352 301,164.5C 304,168.5 307,172.5 310,176.5C 310.667,177.833 310.667,179.167 310,180.5C 307.63,177.961 305.13,175.628 302.5,173.5 Z"/></g>
<g><path style="opacity:1" fill="#dbb730" d="M 380.5,171.5 C 381.167,171.5 381.5,171.833 381.5,172.5C 381.607,174.379 381.107,174.712 380,173.5C 377.852,177.614 376.518,177.281 376,172.5C 375.667,173.167 375.333,173.833 375,174.5C 372.097,172.36 371.931,170.193 374.5,168C 374.333,167.167 374.167,166.333 374,165.5C 373.667,166.833 373.333,168.167 373,169.5C 372.617,168.944 372.117,168.611 371.5,168.5C 371.185,166.774 371.019,165.107 371,163.5C 372.699,164.406 374.533,164.739 376.5,164.5C 376.5,166.833 376.5,169.167 376.5,171.5C 377.833,171.5 379.167,171.5 380.5,171.5 Z"/></g>
<g><path style="opacity:1" fill="#f9f8f2" d="M 298.5,167.5 C 298.5,168.167 298.833,168.5 299.5,168.5C 299.856,179.13 300.023,189.797 300,200.5C 301.343,204.51 303.509,208.01 306.5,211C 304.292,211.191 302.292,211.691 300.5,212.5C 298.973,212.427 297.973,213.094 297.5,214.5C 297.5,214.833 297.5,215.167 297.5,215.5C 295.997,215.835 294.664,215.835 293.5,215.5C 292.833,214.833 292.167,214.167 291.5,213.5C 290.738,211.738 289.404,210.738 287.5,210.5C 285.866,209.045 284.532,207.378 283.5,205.5C 283.142,202.311 282.475,199.311 281.5,196.5C 282.485,192.924 283.152,189.258 283.5,185.5C 284.974,184.564 285.974,183.23 286.5,181.5C 285.255,179.011 286.255,177.678 289.5,177.5C 292.307,177.049 293.307,175.715 292.5,173.5C 293.289,173.217 293.956,172.717 294.5,172C 292.389,171.155 290.389,170.322 288.5,169.5C 290.833,169.5 293.167,169.5 295.5,169.5C 295.67,168.178 295.337,167.011 294.5,166C 296.193,165.516 297.527,166.016 298.5,167.5 Z"/></g>
<g><path style="opacity:1" fill="#e4bb25" d="M 331.5,155.5 C 332.5,155.5 333.5,155.5 334.5,155.5C 333.323,160.028 331.989,164.528 330.5,169C 330.63,170.059 331.13,170.892 332,171.5C 332.938,169.512 333.772,167.512 334.5,165.5C 335.5,164.167 336.5,164.167 337.5,165.5C 337.5,166.833 337.5,168.167 337.5,169.5C 336.676,173.312 336.176,177.312 336,181.5C 335,182.5 334,183.5 333,184.5C 332.607,182.284 333.107,180.284 334.5,178.5C 335.705,177.328 335.705,175.995 334.5,174.5C 329.167,173.167 323.833,173.167 318.5,174.5C 318.069,175.293 317.735,176.127 317.5,177C 318.619,179.289 319.953,181.455 321.5,183.5C 319.671,184.282 318.171,183.616 317,181.5C 316.824,177.312 316.324,173.312 315.5,169.5C 315.5,168.167 315.5,166.833 315.5,165.5C 316.167,164.833 316.833,164.167 317.5,163.5C 318.117,163.611 318.617,163.944 319,164.5C 319.186,166.9 319.686,169.234 320.5,171.5C 321.72,171.113 322.387,170.28 322.5,169C 320.889,166.79 320.222,164.29 320.5,161.5C 321.167,161.5 321.833,161.5 322.5,161.5C 323.167,161.5 323.5,161.833 323.5,162.5C 324.21,164.746 324.71,167.08 325,169.5C 325.176,166.118 325.676,162.785 326.5,159.5C 327.183,159.863 327.85,160.196 328.5,160.5C 328.783,161.289 329.283,161.956 330,162.5C 330.662,160.187 331.162,157.854 331.5,155.5 Z"/></g>
<g><path style="opacity:1" fill="#2e1d06" d="M 352.5,165.5 C 352.071,169.237 350.738,172.57 348.5,175.5C 346.754,177.252 344.754,178.585 342.5,179.5C 342.433,178.041 342.766,176.708 343.5,175.5C 346.17,171.196 349.17,167.863 352.5,165.5 Z"/></g>
<g><path style="opacity:1" fill="#fbfaf5" d="M 361.5,173.5 C 363.256,174.552 363.923,176.219 363.5,178.5C 363.369,179.239 363.536,179.906 364,180.5C 365.751,181.222 367.251,182.222 368.5,183.5C 368.92,185.094 369.586,186.594 370.5,188C 368.953,190.583 369.287,192.917 371.5,195C 371.097,196.473 370.43,197.806 369.5,199C 372.14,201.621 372.14,204.121 369.5,206.5C 369.649,205.448 369.483,204.448 369,203.5C 367.555,206.09 366.388,208.757 365.5,211.5C 361.438,211.724 358.605,213.724 357,217.5C 356.502,215.456 355.335,214.122 353.5,213.5C 353.389,212.883 353.056,212.383 352.5,212C 350.5,211.667 348.5,211.333 346.5,211C 347.71,209.961 348.71,208.794 349.5,207.5C 353.11,201.405 354.444,194.738 353.5,187.5C 353.538,183.637 353.205,179.804 352.5,176C 352.532,172.347 353.698,169.18 356,166.5C 357,168.5 358,170.5 359,172.5C 359.671,173.252 360.504,173.586 361.5,173.5 Z"/></g>
<g><path style="opacity:1" fill="#d6ac1b" d="M 365.5,153.5 C 366.637,154.789 367.97,155.789 369.5,156.5C 370.067,158.03 370.733,159.53 371.5,161C 367.253,164.296 367.253,166.796 371.5,168.5C 371.425,171.206 371.092,173.873 370.5,176.5C 378.093,176.767 380.427,180.433 377.5,187.5C 375.821,187.285 374.821,187.952 374.5,189.5C 373.85,189.804 373.183,190.137 372.5,190.5C 371.708,188.535 371.041,186.535 370.5,184.5C 370.043,183.702 369.376,183.369 368.5,183.5C 369.23,181.955 370.563,181.122 372.5,181C 371.874,180.25 371.374,179.416 371,178.5C 370.481,179.516 369.647,180.182 368.5,180.5C 366.823,179.813 365.156,179.146 363.5,178.5C 363.923,176.219 363.256,174.552 361.5,173.5C 360.26,172.027 359.26,170.36 358.5,168.5C 360.045,167.548 361.712,167.215 363.5,167.5C 363.272,169.355 363.939,170.188 365.5,170C 365.335,168.883 365.002,167.716 364.5,166.5C 365.562,165.23 366.562,164.063 367.5,163C 366.552,162.517 365.552,162.351 364.5,162.5C 364.5,160.833 364.5,159.167 364.5,157.5C 363.5,157.5 362.5,157.5 361.5,157.5C 361.354,155.058 362.187,154.391 364,155.5C 364.278,154.584 364.778,153.918 365.5,153.5 Z"/></g>
<g><path style="opacity:1" fill="#cfc0a0" d="M 292.5,173.5 C 293.307,175.715 292.307,177.049 289.5,177.5C 289.586,176.504 289.252,175.671 288.5,175C 286.231,174.242 284.064,174.409 282,175.5C 281.333,173.833 281.333,172.167 282,170.5C 284.893,173.15 288.393,174.15 292.5,173.5 Z"/></g>
<g><path style="opacity:1" fill="#f3cf62" d="M 67.5,167.5 C 67.3184,171.216 65.6517,173.883 62.5,175.5C 63.3833,172.296 65.0499,169.629 67.5,167.5 Z"/></g>
<g><path style="opacity:1" fill="#b38d15" d="M 381.5,172.5 C 384.017,173.893 385.684,175.893 386.5,178.5C 387.791,178.263 388.791,178.596 389.5,179.5C 387.108,182.632 385.441,186.299 384.5,190.5C 385.242,192.35 386.242,193.016 387.5,192.5C 386.02,193.113 384.687,193.446 383.5,193.5C 385.802,198.463 384.468,202.13 379.5,204.5C 379.703,202.956 380.37,201.622 381.5,200.5C 381.483,197.986 380.983,195.319 380,192.5C 379.25,191.874 378.416,191.374 377.5,191C 380.15,187.793 379.984,187.293 377,189.5C 376.23,188.402 375.397,188.402 374.5,189.5C 374.821,187.952 375.821,187.285 377.5,187.5C 380.427,180.433 378.093,176.767 370.5,176.5C 371.092,173.873 371.425,171.206 371.5,168.5C 372.117,168.611 372.617,168.944 373,169.5C 373.333,168.167 373.667,166.833 374,165.5C 374.167,166.333 374.333,167.167 374.5,168C 371.931,170.193 372.097,172.36 375,174.5C 375.333,173.833 375.667,173.167 376,172.5C 376.518,177.281 377.852,177.614 380,173.5C 381.107,174.712 381.607,174.379 381.5,172.5 Z"/></g>
<g><path style="opacity:1" fill="#b0953d" d="M 282.5,157.5 C 284.121,160.367 283.454,162.7 280.5,164.5C 281.718,164.109 282.552,164.776 283,166.5C 284,164.833 285,163.167 286,161.5C 287,161.833 288,162.167 289,162.5C 289.333,160.833 289.667,159.167 290,157.5C 290.21,159.058 290.71,160.391 291.5,161.5C 291.811,162.478 292.478,163.145 293.5,163.5C 294.891,162.355 296.224,162.355 297.5,163.5C 295.172,164.724 292.839,164.724 290.5,163.5C 288.078,165.149 287.411,167.149 288.5,169.5C 290.389,170.322 292.389,171.155 294.5,172C 293.956,172.717 293.289,173.217 292.5,173.5C 288.393,174.15 284.893,173.15 282,170.5C 281.333,172.167 281.333,173.833 282,175.5C 284.064,174.409 286.231,174.242 288.5,175C 289.252,175.671 289.586,176.504 289.5,177.5C 286.255,177.678 285.255,179.011 286.5,181.5C 284.167,181.5 281.833,181.5 279.5,181.5C 279.688,179.897 279.188,178.563 278,177.5C 277.878,179.437 277.045,180.77 275.5,181.5C 273.982,178.209 274.648,175.376 277.5,173C 276.5,172.333 275.5,172.333 274.5,173C 273.95,174.845 272.95,176.345 271.5,177.5C 269.889,176.68 269.222,175.346 269.5,173.5C 269.351,172.448 269.517,171.448 270,170.5C 274.37,166.298 278.537,161.964 282.5,157.5 Z"/></g>
<g><path style="opacity:1" fill="#f0d265" d="M 62.5,175.5 C 61.9751,179.533 60.6418,183.2 58.5,186.5C 58.6667,182.327 60,178.66 62.5,175.5 Z"/></g>
<g><path style="opacity:1" fill="#83671b" d="M 363.5,178.5 C 365.156,179.146 366.823,179.813 368.5,180.5C 369.647,180.182 370.481,179.516 371,178.5C 371.374,179.416 371.874,180.25 372.5,181C 370.563,181.122 369.23,181.955 368.5,183.5C 367.251,182.222 365.751,181.222 364,180.5C 363.536,179.906 363.369,179.239 363.5,178.5 Z"/></g>
<g><path style="opacity:1" fill="#382605" d="M 302.5,178.5 C 306.898,180.725 310.898,183.559 314.5,187C 312.866,187.494 311.199,187.66 309.5,187.5C 309.029,186.099 308.362,184.766 307.5,183.5C 306.702,183.957 306.369,184.624 306.5,185.5C 305.417,185.461 304.417,185.127 303.5,184.5C 302.534,182.604 302.201,180.604 302.5,178.5 Z"/></g>
<g><path style="opacity:1" fill="#b68f17" d="M 337.5,169.5 C 337.833,169.5 338.167,169.5 338.5,169.5C 337.314,170.961 337.314,172.295 338.5,173.5C 337.527,175.068 337.36,176.735 338,178.5C 338.759,176.937 339.926,175.937 341.5,175.5C 342.167,175.5 342.833,175.5 343.5,175.5C 342.766,176.708 342.433,178.041 342.5,179.5C 339.135,180.865 336.801,183.199 335.5,186.5C 334.417,186.461 333.417,186.127 332.5,185.5C 331.832,188.306 331.166,190.972 330.5,193.5C 330.823,189.774 330.489,186.107 329.5,182.5C 328.67,188.138 328.17,193.804 328,199.5C 328.126,193.412 327.292,187.745 325.5,182.5C 324.391,181.71 323.058,181.21 321.5,181C 324.833,180.667 328.167,180.333 331.5,180C 327.5,179.667 323.5,179.333 319.5,179C 324.489,178.501 329.489,178.334 334.5,178.5C 333.107,180.284 332.607,182.284 333,184.5C 334,183.5 335,182.5 336,181.5C 336.176,177.312 336.676,173.312 337.5,169.5 Z"/></g>
<g><path style="opacity:1" fill="#a19251" d="M 389.5,179.5 C 389.904,184.35 391.237,189.017 393.5,193.5C 392.749,197.835 391.916,202.168 391,206.5C 390.617,207.056 390.117,207.389 389.5,207.5C 390.605,205.287 390.605,203.12 389.5,201C 391.028,199.352 391.695,197.352 391.5,195C 389.885,190.042 389.218,184.875 389.5,179.5 Z"/></g>
<g><path style="opacity:0.944" fill="#f4d360" d="M 138.5,158.5 C 139.53,175.672 140.03,193.005 140,210.5C 138.961,211.71 137.794,212.71 136.5,213.5C 138.363,195.258 139.03,176.925 138.5,158.5 Z"/></g>
<g><path style="opacity:1" fill="#321e06" d="M 349.5,178.5 C 350.461,180.265 350.795,182.265 350.5,184.5C 349.178,184.33 348.011,184.663 347,185.5C 344.884,183.152 343.718,183.819 343.5,187.5C 341.801,187.66 340.134,187.494 338.5,187C 342.067,183.92 345.733,181.087 349.5,178.5 Z"/></g>
<g><path style="opacity:1" fill="#dfb728" d="M 274.5,183.5 C 275.434,184.568 275.768,185.901 275.5,187.5C 274.5,187.5 273.5,187.5 272.5,187.5C 271.17,185.119 271.336,182.786 273,180.5C 273.232,181.737 273.732,182.737 274.5,183.5 Z"/></g>
<g><path style="opacity:1" fill="#a07a08" d="M 314.5,169.5 C 314.833,169.5 315.167,169.5 315.5,169.5C 316.324,173.312 316.824,177.312 317,181.5C 318.171,183.616 319.671,184.282 321.5,183.5C 319.953,181.455 318.619,179.289 317.5,177C 317.735,176.127 318.069,175.293 318.5,174.5C 323.833,173.167 329.167,173.167 334.5,174.5C 335.705,175.995 335.705,177.328 334.5,178.5C 329.489,178.334 324.489,178.501 319.5,179C 323.5,179.333 327.5,179.667 331.5,180C 328.167,180.333 324.833,180.667 321.5,181C 323.058,181.21 324.391,181.71 325.5,182.5C 325.5,188.167 325.5,193.833 325.5,199.5C 323.712,199.215 322.045,199.548 320.5,200.5C 324.5,201.833 328.5,201.833 332.5,200.5C 330.827,198.477 330.16,196.144 330.5,193.5C 331.166,190.972 331.832,188.306 332.5,185.5C 333.417,186.127 334.417,186.461 335.5,186.5C 334.992,188.233 334.159,188.566 333,187.5C 332.054,193.178 332.887,198.511 335.5,203.5C 334.833,203.5 334.167,203.5 333.5,203.5C 328.684,202.674 323.684,202.174 318.5,202C 319.423,199.959 319.756,197.792 319.5,195.5C 317.62,195.771 316.287,195.104 315.5,193.5C 316.5,193.167 317.167,192.5 317.5,191.5C 319.124,193.137 320.124,192.803 320.5,190.5C 317.112,186.893 315.112,182.893 314.5,178.5C 315.72,176.95 315.72,175.284 314.5,173.5C 315.686,172.295 315.686,170.961 314.5,169.5 Z"/></g>
<g><path style="opacity:1" fill="#a38f56" d="M 286.5,181.5 C 285.974,183.23 284.974,184.564 283.5,185.5C 283.157,183.775 282.157,183.275 280.5,184C 279.5,186.333 278.5,188.667 277.5,191C 279.991,191.626 279.991,192.459 277.5,193.5C 278.833,194.5 278.833,195.5 277.5,196.5C 278.958,197.782 280.292,197.782 281.5,196.5C 282.475,199.311 283.142,202.311 283.5,205.5C 281.692,204.082 281.025,202.082 281.5,199.5C 279.61,199.297 278.11,199.963 277,201.5C 276.585,197.982 274.752,195.649 271.5,194.5C 271.938,193.494 272.604,193.494 273.5,194.5C 275.822,191.416 274.822,189.749 270.5,189.5C 270.5,188.167 271.167,187.5 272.5,187.5C 273.5,187.5 274.5,187.5 275.5,187.5C 275.768,185.901 275.434,184.568 274.5,183.5C 274.328,182.508 274.662,181.842 275.5,181.5C 277.045,180.77 277.878,179.437 278,177.5C 279.188,178.563 279.688,179.897 279.5,181.5C 281.833,181.5 284.167,181.5 286.5,181.5 Z"/></g>
<g><path style="opacity:1" fill="#ecc222" d="M 325.5,182.5 C 327.292,187.745 328.126,193.412 328,199.5C 328.17,193.804 328.67,188.138 329.5,182.5C 330.489,186.107 330.823,189.774 330.5,193.5C 330.16,196.144 330.827,198.477 332.5,200.5C 328.5,201.833 324.5,201.833 320.5,200.5C 322.045,199.548 323.712,199.215 325.5,199.5C 325.5,193.833 325.5,188.167 325.5,182.5 Z"/></g>
<g><path style="opacity:1" fill="#e1ba31" d="M 322.5,182.5 C 323.812,184.743 324.478,187.41 324.5,190.5C 324.167,193.167 323.833,195.833 323.5,198.5C 322.505,193.208 322.172,187.875 322.5,182.5 Z"/></g>
<g><path style="opacity:1" fill="#2c1e06" d="M 306.5,188.5 C 306.703,190.044 307.37,191.378 308.5,192.5C 306.257,193.474 303.924,193.808 301.5,193.5C 301.338,191.473 301.505,189.473 302,187.5C 303.356,188.38 304.856,188.714 306.5,188.5 Z"/></g>
<g><path style="opacity:1" fill="#422502" d="M 312.5,190.5 C 314.455,189.07 316.121,189.403 317.5,191.5C 317.167,192.5 316.5,193.167 315.5,193.5C 314.833,192.167 313.833,191.167 312.5,190.5 Z"/></g>
<g><path style="opacity:1" fill="#e4ba1e" d="M 348.5,175.5 C 349.404,176.209 349.737,177.209 349.5,178.5C 345.733,181.087 342.067,183.92 338.5,187C 340.134,187.494 341.801,187.66 343.5,187.5C 344.117,187.389 344.617,187.056 345,186.5C 345.49,187.793 345.657,189.127 345.5,190.5C 345.586,191.496 345.252,192.329 344.5,193C 346.81,193.497 349.143,193.663 351.5,193.5C 350.082,195.308 348.082,195.975 345.5,195.5C 341.56,194.766 340.227,196.099 341.5,199.5C 340.375,201 339.041,202.333 337.5,203.5C 336.833,203.5 336.167,203.5 335.5,203.5C 332.887,198.511 332.054,193.178 333,187.5C 334.159,188.566 334.992,188.233 335.5,186.5C 336.801,183.199 339.135,180.865 342.5,179.5C 344.754,178.585 346.754,177.252 348.5,175.5 Z"/></g>
<g><path style="opacity:1" fill="#473006" d="M 336.5,189.5 C 341.297,189.126 341.964,189.792 338.5,191.5C 337.886,195.07 336.552,195.403 334.5,192.5C 335.193,191.482 335.859,190.482 336.5,189.5 Z"/></g>
<g><path style="opacity:1" fill="#bd9f33" d="M 353.5,187.5 C 354.444,194.738 353.11,201.405 349.5,207.5C 348.508,207.672 347.842,207.338 347.5,206.5C 347.804,205.85 348.137,205.183 348.5,204.5C 347.264,203.643 345.931,202.977 344.5,202.5C 343.989,204.884 342.989,206.884 341.5,208.5C 339.801,208.473 338.467,207.806 337.5,206.5C 337.5,205.5 337.5,204.5 337.5,203.5C 339.041,202.333 340.375,201 341.5,199.5C 344.249,199.274 346.916,199.607 349.5,200.5C 350.262,199.372 350.929,198.205 351.5,197C 349.292,196.809 347.292,196.309 345.5,195.5C 348.082,195.975 350.082,195.308 351.5,193.5C 351.5,191.5 351.5,189.5 351.5,187.5C 351.343,186.127 351.51,184.793 352,183.5C 352.21,185.058 352.71,186.391 353.5,187.5 Z"/></g>
<g><path style="opacity:1" fill="#372407" d="M 351.5,187.5 C 351.5,189.5 351.5,191.5 351.5,193.5C 349.143,193.663 346.81,193.497 344.5,193C 345.252,192.329 345.586,191.496 345.5,190.5C 346.911,188.461 348.911,187.461 351.5,187.5 Z"/></g>
<g><path style="opacity:1" fill="#b6a04a" d="M 283.5,185.5 C 283.152,189.258 282.485,192.924 281.5,196.5C 280.292,197.782 278.958,197.782 277.5,196.5C 278.833,195.5 278.833,194.5 277.5,193.5C 279.991,192.459 279.991,191.626 277.5,191C 278.5,188.667 279.5,186.333 280.5,184C 282.157,183.275 283.157,183.775 283.5,185.5 Z"/></g>
<g><path style="opacity:1" fill="#e7bc22" d="M 309.5,187.5 C 310.167,188.833 311.167,189.833 312.5,190.5C 313.833,191.167 314.833,192.167 315.5,193.5C 316.287,195.104 317.62,195.771 319.5,195.5C 319.756,197.792 319.423,199.959 318.5,202C 323.684,202.174 328.684,202.674 333.5,203.5C 327.824,203.666 322.157,203.499 316.5,203C 313.062,200.633 311.562,201.466 312,205.5C 312.71,204.027 313.876,203.36 315.5,203.5C 315.5,204.5 315.5,205.5 315.5,206.5C 314.533,207.806 313.199,208.473 311.5,208.5C 309.72,207.01 309.054,205.01 309.5,202.5C 307.708,202.366 306.042,202.699 304.5,203.5C 303.89,202.609 303.557,201.609 303.5,200.5C 306.391,199.597 309.391,199.264 312.5,199.5C 312.5,198.167 312.5,196.833 312.5,195.5C 309.833,195.5 307.167,195.5 304.5,195.5C 302.821,195.715 301.821,195.048 301.5,193.5C 303.924,193.808 306.257,193.474 308.5,192.5C 307.37,191.378 306.703,190.044 306.5,188.5C 306.5,187.5 306.5,186.5 306.5,185.5C 306.369,184.624 306.702,183.957 307.5,183.5C 308.362,184.766 309.029,186.099 309.5,187.5 Z"/></g>
<g><path style="opacity:1" fill="#867131" d="M 275.5,181.5 C 274.662,181.842 274.328,182.508 274.5,183.5C 273.732,182.737 273.232,181.737 273,180.5C 271.336,182.786 271.17,185.119 272.5,187.5C 271.167,187.5 270.5,188.167 270.5,189.5C 270.23,193.031 270.23,196.531 270.5,200C 270.252,201.749 269.252,202.582 267.5,202.5C 267.657,201.127 267.49,199.793 267,198.5C 265.324,197.939 263.991,196.939 263,195.5C 262.51,196.793 262.343,198.127 262.5,199.5C 262.167,199.5 261.833,199.5 261.5,199.5C 261.671,194.804 262.171,190.137 263,185.5C 263.333,185.833 263.667,186.167 264,186.5C 264.333,184.5 264.667,182.5 265,180.5C 266.049,177.813 267.549,175.48 269.5,173.5C 269.222,175.346 269.889,176.68 271.5,177.5C 272.95,176.345 273.95,174.845 274.5,173C 275.5,172.333 276.5,172.333 277.5,173C 274.648,175.376 273.982,178.209 275.5,181.5 Z"/></g>
<g><path style="opacity:1" fill="#cbad4d" d="M 267.5,177.5 C 268.458,177.953 269.292,178.619 270,179.5C 269.954,181.313 270.12,182.979 270.5,184.5C 268.309,186.208 267.976,188.208 269.5,190.5C 268.624,191.251 267.624,191.751 266.5,192C 267.731,193.183 267.731,194.349 266.5,195.5C 264.728,194.73 263.728,193.397 263.5,191.5C 265.161,186.843 266.495,182.176 267.5,177.5 Z"/></g>
<g><path style="opacity:1" fill="#392707" d="M 304.5,195.5 C 307.167,195.5 309.833,195.5 312.5,195.5C 312.5,196.833 312.5,198.167 312.5,199.5C 309.391,199.264 306.391,199.597 303.5,200.5C 300.516,198.159 300.849,196.492 304.5,195.5 Z"/></g>
<g><path style="opacity:1" fill="#291d04" d="M 345.5,195.5 C 347.292,196.309 349.292,196.809 351.5,197C 350.929,198.205 350.262,199.372 349.5,200.5C 346.916,199.607 344.249,199.274 341.5,199.5C 340.227,196.099 341.56,194.766 345.5,195.5 Z"/></g>
<g><path style="opacity:1" fill="#e0ba31" d="M 267.5,202.5 C 265.405,202.937 263.738,201.937 262.5,199.5C 262.343,198.127 262.51,196.793 263,195.5C 263.991,196.939 265.324,197.939 267,198.5C 267.49,199.793 267.657,201.127 267.5,202.5 Z"/></g>
<g><path style="opacity:1" fill="#bba149" d="M 270.5,189.5 C 274.822,189.749 275.822,191.416 273.5,194.5C 272.604,193.494 271.938,193.494 271.5,194.5C 274.752,195.649 276.585,197.982 277,201.5C 278.11,199.963 279.61,199.297 281.5,199.5C 281.025,202.082 281.692,204.082 283.5,205.5C 283.183,208.546 284.516,210.213 287.5,210.5C 287.785,212.288 287.452,213.955 286.5,215.5C 284.614,214.15 283.114,212.483 282,210.5C 281.617,211.056 281.117,211.389 280.5,211.5C 279.508,211.672 278.842,211.338 278.5,210.5C 278.261,208.533 278.594,206.699 279.5,205C 277.803,204.616 276.137,204.782 274.5,205.5C 273.833,205.5 273.167,205.5 272.5,205.5C 271.323,203.216 269.656,202.882 267.5,204.5C 265.61,204.703 264.11,204.037 263,202.5C 263.019,204.107 263.185,205.774 263.5,207.5C 263.167,207.5 262.833,207.5 262.5,207.5C 261.735,204.904 261.401,202.237 261.5,199.5C 261.833,199.5 262.167,199.5 262.5,199.5C 263.738,201.937 265.405,202.937 267.5,202.5C 269.252,202.582 270.252,201.749 270.5,200C 270.23,196.531 270.23,193.031 270.5,189.5 Z"/></g>
<g><path style="opacity:0.976" fill="#f2d362" d="M 58.5,186.5 C 58.5227,207.552 59.5227,228.552 61.5,249.5C 58.5236,232.435 56.857,215.102 56.5,197.5C 56.9318,193.65 57.5984,189.983 58.5,186.5 Z"/></g>
<g><path style="opacity:1" fill="#edbf19" d="M 379.5,204.5 C 375.369,203.345 375.036,202.178 378.5,201C 377.643,200.311 376.977,199.478 376.5,198.5C 377.052,196.997 377.052,195.331 376.5,193.5C 373.402,193.587 373.068,193.087 375.5,192C 374.748,191.329 374.414,190.496 374.5,189.5C 375.397,188.402 376.23,188.402 377,189.5C 379.984,187.293 380.15,187.793 377.5,191C 378.416,191.374 379.25,191.874 380,192.5C 380.983,195.319 381.483,197.986 381.5,200.5C 380.37,201.622 379.703,202.956 379.5,204.5 Z"/></g>
<g><path style="opacity:1" fill="#7a5402" d="M 333.5,203.5 C 334.167,203.5 334.833,203.5 335.5,203.5C 336.167,203.5 336.833,203.5 337.5,203.5C 337.5,204.5 337.5,205.5 337.5,206.5C 336.833,206.5 336.167,206.5 335.5,206.5C 332.913,205.184 329.913,204.517 326.5,204.5C 323.087,204.517 320.087,205.184 317.5,206.5C 316.833,206.5 316.167,206.5 315.5,206.5C 315.5,205.5 315.5,204.5 315.5,203.5C 313.876,203.36 312.71,204.027 312,205.5C 311.562,201.466 313.062,200.633 316.5,203C 322.157,203.499 327.824,203.666 333.5,203.5 Z"/></g>
<g><path style="opacity:1" fill="#e7c037" d="M 267.5,204.5 C 268.234,205.708 268.567,207.041 268.5,208.5C 267.167,208.5 265.833,208.5 264.5,208.5C 264.5,207.833 264.167,207.5 263.5,207.5C 263.185,205.774 263.019,204.107 263,202.5C 264.11,204.037 265.61,204.703 267.5,204.5 Z"/></g>
<g><path style="opacity:1" fill="#cfa928" d="M 335.5,206.5 C 329.5,206.5 323.5,206.5 317.5,206.5C 320.087,205.184 323.087,204.517 326.5,204.5C 329.913,204.517 332.913,205.184 335.5,206.5 Z"/></g>
<g><path style="opacity:1" fill="#86794b" d="M 283.5,205.5 C 284.532,207.378 285.866,209.045 287.5,210.5C 284.516,210.213 283.183,208.546 283.5,205.5 Z"/></g>
<g><path style="opacity:1" fill="#382405" d="M 311.5,208.5 C 312.551,209.222 313.218,210.222 313.5,211.5C 308.653,210.91 305.653,208.243 304.5,203.5C 306.042,202.699 307.708,202.366 309.5,202.5C 309.054,205.01 309.72,207.01 311.5,208.5 Z"/></g>
<g><path style="opacity:1" fill="#331f03" d="M 347.5,206.5 C 345.516,209.164 342.849,210.831 339.5,211.5C 339.782,210.222 340.449,209.222 341.5,208.5C 342.989,206.884 343.989,204.884 344.5,202.5C 345.931,202.977 347.264,203.643 348.5,204.5C 348.137,205.183 347.804,205.85 347.5,206.5 Z"/></g>
<g><path style="opacity:1" fill="#d0bf9e" d="M 262.5,207.5 C 262.833,207.5 263.167,207.5 263.5,207.5C 264.167,207.5 264.5,207.833 264.5,208.5C 265.952,209.302 267.618,209.802 269.5,210C 268.263,210.232 267.263,210.732 266.5,211.5C 265.5,211.5 264.5,211.5 263.5,211.5C 261.862,210.295 261.529,208.962 262.5,207.5 Z"/></g>
<g><path style="opacity:0.6" fill="#f6db6d" d="M 119.5,199.5 C 120.222,206.035 121.055,212.702 122,219.5C 123.011,220.337 124.178,220.67 125.5,220.5C 123.511,221.887 121.678,221.553 120,219.5C 119.5,212.842 119.334,206.175 119.5,199.5 Z"/></g>
<g><path style="opacity:1" fill="#e2b81d" d="M 389.5,179.5 C 389.218,184.875 389.885,190.042 391.5,195C 391.695,197.352 391.028,199.352 389.5,201C 390.605,203.12 390.605,205.287 389.5,207.5C 388.262,208.412 386.928,208.579 385.5,208C 387.886,205.293 388.052,202.46 386,199.5C 385.794,202.623 385.127,205.623 384,208.5C 383.577,207.044 382.744,206.544 381.5,207C 382.568,209.929 382.234,212.763 380.5,215.5C 379.624,215.631 378.957,215.298 378.5,214.5C 379.417,211.242 379.751,207.909 379.5,204.5C 384.468,202.13 385.802,198.463 383.5,193.5C 384.687,193.446 386.02,193.113 387.5,192.5C 386.242,193.016 385.242,192.35 384.5,190.5C 385.441,186.299 387.108,182.632 389.5,179.5 Z"/></g>
<g><path style="opacity:1" fill="#f1c114" d="M 366.5,212.5 C 367.11,211.609 367.443,210.609 367.5,209.5C 368.496,209.586 369.329,209.252 370,208.5C 370.368,209.91 371.201,210.91 372.5,211.5C 373.452,213.045 373.785,214.712 373.5,216.5C 370.068,216.873 367.734,215.54 366.5,212.5 Z"/></g>
<g><path style="opacity:1" fill="#37290e" d="M 300.5,212.5 C 302.857,212.337 305.19,212.503 307.5,213C 312.522,215.511 317.522,218.011 322.5,220.5C 323.167,221.167 323.833,221.833 324.5,222.5C 323.07,222.579 321.736,222.246 320.5,221.5C 319.859,222.993 318.859,223.993 317.5,224.5C 317.221,222.061 315.888,219.728 313.5,217.5C 312.201,218.09 311.368,219.09 311,220.5C 310.805,218.793 310.805,217.126 311,215.5C 310.259,216.641 309.425,216.641 308.5,215.5C 306.995,218.131 306.329,217.797 306.5,214.5C 305.5,214.5 304.5,214.5 303.5,214.5C 303.649,215.552 303.483,216.552 303,217.5C 301.796,216.529 301.296,215.529 301.5,214.5C 300.818,215.243 300.151,215.909 299.5,216.5C 299.5,215.167 298.833,214.5 297.5,214.5C 297.973,213.094 298.973,212.427 300.5,212.5 Z"/></g>
<g><path style="opacity:1" fill="#332004" d="M 353.5,213.5 C 353.5,214.5 353.5,215.5 353.5,216.5C 352.844,215.722 352.011,215.056 351,214.5C 348.991,214.995 346.824,214.995 344.5,214.5C 344.5,215.5 344.5,216.5 344.5,217.5C 343.778,216.449 342.778,215.782 341.5,215.5C 344.941,212.338 348.941,211.672 353.5,213.5 Z"/></g>
<g><path style="opacity:1" fill="#ac881a" d="M 389.5,207.5 C 389.5,208.167 389.5,208.833 389.5,209.5C 391.41,214.202 390.41,218.202 386.5,221.5C 385.304,219.019 383.804,219.019 382,221.5C 380.186,220.149 380.519,219.149 383,218.5C 383.483,217.552 383.649,216.552 383.5,215.5C 382.5,215.5 381.5,215.5 380.5,215.5C 382.234,212.763 382.568,209.929 381.5,207C 382.744,206.544 383.577,207.044 384,208.5C 385.127,205.623 385.794,202.623 386,199.5C 388.052,202.46 387.886,205.293 385.5,208C 386.928,208.579 388.262,208.412 389.5,207.5 Z"/></g>
<g><path style="opacity:1" fill="#caac47" d="M 291.5,213.5 C 292.167,214.167 292.833,214.833 293.5,215.5C 295.348,219.28 294.681,220.447 291.5,219C 288.983,216.91 288.983,215.077 291.5,213.5 Z"/></g>
<g><path style="opacity:1" fill="#e6bc1f" d="M 389.5,209.5 C 389.663,211.857 389.497,214.19 389,216.5C 387.89,218.037 386.39,218.703 384.5,218.5C 384.227,216.549 384.893,215.049 386.5,214C 384.071,210.957 385.071,209.457 389.5,209.5 Z"/></g>
<g><path style="opacity:0.824" fill="#f3db7f" d="M 113.5,191.5 C 114.823,202.007 114.823,212.674 113.5,223.5C 112.14,224.18 110.807,224.847 109.5,225.5C 109.5,224.5 109.5,223.5 109.5,222.5C 111.124,222.64 112.29,221.973 113,220.5C 113.5,210.839 113.666,201.172 113.5,191.5 Z"/></g>
<g><path style="opacity:1" fill="#97803e" d="M 272.5,205.5 C 270.969,208.004 271.803,209.337 275,209.5C 275.833,209.333 276.667,209.167 277.5,209C 276.635,207.641 275.635,206.474 274.5,205.5C 276.137,204.782 277.803,204.616 279.5,205C 278.594,206.699 278.261,208.533 278.5,210.5C 277.078,210.709 275.745,211.209 274.5,212C 276.712,212.789 278.712,212.622 280.5,211.5C 281.117,211.389 281.617,211.056 282,210.5C 283.114,212.483 284.614,214.15 286.5,215.5C 287.452,213.955 287.785,212.288 287.5,210.5C 289.404,210.738 290.738,211.738 291.5,213.5C 288.983,215.077 288.983,216.91 291.5,219C 294.681,220.447 295.348,219.28 293.5,215.5C 294.664,215.835 295.997,215.835 297.5,215.5C 297.681,219.695 299.347,223.195 302.5,226C 300.377,227.194 298.043,227.86 295.5,228C 296.571,228.852 297.571,229.685 298.5,230.5C 296.04,230.301 293.707,229.635 291.5,228.5C 293.173,226.914 295.173,226.247 297.5,226.5C 297.649,223.393 297.149,220.393 296,217.5C 295.111,220.279 293.944,222.945 292.5,225.5C 291.41,224.609 291.41,223.609 292.5,222.5C 292,222.167 291.5,221.833 291,221.5C 289.37,222.713 287.536,223.546 285.5,224C 286.566,225.159 286.233,225.992 284.5,226.5C 281.336,224.809 279.336,225.809 278.5,229.5C 275.796,229.33 274.129,227.997 273.5,225.5C 275.5,225.5 277.5,225.5 279.5,225.5C 279.55,223.41 278.55,222.077 276.5,221.5C 274.414,222.489 272.747,223.822 271.5,225.5C 268.785,223.098 266.285,220.432 264,217.5C 263.333,216.833 263.333,216.167 264,215.5C 264.816,216.823 265.983,217.489 267.5,217.5C 268.899,221.765 271.232,222.432 274.5,219.5C 273.38,217.404 271.88,217.07 270,218.5C 269.667,216.953 270.167,215.62 271.5,214.5C 270.579,212.244 268.912,211.244 266.5,211.5C 267.263,210.732 268.263,210.232 269.5,210C 267.618,209.802 265.952,209.302 264.5,208.5C 265.833,208.5 267.167,208.5 268.5,208.5C 268.567,207.041 268.234,205.708 267.5,204.5C 269.656,202.882 271.323,203.216 272.5,205.5 Z"/></g>
<g><path style="opacity:1" fill="#e9c532" d="M 275.5,213.5 C 277.5,213.5 279.5,213.5 281.5,213.5C 281.5,214.5 281.5,215.5 281.5,216.5C 278.607,216.969 276.607,215.969 275.5,213.5 Z"/></g>
<g><path style="opacity:1" fill="#f9f3c6" d="M 278.5,210.5 C 278.842,211.338 279.508,211.672 280.5,211.5C 278.712,212.622 276.712,212.789 274.5,212C 275.745,211.209 277.078,210.709 278.5,210.5 Z"/></g>
<g><path style="opacity:1" fill="#e7bf29" d="M 272.5,205.5 C 273.167,205.5 273.833,205.5 274.5,205.5C 275.635,206.474 276.635,207.641 277.5,209C 276.667,209.167 275.833,209.333 275,209.5C 271.803,209.337 270.969,208.004 272.5,205.5 Z"/></g>
<g><path style="opacity:1" fill="#846e2e" d="M 353.5,216.5 C 353.5,217.167 353.167,217.5 352.5,217.5C 350.5,217.833 348.5,218.167 346.5,218.5C 346.633,215.075 345.967,214.742 344.5,217.5C 344.5,216.5 344.5,215.5 344.5,214.5C 346.824,214.995 348.991,214.995 351,214.5C 352.011,215.056 352.844,215.722 353.5,216.5 Z"/></g>
<g><path style="opacity:1" fill="#7a6428" d="M 317.5,224.5 C 315.143,224.663 312.81,224.497 310.5,224C 311.5,223.667 312.5,223.333 313.5,223C 310.576,222.012 307.576,221.346 304.5,221C 302.34,220.004 300.673,218.504 299.5,216.5C 300.151,215.909 300.818,215.243 301.5,214.5C 301.296,215.529 301.796,216.529 303,217.5C 303.483,216.552 303.649,215.552 303.5,214.5C 304.5,214.5 305.5,214.5 306.5,214.5C 306.329,217.797 306.995,218.131 308.5,215.5C 309.425,216.641 310.259,216.641 311,215.5C 310.805,217.126 310.805,218.793 311,220.5C 311.368,219.09 312.201,218.09 313.5,217.5C 315.888,219.728 317.221,222.061 317.5,224.5 Z"/></g>
<g><path style="opacity:1" fill="#b19b4f" d="M 300.5,167.5 C 301.458,169.302 302.125,171.302 302.5,173.5C 301.167,175.167 301.167,176.833 302.5,178.5C 302.201,180.604 302.534,182.604 303.5,184.5C 304.417,185.127 305.417,185.461 306.5,185.5C 306.5,186.5 306.5,187.5 306.5,188.5C 304.856,188.714 303.356,188.38 302,187.5C 301.505,189.473 301.338,191.473 301.5,193.5C 301.821,195.048 302.821,195.715 304.5,195.5C 300.849,196.492 300.516,198.159 303.5,200.5C 303.557,201.609 303.89,202.609 304.5,203.5C 305.653,208.243 308.653,210.91 313.5,211.5C 317.589,213.999 321.923,216.332 326.5,218.5C 330.813,215.965 335.146,213.632 339.5,211.5C 342.849,210.831 345.516,209.164 347.5,206.5C 347.842,207.338 348.508,207.672 349.5,207.5C 348.71,208.794 347.71,209.961 346.5,211C 348.5,211.333 350.5,211.667 352.5,212C 353.056,212.383 353.389,212.883 353.5,213.5C 348.941,211.672 344.941,212.338 341.5,215.5C 336.57,217.481 331.57,219.481 326.5,221.5C 325.264,220.754 323.93,220.421 322.5,220.5C 317.522,218.011 312.522,215.511 307.5,213C 305.19,212.503 302.857,212.337 300.5,212.5C 302.292,211.691 304.292,211.191 306.5,211C 303.509,208.01 301.343,204.51 300,200.5C 300.023,189.797 299.856,179.13 299.5,168.5C 300.167,168.5 300.5,168.167 300.5,167.5 Z"/></g>
<g><path style="opacity:1" fill="#251a0b" d="M 313.5,211.5 C 322.167,211.5 330.833,211.5 339.5,211.5C 335.146,213.632 330.813,215.965 326.5,218.5C 321.923,216.332 317.589,213.999 313.5,211.5 Z"/></g>
<g><path style="opacity:1" fill="#b59316" d="M 315.5,206.5 C 316.167,206.5 316.833,206.5 317.5,206.5C 323.5,206.5 329.5,206.5 335.5,206.5C 336.167,206.5 336.833,206.5 337.5,206.5C 338.467,207.806 339.801,208.473 341.5,208.5C 340.449,209.222 339.782,210.222 339.5,211.5C 330.833,211.5 322.167,211.5 313.5,211.5C 313.218,210.222 312.551,209.222 311.5,208.5C 313.199,208.473 314.533,207.806 315.5,206.5 Z"/></g>
<g><path style="opacity:1" fill="#9e8339" d="M 369.5,206.5 C 368.833,207.5 368.167,208.5 367.5,209.5C 367.443,210.609 367.11,211.609 366.5,212.5C 365.508,212.328 364.842,212.662 364.5,213.5C 359.579,217.416 354.912,221.749 350.5,226.5C 349.692,226.192 349.025,225.692 348.5,225C 353.564,223.834 355.231,221.001 353.5,216.5C 353.5,215.5 353.5,214.5 353.5,213.5C 355.335,214.122 356.502,215.456 357,217.5C 358.605,213.724 361.438,211.724 365.5,211.5C 366.388,208.757 367.555,206.09 369,203.5C 369.483,204.448 369.649,205.448 369.5,206.5 Z"/></g>
<g><path style="opacity:1" fill="#e1bd35" d="M 263.5,211.5 C 264.5,211.5 265.5,211.5 266.5,211.5C 268.912,211.244 270.579,212.244 271.5,214.5C 270.167,215.62 269.667,216.953 270,218.5C 271.88,217.07 273.38,217.404 274.5,219.5C 271.232,222.432 268.899,221.765 267.5,217.5C 265.748,215.754 264.415,213.754 263.5,211.5 Z"/></g>
<g><path style="opacity:1" fill="#dab43d" d="M 284.5,217.5 C 286.532,218.048 287.532,219.381 287.5,221.5C 285.011,221.702 282.677,221.202 280.5,220C 282.32,219.8 283.653,218.966 284.5,217.5 Z"/></g>
<g><path style="opacity:1" fill="#b79014" d="M 368.5,183.5 C 369.376,183.369 370.043,183.702 370.5,184.5C 371.041,186.535 371.708,188.535 372.5,190.5C 373.183,190.137 373.85,189.804 374.5,189.5C 374.414,190.496 374.748,191.329 375.5,192C 373.068,193.087 373.402,193.587 376.5,193.5C 377.052,195.331 377.052,196.997 376.5,198.5C 376.977,199.478 377.643,200.311 378.5,201C 375.036,202.178 375.369,203.345 379.5,204.5C 379.751,207.909 379.417,211.242 378.5,214.5C 378.957,215.298 379.624,215.631 380.5,215.5C 379.069,218.537 377.235,220.537 375,221.5C 373.622,217.558 371.122,216.558 367.5,218.5C 367.5,219.5 367.5,220.5 367.5,221.5C 368.833,221.5 370.167,221.5 371.5,221.5C 371.651,224.718 372.484,225.051 374,222.5C 374.483,223.448 374.649,224.448 374.5,225.5C 377.167,225.5 379.833,225.5 382.5,225.5C 381.71,226.401 380.71,227.068 379.5,227.5C 376.062,228.373 372.728,228.373 369.5,227.5C 366.421,225.358 363.088,224.691 359.5,225.5C 359.878,222.978 360.711,220.645 362,218.5C 362.333,219.5 362.667,220.5 363,221.5C 363.202,219.744 363.702,218.078 364.5,216.5C 365.681,218.135 365.681,219.802 364.5,221.5C 364.846,222.696 365.346,222.696 366,221.5C 366.667,219.167 366.667,216.833 366,214.5C 365.617,213.944 365.117,213.611 364.5,213.5C 364.842,212.662 365.508,212.328 366.5,212.5C 367.734,215.54 370.068,216.873 373.5,216.5C 373.785,214.712 373.452,213.045 372.5,211.5C 371.201,210.91 370.368,209.91 370,208.5C 369.329,209.252 368.496,209.586 367.5,209.5C 368.167,208.5 368.833,207.5 369.5,206.5C 372.14,204.121 372.14,201.621 369.5,199C 370.43,197.806 371.097,196.473 371.5,195C 369.287,192.917 368.953,190.583 370.5,188C 369.586,186.594 368.92,185.094 368.5,183.5 Z"/></g>
<g><path style="opacity:1" fill="#e6ba20" d="M 373.5,197.5 C 374.478,197.811 375.145,198.478 375.5,199.5C 374.025,202.245 374.691,204.412 377.5,206C 376.5,206.333 375.5,206.667 374.5,207C 379.553,207.75 379.72,208.916 375,210.5C 373.829,209.66 372.662,208.827 371.5,208C 372.167,206.667 372.833,205.333 373.5,204C 372.232,201.837 372.232,199.67 373.5,197.5 Z"/></g>
<g><path style="opacity:1" fill="#e6b91b" d="M 380.5,215.5 C 381.5,215.5 382.5,215.5 383.5,215.5C 383.649,216.552 383.483,217.552 383,218.5C 380.519,219.149 380.186,220.149 382,221.5C 383.804,219.019 385.304,219.019 386.5,221.5C 385.527,223.139 384.194,224.473 382.5,225.5C 379.833,225.5 377.167,225.5 374.5,225.5C 374.649,224.448 374.483,223.448 374,222.5C 372.484,225.051 371.651,224.718 371.5,221.5C 370.167,221.5 368.833,221.5 367.5,221.5C 367.5,220.5 367.5,219.5 367.5,218.5C 371.122,216.558 373.622,217.558 375,221.5C 377.235,220.537 379.069,218.537 380.5,215.5 Z"/></g>
<g><path style="opacity:1" fill="#e7c028" d="M 273.5,225.5 C 272.833,225.5 272.167,225.5 271.5,225.5C 272.747,223.822 274.414,222.489 276.5,221.5C 278.55,222.077 279.55,223.41 279.5,225.5C 277.5,225.5 275.5,225.5 273.5,225.5 Z"/></g>
<g><path style="opacity:1" fill="#ad9440" d="M 298.5,230.5 C 299.766,231.09 301.099,231.59 302.5,232C 300.5,233.333 298.5,234.667 296.5,236C 297.056,236.383 297.389,236.883 297.5,237.5C 293.131,236.911 288.798,236.078 284.5,235C 284.833,234.667 285.167,234.333 285.5,234C 283.392,233.64 281.392,232.973 279.5,232C 278.748,231.329 278.414,230.496 278.5,229.5C 280.199,229.66 281.866,229.494 283.5,229C 284.252,228.329 284.586,227.496 284.5,226.5C 286.233,225.992 286.566,225.159 285.5,224C 287.536,223.546 289.37,222.713 291,221.5C 291.5,221.833 292,222.167 292.5,222.5C 291.41,223.609 291.41,224.609 292.5,225.5C 293.944,222.945 295.111,220.279 296,217.5C 297.149,220.393 297.649,223.393 297.5,226.5C 295.173,226.247 293.173,226.914 291.5,228.5C 293.707,229.635 296.04,230.301 298.5,230.5 Z"/></g>
<g><path style="opacity:1" fill="#aa8309" d="M 359.5,225.5 C 359.586,226.496 359.252,227.329 358.5,228C 360.556,228.311 362.556,228.811 364.5,229.5C 366.075,228.544 367.742,227.877 369.5,227.5C 368.748,229.1 367.748,230.6 366.5,232C 366.728,232.399 367.062,232.565 367.5,232.5C 367.5,233.167 367.167,233.5 366.5,233.5C 365.038,232.542 363.705,231.376 362.5,230C 360.527,229.505 358.527,229.338 356.5,229.5C 356.5,229.167 356.5,228.833 356.5,228.5C 356.07,227.579 354.736,227.079 352.5,227C 354.92,226.71 357.254,226.21 359.5,225.5 Z"/></g>
<g><path style="opacity:1" fill="#6a5419" d="M 341.5,215.5 C 342.778,215.782 343.778,216.449 344.5,217.5C 345.967,214.742 346.633,215.075 346.5,218.5C 348.5,218.167 350.5,217.833 352.5,217.5C 348.53,220.75 343.864,222.583 338.5,223C 335.991,224.421 333.657,226.088 331.5,228C 328.518,228.498 325.518,228.665 322.5,228.5C 322.167,228.5 321.833,228.5 321.5,228.5C 320.167,227.167 318.833,225.833 317.5,224.5C 318.859,223.993 319.859,222.993 320.5,221.5C 321.736,222.246 323.07,222.579 324.5,222.5C 323.833,221.833 323.167,221.167 322.5,220.5C 323.93,220.421 325.264,220.754 326.5,221.5C 331.57,219.481 336.57,217.481 341.5,215.5 Z"/></g>
<g><path style="opacity:1" fill="#3c2106" d="M 324.5,222.5 C 326.575,222.302 328.575,222.135 330.5,222C 329.667,222.833 328.833,223.667 328,224.5C 326.448,224.989 325.281,224.322 324.5,222.5 Z"/></g>
<g><path style="opacity:1" fill="#e1b726" d="M 364.5,213.5 C 365.117,213.611 365.617,213.944 366,214.5C 366.667,216.833 366.667,219.167 366,221.5C 365.346,222.696 364.846,222.696 364.5,221.5C 365.681,219.802 365.681,218.135 364.5,216.5C 363.702,218.078 363.202,219.744 363,221.5C 362.667,220.5 362.333,219.5 362,218.5C 360.711,220.645 359.878,222.978 359.5,225.5C 357.254,226.21 354.92,226.71 352.5,227C 354.736,227.079 356.07,227.579 356.5,228.5C 351.371,230.635 351.371,232.968 356.5,235.5C 356.137,236.183 355.804,236.85 355.5,237.5C 353.379,237.675 351.379,237.341 349.5,236.5C 343.941,229.861 337.441,228.861 330,233.5C 328.234,232.767 326.401,232.433 324.5,232.5C 323.127,232.657 321.793,232.49 320.5,232C 321.973,231.29 322.64,230.124 322.5,228.5C 325.518,228.665 328.518,228.498 331.5,228C 333.657,226.088 335.991,224.421 338.5,223C 343.864,222.583 348.53,220.75 352.5,217.5C 353.167,217.5 353.5,217.167 353.5,216.5C 355.231,221.001 353.564,223.834 348.5,225C 349.025,225.692 349.692,226.192 350.5,226.5C 354.912,221.749 359.579,217.416 364.5,213.5 Z"/></g>
<g><path style="opacity:1" fill="#f2c216" d="M 369.5,227.5 C 367.742,227.877 366.075,228.544 364.5,229.5C 362.556,228.811 360.556,228.311 358.5,228C 359.252,227.329 359.586,226.496 359.5,225.5C 363.088,224.691 366.421,225.358 369.5,227.5 Z"/></g>
<g><path style="opacity:1" fill="#f3cd45" d="M 109.5,225.5 C 102.699,231.23 100.032,238.564 101.5,247.5C 100.235,246.486 99.5687,244.986 99.5,243C 100.239,239.173 100.406,235.34 100,231.5C 98.3851,230.344 98.3851,229.011 100,227.5C 103.11,231.806 103.943,231.473 102.5,226.5C 104.743,225.526 107.076,225.192 109.5,225.5 Z"/></g>
<g><path style="opacity:1" fill="#e6c026" d="M 284.5,226.5 C 284.586,227.496 284.252,228.329 283.5,229C 281.866,229.494 280.199,229.66 278.5,229.5C 279.336,225.809 281.336,224.809 284.5,226.5 Z"/></g>
<g><path style="opacity:1" fill="#e7ba1d" d="M 297.5,214.5 C 298.833,214.5 299.5,215.167 299.5,216.5C 300.673,218.504 302.34,220.004 304.5,221C 307.576,221.346 310.576,222.012 313.5,223C 312.5,223.333 311.5,223.667 310.5,224C 312.81,224.497 315.143,224.663 317.5,224.5C 318.833,225.833 320.167,227.167 321.5,228.5C 321.631,229.239 321.464,229.906 321,230.5C 317.399,229.18 313.899,229.18 310.5,230.5C 308.113,232.889 305.446,234.889 302.5,236.5C 300.955,237.452 299.288,237.785 297.5,237.5C 297.389,236.883 297.056,236.383 296.5,236C 298.5,234.667 300.5,233.333 302.5,232C 301.099,231.59 299.766,231.09 298.5,230.5C 297.571,229.685 296.571,228.852 295.5,228C 298.043,227.86 300.377,227.194 302.5,226C 299.347,223.195 297.681,219.695 297.5,215.5C 297.5,215.167 297.5,214.833 297.5,214.5 Z"/></g>
<g><path style="opacity:1" fill="#ecc024" d="M 379.5,227.5 C 377.019,227.774 375.353,229.107 374.5,231.5C 373.833,231.833 373.167,232.167 372.5,232.5C 370.833,232.5 369.167,232.5 367.5,232.5C 367.062,232.565 366.728,232.399 366.5,232C 367.748,230.6 368.748,229.1 369.5,227.5C 372.728,228.373 376.062,228.373 379.5,227.5 Z"/></g>
<g><path style="opacity:1" fill="#f0c21c" d="M 356.5,229.5 C 358.527,229.338 360.527,229.505 362.5,230C 363.705,231.376 365.038,232.542 366.5,233.5C 364.372,234.629 362.039,234.796 359.5,234C 357.624,233.082 356.624,231.582 356.5,229.5 Z"/></g>
<g><path style="opacity:1" fill="#907c32" d="M 379.5,227.5 C 378.5,229.167 377.167,230.5 375.5,231.5C 375.167,231.5 374.833,231.5 374.5,231.5C 375.353,229.107 377.019,227.774 379.5,227.5 Z"/></g>
<g><path style="opacity:1" fill="#e7bf30" d="M 285.5,229.5 C 287.167,229.5 288.833,229.5 290.5,229.5C 290.5,230.5 290.5,231.5 290.5,232.5C 288.473,232.662 286.473,232.495 284.5,232C 285.252,231.329 285.586,230.496 285.5,229.5 Z"/></g>
<g><path style="opacity:1" fill="#bda147" d="M 321.5,228.5 C 321.833,228.5 322.167,228.5 322.5,228.5C 322.64,230.124 321.973,231.29 320.5,232C 321.793,232.49 323.127,232.657 324.5,232.5C 323.081,233.451 321.415,233.784 319.5,233.5C 319.5,232.5 319.5,231.5 319.5,230.5C 316.5,230.5 313.5,230.5 310.5,230.5C 313.899,229.18 317.399,229.18 321,230.5C 321.464,229.906 321.631,229.239 321.5,228.5 Z"/></g>
<g><path style="opacity:1" fill="#ebbf25" d="M 291.5,231.5 C 296.45,231.993 296.45,233.327 291.5,235.5C 290.833,235.167 290.167,234.833 289.5,234.5C 290.612,233.735 291.279,232.735 291.5,231.5 Z"/></g>
<g><path style="opacity:1" fill="#baa34d" d="M 356.5,228.5 C 356.5,228.833 356.5,229.167 356.5,229.5C 356.624,231.582 357.624,233.082 359.5,234C 362.039,234.796 364.372,234.629 366.5,233.5C 367.167,233.5 367.5,233.167 367.5,232.5C 369.167,232.5 370.833,232.5 372.5,232.5C 367.075,234.674 361.408,236.341 355.5,237.5C 355.804,236.85 356.137,236.183 356.5,235.5C 351.371,232.968 351.371,230.635 356.5,228.5 Z"/></g>
<g><path style="opacity:1" fill="#e0d9be" d="M 374.5,231.5 C 374.833,231.5 375.167,231.5 375.5,231.5C 374.439,233.532 372.772,234.866 370.5,235.5C 364.852,236.172 359.352,237.172 354,238.5C 352.014,238.431 350.514,237.765 349.5,236.5C 351.379,237.341 353.379,237.675 355.5,237.5C 361.408,236.341 367.075,234.674 372.5,232.5C 373.167,232.167 373.833,231.833 374.5,231.5 Z"/></g>
<g><path style="opacity:1" fill="#f2d05b" d="M 61.5,250.5 C 62.4959,250.414 63.3292,250.748 64,251.5C 64.4058,257.849 64.9058,264.183 65.5,270.5C 63.3222,264.124 61.9889,257.457 61.5,250.5 Z"/></g>
<g><path style="opacity:1" fill="#606060" d="M 228.5,263.5 C 252.169,263.333 275.836,263.5 299.5,264C 298.956,264.717 298.289,265.217 297.5,265.5C 274.5,264.833 251.5,264.167 228.5,263.5 Z"/></g>
<g><path style="opacity:1" fill="#8f8f8f" d="M 224.5,263.5 C 225.833,263.5 227.167,263.5 228.5,263.5C 251.5,264.167 274.5,264.833 297.5,265.5C 297.027,266.906 296.027,267.573 294.5,267.5C 273.831,267.667 253.164,267.5 232.5,267C 229.401,266.613 226.734,265.446 224.5,263.5 Z"/></g>
<g><path style="opacity:1" fill="#f4ca43" d="M 65.5,271.5 C 66.5,271.5 67.5,271.5 68.5,271.5C 68.182,277.783 69.682,283.45 73,288.5C 73.1705,286.285 73.8372,284.285 75,282.5C 75.5726,286.686 75.406,290.853 74.5,295C 75.6066,299.791 77.6066,304.124 80.5,308C 81.0767,310.137 81.41,312.304 81.5,314.5C 73.8197,301.136 68.4864,286.802 65.5,271.5 Z"/></g>
<g><path style="opacity:0.373" fill="#a8a8a8" d="M 272.5,296.5 C 271.473,297.848 270.14,298.348 268.5,298C 269.563,296.812 270.897,296.312 272.5,296.5 Z"/></g>
<g><path style="opacity:1" fill="#efd363" d="M 189.5,329.5 C 188.013,331.605 186.013,333.272 183.5,334.5C 184.952,335.94 185.952,337.606 186.5,339.5C 184.519,337.856 182.519,336.19 180.5,334.5C 183.035,332.064 186.035,330.397 189.5,329.5 Z"/></g>
<g><path style="opacity:1" fill="#efd15d" d="M 179.5,342.5 C 178.033,342.106 176.533,341.773 175,341.5C 169.043,343.891 162.876,344.725 156.5,344C 155.944,343.617 155.611,343.117 155.5,342.5C 162.369,343.468 169.035,342.468 175.5,339.5C 177.417,339.754 178.751,340.754 179.5,342.5 Z"/></g>
<g><path style="opacity:1" fill="#f3cb40" d="M 119.5,365.5 C 111.44,357.105 104.106,348.105 97.5,338.5C 98.6948,338.678 99.8615,339.011 101,339.5C 102.3,338.293 103.8,337.626 105.5,337.5C 104.188,340.024 103.688,342.691 104,345.5C 105.444,347.155 107.278,347.822 109.5,347.5C 110.671,350.054 111.671,352.72 112.5,355.5C 113.167,354.833 113.833,354.167 114.5,353.5C 117.66,354.725 117.994,356.225 115.5,358C 117.126,360.406 118.459,362.906 119.5,365.5 Z"/></g>
<g><path style="opacity:1" fill="#f6c417" d="M 242.5,356.5 C 244.442,360.576 244.942,364.909 244,369.5C 242.018,371.358 240.852,373.691 240.5,376.5C 238.955,377.452 237.288,377.785 235.5,377.5C 230.254,374.589 225.587,370.922 221.5,366.5C 219.92,362.337 216.92,360.004 212.5,359.5C 203.548,353.216 194.882,346.55 186.5,339.5C 185.952,337.606 184.952,335.94 183.5,334.5C 186.013,333.272 188.013,331.605 189.5,329.5C 194.744,324.92 200.41,324.42 206.5,328C 218.751,337.279 230.751,346.779 242.5,356.5 Z"/></g>
<g><path style="opacity:1" fill="#f5d468" d="M 212.5,359.5 C 216.92,360.004 219.92,362.337 221.5,366.5C 218.208,364.542 215.208,362.209 212.5,359.5 Z"/></g>
<g><path style="opacity:1" fill="#f1cd51" d="M 242.5,356.5 C 245.042,358.248 246.376,360.748 246.5,364C 245.072,370.283 243.239,376.45 241,382.5C 238.672,381.336 236.838,379.67 235.5,377.5C 237.288,377.785 238.955,377.452 240.5,376.5C 240.852,373.691 242.018,371.358 244,369.5C 244.942,364.909 244.442,360.576 242.5,356.5 Z"/></g>
<g><path style="opacity:1" fill="#f2ce4f" d="M 230.5,382.5 C 233.262,382.886 234.262,384.219 233.5,386.5C 218.502,395.444 202.335,401.111 185,403.5C 181.303,403.145 177.803,402.478 174.5,401.5C 181.563,401.788 188.563,401.288 195.5,400C 197.455,399.047 199.122,397.713 200.5,396C 204.5,395.667 208.5,395.333 212.5,395C 215.747,392.636 219.413,391.136 223.5,390.5C 223.351,389.448 223.517,388.448 224,387.5C 225.734,386.751 227.567,386.251 229.5,386C 230.337,384.989 230.67,383.822 230.5,382.5 Z"/></g>
<g><path style="opacity:1" fill="#efcb4d" d="M 153.5,393.5 C 156.216,393.678 158.883,394.178 161.5,395C 163.904,396.822 166.57,398.156 169.5,399C 170.381,399.708 171.047,400.542 171.5,401.5C 164.929,399.876 158.929,397.21 153.5,393.5 Z"/></g>
</svg>
