<?xml version="1.0" encoding="UTF-8"?>
<!DOCTYPE svg PUBLIC "-//W3C//DTD SVG 1.1//EN" "http://www.w3.org/Graphics/SVG/1.1/DTD/svg11.dtd">
<svg xmlns="http://www.w3.org/2000/svg" version="1.1" width="500px" height="500px" style="shape-rendering:geometricPrecision; text-rendering:geometricPrecision; image-rendering:optimizeQuality; fill-rule:evenodd; clip-rule:evenodd" xmlns:xlink="http://www.w3.org/1999/xlink">
<g><path style="opacity:0.486" fill="#f9b2a7" d="M 260.5,50.5 C 258.833,50.5 257.167,50.5 255.5,50.5C 249.833,50.5 244.167,50.5 238.5,50.5C 238.5,52.5 238.5,54.5 238.5,56.5C 237.532,54.3926 237.198,52.0593 237.5,49.5C 245.352,49.1746 253.018,49.508 260.5,50.5 Z"/></g>
<g><path style="opacity:0.988" fill="#d47e6d" d="M 255.5,50.5 C 257.167,50.5 258.833,50.5 260.5,50.5C 263.898,50.1796 267.232,50.513 270.5,51.5C 269.911,54.6404 269.244,57.6404 268.5,60.5C 268.5,57.5 268.5,54.5 268.5,51.5C 263.968,51.8182 259.634,51.4849 255.5,50.5 Z"/></g>
<g><path style="opacity:1" fill="#e25e43" d="M 255.5,50.5 C 259.634,51.4849 263.968,51.8182 268.5,51.5C 268.5,54.5 268.5,57.5 268.5,60.5C 268.167,60.5 267.833,60.5 267.5,60.5C 267.5,57.8333 267.5,55.1667 267.5,52.5C 264.753,52.1866 262.086,52.52 259.5,53.5C 258.243,55.6789 256.743,57.6789 255,59.5C 250.263,58.5308 245.43,58.1975 240.5,58.5C 240.338,60.5273 240.505,62.5273 241,64.5C 242.131,63.3961 242.965,63.7295 243.5,65.5C 242.877,68.4451 242.544,71.4451 242.5,74.5C 244.159,83.3196 244.825,92.3196 244.5,101.5C 244.167,101.5 243.833,101.5 243.5,101.5C 241.323,86.5738 239.656,71.5738 238.5,56.5C 238.5,54.5 238.5,52.5 238.5,50.5C 244.167,50.5 249.833,50.5 255.5,50.5 Z"/></g>
<g><path style="opacity:1" fill="#e5816b" d="M 267.5,60.5 C 267.833,60.5 268.167,60.5 268.5,60.5C 267.883,72.3878 266.55,84.0545 264.5,95.5C 264.5,94.1667 264.5,92.8333 264.5,91.5C 263.93,80.925 264.93,70.5916 267.5,60.5 Z"/></g>
<g><path style="opacity:1" fill="#e64d31" d="M 267.5,60.5 C 264.93,70.5916 263.93,80.925 264.5,91.5C 263.732,92.2625 263.232,93.2625 263,94.5C 262.555,100.18 262.055,105.846 261.5,111.5C 261.5,114.5 261.5,117.5 261.5,120.5C 261.81,123.713 261.477,126.713 260.5,129.5C 256.486,131.334 252.153,132.001 247.5,131.5C 247.768,129.901 247.434,128.568 246.5,127.5C 245.656,123.901 245.323,120.234 245.5,116.5C 245.726,111.438 245.392,106.438 244.5,101.5C 244.825,92.3196 244.159,83.3196 242.5,74.5C 242.544,71.4451 242.877,68.4451 243.5,65.5C 242.965,63.7295 242.131,63.3961 241,64.5C 240.505,62.5273 240.338,60.5273 240.5,58.5C 245.43,58.1975 250.263,58.5308 255,59.5C 256.743,57.6789 258.243,55.6789 259.5,53.5C 262.086,52.52 264.753,52.1866 267.5,52.5C 267.5,55.1667 267.5,57.8333 267.5,60.5 Z"/></g>
<g><path style="opacity:1" fill="#de9c90" d="M 328.5,75.5 C 326.708,75.366 325.042,75.6993 323.5,76.5C 324.32,73.2071 325.987,72.8738 328.5,75.5 Z"/></g>
<g><path style="opacity:1" fill="#ea937f" d="M 328.5,75.5 C 331.018,76.2638 333.351,77.2638 335.5,78.5C 334.167,78.5 332.833,78.5 331.5,78.5C 329.856,78.1898 328.856,77.1898 328.5,75.5 Z"/></g>
<g><path style="opacity:0.537" fill="#e29794" d="M 182.5,79.5 C 180.5,79.5 178.5,79.5 176.5,79.5C 177.772,78.5657 179.272,77.899 181,77.5C 182.03,77.8361 182.53,78.5028 182.5,79.5 Z"/></g>
<g><path style="opacity:1" fill="#e36e57" d="M 331.5,78.5 C 332.833,78.5 334.167,78.5 335.5,78.5C 340.689,80.5968 345.689,82.9302 350.5,85.5C 346.538,85.5927 342.871,84.5927 339.5,82.5C 338.446,82.6799 337.446,83.0133 336.5,83.5C 335.289,82.7261 335.289,81.8928 336.5,81C 334.509,80.6264 332.842,79.793 331.5,78.5 Z"/></g>
<g><path style="opacity:1" fill="#e38c7c" d="M 323.5,76.5 C 323.196,79.5219 322.696,82.5219 322,85.5C 321.292,86.3805 320.458,87.0472 319.5,87.5C 320.462,83.6052 321.796,79.9385 323.5,76.5 Z"/></g>
<g><path style="opacity:1" fill="#db7d6a" d="M 164.5,84.5 C 162.824,86.8337 160.491,87.8337 157.5,87.5C 159.509,85.9348 161.843,84.9348 164.5,84.5 Z"/></g>
<g><path style="opacity:1" fill="#df6a57" d="M 157.5,87.5 C 155.164,90.9173 151.831,92.2507 147.5,91.5C 150.54,89.6541 153.873,88.3208 157.5,87.5 Z"/></g>
<g><path style="opacity:1" fill="#e64c30" d="M 328.5,75.5 C 328.856,77.1898 329.856,78.1898 331.5,78.5C 332.842,79.793 334.509,80.6264 336.5,81C 335.289,81.8928 335.289,82.7261 336.5,83.5C 337.446,83.0133 338.446,82.6799 339.5,82.5C 342.871,84.5927 346.538,85.5927 350.5,85.5C 350.833,85.5 351.167,85.5 351.5,85.5C 351.414,86.4959 351.748,87.3292 352.5,88C 354.436,88.813 356.436,89.313 358.5,89.5C 358.5,90.8333 358.5,92.1667 358.5,93.5C 357.178,93.67 356.011,93.3366 355,92.5C 354.982,94.7972 355.149,97.1305 355.5,99.5C 355.5,99.8333 355.5,100.167 355.5,100.5C 353.648,99.9111 351.815,99.2444 350,98.5C 350.487,100.044 350.987,101.71 351.5,103.5C 350.5,103.5 349.5,103.5 348.5,103.5C 347.594,106.436 346.928,109.436 346.5,112.5C 344.952,112.821 344.285,113.821 344.5,115.5C 344.573,117.027 343.906,118.027 342.5,118.5C 340.801,118.34 339.134,118.506 337.5,119C 338.939,121.305 338.439,123.138 336,124.5C 335.51,125.793 335.343,127.127 335.5,128.5C 334.504,128.586 333.671,128.252 333,127.5C 331.186,130.618 330.019,133.951 329.5,137.5C 329.167,138.167 328.833,138.833 328.5,139.5C 327.167,139.5 325.833,139.5 324.5,139.5C 324.5,141.167 324.5,142.833 324.5,144.5C 323.504,144.414 322.671,144.748 322,145.5C 321.015,147.641 319.848,149.641 318.5,151.5C 317.417,151.539 316.417,151.873 315.5,152.5C 313.483,155.55 312.483,158.883 312.5,162.5C 309.518,162.963 306.518,163.296 303.5,163.5C 300.193,162.684 298.527,160.517 298.5,157C 299.167,153.987 300.333,151.154 302,148.5C 302.936,144.886 303.436,141.22 303.5,137.5C 303.5,137.167 303.5,136.833 303.5,136.5C 304.458,136.047 305.292,135.381 306,134.5C 306.696,131.522 307.196,128.522 307.5,125.5C 307.5,125.167 307.5,124.833 307.5,124.5C 308.458,124.047 309.292,123.381 310,122.5C 310.696,119.522 311.196,116.522 311.5,113.5C 311.5,113.167 311.5,112.833 311.5,112.5C 312.458,112.047 313.292,111.381 314,110.5C 314.696,107.522 315.196,104.522 315.5,101.5C 315.5,101.167 315.5,100.833 315.5,100.5C 316.15,100.196 316.817,99.8627 317.5,99.5C 318.598,96.2473 319.264,92.9139 319.5,89.5C 319.5,88.8333 319.5,88.1667 319.5,87.5C 320.458,87.0472 321.292,86.3805 322,85.5C 322.696,82.5219 323.196,79.5219 323.5,76.5C 325.042,75.6993 326.708,75.366 328.5,75.5 Z"/></g>
<g><path style="opacity:0.729" fill="#e6beb5" d="M 360.5,89.5 C 363.167,90.5 363.167,91.5 360.5,92.5C 360.5,91.5 360.5,90.5 360.5,89.5 Z"/></g>
<g><path style="opacity:1" fill="#e1755f" d="M 351.5,85.5 C 354.618,86.5587 357.618,87.8921 360.5,89.5C 360.5,90.5 360.5,91.5 360.5,92.5C 359.189,95.1354 357.522,97.4687 355.5,99.5C 355.149,97.1305 354.982,94.7972 355,92.5C 356.011,93.3366 357.178,93.67 358.5,93.5C 358.5,92.1667 358.5,90.8333 358.5,89.5C 356.436,89.313 354.436,88.813 352.5,88C 351.748,87.3292 351.414,86.4959 351.5,85.5 Z"/></g>
<g><path style="opacity:1" fill="#dd9082" d="M 147.5,91.5 C 146.47,94.1038 146.47,96.7705 147.5,99.5C 146.067,97.4809 144.733,95.3143 143.5,93C 144.745,92.2086 146.078,91.7086 147.5,91.5 Z"/></g>
<g><path style="opacity:1" fill="#de7160" d="M 319.5,89.5 C 319.264,92.9139 318.598,96.2473 317.5,99.5C 316.817,99.8627 316.15,100.196 315.5,100.5C 316.462,96.6052 317.796,92.9385 319.5,89.5 Z"/></g>
<g><path style="opacity:1" fill="#e57661" d="M 355.5,100.5 C 352.488,104.538 349.488,108.538 346.5,112.5C 346.928,109.436 347.594,106.436 348.5,103.5C 349.5,103.5 350.5,103.5 351.5,103.5C 350.987,101.71 350.487,100.044 350,98.5C 351.815,99.2444 353.648,99.9111 355.5,100.5 Z"/></g>
<g><path style="opacity:1" fill="#e0644e" d="M 147.5,99.5 C 149.124,99.3601 150.29,100.027 151,101.5C 151.333,101.167 151.667,100.833 152,100.5C 152.495,102.473 152.662,104.473 152.5,106.5C 153.5,106.5 154.5,106.5 155.5,106.5C 155.5,109.167 155.5,111.833 155.5,114.5C 152.582,109.667 149.916,104.667 147.5,99.5 Z"/></g>
<g><path style="opacity:1" fill="#dc705d" d="M 176.5,79.5 C 178.5,79.5 180.5,79.5 182.5,79.5C 185.422,92.4423 188.088,105.442 190.5,118.5C 189.883,118.389 189.383,118.056 189,117.5C 186.027,105.172 183.193,92.8382 180.5,80.5C 175.184,81.8198 169.851,83.1531 164.5,84.5C 168.203,82.3213 172.203,80.6546 176.5,79.5 Z"/></g>
<g><path style="opacity:1" fill="#e28f7e" d="M 243.5,101.5 C 243.833,101.5 244.167,101.5 244.5,101.5C 245.392,106.438 245.726,111.438 245.5,116.5C 244.275,111.71 243.608,106.71 243.5,101.5 Z"/></g>
<g><path style="opacity:1" fill="#da715b" d="M 264.5,91.5 C 264.5,92.8333 264.5,94.1667 264.5,95.5C 264.414,99.8566 264.08,104.19 263.5,108.5C 262.833,109.5 262.167,110.5 261.5,111.5C 262.055,105.846 262.555,100.18 263,94.5C 263.232,93.2625 263.732,92.2625 264.5,91.5 Z"/></g>
<g><path style="opacity:1" fill="#db7664" d="M 315.5,101.5 C 315.196,104.522 314.696,107.522 314,110.5C 313.292,111.381 312.458,112.047 311.5,112.5C 312.462,108.605 313.796,104.939 315.5,101.5 Z"/></g>
<g><path style="opacity:0.863" fill="#e49686" d="M 346.5,112.5 C 346.573,114.027 345.906,115.027 344.5,115.5C 344.285,113.821 344.952,112.821 346.5,112.5 Z"/></g>
<g><path style="opacity:0.678" fill="#e7a49a" d="M 263.5,108.5 C 263.149,112.684 262.482,116.684 261.5,120.5C 261.5,117.5 261.5,114.5 261.5,111.5C 262.167,110.5 262.833,109.5 263.5,108.5 Z"/></g>
<g><path style="opacity:1" fill="#e64c30" d="M 190.5,118.5 C 190.5,118.833 190.5,119.167 190.5,119.5C 190.335,122.518 190.502,125.518 191,128.5C 191.2,130.32 192.034,131.653 193.5,132.5C 193.5,132.833 193.5,133.167 193.5,133.5C 193.801,139.511 194.301,145.511 195,151.5C 195.737,153.596 196.903,155.263 198.5,156.5C 198.5,156.833 198.5,157.167 198.5,157.5C 198.5,160.5 198.5,163.5 198.5,166.5C 196.856,166.714 195.356,166.38 194,165.5C 193.506,167.134 193.34,168.801 193.5,170.5C 190.833,170.5 188.167,170.5 185.5,170.5C 185.5,170.167 185.5,169.833 185.5,169.5C 185.216,166.746 184.549,164.08 183.5,161.5C 179.801,156.094 176.467,150.427 173.5,144.5C 173.043,143.702 172.376,143.369 171.5,143.5C 171.625,140.392 170.292,138.392 167.5,137.5C 166.559,135.95 165.893,134.284 165.5,132.5C 163.755,126.555 161.255,120.888 158,115.5C 157.329,114.748 156.496,114.414 155.5,114.5C 155.5,111.833 155.5,109.167 155.5,106.5C 154.5,106.5 153.5,106.5 152.5,106.5C 152.662,104.473 152.495,102.473 152,100.5C 151.667,100.833 151.333,101.167 151,101.5C 150.29,100.027 149.124,99.3601 147.5,99.5C 146.47,96.7705 146.47,94.1038 147.5,91.5C 151.831,92.2507 155.164,90.9173 157.5,87.5C 160.491,87.8337 162.824,86.8337 164.5,84.5C 169.851,83.1531 175.184,81.8198 180.5,80.5C 183.193,92.8382 186.027,105.172 189,117.5C 189.383,118.056 189.883,118.389 190.5,118.5 Z"/></g>
<g><path style="opacity:1" fill="#dc7963" d="M 311.5,113.5 C 311.196,116.522 310.696,119.522 310,122.5C 309.292,123.381 308.458,124.047 307.5,124.5C 308.462,120.605 309.796,116.939 311.5,113.5 Z"/></g>
<g><path style="opacity:1" fill="#df7c6b" d="M 155.5,114.5 C 156.496,114.414 157.329,114.748 158,115.5C 161.255,120.888 163.755,126.555 165.5,132.5C 161.675,126.857 158.342,120.857 155.5,114.5 Z"/></g>
<g><path style="opacity:1" fill="#e37e67" d="M 342.5,118.5 C 340.656,122.192 338.323,125.525 335.5,128.5C 335.343,127.127 335.51,125.793 336,124.5C 338.439,123.138 338.939,121.305 337.5,119C 339.134,118.506 340.801,118.34 342.5,118.5 Z"/></g>
<g><path style="opacity:1" fill="#de7b65" d="M 190.5,119.5 C 192.118,123.575 193.118,127.908 193.5,132.5C 192.034,131.653 191.2,130.32 191,128.5C 190.502,125.518 190.335,122.518 190.5,119.5 Z"/></g>
<g><path style="opacity:0.894" fill="#dd9b89" d="M 456.5,130.5 C 455.292,129.766 453.959,129.433 452.5,129.5C 454.423,126.782 455.756,127.116 456.5,130.5 Z"/></g>
<g><path style="opacity:1" fill="#dd826e" d="M 49.5,131.5 C 46.5176,129.923 43.8509,130.256 41.5,132.5C 41.7713,130.688 42.438,129.022 43.5,127.5C 45.8132,128.5 47.8132,129.834 49.5,131.5 Z"/></g>
<g><path style="opacity:1" fill="#d97d73" d="M 246.5,127.5 C 247.434,128.568 247.768,129.901 247.5,131.5C 252.153,132.001 256.486,131.334 260.5,129.5C 260.5,130.833 260.5,132.167 260.5,133.5C 255.819,133.331 251.152,132.998 246.5,132.5C 246.5,130.833 246.5,129.167 246.5,127.5 Z"/></g>
<g><path style="opacity:1" fill="#e9826c" d="M 335.5,128.5 C 334.241,132.025 332.241,135.025 329.5,137.5C 330.019,133.951 331.186,130.618 333,127.5C 333.671,128.252 334.504,128.586 335.5,128.5 Z"/></g>
<g><path style="opacity:1" fill="#df7a69" d="M 307.5,125.5 C 307.196,128.522 306.696,131.522 306,134.5C 305.292,135.381 304.458,136.047 303.5,136.5C 304.462,132.605 305.796,128.939 307.5,125.5 Z"/></g>
<g><path style="opacity:1" fill="#df6751" d="M 452.5,129.5 C 453.959,129.433 455.292,129.766 456.5,130.5C 458.065,132.509 459.065,134.843 459.5,137.5C 458.33,135.721 456.664,134.721 454.5,134.5C 454.992,129.792 453.659,129.292 450.5,133C 449.207,133.49 447.873,133.657 446.5,133.5C 448.147,131.674 450.147,130.34 452.5,129.5 Z"/></g>
<g><path style="opacity:0.918" fill="#eb9888" d="M 446.5,133.5 C 446.027,134.906 445.027,135.573 443.5,135.5C 443.973,134.094 444.973,133.427 446.5,133.5 Z"/></g>
<g><path style="opacity:0.918" fill="#e89289" d="M 443.5,135.5 C 443.027,136.906 442.027,137.573 440.5,137.5C 440.973,136.094 441.973,135.427 443.5,135.5 Z"/></g>
<g><path style="opacity:0.914" fill="#e49486" d="M 440.5,137.5 C 440.027,138.906 439.027,139.573 437.5,139.5C 437.973,138.094 438.973,137.427 440.5,137.5 Z"/></g>
<g><path style="opacity:1" fill="#da7159" d="M 41.5,132.5 C 41.0371,135.482 40.7038,138.482 40.5,141.5C 39.5,141.5 38.5,141.5 37.5,141.5C 38.4629,138.256 39.7962,135.256 41.5,132.5 Z"/></g>
<g><path style="opacity:0.929" fill="#dc8371" d="M 167.5,137.5 C 170.292,138.392 171.625,140.392 171.5,143.5C 169.808,141.795 168.475,139.795 167.5,137.5 Z"/></g>
<g><path style="opacity:1" fill="#e27d6d" d="M 328.5,139.5 C 327.396,141.389 326.063,143.055 324.5,144.5C 324.5,142.833 324.5,141.167 324.5,139.5C 325.833,139.5 327.167,139.5 328.5,139.5 Z"/></g>
<g><path style="opacity:1" fill="#e64c30" d="M 49.5,131.5 C 52.7089,133.265 55.7089,135.265 58.5,137.5C 59.5025,139.011 60.1692,140.678 60.5,142.5C 64.0442,142.239 65.8775,143.905 66,147.5C 68.4321,146.55 70.9321,146.55 73.5,147.5C 74.5025,149.011 75.1692,150.678 75.5,152.5C 79.9221,151.919 81.7555,153.585 81,157.5C 82.4705,156.733 83.9705,156.067 85.5,155.5C 85.8333,155.5 86.1667,155.5 86.5,155.5C 86.6282,157.09 87.2949,158.423 88.5,159.5C 90.6444,161.151 92.9778,162.485 95.5,163.5C 96.2811,164.729 96.7811,166.062 97,167.5C 98.1127,166.695 99.2794,166.028 100.5,165.5C 102.969,166.569 105.302,167.902 107.5,169.5C 107.539,170.583 107.873,171.583 108.5,172.5C 111.025,175.762 114.358,177.429 118.5,177.5C 118.586,178.496 118.252,179.329 117.5,180C 119.436,180.813 121.436,181.313 123.5,181.5C 123.5,182.5 123.5,183.5 123.5,184.5C 126.803,185.439 130.136,186.439 133.5,187.5C 135.853,188.34 137.853,189.674 139.5,191.5C 139.5,192.5 139.5,193.5 139.5,194.5C 142.588,194.197 144.254,195.53 144.5,198.5C 146.806,198.993 149.139,199.326 151.5,199.5C 151.833,199.5 152.167,199.5 152.5,199.5C 153.265,202.096 153.599,204.763 153.5,207.5C 153.768,209.099 153.434,210.432 152.5,211.5C 151.596,212.209 151.263,213.209 151.5,214.5C 146.848,214.002 142.181,213.669 137.5,213.5C 137.167,213.5 136.833,213.5 136.5,213.5C 136.196,212.85 135.863,212.183 135.5,211.5C 126.762,208.948 117.762,207.614 108.5,207.5C 108.167,207.5 107.833,207.5 107.5,207.5C 106.319,205.933 104.653,205.099 102.5,205C 99.854,204.503 97.1873,204.336 94.5,204.5C 94.1667,204.5 93.8333,204.5 93.5,204.5C 92.0975,203.069 90.4308,201.902 88.5,201C 76.3806,198.086 64.0472,196.253 51.5,195.5C 51.1667,195.5 50.8333,195.5 50.5,195.5C 48.4319,194.625 46.4319,193.459 44.5,192C 38.8507,191.243 33.184,190.743 27.5,190.5C 27.1667,190.5 26.8333,190.5 26.5,190.5C 25.158,189.207 23.4913,188.374 21.5,188C 20.9415,187.275 20.6082,186.442 20.5,185.5C 22.4317,182.439 23.4317,179.105 23.5,175.5C 23.5,175.167 23.5,174.833 23.5,174.5C 24.5,174.5 25.5,174.5 26.5,174.5C 26.7038,171.482 27.0371,168.482 27.5,165.5C 28.5,165.5 29.5,165.5 30.5,165.5C 31.7947,160.977 32.7947,156.31 33.5,151.5C 36.6125,149.36 37.9459,146.36 37.5,142.5C 37.5,142.167 37.5,141.833 37.5,141.5C 38.5,141.5 39.5,141.5 40.5,141.5C 40.7038,138.482 41.0371,135.482 41.5,132.5C 43.8509,130.256 46.5176,129.923 49.5,131.5 Z"/></g>
<g><path style="opacity:1" fill="#e64d31" d="M 459.5,137.5 C 459.403,143.171 461.403,147.838 465.5,151.5C 465.678,154.216 466.178,156.883 467,159.5C 467.671,160.252 468.504,160.586 469.5,160.5C 469.5,160.833 469.5,161.167 469.5,161.5C 469.198,165.38 470.531,168.38 473.5,170.5C 473.733,174.436 474.733,178.103 476.5,181.5C 476.682,183.591 476.348,185.591 475.5,187.5C 473.025,187.964 471.025,188.964 469.5,190.5C 465.878,190.322 462.544,190.989 459.5,192.5C 451.072,192.654 442.906,193.988 435,196.5C 433.439,196.397 431.939,196.063 430.5,195.5C 429.494,195.938 429.494,196.604 430.5,197.5C 428.116,198.011 426.116,199.011 424.5,200.5C 422.735,201.461 420.735,201.795 418.5,201.5C 416.143,201.337 413.81,201.503 411.5,202C 410.944,202.383 410.611,202.883 410.5,203.5C 402.323,205.802 393.989,207.469 385.5,208.5C 381.818,208.335 378.152,208.501 374.5,209C 375.416,209.278 376.082,209.778 376.5,210.5C 375.081,211.451 373.415,211.784 371.5,211.5C 363.488,212.035 355.488,212.701 347.5,213.5C 346.669,209.524 346.503,205.524 347,201.5C 348.518,200.837 349.685,199.837 350.5,198.5C 350.833,197.833 351.167,197.167 351.5,196.5C 353.027,196.573 354.027,195.906 354.5,194.5C 356.027,194.573 357.027,193.906 357.5,192.5C 359.027,192.573 360.027,191.906 360.5,190.5C 362.027,190.573 363.027,189.906 363.5,188.5C 365.027,188.573 366.027,187.906 366.5,186.5C 368.027,186.573 369.027,185.906 369.5,184.5C 371.027,184.573 372.027,183.906 372.5,182.5C 374.027,182.573 375.027,181.906 375.5,180.5C 377.027,180.573 378.027,179.906 378.5,178.5C 380.027,178.573 381.027,177.906 381.5,176.5C 383.027,176.573 384.027,175.906 384.5,174.5C 385.167,174.5 385.833,174.5 386.5,174.5C 389.514,174.148 392.014,172.815 394,170.5C 394.5,170.667 395,170.833 395.5,171C 394.549,171.718 394.383,172.551 395,173.5C 396.044,172.377 396.71,171.044 397,169.5C 397.667,170.167 398.333,170.833 399,171.5C 399.333,169.833 399.667,168.167 400,166.5C 402.391,165.61 403.891,163.943 404.5,161.5C 408.691,161.241 411.691,159.241 413.5,155.5C 416.588,155.623 419.255,154.623 421.5,152.5C 423.782,153.223 426.116,153.557 428.5,153.5C 428.52,151.857 427.853,150.524 426.5,149.5C 427.966,147.343 429.8,147.01 432,148.5C 432.49,147.207 432.657,145.873 432.5,144.5C 435.255,144.037 436.922,142.37 437.5,139.5C 439.027,139.573 440.027,138.906 440.5,137.5C 442.027,137.573 443.027,136.906 443.5,135.5C 445.027,135.573 446.027,134.906 446.5,133.5C 447.873,133.657 449.207,133.49 450.5,133C 453.659,129.292 454.992,129.792 454.5,134.5C 456.664,134.721 458.33,135.721 459.5,137.5 Z"/></g>
<g><path style="opacity:1" fill="#e0856f" d="M 459.5,137.5 C 462.012,141.866 464.012,146.533 465.5,151.5C 461.403,147.838 459.403,143.171 459.5,137.5 Z"/></g>
<g><path style="opacity:1" fill="#dc7161" d="M 37.5,142.5 C 37.9459,146.36 36.6125,149.36 33.5,151.5C 34.0749,148.088 35.4082,145.088 37.5,142.5 Z"/></g>
<g><path style="opacity:1" fill="#de6751" d="M 58.5,137.5 C 63.7089,140.598 68.7089,143.932 73.5,147.5C 70.9321,146.55 68.4321,146.55 66,147.5C 65.8775,143.905 64.0442,142.239 60.5,142.5C 60.1692,140.678 59.5025,139.011 58.5,137.5 Z"/></g>
<g><path style="opacity:1" fill="#dc6b54" d="M 193.5,133.5 C 195.785,140.913 197.451,148.58 198.5,156.5C 196.903,155.263 195.737,153.596 195,151.5C 194.301,145.511 193.801,139.511 193.5,133.5 Z"/></g>
<g><path style="opacity:0.98" fill="#e0907e" d="M 324.5,144.5 C 323.241,148.025 321.241,151.025 318.5,153.5C 318.5,152.833 318.5,152.167 318.5,151.5C 319.848,149.641 321.015,147.641 322,145.5C 322.671,144.748 323.504,144.414 324.5,144.5 Z"/></g>
<g><path style="opacity:1" fill="#e07a65" d="M 171.5,143.5 C 172.376,143.369 173.043,143.702 173.5,144.5C 176.467,150.427 179.801,156.094 183.5,161.5C 184.549,164.08 185.216,166.746 185.5,169.5C 180.328,161.16 175.662,152.493 171.5,143.5 Z"/></g>
<g><path style="opacity:0.937" fill="#e5957f" d="M 422.5,149.5 C 422.027,150.906 421.027,151.573 419.5,151.5C 419.973,150.094 420.973,149.427 422.5,149.5 Z"/></g>
<g><path style="opacity:1" fill="#e07359" d="M 73.5,147.5 C 77.8811,149.684 81.8811,152.35 85.5,155.5C 83.9705,156.067 82.4705,156.733 81,157.5C 81.7555,153.585 79.9221,151.919 75.5,152.5C 75.1692,150.678 74.5025,149.011 73.5,147.5 Z"/></g>
<g><path style="opacity:1" fill="#de7565" d="M 303.5,137.5 C 303.436,141.22 302.936,144.886 302,148.5C 300.333,151.154 299.167,153.987 298.5,157C 298.527,160.517 300.193,162.684 303.5,163.5C 300.063,163.755 297.396,162.588 295.5,160C 297.902,152.288 300.568,144.788 303.5,137.5 Z"/></g>
<g><path style="opacity:1" fill="#e15c42" d="M 437.5,139.5 C 436.922,142.37 435.255,144.037 432.5,144.5C 432.657,145.873 432.49,147.207 432,148.5C 429.8,147.01 427.966,147.343 426.5,149.5C 427.853,150.524 428.52,151.857 428.5,153.5C 426.116,153.557 423.782,153.223 421.5,152.5C 419.255,154.623 416.588,155.623 413.5,155.5C 415.147,153.674 417.147,152.34 419.5,151.5C 421.027,151.573 422.027,150.906 422.5,149.5C 426.976,145.425 431.976,142.092 437.5,139.5 Z"/></g>
<g><path style="opacity:1" fill="#e56e5b" d="M 318.5,151.5 C 318.5,152.167 318.5,152.833 318.5,153.5C 316.735,156.709 314.735,159.709 312.5,162.5C 312.483,158.883 313.483,155.55 315.5,152.5C 316.417,151.873 317.417,151.539 318.5,151.5 Z"/></g>
<g><path style="opacity:1" fill="#da6c52" d="M 33.5,151.5 C 32.7947,156.31 31.7947,160.977 30.5,165.5C 29.5,165.5 28.5,165.5 27.5,165.5C 28.9884,160.533 30.9884,155.866 33.5,151.5 Z"/></g>
<g><path style="opacity:1" fill="#df7a65" d="M 465.5,151.5 C 467.204,154.256 468.537,157.256 469.5,160.5C 468.504,160.586 467.671,160.252 467,159.5C 466.178,156.883 465.678,154.216 465.5,151.5 Z"/></g>
<g><path style="opacity:1" fill="#dd6b55" d="M 413.5,155.5 C 411.691,159.241 408.691,161.241 404.5,161.5C 406.975,158.759 409.975,156.759 413.5,155.5 Z"/></g>
<g><path style="opacity:1" fill="#de8272" d="M 312.5,162.5 C 311.809,164.022 310.642,165.022 309,165.5C 306.97,165.046 305.137,164.38 303.5,163.5C 306.518,163.296 309.518,162.963 312.5,162.5 Z"/></g>
<g><path style="opacity:1" fill="#e47260" d="M 198.5,157.5 C 202.338,163.989 200.671,168.323 193.5,170.5C 193.34,168.801 193.506,167.134 194,165.5C 195.356,166.38 196.856,166.714 198.5,166.5C 198.5,163.5 198.5,160.5 198.5,157.5 Z"/></g>
<g><path style="opacity:1" fill="#df745a" d="M 86.5,155.5 C 91.4685,158.478 96.1352,161.811 100.5,165.5C 99.2794,166.028 98.1127,166.695 97,167.5C 96.7811,166.062 96.2811,164.729 95.5,163.5C 92.9778,162.485 90.6444,161.151 88.5,159.5C 87.2949,158.423 86.6282,157.09 86.5,155.5 Z"/></g>
<g><path style="opacity:1" fill="#e15b44" d="M 404.5,161.5 C 403.891,163.943 402.391,165.61 400,166.5C 399.667,168.167 399.333,169.833 399,171.5C 398.333,170.833 397.667,170.167 397,169.5C 396.71,171.044 396.044,172.377 395,173.5C 394.383,172.551 394.549,171.718 395.5,171C 395,170.833 394.5,170.667 394,170.5C 392.014,172.815 389.514,174.148 386.5,174.5C 386.833,173.833 387.167,173.167 387.5,172.5C 389.027,172.573 390.027,171.906 390.5,170.5C 394.819,167.004 399.485,164.004 404.5,161.5 Z"/></g>
<g><path style="opacity:1" fill="#e17161" d="M 469.5,161.5 C 471.592,164.088 472.925,167.088 473.5,170.5C 470.531,168.38 469.198,165.38 469.5,161.5 Z"/></g>
<g><path style="opacity:0.741" fill="#f0b1a2" d="M 390.5,170.5 C 390.027,171.906 389.027,172.573 387.5,172.5C 387.973,171.094 388.973,170.427 390.5,170.5 Z"/></g>
<g><path style="opacity:1" fill="#dd7462" d="M 107.5,169.5 C 111.382,171.934 115.048,174.601 118.5,177.5C 114.358,177.429 111.025,175.762 108.5,172.5C 107.873,171.583 107.539,170.583 107.5,169.5 Z"/></g>
<g><path style="opacity:0.776" fill="#e18678" d="M 185.5,170.5 C 188.167,170.5 190.833,170.5 193.5,170.5C 192,172.179 190.167,173.512 188,174.5C 186.905,173.307 186.072,171.973 185.5,170.5 Z"/></g>
<g><path style="opacity:1" fill="#dd6e55" d="M 27.5,165.5 C 27.0371,168.482 26.7038,171.482 26.5,174.5C 25.5,174.5 24.5,174.5 23.5,174.5C 24.5969,171.314 25.9303,168.314 27.5,165.5 Z"/></g>
<g><path style="opacity:0.745" fill="#eaac9e" d="M 387.5,172.5 C 387.167,173.167 386.833,173.833 386.5,174.5C 385.833,174.5 385.167,174.5 384.5,174.5C 384.973,173.094 385.973,172.427 387.5,172.5 Z"/></g>
<g><path style="opacity:0.749" fill="#eeac9a" d="M 384.5,174.5 C 384.027,175.906 383.027,176.573 381.5,176.5C 381.973,175.094 382.973,174.427 384.5,174.5 Z"/></g>
<g><path style="opacity:1" fill="#e78461" d="M 274.5,178.5 C 268.167,178.5 261.833,178.5 255.5,178.5C 254.833,178.5 254.167,178.5 253.5,178.5C 240.113,178.28 226.779,178.947 213.5,180.5C 217.619,179.262 221.953,178.429 226.5,178C 242.672,177.172 258.672,177.339 274.5,178.5 Z"/></g>
<g><path style="opacity:0.745" fill="#f0a999" d="M 381.5,176.5 C 381.027,177.906 380.027,178.573 378.5,178.5C 378.973,177.094 379.973,176.427 381.5,176.5 Z"/></g>
<g><path style="opacity:1" fill="#fc6c31" d="M 253.5,178.5 C 253.5,239.167 253.5,299.833 253.5,360.5C 239.998,360.803 226.665,360.136 213.5,358.5C 211.236,357.781 208.903,357.448 206.5,357.5C 204.898,355.926 202.898,355.259 200.5,355.5C 198.585,355.784 196.919,355.451 195.5,354.5C 193.365,352.631 190.698,351.964 187.5,352.5C 184.341,349.117 180.341,347.784 175.5,348.5C 175.48,346.857 176.147,345.524 177.5,344.5C 173.861,343.54 170.195,343.54 166.5,344.5C 166.334,334.494 166.5,324.494 167,314.5C 167.333,316.167 167.667,317.833 168,319.5C 168.692,318.975 169.192,318.308 169.5,317.5C 168.525,307.553 168.192,297.553 168.5,287.5C 168.575,284.794 168.908,282.127 169.5,279.5C 171.799,257.353 173.465,235.02 174.5,212.5C 176.447,209.139 178.114,205.473 179.5,201.5C 182.044,200.292 183.378,198.292 183.5,195.5C 186.142,195.512 187.475,194.179 187.5,191.5C 188.605,190.4 189.938,189.733 191.5,189.5C 195.002,189.924 197.335,188.59 198.5,185.5C 203.109,184.244 207.775,183.078 212.5,182C 213.056,181.617 213.389,181.117 213.5,180.5C 226.779,178.947 240.113,178.28 253.5,178.5 Z"/></g>
<g><path style="opacity:1" fill="#e0806e" d="M 473.5,170.5 C 475.679,174.203 477.345,178.203 478.5,182.5C 477.833,182.167 477.167,181.833 476.5,181.5C 474.733,178.103 473.733,174.436 473.5,170.5 Z"/></g>
<g><path style="opacity:1" fill="#df715a" d="M 118.5,177.5 C 124.024,180.092 129.024,183.425 133.5,187.5C 130.136,186.439 126.803,185.439 123.5,184.5C 123.5,183.5 123.5,182.5 123.5,181.5C 121.436,181.313 119.436,180.813 117.5,180C 118.252,179.329 118.586,178.496 118.5,177.5 Z"/></g>
<g><path style="opacity:1" fill="#db5a3e" d="M 255.5,178.5 C 261.833,178.5 268.167,178.5 274.5,178.5C 278.869,178.467 283.202,178.8 287.5,179.5C 289.279,181.344 291.612,182.01 294.5,181.5C 294.833,181.5 295.167,181.5 295.5,181.5C 295.833,182.167 296.167,182.833 296.5,183.5C 283.327,180.991 269.994,179.825 256.5,180C 255.944,179.617 255.611,179.117 255.5,178.5 Z"/></g>
<g><path style="opacity:0.749" fill="#efaa9a" d="M 378.5,178.5 C 378.027,179.906 377.027,180.573 375.5,180.5C 375.973,179.094 376.973,178.427 378.5,178.5 Z"/></g>
<g><path style="opacity:1" fill="#df9077" d="M 287.5,179.5 C 290.067,179.721 292.401,180.388 294.5,181.5C 291.612,182.01 289.279,181.344 287.5,179.5 Z"/></g>
<g><path style="opacity:0.749" fill="#f1ad9b" d="M 375.5,180.5 C 375.027,181.906 374.027,182.573 372.5,182.5C 372.973,181.094 373.973,180.427 375.5,180.5 Z"/></g>
<g><path style="opacity:1" fill="#e64c30" d="M 253.5,178.5 C 254.167,178.5 254.833,178.5 255.5,178.5C 255.611,179.117 255.944,179.617 256.5,180C 269.994,179.825 283.327,180.991 296.5,183.5C 302.608,185.193 308.608,187.193 314.5,189.5C 314.5,190.5 314.5,191.5 314.5,192.5C 315.93,192.421 317.264,192.754 318.5,193.5C 319.917,195.261 321.583,196.594 323.5,197.5C 326.786,200.4 328.786,204.067 329.5,208.5C 330.144,220.203 331.144,231.869 332.5,243.5C 332.334,250.841 332.5,258.174 333,265.5C 333.278,266.416 333.778,267.082 334.5,267.5C 334.368,285.324 335.702,302.991 338.5,320.5C 337.127,326.417 337.627,332.083 340,337.5C 340.497,339.81 340.663,342.143 340.5,344.5C 333.416,343.812 333.083,342.478 339.5,340.5C 337.257,339.526 334.924,339.192 332.5,339.5C 332.666,333.491 332.499,327.491 332,321.5C 330.814,315.915 330.148,310.249 330,304.5C 329.617,303.944 329.117,303.611 328.5,303.5C 328.666,295.826 328.5,288.159 328,280.5C 326.651,268.074 325.485,255.574 324.5,243C 325.059,242.275 325.392,241.442 325.5,240.5C 324.864,237.301 323.364,234.634 321,232.5C 320.684,226.601 319.184,221.268 316.5,216.5C 316.573,214.973 315.906,213.973 314.5,213.5C 314.599,210.327 313.932,207.327 312.5,204.5C 311.9,202.532 310.567,201.532 308.5,201.5C 307.851,198.184 305.851,196.184 302.5,195.5C 302.586,194.504 302.252,193.671 301.5,193C 297.582,191.844 293.582,191.344 289.5,191.5C 288.167,191.5 286.833,191.5 285.5,191.5C 283.712,191.215 282.045,191.548 280.5,192.5C 280.624,193.107 280.957,193.44 281.5,193.5C 281.709,194.922 282.209,196.255 283,197.5C 285.703,199.229 288.203,201.229 290.5,203.5C 290.551,209.993 292.551,215.66 296.5,220.5C 296.998,223.487 297.498,226.487 298,229.5C 298.2,231.32 299.034,232.653 300.5,233.5C 300.367,238.975 301.034,244.308 302.5,249.5C 304.189,272.011 305.189,295.344 305.5,319.5C 305.444,328.848 305.111,338.182 304.5,347.5C 304.551,349.1 304.884,350.6 305.5,352C 308.167,352.333 310.833,352.667 313.5,353C 312.944,353.383 312.611,353.883 312.5,354.5C 311.508,354.328 310.842,354.662 310.5,355.5C 307.848,355.41 305.515,356.076 303.5,357.5C 300.763,357.401 298.096,357.735 295.5,358.5C 281.585,359.765 267.585,360.432 253.5,360.5C 253.5,299.833 253.5,239.167 253.5,178.5 Z"/></g>
<g><path style="opacity:1" fill="#e8845b" d="M 213.5,180.5 C 213.389,181.117 213.056,181.617 212.5,182C 207.775,183.078 203.109,184.244 198.5,185.5C 203.085,182.86 208.085,181.194 213.5,180.5 Z"/></g>
<g><path style="opacity:0.784" fill="#edae9d" d="M 372.5,182.5 C 372.027,183.906 371.027,184.573 369.5,184.5C 369.973,183.094 370.973,182.427 372.5,182.5 Z"/></g>
<g><path style="opacity:1" fill="#dd7a68" d="M 23.5,175.5 C 23.4317,179.105 22.4317,182.439 20.5,185.5C 20.6082,186.442 20.9415,187.275 21.5,188C 23.4913,188.374 25.158,189.207 26.5,190.5C 23.247,190.438 20.247,189.604 17.5,188C 19.2282,183.618 21.2282,179.452 23.5,175.5 Z"/></g>
<g><path style="opacity:1" fill="#de7f6b" d="M 295.5,181.5 C 302.573,182.629 308.907,185.295 314.5,189.5C 308.608,187.193 302.608,185.193 296.5,183.5C 296.167,182.833 295.833,182.167 295.5,181.5 Z"/></g>
<g><path style="opacity:0.784" fill="#e8a59a" d="M 369.5,184.5 C 369.027,185.906 368.027,186.573 366.5,186.5C 366.973,185.094 367.973,184.427 369.5,184.5 Z"/></g>
<g><path style="opacity:1" fill="#dd644d" d="M 476.5,181.5 C 477.167,181.833 477.833,182.167 478.5,182.5C 479.338,182.842 479.672,183.508 479.5,184.5C 479.635,186.554 478.968,188.221 477.5,189.5C 475.621,190.341 473.621,190.675 471.5,190.5C 470.833,190.5 470.167,190.5 469.5,190.5C 471.025,188.964 473.025,187.964 475.5,187.5C 476.348,185.591 476.682,183.591 476.5,181.5 Z"/></g>
<g><path style="opacity:0.784" fill="#eda79b" d="M 366.5,186.5 C 366.027,187.906 365.027,188.573 363.5,188.5C 363.973,187.094 364.973,186.427 366.5,186.5 Z"/></g>
<g><path style="opacity:1" fill="#dca5a1" d="M 479.5,184.5 C 482.761,187.593 482.094,189.26 477.5,189.5C 478.968,188.221 479.635,186.554 479.5,184.5 Z"/></g>
<g><path style="opacity:1" fill="#ef7f53" d="M 198.5,185.5 C 197.335,188.59 195.002,189.924 191.5,189.5C 193.336,187.412 195.669,186.079 198.5,185.5 Z"/></g>
<g><path style="opacity:0.784" fill="#eba99b" d="M 363.5,188.5 C 363.027,189.906 362.027,190.573 360.5,190.5C 360.973,189.094 361.973,188.427 363.5,188.5 Z"/></g>
<g><path style="opacity:1" fill="#e38b79" d="M 469.5,190.5 C 470.167,190.5 470.833,190.5 471.5,190.5C 467.687,191.787 463.687,192.787 459.5,193.5C 459.5,193.167 459.5,192.833 459.5,192.5C 462.544,190.989 465.878,190.322 469.5,190.5 Z"/></g>
<g><path style="opacity:0.251" fill="#fbc8b8" d="M 285.5,191.5 C 284.167,192.167 282.833,192.833 281.5,193.5C 280.957,193.44 280.624,193.107 280.5,192.5C 282.045,191.548 283.712,191.215 285.5,191.5 Z"/></g>
<g><path style="opacity:1" fill="#de7d67" d="M 289.5,191.5 C 293.582,191.344 297.582,191.844 301.5,193C 302.252,193.671 302.586,194.504 302.5,195.5C 298.191,193.728 293.858,192.394 289.5,191.5 Z"/></g>
<g><path style="opacity:1" fill="#e17969" d="M 314.5,189.5 C 318.767,190.768 321.767,193.435 323.5,197.5C 321.583,196.594 319.917,195.261 318.5,193.5C 317.264,192.754 315.93,192.421 314.5,192.5C 314.5,191.5 314.5,190.5 314.5,189.5 Z"/></g>
<g><path style="opacity:0.788" fill="#edaa99" d="M 360.5,190.5 C 360.027,191.906 359.027,192.573 357.5,192.5C 357.973,191.094 358.973,190.427 360.5,190.5 Z"/></g>
<g><path style="opacity:1" fill="#e1725f" d="M 27.5,190.5 C 33.184,190.743 38.8507,191.243 44.5,192C 46.4319,193.459 48.4319,194.625 50.5,195.5C 42.6186,194.276 34.9519,192.609 27.5,190.5 Z"/></g>
<g><path style="opacity:0.784" fill="#eea79c" d="M 357.5,192.5 C 357.027,193.906 356.027,194.573 354.5,194.5C 354.973,193.094 355.973,192.427 357.5,192.5 Z"/></g>
<g><path style="opacity:1" fill="#ed9f81" d="M 187.5,191.5 C 187.475,194.179 186.142,195.512 183.5,195.5C 184.5,193.833 185.833,192.5 187.5,191.5 Z"/></g>
<g><path style="opacity:1" fill="#e37861" d="M 459.5,192.5 C 459.5,192.833 459.5,193.167 459.5,193.5C 447.918,196.216 436.251,198.55 424.5,200.5C 426.116,199.011 428.116,198.011 430.5,197.5C 429.494,196.604 429.494,195.938 430.5,195.5C 431.939,196.063 433.439,196.397 435,196.5C 442.906,193.988 451.072,192.654 459.5,192.5 Z"/></g>
<g><path style="opacity:0.784" fill="#e9a693" d="M 354.5,194.5 C 354.027,195.906 353.027,196.573 351.5,196.5C 351.973,195.094 352.973,194.427 354.5,194.5 Z"/></g>
<g><path style="opacity:1" fill="#de6853" d="M 51.5,195.5 C 64.0472,196.253 76.3806,198.086 88.5,201C 90.4308,201.902 92.0975,203.069 93.5,204.5C 79.2756,201.99 65.2756,198.99 51.5,195.5 Z"/></g>
<g><path style="opacity:1" fill="#e2846f" d="M 302.5,195.5 C 305.851,196.184 307.851,198.184 308.5,201.5C 306.167,199.833 304.167,197.833 302.5,195.5 Z"/></g>
<g><path style="opacity:1" fill="#dd6d5a" d="M 139.5,191.5 C 143.852,193.673 147.852,196.34 151.5,199.5C 149.139,199.326 146.806,198.993 144.5,198.5C 144.254,195.53 142.588,194.197 139.5,194.5C 139.5,193.5 139.5,192.5 139.5,191.5 Z"/></g>
<g><path style="opacity:0.824" fill="#eaa490" d="M 351.5,196.5 C 351.167,197.167 350.833,197.833 350.5,198.5C 349.833,198.5 349.167,198.5 348.5,198.5C 348.973,197.094 349.973,196.427 351.5,196.5 Z"/></g>
<g><path style="opacity:1" fill="#eb9176" d="M 183.5,195.5 C 183.378,198.292 182.044,200.292 179.5,201.5C 180.34,199.147 181.674,197.147 183.5,195.5 Z"/></g>
<g><path style="opacity:1" fill="#df7b69" d="M 281.5,193.5 C 285.884,195.61 288.884,198.943 290.5,203.5C 288.203,201.229 285.703,199.229 283,197.5C 282.209,196.255 281.709,194.922 281.5,193.5 Z"/></g>
<g><path style="opacity:0.502" fill="#f1c6ba" d="M 345.5,200.5 C 344.766,201.708 344.433,203.041 344.5,204.5C 343.876,204.083 343.543,203.416 343.5,202.5C 343.747,201.287 344.414,200.62 345.5,200.5 Z"/></g>
<g><path style="opacity:1" fill="#df897c" d="M 418.5,201.5 C 416.095,202.768 413.428,203.435 410.5,203.5C 410.611,202.883 410.944,202.383 411.5,202C 413.81,201.503 416.143,201.337 418.5,201.5 Z"/></g>
<g><path style="opacity:1" fill="#e08d80" d="M 152.5,199.5 C 155.79,201.678 156.124,204.344 153.5,207.5C 153.599,204.763 153.265,202.096 152.5,199.5 Z"/></g>
<g><path style="opacity:1" fill="#e07964" d="M 308.5,201.5 C 310.567,201.532 311.9,202.532 312.5,204.5C 313.932,207.327 314.599,210.327 314.5,213.5C 313.06,209.287 311.06,205.287 308.5,201.5 Z"/></g>
<g><path style="opacity:1" fill="#d86f59" d="M 348.5,198.5 C 349.167,198.5 349.833,198.5 350.5,198.5C 349.685,199.837 348.518,200.837 347,201.5C 346.503,205.524 346.669,209.524 347.5,213.5C 347.167,213.5 346.833,213.5 346.5,213.5C 345.366,210.63 344.7,207.63 344.5,204.5C 344.433,203.041 344.766,201.708 345.5,200.5C 345.973,199.094 346.973,198.427 348.5,198.5 Z"/></g>
<g><path style="opacity:1" fill="#df7b6b" d="M 94.5,204.5 C 97.1873,204.336 99.854,204.503 102.5,205C 104.653,205.099 106.319,205.933 107.5,207.5C 102.908,207.118 98.5749,206.118 94.5,204.5 Z"/></g>
<g><path style="opacity:1" fill="#dc6650" d="M 108.5,207.5 C 117.762,207.614 126.762,208.948 135.5,211.5C 135.863,212.183 136.196,212.85 136.5,213.5C 126.918,212.1 117.585,210.1 108.5,207.5 Z"/></g>
<g><path style="opacity:1" fill="#e68370" d="M 385.5,208.5 C 382.781,209.913 379.781,210.58 376.5,210.5C 376.082,209.778 375.416,209.278 374.5,209C 378.152,208.501 381.818,208.335 385.5,208.5 Z"/></g>
<g><path style="opacity:1" fill="#dd624b" d="M 290.5,203.5 C 292.951,206.74 294.618,210.407 295.5,214.5C 295.517,216.565 295.85,218.565 296.5,220.5C 292.551,215.66 290.551,209.993 290.5,203.5 Z"/></g>
<g><path style="opacity:1" fill="#e8875b" d="M 179.5,201.5 C 178.114,205.473 176.447,209.139 174.5,212.5C 174.837,208.164 176.504,204.497 179.5,201.5 Z"/></g>
<g><path style="opacity:1" fill="#e0745f" d="M 371.5,211.5 C 365.442,213.579 359.109,214.913 352.5,215.5C 350.219,215.923 348.552,215.256 347.5,213.5C 355.488,212.701 363.488,212.035 371.5,211.5 Z"/></g>
<g><path style="opacity:1" fill="#db7c68" d="M 152.5,211.5 C 153.17,214.59 152.003,216.257 149,216.5C 144.929,215.926 141.095,214.926 137.5,213.5C 142.181,213.669 146.848,214.002 151.5,214.5C 151.263,213.209 151.596,212.209 152.5,211.5 Z"/></g>
<g><path style="opacity:1" fill="#e08978" d="M 314.5,213.5 C 315.906,213.973 316.573,214.973 316.5,216.5C 317.265,219.096 317.599,221.763 317.5,224.5C 316.055,221.063 315.055,217.397 314.5,213.5 Z"/></g>
<g><path style="opacity:0.714" fill="#e1a899" d="M 346.5,213.5 C 346.833,213.5 347.167,213.5 347.5,213.5C 348.552,215.256 350.219,215.923 352.5,215.5C 350.735,216.461 348.735,216.795 346.5,216.5C 346.5,215.5 346.5,214.5 346.5,213.5 Z"/></g>
<g><path style="opacity:1" fill="#dc7965" d="M 295.5,214.5 C 298.149,220.468 299.816,226.802 300.5,233.5C 299.034,232.653 298.2,231.32 298,229.5C 297.498,226.487 296.998,223.487 296.5,220.5C 295.85,218.565 295.517,216.565 295.5,214.5 Z"/></g>
<g><path style="opacity:1" fill="#db7562" d="M 329.5,208.5 C 330.925,211.903 331.758,215.57 332,219.5C 332.643,227.495 333.143,235.495 333.5,243.5C 333.167,243.5 332.833,243.5 332.5,243.5C 331.144,231.869 330.144,220.203 329.5,208.5 Z"/></g>
<g><path style="opacity:1" fill="#ee7141" d="M 174.5,212.5 C 173.465,235.02 171.799,257.353 169.5,279.5C 169.5,274.833 169.5,270.167 169.5,265.5C 169.5,263.5 169.5,261.5 169.5,259.5C 170.29,258.391 170.79,257.058 171,255.5C 171.499,249.843 171.666,244.176 171.5,238.5C 171.5,236.833 171.5,235.167 171.5,233.5C 172.29,232.391 172.79,231.058 173,229.5C 173.499,225.179 173.666,220.846 173.5,216.5C 173.232,214.901 173.566,213.568 174.5,212.5 Z"/></g>
<g><path style="opacity:0.988" fill="#e39586" d="M 317.5,226.5 C 319.265,229.123 319.932,232.123 319.5,235.5C 318.525,232.689 317.858,229.689 317.5,226.5 Z"/></g>
<g><path style="opacity:0.875" fill="#e89474" d="M 173.5,216.5 C 173.666,220.846 173.499,225.179 173,229.5C 172.79,231.058 172.29,232.391 171.5,233.5C 171.596,227.627 172.263,221.96 173.5,216.5 Z"/></g>
<g><path style="opacity:1" fill="#e07c6c" d="M 300.5,233.5 C 301.913,238.63 302.913,243.963 303.5,249.5C 303.167,249.5 302.833,249.5 302.5,249.5C 301.034,244.308 300.367,238.975 300.5,233.5 Z"/></g>
<g><path style="opacity:0.706" fill="#e59685" d="M 319.5,236.5 C 321.217,239.845 321.884,243.511 321.5,247.5C 320.475,244.026 319.808,240.36 319.5,236.5 Z"/></g>
<g><path style="opacity:1" fill="#e4654b" d="M 316.5,216.5 C 319.184,221.268 320.684,226.601 321,232.5C 323.364,234.634 324.864,237.301 325.5,240.5C 325.392,241.442 325.059,242.275 324.5,243C 325.485,255.574 326.651,268.074 328,280.5C 328.5,288.159 328.666,295.826 328.5,303.5C 328.5,304.833 328.5,306.167 328.5,307.5C 326.035,287.656 323.702,267.656 321.5,247.5C 321.884,243.511 321.217,239.845 319.5,236.5C 319.5,236.167 319.5,235.833 319.5,235.5C 319.932,232.123 319.265,229.123 317.5,226.5C 317.5,225.833 317.5,225.167 317.5,224.5C 317.599,221.763 317.265,219.096 316.5,216.5 Z"/></g>
<g><path style="opacity:1" fill="#e68a69" d="M 171.5,238.5 C 171.666,244.176 171.499,249.843 171,255.5C 170.79,257.058 170.29,258.391 169.5,259.5C 169.768,252.317 170.435,245.317 171.5,238.5 Z"/></g>
<g><path style="opacity:1" fill="#dd6c57" d="M 332.5,243.5 C 332.833,243.5 333.167,243.5 333.5,243.5C 334.497,251.462 335.163,259.462 335.5,267.5C 335.167,267.5 334.833,267.5 334.5,267.5C 333.778,267.082 333.278,266.416 333,265.5C 332.5,258.174 332.334,250.841 332.5,243.5 Z"/></g>
<g><path style="opacity:1" fill="#e38d6a" d="M 169.5,265.5 C 169.5,270.167 169.5,274.833 169.5,279.5C 168.908,282.127 168.575,284.794 168.5,287.5C 168.167,287.5 167.833,287.5 167.5,287.5C 167.796,279.986 168.462,272.653 169.5,265.5 Z"/></g>
<g><path style="opacity:1" fill="#dd6850" d="M 302.5,249.5 C 302.833,249.5 303.167,249.5 303.5,249.5C 307.411,282.956 308.411,316.456 306.5,350C 309.475,350.044 312.475,349.877 315.5,349.5C 318.152,349.59 320.485,348.924 322.5,347.5C 323.93,346.463 325.597,345.796 327.5,345.5C 327.5,346.5 327.5,347.5 327.5,348.5C 328.791,348.263 329.791,348.596 330.5,349.5C 324.664,351.751 318.664,353.418 312.5,354.5C 312.611,353.883 312.944,353.383 313.5,353C 310.833,352.667 308.167,352.333 305.5,352C 304.884,350.6 304.551,349.1 304.5,347.5C 305.111,338.182 305.444,328.848 305.5,319.5C 305.189,295.344 304.189,272.011 302.5,249.5 Z"/></g>
<g><path style="opacity:0.494" fill="#ffd8cc" d="M 165.5,325.5 C 165.5,326.833 165.5,328.167 165.5,329.5C 164.833,329.5 164.167,329.5 163.5,329.5C 163.167,329.5 162.833,329.5 162.5,329.5C 163.659,328.26 164.659,326.926 165.5,325.5 Z"/></g>
<g><path style="opacity:1" fill="#dc7f6f" d="M 329.5,319.5 C 331.178,324.568 331.844,329.902 331.5,335.5C 331.167,335.5 330.833,335.5 330.5,335.5C 329.806,330.195 329.472,324.862 329.5,319.5 Z"/></g>
<g><path style="opacity:1" fill="#a26b89" d="M 163.5,329.5 C 164.167,329.5 164.833,329.5 165.5,329.5C 165.172,334.875 165.505,340.208 166.5,345.5C 167.739,345.942 168.739,346.609 169.5,347.5C 167.114,347.741 165.114,347.075 163.5,345.5C 163.5,340.167 163.5,334.833 163.5,329.5 Z"/></g>
<g><path style="opacity:1" fill="#7e77b5" d="M 162.5,329.5 C 162.833,329.5 163.167,329.5 163.5,329.5C 163.5,334.833 163.5,340.167 163.5,345.5C 162.513,340.695 162.179,335.695 162.5,330.5C 159.177,331.492 155.844,332.492 152.5,333.5C 155.1,330.54 158.433,329.206 162.5,329.5 Z"/></g>
<g><path style="opacity:1" fill="#e1614a" d="M 334.5,267.5 C 334.833,267.5 335.167,267.5 335.5,267.5C 337.619,288.479 339.619,309.479 341.5,330.5C 341.5,332.833 341.5,335.167 341.5,337.5C 341.5,340.167 341.5,342.833 341.5,345.5C 341.167,345.5 340.833,345.5 340.5,345.5C 337.379,345.736 335.046,347.069 333.5,349.5C 333.167,349.5 332.833,349.5 332.5,349.5C 331.833,349.5 331.167,349.5 330.5,349.5C 329.791,348.596 328.791,348.263 327.5,348.5C 327.5,347.5 327.5,346.5 327.5,345.5C 328.833,345.5 330.167,345.5 331.5,345.5C 331.5,342.167 331.5,338.833 331.5,335.5C 331.844,329.902 331.178,324.568 329.5,319.5C 328.57,315.6 328.237,311.6 328.5,307.5C 328.5,306.167 328.5,304.833 328.5,303.5C 329.117,303.611 329.617,303.944 330,304.5C 330.148,310.249 330.814,315.915 332,321.5C 332.499,327.491 332.666,333.491 332.5,339.5C 334.924,339.192 337.257,339.526 339.5,340.5C 333.083,342.478 333.416,343.812 340.5,344.5C 340.663,342.143 340.497,339.81 340,337.5C 337.627,332.083 337.127,326.417 338.5,320.5C 335.702,302.991 334.368,285.324 334.5,267.5 Z"/></g>
<g><path style="opacity:1" fill="#ed734b" d="M 167.5,287.5 C 167.833,287.5 168.167,287.5 168.5,287.5C 168.192,297.553 168.525,307.553 169.5,317.5C 169.192,318.308 168.692,318.975 168,319.5C 167.667,317.833 167.333,316.167 167,314.5C 166.5,324.494 166.334,334.494 166.5,344.5C 170.195,343.54 173.861,343.54 177.5,344.5C 176.147,345.524 175.48,346.857 175.5,348.5C 180.341,347.784 184.341,349.117 187.5,352.5C 181.569,350.581 175.569,348.914 169.5,347.5C 168.739,346.609 167.739,345.942 166.5,345.5C 165.505,340.208 165.172,334.875 165.5,329.5C 165.5,328.167 165.5,326.833 165.5,325.5C 165.768,312.81 166.435,300.143 167.5,287.5 Z"/></g>
<g><path style="opacity:0.998" fill="#9195c7" d="M 152.5,333.5 C 149.878,339.873 148.878,346.539 149.5,353.5C 146.686,347.531 146.853,341.531 150,335.5C 150.708,334.619 151.542,333.953 152.5,333.5 Z"/></g>
<g><path style="opacity:1" fill="#6a72c2" d="M 163.5,345.5 C 165.114,347.075 167.114,347.741 169.5,347.5C 175.569,348.914 181.569,350.581 187.5,352.5C 188.833,353.167 190.167,353.833 191.5,354.5C 198.387,357.547 205.72,359.214 213.5,359.5C 214.5,359.5 215.5,359.5 216.5,359.5C 219.627,360.581 222.96,361.247 226.5,361.5C 228.167,361.5 229.833,361.5 231.5,361.5C 232.808,362.232 234.142,363.066 235.5,364C 249.833,364.667 264.167,364.667 278.5,364C 280.175,363.015 281.842,362.181 283.5,361.5C 290.591,361.722 297.257,360.389 303.5,357.5C 306.152,357.59 308.485,356.924 310.5,355.5C 318.523,355.663 325.856,353.663 332.5,349.5C 332.833,349.5 333.167,349.5 333.5,349.5C 336.331,348.921 338.664,347.588 340.5,345.5C 340.833,345.5 341.167,345.5 341.5,345.5C 342.748,344.666 343.415,343.333 343.5,341.5C 343.489,339.955 343.156,338.622 342.5,337.5C 342.5,336.167 342.5,334.833 342.5,333.5C 343.833,333.5 345.167,333.5 346.5,333.5C 346.343,334.873 346.51,336.207 347,337.5C 348,336.167 349,336.167 350,337.5C 350.651,339.235 350.485,340.902 349.5,342.5C 350.274,343.711 351.107,343.711 352,342.5C 352.167,343.833 352.333,345.167 352.5,346.5C 351.209,353.1 349.876,359.6 348.5,366C 348.684,367.376 349.351,368.209 350.5,368.5C 355.699,372.579 359.699,377.579 362.5,383.5C 363.34,394.092 362.007,394.759 358.5,385.5C 352.403,388.929 346.07,391.595 339.5,393.5C 335.878,394.325 332.211,394.825 328.5,395C 321.956,398.343 314.956,399.843 307.5,399.5C 307.284,401.681 308.117,403.347 310,404.5C 310.333,404.167 310.667,403.833 311,403.5C 312.763,404.944 314.763,405.944 317,406.5C 319.825,404.812 322.991,403.979 326.5,404C 327.551,402.615 328.884,401.615 330.5,401C 335.261,399.642 339.928,397.975 344.5,396C 346.81,395.503 349.143,395.337 351.5,395.5C 351.167,397.5 350.833,399.5 350.5,401.5C 347.813,401.336 345.146,401.503 342.5,402C 345.801,402.997 349.134,403.33 352.5,403C 353.113,400.853 353.779,398.686 354.5,396.5C 356.27,399.193 356.937,402.193 356.5,405.5C 352.464,406.223 348.464,407.223 344.5,408.5C 345.667,408.833 346.833,409.167 348,409.5C 351,408.833 354,408.167 357,407.5C 358.167,407.833 359.333,408.167 360.5,408.5C 358.668,409.057 357.335,410.057 356.5,411.5C 356.167,411.5 355.833,411.5 355.5,411.5C 338.962,414.626 322.462,417.626 306,420.5C 304.624,420.684 303.791,421.351 303.5,422.5C 303.167,422.5 302.833,422.5 302.5,422.5C 297.234,422.189 292.234,422.855 287.5,424.5C 287.167,424.5 286.833,424.5 286.5,424.5C 263.51,425.315 240.51,425.648 217.5,425.5C 216.833,425.5 216.167,425.5 215.5,425.5C 205.745,423.242 195.745,421.908 185.5,421.5C 184.833,421.5 184.167,421.5 183.5,421.5C 183.119,420.069 182.119,419.236 180.5,419C 177.518,418.502 174.518,418.335 171.5,418.5C 169.622,417.792 167.955,416.626 166.5,415C 161.816,414.565 157.149,414.065 152.5,413.5C 148.216,412.739 144.216,411.405 140.5,409.5C 139.958,403.312 139.791,396.979 140,390.5C 141.479,387.239 142.645,383.906 143.5,380.5C 144.08,378.251 145.413,376.585 147.5,375.5C 149.935,374.73 151.269,373.063 151.5,370.5C 150.725,364.847 150.058,359.18 149.5,353.5C 148.878,346.539 149.878,339.873 152.5,333.5C 155.844,332.492 159.177,331.492 162.5,330.5C 162.179,335.695 162.513,340.695 163.5,345.5 Z"/></g>
<g><path style="opacity:1" fill="#7b455d" d="M 340.5,345.5 C 338.664,347.588 336.331,348.921 333.5,349.5C 335.046,347.069 337.379,345.736 340.5,345.5 Z"/></g>
<g><path style="opacity:1" fill="#dc8879" d="M 322.5,347.5 C 320.485,348.924 318.152,349.59 315.5,349.5C 317.515,348.076 319.848,347.41 322.5,347.5 Z"/></g>
<g><path style="opacity:0.059" fill="#f3bbb0" d="M 330.5,335.5 C 330.833,335.5 331.167,335.5 331.5,335.5C 331.5,338.833 331.5,342.167 331.5,345.5C 330.167,345.5 328.833,345.5 327.5,345.5C 328.209,344.596 329.209,344.263 330.5,344.5C 330.5,341.5 330.5,338.5 330.5,335.5 Z"/></g>
<g><path style="opacity:1" fill="#936281" d="M 341.5,337.5 C 341.833,337.5 342.167,337.5 342.5,337.5C 343.156,338.622 343.489,339.955 343.5,341.5C 343.415,343.333 342.748,344.666 341.5,345.5C 341.5,342.833 341.5,340.167 341.5,337.5 Z"/></g>
<g><path style="opacity:1" fill="#d76f5c" d="M 187.5,352.5 C 190.698,351.964 193.365,352.631 195.5,354.5C 194.167,354.5 192.833,354.5 191.5,354.5C 190.167,353.833 188.833,353.167 187.5,352.5 Z"/></g>
<g><path style="opacity:1" fill="#8588c0" d="M 341.5,330.5 C 351.994,333.145 356.16,339.812 354,350.5C 352.766,356.501 351.6,362.501 350.5,368.5C 349.351,368.209 348.684,367.376 348.5,366C 349.876,359.6 351.209,353.1 352.5,346.5C 352.333,345.167 352.167,343.833 352,342.5C 351.107,343.711 350.274,343.711 349.5,342.5C 350.485,340.902 350.651,339.235 350,337.5C 349,336.167 348,336.167 347,337.5C 346.51,336.207 346.343,334.873 346.5,333.5C 345.167,333.5 343.833,333.5 342.5,333.5C 342.5,334.833 342.5,336.167 342.5,337.5C 342.167,337.5 341.833,337.5 341.5,337.5C 341.5,335.167 341.5,332.833 341.5,330.5 Z"/></g>
<g><path style="opacity:1" fill="#7c4c6a" d="M 330.5,349.5 C 331.167,349.5 331.833,349.5 332.5,349.5C 325.856,353.663 318.523,355.663 310.5,355.5C 310.842,354.662 311.508,354.328 312.5,354.5C 318.664,353.418 324.664,351.751 330.5,349.5 Z"/></g>
<g><path style="opacity:1" fill="#cf6a65" d="M 200.5,355.5 C 202.898,355.259 204.898,355.926 206.5,357.5C 204.102,357.741 202.102,357.074 200.5,355.5 Z"/></g>
<g><path style="opacity:1" fill="#8a404b" d="M 310.5,355.5 C 308.485,356.924 306.152,357.59 303.5,357.5C 305.515,356.076 307.848,355.41 310.5,355.5 Z"/></g>
<g><path style="opacity:1" fill="#896c9e" d="M 191.5,354.5 C 192.833,354.5 194.167,354.5 195.5,354.5C 196.919,355.451 198.585,355.784 200.5,355.5C 202.102,357.074 204.102,357.741 206.5,357.5C 208.903,357.448 211.236,357.781 213.5,358.5C 213.5,358.833 213.5,359.167 213.5,359.5C 205.72,359.214 198.387,357.547 191.5,354.5 Z"/></g>
<g><path style="opacity:1" fill="#c25143" d="M 295.5,358.5 C 288.861,359.72 282.195,360.72 275.5,361.5C 275.167,361.5 274.833,361.5 274.5,361.5C 262.843,362.106 251.176,362.439 239.5,362.5C 239.5,362.167 239.5,361.833 239.5,361.5C 244.363,361.819 249.03,361.486 253.5,360.5C 267.585,360.432 281.585,359.765 295.5,358.5 Z"/></g>
<g><path style="opacity:1" fill="#a16981" d="M 216.5,359.5 C 220.16,359.159 223.493,359.825 226.5,361.5C 222.96,361.247 219.627,360.581 216.5,359.5 Z"/></g>
<g><path style="opacity:1" fill="#7d5175" d="M 303.5,357.5 C 297.257,360.389 290.591,361.722 283.5,361.5C 280.833,361.5 278.167,361.5 275.5,361.5C 282.195,360.72 288.861,359.72 295.5,358.5C 298.096,357.735 300.763,357.401 303.5,357.5 Z"/></g>
<g><path style="opacity:1" fill="#e57051" d="M 213.5,359.5 C 213.5,359.167 213.5,358.833 213.5,358.5C 226.665,360.136 239.998,360.803 253.5,360.5C 249.03,361.486 244.363,361.819 239.5,361.5C 236.833,361.5 234.167,361.5 231.5,361.5C 229.833,361.5 228.167,361.5 226.5,361.5C 223.493,359.825 220.16,359.159 216.5,359.5C 215.5,359.5 214.5,359.5 213.5,359.5 Z"/></g>
<g><path style="opacity:1" fill="#7e6ea8" d="M 231.5,361.5 C 234.167,361.5 236.833,361.5 239.5,361.5C 239.5,361.833 239.5,362.167 239.5,362.5C 251.203,363.86 262.869,363.526 274.5,361.5C 274.833,361.5 275.167,361.5 275.5,361.5C 278.167,361.5 280.833,361.5 283.5,361.5C 281.842,362.181 280.175,363.015 278.5,364C 264.167,364.667 249.833,364.667 235.5,364C 234.142,363.066 232.808,362.232 231.5,361.5 Z"/></g>
<g><path style="opacity:1" fill="#7f495f" d="M 274.5,361.5 C 262.869,363.526 251.203,363.86 239.5,362.5C 251.176,362.439 262.843,362.106 274.5,361.5 Z"/></g>
<g><path style="opacity:1" fill="#939ac2" d="M 151.5,370.5 C 151.269,373.063 149.935,374.73 147.5,375.5C 148.08,373.251 149.413,371.585 151.5,370.5 Z"/></g>
<g><path style="opacity:1" fill="#555e9c" d="M 191.5,380.5 C 188.873,379.908 186.206,379.575 183.5,379.5C 174.391,378.175 165.391,376.008 156.5,373C 161.526,373.503 166.526,374.503 171.5,376C 176.202,376.172 180.868,376.672 185.5,377.5C 187.884,378.011 189.884,379.011 191.5,380.5 Z"/></g>
<g><path style="opacity:1" fill="#3f4882" d="M 183.5,379.5 C 186.206,379.575 188.873,379.908 191.5,380.5C 208.675,383.724 226.009,385.89 243.5,387C 222.977,387.573 202.977,385.073 183.5,379.5 Z"/></g>
<g><path style="opacity:0.631" fill="#b5b8e4" d="M 364.5,388.5 C 365.491,395.313 365.825,402.313 365.5,409.5C 364.5,409.5 363.5,409.5 362.5,409.5C 364.405,402.781 365.071,395.781 364.5,388.5 Z"/></g>
<g><path style="opacity:1" fill="#6972bc" d="M 362.5,383.5 C 363.931,384.78 364.598,386.447 364.5,388.5C 365.071,395.781 364.405,402.781 362.5,409.5C 360.786,410.738 358.786,411.405 356.5,411.5C 357.335,410.057 358.668,409.057 360.5,408.5C 359.333,408.167 358.167,407.833 357,407.5C 354,408.167 351,408.833 348,409.5C 346.833,409.167 345.667,408.833 344.5,408.5C 348.464,407.223 352.464,406.223 356.5,405.5C 356.937,402.193 356.27,399.193 354.5,396.5C 353.779,398.686 353.113,400.853 352.5,403C 349.134,403.33 345.801,402.997 342.5,402C 345.146,401.503 347.813,401.336 350.5,401.5C 350.833,399.5 351.167,397.5 351.5,395.5C 349.143,395.337 346.81,395.503 344.5,396C 339.928,397.975 335.261,399.642 330.5,401C 328.884,401.615 327.551,402.615 326.5,404C 322.991,403.979 319.825,404.812 317,406.5C 314.763,405.944 312.763,404.944 311,403.5C 310.667,403.833 310.333,404.167 310,404.5C 308.117,403.347 307.284,401.681 307.5,399.5C 314.956,399.843 321.956,398.343 328.5,395C 332.211,394.825 335.878,394.325 339.5,393.5C 346.07,391.595 352.403,388.929 358.5,385.5C 362.007,394.759 363.34,394.092 362.5,383.5 Z"/></g>
<g><path style="opacity:1" fill="#4a5499" d="M 334.5,396.5 C 335.873,396.343 337.207,396.51 338.5,397C 329.693,399.962 320.693,401.629 311.5,402C 319.391,400.609 327.058,398.776 334.5,396.5 Z"/></g>
<g><path style="opacity:1" fill="#8487bb" d="M 143.5,380.5 C 142.645,383.906 141.479,387.239 140,390.5C 139.791,396.979 139.958,403.312 140.5,409.5C 139.244,409.539 138.244,409.039 137.5,408C 138.313,401.581 138.813,395.081 139,388.5C 139.754,385.316 141.254,382.649 143.5,380.5 Z"/></g>
<g><path style="opacity:1" fill="#878ac4" d="M 152.5,413.5 C 157.149,414.065 161.816,414.565 166.5,415C 167.955,416.626 169.622,417.792 171.5,418.5C 164.859,417.591 158.526,415.924 152.5,413.5 Z"/></g>
<g><path style="opacity:0.996" fill="#8d90c7" d="M 171.5,418.5 C 174.518,418.335 177.518,418.502 180.5,419C 182.119,419.236 183.119,420.069 183.5,421.5C 179.239,421.102 175.239,420.102 171.5,418.5 Z"/></g>
<g><path style="opacity:1" fill="#8e90c6" d="M 355.5,411.5 C 338.66,416.936 321.327,420.603 303.5,422.5C 303.791,421.351 304.624,420.684 306,420.5C 322.462,417.626 338.962,414.626 355.5,411.5 Z"/></g>
<g><path style="opacity:0.996" fill="#9396c7" d="M 185.5,421.5 C 195.745,421.908 205.745,423.242 215.5,425.5C 205.234,425.175 195.234,423.842 185.5,421.5 Z"/></g>
<g><path style="opacity:0.647" fill="#9fa3cc" d="M 302.5,422.5 C 297.731,423.889 292.731,424.556 287.5,424.5C 292.234,422.855 297.234,422.189 302.5,422.5 Z"/></g>
<g><path style="opacity:0.985" fill="#979ac9" d="M 286.5,424.5 C 263.532,427.818 240.532,428.151 217.5,425.5C 240.51,425.648 263.51,425.315 286.5,424.5 Z"/></g>
</svg>
