<?xml version="1.0" encoding="UTF-8"?>
<!DOCTYPE svg PUBLIC "-//W3C//DTD SVG 1.1//EN" "http://www.w3.org/Graphics/SVG/1.1/DTD/svg11.dtd">
<svg xmlns="http://www.w3.org/2000/svg" version="1.1" width="500px" height="500px" style="shape-rendering:geometricPrecision; text-rendering:geometricPrecision; image-rendering:optimizeQuality; fill-rule:evenodd; clip-rule:evenodd" xmlns:xlink="http://www.w3.org/1999/xlink">
<g><path style="opacity:0.996" fill="#d2394a" d="M 439.5,141.5 C 436.746,141.216 434.08,140.549 431.5,139.5C 311.168,138.333 190.835,138.167 70.5,139C 65.5649,140.143 60.8983,141.643 56.5,143.5C 58.8193,140.706 61.8193,138.872 65.5,138C 188.167,137.333 310.833,137.333 433.5,138C 436.025,138.424 438.025,139.59 439.5,141.5 Z"/></g>
<g><path style="opacity:1" fill="#ec2842" d="M 439.5,141.5 C 439.833,141.5 440.167,141.5 440.5,141.5C 442.076,145.078 444.409,148.078 447.5,150.5C 447.5,150.833 447.5,151.167 447.5,151.5C 448.162,155.466 448.495,159.466 448.5,163.5C 428.156,163.833 407.822,163.5 387.5,162.5C 387.709,161.914 388.043,161.414 388.5,161C 400.833,160.667 413.167,160.333 425.5,160C 426.982,157.408 426.648,155.075 424.5,153C 420.779,152.322 417.112,152.489 413.5,153.5C 409.5,153.5 405.5,153.5 401.5,153.5C 400.833,153.5 400.167,153.5 399.5,153.5C 397.876,153.64 396.71,152.973 396,151.5C 394.681,153.25 394.181,155.25 394.5,157.5C 393.5,157.5 392.5,157.5 391.5,157.5C 391.785,155.712 391.452,154.045 390.5,152.5C 389.893,152.624 389.56,152.957 389.5,153.5C 388.819,155.158 387.985,156.825 387,158.5C 386.802,156.618 386.302,154.952 385.5,153.5C 383.435,153.517 381.435,153.85 379.5,154.5C 377.316,153.734 374.982,153.067 372.5,152.5C 369.263,154.015 366.263,153.681 363.5,151.5C 362.532,152.489 361.365,153.156 360,153.5C 358,152.833 356,152.167 354,151.5C 352.93,151.528 352.097,151.861 351.5,152.5C 351.5,154.833 351.5,157.167 351.5,159.5C 360.318,160.493 369.318,160.827 378.5,160.5C 378.5,161.5 378.5,162.5 378.5,163.5C 323.166,163.667 267.832,163.5 212.5,163C 211.167,162.667 209.833,162.333 208.5,162C 211.146,161.503 213.813,161.336 216.5,161.5C 216.975,158.918 216.308,156.918 214.5,155.5C 213.27,153.703 212.604,151.703 212.5,149.5C 211.325,149.281 210.325,149.614 209.5,150.5C 208.481,152.604 207.481,154.604 206.5,156.5C 205.532,154.393 205.198,152.059 205.5,149.5C 203.5,149.5 201.5,149.5 199.5,149.5C 194.833,148.167 190.167,148.167 185.5,149.5C 184.833,149.5 184.167,149.5 183.5,149.5C 182.5,149.5 181.5,149.5 180.5,149.5C 180.649,150.552 180.483,151.552 180,152.5C 179.329,151.748 178.496,151.414 177.5,151.5C 176.462,149.481 175.128,149.147 173.5,150.5C 172.609,151.11 171.609,151.443 170.5,151.5C 170.586,150.504 170.252,149.671 169.5,149C 162.174,148.5 154.841,148.334 147.5,148.5C 147.5,146.833 147.5,145.167 147.5,143.5C 146.127,143.343 144.793,143.51 143.5,144C 145.229,145.789 145.896,147.956 145.5,150.5C 145.66,152.199 145.494,153.866 145,155.5C 143.708,153.751 142.542,151.918 141.5,150C 140.552,149.517 139.552,149.351 138.5,149.5C 137.833,149.5 137.167,149.5 136.5,149.5C 135.5,149.5 134.5,149.5 133.5,149.5C 133.5,153.167 133.5,156.833 133.5,160.5C 135.948,161.473 138.615,161.806 141.5,161.5C 141.285,159.821 141.952,158.821 143.5,158.5C 143.414,159.496 143.748,160.329 144.5,161C 148.689,161.812 152.689,161.645 156.5,160.5C 158.604,160.201 160.604,160.534 162.5,161.5C 161.624,162.251 160.624,162.751 159.5,163C 145.965,163.707 132.632,163.54 119.5,162.5C 118.833,161.167 117.833,160.167 116.5,159.5C 114.998,157.825 113.665,155.992 112.5,154C 111.552,153.517 110.552,153.351 109.5,153.5C 109.5,152.167 109.5,150.833 109.5,149.5C 108.167,149.5 106.833,149.5 105.5,149.5C 105.5,150.833 105.5,152.167 105.5,153.5C 104.5,153.5 103.5,153.5 102.5,153.5C 102.5,154.833 102.5,156.167 102.5,157.5C 103.552,157.351 104.552,157.517 105.5,158C 102.635,158.183 99.9686,158.683 97.5,159.5C 97.1667,160.167 96.8333,160.833 96.5,161.5C 95.2438,161.461 94.2438,161.961 93.5,163C 79.1705,163.5 64.8372,163.667 50.5,163.5C 50.3354,160.482 50.502,157.482 51,154.5C 52.9525,150.753 54.7858,147.087 56.5,143.5C 60.8983,141.643 65.5649,140.143 70.5,139C 190.835,138.167 311.168,138.333 431.5,139.5C 434.08,140.549 436.746,141.216 439.5,141.5 Z"/></g>
<g><path style="opacity:1" fill="#df6370" d="M 440.5,141.5 C 443.556,143.949 445.889,146.949 447.5,150.5C 444.409,148.078 442.076,145.078 440.5,141.5 Z"/></g>
<g><path style="opacity:1" fill="#fda4af" d="M 136.5,149.5 C 136.5,153.167 136.5,156.833 136.5,160.5C 135.5,160.5 134.5,160.5 133.5,160.5C 133.5,156.833 133.5,153.167 133.5,149.5C 134.5,149.5 135.5,149.5 136.5,149.5 Z"/></g>
<g><path style="opacity:1" fill="#f8c1c8" d="M 138.5,149.5 C 139.552,149.351 140.552,149.517 141.5,150C 142.542,151.918 143.708,153.751 145,155.5C 145.494,153.866 145.66,152.199 145.5,150.5C 146.777,151.694 147.444,153.36 147.5,155.5C 147.858,160.163 146.525,161.163 143.5,158.5C 142.928,156.745 142.094,155.078 141,153.5C 140.814,155.9 140.314,158.234 139.5,160.5C 138.511,156.893 138.177,153.226 138.5,149.5 Z"/></g>
<g><path style="opacity:1" fill="#d33e52" d="M 185.5,149.5 C 190.167,148.167 194.833,148.167 199.5,149.5C 194.877,148.408 193.044,150.075 194,154.5C 195.487,155.155 196.653,156.155 197.5,157.5C 195.668,158.057 194.335,159.057 193.5,160.5C 192.833,160.5 192.167,160.5 191.5,160.5C 190.993,159.141 189.993,158.141 188.5,157.5C 189.325,156.614 190.325,156.281 191.5,156.5C 191.5,155.5 191.5,154.5 191.5,153.5C 187.665,152.996 187.665,151.996 191.5,150.5C 189.604,149.534 187.604,149.201 185.5,149.5 Z"/></g>
<g><path style="opacity:1" fill="#fabdc2" d="M 199.5,149.5 C 198.993,150.859 197.993,151.859 196.5,152.5C 202.285,157.602 201.285,160.269 193.5,160.5C 194.335,159.057 195.668,158.057 197.5,157.5C 196.653,156.155 195.487,155.155 194,154.5C 193.044,150.075 194.877,148.408 199.5,149.5 Z"/></g>
<g><path style="opacity:1" fill="#f9b7bf" d="M 185.5,149.5 C 187.604,149.201 189.604,149.534 191.5,150.5C 187.665,151.996 187.665,152.996 191.5,153.5C 191.5,154.5 191.5,155.5 191.5,156.5C 190.325,156.281 189.325,156.614 188.5,157.5C 189.993,158.141 190.993,159.141 191.5,160.5C 189.5,160.5 187.5,160.5 185.5,160.5C 185.5,156.833 185.5,153.167 185.5,149.5 Z"/></g>
<g><path style="opacity:1" fill="#f8c5c9" d="M 214.5,155.5 C 215.666,157.166 215.666,158.833 214.5,160.5C 212.075,156.543 209.742,156.543 207.5,160.5C 206.566,159.432 206.232,158.099 206.5,156.5C 207.481,154.604 208.481,152.604 209.5,150.5C 210.325,149.614 211.325,149.281 212.5,149.5C 212.604,151.703 213.27,153.703 214.5,155.5 Z"/></g>
<g><path style="opacity:1" fill="#cc3932" d="M 116.5,159.5 C 115.5,159.5 114.5,159.5 113.5,159.5C 111.167,159.5 108.833,159.5 106.5,159.5C 103.5,159.5 100.5,159.5 97.5,159.5C 99.9686,158.683 102.635,158.183 105.5,158C 104.552,157.517 103.552,157.351 102.5,157.5C 102.5,156.167 102.5,154.833 102.5,153.5C 103.5,153.5 104.5,153.5 105.5,153.5C 105.5,152.167 105.5,150.833 105.5,149.5C 106.833,149.5 108.167,149.5 109.5,149.5C 109.5,150.833 109.5,152.167 109.5,153.5C 110.552,153.351 111.552,153.517 112.5,154C 113.665,155.992 114.998,157.825 116.5,159.5 Z"/></g>
<g><path style="opacity:1" fill="#c93e4f" d="M 136.5,149.5 C 137.167,149.5 137.833,149.5 138.5,149.5C 138.177,153.226 138.511,156.893 139.5,160.5C 140.314,158.234 140.814,155.9 141,153.5C 142.094,155.078 142.928,156.745 143.5,158.5C 141.952,158.821 141.285,159.821 141.5,161.5C 138.615,161.806 135.948,161.473 133.5,160.5C 134.5,160.5 135.5,160.5 136.5,160.5C 136.5,156.833 136.5,153.167 136.5,149.5 Z"/></g>
<g><path style="opacity:1" fill="#d14b5d" d="M 199.5,149.5 C 201.5,149.5 203.5,149.5 205.5,149.5C 205.198,152.059 205.532,154.393 206.5,156.5C 206.232,158.099 206.566,159.432 207.5,160.5C 202.833,160.5 198.167,160.5 193.5,160.5C 201.285,160.269 202.285,157.602 196.5,152.5C 197.993,151.859 198.993,150.859 199.5,149.5 Z"/></g>
<g><path style="opacity:1" fill="#ffc8d3" d="M 202.5,150.5 C 203.777,151.694 204.444,153.36 204.5,155.5C 204.167,157.167 203.833,158.833 203.5,160.5C 202.513,157.232 202.18,153.898 202.5,150.5 Z"/></g>
<g><path style="opacity:1" fill="#b36828" d="M 97.5,159.5 C 100.5,159.5 103.5,159.5 106.5,159.5C 105.432,160.434 104.099,160.768 102.5,160.5C 102.567,161.959 102.234,163.292 101.5,164.5C 100.391,164.557 99.391,164.89 98.5,165.5C 97.391,165.443 96.391,165.11 95.5,164.5C 95.5569,163.391 95.8902,162.391 96.5,161.5C 96.8333,160.833 97.1667,160.167 97.5,159.5 Z"/></g>
<g><path style="opacity:1" fill="#cda32b" d="M 113.5,159.5 C 114.5,159.5 115.5,159.5 116.5,159.5C 117.833,160.167 118.833,161.167 119.5,162.5C 120.167,163.833 121.167,164.833 122.5,165.5C 124.051,175.611 119.718,179.611 109.5,177.5C 111.007,176.025 112.673,174.691 114.5,173.5C 115.496,173.586 116.329,173.252 117,172.5C 117.796,169.961 117.629,167.628 116.5,165.5C 115.529,163.517 114.529,161.517 113.5,159.5 Z"/></g>
<g><path style="opacity:1" fill="#86631a" d="M 106.5,159.5 C 108.833,159.5 111.167,159.5 113.5,159.5C 114.529,161.517 115.529,163.517 116.5,165.5C 115.209,165.263 114.209,165.596 113.5,166.5C 112.504,166.586 111.671,166.252 111,165.5C 111.295,161.639 109.795,160.306 106.5,161.5C 105.82,164.36 104.487,166.86 102.5,169C 103.227,170.399 103.727,171.899 104,173.5C 106.381,172.565 108.881,172.232 111.5,172.5C 111.12,170.302 111.787,168.635 113.5,167.5C 113.325,169.621 113.659,171.621 114.5,173.5C 112.673,174.691 111.007,176.025 109.5,177.5C 108.167,177.5 106.833,177.5 105.5,177.5C 104.63,175.726 103.297,174.393 101.5,173.5C 101.882,170.646 101.882,167.646 101.5,164.5C 102.234,163.292 102.567,161.959 102.5,160.5C 104.099,160.768 105.432,160.434 106.5,159.5 Z"/></g>
<g><path style="opacity:1" fill="#dc5560" d="M 56.5,143.5 C 54.7858,147.087 52.9525,150.753 51,154.5C 50.502,157.482 50.3354,160.482 50.5,163.5C 64.8372,163.667 79.1705,163.5 93.5,163C 94.2438,161.961 95.2438,161.461 96.5,161.5C 95.8902,162.391 95.5569,163.391 95.5,164.5C 95.1583,165.338 94.4916,165.672 93.5,165.5C 78.8333,165.5 64.1667,165.5 49.5,165.5C 47.8665,156.739 50.1998,149.405 56.5,143.5 Z"/></g>
<g><path style="opacity:1" fill="#de4b5c" d="M 170.5,151.5 C 171.609,151.443 172.609,151.11 173.5,150.5C 173.18,153.898 173.513,157.232 174.5,160.5C 174.794,151.617 176.461,151.284 179.5,159.5C 180.325,160.386 181.325,160.719 182.5,160.5C 183.482,157.038 183.815,153.371 183.5,149.5C 184.167,149.5 184.833,149.5 185.5,149.5C 185.5,153.167 185.5,156.833 185.5,160.5C 187.5,160.5 189.5,160.5 191.5,160.5C 192.167,160.5 192.833,160.5 193.5,160.5C 198.167,160.5 202.833,160.5 207.5,160.5C 209.742,156.543 212.075,156.543 214.5,160.5C 215.666,158.833 215.666,157.166 214.5,155.5C 216.308,156.918 216.975,158.918 216.5,161.5C 213.813,161.336 211.146,161.503 208.5,162C 209.833,162.333 211.167,162.667 212.5,163C 267.832,163.5 323.166,163.667 378.5,163.5C 378.5,162.5 378.5,161.5 378.5,160.5C 369.318,160.827 360.318,160.493 351.5,159.5C 352.833,159.5 354.167,159.5 355.5,159.5C 356.833,159.5 358.167,159.5 359.5,159.5C 359.222,157.654 359.889,156.32 361.5,155.5C 362.429,156.689 362.762,158.022 362.5,159.5C 364.167,159.5 365.833,159.5 367.5,159.5C 368.9,158.9 369.9,157.9 370.5,156.5C 370.833,156.5 371.167,156.5 371.5,156.5C 371.285,158.179 371.952,159.179 373.5,159.5C 373.833,159.5 374.167,159.5 374.5,159.5C 375.943,158.665 376.943,157.332 377.5,155.5C 378.481,159.821 381.147,161.821 385.5,161.5C 384.629,158.938 384.629,156.272 385.5,153.5C 386.302,154.952 386.802,156.618 387,158.5C 387.985,156.825 388.819,155.158 389.5,153.5C 389.5,155.5 389.5,157.5 389.5,159.5C 390.833,159.5 392.167,159.5 393.5,159.5C 395.167,159.5 396.833,159.5 398.5,159.5C 399.5,159.5 400.5,159.5 401.5,159.5C 402.5,159.5 403.5,159.5 404.5,159.5C 405.5,159.5 406.5,159.5 407.5,159.5C 408.167,159.5 408.833,159.5 409.5,159.5C 409.833,159.5 410.167,159.5 410.5,159.5C 411.167,159.5 411.833,159.5 412.5,159.5C 413.451,158.081 413.784,156.415 413.5,154.5C 413.5,154.167 413.5,153.833 413.5,153.5C 417.112,152.489 420.779,152.322 424.5,153C 426.648,155.075 426.982,157.408 425.5,160C 413.167,160.333 400.833,160.667 388.5,161C 388.043,161.414 387.709,161.914 387.5,162.5C 407.822,163.5 428.156,163.833 448.5,163.5C 448.495,159.466 448.162,155.466 447.5,151.5C 448.268,152.263 448.768,153.263 449,154.5C 449.499,158.152 449.665,161.818 449.5,165.5C 341.167,165.5 232.833,165.5 124.5,165.5C 123.833,165.5 123.167,165.5 122.5,165.5C 121.167,164.833 120.167,163.833 119.5,162.5C 132.632,163.54 145.965,163.707 159.5,163C 160.624,162.751 161.624,162.251 162.5,161.5C 160.604,160.534 158.604,160.201 156.5,160.5C 152.689,161.645 148.689,161.812 144.5,161C 143.748,160.329 143.414,159.496 143.5,158.5C 146.525,161.163 147.858,160.163 147.5,155.5C 147.444,153.36 146.777,151.694 145.5,150.5C 145.896,147.956 145.229,145.789 143.5,144C 144.793,143.51 146.127,143.343 147.5,143.5C 147.5,145.167 147.5,146.833 147.5,148.5C 154.841,148.334 162.174,148.5 169.5,149C 170.252,149.671 170.586,150.504 170.5,151.5 Z"/></g>
<g><path style="opacity:1" fill="#ef9aa2" d="M 385.5,153.5 C 384.629,156.272 384.629,158.938 385.5,161.5C 381.147,161.821 378.481,159.821 377.5,155.5C 376.943,157.332 375.943,158.665 374.5,159.5C 374.5,157.833 374.5,156.167 374.5,154.5C 376.167,154.5 377.833,154.5 379.5,154.5C 381.435,153.85 383.435,153.517 385.5,153.5 Z"/></g>
<g><path style="opacity:1" fill="#e77984" d="M 399.5,153.5 C 397.469,155.249 397.135,157.249 398.5,159.5C 396.833,159.5 395.167,159.5 393.5,159.5C 392.833,158.833 392.167,158.167 391.5,157.5C 392.5,157.5 393.5,157.5 394.5,157.5C 394.181,155.25 394.681,153.25 396,151.5C 396.71,152.973 397.876,153.64 399.5,153.5 Z"/></g>
<g><path style="opacity:1" fill="#fec1cb" d="M 413.5,154.5 C 413.784,156.415 413.451,158.081 412.5,159.5C 411.833,154.167 411.167,154.167 410.5,159.5C 410.167,159.5 409.833,159.5 409.5,159.5C 409.5,157.833 409.5,156.167 409.5,154.5C 410.833,154.5 412.167,154.5 413.5,154.5 Z"/></g>
<g><path style="opacity:1" fill="#ab4c55" d="M 412.5,159.5 C 411.833,159.5 411.167,159.5 410.5,159.5C 411.167,154.167 411.833,154.167 412.5,159.5 Z"/></g>
<g><path style="opacity:1" fill="#f1a1aa" d="M 416.5,153.5 C 418.124,153.36 419.29,154.027 420,155.5C 422.229,152.844 424.062,153.177 425.5,156.5C 424.624,157.251 423.624,157.751 422.5,158C 423.167,158.333 423.833,158.667 424.5,159C 421.5,159.667 418.5,159.667 415.5,159C 416.167,158.667 416.833,158.333 417.5,158C 415.452,156.774 415.119,155.274 416.5,153.5 Z"/></g>
<g><path style="opacity:1" fill="#faafb9" d="M 399.5,153.5 C 400.167,153.5 400.833,153.5 401.5,153.5C 401.096,154.756 400.429,155.923 399.5,157C 400.056,158.011 400.722,158.844 401.5,159.5C 400.5,159.5 399.5,159.5 398.5,159.5C 397.135,157.249 397.469,155.249 399.5,153.5 Z"/></g>
<g><path style="opacity:1" fill="#fbb7c2" d="M 391.5,157.5 C 392.167,158.167 392.833,158.833 393.5,159.5C 392.167,159.5 390.833,159.5 389.5,159.5C 389.5,157.5 389.5,155.5 389.5,153.5C 389.56,152.957 389.893,152.624 390.5,152.5C 391.452,154.045 391.785,155.712 391.5,157.5 Z"/></g>
<g><path style="opacity:1" fill="#d25f6c" d="M 351.5,152.5 C 352.097,151.861 352.93,151.528 354,151.5C 356,152.167 358,152.833 360,153.5C 361.365,153.156 362.532,152.489 363.5,151.5C 366.263,153.681 369.263,154.015 372.5,152.5C 374.982,153.067 377.316,153.734 379.5,154.5C 377.833,154.5 376.167,154.5 374.5,154.5C 374.5,156.167 374.5,157.833 374.5,159.5C 374.167,159.5 373.833,159.5 373.5,159.5C 373.785,157.712 373.452,156.045 372.5,154.5C 371.702,154.957 371.369,155.624 371.5,156.5C 371.167,156.5 370.833,156.5 370.5,156.5C 370.631,155.624 370.298,154.957 369.5,154.5C 368.5,155.833 367.5,155.833 366.5,154.5C 365.799,156.192 366.133,157.858 367.5,159.5C 365.833,159.5 364.167,159.5 362.5,159.5C 362.762,158.022 362.429,156.689 361.5,155.5C 359.889,156.32 359.222,157.654 359.5,159.5C 358.167,159.5 356.833,159.5 355.5,159.5C 358.603,154.903 357.27,152.569 351.5,152.5 Z"/></g>
<g><path style="opacity:1" fill="#faadb8" d="M 370.5,156.5 C 369.9,157.9 368.9,158.9 367.5,159.5C 366.133,157.858 365.799,156.192 366.5,154.5C 367.5,155.833 368.5,155.833 369.5,154.5C 370.298,154.957 370.631,155.624 370.5,156.5 Z"/></g>
<g><path style="opacity:1" fill="#fab7c2" d="M 351.5,152.5 C 357.27,152.569 358.603,154.903 355.5,159.5C 354.167,159.5 352.833,159.5 351.5,159.5C 351.5,157.167 351.5,154.833 351.5,152.5 Z"/></g>
<g><path style="opacity:1" fill="#e98493" d="M 183.5,149.5 C 183.815,153.371 183.482,157.038 182.5,160.5C 182.665,157.15 182.498,153.817 182,150.5C 181.518,156.819 180.018,157.152 177.5,151.5C 178.496,151.414 179.329,151.748 180,152.5C 180.483,151.552 180.649,150.552 180.5,149.5C 181.5,149.5 182.5,149.5 183.5,149.5 Z"/></g>
<g><path style="opacity:1" fill="#f6b1bb" d="M 373.5,159.5 C 371.952,159.179 371.285,158.179 371.5,156.5C 371.369,155.624 371.702,154.957 372.5,154.5C 373.452,156.045 373.785,157.712 373.5,159.5 Z"/></g>
<g><path style="opacity:1" fill="#cc5569" d="M 352.5,153.5 C 355.956,154.536 356.29,156.203 353.5,158.5C 352.548,156.955 352.215,155.288 352.5,153.5 Z"/></g>
<g><path style="opacity:1" fill="#e15d6e" d="M 401.5,153.5 C 405.5,153.5 409.5,153.5 413.5,153.5C 413.5,153.833 413.5,154.167 413.5,154.5C 412.167,154.5 410.833,154.5 409.5,154.5C 409.5,156.167 409.5,157.833 409.5,159.5C 408.833,159.5 408.167,159.5 407.5,159.5C 407.5,157.833 407.5,156.167 407.5,154.5C 406.167,154.5 404.833,154.5 403.5,154.5C 403.366,156.292 403.699,157.958 404.5,159.5C 403.5,159.5 402.5,159.5 401.5,159.5C 400.722,158.844 400.056,158.011 399.5,157C 400.429,155.923 401.096,154.756 401.5,153.5 Z"/></g>
<g><path style="opacity:1" fill="#e1a5a7" d="M 407.5,159.5 C 406.5,159.5 405.5,159.5 404.5,159.5C 403.699,157.958 403.366,156.292 403.5,154.5C 404.833,154.5 406.167,154.5 407.5,154.5C 407.5,156.167 407.5,157.833 407.5,159.5 Z"/></g>
<g><path style="opacity:1" fill="#fcc6c9" d="M 156.5,150.5 C 160.408,153.705 160.408,157.038 156.5,160.5C 154.833,160.5 153.167,160.5 151.5,160.5C 151.5,157.167 151.5,153.833 151.5,150.5C 153.167,150.5 154.833,150.5 156.5,150.5 Z"/></g>
<g><path style="opacity:1" fill="#d0485d" d="M 153.5,151.5 C 157.264,152.385 158.264,154.552 156.5,158C 155.552,158.483 154.552,158.649 153.5,158.5C 153.5,156.167 153.5,153.833 153.5,151.5 Z"/></g>
<g><path style="opacity:1" fill="#facace" d="M 177.5,151.5 C 180.018,157.152 181.518,156.819 182,150.5C 182.498,153.817 182.665,157.15 182.5,160.5C 181.325,160.719 180.325,160.386 179.5,159.5C 176.461,151.284 174.794,151.617 174.5,160.5C 173.513,157.232 173.18,153.898 173.5,150.5C 175.128,149.147 176.462,149.481 177.5,151.5 Z"/></g>
<g><path style="opacity:1" fill="#fdc5c9" d="M 170.5,151.5 C 172.586,159.917 169.752,162.251 162,158.5C 160.389,150.261 163.223,147.927 170.5,151.5 Z"/></g>
<g><path style="opacity:1" fill="#d74658" d="M 164.5,151.5 C 168.976,151.8 170.31,153.967 168.5,158C 166.888,158.72 165.388,158.554 164,157.5C 163.51,155.455 163.677,153.455 164.5,151.5 Z"/></g>
<g><path style="opacity:1" fill="#fb99a5" d="M 156.5,150.5 C 154.833,150.5 153.167,150.5 151.5,150.5C 151.5,153.833 151.5,157.167 151.5,160.5C 150.518,157.038 150.185,153.371 150.5,149.5C 152.735,149.205 154.735,149.539 156.5,150.5 Z"/></g>
<g><path style="opacity:1" fill="#be991a" d="M 113.5,166.5 C 113.5,166.833 113.5,167.167 113.5,167.5C 111.787,168.635 111.12,170.302 111.5,172.5C 108.881,172.232 106.381,172.565 104,173.5C 103.727,171.899 103.227,170.399 102.5,169C 104.487,166.86 105.82,164.36 106.5,161.5C 109.795,160.306 111.295,161.639 111,165.5C 111.671,166.252 112.504,166.586 113.5,166.5 Z"/></g>
<g><path style="opacity:1" fill="#f8d5d7" d="M 124.5,165.5 C 232.833,165.5 341.167,165.5 449.5,165.5C 449.5,165.833 449.5,166.167 449.5,166.5C 377.499,166.333 305.499,166.5 233.5,167C 235.058,167.21 236.391,167.71 237.5,168.5C 236.378,170.288 236.211,172.288 237,174.5C 238.356,175.38 239.856,175.714 241.5,175.5C 234.833,176.833 228.167,176.833 221.5,175.5C 220.833,175.5 220.167,175.5 219.5,175.5C 216.36,176.641 213.027,176.808 209.5,176C 208.934,175.005 208.267,174.172 207.5,173.5C 207.369,172.761 207.536,172.094 208,171.5C 208.941,173.061 210.108,174.395 211.5,175.5C 212.797,173.027 212.797,170.693 211.5,168.5C 206.369,167.249 201.369,167.249 196.5,168.5C 196.291,169.922 195.791,171.255 195,172.5C 194.417,170.998 193.584,169.665 192.5,168.5C 191.353,170.765 191.186,173.098 192,175.5C 192.569,171.639 193.402,171.639 194.5,175.5C 195.799,174.91 196.632,173.91 197,172.5C 197.232,173.737 197.732,174.737 198.5,175.5C 199.167,175.5 199.833,175.5 200.5,175.5C 200.833,175.5 201.167,175.5 201.5,175.5C 198.024,176.643 194.358,176.81 190.5,176C 189.549,172.943 189.216,169.777 189.5,166.5C 185.446,166.21 184.946,166.877 188,168.5C 189.815,174.948 187.648,177.281 181.5,175.5C 181.343,174.127 181.51,172.793 182,171.5C 182.941,173.061 184.108,174.395 185.5,175.5C 186.647,173.235 186.814,170.902 186,168.5C 185.429,173.49 184.263,173.49 182.5,168.5C 177.695,167.513 172.695,167.179 167.5,167.5C 167.5,170.167 167.5,172.833 167.5,175.5C 166.837,173.958 166.17,172.291 165.5,170.5C 164.77,172.341 164.103,174.175 163.5,176C 153.172,176.5 142.839,176.666 132.5,176.5C 132.527,174.801 133.194,173.467 134.5,172.5C 135.692,173.566 135.359,174.399 133.5,175C 137.783,175.265 138.45,173.765 135.5,170.5C 136.025,169.808 136.692,169.308 137.5,169C 136.207,168.51 134.873,168.343 133.5,168.5C 133.5,169.5 133.5,170.5 133.5,171.5C 132.199,170.116 132.199,168.616 133.5,167C 130.305,166.819 127.305,166.319 124.5,165.5 Z"/></g>
<g><path style="opacity:1" fill="#b39c4b" d="M 95.5,164.5 C 96.391,165.11 97.391,165.443 98.5,165.5C 96.5359,169.411 97.5359,172.078 101.5,173.5C 103.297,174.393 104.63,175.726 105.5,177.5C 100.07,180.637 95.9034,179.303 93,173.5C 92.2782,170.739 92.4448,168.073 93.5,165.5C 94.4916,165.672 95.1583,165.338 95.5,164.5 Z"/></g>
<g><path style="opacity:1" fill="#e3d9c9" d="M 101.5,164.5 C 101.882,167.646 101.882,170.646 101.5,173.5C 97.5359,172.078 96.5359,169.411 98.5,165.5C 99.391,164.89 100.391,164.557 101.5,164.5 Z"/></g>
<g><path style="opacity:1" fill="#e6e3e1" d="M 49.5,165.5 C 64.1667,165.5 78.8333,165.5 93.5,165.5C 92.4448,168.073 92.2782,170.739 93,173.5C 95.9034,179.303 100.07,180.637 105.5,177.5C 106.833,177.5 108.167,177.5 109.5,177.5C 119.718,179.611 124.051,175.611 122.5,165.5C 123.167,165.5 123.833,165.5 124.5,165.5C 127.305,166.319 130.305,166.819 133.5,167C 132.199,168.616 132.199,170.116 133.5,171.5C 133.5,172.167 133.833,172.5 134.5,172.5C 133.194,173.467 132.527,174.801 132.5,176.5C 142.839,176.666 153.172,176.5 163.5,176C 164.103,174.175 164.77,172.341 165.5,170.5C 166.17,172.291 166.837,173.958 167.5,175.5C 168.5,175.5 169.5,175.5 170.5,175.5C 172.167,175.5 173.833,175.5 175.5,175.5C 177.167,175.5 178.833,175.5 180.5,175.5C 180.833,175.5 181.167,175.5 181.5,175.5C 187.648,177.281 189.815,174.948 188,168.5C 184.946,166.877 185.446,166.21 189.5,166.5C 189.216,169.777 189.549,172.943 190.5,176C 194.358,176.81 198.024,176.643 201.5,175.5C 202.5,175.5 203.5,175.5 204.5,175.5C 205.167,175.5 205.833,175.5 206.5,175.5C 207.338,175.158 207.672,174.492 207.5,173.5C 208.267,174.172 208.934,175.005 209.5,176C 213.027,176.808 216.36,176.641 219.5,175.5C 220.167,175.5 220.833,175.5 221.5,175.5C 228.167,176.833 234.833,176.833 241.5,175.5C 242.714,173.192 242.714,170.859 241.5,168.5C 240.548,170.045 240.215,171.712 240.5,173.5C 239.5,173.5 238.5,173.5 237.5,173.5C 237.5,171.833 237.5,170.167 237.5,168.5C 236.391,167.71 235.058,167.21 233.5,167C 305.499,166.5 377.499,166.333 449.5,166.5C 449.5,170.5 449.5,174.5 449.5,178.5C 449.5,181.167 449.5,183.833 449.5,186.5C 315.929,186.36 182.596,186.36 49.5,186.5C 49.5,183.833 49.5,181.167 49.5,178.5C 48.902,174.074 48.902,169.74 49.5,165.5 Z"/></g>
<g><path style="opacity:1" fill="#cb5c6a" d="M 243.5,168.5 C 249.158,167.679 250.825,169.846 248.5,175C 246.866,175.494 245.199,175.66 243.5,175.5C 243.5,173.167 243.5,170.833 243.5,168.5 Z"/></g>
<g><path style="opacity:1" fill="#c55a6c" d="M 219.5,175.5 C 216.429,176.075 214.429,174.909 213.5,172C 214.447,168.928 216.447,167.928 219.5,169C 216.371,169.117 215.205,170.617 216,173.5C 216.71,172.027 217.876,171.36 219.5,171.5C 219.5,172.833 219.5,174.167 219.5,175.5 Z"/></g>
<g><path style="opacity:1" fill="#cd6474" d="M 146.5,168.5 C 150.409,167.737 151.742,169.07 150.5,172.5C 150.808,173.308 151.308,173.975 152,174.5C 154.044,166.865 156.211,166.699 158.5,174C 158.167,174.5 157.833,175 157.5,175.5C 155.538,174.366 153.538,174.366 151.5,175.5C 150.328,175.081 149.328,174.415 148.5,173.5C 147.808,174.025 147.308,174.692 147,175.5C 146.503,173.19 146.337,170.857 146.5,168.5 Z"/></g>
<g><path style="opacity:1" fill="#171615" d="M 388.5,179.5 C 390.531,179.972 392.198,180.972 393.5,182.5C 385.438,183.077 382.604,179.41 385,171.5C 387.679,168.165 390.845,167.665 394.5,170C 392.447,171.08 390.28,171.914 388,172.5C 387.204,175.039 387.371,177.372 388.5,179.5 Z"/></g>
<g><path style="opacity:1" fill="#df7486" d="M 251.5,168.5 C 252.725,169.152 253.392,170.319 253.5,172C 253.167,173.167 252.833,174.333 252.5,175.5C 251.526,173.257 251.192,170.924 251.5,168.5 Z"/></g>
<g><path style="opacity:1" fill="#ce6673" d="M 226.5,168.5 C 227.5,168.5 228.5,168.5 229.5,168.5C 229.586,170.677 230.253,172.677 231.5,174.5C 230.369,175.604 229.535,175.271 229,173.5C 228.692,174.308 228.192,174.975 227.5,175.5C 226.526,173.257 226.192,170.924 226.5,168.5 Z"/></g>
<g><path style="opacity:1" fill="#efa9b1" d="M 182.5,168.5 C 180.656,170.279 179.99,172.612 180.5,175.5C 178.833,175.5 177.167,175.5 175.5,175.5C 173.258,173.795 173.258,171.795 175.5,169.5C 173.926,168.369 172.259,168.202 170.5,169C 171.624,169.249 172.624,169.749 173.5,170.5C 172.048,171.94 171.048,173.606 170.5,175.5C 169.5,175.5 168.5,175.5 167.5,175.5C 167.5,172.833 167.5,170.167 167.5,167.5C 172.695,167.179 177.695,167.513 182.5,168.5 Z"/></g>
<g><path style="opacity:1" fill="#bf5769" d="M 134.5,172.5 C 133.833,172.5 133.5,172.167 133.5,171.5C 133.5,170.5 133.5,169.5 133.5,168.5C 134.873,168.343 136.207,168.51 137.5,169C 136.692,169.308 136.025,169.808 135.5,170.5C 138.45,173.765 137.783,175.265 133.5,175C 135.359,174.399 135.692,173.566 134.5,172.5 Z"/></g>
<g><path style="opacity:1" fill="#e2d6ba" d="M 116.5,165.5 C 117.629,167.628 117.796,169.961 117,172.5C 116.329,173.252 115.496,173.586 114.5,173.5C 113.659,171.621 113.325,169.621 113.5,167.5C 113.5,167.167 113.5,166.833 113.5,166.5C 114.209,165.596 115.209,165.263 116.5,165.5 Z"/></g>
<g><path style="opacity:1" fill="#f9d0d0" d="M 245.5,169.5 C 246.586,169.62 247.253,170.287 247.5,171.5C 247.167,172.167 246.833,172.833 246.5,173.5C 245.571,172.311 245.238,170.978 245.5,169.5 Z"/></g>
<g><path style="opacity:1" fill="#b44958" d="M 232.5,168.5 C 233.725,169.152 234.392,170.319 234.5,172C 234.199,176.447 233.699,176.281 233,171.5C 232.111,172.888 231.611,172.722 231.5,171C 231.743,170.098 232.077,169.265 232.5,168.5 Z"/></g>
<g><path style="opacity:1" fill="#c24d62" d="M 221.5,175.5 C 221.5,173.167 221.5,170.833 221.5,168.5C 222.873,168.343 224.207,168.51 225.5,169C 222.833,170 222.833,171 225.5,172C 222.833,173 222.833,174 225.5,175C 224.207,175.49 222.873,175.657 221.5,175.5 Z"/></g>
<g><path style="opacity:1" fill="#ba4f61" d="M 182.5,168.5 C 184.263,173.49 185.429,173.49 186,168.5C 186.814,170.902 186.647,173.235 185.5,175.5C 184.108,174.395 182.941,173.061 182,171.5C 181.51,172.793 181.343,174.127 181.5,175.5C 181.167,175.5 180.833,175.5 180.5,175.5C 179.99,172.612 180.656,170.279 182.5,168.5 Z"/></g>
<g><path style="opacity:1" fill="#a54858" d="M 159.5,169.5 C 160.946,168.387 162.613,168.22 164.5,169C 162.901,170.786 162.067,172.953 162,175.5C 161.998,172.949 161.164,170.949 159.5,169.5 Z"/></g>
<g><path style="opacity:1" fill="#fbbbc4" d="M 196.5,168.5 C 201.369,167.249 206.369,167.249 211.5,168.5C 211.719,169.675 211.386,170.675 210.5,171.5C 209.719,170.263 208.719,169.263 207.5,168.5C 206.526,170.743 206.192,173.076 206.5,175.5C 205.833,175.5 205.167,175.5 204.5,175.5C 202.069,174.259 202.069,173.092 204.5,172C 201.833,171 201.833,170 204.5,169C 203.207,168.51 201.873,168.343 200.5,168.5C 200.5,170.833 200.5,173.167 200.5,175.5C 199.833,175.5 199.167,175.5 198.5,175.5C 199.01,172.612 198.344,170.279 196.5,168.5 Z"/></g>
<g><path style="opacity:1" fill="#b55663" d="M 204.5,175.5 C 203.5,175.5 202.5,175.5 201.5,175.5C 201.167,175.5 200.833,175.5 200.5,175.5C 200.5,173.167 200.5,170.833 200.5,168.5C 201.873,168.343 203.207,168.51 204.5,169C 201.833,170 201.833,171 204.5,172C 202.069,173.092 202.069,174.259 204.5,175.5 Z"/></g>
<g><path style="opacity:1" fill="#c85566" d="M 196.5,168.5 C 198.344,170.279 199.01,172.612 198.5,175.5C 197.732,174.737 197.232,173.737 197,172.5C 196.632,173.91 195.799,174.91 194.5,175.5C 193.402,171.639 192.569,171.639 192,175.5C 191.186,173.098 191.353,170.765 192.5,168.5C 193.584,169.665 194.417,170.998 195,172.5C 195.791,171.255 196.291,169.922 196.5,168.5 Z"/></g>
<g><path style="opacity:1" fill="#bc5062" d="M 211.5,168.5 C 212.797,170.693 212.797,173.027 211.5,175.5C 210.108,174.395 208.941,173.061 208,171.5C 207.536,172.094 207.369,172.761 207.5,173.5C 207.672,174.492 207.338,175.158 206.5,175.5C 206.192,173.076 206.526,170.743 207.5,168.5C 208.719,169.263 209.719,170.263 210.5,171.5C 211.386,170.675 211.719,169.675 211.5,168.5 Z"/></g>
<g><path style="opacity:1" fill="#bf606e" d="M 138.5,168.5 C 140.256,169.552 140.923,171.219 140.5,173.5C 141.5,173.5 142.5,173.5 143.5,173.5C 143.34,171.801 143.506,170.134 144,168.5C 144.667,170.5 144.667,172.5 144,174.5C 141.978,175.991 140.312,175.658 139,173.5C 138.506,171.866 138.34,170.199 138.5,168.5 Z"/></g>
<g><path style="opacity:1" fill="#bb5262" d="M 175.5,175.5 C 173.833,175.5 172.167,175.5 170.5,175.5C 171.048,173.606 172.048,171.94 173.5,170.5C 172.624,169.749 171.624,169.249 170.5,169C 172.259,168.202 173.926,168.369 175.5,169.5C 173.258,171.795 173.258,173.795 175.5,175.5 Z"/></g>
<g><path style="opacity:1" fill="#bc6471" d="M 237.5,168.5 C 237.5,170.167 237.5,171.833 237.5,173.5C 238.5,173.5 239.5,173.5 240.5,173.5C 240.215,171.712 240.548,170.045 241.5,168.5C 242.714,170.859 242.714,173.192 241.5,175.5C 239.856,175.714 238.356,175.38 237,174.5C 236.211,172.288 236.378,170.288 237.5,168.5 Z"/></g>
<g><path style="opacity:0.998" fill="#f7f5f6" d="M 49.5,178.5 C 49.5,181.167 49.5,183.833 49.5,186.5C 182.596,186.36 315.929,186.36 449.5,186.5C 449.5,183.833 449.5,181.167 449.5,178.5C 450.167,205.498 450.5,232.665 450.5,260C 450.646,288.872 450.146,317.705 449,346.5C 446.076,353.758 440.909,358.592 433.5,361C 408.534,362.138 383.534,362.638 358.5,362.5C 261.501,361.874 164.501,361.374 67.5,361C 54.3056,357.121 48.1389,348.288 49,334.5C 48.1683,282.332 48.3349,230.332 49.5,178.5 Z"/></g>
<g><path style="opacity:1" fill="#777674" d="M 388.5,179.5 C 390.5,179.5 392.5,179.5 394.5,179.5C 394.737,180.791 394.404,181.791 393.5,182.5C 392.198,180.972 390.531,179.972 388.5,179.5 Z"/></g>
<g><path style="opacity:1" fill="#262926" d="M 350.5,193.5 C 375.5,193.5 400.5,193.5 425.5,193.5C 425.5,194.833 425.5,196.167 425.5,197.5C 400.5,197.5 375.5,197.5 350.5,197.5C 350.5,196.167 350.5,194.833 350.5,193.5 Z"/></g>
<g><path style="opacity:1" fill="#a5a5a5" d="M 101.5,220.5 C 123.061,219.232 133.561,229.232 133,250.5C 125.816,268.342 113.316,273.509 95.5,266C 83.9664,256.496 81.4664,244.996 88,231.5C 91.819,226.833 96.319,223.166 101.5,220.5 Z"/></g>
<g><path style="opacity:1" fill="#333733" d="M 170.5,220.5 C 195.169,220.333 219.836,220.5 244.5,221C 245.833,222.333 245.833,223.667 244.5,225C 220.167,225.667 195.833,225.667 171.5,225C 170.62,223.644 170.286,222.144 170.5,220.5 Z"/></g>
<g><path style="opacity:1" fill="#323732" d="M 171.5,232.5 C 203.168,232.333 234.835,232.5 266.5,233C 267.833,234.333 267.833,235.667 266.5,237C 234.502,237.5 202.502,237.667 170.5,237.5C 170.366,235.708 170.699,234.042 171.5,232.5 Z"/></g>
<g><path style="opacity:1" fill="#323732" d="M 171.5,245.5 C 192.503,245.333 213.503,245.5 234.5,246C 235.38,247.356 235.714,248.856 235.5,250.5C 213.833,250.5 192.167,250.5 170.5,250.5C 170.366,248.708 170.699,247.042 171.5,245.5 Z"/></g>
<g><path style="opacity:1" fill="#333732" d="M 171.5,258.5 C 203.168,258.333 234.835,258.5 266.5,259C 267.833,260.333 267.833,261.667 266.5,263C 234.502,263.5 202.502,263.667 170.5,263.5C 170.366,261.708 170.699,260.042 171.5,258.5 Z"/></g>
<g><path style="opacity:1" fill="#323732" d="M 171.5,271.5 C 208.168,271.333 244.835,271.5 281.5,272C 283.394,273.079 283.727,274.413 282.5,276C 245.168,276.5 207.835,276.667 170.5,276.5C 170.366,274.708 170.699,273.042 171.5,271.5 Z"/></g>
<g><path style="opacity:1" fill="#a5a5a5" d="M 91.5,273.5 C 102.505,273.333 113.505,273.5 124.5,274C 134.051,275.68 140.885,280.847 145,289.5C 147.16,302.111 148.494,314.778 149,327.5C 136.917,337.109 123.084,341.442 107.5,340.5C 94.0466,340.887 81.7133,337.387 70.5,330C 68.9733,327.243 68.3066,324.243 68.5,321C 69.1268,310.438 70.2934,299.938 72,289.5C 75.778,280.713 82.278,275.38 91.5,273.5 Z"/></g>
<g><path style="opacity:1" fill="#323833" d="M 171.5,284.5 C 198.502,284.333 225.502,284.5 252.5,285C 253.833,286.333 253.833,287.667 252.5,289C 225.169,289.5 197.835,289.667 170.5,289.5C 170.366,287.708 170.699,286.042 171.5,284.5 Z"/></g>
<g><path style="opacity:1" fill="#a7a7a7" d="M 391.5,299.5 C 402.442,299.235 405.776,304.068 401.5,314C 393.474,318.881 388.474,316.715 386.5,307.5C 387.366,304.308 389.032,301.641 391.5,299.5 Z"/></g>
<g><path style="opacity:1" fill="#333732" d="M 171.5,297.5 C 200.502,297.333 229.502,297.5 258.5,298C 259.38,299.356 259.714,300.856 259.5,302.5C 229.833,302.5 200.167,302.5 170.5,302.5C 170.366,300.708 170.699,299.042 171.5,297.5 Z"/></g>
<g><path style="opacity:1" fill="#333833" d="M 171.5,310.5 C 192.503,310.333 213.503,310.5 234.5,311C 235.38,312.356 235.714,313.856 235.5,315.5C 213.833,315.5 192.167,315.5 170.5,315.5C 170.366,313.708 170.699,312.042 171.5,310.5 Z"/></g>
<g><path style="opacity:1" fill="#a6a6a6" d="M 386.5,318.5 C 392.952,318.084 399.285,318.584 405.5,320C 414.14,333.335 410.64,340.501 395,341.5C 390.611,341.148 386.444,339.982 382.5,338C 381.693,332.891 381.86,327.724 383,322.5C 384.102,321.051 385.269,319.718 386.5,318.5 Z"/></g>
<g><path style="opacity:1" fill="#333833" d="M 365.5,346.5 C 385.169,346.333 404.836,346.5 424.5,347C 425.38,348.356 425.714,349.856 425.5,351.5C 405.167,351.5 384.833,351.5 364.5,351.5C 364.366,349.708 364.699,348.042 365.5,346.5 Z"/></g>
</svg>
