<?xml version="1.0" encoding="UTF-8"?>
<!DOCTYPE svg PUBLIC "-//W3C//DTD SVG 1.1//EN" "http://www.w3.org/Graphics/SVG/1.1/DTD/svg11.dtd">
<svg xmlns="http://www.w3.org/2000/svg" version="1.1" width="500px" height="500px" style="shape-rendering:geometricPrecision; text-rendering:geometricPrecision; image-rendering:optimizeQuality; fill-rule:evenodd; clip-rule:evenodd" xmlns:xlink="http://www.w3.org/1999/xlink">
<g><path style="opacity:1" fill="#ede27a" d="M 194.5,65.5 C 205.297,63.2493 215.63,64.7493 225.5,70C 227.141,71.129 228.141,72.629 228.5,74.5C 226.99,73.1639 225.323,71.9973 223.5,71C 219.134,70.6369 214.801,70.6369 210.5,71C 210.167,70.6667 209.833,70.3333 209.5,70C 212.833,69.6667 216.167,69.3333 219.5,69C 211.391,66.5209 203.058,65.3542 194.5,65.5 Z"/></g>
<g><path style="opacity:0.871" fill="#f2e999" d="M 181.5,71.5 C 180.92,73.7488 179.587,75.4154 177.5,76.5C 178.08,74.2512 179.413,72.5846 181.5,71.5 Z"/></g>
<g><path style="opacity:1" fill="#f6edaa" d="M 183.5,77.5 C 185.5,75.8333 187.5,74.1667 189.5,72.5C 189.5,72.1667 189.5,71.8333 189.5,71.5C 193.146,70.7166 196.812,70.5499 200.5,71C 208.385,76.6859 209.552,83.5192 204,91.5C 201.591,93.5816 198.757,94.5816 195.5,94.5C 185.404,93.3436 181.404,87.6769 183.5,77.5 Z"/></g>
<g><path style="opacity:1" fill="#f5edb7" d="M 189.5,72.5 C 193.182,72.3347 196.848,72.5014 200.5,73C 201.687,74.0195 202.687,75.1861 203.5,76.5C 201.726,79.8497 202.726,81.5164 206.5,81.5C 206.5,82.8333 206.5,84.1667 206.5,85.5C 201.864,82.5661 197.53,83.0661 193.5,87C 194.38,88.3561 194.714,89.8561 194.5,91.5C 186.102,91.5879 183.268,87.5879 186,79.5C 188.201,77.7261 189.368,75.3928 189.5,72.5 Z"/></g>
<g><path style="opacity:1" fill="#e5863a" d="M 231.5,84.5 C 231.5,84.8333 231.5,85.1667 231.5,85.5C 226.972,86.9372 222.306,87.6039 217.5,87.5C 215.5,87.5 213.5,87.5 211.5,87.5C 218.099,86.7213 224.766,85.7213 231.5,84.5 Z"/></g>
<g><path style="opacity:1" fill="#e65244" d="M 231.5,85.5 C 233.294,87.7966 235.294,89.9633 237.5,92C 230.654,92.1717 223.987,92.6717 217.5,93.5C 216.041,93.4326 214.708,93.7659 213.5,94.5C 213.369,93.6236 213.702,92.9569 214.5,92.5C 216.444,91.8108 218.444,91.3108 220.5,91C 218.937,90.2411 217.937,89.0744 217.5,87.5C 222.306,87.6039 226.972,86.9372 231.5,85.5 Z"/></g>
<g><path style="opacity:0.165" fill="#fcfab1" d="M 174.5,85.5 C 174.569,90.8537 174.902,96.187 175.5,101.5C 173.476,96.2448 173.143,90.9115 174.5,85.5 Z"/></g>
<g><path style="opacity:1" fill="#de3823" d="M 211.5,87.5 C 213.5,87.5 215.5,87.5 217.5,87.5C 217.937,89.0744 218.937,90.2411 220.5,91C 218.444,91.3108 216.444,91.8108 214.5,92.5C 213.702,92.9569 213.369,93.6236 213.5,94.5C 212.596,95.209 212.263,96.209 212.5,97.5C 208.252,96.4118 206.752,93.7452 208,89.5C 208.816,88.1772 209.983,87.5106 211.5,87.5 Z"/></g>
<g><path style="opacity:1" fill="#c35e56" d="M 231.5,85.5 C 231.5,85.1667 231.5,84.8333 231.5,84.5C 232.167,84.5 232.833,84.5 233.5,84.5C 235.099,86.6038 236.932,88.6038 239,90.5C 239.74,91.7494 239.573,92.7494 238.5,93.5C 231.5,93.5 224.5,93.5 217.5,93.5C 223.987,92.6717 230.654,92.1717 237.5,92C 235.294,89.9633 233.294,87.7966 231.5,85.5 Z"/></g>
<g><path style="opacity:1" fill="#8f6a62" d="M 217.5,93.5 C 224.5,93.5 231.5,93.5 238.5,93.5C 237.833,94.1667 237.167,94.8333 236.5,95.5C 229.58,94.3722 222.58,94.2055 215.5,95C 214.619,95.7083 213.953,96.5416 213.5,97.5C 213.167,97.5 212.833,97.5 212.5,97.5C 212.263,96.209 212.596,95.209 213.5,94.5C 214.708,93.7659 216.041,93.4326 217.5,93.5 Z"/></g>
<g><path style="opacity:1" fill="#eee064" d="M 194.5,65.5 C 203.058,65.3542 211.391,66.5209 219.5,69C 216.167,69.3333 212.833,69.6667 209.5,70C 209.833,70.3333 210.167,70.6667 210.5,71C 214.801,70.6369 219.134,70.6369 223.5,71C 225.323,71.9973 226.99,73.1639 228.5,74.5C 231.209,77.2506 232.875,80.5839 233.5,84.5C 232.833,84.5 232.167,84.5 231.5,84.5C 224.766,85.7213 218.099,86.7213 211.5,87.5C 209.983,87.5106 208.816,88.1772 208,89.5C 206.752,93.7452 208.252,96.4118 212.5,97.5C 212.833,97.5 213.167,97.5 213.5,97.5C 213.5,97.8333 213.5,98.1667 213.5,98.5C 214.457,102.997 214.457,107.33 213.5,111.5C 212.92,107.19 212.586,102.857 212.5,98.5C 206.178,95.1036 202.512,97.1036 201.5,104.5C 200.667,104.833 199.833,105.167 199,105.5C 194.989,104.386 191.155,102.886 187.5,101C 185.697,97.8967 183.53,95.0633 181,92.5C 180.333,88.8333 180.333,85.1667 181,81.5C 181.122,79.563 181.955,78.2297 183.5,77.5C 181.404,87.6769 185.404,93.3436 195.5,94.5C 198.757,94.5816 201.591,93.5816 204,91.5C 209.552,83.5192 208.385,76.6859 200.5,71C 196.812,70.5499 193.146,70.7166 189.5,71.5C 190.091,70.8485 190.757,70.1818 191.5,69.5C 191,69.1667 190.5,68.8333 190,68.5C 187.256,69.8031 184.423,70.8031 181.5,71.5C 184.947,67.7528 189.28,65.7528 194.5,65.5 Z"/></g>
<g><path style="opacity:1" fill="#6b6d68" d="M 236.5,95.5 C 236.665,99.1817 236.499,102.848 236,106.5C 235.296,108.727 234.129,109.06 232.5,107.5C 228.018,106.674 223.351,106.174 218.5,106C 217.067,103.827 215.734,101.66 214.5,99.5C 214.5,98.8333 214.167,98.5 213.5,98.5C 213.5,98.1667 213.5,97.8333 213.5,97.5C 213.953,96.5416 214.619,95.7083 215.5,95C 222.58,94.2055 229.58,94.3722 236.5,95.5 Z"/></g>
<g><path style="opacity:1" fill="#e3d42d" d="M 189.5,71.5 C 189.5,71.8333 189.5,72.1667 189.5,72.5C 187.5,74.1667 185.5,75.8333 183.5,77.5C 181.955,78.2297 181.122,79.563 181,81.5C 180.333,85.1667 180.333,88.8333 181,92.5C 183.53,95.0633 185.697,97.8967 187.5,101C 191.155,102.886 194.989,104.386 199,105.5C 199.833,105.167 200.667,104.833 201.5,104.5C 202.512,97.1036 206.178,95.1036 212.5,98.5C 212.586,102.857 212.92,107.19 213.5,111.5C 213.317,115.063 211.983,118.063 209.5,120.5C 200.739,120.432 192.072,119.766 183.5,118.5C 183.167,117.5 182.5,116.833 181.5,116.5C 178.666,111.832 176.666,106.832 175.5,101.5C 174.902,96.187 174.569,90.8537 174.5,85.5C 174.138,81.919 175.138,78.919 177.5,76.5C 179.587,75.4154 180.92,73.7488 181.5,71.5C 184.423,70.8031 187.256,69.8031 190,68.5C 190.5,68.8333 191,69.1667 191.5,69.5C 190.757,70.1818 190.091,70.8485 189.5,71.5 Z"/></g>
<g><path style="opacity:1" fill="#5c4817" d="M 213.5,98.5 C 214.167,98.5 214.5,98.8333 214.5,99.5C 218.371,109.057 216.371,117.057 208.5,123.5C 207.167,123.5 206.5,124.167 206.5,125.5C 204.307,124.105 201.974,123.105 199.5,122.5C 202.187,122.664 204.854,122.497 207.5,122C 208.416,121.722 209.082,121.222 209.5,120.5C 211.983,118.063 213.317,115.063 213.5,111.5C 214.457,107.33 214.457,102.997 213.5,98.5 Z"/></g>
<g><path style="opacity:1" fill="#e8b499" d="M 214.5,99.5 C 215.734,101.66 217.067,103.827 218.5,106C 223.351,106.174 228.018,106.674 232.5,107.5C 234.28,110.949 233.446,113.616 230,115.5C 229.13,120.887 228.13,126.22 227,131.5C 226,132.167 225,132.833 224,133.5C 219.72,131.575 215.22,130.575 210.5,130.5C 207.77,134.053 204.437,134.386 200.5,131.5C 199.091,130.151 197.757,128.818 196.5,127.5C 200.167,127.5 203.833,127.5 207.5,127.5C 208.601,128.8 209.934,129.3 211.5,129C 210.029,127.417 209.029,125.583 208.5,123.5C 216.371,117.057 218.371,109.057 214.5,99.5 Z"/></g>
<g><path style="opacity:1" fill="#ccc043" d="M 183.5,118.5 C 192.072,119.766 200.739,120.432 209.5,120.5C 209.082,121.222 208.416,121.722 207.5,122C 204.854,122.497 202.187,122.664 199.5,122.5C 196.381,121.13 193.048,120.13 189.5,119.5C 187.265,119.795 185.265,119.461 183.5,118.5 Z"/></g>
<g><path style="opacity:1" fill="#5f4919" d="M 189.5,119.5 C 193.048,120.13 196.381,121.13 199.5,122.5C 195.846,122.058 192.179,121.724 188.5,121.5C 188.833,120.833 189.167,120.167 189.5,119.5 Z"/></g>
<g><path style="opacity:1" fill="#c38a6c" d="M 188.5,121.5 C 192.179,121.724 195.846,122.058 199.5,122.5C 201.974,123.105 204.307,124.105 206.5,125.5C 206.833,126.167 207.167,126.833 207.5,127.5C 203.833,127.5 200.167,127.5 196.5,127.5C 192.643,126.934 189.977,124.934 188.5,121.5 Z"/></g>
<g><path style="opacity:1" fill="#3c2119" d="M 208.5,123.5 C 209.029,125.583 210.029,127.417 211.5,129C 209.934,129.3 208.601,128.8 207.5,127.5C 207.167,126.833 206.833,126.167 206.5,125.5C 206.5,124.167 207.167,123.5 208.5,123.5 Z"/></g>
<g><path style="opacity:1" fill="#f0e974" d="M 313.5,140.5 C 310.908,136.449 308.908,136.782 307.5,141.5C 307.337,138.314 308.337,135.647 310.5,133.5C 312.849,135.204 313.849,137.537 313.5,140.5 Z"/></g>
<g><path style="opacity:1" fill="#f0e233" d="M 313.5,140.5 C 315.907,146.172 316.74,152.172 316,158.5C 315.617,159.056 315.117,159.389 314.5,159.5C 312.973,159.427 311.973,160.094 311.5,161.5C 310.833,161.833 310.167,162.167 309.5,162.5C 308.5,162.5 307.5,162.5 306.5,162.5C 306.668,155.49 307.001,148.49 307.5,141.5C 308.908,136.782 310.908,136.449 313.5,140.5 Z"/></g>
<g><path style="opacity:1" fill="#f1e870" d="M 307.5,141.5 C 307.001,148.49 306.668,155.49 306.5,162.5C 307.5,162.5 308.5,162.5 309.5,162.5C 309.5,162.833 309.5,163.167 309.5,163.5C 308.021,166.046 306.521,166.046 305,163.5C 303.983,155.828 304.816,148.494 307.5,141.5 Z"/></g>
<g><path style="opacity:1" fill="#a7c6bb" d="M 181.5,116.5 C 182.5,116.833 183.167,117.5 183.5,118.5C 185.265,119.461 187.265,119.795 189.5,119.5C 189.167,120.167 188.833,120.833 188.5,121.5C 189.977,124.934 192.643,126.934 196.5,127.5C 197.757,128.818 199.091,130.151 200.5,131.5C 204.437,134.386 207.77,134.053 210.5,130.5C 211.241,136.471 211.575,142.471 211.5,148.5C 211.826,152.884 211.492,157.217 210.5,161.5C 205.383,158.885 201.883,154.885 200,149.5C 193.64,142.566 185.807,139.4 176.5,140C 172.076,145.729 170.409,152.229 171.5,159.5C 171.945,164.337 173.112,169.004 175,173.5C 179.341,180.166 182.341,187.499 184,195.5C 186.333,200.166 188.667,204.833 191,209.5C 191.414,209.957 191.914,210.291 192.5,210.5C 193.376,202.177 194.043,193.844 194.5,185.5C 202.047,187.606 208.713,191.273 214.5,196.5C 213.504,196.586 212.671,196.252 212,195.5C 213.143,203.208 214.809,210.874 217,218.5C 217.359,223.702 217.526,228.702 217.5,233.5C 214.743,235.086 211.743,236.086 208.5,236.5C 203.91,238.128 199.577,240.295 195.5,243C 193.091,243.935 190.591,244.435 188,244.5C 180.46,243.308 172.96,241.975 165.5,240.5C 161.368,240.577 157.368,241.244 153.5,242.5C 153.795,244.735 153.461,246.735 152.5,248.5C 152.244,244.731 152.577,241.064 153.5,237.5C 154.268,236.737 154.768,235.737 155,234.5C 155.5,209.502 155.667,184.502 155.5,159.5C 155.75,152.326 157.75,145.66 161.5,139.5C 157.823,135.269 153.156,132.936 147.5,132.5C 146.337,130.45 146.504,128.45 148,126.5C 154.992,121.255 162.492,116.922 170.5,113.5C 174.315,114.028 177.815,115.362 181,117.5C 181.399,117.272 181.565,116.938 181.5,116.5 Z"/></g>
<g><path style="opacity:1" fill="#99b6ae" d="M 167.5,119.5 C 169.22,121.658 170.053,124.325 170,127.5C 174.19,131.449 179.024,132.449 184.5,130.5C 193.143,130.738 199.643,134.404 204,141.5C 204.798,143.259 204.631,144.926 203.5,146.5C 201.525,140.692 197.525,137.192 191.5,136C 188.374,135.241 185.207,134.741 182,134.5C 177.146,135.672 172.312,137.006 167.5,138.5C 162.945,137.239 159.612,134.572 157.5,130.5C 159.061,127.476 161.561,125.809 165,125.5C 166.669,123.831 167.502,121.831 167.5,119.5 Z"/></g>
<g><path style="opacity:1" fill="#a4a294" d="M 292.5,157.5 C 290.891,160.149 290.057,163.149 290,166.5C 288.89,168.037 287.39,168.703 285.5,168.5C 285.5,163.5 285.5,158.5 285.5,153.5C 286.827,150.343 289.16,149.176 292.5,150C 293.814,152.605 293.814,155.105 292.5,157.5 Z"/></g>
<g><path style="opacity:0.241" fill="#ecea9d" d="M 295.5,167.5 C 295.167,167.5 294.833,167.5 294.5,167.5C 294.664,164.813 294.497,162.146 294,159.5C 293.623,160.942 292.79,161.942 291.5,162.5C 292.038,160.883 292.371,159.216 292.5,157.5C 293.814,155.105 293.814,152.605 292.5,150C 289.16,149.176 286.827,150.343 285.5,153.5C 286.421,147.707 289.255,146.374 294,149.5C 295.361,155.407 295.861,161.407 295.5,167.5 Z"/></g>
<g><path style="opacity:1" fill="#e2da48" d="M 294.5,167.5 C 293.662,167.842 293.328,168.508 293.5,169.5C 291.656,167.721 290.99,165.388 291.5,162.5C 292.79,161.942 293.623,160.942 294,159.5C 294.497,162.146 294.664,164.813 294.5,167.5 Z"/></g>
<g><path style="opacity:1" fill="#9bb6ad" d="M 171.5,159.5 C 173.628,162.13 175.961,164.63 178.5,167C 185.986,170.273 193.653,172.94 201.5,175C 202.806,177.573 204.473,179.906 206.5,182C 215.776,187.721 225.609,192.221 236,195.5C 246.893,202.183 258.726,206.183 271.5,207.5C 271.351,208.552 271.517,209.552 272,210.5C 272.804,207.804 273.971,205.304 275.5,203C 275.167,202.667 274.833,202.333 274.5,202C 276.452,201.634 278.118,200.801 279.5,199.5C 280.167,199.5 280.5,199.833 280.5,200.5C 275.835,203.456 273.835,207.789 274.5,213.5C 267.661,217.921 261.328,217.088 255.5,211C 246.161,210.163 237.828,206.83 230.5,201C 224.959,200.116 219.625,198.616 214.5,196.5C 208.713,191.273 202.047,187.606 194.5,185.5C 194.043,193.844 193.376,202.177 192.5,210.5C 191.914,210.291 191.414,209.957 191,209.5C 188.667,204.833 186.333,200.166 184,195.5C 182.341,187.499 179.341,180.166 175,173.5C 173.112,169.004 171.945,164.337 171.5,159.5 Z"/></g>
<g><path style="opacity:1" fill="#80998f" d="M 214.5,161.5 C 220.855,163.337 226.188,166.67 230.5,171.5C 230.265,172.097 229.765,172.43 229,172.5C 227.107,171.804 225.274,170.97 223.5,170C 221.199,166.865 218.199,164.698 214.5,163.5C 213.227,162.743 213.227,162.077 214.5,161.5 Z"/></g>
<g><path style="opacity:0.878" fill="#c1c08a" d="M 285.5,153.5 C 285.5,158.5 285.5,163.5 285.5,168.5C 287.39,168.703 288.89,168.037 290,166.5C 290.057,163.149 290.891,160.149 292.5,157.5C 292.371,159.216 292.038,160.883 291.5,162.5C 290.99,165.388 291.656,167.721 293.5,169.5C 293.5,170.167 293.5,170.833 293.5,171.5C 291.418,171.472 289.584,172.139 288,173.5C 284.717,171.134 283.217,167.801 283.5,163.5C 283.754,159.95 284.421,156.617 285.5,153.5 Z"/></g>
<g><path style="opacity:1" fill="#b3d2c6" d="M 211.5,148.5 C 212.608,152.692 213.608,157.025 214.5,161.5C 213.227,162.077 213.227,162.743 214.5,163.5C 218.199,164.698 221.199,166.865 223.5,170C 225.274,170.97 227.107,171.804 229,172.5C 229.765,172.43 230.265,172.097 230.5,171.5C 233.702,172.131 236.702,173.131 239.5,174.5C 237.051,173.943 234.718,173.943 232.5,174.5C 235.167,176.5 237.833,178.5 240.5,180.5C 241.298,180.043 241.631,179.376 241.5,178.5C 243.746,179.21 246.08,179.71 248.5,180C 250.101,183.107 252.435,185.273 255.5,186.5C 258.67,188.755 262.67,190.755 267.5,192.5C 268.463,192.03 268.463,191.363 267.5,190.5C 273.23,191.234 277.23,194.234 279.5,199.5C 278.118,200.801 276.452,201.634 274.5,202C 274.833,202.333 275.167,202.667 275.5,203C 273.971,205.304 272.804,207.804 272,210.5C 271.517,209.552 271.351,208.552 271.5,207.5C 258.726,206.183 246.893,202.183 236,195.5C 225.609,192.221 215.776,187.721 206.5,182C 204.473,179.906 202.806,177.573 201.5,175C 193.653,172.94 185.986,170.273 178.5,167C 175.961,164.63 173.628,162.13 171.5,159.5C 170.409,152.229 172.076,145.729 176.5,140C 185.807,139.4 193.64,142.566 200,149.5C 201.883,154.885 205.383,158.885 210.5,161.5C 211.492,157.217 211.826,152.884 211.5,148.5 Z"/></g>
<g><path style="opacity:0.062" fill="#ededeb" d="M 311.5,161.5 C 311.829,174.344 311.495,187.011 310.5,199.5C 310.828,187.322 310.495,175.322 309.5,163.5C 309.5,163.167 309.5,162.833 309.5,162.5C 310.167,162.167 310.833,161.833 311.5,161.5 Z"/></g>
<g><path style="opacity:1" fill="#6f897f" d="M 239.5,174.5 C 240.674,175.514 241.34,176.847 241.5,178.5C 241.631,179.376 241.298,180.043 240.5,180.5C 237.833,178.5 235.167,176.5 232.5,174.5C 234.718,173.943 237.051,173.943 239.5,174.5 Z"/></g>
<g><path style="opacity:0.769" fill="#848783" d="M 293.5,171.5 C 295.04,173.838 295.706,176.505 295.5,179.5C 294.232,177.095 293.565,174.428 293.5,171.5 Z"/></g>
<g><path style="opacity:1" fill="#272623" d="M 314.5,199.5 C 315.11,200.391 315.443,201.391 315.5,202.5C 315.5,202.833 315.5,203.167 315.5,203.5C 315.167,204.167 314.833,204.833 314.5,205.5C 314.167,205.5 313.833,205.5 313.5,205.5C 313.167,205.5 312.833,205.5 312.5,205.5C 310.821,205.715 309.821,205.048 309.5,203.5C 309.263,202.209 309.596,201.209 310.5,200.5C 312.318,187.872 313.152,174.872 313,161.5C 313.169,174.34 313.669,187.007 314.5,199.5 Z"/></g>
<g><path style="opacity:0.51" fill="#9f9c9e" d="M 296.5,172.5 C 298.102,176.239 299.102,180.239 299.5,184.5C 297.584,180.837 296.584,176.837 296.5,172.5 Z"/></g>
<g><path style="opacity:0.834" fill="#7f7e7d" d="M 314.5,159.5 C 314.5,172.833 314.5,186.167 314.5,199.5C 313.669,187.007 313.169,174.34 313,161.5C 313.152,174.872 312.318,187.872 310.5,200.5C 310.5,200.167 310.5,199.833 310.5,199.5C 311.495,187.011 311.829,174.344 311.5,161.5C 311.973,160.094 312.973,159.427 314.5,159.5 Z"/></g>
<g><path style="opacity:1" fill="#879f97" d="M 255.5,186.5 C 260.004,186.619 264.004,187.952 267.5,190.5C 268.463,191.363 268.463,192.03 267.5,192.5C 262.67,190.755 258.67,188.755 255.5,186.5 Z"/></g>
<g><path style="opacity:1" fill="#cadad5" d="M 155.5,159.5 C 155.667,184.502 155.5,209.502 155,234.5C 154.768,235.737 154.268,236.737 153.5,237.5C 154.487,223.688 154.487,209.855 153.5,196C 153.682,183.65 154.349,171.483 155.5,159.5 Z"/></g>
<g><path style="opacity:0.231" fill="#b2b4b5" d="M 298.5,194.5 C 299.477,197.287 299.81,200.287 299.5,203.5C 297.901,203.768 296.568,203.434 295.5,202.5C 296.5,202.5 297.5,202.5 298.5,202.5C 298.5,199.833 298.5,197.167 298.5,194.5 Z"/></g>
<g><path style="opacity:1" fill="#e6dd61" d="M 331.5,201.5 C 332.341,203.379 332.675,205.379 332.5,207.5C 331.751,206.469 331.085,205.302 330.5,204C 325.511,203.501 320.511,203.334 315.5,203.5C 315.5,203.167 315.5,202.833 315.5,202.5C 320.797,201.725 326.13,201.392 331.5,201.5 Z"/></g>
<g><path style="opacity:1" fill="#e4b79e" d="M 280.5,200.5 C 284.514,200.334 288.514,200.501 292.5,201C 293.737,201.232 294.737,201.732 295.5,202.5C 294.624,202.369 293.957,202.702 293.5,203.5C 299.297,208.623 298.63,212.29 291.5,214.5C 289.973,214.573 288.973,213.906 288.5,212.5C 291.788,207.606 290.454,205.773 284.5,207C 283.066,209.528 283.733,211.362 286.5,212.5C 282.794,214.792 278.794,215.126 274.5,213.5C 273.835,207.789 275.835,203.456 280.5,200.5 Z"/></g>
<g><path style="opacity:1" fill="#32312e" d="M 294.5,167.5 C 294.833,167.5 295.167,167.5 295.5,167.5C 296.038,169.117 296.371,170.784 296.5,172.5C 296.584,176.837 297.584,180.837 299.5,184.5C 300.804,191.752 303.471,198.419 307.5,204.5C 308.6,205.605 309.267,206.938 309.5,208.5C 309.5,209.5 309.5,210.5 309.5,211.5C 308.662,211.842 308.328,212.508 308.5,213.5C 307.711,213.783 307.044,214.283 306.5,215C 302.644,215.177 298.977,215.677 295.5,216.5C 293.62,216.771 292.287,216.104 291.5,214.5C 298.63,212.29 299.297,208.623 293.5,203.5C 293.957,202.702 294.624,202.369 295.5,202.5C 296.568,203.434 297.901,203.768 299.5,203.5C 299.81,200.287 299.477,197.287 298.5,194.5C 297.178,189.571 296.178,184.571 295.5,179.5C 295.706,176.505 295.04,173.838 293.5,171.5C 293.5,170.833 293.5,170.167 293.5,169.5C 293.328,168.508 293.662,167.842 294.5,167.5 Z"/></g>
<g><path style="opacity:1" fill="#bbbabb" d="M 309.5,203.5 C 309.821,205.048 310.821,205.715 312.5,205.5C 312.5,206.5 312.5,207.5 312.5,208.5C 311.5,208.5 310.5,208.5 309.5,208.5C 309.267,206.938 308.6,205.605 307.5,204.5C 308.167,204.167 308.833,203.833 309.5,203.5 Z"/></g>
<g><path style="opacity:1" fill="#33251f" d="M 288.5,212.5 C 287.833,212.5 287.167,212.5 286.5,212.5C 283.733,211.362 283.066,209.528 284.5,207C 290.454,205.773 291.788,207.606 288.5,212.5 Z"/></g>
<g><path style="opacity:1" fill="#cdcc7a" d="M 312.5,205.5 C 312.833,205.5 313.167,205.5 313.5,205.5C 314.138,208.856 312.804,210.856 309.5,211.5C 309.5,210.5 309.5,209.5 309.5,208.5C 310.5,208.5 311.5,208.5 312.5,208.5C 312.5,207.5 312.5,206.5 312.5,205.5 Z"/></g>
<g><path style="opacity:1" fill="#bfc0bd" d="M 331.5,201.5 C 334.85,201.335 338.183,201.502 341.5,202C 343.354,204.543 344.521,207.376 345,210.5C 346.474,218.483 345.307,225.983 341.5,233C 339.455,233.49 337.455,233.323 335.5,232.5C 337.429,227.353 337.929,222.02 337,216.5C 336.284,214.121 335.117,212.121 333.5,210.5C 333.737,209.209 333.404,208.209 332.5,207.5C 332.675,205.379 332.341,203.379 331.5,201.5 Z"/></g>
<g><path style="opacity:1" fill="#b7b7a9" d="M 308.5,213.5 C 306.93,218.329 303.764,219.662 299,217.5C 297.97,217.836 297.47,218.503 297.5,219.5C 296.833,218.5 296.167,217.5 295.5,216.5C 298.977,215.677 302.644,215.177 306.5,215C 307.044,214.283 307.711,213.783 308.5,213.5 Z"/></g>
<g><path style="opacity:1" fill="#e4e175" d="M 309.5,211.5 C 309.509,218.147 306.175,220.814 299.5,219.5C 299.833,222.167 300.167,224.833 300.5,227.5C 298.98,225.11 297.98,222.443 297.5,219.5C 297.47,218.503 297.97,217.836 299,217.5C 303.764,219.662 306.93,218.329 308.5,213.5C 308.328,212.508 308.662,211.842 309.5,211.5 Z"/></g>
<g><path style="opacity:1" fill="#e3d423" d="M 315.5,203.5 C 320.511,203.334 325.511,203.501 330.5,204C 331.085,205.302 331.751,206.469 332.5,207.5C 333.404,208.209 333.737,209.209 333.5,210.5C 334.984,214.473 335.984,218.64 336.5,223C 336.035,225.603 335.368,228.103 334.5,230.5C 331.266,230.205 328.266,230.871 325.5,232.5C 325.879,234.213 326.879,235.213 328.5,235.5C 328.5,235.833 328.5,236.167 328.5,236.5C 323.473,237.176 321.807,239.843 323.5,244.5C 322.833,244.167 322.167,243.833 321.5,243.5C 321.38,242.414 320.713,241.747 319.5,241.5C 317.547,242.156 315.547,242.489 313.5,242.5C 311.167,242.5 308.833,242.5 306.5,242.5C 306.116,240.071 305.449,237.737 304.5,235.5C 309.385,237.157 314.052,236.657 318.5,234C 320.554,230.62 322.388,227.12 324,223.5C 323.984,216.89 325.817,210.89 329.5,205.5C 324.481,204.272 319.481,204.272 314.5,205.5C 314.833,204.833 315.167,204.167 315.5,203.5 Z"/></g>
<g><path style="opacity:1" fill="#efe41c" d="M 304.5,235.5 C 304.002,232.674 302.669,230.34 300.5,228.5C 300.5,228.167 300.5,227.833 300.5,227.5C 300.167,224.833 299.833,222.167 299.5,219.5C 306.175,220.814 309.509,218.147 309.5,211.5C 312.804,210.856 314.138,208.856 313.5,205.5C 313.833,205.5 314.167,205.5 314.5,205.5C 319.481,204.272 324.481,204.272 329.5,205.5C 325.817,210.89 323.984,216.89 324,223.5C 322.388,227.12 320.554,230.62 318.5,234C 314.052,236.657 309.385,237.157 304.5,235.5 Z"/></g>
<g><path style="opacity:1" fill="#dcd45c" d="M 333.5,210.5 C 335.117,212.121 336.284,214.121 337,216.5C 337.929,222.02 337.429,227.353 335.5,232.5C 333.801,232.34 332.134,232.506 330.5,233C 329.244,233.417 328.577,234.25 328.5,235.5C 326.879,235.213 325.879,234.213 325.5,232.5C 328.266,230.871 331.266,230.205 334.5,230.5C 335.368,228.103 336.035,225.603 336.5,223C 335.984,218.64 334.984,214.473 333.5,210.5 Z"/></g>
<g><path style="opacity:1" fill="#e5dd64" d="M 300.5,228.5 C 302.669,230.34 304.002,232.674 304.5,235.5C 305.449,237.737 306.116,240.071 306.5,242.5C 308.833,242.5 311.167,242.5 313.5,242.5C 311.052,243.473 308.385,243.806 305.5,243.5C 303.66,238.647 301.993,233.647 300.5,228.5 Z"/></g>
<g><path style="opacity:1" fill="#5a5c5a" d="M 208.5,236.5 C 216.85,241.676 225.516,246.343 234.5,250.5C 234.833,249.833 235.167,249.167 235.5,248.5C 237.101,249.165 238.601,249.499 240,249.5C 239.981,247.893 239.815,246.226 239.5,244.5C 242.757,245.769 245.757,247.436 248.5,249.5C 247.178,249.67 246.011,249.337 245,248.5C 244.274,251.288 242.44,252.788 239.5,253C 247.286,257.309 255.119,261.475 263,265.5C 263.689,264.643 264.522,263.977 265.5,263.5C 266.243,264.908 267.077,266.241 268,267.5C 267.843,265.169 267.343,262.836 266.5,260.5C 269.135,261.811 271.469,263.478 273.5,265.5C 272.178,265.67 271.011,265.337 270,264.5C 269.578,266.355 269.078,268.189 268.5,270C 271.473,274.581 273.473,279.581 274.5,285C 272.775,296.175 269.442,306.842 264.5,317C 264.57,317.765 264.903,318.265 265.5,318.5C 261.591,326.121 259.925,334.121 260.5,342.5C 264.036,340.91 267.703,340.41 271.5,341C 272.126,341.75 272.626,342.584 273,343.5C 272.868,349.493 272.868,355.493 273,361.5C 274.684,366.384 275.851,371.384 276.5,376.5C 274.958,375.699 273.292,375.366 271.5,375.5C 271.285,371.734 269.951,368.4 267.5,365.5C 269.123,360.639 270.456,355.639 271.5,350.5C 270.479,345.97 267.812,343.47 263.5,343C 259.649,347.534 256.983,352.7 255.5,358.5C 257.078,359.298 258.744,359.798 260.5,360C 255.886,359.803 253.886,361.969 254.5,366.5C 253.953,368.518 252.953,370.351 251.5,372C 242.953,372.854 234.619,371.854 226.5,369C 224.576,367.25 222.909,365.417 221.5,363.5C 222.773,361.287 223.773,358.954 224.5,356.5C 225.11,355.609 225.443,354.609 225.5,353.5C 226.232,352.192 227.066,350.858 228,349.5C 228.668,344.727 229.501,340.06 230.5,335.5C 232.103,335.688 233.437,335.188 234.5,334C 233.296,332.647 232.629,330.981 232.5,329C 232.798,326.152 233.131,323.319 233.5,320.5C 233.5,320.167 233.5,319.833 233.5,319.5C 234.994,311.859 236.327,304.192 237.5,296.5C 237.984,293.212 236.984,290.545 234.5,288.5C 234.389,287.883 234.056,287.383 233.5,287C 228.867,285.645 224.2,284.478 219.5,283.5C 216.098,283.658 212.764,283.324 209.5,282.5C 206.977,281.616 204.31,280.782 201.5,280C 191.177,278.612 180.844,277.445 170.5,276.5C 169.791,275.596 168.791,275.263 167.5,275.5C 159.931,273.598 154.931,268.932 152.5,261.5C 152.702,259.05 152.369,256.717 151.5,254.5C 152.404,253.791 152.737,252.791 152.5,251.5C 152.5,250.5 152.5,249.5 152.5,248.5C 153.461,246.735 153.795,244.735 153.5,242.5C 157.368,241.244 161.368,240.577 165.5,240.5C 172.96,241.975 180.46,243.308 188,244.5C 190.591,244.435 193.091,243.935 195.5,243C 199.577,240.295 203.91,238.128 208.5,236.5 Z"/></g>
<g><path style="opacity:1" fill="#494b4a" d="M 217.5,233.5 C 225.419,236.126 232.752,239.793 239.5,244.5C 239.815,246.226 239.981,247.893 240,249.5C 238.601,249.499 237.101,249.165 235.5,248.5C 235.167,249.167 234.833,249.833 234.5,250.5C 225.516,246.343 216.85,241.676 208.5,236.5C 211.743,236.086 214.743,235.086 217.5,233.5 Z"/></g>
<g><path style="opacity:0.804" fill="#939290" d="M 81.5,247.5 C 88.5433,246.336 95.5433,246.669 102.5,248.5C 95.5036,248.106 88.5036,247.773 81.5,247.5 Z"/></g>
<g><path style="opacity:0.639" fill="#959491" d="M 113.5,249.5 C 118.731,249.444 123.731,250.111 128.5,251.5C 123.25,251.698 118.25,251.031 113.5,249.5 Z"/></g>
<g><path style="opacity:0.459" fill="#b1aeae" d="M 152.5,251.5 C 152.737,252.791 152.404,253.791 151.5,254.5C 147.267,254.461 143.267,253.795 139.5,252.5C 142.709,252.411 145.875,252.744 149,253.5C 150.434,253.138 151.601,252.472 152.5,251.5 Z"/></g>
<g><path style="opacity:1" fill="#6b6b6b" d="M 253.5,252.5 C 258.009,254.919 262.342,257.586 266.5,260.5C 264.041,262.486 262.041,261.653 260.5,258C 258.564,257.187 256.564,256.687 254.5,256.5C 254.567,255.041 254.234,253.708 253.5,252.5 Z"/></g>
<g><path style="opacity:1" fill="#e5d73c" d="M 328.5,236.5 C 328.5,236.167 328.5,235.833 328.5,235.5C 331.073,236.219 333.573,237.219 336,238.5C 342.102,249.703 347.935,261.037 353.5,272.5C 353.5,274.5 353.5,276.5 353.5,278.5C 350.753,276.566 348.92,273.899 348,270.5C 347.333,271.833 346.667,271.833 346,270.5C 345.667,268.5 345.333,266.5 345,264.5C 340.422,258.221 336.589,251.554 333.5,244.5C 336.998,244.435 337.498,243.101 335,240.5C 332.661,239.27 330.494,237.937 328.5,236.5 Z"/></g>
<g><path style="opacity:1" fill="#474642" d="M 81.5,247.5 C 88.5036,247.773 95.5036,248.106 102.5,248.5C 106.371,248.185 110.038,248.518 113.5,249.5C 118.25,251.031 123.25,251.698 128.5,251.5C 132.198,251.552 135.865,251.886 139.5,252.5C 143.267,253.795 147.267,254.461 151.5,254.5C 152.369,256.717 152.702,259.05 152.5,261.5C 126.249,258.093 99.9157,255.76 73.5,254.5C 73.5,254.167 73.5,253.833 73.5,253.5C 74.6214,249.591 77.2881,247.591 81.5,247.5 Z"/></g>
<g><path style="opacity:0.765" fill="#949392" d="M 73.5,253.5 C 73.5,253.833 73.5,254.167 73.5,254.5C 72.7368,256.368 71.7368,258.035 70.5,259.5C 68.5599,256.959 66.3932,256.959 64,259.5C 63.5045,261.473 63.3379,263.473 63.5,265.5C 64.9305,265.421 66.2638,265.754 67.5,266.5C 68.1719,265.051 68.8386,263.718 69.5,262.5C 69.5,263.833 69.5,265.167 69.5,266.5C 82.8026,267.849 96.1359,268.849 109.5,269.5C 107.052,270.473 104.385,270.806 101.5,270.5C 97.5,270.5 93.5,270.5 89.5,270.5C 81.6497,269.506 73.6497,268.506 65.5,267.5C 63.9549,267.511 62.6216,267.844 61.5,268.5C 58.7767,264.523 58.9434,260.523 62,256.5C 65.6905,254.975 69.5238,253.975 73.5,253.5 Z"/></g>
<g><path style="opacity:1" fill="#e4dc70" d="M 329.5,253.5 C 332.201,256.235 333.868,259.569 334.5,263.5C 332.833,260.833 331.167,258.167 329.5,255.5C 329.5,254.833 329.5,254.167 329.5,253.5 Z"/></g>
<g><path style="opacity:1" fill="#2d2d29" d="M 73.5,254.5 C 99.9157,255.76 126.249,258.093 152.5,261.5C 154.931,268.932 159.931,273.598 167.5,275.5C 161.536,276.307 155.536,276.64 149.5,276.5C 150.234,275.292 150.567,273.959 150.5,272.5C 136.795,271.932 123.129,270.932 109.5,269.5C 96.1359,268.849 82.8026,267.849 69.5,266.5C 69.5,265.167 69.5,263.833 69.5,262.5C 69.5569,261.391 69.8902,260.391 70.5,259.5C 71.7368,258.035 72.7368,256.368 73.5,254.5 Z"/></g>
<g><path style="opacity:1" fill="#b1b0b0" d="M 321.5,243.5 C 316.558,243.605 313.558,246.105 312.5,251C 317.055,261.027 321.389,271.194 325.5,281.5C 318.782,282.859 312.782,285.859 307.5,290.5C 306.295,289.423 305.628,288.09 305.5,286.5C 307.244,282.906 309.244,279.406 311.5,276C 306.451,267.099 303.951,257.599 304,247.5C 304.791,246.255 305.291,244.922 305.5,243.5C 308.385,243.806 311.052,243.473 313.5,242.5C 315.547,242.489 317.547,242.156 319.5,241.5C 320.713,241.747 321.38,242.414 321.5,243.5 Z"/></g>
<g><path style="opacity:1" fill="#464747" d="M 248.5,249.5 C 250.434,250.11 252.101,251.11 253.5,252.5C 254.234,253.708 254.567,255.041 254.5,256.5C 256.564,256.687 258.564,257.187 260.5,258C 262.041,261.653 264.041,262.486 266.5,260.5C 267.343,262.836 267.843,265.169 268,267.5C 267.077,266.241 266.243,264.908 265.5,263.5C 264.522,263.977 263.689,264.643 263,265.5C 255.119,261.475 247.286,257.309 239.5,253C 242.44,252.788 244.274,251.288 245,248.5C 246.011,249.337 247.178,249.67 248.5,249.5 Z"/></g>
<g><path style="opacity:1" fill="#d6d6d4" d="M 321.5,243.5 C 322.167,243.833 322.833,244.167 323.5,244.5C 326.229,247.032 328.229,250.032 329.5,253.5C 329.5,254.167 329.5,254.833 329.5,255.5C 329.396,258.09 330.063,260.423 331.5,262.5C 331.176,264.569 330.342,264.902 329,263.5C 328.333,264.5 328.333,265.5 329,266.5C 334.399,263.735 335.566,265.069 332.5,270.5C 333.631,274.797 336.298,277.631 340.5,279C 338.328,281.123 338.161,283.289 340,285.5C 341.718,281.584 342.885,281.917 343.5,286.5C 344.325,287.386 345.325,287.719 346.5,287.5C 346.74,293.227 346.407,298.894 345.5,304.5C 345.6,307.108 344.933,309.442 343.5,311.5C 341.358,314.8 340.025,318.467 339.5,322.5C 338.883,322.611 338.383,322.944 338,323.5C 336.869,326.445 336.036,329.445 335.5,332.5C 335.5,333.167 335.5,333.833 335.5,334.5C 331.2,343.916 327.033,353.583 323,363.5C 322.826,368.684 322.326,373.684 321.5,378.5C 321.665,375.15 321.498,371.817 321,368.5C 316.194,379.446 310.861,390.112 305,400.5C 301.613,403.553 297.947,406.22 294,408.5C 292.955,407.627 292.122,406.627 291.5,405.5C 292.496,405.414 293.329,405.748 294,406.5C 305.479,376.015 316.479,345.348 327,314.5C 330.719,303.161 330.219,292.161 325.5,281.5C 321.389,271.194 317.055,261.027 312.5,251C 313.558,246.105 316.558,243.605 321.5,243.5 Z"/></g>
<g><path style="opacity:1" fill="#6f6f6e" d="M 89.5,270.5 C 89.5,271.167 89.5,271.833 89.5,272.5C 84.7971,272.563 80.1304,272.229 75.5,271.5C 70.7979,270.892 66.1313,270.225 61.5,269.5C 61.5,269.167 61.5,268.833 61.5,268.5C 62.6216,267.844 63.9549,267.511 65.5,267.5C 73.6497,268.506 81.6497,269.506 89.5,270.5 Z"/></g>
<g><path style="opacity:1" fill="#d9d7c5" d="M 329.5,255.5 C 331.167,258.167 332.833,260.833 334.5,263.5C 336.281,268.396 338.615,273.063 341.5,277.5C 342.762,281.079 344.429,284.412 346.5,287.5C 345.325,287.719 344.325,287.386 343.5,286.5C 342.885,281.917 341.718,281.584 340,285.5C 338.161,283.289 338.328,281.123 340.5,279C 336.298,277.631 333.631,274.797 332.5,270.5C 335.566,265.069 334.399,263.735 329,266.5C 328.333,265.5 328.333,264.5 329,263.5C 330.342,264.902 331.176,264.569 331.5,262.5C 330.063,260.423 329.396,258.09 329.5,255.5 Z"/></g>
<g><path style="opacity:1" fill="#706748" d="M 89.5,270.5 C 93.5,270.5 97.5,270.5 101.5,270.5C 101.918,271.222 102.584,271.722 103.5,272C 109.833,272.333 116.167,272.667 122.5,273C 123.056,273.383 123.389,273.883 123.5,274.5C 122.833,274.5 122.167,274.5 121.5,274.5C 110.842,273.701 100.175,273.034 89.5,272.5C 89.5,271.833 89.5,271.167 89.5,270.5 Z"/></g>
<g><path style="opacity:1" fill="#deddda" d="M 61.5,269.5 C 66.1313,270.225 70.7979,270.892 75.5,271.5C 75.5,272.167 75.5,272.833 75.5,273.5C 70.8969,272.617 66.2303,272.283 61.5,272.5C 61.5,271.833 61.1667,271.5 60.5,271.5C 60.8333,270.833 61.1667,270.167 61.5,269.5 Z"/></g>
<g><path style="opacity:1" fill="#7d7975" d="M 109.5,269.5 C 123.129,270.932 136.795,271.932 150.5,272.5C 150.567,273.959 150.234,275.292 149.5,276.5C 147.5,276.5 145.5,276.5 143.5,276.5C 137.081,274.799 130.415,274.133 123.5,274.5C 123.389,273.883 123.056,273.383 122.5,273C 116.167,272.667 109.833,272.333 103.5,272C 102.584,271.722 101.918,271.222 101.5,270.5C 104.385,270.806 107.052,270.473 109.5,269.5 Z"/></g>
<g><path style="opacity:1" fill="#acaba5" d="M 61.5,272.5 C 66.2303,272.283 70.8969,272.617 75.5,273.5C 79.3951,274.393 82.0618,276.726 83.5,280.5C 78.128,275.764 71.9613,273.764 65,274.5C 64.3621,277.601 63.1954,280.268 61.5,282.5C 61.5,279.167 61.5,275.833 61.5,272.5 Z"/></g>
<g><path style="opacity:1" fill="#7f763b" d="M 121.5,274.5 C 122.167,274.5 122.833,274.5 123.5,274.5C 130.415,274.133 137.081,274.799 143.5,276.5C 135.963,276.482 128.629,275.815 121.5,274.5 Z"/></g>
<g><path style="opacity:1" fill="#363119" d="M 167.5,275.5 C 168.791,275.263 169.791,275.596 170.5,276.5C 169.527,276.987 168.527,277.487 167.5,278C 175.685,279.344 183.685,280.844 191.5,282.5C 189.833,282.5 188.167,282.5 186.5,282.5C 173.996,280.823 161.662,278.823 149.5,276.5C 155.536,276.64 161.536,276.307 167.5,275.5 Z"/></g>
<g><path style="opacity:1" fill="#f7e789" d="M 61.5,284.5 C 61.5,285.5 61.5,286.5 61.5,287.5C 58.7615,288.035 56.9282,287.035 56,284.5C 55.3333,281.5 55.3333,278.5 56,275.5C 57.0113,274.663 58.1779,274.33 59.5,274.5C 59.3354,277.518 59.502,280.518 60,283.5C 60.3826,284.056 60.8826,284.389 61.5,284.5 Z"/></g>
<g><path style="opacity:1" fill="#e0c62b" d="M 89.5,272.5 C 100.175,273.034 110.842,273.701 121.5,274.5C 128.629,275.815 135.963,276.482 143.5,276.5C 145.5,276.5 147.5,276.5 149.5,276.5C 161.662,278.823 173.996,280.823 186.5,282.5C 193.27,284.075 200.27,284.741 207.5,284.5C 211.5,284.5 215.5,284.5 219.5,284.5C 221.153,284.66 222.486,285.326 223.5,286.5C 210.163,286.667 196.829,286.5 183.5,286C 163.487,284.225 143.487,282.392 123.5,280.5C 113.156,281.369 103.156,283.369 93.5,286.5C 90.2475,284.73 87.9141,285.564 86.5,289C 85.6667,289.167 84.8333,289.333 84,289.5C 82.6244,289.316 81.7911,288.649 81.5,287.5C 83.7176,285.792 85.8843,283.792 88,281.5C 89.2022,279.323 89.7022,276.989 89.5,274.5C 89.5,273.833 89.5,273.167 89.5,272.5 Z"/></g>
<g><path style="opacity:1" fill="#2d2e29" d="M 170.5,276.5 C 180.844,277.445 191.177,278.612 201.5,280C 204.31,280.782 206.977,281.616 209.5,282.5C 204.833,282.5 200.167,282.5 195.5,282.5C 194.167,282.5 192.833,282.5 191.5,282.5C 183.685,280.844 175.685,279.344 167.5,278C 168.527,277.487 169.527,276.987 170.5,276.5 Z"/></g>
<g><path style="opacity:1" fill="#464847" d="M 273.5,265.5 C 278.913,268.578 282.913,272.911 285.5,278.5C 286.229,283.13 286.563,287.797 286.5,292.5C 284.779,298.274 282.779,303.94 280.5,309.5C 280.167,309.5 279.833,309.5 279.5,309.5C 275.558,313.48 270.891,316.48 265.5,318.5C 264.903,318.265 264.57,317.765 264.5,317C 269.442,306.842 272.775,296.175 274.5,285C 273.473,279.581 271.473,274.581 268.5,270C 269.078,268.189 269.578,266.355 270,264.5C 271.011,265.337 272.178,265.67 273.5,265.5 Z"/></g>
<g><path style="opacity:1" fill="#eee5a2" d="M 60.5,271.5 C 61.1667,271.5 61.5,271.833 61.5,272.5C 61.5,275.833 61.5,279.167 61.5,282.5C 61.5,283.167 61.5,283.833 61.5,284.5C 60.8826,284.389 60.3826,284.056 60,283.5C 59.502,280.518 59.3354,277.518 59.5,274.5C 58.1779,274.33 57.0113,274.663 56,275.5C 55.3333,278.5 55.3333,281.5 56,284.5C 56.9282,287.035 58.7615,288.035 61.5,287.5C 62.1667,287.5 62.5,287.833 62.5,288.5C 59.0295,289.125 56.1962,288.125 54,285.5C 53.3333,281.5 53.3333,277.5 54,273.5C 55.7889,271.771 57.9556,271.104 60.5,271.5 Z"/></g>
<g><path style="opacity:0.918" fill="#e6dc97" d="M 89.5,274.5 C 89.7022,276.989 89.2022,279.323 88,281.5C 85.8843,283.792 83.7176,285.792 81.5,287.5C 81.1667,287.5 80.8333,287.5 80.5,287.5C 80.5,286.833 80.5,286.167 80.5,285.5C 82.2785,284.33 83.2785,282.664 83.5,280.5C 84.2216,280.918 84.7216,281.584 85,282.5C 86.978,280.028 88.478,277.361 89.5,274.5 Z"/></g>
<g><path style="opacity:1" fill="#37340c" d="M 195.5,282.5 C 200.167,282.5 204.833,282.5 209.5,282.5C 212.764,283.324 216.098,283.658 219.5,283.5C 219.5,283.833 219.5,284.167 219.5,284.5C 215.5,284.5 211.5,284.5 207.5,284.5C 203.5,283.833 199.5,283.167 195.5,282.5 Z"/></g>
<g><path style="opacity:1" fill="#bebebe" d="M 325.5,281.5 C 330.219,292.161 330.719,303.161 327,314.5C 316.479,345.348 305.479,376.015 294,406.5C 293.329,405.748 292.496,405.414 291.5,405.5C 285.564,401.366 279.231,398.032 272.5,395.5C 274.167,395.5 275.833,395.5 277.5,395.5C 277.795,393.265 277.461,391.265 276.5,389.5C 277.81,387.852 279.143,386.186 280.5,384.5C 280.137,383.817 279.804,383.15 279.5,382.5C 278.5,380.5 277.5,378.5 276.5,376.5C 275.851,371.384 274.684,366.384 273,361.5C 272.868,355.493 272.868,349.493 273,343.5C 272.626,342.584 272.126,341.75 271.5,341C 267.703,340.41 264.036,340.91 260.5,342.5C 259.925,334.121 261.591,326.121 265.5,318.5C 270.891,316.48 275.558,313.48 279.5,309.5C 279.833,310.833 280.167,310.833 280.5,309.5C 282.14,308.68 283.807,307.847 285.5,307C 292.397,300.271 299.063,293.438 305.5,286.5C 305.628,288.09 306.295,289.423 307.5,290.5C 312.782,285.859 318.782,282.859 325.5,281.5 Z"/></g>
<g><path style="opacity:1" fill="#4e4d48" d="M 83.5,280.5 C 83.2785,282.664 82.2785,284.33 80.5,285.5C 77.6342,282.293 74.6342,281.96 71.5,284.5C 70.1667,285.833 68.8333,287.167 67.5,288.5C 65.8333,288.5 64.1667,288.5 62.5,288.5C 62.5,287.833 62.1667,287.5 61.5,287.5C 61.5,286.5 61.5,285.5 61.5,284.5C 61.5,283.833 61.5,283.167 61.5,282.5C 63.1954,280.268 64.3621,277.601 65,274.5C 71.9613,273.764 78.128,275.764 83.5,280.5 Z"/></g>
<g><path style="opacity:1" fill="#99958c" d="M 80.5,285.5 C 80.5,286.167 80.5,286.833 80.5,287.5C 76.4434,284.409 74.11,285.409 73.5,290.5C 73.9746,287.918 73.3079,285.918 71.5,284.5C 74.6342,281.96 77.6342,282.293 80.5,285.5 Z"/></g>
<g><path style="opacity:1" fill="#938126" d="M 186.5,282.5 C 188.167,282.5 189.833,282.5 191.5,282.5C 192.833,282.5 194.167,282.5 195.5,282.5C 199.5,283.167 203.5,283.833 207.5,284.5C 200.27,284.741 193.27,284.075 186.5,282.5 Z"/></g>
<g><path style="opacity:1" fill="#f1e024" d="M 328.5,236.5 C 330.494,237.937 332.661,239.27 335,240.5C 337.498,243.101 336.998,244.435 333.5,244.5C 336.589,251.554 340.422,258.221 345,264.5C 345.333,266.5 345.667,268.5 346,270.5C 346.667,271.833 347.333,271.833 348,270.5C 348.92,273.899 350.753,276.566 353.5,278.5C 353.629,280.216 353.962,281.883 354.5,283.5C 353.5,283.833 352.833,284.5 352.5,285.5C 350.983,285.511 349.816,286.177 349,287.5C 349.266,284.099 347.766,282.433 344.5,282.5C 344.759,280.011 343.759,278.344 341.5,277.5C 338.615,273.063 336.281,268.396 334.5,263.5C 333.868,259.569 332.201,256.235 329.5,253.5C 328.229,250.032 326.229,247.032 323.5,244.5C 321.807,239.843 323.473,237.176 328.5,236.5 Z"/></g>
<g><path style="opacity:1" fill="#f6e85a" d="M 223.5,286.5 C 225.806,286.993 228.139,287.326 230.5,287.5C 230.5,288.167 230.167,288.5 229.5,288.5C 228.5,288.5 227.5,288.5 226.5,288.5C 226.371,290.216 226.038,291.883 225.5,293.5C 222.707,295.454 220.041,297.621 217.5,300C 210.852,302.182 204.018,303.348 197,303.5C 164.922,301.176 133.088,297.176 101.5,291.5C 99.3603,291.556 97.6936,292.223 96.5,293.5C 96.5,294.833 96.5,296.167 96.5,297.5C 95.5,297.5 94.5,297.5 93.5,297.5C 93.5,297.167 93.5,296.833 93.5,296.5C 96.1004,293.28 96.1004,289.947 93.5,286.5C 103.156,283.369 113.156,281.369 123.5,280.5C 143.487,282.392 163.487,284.225 183.5,286C 196.829,286.5 210.163,286.667 223.5,286.5 Z"/></g>
<g><path style="opacity:0.435" fill="#a7a9a8" d="M 285.5,278.5 C 286.973,281.017 287.64,283.85 287.5,287C 287.494,289.033 287.161,290.866 286.5,292.5C 286.563,287.797 286.229,283.13 285.5,278.5 Z"/></g>
<g><path style="opacity:1" fill="#e8d562" d="M 353.5,272.5 C 355.21,274.46 355.543,276.627 354.5,279C 356.568,281.642 358.235,284.475 359.5,287.5C 357.174,286.855 355.507,285.522 354.5,283.5C 353.962,281.883 353.629,280.216 353.5,278.5C 353.5,276.5 353.5,274.5 353.5,272.5 Z"/></g>
<g><path style="opacity:1" fill="#726839" d="M 219.5,284.5 C 219.5,284.167 219.5,283.833 219.5,283.5C 224.2,284.478 228.867,285.645 233.5,287C 234.056,287.383 234.389,287.883 234.5,288.5C 233.167,288.167 231.833,287.833 230.5,287.5C 228.139,287.326 225.806,286.993 223.5,286.5C 222.486,285.326 221.153,284.66 219.5,284.5 Z"/></g>
<g><path style="opacity:1" fill="#4f4c44" d="M 80.5,287.5 C 80.5,288.5 80.5,289.5 80.5,290.5C 84.059,290.408 87.3924,291.241 90.5,293C 89.9056,293.464 89.2389,293.631 88.5,293.5C 85.6904,291.822 83.357,292.155 81.5,294.5C 80.2983,296.392 78.965,298.226 77.5,300C 75.9343,300.765 74.6009,300.598 73.5,299.5C 73.5,296.5 73.5,293.5 73.5,290.5C 74.11,285.409 76.4434,284.409 80.5,287.5 Z"/></g>
<g><path style="opacity:0.299" fill="#fcf4a1" d="M 408.5,291.5 C 399.842,290.319 391.176,290.319 382.5,291.5C 386.921,290.088 391.588,289.421 396.5,289.5C 400.777,289.337 404.777,290.003 408.5,291.5 Z"/></g>
<g><path style="opacity:1" fill="#757261" d="M 93.5,286.5 C 96.1004,289.947 96.1004,293.28 93.5,296.5C 91.8333,296.5 90.1667,296.5 88.5,296.5C 88.5,295.5 88.5,294.5 88.5,293.5C 89.2389,293.631 89.9056,293.464 90.5,293C 87.3924,291.241 84.059,290.408 80.5,290.5C 80.5,289.5 80.5,288.5 80.5,287.5C 80.8333,287.5 81.1667,287.5 81.5,287.5C 81.7911,288.649 82.6244,289.316 84,289.5C 84.8333,289.333 85.6667,289.167 86.5,289C 87.9141,285.564 90.2475,284.73 93.5,286.5 Z"/></g>
<g><path style="opacity:1" fill="#eee151" d="M 408.5,291.5 C 412.915,291.861 416.915,293.194 420.5,295.5C 406.358,292.283 392.025,291.617 377.5,293.5C 377.5,293.167 377.5,292.833 377.5,292.5C 379.117,291.962 380.784,291.629 382.5,291.5C 391.176,290.319 399.842,290.319 408.5,291.5 Z"/></g>
<g><path style="opacity:0.082" fill="#f8ebab" d="M 359.5,287.5 C 361.296,288.793 362.963,290.293 364.5,292C 368.821,292.499 373.154,292.666 377.5,292.5C 377.5,292.833 377.5,293.167 377.5,293.5C 376.833,293.5 376.167,293.5 375.5,293.5C 371.486,293.666 367.486,293.499 363.5,293C 361.536,291.549 360.203,289.716 359.5,287.5 Z"/></g>
<g><path style="opacity:1" fill="#f0e393" d="M 71.5,284.5 C 73.3079,285.918 73.9746,287.918 73.5,290.5C 73.5,293.5 73.5,296.5 73.5,299.5C 72.5084,299.672 71.8417,299.338 71.5,298.5C 70.4324,297.566 69.099,297.232 67.5,297.5C 67.5,294.5 67.5,291.5 67.5,288.5C 68.8333,287.167 70.1667,285.833 71.5,284.5 Z"/></g>
<g><path style="opacity:1" fill="#e3c930" d="M 230.5,287.5 C 231.833,287.833 233.167,288.167 234.5,288.5C 236.984,290.545 237.984,293.212 237.5,296.5C 231.37,301.767 228.87,308.434 230,316.5C 230.422,318.426 231.589,319.426 233.5,319.5C 233.5,319.833 233.5,320.167 233.5,320.5C 232.135,323.736 231.135,327.069 230.5,330.5C 230.579,329.07 230.246,327.736 229.5,326.5C 221.127,319.743 219.294,311.41 224,301.5C 226.293,297.285 228.126,292.952 229.5,288.5C 230.167,288.5 230.5,288.167 230.5,287.5 Z"/></g>
<g><path style="opacity:1" fill="#e5c534" d="M 354.5,283.5 C 355.507,285.522 357.174,286.855 359.5,287.5C 360.203,289.716 361.536,291.549 363.5,293C 367.486,293.499 371.486,293.666 375.5,293.5C 375.719,294.675 375.386,295.675 374.5,296.5C 371.273,299.279 368.273,302.279 365.5,305.5C 362.3,302.134 359.8,298.134 358,293.5C 355.318,291.88 352.818,290.046 350.5,288C 351.381,287.292 352.047,286.458 352.5,285.5C 352.833,284.5 353.5,283.833 354.5,283.5 Z"/></g>
<g><path style="opacity:1" fill="#656032" d="M 88.5,293.5 C 88.5,294.5 88.5,295.5 88.5,296.5C 90.1667,296.5 91.8333,296.5 93.5,296.5C 93.5,296.833 93.5,297.167 93.5,297.5C 90.3724,299.231 88.0391,298.398 86.5,295C 84.8659,294.506 83.1992,294.34 81.5,294.5C 83.357,292.155 85.6904,291.822 88.5,293.5 Z"/></g>
<g><path style="opacity:1" fill="#e0d7ac" d="M 346.5,287.5 C 347.537,288.93 348.204,290.597 348.5,292.5C 348.666,296.674 348,300.674 346.5,304.5C 346.167,304.5 345.833,304.5 345.5,304.5C 346.407,298.894 346.74,293.227 346.5,287.5 Z"/></g>
<g><path style="opacity:1" fill="#e3cc23" d="M 225.5,293.5 C 224.311,296.885 222.644,300.052 220.5,303C 212.119,309.899 202.452,312.566 191.5,311C 176.907,307.715 162.24,305.382 147.5,304C 157.045,310.544 164.878,318.711 171,328.5C 171.099,326.347 171.933,324.681 173.5,323.5C 173.301,326.941 173.801,330.274 175,333.5C 177.091,336.74 178.924,340.074 180.5,343.5C 180.565,343.938 180.399,344.272 180,344.5C 178.615,343.449 177.615,342.116 177,340.5C 176.674,344.686 177.84,348.352 180.5,351.5C 179.5,351.5 178.5,351.5 177.5,351.5C 177.167,351.5 176.833,351.5 176.5,351.5C 170.384,332.406 159.051,317.406 142.5,306.5C 141.659,304.621 141.325,302.621 141.5,300.5C 138.14,300.384 134.807,300.051 131.5,299.5C 130.922,298.453 130.256,298.62 129.5,300C 121.833,300.333 114.167,300.667 106.5,301C 101.667,302.355 96.6667,303.189 91.5,303.5C 96.0081,300.616 101.008,298.783 106.5,298C 110.833,297.667 115.167,297.333 119.5,297C 111.965,294.966 104.298,293.8 96.5,293.5C 97.6936,292.223 99.3603,291.556 101.5,291.5C 133.088,297.176 164.922,301.176 197,303.5C 204.018,303.348 210.852,302.182 217.5,300C 220.041,297.621 222.707,295.454 225.5,293.5 Z"/></g>
<g><path style="opacity:1" fill="#f1e124" d="M 420.5,295.5 C 421.492,295.328 422.158,295.662 422.5,296.5C 424.327,297.932 425.994,299.599 427.5,301.5C 420.715,304.13 413.715,305.797 406.5,306.5C 399.918,306.156 393.584,306.823 387.5,308.5C 382.42,309.541 377.42,310.874 372.5,312.5C 370.856,312.286 369.356,312.62 368,313.5C 366.409,311.073 365.575,308.407 365.5,305.5C 368.273,302.279 371.273,299.279 374.5,296.5C 375.386,295.675 375.719,294.675 375.5,293.5C 376.167,293.5 376.833,293.5 377.5,293.5C 392.025,291.617 406.358,292.283 420.5,295.5 Z"/></g>
<g><path style="opacity:1" fill="#d6c038" d="M 131.5,299.5 C 131.037,302.33 130.371,304.997 129.5,307.5C 129.785,305.712 129.452,304.045 128.5,302.5C 122.552,301.376 116.552,301.21 110.5,302C 103.715,303.529 97.0481,305.362 90.5,307.5C 90.9175,306.778 91.5842,306.278 92.5,306C 90.3808,305.658 90.0474,304.825 91.5,303.5C 96.6667,303.189 101.667,302.355 106.5,301C 114.167,300.667 121.833,300.333 129.5,300C 130.256,298.62 130.922,298.453 131.5,299.5 Z"/></g>
<g><path style="opacity:1" fill="#4a411c" d="M 129.5,307.5 C 129.125,309.698 128.458,311.698 127.5,313.5C 127.167,313.5 126.833,313.5 126.5,313.5C 126.5,310.167 126.5,306.833 126.5,303.5C 119.119,303.314 111.786,303.814 104.5,305C 98.4811,307.169 92.4811,309.336 86.5,311.5C 87.5,310.167 88.5,308.833 89.5,307.5C 89.8333,307.5 90.1667,307.5 90.5,307.5C 97.0481,305.362 103.715,303.529 110.5,302C 116.552,301.21 122.552,301.376 128.5,302.5C 129.452,304.045 129.785,305.712 129.5,307.5 Z"/></g>
<g><path style="opacity:1" fill="#efe16f" d="M 131.5,299.5 C 134.807,300.051 138.14,300.384 141.5,300.5C 141.325,302.621 141.659,304.621 142.5,306.5C 141.25,306.577 140.417,307.244 140,308.5C 139.502,311.482 139.335,314.482 139.5,317.5C 139.5,318.5 139.5,319.5 139.5,320.5C 135.76,320.759 132.094,320.426 128.5,319.5C 127.534,317.604 127.201,315.604 127.5,313.5C 128.458,311.698 129.125,309.698 129.5,307.5C 130.371,304.997 131.037,302.33 131.5,299.5 Z"/></g>
<g><path style="opacity:1" fill="#3d3318" d="M 352.5,300.5 C 357.328,300.385 358.661,302.552 356.5,307C 355.207,307.49 353.873,307.657 352.5,307.5C 349.833,305.167 349.833,302.833 352.5,300.5 Z"/></g>
<g><path style="opacity:0.867" fill="#f3ea85" d="M 422.5,296.5 C 426.787,297.446 429.12,299.779 429.5,303.5C 422.79,305.281 416.124,306.614 409.5,307.5C 408.5,307.5 407.5,307.5 406.5,307.5C 406.5,307.167 406.5,306.833 406.5,306.5C 413.715,305.797 420.715,304.13 427.5,301.5C 425.994,299.599 424.327,297.932 422.5,296.5 Z"/></g>
<g><path style="opacity:1" fill="#f0df20" d="M 96.5,293.5 C 104.298,293.8 111.965,294.966 119.5,297C 115.167,297.333 110.833,297.667 106.5,298C 101.008,298.783 96.0081,300.616 91.5,303.5C 90.0474,304.825 90.3808,305.658 92.5,306C 91.5842,306.278 90.9175,306.778 90.5,307.5C 90.1667,307.5 89.8333,307.5 89.5,307.5C 87.8333,307.5 86.1667,307.5 84.5,307.5C 84.0399,310.957 82.0399,312.623 78.5,312.5C 78.6495,313.552 78.4828,314.552 78,315.5C 76.8173,314.269 75.6507,314.269 74.5,315.5C 74.8333,316.167 75.1667,316.833 75.5,317.5C 73.1756,318.662 70.8422,319.829 68.5,321C 64.6391,326.374 60.3057,331.374 55.5,336C 52.9865,337.252 50.3198,337.752 47.5,337.5C 49.24,333.281 50.5733,328.947 51.5,324.5C 51.8925,322.716 52.5592,321.05 53.5,319.5C 54.4959,319.586 55.3292,319.252 56,318.5C 58.9556,313.585 61.6223,308.585 64,303.5C 65.8864,300.758 68.3864,299.091 71.5,298.5C 71.8417,299.338 72.5084,299.672 73.5,299.5C 74.6009,300.598 75.9343,300.765 77.5,300C 78.965,298.226 80.2983,296.392 81.5,294.5C 83.1992,294.34 84.8659,294.506 86.5,295C 88.0391,298.398 90.3724,299.231 93.5,297.5C 94.5,297.5 95.5,297.5 96.5,297.5C 96.5,296.167 96.5,294.833 96.5,293.5 Z"/></g>
<g><path style="opacity:1" fill="#e7db60" d="M 67.5,297.5 C 69.099,297.232 70.4324,297.566 71.5,298.5C 68.3864,299.091 65.8864,300.758 64,303.5C 61.6223,308.585 58.9556,313.585 56,318.5C 55.3292,319.252 54.4959,319.586 53.5,319.5C 56.99,311.359 61.6566,304.025 67.5,297.5 Z"/></g>
<g><path style="opacity:1" fill="#564f17" d="M 406.5,306.5 C 406.5,306.833 406.5,307.167 406.5,307.5C 400.155,307.653 393.822,307.986 387.5,308.5C 393.584,306.823 399.918,306.156 406.5,306.5 Z"/></g>
<g><path style="opacity:1" fill="#f0df1d" d="M 229.5,288.5 C 228.126,292.952 226.293,297.285 224,301.5C 219.294,311.41 221.127,319.743 229.5,326.5C 230.246,327.736 230.579,329.07 230.5,330.5C 229.341,331.456 228.174,332.456 227,333.5C 211.694,323.51 194.86,318.343 176.5,318C 175.242,319.741 174.242,321.574 173.5,323.5C 171.933,324.681 171.099,326.347 171,328.5C 164.878,318.711 157.045,310.544 147.5,304C 162.24,305.382 176.907,307.715 191.5,311C 202.452,312.566 212.119,309.899 220.5,303C 222.644,300.052 224.311,296.885 225.5,293.5C 226.038,291.883 226.371,290.216 226.5,288.5C 227.5,288.5 228.5,288.5 229.5,288.5 Z"/></g>
<g><path style="opacity:1" fill="#898a84" d="M 410.5,307.5 C 414.533,308.025 418.2,309.358 421.5,311.5C 419.459,311.445 417.292,311.445 415,311.5C 414.093,309.391 412.593,308.058 410.5,307.5 Z"/></g>
<g><path style="opacity:1" fill="#4c450c" d="M 387.5,308.5 C 382.475,311.068 377.141,313.068 371.5,314.5C 371.833,313.833 372.167,313.167 372.5,312.5C 377.42,310.874 382.42,309.541 387.5,308.5 Z"/></g>
<g><path style="opacity:1" fill="#d5c36a" d="M 343.5,311.5 C 342.975,315.533 341.642,319.2 339.5,322.5C 340.025,318.467 341.358,314.8 343.5,311.5 Z"/></g>
<g><path style="opacity:1" fill="#5a5a58" d="M 421.5,311.5 C 431.437,315.459 439.437,321.792 445.5,330.5C 443.549,329.718 442.049,328.384 441,326.5C 440.282,327.451 439.449,327.617 438.5,327C 437.853,325.391 437.02,323.891 436,322.5C 435.667,322.833 435.333,323.167 435,323.5C 430.967,320.636 426.801,317.969 422.5,315.5C 421.571,314.311 421.238,312.978 421.5,311.5 Z"/></g>
<g><path style="opacity:1" fill="#f5e75b" d="M 230.5,330.5 C 228.372,338.063 226.705,345.73 225.5,353.5C 225.443,354.609 225.11,355.609 224.5,356.5C 221.615,356.806 218.948,356.473 216.5,355.5C 222.927,357.238 225.594,354.905 224.5,348.5C 211.163,348.667 197.829,348.5 184.5,348C 183.672,346.008 182.339,344.508 180.5,343.5C 178.924,340.074 177.091,336.74 175,333.5C 173.801,330.274 173.301,326.941 173.5,323.5C 174.242,321.574 175.242,319.741 176.5,318C 194.86,318.343 211.694,323.51 227,333.5C 228.174,332.456 229.341,331.456 230.5,330.5 Z"/></g>
<g><path style="opacity:1" fill="#d8bd2c" d="M 345.5,304.5 C 345.833,304.5 346.167,304.5 346.5,304.5C 346.33,308.998 347.663,312.998 350.5,316.5C 345.468,320.899 341.135,325.899 337.5,331.5C 338.167,328.5 338.833,325.5 339.5,322.5C 341.642,319.2 342.975,315.533 343.5,311.5C 344.933,309.442 345.6,307.108 345.5,304.5 Z"/></g>
<g><path style="opacity:1" fill="#30302c" d="M 406.5,307.5 C 407.5,307.5 408.5,307.5 409.5,307.5C 409.833,307.5 410.167,307.5 410.5,307.5C 412.593,308.058 414.093,309.391 415,311.5C 417.292,311.445 419.459,311.445 421.5,311.5C 421.238,312.978 421.571,314.311 422.5,315.5C 426.801,317.969 430.967,320.636 435,323.5C 435.333,323.167 435.667,322.833 436,322.5C 437.02,323.891 437.853,325.391 438.5,327C 439.449,327.617 440.282,327.451 441,326.5C 442.049,328.384 443.549,329.718 445.5,330.5C 446.022,333.253 446.856,335.92 448,338.5C 448.333,338.167 448.667,337.833 449,337.5C 449.708,338.381 450.542,339.047 451.5,339.5C 451.805,342.007 451.971,344.674 452,347.5C 454.165,350.836 455.498,354.503 456,358.5C 456.705,366.861 456.538,375.194 455.5,383.5C 455.131,387.894 454.465,392.227 453.5,396.5C 450.562,398.703 448.895,401.703 448.5,405.5C 446.883,406.038 445.216,406.371 443.5,406.5C 443.657,407.873 443.49,409.207 443,410.5C 442.259,409.359 441.425,409.359 440.5,410.5C 439.14,413.197 437.807,415.864 436.5,418.5C 434.557,421.471 431.891,423.471 428.5,424.5C 426.011,424.241 424.344,425.241 423.5,427.5C 388.076,441.748 359.576,433.082 338,401.5C 336.202,397.578 334.702,393.578 333.5,389.5C 333.5,388.833 333.5,388.167 333.5,387.5C 336.5,385.5 339.5,383.5 342.5,381.5C 343.167,381.5 343.833,381.5 344.5,381.5C 351.179,406.787 367.679,420.453 394,422.5C 402.821,422.707 410.987,420.707 418.5,416.5C 440.914,402.648 449.414,382.648 444,356.5C 442.663,352.493 440.83,348.827 438.5,345.5C 425.9,325.226 407.567,316.726 383.5,320C 379.979,321.674 376.313,322.84 372.5,323.5C 371.651,320.965 370.651,318.465 369.5,316C 369.836,314.97 370.503,314.47 371.5,314.5C 377.141,313.068 382.475,311.068 387.5,308.5C 393.822,307.986 400.155,307.653 406.5,307.5 Z M 404.5,391.5 C 406.223,388.777 408.556,386.777 411.5,385.5C 418.453,384.221 425.453,383.221 432.5,382.5C 432.628,384.655 432.128,386.655 431,388.5C 429.218,392.409 426.718,395.742 423.5,398.5C 417.345,395.561 411.011,393.227 404.5,391.5 Z M 383.5,392.5 C 383.5,398.833 383.5,405.167 383.5,411.5C 381.299,410.434 378.965,409.767 376.5,409.5C 376.5,407.5 376.5,405.5 376.5,403.5C 377.207,400.214 377.54,396.881 377.5,393.5C 378.461,391.735 378.795,389.735 378.5,387.5C 379.552,387.351 380.552,387.517 381.5,388C 382.099,389.622 382.766,391.122 383.5,392.5 Z M 391.5,392.5 C 398.769,397.142 406.102,401.809 413.5,406.5C 405.89,411.152 397.557,413.152 388.5,412.5C 387.833,412.5 387.167,412.5 386.5,412.5C 386.5,405.5 386.5,398.5 386.5,391.5C 388.216,391.629 389.883,391.962 391.5,392.5 Z M 397.5,393.5 C 398.209,392.596 399.209,392.263 400.5,392.5C 407.625,395.23 414.625,398.23 421.5,401.5C 420.167,402.5 418.833,403.5 417.5,404.5C 410.99,400.45 404.323,396.783 397.5,393.5 Z"/></g>
<g><path style="opacity:1" fill="#98958e" d="M 438.5,345.5 C 438.291,346.922 437.791,348.255 437,349.5C 435.326,348.935 433.493,348.768 431.5,349C 430.725,343.942 428.391,342.775 424.5,345.5C 424.649,344.448 424.483,343.448 424,342.5C 420.667,339.833 417.333,337.167 414,334.5C 413.768,335.737 413.268,336.737 412.5,337.5C 412.5,335.167 412.5,332.833 412.5,330.5C 411.127,330.343 409.793,330.51 408.5,331C 409.416,331.278 410.082,331.778 410.5,332.5C 409.041,332.567 407.708,332.234 406.5,331.5C 406.289,329.576 405.623,329.243 404.5,330.5C 404.167,330.5 403.833,330.5 403.5,330.5C 400.217,329.919 396.884,329.586 393.5,329.5C 390.41,329.522 387.743,330.188 385.5,331.5C 384.288,330.77 383.288,329.77 382.5,328.5C 381.438,329.425 381.438,330.425 382.5,331.5C 381.167,331.5 379.833,331.5 378.5,331.5C 377.833,331.5 377.167,331.5 376.5,331.5C 375.69,328.656 374.356,325.99 372.5,323.5C 376.313,322.84 379.979,321.674 383.5,320C 407.567,316.726 425.9,325.226 438.5,345.5 Z"/></g>
<g><path style="opacity:1" fill="#323124" d="M 142.5,306.5 C 159.051,317.406 170.384,332.406 176.5,351.5C 174.585,351.784 172.919,351.451 171.5,350.5C 166.238,334.238 155.571,323.238 139.5,317.5C 139.335,314.482 139.502,311.482 140,308.5C 140.417,307.244 141.25,306.577 142.5,306.5 Z"/></g>
<g><path style="opacity:1" fill="#e8dc74" d="M 51.5,324.5 C 50.5733,328.947 49.24,333.281 47.5,337.5C 46.1634,338.315 45.1634,339.482 44.5,341C 43.552,341.483 42.552,341.649 41.5,341.5C 41.5,342.5 41.5,343.5 41.5,344.5C 40.5222,344.189 39.8555,343.522 39.5,342.5C 40.6554,341.05 42.1554,340.05 44,339.5C 46.5304,334.439 49.0304,329.439 51.5,324.5 Z"/></g>
<g><path style="opacity:1" fill="#dec533" d="M 89.5,307.5 C 88.5,308.833 87.5,310.167 86.5,311.5C 76.8346,317.5 69.168,325.5 63.5,335.5C 61.7356,336.326 60.4023,337.659 59.5,339.5C 57.9478,342.112 55.6145,343.445 52.5,343.5C 48.8815,344.244 45.2148,344.577 41.5,344.5C 41.5,343.5 41.5,342.5 41.5,341.5C 42.552,341.649 43.552,341.483 44.5,341C 45.1634,339.482 46.1634,338.315 47.5,337.5C 50.3198,337.752 52.9865,337.252 55.5,336C 60.3057,331.374 64.6391,326.374 68.5,321C 70.8422,319.829 73.1756,318.662 75.5,317.5C 75.1667,316.833 74.8333,316.167 74.5,315.5C 75.6507,314.269 76.8173,314.269 78,315.5C 78.4828,314.552 78.6495,313.552 78.5,312.5C 82.0399,312.623 84.0399,310.957 84.5,307.5C 86.1667,307.5 87.8333,307.5 89.5,307.5 Z"/></g>
<g><path style="opacity:1" fill="#d7c567" d="M 339.5,322.5 C 338.833,325.5 338.167,328.5 337.5,331.5C 336.833,331.833 336.167,332.167 335.5,332.5C 336.036,329.445 336.869,326.445 338,323.5C 338.383,322.944 338.883,322.611 339.5,322.5 Z"/></g>
<g><path style="opacity:1" fill="#757574" d="M 385.5,331.5 C 389.918,337.246 393.918,343.246 397.5,349.5C 397.44,350.043 397.107,350.376 396.5,350.5C 395.818,349.757 395.151,349.091 394.5,348.5C 389.775,343.397 385.775,337.731 382.5,331.5C 381.438,330.425 381.438,329.425 382.5,328.5C 383.288,329.77 384.288,330.77 385.5,331.5 Z"/></g>
<g><path style="opacity:1" fill="#f3e35b" d="M 348.5,292.5 C 349.473,294.948 349.806,297.615 349.5,300.5C 350.5,300.5 351.5,300.5 352.5,300.5C 349.833,302.833 349.833,305.167 352.5,307.5C 351.504,307.586 350.671,307.252 350,306.5C 349.833,307.333 349.667,308.167 349.5,309C 352.288,313.957 355.288,318.79 358.5,323.5C 360.044,326.356 361.044,329.356 361.5,332.5C 362.822,332.33 363.989,332.663 365,333.5C 365.727,338.313 366.894,342.979 368.5,347.5C 367.5,346.833 366.5,346.167 365.5,345.5C 364.728,344.306 363.728,343.306 362.5,342.5C 363.007,339.14 362.007,336.14 359.5,333.5C 358.544,330.561 356.877,328.228 354.5,326.5C 354.539,325.417 354.873,324.417 355.5,323.5C 354.057,320.923 352.39,318.59 350.5,316.5C 347.663,312.998 346.33,308.998 346.5,304.5C 348,300.674 348.666,296.674 348.5,292.5 Z"/></g>
<g><path style="opacity:0.902" fill="#575756" d="M 406.5,331.5 C 406.5,338.833 406.5,346.167 406.5,353.5C 406.631,354.376 406.298,355.043 405.5,355.5C 404.502,347.193 404.169,338.86 404.5,330.5C 405.623,329.243 406.289,329.576 406.5,331.5 Z"/></g>
<g><path style="opacity:1" fill="#323127" d="M 354.5,326.5 C 356.877,328.228 358.544,330.561 359.5,333.5C 354.553,337.422 350.553,342.089 347.5,347.5C 347.322,346.305 346.989,345.138 346.5,344C 348.595,339.981 350.261,335.814 351.5,331.5C 352.11,329.566 353.11,327.899 354.5,326.5 Z"/></g>
<g><path style="opacity:1" fill="#30312c" d="M 126.5,313.5 C 96.7907,313.255 77.624,327.255 69,355.5C 66.3518,392.34 83.1851,413.673 119.5,419.5C 140.529,419.495 156.196,410.495 166.5,392.5C 169.08,391.884 171.747,391.551 174.5,391.5C 177.269,391.529 179.603,392.195 181.5,393.5C 177.352,403.305 171.019,411.305 162.5,417.5C 160.973,417.427 159.973,418.094 159.5,419.5C 155.653,422.593 151.32,424.926 146.5,426.5C 143.753,426.187 141.086,426.52 138.5,427.5C 138.137,428.183 137.804,428.85 137.5,429.5C 129.555,431.556 121.555,431.889 113.5,430.5C 105.462,429.481 98.1288,426.481 91.5,421.5C 89.8983,422.55 89.065,421.883 89,419.5C 87.9887,420.337 86.8221,420.67 85.5,420.5C 83.9731,420.573 82.9731,419.906 82.5,418.5C 82.0269,417.094 81.0269,416.427 79.5,416.5C 59.8186,399.124 52.4852,377.457 57.5,351.5C 58.9238,349.485 59.5905,347.152 59.5,344.5C 59.5569,343.391 59.8902,342.391 60.5,341.5C 61.8698,339.75 62.8698,337.75 63.5,335.5C 69.168,325.5 76.8346,317.5 86.5,311.5C 92.4811,309.336 98.4811,307.169 104.5,305C 111.786,303.814 119.119,303.314 126.5,303.5C 126.5,306.833 126.5,310.167 126.5,313.5 Z M 112.5,392.5 C 117.711,393.815 123.044,394.482 128.5,394.5C 132.63,397.403 136.963,400.07 141.5,402.5C 138.16,405.521 134.16,407.354 129.5,408C 123.857,409.684 118.19,409.851 112.5,408.5C 112.5,403.167 112.5,397.833 112.5,392.5 Z M 134.5,395.5 C 137.287,394.523 140.287,394.19 143.5,394.5C 145.305,395.237 146.971,396.237 148.5,397.5C 147.788,399.046 146.622,400.046 145,400.5C 141.387,398.942 137.887,397.275 134.5,395.5 Z"/></g>
<g><path style="opacity:1" fill="#626260" d="M 445.5,330.5 C 448.241,332.975 450.241,335.975 451.5,339.5C 450.542,339.047 449.708,338.381 449,337.5C 448.667,337.833 448.333,338.167 448,338.5C 446.856,335.92 446.022,333.253 445.5,330.5 Z"/></g>
<g><path style="opacity:0.31" fill="#d7ce9f" d="M 63.5,335.5 C 62.8698,337.75 61.8698,339.75 60.5,341.5C 60.6716,340.508 60.3382,339.842 59.5,339.5C 60.4023,337.659 61.7356,336.326 63.5,335.5 Z"/></g>
<g><path style="opacity:1" fill="#656341" d="M 233.5,320.5 C 233.131,323.319 232.798,326.152 232.5,329C 232.629,330.981 233.296,332.647 234.5,334C 233.437,335.188 232.103,335.688 230.5,335.5C 229.501,340.06 228.668,344.727 228,349.5C 227.066,350.858 226.232,352.192 225.5,353.5C 226.705,345.73 228.372,338.063 230.5,330.5C 231.135,327.069 232.135,323.736 233.5,320.5 Z"/></g>
<g><path style="opacity:1" fill="#e0d57f" d="M 376.5,331.5 C 377.167,331.5 377.833,331.5 378.5,331.5C 378.243,334.376 379.243,337.043 381.5,339.5C 380.646,340.632 380.646,341.965 381.5,343.5C 378.223,340.267 376.556,336.267 376.5,331.5 Z"/></g>
<g><path style="opacity:0.733" fill="#f1e393" d="M 52.5,343.5 C 48.9098,346.334 45.2431,346.668 41.5,344.5C 45.2148,344.577 48.8815,344.244 52.5,343.5 Z"/></g>
<g><path style="opacity:1" fill="#99968d" d="M 359.5,333.5 C 362.007,336.14 363.007,339.14 362.5,342.5C 360.666,344.505 358.999,346.672 357.5,349C 360.393,350.149 363.393,350.649 366.5,350.5C 367.404,351.209 367.737,352.209 367.5,353.5C 363.475,353.184 359.475,353.017 355.5,353C 354.62,354.356 354.286,355.856 354.5,357.5C 353.325,357.281 352.325,357.614 351.5,358.5C 356.792,359.495 362.125,359.828 367.5,359.5C 367.5,360.167 367.167,360.5 366.5,360.5C 361.381,359.897 356.715,360.564 352.5,362.5C 350.784,362.371 349.117,362.038 347.5,361.5C 345.856,361.19 344.856,360.19 344.5,358.5C 345.035,354.691 346.035,351.024 347.5,347.5C 350.553,342.089 354.553,337.422 359.5,333.5 Z"/></g>
<g><path style="opacity:0.849" fill="#737272" d="M 412.5,337.5 C 412.625,343.203 412.292,348.87 411.5,354.5C 410.732,355.263 410.232,356.263 410,357.5C 409.503,354.854 409.336,352.187 409.5,349.5C 409.447,343.804 409.78,338.138 410.5,332.5C 410.082,331.778 409.416,331.278 408.5,331C 409.793,330.51 411.127,330.343 412.5,330.5C 412.5,332.833 412.5,335.167 412.5,337.5 Z"/></g>
<g><path style="opacity:0.051" fill="#f6f2ca" d="M 381.5,343.5 C 383.833,345.167 385.833,347.167 387.5,349.5C 387.5,350.833 386.833,351.5 385.5,351.5C 384.649,349.118 383.316,347.118 381.5,345.5C 381.5,344.833 381.5,344.167 381.5,343.5 Z"/></g>
<g><path style="opacity:1" fill="#6a6663" d="M 381.5,339.5 C 384.959,342.415 387.959,345.748 390.5,349.5C 391.463,350.363 391.463,351.03 390.5,351.5C 389.482,350.807 388.482,350.141 387.5,349.5C 385.833,347.167 383.833,345.167 381.5,343.5C 380.646,341.965 380.646,340.632 381.5,339.5 Z"/></g>
<g><path style="opacity:1" fill="#cbcbcb" d="M 271.5,375.5 C 265.555,376.38 260.221,375.046 255.5,371.5C 254.548,369.955 254.215,368.288 254.5,366.5C 253.886,361.969 255.886,359.803 260.5,360C 258.744,359.798 257.078,359.298 255.5,358.5C 256.983,352.7 259.649,347.534 263.5,343C 267.812,343.47 270.479,345.97 271.5,350.5C 270.456,355.639 269.123,360.639 267.5,365.5C 269.951,368.4 271.285,371.734 271.5,375.5 Z"/></g>
<g><path style="opacity:1" fill="#3b3717" d="M 351.5,331.5 C 350.261,335.814 348.595,339.981 346.5,344C 346.989,345.138 347.322,346.305 347.5,347.5C 346.035,351.024 345.035,354.691 344.5,358.5C 342.573,355.863 342.073,352.863 343,349.5C 344.533,342.773 347.366,336.773 351.5,331.5 Z"/></g>
<g><path style="opacity:0.439" fill="#acaaa7" d="M 59.5,344.5 C 59.5905,347.152 58.9238,349.485 57.5,351.5C 57.4095,348.848 58.0762,346.515 59.5,344.5 Z"/></g>
<g><path style="opacity:1" fill="#eddd28" d="M 180.5,343.5 C 182.339,344.508 183.672,346.008 184.5,348C 197.829,348.5 211.163,348.667 224.5,348.5C 225.594,354.905 222.927,357.238 216.5,355.5C 207.822,354.966 199.156,354.299 190.5,353.5C 187.411,352.215 184.078,351.549 180.5,351.5C 177.84,348.352 176.674,344.686 177,340.5C 177.615,342.116 178.615,343.449 180,344.5C 180.399,344.272 180.565,343.938 180.5,343.5 Z"/></g>
<g><path style="opacity:1" fill="#ddd678" d="M 177.5,351.5 C 178.5,351.5 179.5,351.5 180.5,351.5C 184.078,351.549 187.411,352.215 190.5,353.5C 185.878,353.844 181.545,353.177 177.5,351.5 Z"/></g>
<g><path style="opacity:1" fill="#f6e035" d="M 341.5,277.5 C 343.759,278.344 344.759,280.011 344.5,282.5C 347.766,282.433 349.266,284.099 349,287.5C 349.816,286.177 350.983,285.511 352.5,285.5C 352.047,286.458 351.381,287.292 350.5,288C 352.818,290.046 355.318,291.88 358,293.5C 359.8,298.134 362.3,302.134 365.5,305.5C 365.575,308.407 366.409,311.073 368,313.5C 369.356,312.62 370.856,312.286 372.5,312.5C 372.167,313.167 371.833,313.833 371.5,314.5C 370.503,314.47 369.836,314.97 369.5,316C 370.651,318.465 371.651,320.965 372.5,323.5C 374.356,325.99 375.69,328.656 376.5,331.5C 376.556,336.267 378.223,340.267 381.5,343.5C 381.5,344.167 381.5,344.833 381.5,345.5C 381.338,347.527 381.505,349.527 382,351.5C 384.759,355.407 387.259,359.407 389.5,363.5C 390.275,368.797 390.608,374.13 390.5,379.5C 390.5,380.167 390.167,380.5 389.5,380.5C 387.5,380.5 385.5,380.5 383.5,380.5C 383.5,379.5 383.5,378.5 383.5,377.5C 384.434,376.432 384.768,375.099 384.5,373.5C 382.167,373.5 379.833,373.5 377.5,373.5C 377.5,374.5 377.5,375.5 377.5,376.5C 376.5,376.5 375.5,376.5 374.5,376.5C 374.784,374.585 374.451,372.919 373.5,371.5C 373.5,371.167 373.5,370.833 373.5,370.5C 372.432,369.566 371.099,369.232 369.5,369.5C 369.5,371.167 369.5,372.833 369.5,374.5C 368.5,374.5 367.5,374.5 366.5,374.5C 365.766,373.292 365.433,371.959 365.5,370.5C 363.167,370.5 360.833,370.5 358.5,370.5C 360.167,369.167 361.833,367.833 363.5,366.5C 366.272,366.405 368.272,365.071 369.5,362.5C 369.833,360.667 370.167,358.833 370.5,357C 370.003,353.759 369.336,350.592 368.5,347.5C 366.894,342.979 365.727,338.313 365,333.5C 363.989,332.663 362.822,332.33 361.5,332.5C 361.044,329.356 360.044,326.356 358.5,323.5C 355.288,318.79 352.288,313.957 349.5,309C 349.667,308.167 349.833,307.333 350,306.5C 350.671,307.252 351.504,307.586 352.5,307.5C 353.873,307.657 355.207,307.49 356.5,307C 358.661,302.552 357.328,300.385 352.5,300.5C 351.5,300.5 350.5,300.5 349.5,300.5C 349.806,297.615 349.473,294.948 348.5,292.5C 348.204,290.597 347.537,288.93 346.5,287.5C 344.429,284.412 342.762,281.079 341.5,277.5 Z"/></g>
<g><path style="opacity:1" fill="#94928c" d="M 126.5,313.5 C 126.833,313.5 127.167,313.5 127.5,313.5C 127.201,315.604 127.534,317.604 128.5,319.5C 132.094,320.426 135.76,320.759 139.5,320.5C 139.5,319.5 139.5,318.5 139.5,317.5C 155.571,323.238 166.238,334.238 171.5,350.5C 166.712,350.296 162.046,350.296 157.5,350.5C 156.702,350.043 156.369,349.376 156.5,348.5C 157.62,346.042 156.953,344.042 154.5,342.5C 152.674,344.147 151.34,346.147 150.5,348.5C 148.804,350.129 147.804,349.796 147.5,347.5C 149.14,344.851 150.807,342.184 152.5,339.5C 149.457,335.456 145.791,332.123 141.5,329.5C 140.3,335.27 139.3,340.937 138.5,346.5C 138.78,339.816 138.947,333.15 139,326.5C 138.802,328.382 138.302,330.048 137.5,331.5C 137.769,329.571 137.269,327.905 136,326.5C 134.85,329.768 134.016,333.101 133.5,336.5C 132.715,338.374 132.048,340.374 131.5,342.5C 130.883,342.611 130.383,342.944 130,343.5C 129.1,347.834 128.266,352.168 127.5,356.5C 125.774,358.82 125.107,361.487 125.5,364.5C 124.5,364.5 123.5,364.5 122.5,364.5C 122.5,361.5 122.5,358.5 122.5,355.5C 122.274,352.751 122.607,350.084 123.5,347.5C 122.725,345.604 121.725,343.937 120.5,342.5C 116.011,336.871 111.511,331.205 107,325.5C 105.274,325.946 103.774,326.779 102.5,328C 107.858,333.248 112.858,338.748 117.5,344.5C 117.631,345.376 117.298,346.043 116.5,346.5C 115.717,344.712 114.384,343.712 112.5,343.5C 108.136,338.637 103.636,333.97 99,329.5C 92.5613,332.938 87.3947,337.771 83.5,344C 84.7375,344.232 85.7375,344.732 86.5,345.5C 84.4727,345.338 82.4727,345.505 80.5,346C 81.7375,346.232 82.7375,346.732 83.5,347.5C 81.6162,348.382 80.2829,349.882 79.5,352C 86.4921,352.5 93.4921,352.666 100.5,352.5C 100.306,354.912 98.9726,355.912 96.5,355.5C 90.5,355.5 84.5,355.5 78.5,355.5C 77.5409,361.138 77.3742,366.805 78,372.5C 78.0023,375.051 78.8356,377.051 80.5,378.5C 79.791,379.404 78.791,379.737 77.5,379.5C 77.7965,384.422 78.7965,385.088 80.5,381.5C 81.1667,383.5 81.8333,385.5 82.5,387.5C 80.6469,386.386 80.1469,387.052 81,389.5C 82.1455,390.684 83.3121,390.684 84.5,389.5C 88.1695,395.336 93.0028,400.002 99,403.5C 99.21,401.942 99.71,400.609 100.5,399.5C 100.682,401.591 100.348,403.591 99.5,405.5C 99.8333,405.833 100.167,406.167 100.5,406.5C 101.172,405.051 101.839,403.718 102.5,402.5C 102.527,404.199 103.194,405.533 104.5,406.5C 106.102,408.074 108.102,408.741 110.5,408.5C 111.167,411.167 111.833,411.167 112.5,408.5C 118.19,409.851 123.857,409.684 129.5,408C 134.16,407.354 138.16,405.521 141.5,402.5C 142.268,403.263 142.768,404.263 143,405.5C 147.636,404.05 151.136,401.217 153.5,397C 152.429,396.148 151.429,395.315 150.5,394.5C 151.167,394.5 151.833,394.5 152.5,394.5C 156.866,392.629 161.533,391.962 166.5,392.5C 156.196,410.495 140.529,419.495 119.5,419.5C 83.1851,413.673 66.3518,392.34 69,355.5C 77.624,327.255 96.7907,313.255 126.5,313.5 Z M 83.5,347.5 C 84.1667,347.5 84.8333,347.5 85.5,347.5C 90.598,348.957 95.9313,349.624 101.5,349.5C 104.049,350.831 103.716,351.831 100.5,352.5C 93.4921,352.666 86.4921,352.5 79.5,352C 80.2829,349.882 81.6162,348.382 83.5,347.5 Z M 156.5,348.5 C 154.5,348.5 152.5,348.5 150.5,348.5C 151.34,346.147 152.674,344.147 154.5,342.5C 156.953,344.042 157.62,346.042 156.5,348.5 Z M 147.5,347.5 C 144.5,347.5 141.5,347.5 138.5,347.5C 138.5,347.167 138.5,346.833 138.5,346.5C 139.3,340.937 140.3,335.27 141.5,329.5C 145.791,332.123 149.457,335.456 152.5,339.5C 150.807,342.184 149.14,344.851 147.5,347.5 Z M 112.5,343.5 C 113.598,344.397 113.598,345.23 112.5,346C 110.323,347.202 107.989,347.702 105.5,347.5C 102.193,346.949 98.8599,346.616 95.5,346.5C 92.6085,345.597 89.6085,345.264 86.5,345.5C 85.7375,344.732 84.7375,344.232 83.5,344C 87.3947,337.771 92.5613,332.938 99,329.5C 103.636,333.97 108.136,338.637 112.5,343.5 Z M 137.5,331.5 C 136.705,335.785 136.372,340.119 136.5,344.5C 135.9,345.9 134.9,346.9 133.5,347.5C 133.5,343.833 133.5,340.167 133.5,336.5C 134.016,333.101 134.85,329.768 136,326.5C 137.269,327.905 137.769,329.571 137.5,331.5 Z M 120.5,342.5 C 120.179,344.048 119.179,344.715 117.5,344.5C 112.858,338.748 107.858,333.248 102.5,328C 103.774,326.779 105.274,325.946 107,325.5C 111.511,331.205 116.011,336.871 120.5,342.5 Z M 115.5,323.5 C 118.518,323.335 121.518,323.502 124.5,324C 125.428,324.388 126.095,325.055 126.5,326C 125.079,331.107 123.912,336.273 123,341.5C 118.797,336.262 114.964,330.762 111.5,325C 113.058,324.79 114.391,324.29 115.5,323.5 Z M 112.5,392.5 C 117.711,393.815 123.044,394.482 128.5,394.5C 132.63,397.403 136.963,400.07 141.5,402.5C 138.16,405.521 134.16,407.354 129.5,408C 123.857,409.684 118.19,409.851 112.5,408.5C 112.5,403.167 112.5,397.833 112.5,392.5 Z M 134.5,395.5 C 137.287,394.523 140.287,394.19 143.5,394.5C 145.305,395.237 146.971,396.237 148.5,397.5C 147.788,399.046 146.622,400.046 145,400.5C 141.387,398.942 137.887,397.275 134.5,395.5 Z"/></g>
<g><path style="opacity:0.996" fill="#767676" d="M 95.5,346.5 C 98.8599,346.616 102.193,346.949 105.5,347.5C 106.263,348.268 107.263,348.768 108.5,349C 106.19,349.497 103.857,349.663 101.5,349.5C 95.9313,349.624 90.598,348.957 85.5,347.5C 89.0419,347.813 92.3752,347.479 95.5,346.5 Z"/></g>
<g><path style="opacity:1" fill="#575758" d="M 86.5,345.5 C 89.6085,345.264 92.6085,345.597 95.5,346.5C 92.3752,347.479 89.0419,347.813 85.5,347.5C 84.8333,347.5 84.1667,347.5 83.5,347.5C 82.7375,346.732 81.7375,346.232 80.5,346C 82.4727,345.505 84.4727,345.338 86.5,345.5 Z"/></g>
<g><path style="opacity:0.878" fill="#5a5a5b" d="M 133.5,336.5 C 133.5,340.167 133.5,343.833 133.5,347.5C 131.744,346.448 131.077,344.781 131.5,342.5C 132.048,340.374 132.715,338.374 133.5,336.5 Z"/></g>
<g><path style="opacity:0.996" fill="#545555" d="M 138.5,346.5 C 138.5,346.833 138.5,347.167 138.5,347.5C 136.952,347.179 136.285,346.179 136.5,344.5C 136.372,340.119 136.705,335.785 137.5,331.5C 138.302,330.048 138.802,328.382 139,326.5C 138.947,333.15 138.78,339.816 138.5,346.5 Z"/></g>
<g><path style="opacity:1" fill="#f1e46a" d="M 381.5,345.5 C 383.316,347.118 384.649,349.118 385.5,351.5C 385.66,353.153 386.326,354.486 387.5,355.5C 387.963,358.221 388.629,360.888 389.5,363.5C 387.259,359.407 384.759,355.407 382,351.5C 381.505,349.527 381.338,347.527 381.5,345.5 Z"/></g>
<g><path style="opacity:0.99" fill="#5a5758" d="M 354.5,357.5 C 358.833,357.5 363.167,357.5 367.5,357.5C 367.5,358.167 367.5,358.833 367.5,359.5C 362.125,359.828 356.792,359.495 351.5,358.5C 352.325,357.614 353.325,357.281 354.5,357.5 Z"/></g>
<g><path style="opacity:1" fill="#9e9d9a" d="M 399.5,389.5 C 394.657,389.778 389.99,389.111 385.5,387.5C 383.744,388.552 383.077,390.219 383.5,392.5C 382.766,391.122 382.099,389.622 381.5,388C 380.552,387.517 379.552,387.351 378.5,387.5C 378.795,389.735 378.461,391.735 377.5,393.5C 377.806,390.615 377.473,387.948 376.5,385.5C 376.539,382.911 375.539,380.911 373.5,379.5C 373.5,379.167 373.5,378.833 373.5,378.5C 375.924,379.03 378.257,379.864 380.5,381C 383.696,381.805 386.696,381.638 389.5,380.5C 390.167,380.5 390.5,380.167 390.5,379.5C 391.117,379.389 391.617,379.056 392,378.5C 394.432,372.841 393.599,367.841 389.5,363.5C 388.629,360.888 387.963,358.221 387.5,355.5C 397.373,351.402 405.206,354.069 411,363.5C 413.958,375.246 410.124,383.912 399.5,389.5 Z"/></g>
<g><path style="opacity:1" fill="#8c8a85" d="M 438.5,345.5 C 440.83,348.827 442.663,352.493 444,356.5C 449.414,382.648 440.914,402.648 418.5,416.5C 418.082,415.778 417.416,415.278 416.5,415C 417.167,414.667 417.833,414.333 418.5,414C 416.956,412.813 415.289,412.48 413.5,413C 414.956,413.423 415.456,414.256 415,415.5C 413.261,414.106 411.261,413.439 409,413.5C 401.125,415.634 393.291,415.967 385.5,414.5C 389.846,414.666 394.179,414.499 398.5,414C 394.975,413.821 391.641,413.321 388.5,412.5C 397.557,413.152 405.89,411.152 413.5,406.5C 406.102,401.809 398.769,397.142 391.5,392.5C 391.369,391.624 391.702,390.957 392.5,390.5C 394.029,391.763 395.695,392.763 397.5,393.5C 404.323,396.783 410.99,400.45 417.5,404.5C 418.833,403.5 420.167,402.5 421.5,401.5C 414.625,398.23 407.625,395.23 400.5,392.5C 399.89,391.609 399.557,390.609 399.5,389.5C 401.514,389.392 403.18,390.058 404.5,391.5C 411.011,393.227 417.345,395.561 423.5,398.5C 426.718,395.742 429.218,392.409 431,388.5C 432.128,386.655 432.628,384.655 432.5,382.5C 425.453,383.221 418.453,384.221 411.5,385.5C 410.624,385.631 409.957,385.298 409.5,384.5C 410.949,383.828 412.282,383.161 413.5,382.5C 420.475,381.06 427.475,379.726 434.5,378.5C 434.5,377.167 434.5,375.833 434.5,374.5C 428.494,375.835 422.494,377.168 416.5,378.5C 411.863,378.646 411.53,377.979 415.5,376.5C 421.68,374.563 427.846,372.563 434,370.5C 434.882,365.223 434.048,360.223 431.5,355.5C 426.478,360.854 421.478,366.187 416.5,371.5C 415.637,372.463 414.97,372.463 414.5,371.5C 416.278,369.736 417.611,367.736 418.5,365.5C 421.787,361.041 425.287,356.708 429,352.5C 429.507,350.165 428.84,348.165 427,346.5C 423.304,352.344 419.47,358.011 415.5,363.5C 414.577,364.303 413.577,364.47 412.5,364C 413.823,363.184 414.489,362.017 414.5,360.5C 417.598,355.291 420.932,350.291 424.5,345.5C 428.391,342.775 430.725,343.942 431.5,349C 433.493,348.768 435.326,348.935 437,349.5C 437.791,348.255 438.291,346.922 438.5,345.5 Z M 397.5,393.5 C 398.209,392.596 399.209,392.263 400.5,392.5C 407.625,395.23 414.625,398.23 421.5,401.5C 420.167,402.5 418.833,403.5 417.5,404.5C 410.99,400.45 404.323,396.783 397.5,393.5 Z"/></g>
<g><path style="opacity:1" fill="#f1e024" d="M 350.5,316.5 C 352.39,318.59 354.057,320.923 355.5,323.5C 354.873,324.417 354.539,325.417 354.5,326.5C 353.11,327.899 352.11,329.566 351.5,331.5C 347.366,336.773 344.533,342.773 343,349.5C 342.073,352.863 342.573,355.863 344.5,358.5C 344.856,360.19 345.856,361.19 347.5,361.5C 352.328,364.329 357.661,365.996 363.5,366.5C 361.833,367.833 360.167,369.167 358.5,370.5C 356.435,370.953 354.768,371.953 353.5,373.5C 349.268,375.4 345.601,378.067 342.5,381.5C 339.5,383.5 336.5,385.5 333.5,387.5C 331.181,387.992 329.181,388.992 327.5,390.5C 327.158,391.338 326.492,391.672 325.5,391.5C 324.508,391.672 323.842,391.338 323.5,390.5C 325.13,388.974 325.963,386.974 326,384.5C 326.333,377.5 326.667,370.5 327,363.5C 329.203,353.535 332.037,343.868 335.5,334.5C 335.5,333.833 335.5,333.167 335.5,332.5C 336.167,332.167 336.833,331.833 337.5,331.5C 341.135,325.899 345.468,320.899 350.5,316.5 Z"/></g>
<g><path style="opacity:1" fill="#cecdce" d="M 131.5,342.5 C 131.077,344.781 131.744,346.448 133.5,347.5C 134.9,346.9 135.9,345.9 136.5,344.5C 136.285,346.179 136.952,347.179 138.5,347.5C 141.5,347.5 144.5,347.5 147.5,347.5C 147.804,349.796 148.804,350.129 150.5,348.5C 152.5,348.5 154.5,348.5 156.5,348.5C 156.369,349.376 156.702,350.043 157.5,350.5C 162.046,350.296 166.712,350.296 171.5,350.5C 172.919,351.451 174.585,351.784 176.5,351.5C 176.833,351.5 177.167,351.5 177.5,351.5C 181.545,353.177 185.878,353.844 190.5,353.5C 199.156,354.299 207.822,354.966 216.5,355.5C 218.948,356.473 221.615,356.806 224.5,356.5C 223.773,358.954 222.773,361.287 221.5,363.5C 219.992,365.181 218.992,367.181 218.5,369.5C 217.391,369.443 216.391,369.11 215.5,368.5C 214.564,367.026 213.23,366.026 211.5,365.5C 187.33,364.833 162.997,364.167 138.5,363.5C 135.992,362.263 133.992,360.43 132.5,358C 134.167,357.667 135.833,357.333 137.5,357C 134.311,355.23 130.978,355.063 127.5,356.5C 128.266,352.168 129.1,347.834 130,343.5C 130.383,342.944 130.883,342.611 131.5,342.5 Z"/></g>
<g><path style="opacity:1" fill="#d1cba4" d="M 122.5,355.5 C 122.5,358.5 122.5,361.5 122.5,364.5C 123.5,364.5 124.5,364.5 125.5,364.5C 125.107,361.487 125.774,358.82 127.5,356.5C 130.978,355.063 134.311,355.23 137.5,357C 135.833,357.333 134.167,357.667 132.5,358C 133.992,360.43 135.992,362.263 138.5,363.5C 162.997,364.167 187.33,364.833 211.5,365.5C 186.833,365.5 162.167,365.5 137.5,365.5C 134.829,362.839 131.829,360.506 128.5,358.5C 127.5,358.833 126.833,359.5 126.5,360.5C 128.192,365.082 126.525,367.082 121.5,366.5C 121.82,363.102 121.487,359.768 120.5,356.5C 119.482,357.193 118.482,357.859 117.5,358.5C 118.048,355.916 119.715,354.916 122.5,355.5 Z"/></g>
<g><path style="opacity:1" fill="#d7c94f" d="M 137.5,365.5 C 162.167,365.5 186.833,365.5 211.5,365.5C 213.23,366.026 214.564,367.026 215.5,368.5C 215.5,368.833 215.5,369.167 215.5,369.5C 213.86,368.68 212.193,367.847 210.5,367C 185.997,366.832 161.663,366.332 137.5,365.5 Z"/></g>
<g><path style="opacity:1" fill="#efe479" d="M 365.5,345.5 C 366.5,346.167 367.5,346.833 368.5,347.5C 369.336,350.592 370.003,353.759 370.5,357C 370.167,358.833 369.833,360.667 369.5,362.5C 368.272,365.071 366.272,366.405 363.5,366.5C 357.661,365.996 352.328,364.329 347.5,361.5C 349.117,362.038 350.784,362.371 352.5,362.5C 356.707,364.401 361.04,364.734 365.5,363.5C 366.127,362.583 366.461,361.583 366.5,360.5C 367.167,360.5 367.5,360.167 367.5,359.5C 367.5,358.833 367.5,358.167 367.5,357.5C 367.5,356.167 367.5,354.833 367.5,353.5C 367.737,352.209 367.404,351.209 366.5,350.5C 365.962,348.883 365.629,347.216 365.5,345.5 Z"/></g>
<g><path style="opacity:1" fill="#d7be34" d="M 335.5,334.5 C 332.037,343.868 329.203,353.535 327,363.5C 326.667,370.5 326.333,377.5 326,384.5C 325.963,386.974 325.13,388.974 323.5,390.5C 322.5,390.5 321.5,390.5 320.5,390.5C 320.5,388.167 320.5,385.833 320.5,383.5C 321.038,381.883 321.371,380.216 321.5,378.5C 322.326,373.684 322.826,368.684 323,363.5C 327.033,353.583 331.2,343.916 335.5,334.5 Z"/></g>
<g><path style="opacity:1" fill="#d9d16d" d="M 108.5,368.5 C 107.859,369.482 107.193,370.482 106.5,371.5C 107.857,373.186 109.19,374.852 110.5,376.5C 106.736,375.577 105.236,373.244 106,369.5C 106.671,368.748 107.504,368.414 108.5,368.5 Z"/></g>
<g><path style="opacity:1" fill="#dcd089" d="M 215.5,368.5 C 216.391,369.11 217.391,369.443 218.5,369.5C 218.371,371.216 218.038,372.883 217.5,374.5C 215.483,375.529 213.483,376.529 211.5,377.5C 212.145,376.188 213.145,375.188 214.5,374.5C 215.452,372.955 215.785,371.288 215.5,369.5C 215.5,369.167 215.5,368.833 215.5,368.5 Z"/></g>
<g><path style="opacity:0.012" fill="#f7f099" d="M 358.5,370.5 C 360.833,370.5 363.167,370.5 365.5,370.5C 365.433,371.959 365.766,373.292 366.5,374.5C 365.833,374.5 365.167,374.5 364.5,374.5C 364.074,372.715 362.908,371.715 361,371.5C 358.456,372.071 355.956,372.738 353.5,373.5C 354.768,371.953 356.435,370.953 358.5,370.5 Z"/></g>
<g><path style="opacity:1" fill="#867534" d="M 373.5,370.5 C 373.5,370.833 373.5,371.167 373.5,371.5C 373.5,372.5 373.5,373.5 373.5,374.5C 372.5,374.5 371.5,374.5 370.5,374.5C 370.5,373.167 370.5,371.833 370.5,370.5C 371.5,370.5 372.5,370.5 373.5,370.5 Z"/></g>
<g><path style="opacity:1" fill="#c1996d" d="M 221.5,363.5 C 222.909,365.417 224.576,367.25 226.5,369C 234.619,371.854 242.953,372.854 251.5,372C 252.953,370.351 253.953,368.518 254.5,366.5C 254.215,368.288 254.548,369.955 255.5,371.5C 260.221,375.046 265.555,376.38 271.5,375.5C 273.292,375.366 274.958,375.699 276.5,376.5C 277.5,378.5 278.5,380.5 279.5,382.5C 278.5,382.5 277.5,382.5 276.5,382.5C 267.052,385.357 257.385,386.191 247.5,385C 237.27,382.778 227.27,379.944 217.5,376.5C 217.5,375.833 217.5,375.167 217.5,374.5C 218.038,372.883 218.371,371.216 218.5,369.5C 218.992,367.181 219.992,365.181 221.5,363.5 Z"/></g>
<g><path style="opacity:1" fill="#e7d85b" d="M 373.5,370.5 C 372.5,370.5 371.5,370.5 370.5,370.5C 370.5,371.833 370.5,373.167 370.5,374.5C 371.5,374.5 372.5,374.5 373.5,374.5C 373.5,373.5 373.5,372.5 373.5,371.5C 374.451,372.919 374.784,374.585 374.5,376.5C 375.5,376.5 376.5,376.5 377.5,376.5C 377.5,375.5 377.5,374.5 377.5,373.5C 379.833,373.5 382.167,373.5 384.5,373.5C 384.768,375.099 384.434,376.432 383.5,377.5C 383.5,378.5 383.5,379.5 383.5,380.5C 385.5,380.5 387.5,380.5 389.5,380.5C 386.696,381.638 383.696,381.805 380.5,381C 378.257,379.864 375.924,379.03 373.5,378.5C 372.652,377.375 371.652,377.375 370.5,378.5C 369.713,376.896 368.38,376.229 366.5,376.5C 366.5,375.833 366.5,375.167 366.5,374.5C 367.5,374.5 368.5,374.5 369.5,374.5C 369.5,372.833 369.5,371.167 369.5,369.5C 371.099,369.232 372.432,369.566 373.5,370.5 Z"/></g>
<g><path style="opacity:1" fill="#887b39" d="M 383.5,377.5 C 382.292,378.234 380.959,378.567 379.5,378.5C 379.5,377.167 379.5,375.833 379.5,374.5C 380.833,374.5 382.167,374.5 383.5,374.5C 383.5,375.5 383.5,376.5 383.5,377.5 Z"/></g>
<g><path style="opacity:1" fill="#ecdb2c" d="M 137.5,365.5 C 161.663,366.332 185.997,366.832 210.5,367C 212.193,367.847 213.86,368.68 215.5,369.5C 215.785,371.288 215.452,372.955 214.5,374.5C 213.145,375.188 212.145,376.188 211.5,377.5C 177.663,377.832 143.996,377.498 110.5,376.5C 109.19,374.852 107.857,373.186 106.5,371.5C 107.193,370.482 107.859,369.482 108.5,368.5C 113.613,367.054 116.613,363.721 117.5,358.5C 118.482,357.859 119.482,357.193 120.5,356.5C 121.487,359.768 121.82,363.102 121.5,366.5C 126.525,367.082 128.192,365.082 126.5,360.5C 126.833,359.5 127.5,358.833 128.5,358.5C 131.829,360.506 134.829,362.839 137.5,365.5 Z"/></g>
<g><path style="opacity:1" fill="#a89c08" d="M 111.5,370.5 C 144.507,370.167 177.507,370.5 210.5,371.5C 194,371.833 177.5,372.167 161,372.5C 144.153,372.5 127.653,371.833 111.5,370.5 Z"/></g>
<g><path style="opacity:1" fill="#eee171" d="M 389.5,363.5 C 393.599,367.841 394.432,372.841 392,378.5C 391.617,379.056 391.117,379.389 390.5,379.5C 390.608,374.13 390.275,368.797 389.5,363.5 Z"/></g>
<g><path style="opacity:0.741" fill="#747473" d="M 93.5,368.5 C 94.625,369.348 94.625,370.348 93.5,371.5C 89.1907,374.802 84.8574,378.136 80.5,381.5C 78.7965,385.088 77.7965,384.422 77.5,379.5C 78.791,379.737 79.791,379.404 80.5,378.5C 84.2837,374.443 88.617,371.109 93.5,368.5 Z"/></g>
<g><path style="opacity:1" fill="#b0b0ac" d="M 403.5,330.5 C 403.833,330.5 404.167,330.5 404.5,330.5C 404.169,338.86 404.502,347.193 405.5,355.5C 406.298,355.043 406.631,354.376 406.5,353.5C 407.117,353.611 407.617,353.944 408,354.5C 408.198,352.618 408.698,350.952 409.5,349.5C 409.336,352.187 409.503,354.854 410,357.5C 410.232,356.263 410.732,355.263 411.5,354.5C 411.031,357.393 412.031,359.393 414.5,360.5C 414.489,362.017 413.823,363.184 412.5,364C 413.577,364.47 414.577,364.303 415.5,363.5C 414.956,367.64 415.956,368.307 418.5,365.5C 417.611,367.736 416.278,369.736 414.5,371.5C 414.97,372.463 415.637,372.463 416.5,371.5C 415.962,373.117 415.629,374.784 415.5,376.5C 411.53,377.979 411.863,378.646 416.5,378.5C 415.602,379.158 414.602,379.824 413.5,380.5C 412.45,381.429 412.45,382.095 413.5,382.5C 412.282,383.161 410.949,383.828 409.5,384.5C 409.957,385.298 410.624,385.631 411.5,385.5C 408.556,386.777 406.223,388.777 404.5,391.5C 403.18,390.058 401.514,389.392 399.5,389.5C 410.124,383.912 413.958,375.246 411,363.5C 405.206,354.069 397.373,351.402 387.5,355.5C 386.326,354.486 385.66,353.153 385.5,351.5C 386.833,351.5 387.5,350.833 387.5,349.5C 388.482,350.141 389.482,350.807 390.5,351.5C 391.463,351.03 391.463,350.363 390.5,349.5C 392.099,349.768 393.432,349.434 394.5,348.5C 395.151,349.091 395.818,349.757 396.5,350.5C 397.107,350.376 397.44,350.043 397.5,349.5C 399.441,349.869 401.275,350.536 403,351.5C 403.5,344.508 403.666,337.508 403.5,330.5 Z"/></g>
<g><path style="opacity:1" fill="#cecdcb" d="M 120.5,342.5 C 121.725,343.937 122.725,345.604 123.5,347.5C 122.607,350.084 122.274,352.751 122.5,355.5C 119.715,354.916 118.048,355.916 117.5,358.5C 116.613,363.721 113.613,367.054 108.5,368.5C 107.504,368.414 106.671,368.748 106,369.5C 105.236,373.244 106.736,375.577 110.5,376.5C 143.996,377.498 177.663,377.832 211.5,377.5C 213.483,376.529 215.483,375.529 217.5,374.5C 217.5,375.167 217.5,375.833 217.5,376.5C 216.197,379.355 216.197,382.355 217.5,385.5C 218.739,385.942 219.739,386.609 220.5,387.5C 219.833,387.5 219.167,387.5 218.5,387.5C 213.489,387.334 208.489,387.501 203.5,388C 202.619,388.708 201.953,389.542 201.5,390.5C 197.486,390.334 193.486,390.501 189.5,391C 188.584,391.278 187.918,391.778 187.5,392.5C 186.5,392.5 185.5,392.5 184.5,392.5C 184.44,391.957 184.107,391.624 183.5,391.5C 182.818,392.243 182.151,392.909 181.5,393.5C 179.603,392.195 177.269,391.529 174.5,391.5C 171.747,391.551 169.08,391.884 166.5,392.5C 161.533,391.962 156.866,392.629 152.5,394.5C 151.5,393.167 150.5,393.167 149.5,394.5C 147.347,393.427 145.347,393.427 143.5,394.5C 140.287,394.19 137.287,394.523 134.5,395.5C 132.523,393.812 130.523,393.479 128.5,394.5C 123.044,394.482 117.711,393.815 112.5,392.5C 112.44,391.957 112.107,391.624 111.5,391.5C 110.505,397.128 110.171,402.794 110.5,408.5C 108.102,408.741 106.102,408.074 104.5,406.5C 105.93,406.421 107.264,406.754 108.5,407.5C 109.833,402.167 109.833,396.833 108.5,391.5C 107.264,390.754 105.93,390.421 104.5,390.5C 104.192,394.36 103.525,398.026 102.5,401.5C 102.756,397.138 102.923,392.805 103,388.5C 102.768,389.737 102.268,390.737 101.5,391.5C 101.657,390.127 101.49,388.793 101,387.5C 98.4055,385.296 96.5722,382.63 95.5,379.5C 95.5,378.167 94.8333,377.5 93.5,377.5C 94.7416,375.389 94.7416,373.389 93.5,371.5C 94.625,370.348 94.625,369.348 93.5,368.5C 93.7169,363.967 94.7169,359.634 96.5,355.5C 98.9726,355.912 100.306,354.912 100.5,352.5C 103.716,351.831 104.049,350.831 101.5,349.5C 103.857,349.663 106.19,349.497 108.5,349C 107.263,348.768 106.263,348.268 105.5,347.5C 107.989,347.702 110.323,347.202 112.5,346C 113.598,345.23 113.598,344.397 112.5,343.5C 114.384,343.712 115.717,344.712 116.5,346.5C 117.298,346.043 117.631,345.376 117.5,344.5C 119.179,344.715 120.179,344.048 120.5,342.5 Z"/></g>
<g><path style="opacity:1" fill="#a39962" d="M 353.5,373.5 C 352.833,374.5 352.167,375.5 351.5,376.5C 349.173,378.03 346.84,379.697 344.5,381.5C 343.833,381.5 343.167,381.5 342.5,381.5C 345.601,378.067 349.268,375.4 353.5,373.5 Z"/></g>
<g><path style="opacity:1" fill="#4c4d4a" d="M 451.5,339.5 C 455.803,346.081 458.136,353.414 458.5,361.5C 458.666,366.511 458.499,371.511 458,376.5C 458.03,379.361 457.197,381.695 455.5,383.5C 456.538,375.194 456.705,366.861 456,358.5C 455.498,354.503 454.165,350.836 452,347.5C 451.971,344.674 451.805,342.007 451.5,339.5 Z"/></g>
<g><path style="opacity:1" fill="#a87c52" d="M 217.5,376.5 C 227.27,379.944 237.27,382.778 247.5,385C 257.385,386.191 267.052,385.357 276.5,382.5C 276.5,383.5 276.5,384.5 276.5,385.5C 274.833,385.5 273.167,385.5 271.5,385.5C 271.5,386.5 271.5,387.5 271.5,388.5C 265.803,388.284 260.303,388.951 255,390.5C 243.502,389.598 232.002,388.598 220.5,387.5C 219.739,386.609 218.739,385.942 217.5,385.5C 216.197,382.355 216.197,379.355 217.5,376.5 Z"/></g>
<g><path style="opacity:1" fill="#5c5a5b" d="M 282.5,380.5 C 288.158,379.679 289.825,381.846 287.5,387C 282.126,387.762 280.459,385.595 282.5,380.5 Z"/></g>
<g><path style="opacity:1" fill="#91918f" d="M 458.5,361.5 C 460.638,373.675 458.972,385.342 453.5,396.5C 454.465,392.227 455.131,387.894 455.5,383.5C 457.197,381.695 458.03,379.361 458,376.5C 458.499,371.511 458.666,366.511 458.5,361.5 Z"/></g>
<g><path style="opacity:0.89" fill="#727271" d="M 93.5,377.5 C 94.8333,377.5 95.5,378.167 95.5,379.5C 91.8333,382.833 88.1667,386.167 84.5,389.5C 83.3121,390.684 82.1455,390.684 81,389.5C 80.1469,387.052 80.6469,386.386 82.5,387.5C 86.1408,384.195 89.8075,380.862 93.5,377.5 Z"/></g>
<g><path style="opacity:1" fill="#e3d990" d="M 218.5,387.5 C 218.5,387.833 218.5,388.167 218.5,388.5C 213.463,388.413 208.463,388.746 203.5,389.5C 203.178,391.722 203.845,393.556 205.5,395C 208.146,395.497 210.813,395.664 213.5,395.5C 212.833,396.167 212.167,396.833 211.5,397.5C 210.167,397.5 208.833,397.5 207.5,397.5C 204.089,396.42 202.089,394.086 201.5,390.5C 201.953,389.542 202.619,388.708 203.5,388C 208.489,387.501 213.489,387.334 218.5,387.5 Z"/></g>
<g><path style="opacity:0.949" fill="#71716f" d="M 373.5,378.5 C 373.5,378.833 373.5,379.167 373.5,379.5C 368.552,384.111 363.552,388.777 358.5,393.5C 355.161,394.49 354.828,393.823 357.5,391.5C 361.5,386.833 365.833,382.5 370.5,378.5C 371.652,377.375 372.652,377.375 373.5,378.5 Z"/></g>
<g><path style="opacity:1" fill="#d9c96a" d="M 320.5,383.5 C 320.5,385.833 320.5,388.167 320.5,390.5C 321.5,390.5 322.5,390.5 323.5,390.5C 323.842,391.338 324.508,391.672 325.5,391.5C 318.995,393.826 316.829,391.493 319,384.5C 319.383,383.944 319.883,383.611 320.5,383.5 Z"/></g>
<g><path style="opacity:0.404" fill="#f7f09f" d="M 333.5,387.5 C 333.5,388.167 333.5,388.833 333.5,389.5C 331.5,389.833 329.5,390.167 327.5,390.5C 329.181,388.992 331.181,387.992 333.5,387.5 Z"/></g>
<g><path style="opacity:0.895" fill="#bfc0bc" d="M 385.5,387.5 C 389.99,389.111 394.657,389.778 399.5,389.5C 399.557,390.609 399.89,391.609 400.5,392.5C 399.209,392.263 398.209,392.596 397.5,393.5C 395.695,392.763 394.029,391.763 392.5,390.5C 391.702,390.957 391.369,391.624 391.5,392.5C 389.883,391.962 388.216,391.629 386.5,391.5C 386.5,398.5 386.5,405.5 386.5,412.5C 385.507,404.35 385.174,396.017 385.5,387.5 Z"/></g>
<g><path style="opacity:1" fill="#93795f" d="M 276.5,382.5 C 277.5,382.5 278.5,382.5 279.5,382.5C 279.804,383.15 280.137,383.817 280.5,384.5C 279.143,386.186 277.81,387.852 276.5,389.5C 268.487,390.036 260.487,390.703 252.5,391.5C 246.462,390.529 240.462,390.529 234.5,391.5C 234.167,390.167 233.833,390.167 233.5,391.5C 229.244,392.014 225.411,391.014 222,388.5C 219.993,389.344 218.493,390.677 217.5,392.5C 217.433,391.041 217.766,389.708 218.5,388.5C 218.5,388.167 218.5,387.833 218.5,387.5C 219.167,387.5 219.833,387.5 220.5,387.5C 232.002,388.598 243.502,389.598 255,390.5C 260.303,388.951 265.803,388.284 271.5,388.5C 271.5,387.5 271.5,386.5 271.5,385.5C 273.167,385.5 274.833,385.5 276.5,385.5C 276.5,384.5 276.5,383.5 276.5,382.5 Z"/></g>
<g><path style="opacity:1" fill="#69696b" d="M 233.5,391.5 C 231.167,392.167 228.833,392.833 226.5,393.5C 224.756,394.886 222.756,395.886 220.5,396.5C 218.962,396.547 217.962,395.88 217.5,394.5C 217.5,393.833 217.5,393.167 217.5,392.5C 218.493,390.677 219.993,389.344 222,388.5C 225.411,391.014 229.244,392.014 233.5,391.5 Z"/></g>
<g><path style="opacity:0.848" fill="#716d69" d="M 276.5,389.5 C 277.461,391.265 277.795,393.265 277.5,395.5C 275.833,395.5 274.167,395.5 272.5,395.5C 270.952,395.179 270.285,394.179 270.5,392.5C 264.741,392.214 259.075,392.548 253.5,393.5C 253.167,392.833 252.833,392.167 252.5,391.5C 260.487,390.703 268.487,390.036 276.5,389.5 Z"/></g>
<g><path style="opacity:0.906" fill="#686866" d="M 376.5,385.5 C 377.473,387.948 377.806,390.615 377.5,393.5C 377.54,396.881 377.207,400.214 376.5,403.5C 375.698,404.952 375.198,406.618 375,408.5C 373.893,409.712 373.393,409.379 373.5,407.5C 373.194,404.615 373.527,401.948 374.5,399.5C 376.054,395.433 376.72,391.1 376.5,386.5C 376.5,386.167 376.5,385.833 376.5,385.5 Z"/></g>
<g><path style="opacity:1" fill="#dfc530" d="M 218.5,388.5 C 217.766,389.708 217.433,391.041 217.5,392.5C 217.5,393.167 217.5,393.833 217.5,394.5C 216.292,395.234 214.959,395.567 213.5,395.5C 210.813,395.664 208.146,395.497 205.5,395C 203.845,393.556 203.178,391.722 203.5,389.5C 208.463,388.746 213.463,388.413 218.5,388.5 Z"/></g>
<g><path style="opacity:0.847" fill="#888887" d="M 376.5,386.5 C 376.72,391.1 376.054,395.433 374.5,399.5C 374.624,394.951 375.291,390.618 376.5,386.5 Z"/></g>
<g><path style="opacity:1" fill="#94918b" d="M 364.5,374.5 C 365.167,374.5 365.833,374.5 366.5,374.5C 366.5,375.167 366.5,375.833 366.5,376.5C 362.969,379.853 359.136,382.853 355,385.5C 354.992,387.821 355.825,389.821 357.5,391.5C 354.828,393.823 355.161,394.49 358.5,393.5C 362.217,399.55 367.217,404.217 373.5,407.5C 373.393,409.379 373.893,409.712 375,408.5C 375.198,406.618 375.698,404.952 376.5,403.5C 376.5,405.5 376.5,407.5 376.5,409.5C 378.965,409.767 381.299,410.434 383.5,411.5C 381.724,411.794 379.724,411.96 377.5,412C 380.022,413.341 382.689,414.174 385.5,414.5C 393.291,415.967 401.125,415.634 409,413.5C 411.261,413.439 413.261,414.106 415,415.5C 415.456,414.256 414.956,413.423 413.5,413C 415.289,412.48 416.956,412.813 418.5,414C 417.833,414.333 417.167,414.667 416.5,415C 417.416,415.278 418.082,415.778 418.5,416.5C 410.987,420.707 402.821,422.707 394,422.5C 367.679,420.453 351.179,406.787 344.5,381.5C 346.84,379.697 349.173,378.03 351.5,376.5C 352.148,378.498 352.981,380.498 354,382.5C 357.376,379.617 360.876,376.951 364.5,374.5 Z"/></g>
<g><path style="opacity:1" fill="#3f3f3f" d="M 252.5,391.5 C 252.833,392.167 253.167,392.833 253.5,393.5C 252.71,394.401 251.71,395.068 250.5,395.5C 245.99,395.884 241.657,396.551 237.5,397.5C 236.842,395.361 235.842,393.361 234.5,391.5C 240.462,390.529 246.462,390.529 252.5,391.5 Z"/></g>
<g><path style="opacity:0.845" fill="#858484" d="M 250.5,395.5 C 246.113,397.158 241.78,398.158 237.5,398.5C 237.5,398.167 237.5,397.833 237.5,397.5C 241.657,396.551 245.99,395.884 250.5,395.5 Z"/></g>
<g><path style="opacity:1" fill="#111111" d="M 234.5,391.5 C 235.842,393.361 236.842,395.361 237.5,397.5C 237.5,397.833 237.5,398.167 237.5,398.5C 237.771,400.38 237.104,401.713 235.5,402.5C 233.5,402.5 231.5,402.5 229.5,402.5C 228.921,399.294 227.921,396.294 226.5,393.5C 228.833,392.833 231.167,392.167 233.5,391.5C 233.833,390.167 234.167,390.167 234.5,391.5 Z"/></g>
<g><path style="opacity:0.912" fill="#595857" d="M 102.5,401.5 C 102.5,401.833 102.5,402.167 102.5,402.5C 101.839,403.718 101.172,405.051 100.5,406.5C 100.167,406.167 99.8333,405.833 99.5,405.5C 100.348,403.591 100.682,401.591 100.5,399.5C 100.401,396.763 100.735,394.096 101.5,391.5C 102.268,390.737 102.768,389.737 103,388.5C 102.923,392.805 102.756,397.138 102.5,401.5 Z"/></g>
<g><path style="opacity:1" fill="#818280" d="M 453.5,396.5 C 452.59,399.992 450.924,402.992 448.5,405.5C 448.895,401.703 450.562,398.703 453.5,396.5 Z"/></g>
<g><path style="opacity:0.869" fill="#575756" d="M 112.5,392.5 C 112.5,397.833 112.5,403.167 112.5,408.5C 111.833,411.167 111.167,411.167 110.5,408.5C 110.171,402.794 110.505,397.128 111.5,391.5C 112.107,391.624 112.44,391.957 112.5,392.5 Z"/></g>
<g><path style="opacity:1" fill="#6c6c6d" d="M 184.5,392.5 C 185.5,392.5 186.5,392.5 187.5,392.5C 189.296,393.793 190.963,395.293 192.5,397C 197.489,397.499 202.489,397.666 207.5,397.5C 208.833,397.5 210.167,397.5 211.5,397.5C 216.5,397.5 221.5,397.5 226.5,397.5C 226.5,396.167 226.5,394.833 226.5,393.5C 227.921,396.294 228.921,399.294 229.5,402.5C 231.5,402.5 233.5,402.5 235.5,402.5C 234.626,403.525 233.459,404.192 232,404.5C 216.937,404.605 201.771,404.438 186.5,404C 183.396,400.547 182.73,396.713 184.5,392.5 Z M 226.5,393.5 C 226.5,394.833 226.5,396.167 226.5,397.5C 221.5,397.5 216.5,397.5 211.5,397.5C 212.167,396.833 212.833,396.167 213.5,395.5C 214.959,395.567 216.292,395.234 217.5,394.5C 217.962,395.88 218.962,396.547 220.5,396.5C 222.756,395.886 224.756,394.886 226.5,393.5 Z"/></g>
<g><path style="opacity:1" fill="#7a7977" d="M 134.5,395.5 C 137.887,397.275 141.387,398.942 145,400.5C 146.622,400.046 147.788,399.046 148.5,397.5C 146.971,396.237 145.305,395.237 143.5,394.5C 145.347,393.427 147.347,393.427 149.5,394.5C 149.833,394.5 150.167,394.5 150.5,394.5C 151.429,395.315 152.429,396.148 153.5,397C 151.136,401.217 147.636,404.05 143,405.5C 142.768,404.263 142.268,403.263 141.5,402.5C 136.963,400.07 132.63,397.403 128.5,394.5C 130.523,393.479 132.523,393.812 134.5,395.5 Z M 134.5,395.5 C 137.287,394.523 140.287,394.19 143.5,394.5C 145.305,395.237 146.971,396.237 148.5,397.5C 147.788,399.046 146.622,400.046 145,400.5C 141.387,398.942 137.887,397.275 134.5,395.5 Z"/></g>
<g><path style="opacity:1" fill="#5d5c5a" d="M 448.5,405.5 C 445.497,410.833 441.497,415.167 436.5,418.5C 437.807,415.864 439.14,413.197 440.5,410.5C 441.425,409.359 442.259,409.359 443,410.5C 443.49,409.207 443.657,407.873 443.5,406.5C 445.216,406.371 446.883,406.038 448.5,405.5 Z"/></g>
<g><path style="opacity:1" fill="#686763" d="M 385.5,387.5 C 385.174,396.017 385.507,404.35 386.5,412.5C 387.167,412.5 387.833,412.5 388.5,412.5C 391.641,413.321 394.975,413.821 398.5,414C 394.179,414.499 389.846,414.666 385.5,414.5C 382.689,414.174 380.022,413.341 377.5,412C 379.724,411.96 381.724,411.794 383.5,411.5C 383.5,405.167 383.5,398.833 383.5,392.5C 383.077,390.219 383.744,388.552 385.5,387.5 Z"/></g>
<g><path style="opacity:0.502" fill="#a3a3a1" d="M 79.5,416.5 C 81.0269,416.427 82.0269,417.094 82.5,418.5C 80.9731,418.573 79.9731,417.906 79.5,416.5 Z"/></g>
<g><path style="opacity:0.008" fill="#d8d8d8" d="M 162.5,417.5 C 162.027,418.906 161.027,419.573 159.5,419.5C 159.973,418.094 160.973,417.427 162.5,417.5 Z"/></g>
<g><path style="opacity:1" fill="#676765" d="M 113.5,430.5 C 103.031,430.123 93.698,426.79 85.5,420.5C 86.8221,420.67 87.9887,420.337 89,419.5C 89.065,421.883 89.8983,422.55 91.5,421.5C 98.1288,426.481 105.462,429.481 113.5,430.5 Z"/></g>
<g><path style="opacity:1" fill="#8a8a88" d="M 428.5,424.5 C 427.341,426.25 425.674,427.25 423.5,427.5C 424.344,425.241 426.011,424.241 428.5,424.5 Z"/></g>
<g><path style="opacity:1" fill="#6d6d6b" d="M 146.5,426.5 C 143.785,428.072 140.785,429.072 137.5,429.5C 137.804,428.85 138.137,428.183 138.5,427.5C 141.086,426.52 143.753,426.187 146.5,426.5 Z"/></g>
</svg>
