<?xml version="1.0" encoding="UTF-8"?>
<!DOCTYPE svg PUBLIC "-//W3C//DTD SVG 1.1//EN" "http://www.w3.org/Graphics/SVG/1.1/DTD/svg11.dtd">
<svg xmlns="http://www.w3.org/2000/svg" version="1.1" width="500px" height="500px" style="shape-rendering:geometricPrecision; text-rendering:geometricPrecision; image-rendering:optimizeQuality; fill-rule:evenodd; clip-rule:evenodd" xmlns:xlink="http://www.w3.org/1999/xlink">
<g><path style="opacity:1" fill="#fefefe" d="M -0.5,-0.5 C 166.167,-0.5 332.833,-0.5 499.5,-0.5C 499.5,166.167 499.5,332.833 499.5,499.5C 332.833,499.5 166.167,499.5 -0.5,499.5C -0.5,332.833 -0.5,166.167 -0.5,-0.5 Z"/></g>
<g><path style="opacity:1" fill="#040301" d="M 241.5,78.5 C 250.902,77.1952 259.569,79.0285 267.5,84C 316.667,133.167 365.833,182.333 415,231.5C 422.291,243.515 422.291,255.515 415,267.5C 365.833,316.667 316.667,365.833 267.5,415C 255.473,422.292 243.473,422.292 231.5,415C 182,365.5 132.5,316 83,266.5C 76.6841,254.556 77.0175,242.89 84,231.5C 133.167,182.333 182.333,133.167 231.5,84C 234.767,81.8703 238.1,80.037 241.5,78.5 Z"/></g>
<g><path style="opacity:1" fill="#fedd58" d="M 243.5,93.5 C 248.846,92.8543 253.846,93.6876 258.5,96C 307,144.5 355.5,193 404,241.5C 406,246.833 406,252.167 404,257.5C 355.167,306.333 306.333,355.167 257.5,404C 252.167,406 246.833,406 241.5,404C 192.667,355.167 143.833,306.333 95,257.5C 93,252.167 93,246.833 95,241.5C 144.395,191.938 193.895,142.605 243.5,93.5 Z"/></g>
<g><path style="opacity:1" fill="#020100" d="M 216.5,163.5 C 238.5,163.5 260.5,163.5 282.5,163.5C 282.5,220.833 282.5,278.167 282.5,335.5C 260.5,335.5 238.5,335.5 216.5,335.5C 216.5,278.167 216.5,220.833 216.5,163.5 Z"/></g>
<g><path style="opacity:1" fill="#d11e11" d="M 243.5,171.5 C 256.979,169.824 266.479,175.157 272,187.5C 274.199,208.633 264.699,218.8 243.5,218C 226.762,210.46 222.262,198.293 230,181.5C 233.802,177.037 238.302,173.703 243.5,171.5 Z"/></g>
<g><path style="opacity:1" fill="#fcdb58" d="M 243.5,225.5 C 264.346,224.178 273.846,233.845 272,254.5C 266.937,268.955 256.77,274.455 241.5,271C 228.828,265.155 223.995,255.322 227,241.5C 229.778,233.22 235.278,227.887 243.5,225.5 Z"/></g>
<g><path style="opacity:1" fill="#7cd756" d="M 243.5,279.5 C 257.075,277.701 266.575,283.035 272,295.5C 273.994,317.839 263.827,327.672 241.5,325C 228.828,319.155 223.995,309.322 227,295.5C 230.438,287.893 235.938,282.56 243.5,279.5 Z"/></g>
</svg>
