<?xml version="1.0" encoding="UTF-8"?>
<!DOCTYPE svg PUBLIC "-//W3C//DTD SVG 1.1//EN" "http://www.w3.org/Graphics/SVG/1.1/DTD/svg11.dtd">
<svg xmlns="http://www.w3.org/2000/svg" version="1.1" width="500px" height="500px" style="shape-rendering:geometricPrecision; text-rendering:geometricPrecision; image-rendering:optimizeQuality; fill-rule:evenodd; clip-rule:evenodd" xmlns:xlink="http://www.w3.org/1999/xlink">
<g><path style="opacity:1" fill="#fefefe" d="M -0.5,-0.5 C 166.167,-0.5 332.833,-0.5 499.5,-0.5C 499.5,166.167 499.5,332.833 499.5,499.5C 332.833,499.5 166.167,499.5 -0.5,499.5C -0.5,332.833 -0.5,166.167 -0.5,-0.5 Z"/></g>
<g><path style="opacity:1" fill="#ee2e46" d="M 407.5,222.5 C 405.5,222.5 403.5,222.5 401.5,222.5C 401.167,222.5 400.833,222.5 400.5,222.5C 377.867,220.043 362.701,208.043 355,186.5C 349.022,156.621 359.855,135.455 387.5,123C 416.99,116.329 438.49,126.495 452,153.5C 459.352,179.783 451.852,200.616 429.5,216C 422.544,219.486 415.211,221.652 407.5,222.5 Z"/></g>
<g><path style="opacity:1" fill="#fefcfc" d="M 427.5,139.5 C 425.167,141.5 422.833,143.5 420.5,145.5C 411.374,141.397 402.041,140.73 392.5,143.5C 391.501,153.812 391.168,164.145 391.5,174.5C 384.833,181.5 378.167,188.5 371.5,195.5C 369.14,193.287 367.306,190.621 366,187.5C 359.118,166.822 364.284,149.989 381.5,137C 396.5,128.333 411.5,128.333 426.5,137C 427.252,137.671 427.586,138.504 427.5,139.5 Z"/></g>
<g><path style="opacity:1" fill="#eb3031" d="M 434.5,144.5 C 431.5,146.833 428.833,149.5 426.5,152.5C 422.833,155.5 419.5,158.833 416.5,162.5C 414.833,163.5 413.5,164.833 412.5,166.5C 405.167,173.167 398.167,180.167 391.5,187.5C 386.167,192.167 381.167,197.167 376.5,202.5C 375.206,203.29 374.039,204.29 373,205.5C 370.387,203.599 368.72,201.265 368,198.5C 369.145,197.364 370.312,196.364 371.5,195.5C 378.167,188.5 384.833,181.5 391.5,174.5C 395.833,170.833 399.833,166.833 403.5,162.5C 406.167,160.5 408.5,158.167 410.5,155.5C 414.167,152.5 417.5,149.167 420.5,145.5C 422.833,143.5 425.167,141.5 427.5,139.5C 429.177,136.637 431.51,134.804 434.5,134C 436.167,135.667 437.833,137.333 439.5,139C 437.627,140.704 435.96,142.537 434.5,144.5 Z"/></g>
<g><path style="opacity:1" fill="#070707" d="M 420.5,145.5 C 417.5,149.167 414.167,152.5 410.5,155.5C 408.393,154.532 406.059,154.198 403.5,154.5C 403.5,157.167 403.5,159.833 403.5,162.5C 399.833,166.833 395.833,170.833 391.5,174.5C 391.168,164.145 391.501,153.812 392.5,143.5C 402.041,140.73 411.374,141.397 420.5,145.5 Z"/></g>
<g><path style="opacity:1" fill="#fcfbfb" d="M 434.5,144.5 C 444.934,157.206 447.434,171.54 442,187.5C 430.352,209.39 412.518,216.89 388.5,210C 384.083,208.067 380.083,205.567 376.5,202.5C 381.167,197.167 386.167,192.167 391.5,187.5C 391.334,191.846 391.501,196.179 392,200.5C 396.401,201.467 400.901,201.8 405.5,201.5C 405.5,194.167 405.5,186.833 405.5,179.5C 419.177,179.984 426.844,173.484 428.5,160C 428.59,157.256 427.923,154.756 426.5,152.5C 428.833,149.5 431.5,146.833 434.5,144.5 Z"/></g>
<g><path style="opacity:1" fill="#090808" d="M 426.5,152.5 C 427.923,154.756 428.59,157.256 428.5,160C 426.844,173.484 419.177,179.984 405.5,179.5C 405.5,186.833 405.5,194.167 405.5,201.5C 400.901,201.8 396.401,201.467 392,200.5C 391.501,196.179 391.334,191.846 391.5,187.5C 398.167,180.167 405.167,173.167 412.5,166.5C 414.833,166.167 416.167,164.833 416.5,162.5C 419.5,158.833 422.833,155.5 426.5,152.5 Z"/></g>
<g><path style="opacity:1" fill="#f4f4f4" d="M 410.5,155.5 C 408.5,158.167 406.167,160.5 403.5,162.5C 403.5,159.833 403.5,157.167 403.5,154.5C 406.059,154.198 408.393,154.532 410.5,155.5 Z"/></g>
<g><path style="opacity:1" fill="#eadfdf" d="M 416.5,162.5 C 416.167,164.833 414.833,166.167 412.5,166.5C 413.5,164.833 414.833,163.5 416.5,162.5 Z"/></g>
<g><path style="opacity:1" fill="#76bce3" d="M 307.5,249.5 C 304.358,250.433 301.024,251.099 297.5,251.5C 296.274,251.48 295.274,251.147 294.5,250.5C 295.873,250.657 297.207,250.49 298.5,250C 285.167,242 271.833,234 258.5,226C 251.083,221.646 243.083,219.813 234.5,220.5C 229.833,220.5 225.167,220.5 220.5,220.5C 220.091,223.855 220.758,226.855 222.5,229.5C 221.527,231.948 221.194,234.615 221.5,237.5C 221.5,241.167 221.5,244.833 221.5,248.5C 218.5,248.5 215.5,248.5 212.5,248.5C 212.5,246.167 212.5,243.833 212.5,241.5C 212.5,237.833 212.5,234.167 212.5,230.5C 212.5,227.167 212.5,223.833 212.5,220.5C 207.167,220.5 201.833,220.5 196.5,220.5C 191.167,220.5 185.833,220.5 180.5,220.5C 171.827,220.334 163.16,220.5 154.5,221C 146.871,223.139 141.204,227.639 137.5,234.5C 136.4,235.605 135.733,236.938 135.5,238.5C 134.631,240.717 134.298,243.05 134.5,245.5C 122.829,245.667 111.162,245.5 99.5,245C 95.9748,244.821 92.6414,244.321 89.5,243.5C 107.145,235.011 124.811,226.511 142.5,218C 146.45,216.794 150.45,215.794 154.5,215C 182.5,214.333 210.5,214.333 238.5,215C 244.661,216.053 250.661,217.72 256.5,220C 273.855,229.34 290.855,239.173 307.5,249.5 Z"/></g>
<g><path style="opacity:1" fill="#3f3d3b" d="M 180.5,220.5 C 190.621,228.279 201.287,235.279 212.5,241.5C 212.5,243.833 212.5,246.167 212.5,248.5C 193.844,247.548 175.178,246.881 156.5,246.5C 150.344,242.253 144.01,238.253 137.5,234.5C 141.204,227.639 146.871,223.139 154.5,221C 163.16,220.5 171.827,220.334 180.5,220.5 Z"/></g>
<g><path style="opacity:1" fill="#c5e6f1" d="M 180.5,220.5 C 185.833,220.5 191.167,220.5 196.5,220.5C 201.489,224.331 206.822,227.664 212.5,230.5C 212.5,234.167 212.5,237.833 212.5,241.5C 201.287,235.279 190.621,228.279 180.5,220.5 Z"/></g>
<g><path style="opacity:1" fill="#454748" d="M 196.5,220.5 C 201.833,220.5 207.167,220.5 212.5,220.5C 212.5,223.833 212.5,227.167 212.5,230.5C 206.822,227.664 201.489,224.331 196.5,220.5 Z"/></g>
<g><path style="opacity:1" fill="#c9eaf5" d="M 234.5,220.5 C 248.228,230.226 262.228,239.559 276.5,248.5C 268.599,249.813 260.599,249.813 252.5,248.5C 242.5,242.167 232.5,235.833 222.5,229.5C 220.758,226.855 220.091,223.855 220.5,220.5C 225.167,220.5 229.833,220.5 234.5,220.5 Z"/></g>
<g><path style="opacity:1" fill="#403f3e" d="M 234.5,220.5 C 243.083,219.813 251.083,221.646 258.5,226C 271.833,234 285.167,242 298.5,250C 297.207,250.49 295.873,250.657 294.5,250.5C 289.156,250.666 283.823,250.499 278.5,250C 277.956,249.283 277.289,248.783 276.5,248.5C 262.228,239.559 248.228,230.226 234.5,220.5 Z"/></g>
<g><path style="opacity:1" fill="#4e4e4e" d="M 401.5,222.5 C 403.5,222.5 405.5,222.5 407.5,222.5C 407.5,239.833 407.5,257.167 407.5,274.5C 406.027,273.26 404.36,272.26 402.5,271.5C 401.501,255.18 401.167,238.847 401.5,222.5 Z"/></g>
<g><path style="opacity:1" fill="#434140" d="M 222.5,229.5 C 232.5,235.833 242.5,242.167 252.5,248.5C 247.934,249.797 243.267,249.797 238.5,248.5C 233.108,244.447 227.441,240.78 221.5,237.5C 221.194,234.615 221.527,231.948 222.5,229.5 Z"/></g>
<g><path style="opacity:1" fill="#c3e3ed" d="M 137.5,234.5 C 144.01,238.253 150.344,242.253 156.5,246.5C 152.187,247.01 148.187,246.343 144.5,244.5C 141.5,242.5 138.5,240.5 135.5,238.5C 135.733,236.938 136.4,235.605 137.5,234.5 Z"/></g>
<g><path style="opacity:1" fill="#c6e6f1" d="M 221.5,237.5 C 227.441,240.78 233.108,244.447 238.5,248.5C 232.833,248.5 227.167,248.5 221.5,248.5C 221.5,244.833 221.5,241.167 221.5,237.5 Z"/></g>
<g><path style="opacity:1" fill="#424140" d="M 135.5,238.5 C 138.5,240.5 141.5,242.5 144.5,244.5C 141.375,245.479 138.042,245.813 134.5,245.5C 134.298,243.05 134.631,240.717 135.5,238.5 Z"/></g>
<g><path style="opacity:1" fill="#89d2ee" d="M 89.5,243.5 C 92.6414,244.321 95.9748,244.821 99.5,245C 111.162,245.5 122.829,245.667 134.5,245.5C 138.042,245.813 141.375,245.479 144.5,244.5C 148.187,246.343 152.187,247.01 156.5,246.5C 175.178,246.881 193.844,247.548 212.5,248.5C 215.5,248.5 218.5,248.5 221.5,248.5C 227.167,248.5 232.833,248.5 238.5,248.5C 243.267,249.797 247.934,249.797 252.5,248.5C 260.599,249.813 268.599,249.813 276.5,248.5C 277.289,248.783 277.956,249.283 278.5,250C 283.823,250.499 289.156,250.666 294.5,250.5C 295.274,251.147 296.274,251.48 297.5,251.5C 301.024,251.099 304.358,250.433 307.5,249.5C 327.562,251.962 347.562,255.129 367.5,259C 378.381,261.238 388.715,264.738 398.5,269.5C 289.978,267.044 181.645,263.71 73.5,259.5C 73.6524,255.738 74.319,252.072 75.5,248.5C 65.148,244.851 60.148,248.518 60.5,259.5C 59.5,259.5 58.5,259.5 57.5,259.5C 57.644,254.588 58.9773,250.088 61.5,246C 70.7791,244.834 80.1124,244.001 89.5,243.5 Z"/></g>
<g><path style="opacity:1" fill="#ed3f48" d="M 73.5,259.5 C 72.596,260.209 72.2627,261.209 72.5,262.5C 69.1501,262.665 65.8168,262.498 62.5,262C 61.244,261.583 60.5774,260.75 60.5,259.5C 60.148,248.518 65.148,244.851 75.5,248.5C 74.319,252.072 73.6524,255.738 73.5,259.5 Z"/></g>
<g><path style="opacity:1" fill="#424343" d="M 135.5,249.5 C 138.722,249.108 141.722,249.608 144.5,251C 141.167,251.667 137.833,251.667 134.5,251C 135.056,250.617 135.389,250.117 135.5,249.5 Z"/></g>
<g><path style="opacity:1" fill="#424342" d="M 134.5,254.5 C 137.64,253.359 140.973,253.192 144.5,254C 141.278,255.818 137.945,255.984 134.5,254.5 Z"/></g>
<g><path style="opacity:1" fill="#444748" d="M 226.5,252.5 C 228.989,252.298 231.323,252.798 233.5,254C 230.5,254.667 227.5,254.667 224.5,254C 225.416,253.722 226.082,253.222 226.5,252.5 Z"/></g>
<g><path style="opacity:1" fill="#434544" d="M 225.5,258.5 C 227.966,257.366 230.633,257.199 233.5,258C 230.881,259.696 228.214,259.863 225.5,258.5 Z"/></g>
<g><path style="opacity:1" fill="#76bce4" d="M 400.5,222.5 C 400.833,222.5 401.167,222.5 401.5,222.5C 401.167,238.847 401.501,255.18 402.5,271.5C 404.36,272.26 406.027,273.26 407.5,274.5C 415.015,280.051 418.015,287.551 416.5,297C 418.639,306.209 415.639,312.709 407.5,316.5C 405.5,316.5 403.5,316.5 401.5,316.5C 401.806,319.385 401.473,322.052 400.5,324.5C 400.5,321.833 400.5,319.167 400.5,316.5C 395.167,316.5 389.833,316.5 384.5,316.5C 387.725,295.767 379.725,281.6 360.5,274C 341.063,271.704 328.73,279.87 323.5,298.5C 322.527,300.948 322.194,303.615 322.5,306.5C 267.5,306.5 212.5,306.5 157.5,306.5C 157.802,303.941 157.468,301.607 156.5,299.5C 153.853,282.021 143.687,272.688 126,271.5C 119.687,271.662 113.853,273.329 108.5,276.5C 90.7767,275.773 73.1101,274.44 55.5,272.5C 55.5,271.5 55.5,270.5 55.5,269.5C 55.5399,266.012 56.2066,262.679 57.5,259.5C 58.5,259.5 59.5,259.5 60.5,259.5C 60.5774,260.75 61.244,261.583 62.5,262C 65.8168,262.498 69.1501,262.665 72.5,262.5C 72.2627,261.209 72.596,260.209 73.5,259.5C 181.645,263.71 289.978,267.044 398.5,269.5C 400.484,254.202 401.151,238.536 400.5,222.5 Z"/></g>
<g><path style="opacity:1" fill="#c9ecf9" d="M 384.5,272.5 C 389.074,271.165 393.74,271.332 398.5,273C 404.231,276.023 408.898,280.19 412.5,285.5C 407.44,285.829 402.44,284.996 397.5,283C 393.136,279.492 388.803,275.992 384.5,272.5 Z"/></g>
<g><path style="opacity:1" fill="#8bd4f0" d="M 55.5,269.5 C 55.5,270.5 55.5,271.5 55.5,272.5C 73.1101,274.44 90.7767,275.773 108.5,276.5C 98.2757,285.497 93.9423,296.83 95.5,310.5C 80.6758,308.835 66.0092,306.335 51.5,303C 50.8742,302.25 50.3742,301.416 50,300.5C 49.3333,292.167 49.3333,283.833 50,275.5C 50.5885,273.137 52.0885,272.137 54.5,272.5C 54.2627,271.209 54.596,270.209 55.5,269.5 Z"/></g>
<g><path style="opacity:1" fill="#413f3d" d="M 135.5,326.5 C 128.865,329.12 122.198,329.12 115.5,326.5C 99.7856,317.334 95.6189,304.334 103,287.5C 111.758,275.577 123.258,272.077 137.5,277C 152.407,285.969 156.574,298.469 150,314.5C 146.488,320.185 141.655,324.185 135.5,326.5 Z"/></g>
<g><path style="opacity:1" fill="#413e3c" d="M 368.5,326.5 C 364.108,329.849 359.108,331.182 353.5,330.5C 347.892,331.182 342.892,329.849 338.5,326.5C 325.718,316.305 323.218,303.972 331,289.5C 337.914,279.465 347.414,275.632 359.5,278C 369.902,280.735 376.736,287.235 380,297.5C 381.939,309.527 378.106,319.193 368.5,326.5 Z"/></g>
<g><path style="opacity:1" fill="#c3e2ec" d="M 122.5,282.5 C 140.786,283.397 147.619,292.73 143,310.5C 137.855,319.006 130.355,322.173 120.5,320C 108.113,313.844 104.613,304.344 110,291.5C 113.299,287.118 117.466,284.118 122.5,282.5 Z"/></g>
<g><path style="opacity:1" fill="#c2e2ec" d="M 348.5,285.5 C 365.168,284.335 373.001,292.002 372,308.5C 368.485,319.508 360.985,324.341 349.5,323C 337.03,318.269 332.53,309.436 336,296.5C 339.148,291.509 343.314,287.843 348.5,285.5 Z"/></g>
<g><path style="opacity:1" fill="#484847" d="M 122.5,286.5 C 137.898,287.339 143.398,295.005 139,309.5C 130.966,318.395 122.632,318.728 114,310.5C 108.696,299.467 111.529,291.467 122.5,286.5 Z"/></g>
<g><path style="opacity:1" fill="#484847" d="M 348.5,289.5 C 365.264,289.08 371.098,296.746 366,312.5C 357.667,321.833 349.333,321.833 341,312.5C 336.643,302.556 339.143,294.889 348.5,289.5 Z"/></g>
<g><path style="opacity:1" fill="#c9ebf5" d="M 121.5,290.5 C 133.372,289.536 138.538,294.87 137,306.5C 131.409,314.566 124.742,315.566 117,309.5C 112.598,301.644 114.098,295.31 121.5,290.5 Z"/></g>
<g><path style="opacity:1" fill="#c9eaf5" d="M 349.5,292.5 C 360.18,292.015 365.347,297.015 365,307.5C 361.88,314.974 356.38,317.474 348.5,315C 339.046,307.179 339.379,299.679 349.5,292.5 Z"/></g>
<g><path style="opacity:1" fill="#ee3b45" d="M 387.5,294.5 C 396.143,295.72 404.809,296.72 413.5,297.5C 415.245,307.394 411.245,312.728 401.5,313.5C 397.524,312.836 393.524,312.503 389.5,312.5C 389.823,306.365 389.156,300.365 387.5,294.5 Z"/></g>
<g><path style="opacity:1" fill="#8bd3ef" d="M 323.5,298.5 C 323.5,304.5 323.5,310.5 323.5,316.5C 267.833,316.5 212.167,316.5 156.5,316.5C 156.5,310.833 156.5,305.167 156.5,299.5C 157.468,301.607 157.802,303.941 157.5,306.5C 212.5,306.5 267.5,306.5 322.5,306.5C 322.194,303.615 322.527,300.948 323.5,298.5 Z"/></g>
<g><path style="opacity:1" fill="#4e5258" d="M 407.5,316.5 C 407.5,318.833 407.5,321.167 407.5,323.5C 409.833,323.5 412.167,323.5 414.5,323.5C 414.5,324.833 414.5,326.167 414.5,327.5C 433.833,327.5 453.167,327.5 472.5,327.5C 472.5,330.167 472.5,332.833 472.5,335.5C 323.833,335.5 175.167,335.5 26.5,335.5C 26.5,332.833 26.5,330.167 26.5,327.5C 56.338,327.831 86.0047,327.498 115.5,326.5C 122.198,329.12 128.865,329.12 135.5,326.5C 203.167,327.833 270.833,327.833 338.5,326.5C 342.892,329.849 347.892,331.182 353.5,330.5C 359.108,331.182 364.108,329.849 368.5,326.5C 376.65,327.493 384.983,327.826 393.5,327.5C 393.5,326.5 393.5,325.5 393.5,324.5C 395.833,324.5 398.167,324.5 400.5,324.5C 401.473,322.052 401.806,319.385 401.5,316.5C 403.5,316.5 405.5,316.5 407.5,316.5 Z"/></g>
</svg>
