<?xml version="1.0" encoding="UTF-8"?>
<!DOCTYPE svg PUBLIC "-//W3C//DTD SVG 1.1//EN" "http://www.w3.org/Graphics/SVG/1.1/DTD/svg11.dtd">
<svg xmlns="http://www.w3.org/2000/svg" version="1.1" width="500px" height="500px" style="shape-rendering:geometricPrecision; text-rendering:geometricPrecision; image-rendering:optimizeQuality; fill-rule:evenodd; clip-rule:evenodd" xmlns:xlink="http://www.w3.org/1999/xlink">
<g><path style="opacity:1" fill="#fefefe" d="M -0.5,-0.5 C 166.167,-0.5 332.833,-0.5 499.5,-0.5C 499.5,166.167 499.5,332.833 499.5,499.5C 332.833,499.5 166.167,499.5 -0.5,499.5C -0.5,332.833 -0.5,166.167 -0.5,-0.5 Z"/></g>
<g><path style="opacity:1" fill="#474b52" d="M 189.5,49.5 C 208.833,49.5 228.167,49.5 247.5,49.5C 247.5,51.5 247.5,53.5 247.5,55.5C 248.833,55.5 250.167,55.5 251.5,55.5C 251.5,53.5 251.5,51.5 251.5,49.5C 270.833,49.5 290.167,49.5 309.5,49.5C 309.5,96.1667 309.5,142.833 309.5,189.5C 356.167,189.5 402.833,189.5 449.5,189.5C 449.5,208.833 449.5,228.167 449.5,247.5C 447.5,247.5 445.5,247.5 443.5,247.5C 443.5,248.833 443.5,250.167 443.5,251.5C 445.5,251.5 447.5,251.5 449.5,251.5C 449.5,270.833 449.5,290.167 449.5,309.5C 402.833,309.5 356.167,309.5 309.5,309.5C 309.5,356.167 309.5,402.833 309.5,449.5C 290.167,449.5 270.833,449.5 251.5,449.5C 251.5,446.833 251.5,444.167 251.5,441.5C 250.167,441.5 248.833,441.5 247.5,441.5C 247.5,444.167 247.5,446.833 247.5,449.5C 228.167,449.5 208.833,449.5 189.5,449.5C 189.5,402.833 189.5,356.167 189.5,309.5C 142.833,309.5 96.1667,309.5 49.5,309.5C 49.5,290.167 49.5,270.833 49.5,251.5C 51.5,251.5 53.5,251.5 55.5,251.5C 55.5,250.167 55.5,248.833 55.5,247.5C 53.5,247.5 51.5,247.5 49.5,247.5C 49.5,228.167 49.5,208.833 49.5,189.5C 96.1667,189.5 142.833,189.5 189.5,189.5C 189.5,142.833 189.5,96.1667 189.5,49.5 Z"/></g>
<g><path style="opacity:1" fill="#f1f8fb" d="M 247.5,62.5 C 248.833,62.5 250.167,62.5 251.5,62.5C 251.5,68.5 251.5,74.5 251.5,80.5C 250.167,80.5 248.833,80.5 247.5,80.5C 247.5,74.5 247.5,68.5 247.5,62.5 Z"/></g>
<g><path style="opacity:1" fill="#f1f8fb" d="M 247.5,87.5 C 248.833,87.5 250.167,87.5 251.5,87.5C 251.5,93.5 251.5,99.5 251.5,105.5C 250.167,105.5 248.833,105.5 247.5,105.5C 247.5,99.5 247.5,93.5 247.5,87.5 Z"/></g>
<g><path style="opacity:1" fill="#f1f8fb" d="M 247.5,111.5 C 248.833,111.5 250.167,111.5 251.5,111.5C 251.5,117.5 251.5,123.5 251.5,129.5C 250.167,129.5 248.833,129.5 247.5,129.5C 247.5,123.5 247.5,117.5 247.5,111.5 Z"/></g>
<g><path style="opacity:1" fill="#ecf2f6" d="M 197.5,136.5 C 201.167,136.5 204.833,136.5 208.5,136.5C 208.5,153.833 208.5,171.167 208.5,188.5C 204.833,188.5 201.167,188.5 197.5,188.5C 197.5,171.167 197.5,153.833 197.5,136.5 Z"/></g>
<g><path style="opacity:1" fill="#f0f6fa" d="M 216.5,136.5 C 220.167,136.5 223.833,136.5 227.5,136.5C 227.5,153.833 227.5,171.167 227.5,188.5C 223.833,188.5 220.167,188.5 216.5,188.5C 216.5,171.167 216.5,153.833 216.5,136.5 Z"/></g>
<g><path style="opacity:1" fill="#f1f8fb" d="M 234.5,136.5 C 238.167,136.5 241.833,136.5 245.5,136.5C 245.5,153.833 245.5,171.167 245.5,188.5C 241.833,188.5 238.167,188.5 234.5,188.5C 234.5,171.167 234.5,153.833 234.5,136.5 Z"/></g>
<g><path style="opacity:1" fill="#eef4f8" d="M 253.5,136.5 C 257.167,136.5 260.833,136.5 264.5,136.5C 264.5,153.833 264.5,171.167 264.5,188.5C 260.833,188.5 257.167,188.5 253.5,188.5C 253.5,171.167 253.5,153.833 253.5,136.5 Z"/></g>
<g><path style="opacity:1" fill="#f1f8fb" d="M 271.5,136.5 C 275.167,136.5 278.833,136.5 282.5,136.5C 282.5,153.833 282.5,171.167 282.5,188.5C 278.833,188.5 275.167,188.5 271.5,188.5C 271.5,171.167 271.5,153.833 271.5,136.5 Z"/></g>
<g><path style="opacity:1" fill="#ecf2f6" d="M 290.5,136.5 C 294.167,136.5 297.833,136.5 301.5,136.5C 301.5,153.833 301.5,171.167 301.5,188.5C 297.833,188.5 294.167,188.5 290.5,188.5C 290.5,171.167 290.5,153.833 290.5,136.5 Z"/></g>
<g><path style="opacity:1" fill="#c9cacb" d="M 189.5,49.5 C 189.5,96.1667 189.5,142.833 189.5,189.5C 142.833,189.5 96.1667,189.5 49.5,189.5C 95.6637,188.501 141.997,188.168 188.5,188.5C 188.168,141.997 188.501,95.6637 189.5,49.5 Z"/></g>
<g><path style="opacity:1" fill="#c9cacc" d="M 309.5,49.5 C 310.499,95.6637 310.832,141.997 310.5,188.5C 357.003,188.168 403.336,188.501 449.5,189.5C 402.833,189.5 356.167,189.5 309.5,189.5C 309.5,142.833 309.5,96.1667 309.5,49.5 Z"/></g>
<g><path style="opacity:1" fill="#e5ebf0" d="M 136.5,197.5 C 153.833,197.5 171.167,197.5 188.5,197.5C 188.5,201.5 188.5,205.5 188.5,209.5C 171.167,209.5 153.833,209.5 136.5,209.5C 136.5,205.5 136.5,201.5 136.5,197.5 Z"/></g>
<g><path style="opacity:1" fill="#e5ebf0" d="M 310.5,197.5 C 327.833,197.5 345.167,197.5 362.5,197.5C 362.5,201.5 362.5,205.5 362.5,209.5C 345.167,209.5 327.833,209.5 310.5,209.5C 310.5,205.5 310.5,201.5 310.5,197.5 Z"/></g>
<g><path style="opacity:1" fill="#f1f8fb" d="M 136.5,216.5 C 153.833,216.5 171.167,216.5 188.5,216.5C 188.5,220.167 188.5,223.833 188.5,227.5C 171.167,227.5 153.833,227.5 136.5,227.5C 136.5,223.833 136.5,220.167 136.5,216.5 Z"/></g>
<g><path style="opacity:1" fill="#f1f8fb" d="M 310.5,216.5 C 327.833,216.5 345.167,216.5 362.5,216.5C 362.5,220.167 362.5,223.833 362.5,227.5C 345.167,227.5 327.833,227.5 310.5,227.5C 310.5,223.833 310.5,220.167 310.5,216.5 Z"/></g>
<g><path style="opacity:1" fill="#f1f8fb" d="M 136.5,234.5 C 153.833,234.5 171.167,234.5 188.5,234.5C 188.5,238.167 188.5,241.833 188.5,245.5C 171.167,245.5 153.833,245.5 136.5,245.5C 136.5,241.833 136.5,238.167 136.5,234.5 Z"/></g>
<g><path style="opacity:1" fill="#f1f8fb" d="M 310.5,234.5 C 327.833,234.5 345.167,234.5 362.5,234.5C 362.5,238.167 362.5,241.833 362.5,245.5C 345.167,245.5 327.833,245.5 310.5,245.5C 310.5,241.833 310.5,238.167 310.5,234.5 Z"/></g>
<g><path style="opacity:1" fill="#eff5f9" d="M 62.5,247.5 C 68.5,247.5 74.5,247.5 80.5,247.5C 80.5,248.833 80.5,250.167 80.5,251.5C 74.5,251.5 68.5,251.5 62.5,251.5C 62.5,250.167 62.5,248.833 62.5,247.5 Z"/></g>
<g><path style="opacity:1" fill="#f1f8fb" d="M 86.5,247.5 C 92.5,247.5 98.5,247.5 104.5,247.5C 104.5,248.833 104.5,250.167 104.5,251.5C 98.5,251.5 92.5,251.5 86.5,251.5C 86.5,250.167 86.5,248.833 86.5,247.5 Z"/></g>
<g><path style="opacity:1" fill="#eff5f9" d="M 111.5,247.5 C 117.5,247.5 123.5,247.5 129.5,247.5C 129.5,248.833 129.5,250.167 129.5,251.5C 123.5,251.5 117.5,251.5 111.5,251.5C 111.5,250.167 111.5,248.833 111.5,247.5 Z"/></g>
<g><path style="opacity:1" fill="#eef4f8" d="M 370.5,247.5 C 376.5,247.5 382.5,247.5 388.5,247.5C 388.5,248.833 388.5,250.167 388.5,251.5C 382.5,251.5 376.5,251.5 370.5,251.5C 370.5,250.167 370.5,248.833 370.5,247.5 Z"/></g>
<g><path style="opacity:1" fill="#f0f5fa" d="M 394.5,247.5 C 400.5,247.5 406.5,247.5 412.5,247.5C 412.5,248.833 412.5,250.167 412.5,251.5C 406.5,251.5 400.5,251.5 394.5,251.5C 394.5,250.167 394.5,248.833 394.5,247.5 Z"/></g>
<g><path style="opacity:1" fill="#f1f8fb" d="M 419.5,247.5 C 425.5,247.5 431.5,247.5 437.5,247.5C 437.5,248.833 437.5,250.167 437.5,251.5C 431.5,251.5 425.5,251.5 419.5,251.5C 419.5,250.167 419.5,248.833 419.5,247.5 Z"/></g>
<g><path style="opacity:1" fill="#f1f8fb" d="M 136.5,253.5 C 153.833,253.5 171.167,253.5 188.5,253.5C 188.5,257.167 188.5,260.833 188.5,264.5C 171.167,264.5 153.833,264.5 136.5,264.5C 136.5,260.833 136.5,257.167 136.5,253.5 Z"/></g>
<g><path style="opacity:1" fill="#f1f8fb" d="M 310.5,253.5 C 327.833,253.5 345.167,253.5 362.5,253.5C 362.5,257.167 362.5,260.833 362.5,264.5C 345.167,264.5 327.833,264.5 310.5,264.5C 310.5,260.833 310.5,257.167 310.5,253.5 Z"/></g>
<g><path style="opacity:1" fill="#f1f8fb" d="M 136.5,271.5 C 153.833,271.5 171.167,271.5 188.5,271.5C 188.5,275.167 188.5,278.833 188.5,282.5C 171.167,282.5 153.833,282.5 136.5,282.5C 136.5,278.833 136.5,275.167 136.5,271.5 Z"/></g>
<g><path style="opacity:1" fill="#f1f8fb" d="M 310.5,271.5 C 327.833,271.5 345.167,271.5 362.5,271.5C 362.5,275.167 362.5,278.833 362.5,282.5C 345.167,282.5 327.833,282.5 310.5,282.5C 310.5,278.833 310.5,275.167 310.5,271.5 Z"/></g>
<g><path style="opacity:1" fill="#e5ebf0" d="M 136.5,289.5 C 153.833,289.5 171.167,289.5 188.5,289.5C 188.5,293.5 188.5,297.5 188.5,301.5C 171.167,301.5 153.833,301.5 136.5,301.5C 136.5,297.5 136.5,293.5 136.5,289.5 Z"/></g>
<g><path style="opacity:1" fill="#e5ebf0" d="M 310.5,289.5 C 327.833,289.5 345.167,289.5 362.5,289.5C 362.5,293.5 362.5,297.5 362.5,301.5C 345.167,301.5 327.833,301.5 310.5,301.5C 310.5,297.5 310.5,293.5 310.5,289.5 Z"/></g>
<g><path style="opacity:1" fill="#c1c3c4" d="M 49.5,309.5 C 96.1667,309.5 142.833,309.5 189.5,309.5C 189.5,356.167 189.5,402.833 189.5,449.5C 188.501,403.336 188.168,357.003 188.5,310.5C 141.997,310.832 95.6637,310.499 49.5,309.5 Z"/></g>
<g><path style="opacity:1" fill="#ecf2f6" d="M 197.5,310.5 C 201.167,310.5 204.833,310.5 208.5,310.5C 208.5,327.833 208.5,345.167 208.5,362.5C 204.833,362.5 201.167,362.5 197.5,362.5C 197.5,345.167 197.5,327.833 197.5,310.5 Z"/></g>
<g><path style="opacity:1" fill="#f0f6fa" d="M 216.5,310.5 C 220.167,310.5 223.833,310.5 227.5,310.5C 227.5,327.833 227.5,345.167 227.5,362.5C 223.833,362.5 220.167,362.5 216.5,362.5C 216.5,345.167 216.5,327.833 216.5,310.5 Z"/></g>
<g><path style="opacity:1" fill="#f1f8fb" d="M 234.5,310.5 C 238.167,310.5 241.833,310.5 245.5,310.5C 245.5,327.833 245.5,345.167 245.5,362.5C 241.833,362.5 238.167,362.5 234.5,362.5C 234.5,345.167 234.5,327.833 234.5,310.5 Z"/></g>
<g><path style="opacity:1" fill="#eef4f8" d="M 253.5,310.5 C 257.167,310.5 260.833,310.5 264.5,310.5C 264.5,327.833 264.5,345.167 264.5,362.5C 260.833,362.5 257.167,362.5 253.5,362.5C 253.5,345.167 253.5,327.833 253.5,310.5 Z"/></g>
<g><path style="opacity:1" fill="#f1f8fb" d="M 271.5,310.5 C 275.167,310.5 278.833,310.5 282.5,310.5C 282.5,327.833 282.5,345.167 282.5,362.5C 278.833,362.5 275.167,362.5 271.5,362.5C 271.5,345.167 271.5,327.833 271.5,310.5 Z"/></g>
<g><path style="opacity:1" fill="#ecf2f6" d="M 290.5,310.5 C 294.167,310.5 297.833,310.5 301.5,310.5C 301.5,327.833 301.5,345.167 301.5,362.5C 297.833,362.5 294.167,362.5 290.5,362.5C 290.5,345.167 290.5,327.833 290.5,310.5 Z"/></g>
<g><path style="opacity:1" fill="#c2c3c5" d="M 449.5,309.5 C 403.336,310.499 357.003,310.832 310.5,310.5C 310.832,357.003 310.499,403.336 309.5,449.5C 309.5,402.833 309.5,356.167 309.5,309.5C 356.167,309.5 402.833,309.5 449.5,309.5 Z"/></g>
<g><path style="opacity:1" fill="#74797f" d="M 246.5,367.5 C 248.5,367.5 250.5,367.5 252.5,367.5C 252.5,373.833 252.5,380.167 252.5,386.5C 250.5,386.5 248.5,386.5 246.5,386.5C 246.5,380.167 246.5,373.833 246.5,367.5 Z"/></g>
<g><path style="opacity:1" fill="#f1f8fb" d="M 247.5,368.5 C 248.833,368.5 250.167,368.5 251.5,368.5C 251.5,374.167 251.5,379.833 251.5,385.5C 250.167,385.5 248.833,385.5 247.5,385.5C 247.5,379.833 247.5,374.167 247.5,368.5 Z"/></g>
<g><path style="opacity:1" fill="#f1f8fb" d="M 247.5,392.5 C 248.833,392.5 250.167,392.5 251.5,392.5C 251.5,398.5 251.5,404.5 251.5,410.5C 250.167,410.5 248.833,410.5 247.5,410.5C 247.5,404.5 247.5,398.5 247.5,392.5 Z"/></g>
<g><path style="opacity:1" fill="#f1f8fb" d="M 247.5,417.5 C 248.833,417.5 250.167,417.5 251.5,417.5C 251.5,423.5 251.5,429.5 251.5,435.5C 250.167,435.5 248.833,435.5 247.5,435.5C 247.5,429.5 247.5,423.5 247.5,417.5 Z"/></g>
</svg>
