<?xml version="1.0" encoding="UTF-8"?>
<!DOCTYPE svg PUBLIC "-//W3C//DTD SVG 1.1//EN" "http://www.w3.org/Graphics/SVG/1.1/DTD/svg11.dtd">
<svg xmlns="http://www.w3.org/2000/svg" version="1.1" width="500px" height="500px" style="shape-rendering:geometricPrecision; text-rendering:geometricPrecision; image-rendering:optimizeQuality; fill-rule:evenodd; clip-rule:evenodd" xmlns:xlink="http://www.w3.org/1999/xlink">
<g><path style="opacity:1" fill="#fefefe" d="M -0.5,-0.5 C 166.167,-0.5 332.833,-0.5 499.5,-0.5C 499.5,166.167 499.5,332.833 499.5,499.5C 332.833,499.5 166.167,499.5 -0.5,499.5C -0.5,332.833 -0.5,166.167 -0.5,-0.5 Z"/></g>
<g><path style="opacity:1" fill="#ffe43b" d="M 282.5,45.5 C 285.942,48.3389 288.442,52.0055 290,56.5C 290.667,57.5 290.667,58.5 290,59.5C 286.34,55.37 283.84,50.7034 282.5,45.5 Z"/></g>
<g><path style="opacity:1" fill="#ffe331" d="M 321.5,47.5 C 322.376,47.3691 323.043,47.7025 323.5,48.5C 321.249,52.9165 318.416,56.9165 315,60.5C 316.393,55.8946 318.56,51.5613 321.5,47.5 Z"/></g>
<g><path style="opacity:1" fill="#ffe53b" d="M 302.5,44.5 C 303.586,44.62 304.253,45.2867 304.5,46.5C 303.981,49.6012 303.147,52.6012 302,55.5C 301.421,51.7973 301.588,48.1306 302.5,44.5 Z"/></g>
<g><path style="opacity:1" fill="#ffe642" d="M 270.5,59.5 C 272.78,60.6401 275.114,61.8068 277.5,63C 279.255,63.7199 280.089,64.8866 280,66.5C 277.602,65.1437 275.102,63.9771 272.5,63C 271.177,62.1841 270.511,61.0174 270.5,59.5 Z"/></g>
<g><path style="opacity:1" fill="#ffe43a" d="M 332.5,61.5 C 334.465,61.9483 334.798,62.9483 333.5,64.5C 330.254,66.0392 327.088,67.7059 324,69.5C 323.312,68.6683 323.479,68.0016 324.5,67.5C 327.492,65.8288 330.159,63.8288 332.5,61.5 Z"/></g>
<g><path style="opacity:1" fill="#ffe222" d="M 326.5,80.5 C 331.544,80.1725 336.544,80.5059 341.5,81.5C 339,81.8333 336.5,82.1667 334,82.5C 331.071,82.4752 328.571,81.8086 326.5,80.5 Z"/></g>
<g><path style="opacity:1" fill="#504f4b" d="M 283.5,107.5 C 282.957,106.258 282.623,104.925 282.5,103.5C 283.314,100.703 283.981,97.8701 284.5,95C 282.871,89.782 281.871,84.4487 281.5,79C 283.317,64.2044 291.65,58.2044 306.5,61C 324.939,68.5269 327.272,79.5269 313.5,94C 303.937,95.8961 297.937,101.563 295.5,111C 294.167,111.667 292.833,111.667 291.5,111C 288.929,109.546 286.262,108.38 283.5,107.5 Z"/></g>
<g><path style="opacity:1" fill="#ece237" d="M 290.5,104.5 C 288.694,107.338 287.694,107.005 287.5,103.5C 289.873,101.421 291.206,98.7541 291.5,95.5C 294.518,89.2892 296.351,82.6225 297,75.5C 298.11,73.9632 299.61,73.2965 301.5,73.5C 300.833,75.8333 300.167,78.1667 299.5,80.5C 301.638,80.297 303.305,79.297 304.5,77.5C 304.833,77.6667 305.167,77.8333 305.5,78C 302.701,83.1018 303.368,83.6018 307.5,79.5C 309.283,80.3482 309.783,81.6815 309,83.5C 299.762,87.8986 293.595,94.8986 290.5,104.5 Z"/></g>
<g><path style="opacity:1" fill="#f1edd4" d="M 287.5,68.5 C 287.573,70.0269 286.906,71.0269 285.5,71.5C 285.427,69.9731 286.094,68.9731 287.5,68.5 Z"/></g>
<g><path style="opacity:1" fill="#e8e5d5" d="M 318.5,82.5 C 318.837,78.6924 318.337,75.0257 317,71.5C 307.967,62.1467 298.133,61.1467 287.5,68.5C 293.478,61.1597 300.811,59.6597 309.5,64C 317.213,67.0076 320.713,72.5076 320,80.5C 319.722,81.4158 319.222,82.0825 318.5,82.5 Z"/></g>
<g><path style="opacity:1" fill="#f7dc17" d="M 318.5,82.5 C 317.372,85.4054 315.705,88.0721 313.5,90.5C 307.628,92.3503 302.462,95.3503 298,99.5C 296.355,102.622 294.855,105.788 293.5,109C 292.551,109.617 291.718,109.451 291,108.5C 290.51,107.207 290.343,105.873 290.5,104.5C 295.45,95.217 302.45,87.8836 311.5,82.5C 313.92,69.7502 308.586,64.2502 295.5,66C 294.244,66.4169 293.577,67.2502 293.5,68.5C 292.5,69.1667 291.5,69.8333 290.5,70.5C 287.63,72.2386 286.297,74.9053 286.5,78.5C 286.457,83.0848 288.457,86.4182 292.5,88.5C 292.007,90.8056 291.674,93.139 291.5,95.5C 289.659,97.8485 288.326,100.515 287.5,103.5C 286.849,104.091 286.182,104.757 285.5,105.5C 285.167,105 284.833,104.5 284.5,104C 286.003,100.991 287.003,97.8247 287.5,94.5C 285.968,89.9026 284.635,85.236 283.5,80.5C 284.014,77.4478 284.68,74.4478 285.5,71.5C 286.906,71.0269 287.573,70.0269 287.5,68.5C 298.133,61.1467 307.967,62.1467 317,71.5C 318.337,75.0257 318.837,78.6924 318.5,82.5 Z"/></g>
<g><path style="opacity:1" fill="#fffcdc" d="M 290.5,70.5 C 291.5,69.8333 292.5,69.1667 293.5,68.5C 294.738,67.5876 296.072,67.4209 297.5,68C 294.898,68.8834 292.731,70.3834 291,72.5C 290.536,71.9056 290.369,71.2389 290.5,70.5 Z"/></g>
<g><path style="opacity:1" fill="#fcf340" d="M 311.5,82.5 C 311.649,81.448 311.483,80.448 311,79.5C 308.457,76.6205 305.623,74.1205 302.5,72C 298.248,70.586 295.748,72.086 295,76.5C 294.811,80.7665 293.977,84.7665 292.5,88.5C 288.457,86.4182 286.457,83.0848 286.5,78.5C 286.297,74.9053 287.63,72.2386 290.5,70.5C 290.369,71.2389 290.536,71.9056 291,72.5C 292.731,70.3834 294.898,68.8834 297.5,68C 296.072,67.4209 294.738,67.5876 293.5,68.5C 293.577,67.2502 294.244,66.4169 295.5,66C 308.586,64.2502 313.92,69.7502 311.5,82.5 Z"/></g>
<g><path style="opacity:1" fill="#55533e" d="M 311.5,82.5 C 302.45,87.8836 295.45,95.217 290.5,104.5C 293.595,94.8986 299.762,87.8986 309,83.5C 309.783,81.6815 309.283,80.3482 307.5,79.5C 303.368,83.6018 302.701,83.1018 305.5,78C 305.167,77.8333 304.833,77.6667 304.5,77.5C 303.305,79.297 301.638,80.297 299.5,80.5C 300.167,78.1667 300.833,75.8333 301.5,73.5C 299.61,73.2965 298.11,73.9632 297,75.5C 296.351,82.6225 294.518,89.2892 291.5,95.5C 291.674,93.139 292.007,90.8056 292.5,88.5C 293.977,84.7665 294.811,80.7665 295,76.5C 295.748,72.086 298.248,70.586 302.5,72C 305.623,74.1205 308.457,76.6205 311,79.5C 311.483,80.448 311.649,81.448 311.5,82.5 Z"/></g>
<g><path style="opacity:1" fill="#ffe540" d="M 321.5,93.5 C 322.721,92.5354 324.054,92.702 325.5,94C 327.731,95.6097 329.731,97.443 331.5,99.5C 330.635,100.583 329.635,100.749 328.5,100C 326.297,97.6278 323.963,95.4611 321.5,93.5 Z"/></g>
<g><path style="opacity:1" fill="#585338" d="M 291.5,95.5 C 291.206,98.7541 289.873,101.421 287.5,103.5C 288.326,100.515 289.659,97.8485 291.5,95.5 Z"/></g>
<g><path style="opacity:1" fill="#4a4f52" d="M 283.5,107.5 C 283.953,108.458 284.619,109.292 285.5,110C 288.637,111.322 291.804,112.488 295,113.5C 295.617,114.449 295.451,115.282 294.5,116C 293.167,116.333 291.833,116.667 290.5,117C 291.337,118.011 291.67,119.178 291.5,120.5C 290.167,120.5 288.833,120.5 287.5,120.5C 287.5,121.5 287.5,122.5 287.5,123.5C 284.148,122.992 281.148,121.658 278.5,119.5C 279.833,117.833 279.833,116.167 278.5,114.5C 280.674,112.473 281.008,110.14 279.5,107.5C 280.833,107.5 282.167,107.5 283.5,107.5 Z"/></g>
<g><path style="opacity:1" fill="#ae7257" d="M 252.5,127.5 C 252.082,128.222 251.416,128.722 250.5,129C 252.037,130.707 253.704,132.207 255.5,133.5C 264.766,145.574 267.933,159.241 265,174.5C 264.313,178.58 263.313,182.58 262,186.5C 259.338,187.761 256.838,189.094 254.5,190.5C 253.251,188.864 251.584,187.697 249.5,187C 248.177,186.184 247.511,185.017 247.5,183.5C 249.857,183.663 252.19,183.497 254.5,183C 243.946,182.263 236.613,177.096 232.5,167.5C 231.777,169.164 232.11,170.831 233.5,172.5C 226.317,176.278 220.817,174.611 217,167.5C 215.801,161.038 214.135,154.705 212,148.5C 210.136,145.793 207.636,144.959 204.5,146C 208.039,146.422 210.373,148.255 211.5,151.5C 209.05,151.298 206.717,151.631 204.5,152.5C 201.962,152.118 200.129,153.451 199,156.5C 199.326,164.716 196.826,171.883 191.5,178C 192.094,178.464 192.761,178.631 193.5,178.5C 192.432,179.434 191.099,179.768 189.5,179.5C 190.666,177.834 190.666,176.167 189.5,174.5C 188.236,179.271 185.569,183.105 181.5,186C 182.094,186.464 182.761,186.631 183.5,186.5C 181.353,189.556 178.353,190.89 174.5,190.5C 175.952,189.698 177.618,189.198 179.5,189C 177.527,188.505 175.527,188.338 173.5,188.5C 171.782,179.908 170.449,171.241 169.5,162.5C 169.526,156.085 171.526,150.419 175.5,145.5C 174.575,144.438 173.575,144.438 172.5,145.5C 172.751,143.83 173.418,142.33 174.5,141C 174.272,140.601 173.938,140.435 173.5,140.5C 177.694,136.021 182.027,131.521 186.5,127C 189.044,125.908 191.711,125.241 194.5,125C 195.056,124.617 195.389,124.117 195.5,123.5C 198.617,122.566 201.617,121.233 204.5,119.5C 204.56,120.043 204.893,120.376 205.5,120.5C 220.148,114.899 233.482,117.066 245.5,127C 247.81,127.497 250.143,127.663 252.5,127.5 Z"/></g>
<g><path style="opacity:1" fill="#2f2926" d="M 252.5,127.5 C 250.143,127.663 247.81,127.497 245.5,127C 233.482,117.066 220.148,114.899 205.5,120.5C 204.893,120.376 204.56,120.043 204.5,119.5C 213.833,114.74 223.499,114.24 233.5,118C 239.58,121.972 245.913,125.139 252.5,127.5 Z"/></g>
<g><path style="opacity:1" fill="#2e2723" d="M 195.5,123.5 C 195.389,124.117 195.056,124.617 194.5,125C 191.711,125.241 189.044,125.908 186.5,127C 182.027,131.521 177.694,136.021 173.5,140.5C 172.142,141.626 170.808,141.626 169.5,140.5C 174.972,136.862 179.639,132.362 183.5,127C 186.95,124.051 190.95,122.884 195.5,123.5 Z"/></g>
<g><path style="opacity:1" fill="#3e291f" d="M 198.5,128.5 C 199.376,128.369 200.043,128.702 200.5,129.5C 198.816,132.612 198.15,135.946 198.5,139.5C 197.5,139.5 196.5,139.5 195.5,139.5C 195.892,135.658 196.892,131.991 198.5,128.5 Z"/></g>
<g><path style="opacity:1" fill="#838383" d="M 343.5,132.5 C 344.5,132.5 345.5,132.5 346.5,132.5C 346.5,137.833 346.5,143.167 346.5,148.5C 345.5,148.5 344.5,148.5 343.5,148.5C 343.5,143.167 343.5,137.833 343.5,132.5 Z"/></g>
<g><path style="opacity:1" fill="#2e2e2e" d="M 328.5,136.5 C 329.75,136.577 330.583,137.244 331,138.5C 332.639,141.742 333.639,145.076 334,148.5C 331.491,144.806 329.658,140.806 328.5,136.5 Z"/></g>
<g><path style="opacity:1" fill="#4e4e4e" d="M 358.5,136.5 C 359.497,136.47 360.164,136.97 360.5,138C 358.787,141.925 356.954,145.758 355,149.5C 354.333,148.167 354.333,146.833 355,145.5C 356.664,142.673 357.83,139.673 358.5,136.5 Z"/></g>
<g><path style="opacity:1" fill="#f9d8bc" d="M 211.5,151.5 C 212.724,156.445 213.89,161.445 215,166.5C 219.172,175.841 226.005,179.007 235.5,176C 239.057,179.275 243.057,181.775 247.5,183.5C 247.511,185.017 248.177,186.184 249.5,187C 251.584,187.697 253.251,188.864 254.5,190.5C 259.894,189.398 262.894,191.565 263.5,197C 263.268,202.967 260.601,207.467 255.5,210.5C 253.942,205.306 252.942,205.306 252.5,210.5C 249.66,219.182 245.993,227.515 241.5,235.5C 235.412,241.064 228.412,245.231 220.5,248C 218.5,248.667 216.5,248.667 214.5,248C 210.812,246.487 207.145,244.987 203.5,243.5C 191.534,234.6 184.368,222.6 182,207.5C 181.667,207.167 181.333,206.833 181,206.5C 180.781,207.938 180.281,209.271 179.5,210.5C 178.583,209.873 177.583,209.539 176.5,209.5C 171.397,204.753 169.897,199.087 172,192.5C 172.708,191.619 173.542,190.953 174.5,190.5C 178.353,190.89 181.353,189.556 183.5,186.5C 186.219,184.781 188.219,182.447 189.5,179.5C 191.099,179.768 192.432,179.434 193.5,178.5C 194.058,177.21 195.058,176.377 196.5,176C 199.54,175.68 202.54,175.68 205.5,176C 203.063,174.625 200.397,174.125 197.5,174.5C 199.628,168.741 200.795,162.741 201,156.5C 201.69,154.65 202.856,153.316 204.5,152.5C 206.717,151.631 209.05,151.298 211.5,151.5 Z"/></g>
<g><path style="opacity:1" fill="#352922" d="M 204.5,152.5 C 202.856,153.316 201.69,154.65 201,156.5C 200.795,162.741 199.628,168.741 197.5,174.5C 200.397,174.125 203.063,174.625 205.5,176C 202.54,175.68 199.54,175.68 196.5,176C 195.058,176.377 194.058,177.21 193.5,178.5C 192.761,178.631 192.094,178.464 191.5,178C 196.826,171.883 199.326,164.716 199,156.5C 200.129,153.451 201.962,152.118 204.5,152.5 Z"/></g>
<g><path style="opacity:1" fill="#1a1513" d="M 174.5,190.5 C 173.542,190.953 172.708,191.619 172,192.5C 169.897,199.087 171.397,204.753 176.5,209.5C 175.833,209.5 175.167,209.5 174.5,209.5C 168.748,202.98 168.081,195.98 172.5,188.5C 168.908,177.077 167.741,165.411 169,153.5C 169.906,150.69 171.073,148.024 172.5,145.5C 173.575,144.438 174.575,144.438 175.5,145.5C 171.526,150.419 169.526,156.085 169.5,162.5C 170.449,171.241 171.782,179.908 173.5,188.5C 175.527,188.338 177.527,188.505 179.5,189C 177.618,189.198 175.952,189.698 174.5,190.5 Z"/></g>
<g><path style="opacity:1" fill="#221a16" d="M 247.5,183.5 C 243.057,181.775 239.057,179.275 235.5,176C 226.005,179.007 219.172,175.841 215,166.5C 213.89,161.445 212.724,156.445 211.5,151.5C 210.373,148.255 208.039,146.422 204.5,146C 207.636,144.959 210.136,145.793 212,148.5C 214.135,154.705 215.801,161.038 217,167.5C 220.817,174.611 226.317,176.278 233.5,172.5C 232.11,170.831 231.777,169.164 232.5,167.5C 236.613,177.096 243.946,182.263 254.5,183C 252.19,183.497 249.857,183.663 247.5,183.5 Z"/></g>
<g><path style="opacity:1" fill="#3a3430" d="M 388.5,278.5 C 388.672,279.492 388.338,280.158 387.5,280.5C 386.978,277.747 386.144,275.08 385,272.5C 375.374,280.113 364.54,282.446 352.5,279.5C 352.44,278.957 352.107,278.624 351.5,278.5C 350.749,279.376 350.249,280.376 350,281.5C 349.505,279.527 349.338,277.527 349.5,275.5C 350.117,275.389 350.617,275.056 351,274.5C 351.667,272.167 351.667,269.833 351,267.5C 347.392,259.95 344.058,252.283 341,244.5C 339.939,239.896 339.273,235.229 339,230.5C 338.713,220.653 338.213,210.82 337.5,201C 338.262,197.416 339.262,193.916 340.5,190.5C 339.501,183.851 339.334,177.185 340,170.5C 340.489,167.018 341.655,163.851 343.5,161C 346.528,159.86 348.695,160.694 350,163.5C 351.496,173.452 352.663,183.452 353.5,193.5C 359.126,191.314 363.126,192.981 365.5,198.5C 369.598,199.21 372.598,201.376 374.5,205C 378.965,205.313 382.132,207.479 384,211.5C 387.502,226.313 386.836,240.98 382,255.5C 381.501,259.821 381.334,264.154 381.5,268.5C 383.144,268.286 384.644,268.62 386,269.5C 387.15,272.418 387.983,275.418 388.5,278.5 Z"/></g>
<g><path style="opacity:1" fill="#f1d1b6" d="M 344.5,162.5 C 347.766,162.433 349.266,164.099 349,167.5C 350.387,177.807 351.054,188.141 351,198.5C 350.333,199.167 349.667,199.833 349,200.5C 345.838,198.021 343.505,195.021 342,191.5C 341.333,183.833 341.333,176.167 342,168.5C 342.573,166.359 343.406,164.359 344.5,162.5 Z"/></g>
<g><path style="opacity:1" fill="#32251e" d="M 189.5,179.5 C 188.219,182.447 186.219,184.781 183.5,186.5C 182.761,186.631 182.094,186.464 181.5,186C 185.569,183.105 188.236,179.271 189.5,174.5C 190.666,176.167 190.666,177.834 189.5,179.5 Z"/></g>
<g><path style="opacity:1" fill="#161412" d="M 197.5,189.5 C 202.068,189.083 203.568,191.083 202,195.5C 200.451,198.003 198.784,198.003 197,195.5C 196.322,193.402 196.489,191.402 197.5,189.5 Z"/></g>
<g><path style="opacity:1" fill="#1e1b18" d="M 232.5,189.5 C 237.262,190.092 238.596,192.592 236.5,197C 230.403,197.147 229.07,194.647 232.5,189.5 Z"/></g>
<g><path style="opacity:1" fill="#2d2621" d="M 255.5,133.5 C 261.889,138.933 265.723,145.933 267,154.5C 268.491,166.717 266.991,178.551 262.5,190C 266.855,200.78 263.855,208.613 253.5,213.5C 252.596,212.791 252.263,211.791 252.5,210.5C 252.942,205.306 253.942,205.306 255.5,210.5C 260.601,207.467 263.268,202.967 263.5,197C 262.894,191.565 259.894,189.398 254.5,190.5C 256.838,189.094 259.338,187.761 262,186.5C 263.313,182.58 264.313,178.58 265,174.5C 267.933,159.241 264.766,145.574 255.5,133.5 Z"/></g>
<g><path style="opacity:1" fill="#f6d5b9" d="M 357.5,209.5 C 356.732,210.263 356.232,211.263 356,212.5C 355.502,215.817 355.335,219.15 355.5,222.5C 353.224,222.244 352.057,220.91 352,218.5C 351.333,212.833 351.333,207.167 352,201.5C 353.118,199.235 353.951,196.901 354.5,194.5C 358.833,193.535 361.833,195.035 363.5,199C 361.104,202.295 359.104,205.795 357.5,209.5 Z"/></g>
<g><path style="opacity:1" fill="#f9d8bc" d="M 339.5,196.5 C 343.923,196.744 346.756,199.078 348,203.5C 349.196,209.419 349.862,215.419 350,221.5C 356.699,227.739 360.865,235.406 362.5,244.5C 363.542,239.777 362.542,235.443 359.5,231.5C 363.812,230.747 368.145,230.581 372.5,231C 374.885,226.012 377.552,221.179 380.5,216.5C 380.167,216.167 379.833,215.833 379.5,215.5C 376.274,219.286 374.107,223.619 373,228.5C 370.478,231.326 368.478,230.993 367,227.5C 366.333,224.5 366.333,221.5 367,218.5C 368.667,215.167 370.333,211.833 372,208.5C 376.195,206.643 379.529,207.643 382,211.5C 384.413,220.007 385.08,228.674 384,237.5C 382.26,245.292 380.76,253.126 379.5,261C 380.147,265.212 380.647,269.379 381,273.5C 377.795,275.686 374.295,277.186 370.5,278C 365.177,278.499 359.844,278.666 354.5,278.5C 354.376,273.711 353.542,269.045 352,264.5C 347.841,257.184 344.508,249.517 342,241.5C 340.767,226.53 339.934,211.53 339.5,196.5 Z"/></g>
<g><path style="opacity:1" fill="#322b26" d="M 175.5,197.5 C 177.609,198.052 178.442,199.386 178,201.5C 176.519,200.529 175.685,199.196 175.5,197.5 Z"/></g>
<g><path style="opacity:1" fill="#2b2622" d="M 217.5,187.5 C 218.097,187.735 218.43,188.235 218.5,189C 217.188,192.581 216.188,196.248 215.5,200C 216.355,203.504 218.022,206.504 220.5,209C 220.112,210.951 219.112,212.451 217.5,213.5C 217.167,213.167 216.833,212.833 216.5,212.5C 219.293,209.346 218.793,206.68 215,204.5C 213.995,198.532 214.829,192.866 217.5,187.5 Z"/></g>
<g><path style="opacity:1" fill="#8a7868" d="M 256.5,197.5 C 257.586,197.62 258.253,198.287 258.5,199.5C 258.141,202.282 256.808,202.948 254.5,201.5C 255.63,200.378 256.297,199.044 256.5,197.5 Z"/></g>
<g><path style="opacity:1" fill="#edceb3" d="M 358.5,222.5 C 358.5,218.833 358.5,215.167 358.5,211.5C 360.097,207.811 362.097,204.311 364.5,201C 368.472,200.153 371.138,201.653 372.5,205.5C 366.578,212.019 364.078,219.686 365,228.5C 359.974,229.983 357.807,227.983 358.5,222.5 Z"/></g>
<g><path style="opacity:1" fill="#817162" d="M 357.5,209.5 C 357.328,210.492 357.662,211.158 358.5,211.5C 358.5,215.167 358.5,218.833 358.5,222.5C 357.681,219.695 357.181,216.695 357,213.5C 356.819,216.695 356.319,219.695 355.5,222.5C 355.335,219.15 355.502,215.817 356,212.5C 356.232,211.263 356.732,210.263 357.5,209.5 Z"/></g>
<g><path style="opacity:1" fill="#56514c" d="M 252.5,210.5 C 252.263,211.791 252.596,212.791 253.5,213.5C 251.637,221.578 248.137,228.911 243,235.5C 242.506,237.134 242.34,238.801 242.5,240.5C 241.549,239.081 241.216,237.415 241.5,235.5C 245.993,227.515 249.66,219.182 252.5,210.5 Z"/></g>
<g><path style="opacity:1" fill="#292623" d="M 202.5,218.5 C 212.167,218.5 221.833,218.5 231.5,218.5C 229.883,230.646 223.217,235.479 211.5,233C 206.247,229.577 203.247,224.744 202.5,218.5 Z"/></g>
<g><path style="opacity:1" fill="#9e9e9e" d="M 229.5,220.5 C 221.097,219.866 213.097,220.533 205.5,222.5C 204.596,221.791 204.263,220.791 204.5,219.5C 213.017,219.174 221.35,219.507 229.5,220.5 Z"/></g>
<g><path style="opacity:1" fill="#f8f8f8" d="M 229.5,220.5 C 224.788,233.851 217.288,235.851 207,226.5C 206.209,225.255 205.709,223.922 205.5,222.5C 213.097,220.533 221.097,219.866 229.5,220.5 Z"/></g>
<g><path style="opacity:1" fill="#141311" d="M 241.5,235.5 C 241.216,237.415 241.549,239.081 242.5,240.5C 243.5,240.833 244.167,241.5 244.5,242.5C 244.316,244.925 243.649,244.925 242.5,242.5C 241.202,244.052 241.535,245.052 243.5,245.5C 241.131,252.535 236.465,257.202 229.5,259.5C 233.104,256.398 236.604,253.065 240,249.5C 240.688,248.668 240.521,248.002 239.5,247.5C 226.36,257.449 214.027,256.449 202.5,244.5C 202.5,243.833 202.833,243.5 203.5,243.5C 207.145,244.987 210.812,246.487 214.5,248C 216.5,248.667 218.5,248.667 220.5,248C 228.412,245.231 235.412,241.064 241.5,235.5 Z"/></g>
<g><path style="opacity:1" fill="#f4d3b8" d="M 202.5,244.5 C 214.027,256.449 226.36,257.449 239.5,247.5C 240.521,248.002 240.688,248.668 240,249.5C 236.604,253.065 233.104,256.398 229.5,259.5C 227.284,260.203 225.451,261.536 224,263.5C 222.05,270.021 219.717,276.354 217,282.5C 214.803,276.909 212.803,271.242 211,265.5C 210.008,262.677 208.175,260.677 205.5,259.5C 201.843,256.343 198.343,253.01 195,249.5C 194.333,245.833 194.333,242.167 195,238.5C 197.439,240.629 199.939,242.629 202.5,244.5 Z"/></g>
<g><path style="opacity:1" fill="#f3f3f3" d="M 243.5,245.5 C 246.653,247.502 248.987,250.335 250.5,254C 248.025,259.782 245.692,265.615 243.5,271.5C 242.742,272.811 241.742,273.311 240.5,273C 238.542,270.252 236.709,267.418 235,264.5C 234.184,263.177 233.017,262.511 231.5,262.5C 230.449,261.778 229.782,260.778 229.5,259.5C 236.465,257.202 241.131,252.535 243.5,245.5 Z"/></g>
<g><path style="opacity:1" fill="#403e3c" d="M 203.5,243.5 C 202.833,243.5 202.5,243.833 202.5,244.5C 199.939,242.629 197.439,240.629 195,238.5C 194.333,242.167 194.333,245.833 195,249.5C 198.343,253.01 201.843,256.343 205.5,259.5C 204.833,259.833 204.167,260.167 203.5,260.5C 204.167,261.167 204.833,261.833 205.5,262.5C 203.61,262.297 202.11,262.963 201,264.5C 198.359,268.951 195.859,273.451 193.5,278C 191.591,278.448 190.424,277.615 190,275.5C 187.464,268.06 184.631,260.727 181.5,253.5C 185.058,248.132 188.725,242.966 192.5,238C 189.568,232.638 186.735,227.138 184,221.5C 182.855,218.568 182.022,215.568 181.5,212.5C 178.519,212.818 176.185,211.818 174.5,209.5C 175.167,209.5 175.833,209.5 176.5,209.5C 177.583,209.539 178.583,209.873 179.5,210.5C 180.281,209.271 180.781,207.938 181,206.5C 181.333,206.833 181.667,207.167 182,207.5C 184.368,222.6 191.534,234.6 203.5,243.5 Z"/></g>
<g><path style="opacity:1" fill="#f5f5f5" d="M 203.5,260.5 C 199.139,264.205 195.473,268.539 192.5,273.5C 188.512,266.872 185.678,259.872 184,252.5C 185.643,250.023 187.476,247.69 189.5,245.5C 193.483,251.149 198.149,256.149 203.5,260.5 Z"/></g>
<g><path style="opacity:1" fill="#494949" d="M 244.5,242.5 C 247.79,246.241 250.456,250.408 252.5,255C 249.778,262.62 246.611,270.12 243,277.5C 242.586,277.957 242.086,278.291 241.5,278.5C 239.034,273.067 235.7,268.234 231.5,264C 230.552,263.517 229.552,263.351 228.5,263.5C 229.209,262.596 230.209,262.263 231.5,262.5C 233.017,262.511 234.184,263.177 235,264.5C 236.709,267.418 238.542,270.252 240.5,273C 241.742,273.311 242.742,272.811 243.5,271.5C 245.692,265.615 248.025,259.782 250.5,254C 248.987,250.335 246.653,247.502 243.5,245.5C 241.535,245.052 241.202,244.052 242.5,242.5C 243.649,244.925 244.316,244.925 244.5,242.5 Z"/></g>
<g><path style="opacity:1" fill="#646464" d="M 309.5,267.5 C 308.494,267.938 308.494,268.604 309.5,269.5C 294.319,264.078 278.652,260.578 262.5,259C 259.578,258.583 256.911,257.583 254.5,256C 271.792,257.138 288.792,260.138 305.5,265C 306.858,265.934 308.192,266.768 309.5,267.5 Z"/></g>
<g><path style="opacity:1" fill="#1c1c1c" d="M 385.5,290.5 C 387.842,290.775 387.842,291.608 385.5,293C 376.271,298.688 366.604,299.855 356.5,296.5C 366.794,298.64 376.461,296.64 385.5,290.5 Z"/></g>
<g><path style="opacity:1" fill="#383838" d="M 309.5,267.5 C 316.998,271.487 323.498,276.82 329,283.5C 337.433,293.426 345.267,303.759 352.5,314.5C 353.209,315.404 354.209,315.737 355.5,315.5C 355.795,317.735 355.461,319.735 354.5,321.5C 343.672,303.812 330.672,287.646 315.5,273C 313.612,271.606 311.612,270.44 309.5,269.5C 308.494,268.604 308.494,267.938 309.5,267.5 Z"/></g>
<g><path style="opacity:1" fill="#545454" d="M 303.5,360.5 C 302.508,352.684 302.174,344.684 302.5,336.5C 302.169,328.472 302.502,320.472 303.5,312.5C 304.788,328.521 304.788,344.521 303.5,360.5 Z"/></g>
<g><path style="opacity:1" fill="#636363" d="M 349.5,275.5 C 349.338,277.527 349.505,279.527 350,281.5C 350.249,280.376 350.749,279.376 351.5,278.5C 352.107,278.624 352.44,278.957 352.5,279.5C 351.861,280.097 351.528,280.93 351.5,282C 356.446,313.489 359.113,344.989 359.5,376.5C 358.104,374.028 357.27,371.362 357,368.5C 355.887,352.846 355.054,337.179 354.5,321.5C 355.461,319.735 355.795,317.735 355.5,315.5C 354.209,315.737 353.209,315.404 352.5,314.5C 353.158,313.207 353.492,311.707 353.5,310C 351.652,299.734 349.985,289.4 348.5,279C 348.514,277.615 348.848,276.449 349.5,275.5 Z"/></g>
<g><path style="opacity:1" fill="#4d4d4d" d="M 177.5,254.5 C 179.337,254.639 179.67,255.306 178.5,256.5C 166.822,261.892 154.822,266.392 142.5,270C 133.235,273.543 125.068,278.709 118,285.5C 116.08,288.339 114.413,291.339 113,294.5C 109.691,306.357 107.024,318.357 105,330.5C 100.339,369.45 96.3388,408.45 93,447.5C 92.3333,440.167 92.3333,432.833 93,425.5C 95.865,393.78 99.1983,362.113 103,330.5C 105.025,318.346 107.692,306.346 111,294.5C 114.344,286.821 119.511,280.654 126.5,276C 131.833,273.333 137.167,270.667 142.5,268C 154.434,263.752 166.101,259.252 177.5,254.5 Z"/></g>
<g><path style="opacity:1" fill="#1a1a19" d="M 205.5,259.5 C 208.175,260.677 210.008,262.677 211,265.5C 212.803,271.242 214.803,276.909 217,282.5C 219.717,276.354 222.05,270.021 224,263.5C 225.451,261.536 227.284,260.203 229.5,259.5C 229.782,260.778 230.449,261.778 231.5,262.5C 230.209,262.263 229.209,262.596 228.5,263.5C 225.949,265.578 224.116,268.244 223,271.5C 221.194,276.416 219.694,281.416 218.5,286.5C 221.569,309.699 223.069,333.033 223,356.5C 223.833,387.505 223.667,418.505 222.5,449.5C 222.026,399.813 220.859,350.146 219,300.5C 217.568,290.2 214.902,280.2 211,270.5C 209.884,267.244 208.051,264.578 205.5,262.5C 204.833,261.833 204.167,261.167 203.5,260.5C 204.167,260.167 204.833,259.833 205.5,259.5 Z"/></g>
<g><path style="opacity:1" fill="#3f3f3f" d="M 388.5,278.5 C 395.723,304.163 401.556,330.163 406,356.5C 406.667,364.833 406.667,373.167 406,381.5C 404.39,390.569 399.89,397.736 392.5,403C 386.525,404.872 380.525,404.872 374.5,403C 348.907,390.584 326.573,373.751 307.5,352.5C 308.002,351.479 308.668,351.312 309.5,352C 325.359,368.243 342.692,382.576 361.5,395C 370.308,401.05 379.975,403.384 390.5,402C 395,400.167 398.167,397 400,392.5C 404.192,382.21 405.525,371.543 404,360.5C 400.083,333.5 394.583,306.833 387.5,280.5C 388.338,280.158 388.672,279.492 388.5,278.5 Z"/></g>
<g><path style="opacity:1" fill="#5a5a5a" d="M 136.5,435.5 C 137.167,433.167 137.833,430.833 138.5,428.5C 138.81,429.738 139.31,429.738 140,428.5C 140.667,422.5 140.667,416.5 140,410.5C 139.802,412.382 139.302,414.048 138.5,415.5C 138.152,386.749 136.485,358.082 133.5,329.5C 133.833,327.833 134.167,326.167 134.5,324.5C 139.469,365.7 141.469,407.033 140.5,448.5C 139.675,444.878 139.175,441.211 139,437.5C 138.824,440.882 138.324,444.215 137.5,447.5C 136.509,443.555 136.176,439.555 136.5,435.5 Z"/></g>
<g><path style="opacity:1" fill="#141414" d="M 138.5,428.5 C 138.5,424.167 138.5,419.833 138.5,415.5C 139.302,414.048 139.802,412.382 140,410.5C 140.667,416.5 140.667,422.5 140,428.5C 139.31,429.738 138.81,429.738 138.5,428.5 Z"/></g>
<g><path style="opacity:1" fill="#696969" d="M 302.5,336.5 C 302.174,344.684 302.508,352.684 303.5,360.5C 303.52,389.54 302.52,418.54 300.5,447.5C 299.802,410.327 300.468,373.327 302.5,336.5 Z"/></g>
<g><path style="opacity:1" fill="#a6a6a6" d="M 138.5,415.5 C 138.5,419.833 138.5,424.167 138.5,428.5C 137.833,430.833 137.167,433.167 136.5,435.5C 136.735,428.646 137.402,421.979 138.5,415.5 Z"/></g>
</svg>
