<?xml version="1.0" encoding="UTF-8"?>
<!DOCTYPE svg PUBLIC "-//W3C//DTD SVG 1.1//EN" "http://www.w3.org/Graphics/SVG/1.1/DTD/svg11.dtd">
<svg xmlns="http://www.w3.org/2000/svg" version="1.1" width="1024px" height="1024px" style="shape-rendering:geometricPrecision; text-rendering:geometricPrecision; image-rendering:optimizeQuality; fill-rule:evenodd; clip-rule:evenodd" xmlns:xlink="http://www.w3.org/1999/xlink">
<g><path style="opacity:1" fill="#000000" d="M -0.5,-0.5 C 340.833,-0.5 682.167,-0.5 1023.5,-0.5C 1023.5,340.833 1023.5,682.167 1023.5,1023.5C 682.167,1023.5 340.833,1023.5 -0.5,1023.5C -0.5,682.167 -0.5,340.833 -0.5,-0.5 Z"/></g>
<g><path style="opacity:1" fill="#882126" d="M 814.5,133.5 C 814.5,129.833 814.5,126.167 814.5,122.5C 731.833,122.5 649.167,122.5 566.5,122.5C 566.5,151.167 566.5,179.833 566.5,208.5C 566.167,208.5 565.833,208.5 565.5,208.5C 565.5,179.5 565.5,150.5 565.5,121.5C 648.833,121.5 732.167,121.5 815.5,121.5C 815.817,125.702 815.483,129.702 814.5,133.5 Z"/></g>
<g><path style="opacity:1" fill="#fefefe" d="M 429.5,121.5 C 438.833,121.5 448.167,121.5 457.5,121.5C 457.5,179.5 457.5,237.5 457.5,295.5C 419.135,293.07 394.301,310.07 383,346.5C 378.598,379.198 390.765,403.365 419.5,419C 431.705,423.879 444.372,425.712 457.5,424.5C 457.5,482.5 457.5,540.5 457.5,598.5C 362.498,599.097 289.998,559.431 240,479.5C 204.679,414.324 199.012,346.658 223,276.5C 261.696,184.73 330.529,133.064 429.5,121.5 Z"/></g>
<g><path style="opacity:1" fill="#ef3943" d="M 814.5,133.5 C 807.069,205.549 770.069,255.716 703.5,284C 686.762,290.514 669.429,294.014 651.5,294.5C 623.167,294.5 594.833,294.5 566.5,294.5C 566.5,265.833 566.5,237.167 566.5,208.5C 566.5,179.833 566.5,151.167 566.5,122.5C 649.167,122.5 731.833,122.5 814.5,122.5C 814.5,126.167 814.5,129.833 814.5,133.5 Z"/></g>
<g><path style="opacity:1" fill="#b82c34" d="M 565.5,208.5 C 565.833,208.5 566.167,208.5 566.5,208.5C 566.5,237.167 566.5,265.833 566.5,294.5C 594.833,294.5 623.167,294.5 651.5,294.5C 623.005,295.498 594.338,295.831 565.5,295.5C 565.5,266.5 565.5,237.5 565.5,208.5 Z"/></g>
<g><path style="opacity:1" fill="#909090" d="M 590.5,425.5 C 582.5,425.5 574.5,425.5 566.5,425.5C 566.831,454.671 566.498,483.671 565.5,512.5C 565.5,483.167 565.5,453.833 565.5,424.5C 574.017,424.174 582.35,424.507 590.5,425.5 Z"/></g>
<g><path style="opacity:1" fill="#fefefe" d="M 590.5,425.5 C 686.464,434.676 754.964,482.676 796,569.5C 815.774,617.444 820.108,666.777 809,717.5C 785.089,806.505 729.255,865.005 641.5,893C 616.957,899.693 591.957,902.526 566.5,901.5C 566.5,843.833 566.5,786.167 566.5,728.5C 572.358,728.822 578.025,728.489 583.5,727.5C 616.079,722.088 635.246,703.088 641,670.5C 642.348,636.021 626.848,612.854 594.5,601C 584.958,598.857 575.292,598.024 565.5,598.5C 565.5,569.833 565.5,541.167 565.5,512.5C 566.498,483.671 566.831,454.671 566.5,425.5C 574.5,425.5 582.5,425.5 590.5,425.5 Z"/></g>
<g><path style="opacity:1" fill="#ef3943" d="M 362.5,728.5 C 394.167,728.5 425.833,728.5 457.5,728.5C 457.5,786.167 457.5,843.833 457.5,901.5C 374.5,901.5 291.5,901.5 208.5,901.5C 210.409,833.818 240.409,782.984 298.5,749C 318.764,738.41 340.098,731.577 362.5,728.5 Z"/></g>
<g><path style="opacity:1" fill="#b7b7b7" d="M 583.5,727.5 C 578.025,728.489 572.358,728.822 566.5,728.5C 566.5,786.167 566.5,843.833 566.5,901.5C 565.501,843.669 565.168,785.669 565.5,727.5C 571.5,727.5 577.5,727.5 583.5,727.5 Z"/></g>
</svg>
