<?xml version="1.0" encoding="UTF-8"?>
<!DOCTYPE svg PUBLIC "-//W3C//DTD SVG 1.1//EN" "http://www.w3.org/Graphics/SVG/1.1/DTD/svg11.dtd">
<svg xmlns="http://www.w3.org/2000/svg" version="1.1" width="500px" height="500px" style="shape-rendering:geometricPrecision; text-rendering:geometricPrecision; image-rendering:optimizeQuality; fill-rule:evenodd; clip-rule:evenodd" xmlns:xlink="http://www.w3.org/1999/xlink">
<g><path style="opacity:1" fill="#fefefe" d="M -0.5,-0.5 C 166.167,-0.5 332.833,-0.5 499.5,-0.5C 499.5,166.167 499.5,332.833 499.5,499.5C 332.833,499.5 166.167,499.5 -0.5,499.5C -0.5,332.833 -0.5,166.167 -0.5,-0.5 Z"/></g>
<g><path style="opacity:1" fill="#4e4f51" d="M 195.5,39.5 C 209.833,39.5 224.167,39.5 238.5,39.5C 239.167,51.5 239.833,51.5 240.5,39.5C 254.911,38.8609 269.078,39.5276 283,41.5C 332.337,180.68 381.171,320.014 429.5,459.5C 367.5,459.5 305.5,459.5 243.5,459.5C 242.864,420.837 242.531,382.17 242.5,343.5C 240.167,343.5 237.833,343.5 235.5,343.5C 235.292,382.168 234.958,420.835 234.5,459.5C 172.166,459.667 109.832,459.5 47.5,459C 97.1327,319.268 146.466,179.435 195.5,39.5 Z"/></g>
<g><path style="opacity:1" fill="#f8f8f8" d="M 240.5,91.5 C 238.529,82.8955 237.862,73.8955 238.5,64.5C 238.187,61.7531 238.52,59.0865 239.5,56.5C 240.499,68.1477 240.832,79.8143 240.5,91.5 Z"/></g>
<g><path style="opacity:1" fill="#141212" d="M 379.5,129.5 C 378.5,129.5 377.5,129.5 376.5,129.5C 369.825,129.666 363.158,129.5 356.5,129C 349.826,117.317 343.16,105.651 336.5,94C 342.78,81.9397 349.446,70.1064 356.5,58.5C 370.488,57.3339 384.488,57.1672 398.5,58C 405.626,69.7509 412.626,81.5842 419.5,93.5C 412.833,105.167 406.167,116.833 399.5,128.5C 392.866,129.497 386.2,129.83 379.5,129.5 Z"/></g>
<g><path style="opacity:1" fill="#dc2b2b" d="M 401.5,72.5 C 385.5,72.5 369.5,72.5 353.5,72.5C 352.761,72.631 352.094,72.4643 351.5,72C 353.5,68.6667 355.5,65.3333 357.5,62C 371.179,61.1673 384.846,61.3339 398.5,62.5C 400.375,65.7511 402.375,68.9177 404.5,72C 403.552,72.4828 402.552,72.6495 401.5,72.5 Z"/></g>
<g><path style="opacity:1" fill="#230906" d="M 359.5,62.5 C 360.75,62.5774 361.583,63.244 362,64.5C 362.308,63.6919 362.808,63.0253 363.5,62.5C 364.833,65.1667 364.833,67.8333 363.5,70.5C 362.808,69.9747 362.308,69.3081 362,68.5C 361.692,69.3081 361.192,69.9747 360.5,70.5C 359.52,67.9135 359.187,65.2469 359.5,62.5 Z"/></g>
<g><path style="opacity:1" fill="#931c1d" d="M 366.5,65.5 C 368.05,64.2801 369.716,64.2801 371.5,65.5C 372.405,66.9643 372.405,68.2976 371.5,69.5C 370.833,69.8333 370.167,70.1667 369.5,70.5C 369.5,68.8333 369.5,67.1667 369.5,65.5C 368.5,65.5 367.5,65.5 366.5,65.5 Z"/></g>
<g><path style="opacity:1" fill="#3f100e" d="M 371.5,69.5 C 372.405,68.2976 372.405,66.9643 371.5,65.5C 372.849,64.2035 374.182,64.3702 375.5,66C 374.833,66.3333 374.167,66.6667 373.5,67C 374.973,67.7096 375.64,68.8762 375.5,70.5C 373.901,70.7678 372.568,70.4345 371.5,69.5 Z"/></g>
<g><path style="opacity:1" fill="#160403" d="M 366.5,65.5 C 367.5,65.5 368.5,65.5 369.5,65.5C 369.5,67.1667 369.5,68.8333 369.5,70.5C 365.727,70.3427 364.727,68.676 366.5,65.5 Z"/></g>
<g><path style="opacity:1" fill="#b22223" d="M 366.5,66.5 C 368.337,66.6395 368.67,67.3061 367.5,68.5C 366.702,68.0431 366.369,67.3764 366.5,66.5 Z"/></g>
<g><path style="opacity:1" fill="#300e09" d="M 382.5,65.5 C 381.722,66.1556 381.056,66.9889 380.5,68C 381.509,68.3546 382.176,69.1879 382.5,70.5C 378.65,70.2993 377.65,68.4659 379.5,65C 380.749,64.2599 381.749,64.4265 382.5,65.5 Z"/></g>
<g><path style="opacity:1" fill="#761718" d="M 382.5,65.5 C 383.167,65.5 383.833,65.5 384.5,65.5C 384.5,67.1667 384.5,68.8333 384.5,70.5C 383.833,70.5 383.167,70.5 382.5,70.5C 382.176,69.1879 381.509,68.3546 380.5,68C 381.056,66.9889 381.722,66.1556 382.5,65.5 Z"/></g>
<g><path style="opacity:1" fill="#1a0504" d="M 384.5,65.5 C 385.833,65.5 387.167,65.5 388.5,65.5C 388.66,67.1992 388.494,68.8659 388,70.5C 386.52,65.1961 385.353,65.1961 384.5,70.5C 384.5,68.8333 384.5,67.1667 384.5,65.5 Z"/></g>
<g><path style="opacity:1" fill="#160403" d="M 390.5,65.5 C 391.5,65.5 392.5,65.5 393.5,65.5C 393.5,67.1667 393.5,68.8333 393.5,70.5C 389.727,70.3427 388.727,68.676 390.5,65.5 Z"/></g>
<g><path style="opacity:1" fill="#b22223" d="M 390.5,66.5 C 392.337,66.6395 392.67,67.3061 391.5,68.5C 390.702,68.0431 390.369,67.3764 390.5,66.5 Z"/></g>
<g><path style="opacity:1" fill="#571413" d="M 393.5,70.5 C 393.5,68.8333 393.5,67.1667 393.5,65.5C 392.5,65.5 391.5,65.5 390.5,65.5C 392.231,64.7934 393.897,63.7934 395.5,62.5C 396.48,65.0865 396.813,67.7531 396.5,70.5C 395.5,70.5 394.5,70.5 393.5,70.5 Z"/></g>
<g><path style="opacity:1" fill="#eef3f7" d="M 353.5,72.5 C 369.5,72.5 385.5,72.5 401.5,72.5C 404.44,77.9466 407.607,83.2799 411,88.5C 412.59,90.6498 413.257,92.9832 413,95.5C 407.699,104.964 402.199,114.297 396.5,123.5C 384.18,124.666 371.847,124.833 359.5,124C 353.752,113.834 347.752,103.834 341.5,94C 346.157,87.182 350.157,80.0154 353.5,72.5 Z"/></g>
<g><path style="opacity:1" fill="#7d7d7f" d="M 238.5,64.5 C 237.862,73.8955 238.529,82.8955 240.5,91.5C 239.791,92.404 238.791,92.7373 237.5,92.5C 237.173,82.985 237.506,73.6517 238.5,64.5 Z"/></g>
<g><path style="opacity:1" fill="#0d0d0d" d="M 365.5,85.5 C 368.167,85.5 370.833,85.5 373.5,85.5C 373.5,94.1667 373.5,102.833 373.5,111.5C 371.5,111.5 369.5,111.5 367.5,111.5C 367.666,105.491 367.499,99.4908 367,93.5C 364.8,94.9901 362.966,94.6568 361.5,92.5C 363.098,90.3021 364.431,87.9687 365.5,85.5 Z"/></g>
<g><path style="opacity:1" fill="#0a0b0b" d="M 380.5,85.5 C 392.402,83.7094 395.735,88.0428 390.5,98.5C 394.67,102.999 394.336,107.166 389.5,111C 385.091,112.262 381.257,111.428 378,108.5C 378.134,103.295 377.968,98.1286 377.5,93C 377.548,90.078 378.548,87.578 380.5,85.5 Z"/></g>
<g><path style="opacity:1" fill="#cbd0d3" d="M 383.5,91.5 C 384.5,91.5 385.5,91.5 386.5,91.5C 386.762,92.9778 386.429,94.3112 385.5,95.5C 383.889,94.6798 383.222,93.3464 383.5,91.5 Z"/></g>
<g><path style="opacity:1" fill="#c1c6c9" d="M 383.5,101.5 C 386.166,101.066 387.333,102.066 387,104.5C 383.403,106.066 382.237,105.066 383.5,101.5 Z"/></g>
<g><path style="opacity:1" fill="#e7e7e7" d="M 237.5,108.5 C 238.833,108.5 240.167,108.5 241.5,108.5C 241.5,130.167 241.5,151.833 241.5,173.5C 240.167,173.5 238.833,173.5 237.5,173.5C 237.5,151.833 237.5,130.167 237.5,108.5 Z"/></g>
<g><path style="opacity:1" fill="#57585a" d="M 191.5,39.5 C 192.097,39.7352 192.43,40.2352 192.5,41C 140.358,180.428 88.0249,319.761 35.5,459C 33.8659,459.494 32.1992,459.66 30.5,459.5C 83.7721,319.35 137.439,179.35 191.5,39.5 Z"/></g>
<g><path style="opacity:1" fill="#57585a" d="M 285.5,39.5 C 287.117,41.1209 288.284,43.1209 289,45.5C 341.735,183.206 394.569,320.872 447.5,458.5C 445.604,459.466 443.604,459.799 441.5,459.5C 389.5,319.5 337.5,179.5 285.5,39.5 Z"/></g>
<g><path style="opacity:1" fill="#454443" d="M 376.5,129.5 C 377.5,129.5 378.5,129.5 379.5,129.5C 379.5,149.5 379.5,169.5 379.5,189.5C 380.833,189.5 382.167,189.5 383.5,189.5C 383.5,190.5 383.5,191.5 383.5,192.5C 379.5,192.5 375.5,192.5 371.5,192.5C 371.5,191.5 371.5,190.5 371.5,189.5C 373.167,189.5 374.833,189.5 376.5,189.5C 376.5,169.5 376.5,149.5 376.5,129.5 Z"/></g>
<g><path style="opacity:1" fill="#f4f5f5" d="M 236.5,199.5 C 238.167,199.5 239.833,199.5 241.5,199.5C 241.798,235.834 242.131,272.167 242.5,308.5C 240.5,308.5 238.5,308.5 236.5,308.5C 236.5,272.167 236.5,235.833 236.5,199.5 Z"/></g>
</svg>
